<svg xmlns="http://www.w3.org/2000/svg" xmlns:xlink="http://www.w3.org/1999/xlink" height="480" width="640" viewBox="0 0 640 480">
  <path fill="#d0103a" d="M0 0h640v480H0z"/>
  <path fill="#fedf00" d="M0 0h435.2v480H0z"/>
  <path fill="#0018a8" d="M0 0h204.8v480H0z"/>
  <path d="M300.4 136.63c7.7 0 10.86 6.6 18.58 6.6 4.75 0 7.53-1.54 11.68-3.88 2.9-1.64 4.74-2.52 8.07-2.52 3.4 0 5.5 1.03 7.23 3.95 1 1.65 1.8 4.88 1.37 6.74-.82 3.5-1.32 5.04-2.73 8.3-.67 1.55-1.3 2.48-1.3 4.2 0 4.08 5.57 5.5 9.36 5.55.83 0 7.77.12 12.04-4.2-2.32-.1-4.9-1.9-4.9-4.22 0-2.62 1.84-4.4 4.33-5.15.48-.14 1.3.28 1.72.05.6-.3.32-1 .86-1.43 1.3-1 2.1-1.6 3.7-1.6 1.1 0 1.7.13 2.5.73.5.32.6.7 1.2.7 1.2 0 1.7-.7 2.9-.7.9 0 1.5.1 2.3.53.7.35.7 1.5 1.5 1.5.4 0 2.4-.83 3.5-.83 2.2 0 3.4.8 4.8 2.48.4.45.7 1.36 1.1 1.36.8 0 2.6.5 3.8 1.6.5.5.7.7 1.1 1.3.3.4.7 1.4 1.1 1.6.6.2 1 .1 1.7.6 1.7 1 2.9 3 2.8 4.8 0 .6-.3 1.5-.4 2.1-1.9 6.5-6.3 8.6-10.9 14.3-1.9 2.4-3.4 4.3-3.4 7.4 0 .7.9 2.1 1.3 2.7-.2-1.5.4-3.3 2-3.3 2.1-.2 3.7 1.4 4 3.5.1.4-.1 1.3-.3 1.8 1.1-.8 2.6-1.3 4-1.4.8-.1 1.2-.1 1.9-.1 3.4.1 7.1 1.9 9.3 3.9 6.9 5.8 7.7 14.4 7.4 16.7-.8 5.3-.3 14.8-13.8 18.6 2.5 1.1 4.2 2.9 4.2 5.2 0 2.5-1.9 4.6-4.4 4.6-1.4 0-2.4-.4-3.4-1.4-2.8 2.8-3.3 5.7-3.3 9.7 0 2.4.5 3.8 1.5 5.9 1.1 2.3 1.8 3.6 3.7 5.2 1-1.5 2.1-2.6 3.9-2.6 1.8 0 3.3.5 4 2.1.2.5 0 .9.3 1.3.3.6.9.7 1.2 1.3.5.9 0 1.7.4 2.7.3.6.9.7 1.2 1.3.5 1 .6 1.6.6 2.7 0 3-2.7 5.2-5.7 5.2-.9 0-1.4-.4-2.3-.3 1.7 1.7 3.1 2.4 4.4 4.5 1.9 2.9 2.3 5.1 2.8 8.6.1.6.1 1 .1 1.7 0 4.5-.7 7.2-2.7 11.2-2 3.8-3.6 6-7.1 8.5-5.5 3.9-9.4 5-16 6.3-4.3.8-6.7 1.2-11 1.5-5.5.4-8.6.4-14.1.7-7.2.5-12.2 1.5-17.3 6.6 2.4 1.8 4.1 3.5 4.1 6.5s-1.9 5.2-4.8 6.2c-.7.2-1.2 0-1.8.4-.8.4-.7 1.3-1.5 1.7-1.3.8-2.3 1-3.8 1-2.7 0-4.5-.7-6.4-2.6-2.2 1.9-2.9 3.5-5.4 4.9-.8.5-1.2 1.1-2.1 1.1-1.5 0-2.1-.9-3.3-1.8-1.9-1.4-2.9-2.3-4.4-4.1-2.2 1.3-3.6 2.4-6.2 2.4-1.6 0-2.6-.2-3.9-1.1-.7-.4-.9-1.1-1.6-1.5-.7-.5-1.4-.3-2.2-.6-3-1.3-5-3.6-5-6.9 0-2.9 1.9-4.7 4.5-6-5-5-9.9-5.9-17-6.3-5.5-.4-8.6-.4-14-.77-4.33-.3-6.74-.73-11.04-1.5-3.2-.5-5.14-.7-8.1-2.1-10.3-4.7-16.8-11.3-18.1-22.5-.1-1-.1-1.5-.1-2.5 0-5.8 2.3-9.4 6.4-13.5-1.1-.3-1.8.1-2.8-.3-2.6-.9-4.45-2.7-4.45-5.5 0-1 0-1.7.5-2.5.3-.65 1-.77 1.14-1.47.2-.97-.1-1.6.38-2.5.3-.6.88-.7 1.1-1.27.9-1.9 2-3.4 4.1-3.4 1.8 0 2.9.9 3.8 2.4 1.7-.8 2.2-2.1 3.2-3.7 1.6-2.7 2.4-4.6 2.4-7.7 0-2.2-.2-3.5-.9-5.6-.5-1.5-.7-2.5-1.8-3.6-1 1-2 1.4-3.45 1.4-2.8 0-5-2.4-5-5.3 0-2.1 1-3.7 3-4.6-1.6-1.35-2.9-1.5-4.6-2.5-2.6-1.6-3.5-3.4-5.3-5.96-1.1-1.7-1.4-2.9-2-4.8-.7-2.3-1.1-3.7-1.1-6.2 0-.6 0-1 .1-1.6.6-4.9 1.5-8 4.6-11.8 1.85-2.3 3.1-3.7 5.8-4.9 2.3-1 3.7-1.7 6.2-1.7.76 0 1.2 0 1.95.1 1.14.1 1.9.3 2.9.8.4.2 1.1.9 1.1.4s-.27-.8-.27-1.3c0-2.1 1.5-4 3.6-4 1.5 0 2.1 1.4 2.85 2.7.5-.8.7-1.4.7-2.3 0-3.4-1.8-5.2-4-7.8-4.7-5.85-10.5-8.57-10.5-16.04 0-2.2 1.1-3.7 3-4.8.58-.3 1.3 0 1.8-.3.4-.3.4-.9.7-1.3.4-.76.9-1.1 1.5-1.6 1-1 2-.7 3.1-1.5.6-.4.7-.9 1.2-1.5 1.3-1.6 2.5-2.3 4.6-2.3 1 0 1.6 0 2.6.4.3.1.9.6 1 .5.2-.25.7-.85 1.4-1.16.9-.4 1.3-.6 2.2-.6 1.18 0 1.9.6 3 .6.4 0 .5-.4.8-.62 1-.65 1.6-1 2.8-1 1.18 0 1.8.4 2.8 1 .9.6 1 1.4 2 1.9.5.3.9.2 1.5.4 2.6.8 4.6 2.5 4.6 5.3 0 1.5-.35 2.5-1.45 3.5-.9.8-1.7.6-2.8 1 3.6 2.9 6.7 3.6 11.3 3.6 4.2 0 9.33-1.7 9.33-5.9 0-2-1.1-3-1.85-4.8-1.4-3.2-2.2-5.1-2.2-8.6 0-2.8.3-4.4 1.9-6.7 1.66-2.3 3.68-2.84 6.5-2.84z" fill="#c7b37f"/>
  <g fill="none" stroke="#703d29">
    <path d="M272.38 159c.27 1.06 1.12 2.04 2.44 2.45.8.25 2.64.15 3.83-1.4.97-1.24.9-2.8.54-4.02-.3-.8-.9-1.57-1.8-2.22l-5.1 5.2v.1z" stroke-width=".67" stroke-linejoin="round"/>
    <path d="M401.03 236.12c-1.2-2.88-4.28-1.6-4.47 0-.44 3.67 2.78 4.78 5.07 4.18 1.13-.3 1.96-1 2.5-1.94.6-1.05.77-2.42.38-3.73a4.9 4.9 0 0 0-.8-1.65 4.97 4.97 0 0 0-1.3-1.2c-.9-.57-1.8-.62-3.3-.62-5.5 0-10.4 6.58-12.1 13.42-.5 2.25-1.2 7.28-.2 12.04 1.1 5.08 3.3 8.6 5.9 11.26 1.4 1.44 3.3 2.72 5.8 4.12.8.42 2.8 1.3 4.2 1.7 1.5.42 2.8.36 4 .1 3.3-.7 4.8-3.78 3.2-6.93-1.4-2.57-5.4-3.98-7.3-.7-.1.28-.4.9-.4 1.55 0 .87.4 1.93 1 2.33 1.5.9 3.8.65 3.7-1.88" stroke-width=".66" stroke-linecap="round"/>
    <path d="M383.8 273.96c1.12-1.3 3.7-3.3 6.62-3.65 2.98-.3 5.57.5 8.2 2 5.17 2.8 8.05 5.8 9.96 11.3.5 1.4.9 3.5.84 5.8-.1 3.6-1 7.5-1.98 9.4-.86 1.7-3.1 9-15.33 14-7.1 3-18.1 3.7-25.6 4-10.4.4-20 .8-25.6 7.7" stroke-width=".82"/>
    <g stroke-width=".72">
      <path d="M386.4 285.73c-.3-1.1-.02-2.15.85-3.34 1.16-1.6 3.63-2.2 5.87-.9.75.4 1.7.9 2.53 2.1.32.4.87 1.1 1.15 1.5.68 1.1.96 2.1 1.1 2.5 2.45 7-1.46 14.5-6.57 17.6-3.98 2.3-8.7 3.4-14.38 4.1-2.55.3-4 .3-6.57.4-2.07.1-3.85 0-5.53 0-1.38 0-2.7 0-4.03-.1-2.18-.1-4.44-.1-7.2.1-2.92.2-5.1.3-7.58.7-1.6.2-3.5.5-5.46.9-.6.1-1.2.2-1.8.4l-1.2.4c-3.57 1.1-7.04 2.4-9.77 4.1-.8.5-1.8 1-2.4 1.7-.4.4-.9.8-1.3 1.2-1.9 1.9-3.8 3.9-4.3 6.7-.1.5-.1 1-.1 1.6 0 1.8 1.5 4.2 5.4 5m5.5-170.1c.8 1.5 1.3 2.4.8 3.9-.5 1.7-1.8 2.8-3.5 2.8-3.9 0-6.3-4.7-4.5-7.7 3.2-5.4 9.4-2.4 15 .3-.3-1.4-.7-1.8-.7-3.5.1-4.2 3.3-6.1 4.5-10 .7-2.3 1-4.3-.7-6-1.4-1.5-3.1-1.4-5.1-.7-3.8 1.5-8.4 5.8-16.6 5.9-8.1-.1-12.8-4.5-16.6-6-1.9-.7-3.6-.8-5.1.7-1.7 1.6-1.4 3.6-.6 5.9 1.3 3.9 4.4 5.8 4.5 10 .1 1.7-.4 2.1-.7 3.5 5.7-2.7 12.1-5.9 15-.3 1.7 3.1-.5 7.7-4.5 7.7-1.7 0-3-1.1-3.5-2.8-.5-1.5 0-2.8.8-3.9"/>
      <path d="M314.56 159.87c1.54 1.17 2.62 2.62 2.44 4.97-.2 2.55-.8 3.17-2.8 4.53m2.4-3.8c-.1 1.54-.73 2.53-2.27 3.16" stroke-linecap="round"/>
    </g>
    <path d="M276.74 153.27l.7.5.74.8.5 1 .24.84.05 1.1-.05.8-.25.9-.5.6-.6.7-.84.5-1.1.3-.94.2-1-.4-.9-.6-.6-.8-.4-1v-.4l4.9-4.6z" fill="#c7b37f" stroke="none"/>
    <path d="M275.2 157.16c-.3-1.65-2.23-2-2.98-1-1.15 1.5-.3 4 2.03 4.73.8.2 2.64.1 3.83-1.4.97-1.3.9-2.8.54-4.1-.24-.8-.88-1.5-1.73-2.2-2.8-2.1-7.2-1.6-8.6 1.9-1.9 4.5 2.2 7.8 5.9 10.4 4.7 3.2 10 3.7 14.1 3.7 9.1-.1 16.1-4.5 20.6-7 1-.6 2.1-.5 2.6.2.6.7.6 1.9-.3 2.7" stroke-width=".67" stroke-linecap="round"/>
    <path d="M248.06 281.18l-2.04.75-2.1 1.6-.88 1.24-1.15 2-.5 1.48-.4 1.84-.2 1.3m19-10.1l-.2 1.8-.3 1.2-.9 2.1-1.4 1.8-1.5 1.2-1.1.5-1.6.3" stroke-width=".68"/>
    <path d="M319.74 329.1c-.37 1.66-1.92 3.56-5.3 4.24l-.65.14" stroke-width=".77"/>
    <path d="M404.22 276.2c2.13 2 3.64 4.42 4.8 7.75.48 1.4.88 3.53.82 5.78-.1 3.58-1 7.5-1.98 9.4-.85 1.66-3.08 8.96-15.32 14-7.14 2.94-18.1 3.62-25.68 3.92-10.25.4-19.72.78-25.33 7.37" stroke-width=".87"/>
    <path d="M387.5 282.85c.75-1.04 3.52-2.35 5.76-1.1.73.4 1.6.92 2.37 2.07" stroke-width=".59"/>
    <path d="M401.6 273.8c.5.18 1 .35 1.44.48 1.43.4 2.78.44 3.94.1 2.83-.86 4.65-3.5 3.18-6.94-.34-.8-1-1.56-1.74-2.14" stroke-width=".87"/>
    <path d="M240.28 199.76c-1.9 1.18-3.3 1.46-4.8 3.17-1.46 2.9-2.04 4.48-2.62 6.82m46.1-51.7c0 1.72-1.26 2.8-2.98 3.17" stroke-width=".67" stroke-linecap="round"/>
    <path d="M397.1 192.02c4.74-.1 18.48 3.6 18.58 19.76.1 15.95-9.84 18.56-13.83 19.62" stroke-width=".64"/>
    <path d="M398.36 192.02c8.15-.35 16.57 5.65 16.94 20.63.3 11.7-8 17-12 18.08" stroke-width=".66"/>
    <path d="M393.8 248.42l.14-1.6.53-2.54.75-1.98.85-1.63 1.1-1.32m7.78-3.4l-.12 1.57-.45 1.07-.7 1-.8.6-1.2.4-1.08.1-.8-.2m-14.3-52.8l.34-1.7.75-1.6.9-1.6 1.6-2.2 1.3-1.5 2.1-2.2 1.8-1.9 1.2-1.4 1.5-1.9 1.3-2.1.8-1.7.4-2.2.1-2.7-.3-.8M387 290.4l1.6-.3 1.2-.7.7-.67.44-.77.3-1.2v-.8m-158-12l1.2.1 1.5-.15 1.56-.5m5-36.5l-.2 1.4-.3.7-.45.6-.63.5-.7.3-.93.2-.7.1m9.9-15.6l-.3 2.2-.4 1-.9 1.2-1.2.9-1.2.6-2.3.6m15.3-39.8l-.5 1.3-.5 1-.8 1-1.1 1-1.3.6-1 .3h-.7m.4-6.2v1" stroke-width=".56"/>
    <g stroke-width=".63">
      <path d="M254.28 224.06a6.86 6.86 0 0 1-2.1 1.3m150.53 44.82c.1.1.4.14.5.2 1.4.85 4.2-.2 3.4-2.4" stroke-linecap="round"/>
      <path d="M397.8 239.6c1 1.32 2.9 1.66 4.4 1.27 1.12-.3 1.95-1 2.48-1.94.6-1.05.78-2.42.4-3.73a4.9 4.9 0 0 0-.85-1.65c-.43-.56-.96-1.16-1.37-1.43-.1-.07-.2-.16-.33-.24m6.42 34a3.94 3.94 0 0 0 .07-.7c0-1.16-.48-2.23-1.3-2.94-.26-.25-.53-.62-.86-.8m.48.48c-.05-1.86-1.57-3.2-3.46-3.53m-4.17 2.8c-.4-.4-.9-.7-1.3-1.1-2.4-2.6-4.3-6.4-4.3-10.7 0-4.2 1.7-8.4 3.6-10M341.2 324l1.8-1.64 1.3-.95 2.35-1.4 2.2-1 1.53-.4 3.1-.7 3.58-.5m-29.5 19.4c-1.3 2-4.4 5-7.6 6.2-3.25-1.2-6.33-4.1-7.63-6.1"/>
      <path d="M314.42 332.63c-.4 1.5-1.14 2.96-2.22 4.13" stroke-linecap="round"/>
      <path d="M314.74 330.54l-.45 2.2m-2.4 4.17l-1 1-1.7 1-2 .6m-5.6-177.8c.2-.7.5-1.3.4-2.5-.2-4.2-3.3-6.1-4.5-10-.8-2.3-1.1-4.3.6-5.9 1.5-1.4 3.2-1.4 5.2-.6 3.8 1.5 8.5 5.8 16.6 6-8.2-.1-12.8-4.5-16.7-6-2-.8-3.8-1-5.3.4-1.7 1.7-1.3 3.9-.5 6.2 1.2 3.9 4.2 5.8 4.3 10 0 1.3-.3 1.8-.6 2.6m18.9-13.7c8-.4 14.8-5.8 17.1-6.2 1.9-.4 3-.2 4.5 1.1-1.5-1.3-3.1-1.3-5-.6-3.9 1.5-8.5 5.8-16.6 5.9m79.6 112.9c-3.4-2.4-6.2-7-6.3-12.4 0-4.1 1.7-8.4 3.6-10m-70 97.6c-1.3 2-4.4 5-7.6 6.2-3.2-1.2-6.3-4.2-7.6-6.2"/>
      <path d="M306.67 163.67l2.32-1.3c1-.57 2.3-.45 2.8.2.6.76.7 2.05-.2 2.84" stroke-linecap="round"/>
      <path d="M294.7 169.27c5.5-1.14 9.98-3.6 13.37-5.5m32.27 164.18c.45.3.75.96.75.96l.3.9c.2 1.5-.8 2.5-2 2.6-1.7.2-3-.8-3.5-2M294.4 169c5.5-1.16 9.97-3.62 13.36-5.5m97.55 106.9c-1 .4-1.6.34-2.9-.24-.5-.23-1.1-.6-1.8-1-2.5-1.45-5.6-3.73-8.4-9.06a18.8 18.8 0 0 1-1.7-4.47c-.3-1.1-.4-2.2-.5-3.34-.1-2 .2-4 .6-6.3.8-3.8 1.8-5.9 4.1-9.1 1.2-1.6 2.2-2.6 4.3-2.6M255.3 195c1.8 1.5 2.6 3.4 2.6 5.73 0 3.1-2.6 8.15-8.97 9.95-2.4.66-4.9.1-6.3-.78"/>
      <path d="M256.3 205.62c1.14.8 1.6 1.7 1.6 3.24 0 1.07-.7 2.45-1.87 3.76-1.92 2.14-5.18 3.96-8.78 4-1.96.03-4-.38-6.03-1.75-2.2-1.46-3.34-3.43-3.83-5.37"/>
      <path d="M256.2 212.3c1.3 1.2 1.7 2.68 1.7 4.56 0 2.74-1.13 4.86-3.7 7.1-.57.5-1.2.98-1.93 1.4m129.43-22.08v3.54m-.3-4.4v4.97m.3-15.8v6.5m-.3-8v8.9m-1.9 82c-1.22 2.4-2.2 3.7-4.17 5.6-1.97 1.9-3.34 2.8-5.82 4.1-2.4 1.2-3.9 1.6-6.5 2.2-2.6.6-4.1.7-6.8.8-2.4.1-3.9 0-6.3-.2-2.6-.2-4.1-.6-6.7-.8-2.2-.2-3.4-.4-5.6-.4-2.2 0-3.5 0-5.7.4-2 .4-3.2.6-5.2 1.4-2.6 1.1-5.7 3-6.3 3.8-.6-.9-3.6-2.8-6.3-3.8-1.9-.8-3.1-1.1-5.2-1.5-2.2-.4-3.5-.4-5.7-.4-2.1 0-3.4.2-5.5.4-2.6.2-4.1.6-6.7.8-2.5.1-3.9.2-6.3.1-2.7-.1-4.2-.3-6.9-.9-2.6-.6-4.1-1-6.5-2.2-2.5-1.3-3.8-2.2-5.8-4.1l-.6-.6m42.1 53.4l1.8-.2m30.3-2.4l1.8-.2 1.8-.7 1.2-.7 1.7-2 .4-.8.3-1.7.1-.8M393.2 193c.77-2.6-.17-5.4-2.73-5.3m-132 46.5c-.64 2.2-2.04 3.7-3.6 4.7m3.6-46.7c-.6 1.85-1.8 3.2-3.62 4-1.82.84-4 .1-5.1-.8"/>
      <path d="M243.8 202.37c1.54.8 3.1-.38 2.77-2.37-.15-.93-1.15-2.1-2.5-2.2" stroke-linecap="round"/>
      <path d="M250.16 286.63c.33.3.4.7.84.8.67.12 1.2.37 1.87-.53.83-1.1.38-2.82-.48-3.9-1-1.15-3.6-2.18-5.9-.93-.8.4-1.7.96-2.6 2.1-.3.4-.9 1.1-1.2 1.58-.7 1.16-1 2.1-1.1 2.5-2.1 5.8.4 11.93 4.1 15.66"/>
      <path d="M340.22 327.83c.4.42.64.8.64.8.13.3.23.58.28.84.26 1.52-.74 2.47-1.97 2.62-1.7.1-2.83-.9-3.37-2.1" stroke-linecap="round"/>
      <path d="M389.44 154.76c3.35.4 6.26 3.6 6.26 7.03 0 4.4-1.5 6-3.82 9.2-2.5 3.4-10.65 9.6-10.65 16.6 0 4.3 1.2 7 4.28 8.4 2 .9 4.4-.1 5.4-1 2.6-2.4 1.6-6.5-1.1-7-3.3-.6-3.9 4.5-.7 4.2m17.9 69.1c-.3-1.8-1.8-3.2-3.6-3.2-2 0-3.6 1.7-3.6 3.7 0 1 .4 1.9 1.1 2.6"/>
      <path d="M383.87 195.12c-1.78 1.5-2.64 3.4-2.64 5.72 0 3.1 2.6 8.16 8.96 9.96 2.4.68 4.7.62 6.2-.27m-156-10.33c-1.6.5-3.5 1.45-4.9 3.45-1.2 1.68-1.9 4.02-2.3 6.07-.2.9-.4 3.73.1 6.66.4 2.16 1.3 4.18 2.3 5.63a7.94 7.94 0 0 0 1 1.3c.3.4.8.6 1.1.9m64 92.1c4.8 2.2 8.4 3.8 11.4 8.5.9 1.5 1.2 3.7 1.2 4.9 0 2.7-1.1 5.7-3.4 7.6-2.1 1.8-4.1 2.3-6.7 2.1-1.9-.2-3.7-1.6-4-2.6M254 224.2c2.74 2.1 3.88 4.2 3.88 7.5 0 3.8-1.84 6.1-3.98 7.5"/>
      <path d="M251.5 236.42c4.1 5.08 6.26 8.1 6.38 14.13.12 5.68-1.7 9.56-5.07 13.64" stroke-linecap="round"/>
      <path d="M329.75 169.32c.74-.48 1.28-1.26 1.6-2.23.48-1.5.5-2.8-.3-3.9.97 1.2 1.06 2.3.8 3.9-.2 1-.82 1.5-1.6 2.2m51.45 86.1v16.1h.04s0 1.5-.14 2.5a34.4 34.4 0 0 1-.27 1.7"/>
      <path d="M381.4 253.96v17.42h.06s0 1.53-.14 2.5c-.13 1-.28 1.84-.46 2.63m.55-42.9v14.6m.3-13.4v11.9m0-26.8v8.9m-.3-9.9v10.9m.3-18.9v3.5m-.3-4.1v4.9m-1.8 65.2l-.3.7c-1.2 2.5-2.2 3.8-4.2 5.7-1.9 2-3.3 2.8-5.8 4.1-2.4 1.2-3.9 1.6-6.5 2.2-2.6.6-4.1.8-6.8.9-2.4.1-3.8 0-6.3-.2-2.6-.2-4.1-.5-6.7-.8-2.1-.2-3.4-.3-5.6-.3-2.2 0-3.5 0-5.7.4-2 .4-3.2.7-5.1 1.5-2.7 1.1-5.7 3-6.3 3.8-.6-.8-3.7-2.7-6.3-3.8-2-.7-3.1-1-5.2-1.4-2.2-.4-3.5-.4-5.8-.4-2.2 0-3.4.2-5.6.4-2.6.3-4.1.6-6.7.8-2.5.2-3.9.3-6.3.2-2.7-.1-4.2-.3-6.9-.9-2.6-.6-4.1-1-6.6-2.2-2.4-1.2-3.8-2.1-5.8-4-1-1-1.8-1.8-2.4-2.7m-2-3.2c.4 3.2-.9 6.3-2.2 7.7-.9.9-2.7 2.6-5 2.6-3.8.1-4.9-2.5-5.1-3.2"/>
      <path d="M255.62 278.85c.7.7 1.32 1.54 1.85 2.54.94 1.7.65 4.7-.1 6.1a4.43 4.43 0 0 1-.3.4M236.83 306c2.24 2.36 5.65 4.92 10.87 7.07 7.14 2.94 18.1 3.62 25.67 3.92 10.06.4 19.33.8 24.97 7m17.36-4c1.67 1.6 3.36 3.4 4.08 5.6m-7.34 11.4a8.22 8.22 0 0 1-.7.6c-2.08 1.7-4.13 2.3-6.67 2-1.92-.2-3.78-1.7-4.27-2.6m-5.36-2.9l.3.3c1.2 1.4 3.1 2.3 5.1 2.4m26.87-.1c-1.2 2-4.3 4.9-7.6 6.1-3.2-1.2-6.3-4.2-7.6-6.2l-.3-.5m15.6.5c.3.2.5.5.8.7 2.1 1.8 4.2 2.3 6.7 2 2-.2 3.5-1.5 4.1-2.6 0 0 .4-.4.5-.8"/>
      <path d="M339.04 336.63l-.74 1.2-1.13.94-1.7.7-1.56.07"/>
      <path d="M343.06 325.26c.92.7 1.8 1.77 2.3 2.9.32.73.46 1.54.5 2.37a5.85 5.85 0 0 1-1.42 4.14c-1.27 1.5-3.27 2.4-5.4 2.48a5.48 5.48 0 0 1-.46 0m.2-.3c-2.04.1-3.86-.77-5.2-2.15m63.68-67.86c-1.58-1.46-3.22-3.48-4.8-6.45a18.8 18.8 0 0 1-1.7-4.5c-.28-1.1-.47-2.2-.5-3.4-.08-1.9.13-4 .6-6.2.8-3.8 2.2-6.8 4.08-9.1.64-.8 1.38-1.8 2.08-2.3m-1.37-75.8c2.54.2 4.9 2.9 4.86 5.6 0 3.9-1.3 5.5-4.4 9.3-2.6 3.2-10.5 9-10.3 14.5.1 1 .6 2 1.2 2.8m-3.1 3.5c.6.5 1.3 1 2.1 1.4 1.5.6 3.1.3 4.3-.3M369 152.8c.86.58 1.7 1.46 2.2 2.6 1.85 4.5-2.2 7.86-5.93 10.4-2.67 1.8-5.56 2.8-8.3 3.28"/>
      <path d="M364.6 161.56c-.9 0-1.98-.27-3.15-1.5-.27-.3-.58-.66-.7-1m-14.86 4.9c-.5-.23-1-.57-1.4-.95-.9-1-1.5-2.3-.8-4.3.6-1.9 3.7-7.2 3.8-10.9.2-5.6-2-8.9-5.4-10.2"/>
      <path d="M347.3 146.46l-.12 2.12-.57 2.16-1.1 2.95-.8 1.9-.9 1.8-.4 1.3-.2.9.2.9m38.1 126.3c.2.4.6.8.6.8.7 1.1 3.2 3 5.5 3 3.8 0 4.7-2.6 4.8-3.2.5-2.9-.5-3.7-2-4.5 0 0-.8-.5-1.9-.3" stroke-linecap="round"/>
      <path d="M236.95 274.35c-1.34.34-2.6.35-3.7.02-2.82-.85-5.1-3.56-3.94-6.93m13.4-31.82c.3.28.4.7.4 1.07.5 3.6-2.7 4.7-5 4.1-1.1-.3-2.5-1.4-3-2.3a4.7 4.7 0 0 1-.6-2.3m22.1-23.7c.6.5 1 1.1 1.3 1.7m-1.1-8.5c.6.3.9.8 1.2 1.3"/>
      <path d="M257.86 210.52c-.3.76-.84 1.6-1.55 2.38-1.9 2.14-5.1 3.96-8.7 4-1.9.03-4-.38-6-1.74-2.2-1.46-3.6-3.54-4-5.58" stroke-linecap="round"/>
      <path d="M255.43 195.28c1.1.94 1.96 2.14 2.37 3.4"/>
      <path d="M257.83 203.24c-.9 2.93-3.53 6.55-8.62 7.84-2.4.6-5.5-.16-6.6-1.07" stroke-linecap="round"/>
      <path d="M240.04 202.55c.27 2.64 2.03 4.62 5.38 4.68 4.7.1 7.56-6.77 3.38-11.58"/>
      <path d="M229.45 225.53c.7.86 1.5 1.64 2.33 2.33 1.67 1.4 3.65 2.62 5.93 3.3m5.3.5c4.2-.52 6.6-3.65 6.1-7.3-.3-2.8-2.9-4.95-4.6-5.08" stroke-linecap="round"/>
      <path d="M249.85 188.1c1.82-.06 2.86 1.6 2.84 3"/>
      <path d="M249.42 163.08c1 2.6 2.95 4.65 5.03 5.82m144.18 30.97c1.72 2.35.6 7-4.08 7.08-1.83.04-3.48-.98-4.44-2.5" stroke-linecap="round"/>
      <path d="M381.7 169.12v15.8"/>
      <path d="M243.76 202.33c1.44 1.04 3.3-.72 2.58-2.6-.5-1.26-2.28-2.62-4.77-.93-2.75 1.87-2 7.76 3.28 7.86 4.7.1 7.57-6.76 3.4-11.58-4.03-4.63-11.36-3.54-16.13.26-2.04 1.6-5.88 5.85-7.07 11.62-.37 1.8-.6 3.27-.6 5.08.03 1.2.14 2.52.5 4.18.72 3.35 1.9 5.8 3.07 7.5.45.67.87 1.2 1.3 1.65.83.82 1.07 1.26 1.9 1.94 2.7 2.3 6.18 4.1 10.45 3.9 4.67-.2 7.36-3.5 6.86-7.3-.48-3.7-4.28-5.6-6.76-3.9-1.7 1.2-2.3 4.9.7 5.8 1.68.5 3.18-1.6 1.98-2.9M374.02 151c2.7-1.46 4.78-1.2 6.32.94 1.67 2.34 1.9 5.4 1.54 7.23-.55 2.66-1.33 3.8-3.46 5.73" stroke-linecap="round"/>
      <path d="M380.53 152.03c3.1-2.04 6.43-1.17 8.26 1.55 1.3 2 1.6 3.65 1.5 6.12-.2 4.22-2.8 7.57-5.7 9.2" stroke-linecap="round"/>
      <path d="M395.06 159.15c2.54.2 4.58 2.5 4.58 5.17 0 3.83-1.07 5.5-4.13 9.3-2.6 3.3-10.5 9.06-10.3 14.6.1 2.08 1.9 4.04 3.4 4.15"/>
      <path d="M395.36 202.33c-1.44 1.04-3.28-.64-2.5-2.43.56-1.24 2.2-2.8 4.7-1.1 2.74 1.87 1.98 7.77-3.3 7.86-4.7.1-7.88-6.6-3.38-11.58 4.1-4.55 11.72-3.66 16.5.14 2.03 1.62 6.12 6.06 7 11.9 1.06 7.04.92 15.72-6.36 21.06-2.93 2.15-7 3.12-10.57 2.97-4.68-.2-7.37-3.5-6.87-7.37.48-3.76 4.1-5.35 6.77-3.88 2.76 1.53 2.28 5.42-.7 5.77-1.75.2-3.18-1.64-2-2.88" stroke-linecap="round"/>
      <path d="M392.87 199.9c.78-3.5 3.77-3.82 6.18-3.78 6.6.1 11.15 7.9 11.22 15.47.1 9.5-4.05 15.1-11.03 15.4-1.8 0-4.92-.8-4.97-3"/>
      <path d="M396.93 198.34c6.95 1.54 9.4 7.8 9.4 13.78 0 4.87-.5 11.53-9.98 13.87" stroke-linecap="square"/>
      <path d="M408.4 265.33a3.9 3.9 0 1 0-6.27 2.34"/>
      <path d="M394.45 259.4c1.3 1.95 2.9 4.1 6.24 5.92m-1.3 10.55c-3.3-2.15-9.5-4.96-15.1-2.2-2.1 1.04-3.5 2.3-4.3 4.4-1.4 3.72.1 7.84 1.8 9.55.8.9 2.7 2.6 5 2.64 3.7.05 4.6-2.6 4.7-3.18.4-2.74-1.2-3.84-2-4.13-.7-.23-2.8-.17-3.2 1.32-.2.5-.2 1.36.2 2" stroke-linecap="round"/>
      <path d="M340.47 328.42c1.05 2.14-.14 3.22-1.6 3.4-2.13.24-3.27-1.46-3.42-3-.24-2.5 1.86-4.77 4.38-4.73 2.26 0 4.1 1.5 4.97 3.5.3.7.46 1.5.5 2.3a5.85 5.85 0 0 1-1.42 4.1c-1.28 1.5-3.27 2.4-5.4 2.4-4.22.1-7.5-3.8-7.5-7.8 0-7.7 11.43-12 15.96-13 5.58-1.4 8.97-1.9 17.92-2.4 3.58-.2 6.2-.1 10.15-.5 3.6-.4 5.4-.6 9-1.4 4.6-1.1 8.8-3 12.6-6.4 2.9-2.7 4.6-4.6 6-8.2 1.2-3.2 1.7-9.4-1.2-14-2.6-4.1-6.2-6.2-10.3-6.8-3.7-.6-7 1-9 4.7-.9 1.8-.6 4.8.1 6.2.7 1.2 2.5 2.9 4.8 3 3.8 0 4.7-2.6 4.8-3.2.5-2.7-1.1-3.8-2-4.1-.6-.3-2.7-.2-3.2 1.3-.1.5-.1 1.3.3 2" stroke-linecap="round"/>
      <path d="M337.22 316.17c-4.85 2.15-8.4 3.76-11.42 8.52-.95 1.5-1.2 3.6-1.2 4.8 0 2.7 1.1 5.7 3.34 7.6 2.07 1.7 4.13 2.3 6.66 2 1.93-.2 3.74-1.6 4.03-2.6" stroke-linecap="round"/>
      <path d="M385.1 224.13c-2.26.75-3.87 4.2-3.87 7.5 0 3.8 1.84 6.13 3.98 7.48"/>
      <path d="M387.6 236.42c-4.08 5.08-6.25 8.1-6.37 14.13-.12 5.68 1.7 9.56 5.07 13.64" stroke-linecap="round"/>
      <path d="M365.85 152.05l.35-.52c1.7-2.48 4.68-3.14 6.87-1.5 2.63 2 3.3 5.4 2.58 8.97-.44 2.24-1.96 4.1-4.04 5.45"/>
      <path d="M265.1 150.84c-2.6-1.2-4.72-.97-6.32.94-1.84 2.2-1.9 5.4-1.54 7.22.55 2.68 1.32 3.8 3.46 5.75" stroke-linecap="round"/>
      <path d="M258.58 152.03c-3.1-2.04-6.43-1.17-8.26 1.55-1.34 2-1.7 3.65-1.6 6.12.17 4.22 2.8 7.57 5.73 9.2"/>
      <path d="M249.68 154.76c-3.35.4-6.02 3.24-6.02 6.68 0 4.42 1.1 6.22 3.58 9.6 2.5 3.4 10.65 9.6 10.65 16.67 0 4.3-1.2 7.1-4.3 8.5-2 .9-4.3-.1-5.4-1-2.6-2.3-1.6-6.4 1.1-6.9 3.3-.6 3.9 4.6.7 4.3"/>
      <path d="M244.05 159.15c-2.54.2-5.03 2.38-5.03 5.06 0 3.9 1.52 5.7 4.58 9.5 2.64 3.3 10.1 9 9.9 14.5-.08 2.1-1.5 4.7-2.88 4.4"/>
      <path d="M238.08 236.12c1.2-2.88 4.28-1.6 4.47 0 .44 3.67-2.78 4.78-5.07 4.18-1.13-.3-1.96-1-2.5-1.94-.6-1.05-.77-2.42-.38-3.73a4.9 4.9 0 0 1 .85-1.65 4.97 4.97 0 0 1 1.28-1.2c.88-.57 1.84-.62 3.34-.62 5.57 0 10.45 6.58 12.1 13.42.53 2.25 1.27 7.28.24 12.04-1 5.08-3.2 8.6-5.8 11.26-1.4 1.44-3.3 2.72-5.7 4.12-.7.42-2.7 1.3-4.1 1.7-1.4.42-2.8.45-3.9.1-2.8-.85-4.6-3.5-3.1-6.93 1.2-2.67 5.4-3.98 7.3-.7.2.28.4.9.4 1.55 0 .87-.4 1.93-1 2.33-1.4.9-3.7.65-3.6-1.88" stroke-linecap="round"/>
      <path d="M233.75 270.4c1.05.4 1.62.34 2.92-.24.53-.23 1.15-.6 1.86-1 2.55-1.45 5.57-3.73 8.4-9.06a18.8 18.8 0 0 0 1.72-4.47c.27-1.1.46-2.2.5-3.34.07-2-.14-4-.62-6.3-.8-3.8-1.74-5.9-4.08-9.1-1.15-1.6-2.14-2.6-4.28-2.6m-9.44 30.9a3.9 3.9 0 1 1 6.26 2.3"/>
      <path d="M232.24 261.45c.3-1.78 1.8-3.13 3.62-3.13 2.02 0 3.66 1.68 3.66 3.76a3.8 3.8 0 0 1-1.03 2.62"/>
      <path d="M239.37 261.25c3.34-2.4 6.2-6.95 6.22-12.34 0-4.1-1.7-8.3-3.6-10"/>
      <path d="M244.67 259.4c-1.3 1.95-2.9 4.1-6.24 5.92" stroke-linecap="round"/>
      <path d="M254.6 273.68c-.93-2.18-2.77-3.2-5.77-3.5-3-.33-5.57.5-8.2 1.9-5.17 2.8-8.05 5.77-9.97 11.3-.48 1.4-.9 3.53-.83 5.78.1 3.6 1 7.5 1.98 9.4.9 1.66 3.1 8.96 15.4 14 7.2 2.94 18.1 3.62 25.7 3.9 10.4.42 20 .8 25.6 7.68"/>
      <path d="M239.68 275.87c3.28-2.15 9.5-4.96 15.12-2.2 2.08 1.04 3.48 2.3 4.27 4.4 1.42 3.72-.17 7.84-1.78 9.55-.9.9-2.7 2.6-5 2.64-3.8.05-4.7-2.6-4.8-3.18-.5-2.74 1.1-3.84 2-4.13.6-.23 2.7-.17 3.2 1.32.1.5.1 1.36-.3 2" stroke-linecap="round"/>
      <path d="M252.7 285.73c.3-1.1.16-2.25-.83-3.34-1-1.1-3.64-2.2-5.88-.9-.8.4-1.7.9-2.6 2.1-.3.4-.9 1.1-1.2 1.5-.7 1.1-1 2.1-1.1 2.5-2.5 7 1.5 14.4 6.6 17.6 4.3 2.8 8.8 3.6 14.3 4.1 2.5.2 4 .3 6.5.4 2 .1 3.8 0 5.5 0 1.4 0 2.7 0 4-.1 2.1-.1 4.4-.1 7.2.1 2.9.2 5.1.3 7.5.7 1.6.2 3.5.5 5.5.9.6.1 1.2.2 1.8.4l1.2.4c3.5 1.1 7 2.4 9.7 4.1.8.5 1.8 1 2.5 1.7.5.5.9.8 1.3 1.2 1.9 1.9 3.8 3.9 4.3 6.7.1.5.1 1 .1 1.6 0 1.8-1.4 4.2-5.4 5"/>
      <path d="M298.64 328.42c-1.05 2.14.14 3.22 1.6 3.4 2.13.24 3.27-1.46 3.42-3 .24-2.5-1.87-4.77-4.38-4.73-2.26 0-4.1 1.5-4.97 3.5-.3.7-.4 1.5-.5 2.3a5.85 5.85 0 0 0 1.5 4.1c1.3 1.5 3.3 2.4 5.4 2.4 4.2.1 7.5-3.8 7.5-7.8 0-7.7-11.4-12-15.9-13-5.6-1.4-8.9-1.9-17.9-2.4-3.5-.2-6.2-.1-10.1-.5-3.5-.4-5.3-.6-9-1.4-4.5-1.1-8.7-3-12.5-6.4-2.9-2.7-4.6-4.6-5.9-8.2-1.1-3.2-1.7-9.4 1.3-14 2.6-4.1 6.2-6.2 10.4-6.8 3.8-.6 7 1 9 4.7 1 1.8.7 4.8-.1 6.2-.6 1.2-2.5 2.9-4.8 3-3.7 0-4.6-2.6-4.7-3.2-.4-2.7 1.2-3.8 2-4.1.7-.3 2.8-.2 3.2 1.3.2.5.2 1.3-.2 2"/>
      <path d="M273.26 152.05l-.35-.52c-1.6-2.48-4.6-3.14-6.8-1.5-2.6 2-3.3 5.4-2.6 8.97.5 2.24 2 4.1 4.1 5.45" stroke-linecap="round"/>
      <path d="M366.75 159.6c-4.03 4.38-8.06 5.77-14.1 5.97-1.87.06-5.46-.6-7.55-2.1-1.34-.94-2.84-2.58-1.9-5.42.64-1.9 3.7-7.2 3.84-10.9.22-5.62-1.94-8.7-5.32-9.9-6.26-2.2-12.97 3.98-17.02 5.33-2.12.7-3.2.8-5.13.8-1.93 0-3.04-.1-5.16-.8-4-1.35-10.7-7.54-17-5.33-3.4 1.2-5.5 4.28-5.3 9.9.2 3.7 3.2 9 3.9 10.9 1 2.84-.5 4.47-1.9 5.43-2 1.5-5.6 2.15-7.5 2.1-6-.2-10-1.6-14.1-5.98"/>
      <path d="M297.33 314.4c.8.32.2-.18 5.25 2.06 4.85 2.15 8.3 4.04 11.3 8.8.95 1.5 1.2 3.63 1.2 4.87 0 .8-.1 1.64-.3 2.46" stroke-linecap="round"/>
      <path d="M297.66 336.04a7.98 7.98 0 0 0 3.25.82c4.3.17 7.6-3.78 7.6-7.8 0-2.8-1.5-5.16-3.6-7.05"/>
      <path d="M298.57 328.42c-1.02 2.27.44 3.5 1.88 3.67 2.14.2 3.35-1.5 3.5-3 .16-1.7-.74-3.3-2.1-4.2" stroke-linecap="round"/>
      <path d="M390.1 154.8c3.2 0 6 3.57 6 7.24 0 4.23-2.24 6.8-3.88 8.77-1.33 1.6-2.77 3-4.47 4.7"/>
      <path d="M386.3 151.4c1.08.52 2.04 1.37 2.77 2.45 1.35 2 1.7 3.66 1.6 6.12-.16 4.23-3.2 7.15-5.92 8.94m-4.78-17.5c.23.2.44.5.64.7 1.9 2.2 2 5.5 1.6 7.2-.6 2.7-1.5 3.9-3.7 5.5m-5-14.4c2.7 2 3.4 5.5 2.6 9-.6 2.6-2.2 4.1-4.2 5.3m11.1 41.1c.3 1 .9 1.3 1.5 2 1.4 1.5 3.5 2.8 6.2 3.6 2.5.7 4.7.2 6.3-.9m-163 54c1.3 0 2.5.8 3.3 2.3.2.3.4.9.4 1.5 0 .9-.4 1.8-1 2.2-1.4 1-4 .6-3.8-2" stroke-linecap="round"/>
      <path d="M241.5 231.3c4.92.92 9.67 6.86 11.22 13.35.54 2.25 1.28 7.28.25 12.04-1.1 5-3.28 8.5-5.86 11.2a16.5 16.5 0 0 1-2.1 1.8l-1 .7m-7.9-12.1c2.1 0 3.8 1.9 3.8 4a3.8 3.8 0 0 1-1 2.6"/>
      <path d="M234.64 260.7c2.1 0 4.1 2.04 4.1 4.2a3.9 3.9 0 0 1-1.47 3.06"/>
      <path d="M253.98 239.5c1.94 2.6 3.2 4.83 3.8 7.7m-.06 8.5a17.27 17.27 0 0 1-1.45 4.04c-.8 1.62-2.23 3.43-3.55 4.65" stroke-linecap="round"/>
      <path d="M254.28 224.33c1.87 1.46 3 2.97 3.52 4.78"/>
      <path d="M257.86 219.47c-.5 1.7-1.6 3-3.37 4.6m-9.2-17.18l2.1-.6 1.2-1 .8-1.2.7-1.9.3-1.5" stroke-linecap="round"/>
      <path d="M240.97 199.3c-.68.17-1.55.42-2.45.85-1.2.58-2.5 1.48-3.53 2.93-1.2 1.7-1.9 4.03-2.4 6.07-.2.9-.4 3.74.1 6.67.4 2.16 1.3 4.17 2.3 5.63.3.53.7.98 1 1.34 1.3 1.2 2.5 2 4.4 1.6"/>
      <path d="M253.04 189.8c-.35 1.3-1.04 2.9-3.05 2.7" stroke-linecap="round"/>
      <path d="M245.68 198.53c-1.94-1.9-6.04-2.4-10.1.2-.54.32-1.06.75-1.58 1.18-.56.5-1 1.1-1.44 1.6-.47.7-1.05 1.8-1.4 2.5-.48 1-.68 1.7-.94 2.7-.75 2.9-.74 5.5-.66 6.3.12 1 .2 1.9.37 2.7.54 2.8 1.37 4.8 2.22 6.2.9 1.5 3.14 4.9 7.72 5.4 1.8.2 4.87-.6 4.97-3"/>
      <path d="M363.76 157.07c.3-1.65 2.3-1.97 3.05-1 1.2 1.5.4 4.1-1.9 4.82-.8.2-2.6.1-3.8-1.4-.9-1.3-.9-2.8-.5-4.1.3-.8.9-1.5 1.8-2.2 2.7-2.1 7.1-1.6 8.6 1.9 1.9 4.5-2.2 7.8-5.9 10.4-4.7 3.2-10 3.7-14.1 3.7-9.1-.1-16.1-4.5-20.6-7-1-.6-2.1-.5-2.7.2-.6.7-.6 1.9.3 2.7" stroke-linecap="round"/>
      <path d="M365.6 155.52c.98.04 1.24.42 1.53.8 1.16 1.5.3 4.1-2.03 4.83m17.84 51.54c-3.5 3.8-.28 10.3 2.32 11.7.9.7 1.3.3 2 .7" stroke-linecap="round"/>
      <path d="M383.12 205.43c-1.14.8-1.55 1.7-1.6 3.25-.02 1.3.2 2.74 1.42 4 1.9 2 5.63 3.7 9.23 3.76 1.96.02 4-.4 6.03-1.75 2.2-1.5 3.34-3.5 3.83-5.4m-20.86 61.8s0 1.5-.13 2.5c-.38 2.7-.83 4.4-2.1 6.9-1.23 2.4-2.22 3.7-4.17 5.6-1.98 1.9-3.35 2.8-5.83 4.1-2.4 1.2-3.93 1.6-6.56 2.2-2.64.6-4.17.7-6.87.8-2.4.1-3.8 0-6.3-.2-2.6-.2-4.1-.6-6.7-.8-2.2-.2-3.4-.4-5.6-.4-2.2 0-3.5 0-5.7.4-2 .3-3.2.6-5.2 1.4-2.6 1.1-5.7 3-6.3 3.8-.6-.9-3.7-2.8-6.3-3.8-1.9-.8-3.1-1.1-5.1-1.5-2.2-.4-3.5-.4-5.7-.4s-3.4.1-5.6.3c-2.6.2-4.1.6-6.7.8-2.4.1-3.8.2-6.3.1-2.7-.1-4.2-.3-6.8-.9-2.6-.6-4.2-1-6.6-2.2-2.5-1.2-3.8-2.1-5.8-4-1.9-1.9-2.9-3.2-4.2-5.7s-1.7-4.1-2.1-6.9c-.1-1-.1-2.5-.1-2.5V169.3h123.2v101.8h.1z"/>
    </g>
    <g fill="#c7b37f" stroke="#c7b37f">
      <path d="M247.94 285.64a2.5 2.5 0 1 1 5 0 2.5 2.5 0 0 1-5 0zm-15.35-17.67c0-1.23.7-2.24 1.7-2.24.9 0 1.7 1 1.7 2.24 0 1.24-.8 2.24-1.8 2.24s-1.8-1-1.8-2.2z" stroke-width=".33"/>
      <path d="M241.3 223.6c0-1.02.78-1.85 1.72-1.85s1.7.82 1.7 1.84c0 1-.76 1.8-1.7 1.8s-1.7-.8-1.7-1.9zm30.64-65.64c-.1-1.02.5-1.92 1.37-2 .9-.1 1.7.65 1.8 1.67.1 1.02-.5 1.92-1.3 2-.8.1-1.6-.65-1.7-1.67z" stroke="none"/>
    </g>
    <g stroke="#c7b37f" stroke-width=".63" stroke-linecap="round">
      <path d="M239.3 233.95c-.36.16-.56.3-.84.58-.26.27-.32.38-.52.83-.15.33-.2.7-.24 1.2m4.7 26.74c.36-.42.57-.65.9-1.08.28-.36.45-.56.7-.94l.5-.92c.28-.5.4-.8.67-1.32m-1.26 13.94c-.5.27-.9.4-1.5.7l-1.1.64a17.4 17.4 0 0 0-1.2.83c-.5.36-.7.6-1.2.98m15-37.9l-.8-.84c-.3-.4-.5-.6-.9-.9-.3-.3-.6-.5-.9-.7"/>
      <path d="M254.2 224.94c-.5.2-.74.38-1.23.54-.57.2-.95.3-1.5.3" stroke-linecap="butt"/>
      <path d="M237.44 208.44c.16.58.2.92.42 1.48.27.7.5 1.08.92 1.7.44.67.7 1.03 1.28 1.58.5.5.8.73 1.4 1.1.54.37.9.5 1.47.8m-.98-5.85c.48.26.73.45 1.24.66.4.2.7.3 1.2.4.6.2 1 .2 1.7.2.7.1.9 0 1.8-.1m7.1-40.6c-.8-.4-1.3-.6-2.1-1.2-.8-.5-1.2-.8-1.9-1.5-.5-.5-.8-.7-1.2-1.3-.4-.5-.5-.8-.8-1.3m7.5-4.5c.2.7.3 1.1.6 1.7.4.9.8 1.3 1.4 2.1.9 1 1.7 1.3 2.7 2.1m1.4-5.9c.2.6.3 1 .6 1.6.3.5.5.8.8 1.2.4.6.7.9 1.3 1.4.7.5 1.1.7 1.9 1.1"/>
    </g>
    <path d="M333.3 151.62c-.05-1.7-1.72-1.87-2.36-1.87-1.85 0-2.35 1.15-4.65 2.4-2.9 1.54-4.2 1.9-6.7 1.9-2.6 0-3.9-.36-6.8-1.9-2.3-1.25-2.7-2.36-4.6-2.36a2.33 2.33 0 0 0-2.3 2.4v.8c0 .1.2.1.2.2 0-.8.1-1.2.5-1.7.5-.7 1.3-.9 1.6-.9 1.8 0 2.5 1.2 4.8 2.4 2.9 1.5 4.1 1.9 6.7 1.9 2.5-.1 3.8-.4 6.7-1.9 2.3-1.3 3-2.6 4.8-2.6.6 0 1.1.4 1.3 1 .1.4.1.7.1.8 0 .1.1 0 .1.1.1-.3.2-.4.2-1.1z" fill="#703d29" stroke-width=".18"/>
  </g>
  <g fill="#703d29">
    <path d="M264.4 294.03c.52-.56.9-.35 1-.6.07-.2-.08-.22-.3-.3-.27-.1-.57-.16-.85-.27-.3-.1-.56-.26-.85-.37-.12-.1-.4-.2-.48 0-.15.4 1.02.3.63 1.4-.07.2-.23.5-.82 1.2l-2.65 2.9c-.06 0-.15.2-.22.2-.06-.1-.05-.2-.05-.3l.1-4.1c0-.8.1-1.4.2-1.7.2-.5.7-.1.9-.4.1-.2 0-.2-.3-.3-.1-.1-.5-.2-1.1-.4-.3-.2-.6-.3-1-.4-.1-.1-.4-.3-.5 0 0 .1.1.2.1.2.4.2.5.4.5.9l.1 7.4c0 .5.1.7.2.7s.2 0 .4-.3l5.3-5.7z"/>
    <path d="M267.5 295.18c.33-1.08.97-.43 1.1-.82.03-.13 0-.17-.32-.27-.58-.2-.96-.3-1.33-.4-.36-.1-.75-.3-1.15-.4-.1-.1-.34-.2-.4 0-.12.4 1.14.4.8 1.5l-1.7 5.4c-.35 1.1-1 .5-1.12.9-.02 0-.03.1.06.1.27 0 .73.1 1.17.3l1.6.5c.3.1.4 0 .4-.1.1-.4-1.2-.2-.7-1.6l1.7-5.5zm3.7 1.1c.2-.7.5-.6.9-.48 1.03.3 1.36 1.32 1.03 2.45-.2.67-.45 1.3-2.02.83-.3-.1-.6-.2-.6-.5l.7-2.3zm-2.85 4.92c-.43 1.44-1.15.82-1.26 1.2-.1.22.1.24.2.28.5.15 1 .26 1.6.42.4.13.7.26.9.3.2.08.3.04.3-.07.1-.4-1.1-.24-.7-1.47l.6-1.98c.1-.4 0-.5.6-.33.5.15.7.3.7.88l.3 2.06c.1.7.2 1.5 1 1.8.4.1 1.1 0 1.2-.3 0-.1 0-.2-.1-.2-.1-.1-.2 0-.4-.1-.1-.1-.3-.1-.3-.3-.3-1.7-.7-3.6-.7-3.7 0-.1.3-.2.7-.3.4-.2.8-.6 1-1.3.1-.6.4-2.2-1.9-2.9l-2.1-.6c-.7-.2-.7-.3-1.2-.4-.1-.1-.3 0-.3.1-.1.4 1.1.3.7 1.6l-1.5 5zm8.42 2.47c-.33 1.38-1.37.54-1.48 1-.1.25.1.28.3.32.4.1.7.1 1.4.3.7.1 1 .3 1.4.4.3 0 .5.1.5-.2 0-.4-1.4-.3-1-1.8l1.2-5.3c.1-.6.2-.6.6-.5l.9.2c1.2.2.5 1.4 1 1.5.2 0 .2-.4.3-.6l.1-1.1c0-.1 0-.3-.1-.3-1-.3-1.7-.4-3.2-.7-1.6-.4-2.3-.6-3.2-.8-.2-.1-.2.1-.3.2l-.5 1.5c-.1.1-.2.3 0 .4.4.1.5-1.5 1.7-1.2l.8.2c.4.1.5.2.3.7l-1.3 5.4zm12.7-3.24c.42-.64.84-.5.9-.77.02-.2-.13-.2-.35-.24-.3-.05-.6-.06-.9-.1-.3-.07-.6-.17-.9-.23-.12-.1-.42-.2-.47.1-.07.4 1.08.1.87 1.2-.03.2-.13.6-.6 1.3l-2.1 3.3c-.05 0-.12.2-.2.2-.05 0-.07-.2-.1-.3l-.66-4.1c-.13-.8-.17-1.4-.1-1.7.1-.5.7-.2.75-.6.1-.2 0-.2-.3-.3-.1 0-.5-.1-1.1-.2l-1-.3c-.1 0-.4-.2-.5.1 0 .1.2.2.2.2.4.2.6.4.7.8l1.4 7.3c.1.5.2.6.3.6.1 0 .2-.1.4-.3l4.2-6.5zm.6 6.72c0 .3-.02.4.23.5.6.26 1.08.63 1.73.74 1.4.2 2.54-.7 2.8-2.2.25-1.5-.37-2.2-1.4-2.9-1.3-1-1.87-1.2-1.74-2 .1-.8.6-1.2 1.3-1.1 1.8.3 1.6 2.5 1.8 2.5.2 0 .3-.1.3-.4l.1-1.6c0-.3.1-.5-.1-.5-.2-.1-.5.1-.6.1-.3-.1-.7-.6-1.6-.8-1.3-.2-2.3.6-2.5 2-.2 1.2.3 1.8 1.2 2.4 1.5 1.1 2.2 1.4 2 2.4-.2.9-.9 1.4-1.7 1.3-1.2-.2-1.7-1.4-1.8-2.6 0-.2 0-.3-.2-.3-.3-.1-.2.3-.2.5v1.6zm15.82-4.46c.3-.7.7-.6.8-.9 0-.2-.2-.2-.4-.2h-.9l-.9-.2c-.2 0-.5-.1-.5.1-.1.4 1.1 0 1 1.2 0 .2-.1.6-.5 1.3l-1.8 3.5c-.1.1-.1.2-.2.2s-.1-.2-.2-.3l-1.1-4c-.2-.8-.3-1.3-.3-1.7 0-.5.7-.3.7-.6 0-.2 0-.2-.4-.2-.2 0-.5 0-1.2-.1l-1.1-.1c-.2 0-.5-.2-.5.1 0 .1.1.2.1.2.4.1.6.3.7.8l2.1 7.1c.1.5.2.6.3.6.1 0 .1-.1.3-.4l3.5-6.9z"/>
    <path d="M307.58 308.48c0 1.22-1.04 1-1.04 1.47 0 .2.2.15.33.15.3 0 .58-.05.92-.04.3 0 .7.05 1.2.06.1 0 .4 0 .4-.16 0-.56-1.4.24-1.4-2.05v-4c0-.1 0-.2.1-.2l.2.2 5.1 6.3c0 .1.1.2.2.2s.1-.1.1-.3v-6.7c0-1.2.9-.9.9-1.3 0 0 0-.1-.2-.1-.1 0-.5.1-1.2.1H312c-.1 0-.13.1-.13.2-.05.4 1.3.2 1.3 1.3l-.08 4c0 .3 0 .5-.1.5s-.2-.1-.3-.3l-4.3-5.3c-.2-.2-.1-.3-.4-.3-.6 0-.9.1-1.2.1h-.6c-.1 0-.2.1-.2.2 0 .6 1.2-.2 1.1 2.1v4.5zm10.4-5.38c.02-1.13.82-.7.83-1.1 0-.14 0-.17-.3-.17-.6 0-1 .04-1.4.04-.4 0-.8-.06-1.2-.06-.1 0-.3 0-.3.2 0 .4 1.2.1 1.2 1.2v5.8c0 1.2-.8.8-.8 1.3 0 .1 0 .2.1.2h1.2c.9 0 1.2.1 1.6.1.3 0 .4 0 .4-.2 0-.3-1.2.2-1.2-1.3l.1-5.7zm4.52 5.55c0 1.42-1.2.86-1.2 1.33 0 .26.18.25.37.24.43 0 .78-.05 1.5-.06.73 0 1.08.04 1.5.04.32 0 .54.03.53-.26 0-.33-1.37.03-1.38-1.44l-.05-5.4c0-.57.1-.63.54-.64h1c1.3-.06.9 1.27 1.4 1.26.3 0 .2-.46.2-.6l-.1-1.1c0-.12 0-.3-.2-.3-1 .02-1.7.07-3.3.1-1.5 0-2.3-.04-3.3-.03-.1 0-.1.1-.1.2l-.1 1.5c0 .1-.1.4.1.4.5 0 .2-1.6 1.4-1.6h.9c.5 0 .6 0 .6.6l.1 5.5zm6.25-2.26c-.2 0-.34 0-.35-.1 0-.2.04-.3.1-.5l.65-2.2c.04-.2.08-.2.1-.2.06 0 .02 0 .1.1l1.04 2c0 .1.1.2.1.4 0 .1-.2.1-.4.1l-1.5.1zm1.84.5c.2-.1.3.1.7 1 .1.3.2.5.2.7 0 .7-.7.6-.7 1 0 .1.1.1.3.1l1.2-.2c.7-.1 1-.1 1.4-.1.3-.1.4 0 .4-.2-.1-.4-.6.1-1-.7l-3.5-7.1c-.2-.4-.2-.4-.3-.4-.2 0-.2.2-.3.4l-2.3 7.4c-.3.7-.8.6-.8.9 0 .1.1.1.3.1l.9-.2c.3-.1.6 0 1-.1.2 0 .6 0 .5-.2-.1-.4-1.2-.1-1.3-.9 0-.3.1-.7.1-1 .1-.8.4-.9.5-.9l2.1-.2zm8.3-5c-.1-.8-.1-.9 1.2-1 2-.3 1.4 1.2 1.9 1.1.2-.1.1-.5.1-.6l-.2-1.2c0-.1-.1-.2-.3-.2-1 .1-1.7.2-2.5.3l-2.9.3c-.2 0-.2.1-.2.2 0 .5 1.2-.1 1.3 1l.7 5.5c.2 1.4-.7.9-.6 1.4 0 0 .1.1.2.1.6-.1 1-.2 1.3-.2.5-.1.9-.1 1.3-.1.3 0 .5 0 .5-.3-.1-.4-1.2.1-1.4-1.2l-.3-1.8c-.1-.7-.2-.8.3-.9l.7-.1c1.1-.1 1 1.1 1.3 1.1.2 0 .1-.4.1-.6l-.4-2.1c0-.3-.2-.3-.2-.3-.2 0-.1 1.1-1 1.2l-.7.1c-.5 0-.5-.1-.6-.6l-.2-1.7zm3.9 2.7c.4 2.4 2.1 3.7 4.3 3.3 3.3-.7 3.4-3.6 3.1-5.3-.5-2.5-2.3-3.7-4.4-3.3-2.6.5-3.6 2.7-3.1 5.2zm1.1-.9c-.3-1.7-.1-3.4 1.7-3.8 1.3-.3 2.9.8 3.3 3.4.3 1.9 0 3.6-1.8 4-1.9.4-3-2-3.4-3.7zm8.3-4.2c-.2-.7.1-.8.5-.9 1-.3 1.8.4 2.1 1.6.1.7.2 1.3-1.4 1.7-.3 0-.7.1-.8-.1l-.6-2.4zm0 5.6c.3 1.4-.6 1.3-.5 1.6 0 .2.2.1.4.1.5-.1 1-.3 1.6-.4.4-.1.7-.1.9-.2.2-.1.3-.2.3-.3-.1-.5-1 .3-1.3-1l-.5-2c-.1-.4-.2-.5.3-.6.5-.1.7-.1 1.1.4l1.3 1.6c.5.6 1 1.2 1.8 1 .4-.1 1-.6.9-.9-.1-.1-.1-.2-.2-.2s-.2.1-.3.1c-.1 0-.3.1-.5-.1-1.1-1.3-2.4-2.8-2.4-2.8-.1-.1.2-.3.4-.7.2-.4.4-.9.3-1.6-.1-.6-.7-2.2-3-1.6-.7.1-1.4.3-2.1.5-.7.1-.8.1-1.3.2-.1 0-.2.1-.2.2.1.4 1.1-.3 1.5 1l1.2 5.1zm8.6-1.9c.3 1.3-1 1.1-.9 1.5 0 .2.2.2.4.1.4-.1.7-.2 1.4-.4s1-.2 1.4-.4c.3-.1.5-.1.4-.4-.1-.3-1.3.3-1.7-1.1l-1.4-5.3c-.2-.6-.1-.7.3-.8l.9-.2c1.1-.4 1.1 1 1.6.9.2-.1 0-.5-.1-.6l-.4-1.1c0-.1-.1-.3-.2-.3-1 .2-1.7.5-3.2.9-1.6.4-2.3.5-3.2.7-.2.1-.1.2-.1.3l.2 1.6c0 .2 0 .4.2.4.5-.2-.3-1.6.9-1.9l.8-.2c.4-.1.6-.1.7.4l1.4 5.3zm5.5-7.4c-.3-1.1.6-.9.4-1.3 0-.2-.1-.2-.4-.1-.6.1-1 .3-1.3.4l-1.2.3c-.1 0-.4 0-.3.2.1.4 1.2-.3 1.5.8l1.5 5.5c.3 1.1-.6 1-.5 1.4 0 0 0 .1.1.1.2-.1.7-.3 1.1-.4.8-.3 1.2-.3 1.6-.4.2-.1.3-.2.3-.3-.1-.4-1.1.5-1.5-.9l-1.6-5.5zm2.3 2.6c.7 2.3 2.6 3.3 4.7 2.6 3.2-1.1 2.9-4.1 2.4-5.7-.8-2.4-2.8-3.4-4.8-2.7-2.4.8-3.2 3.2-2.3 5.6zm1-1.1c-.6-1.7-.6-3.4 1.1-4 1.3-.5 3 .4 3.8 2.9.6 1.9.5 3.6-1.2 4.2-1.8.6-3.3-1.5-3.8-3.2zm7.6-5.4c-.3-.7 0-.8.4-1 1-.4 1.9.2 2.3 1.3.3.6.4 1.3-1.1 1.9-.3.1-.7.3-.8 0l-.9-2.3zm.8 5.6c.5 1.4-.4 1.4-.3 1.7.1.2.3.1.4.1.5-.2 1-.5 1.5-.7.4-.2.7-.3.9-.3.2-.1.3-.2.2-.3-.2-.4-1 .4-1.5-.8l-.8-1.9c-.2-.4-.3-.5.3-.7.5-.2.7-.2 1.1.2l1.5 1.4c.5.5 1.1 1.1 1.9.8.4-.2 1-.7.9-1.1 0-.1-.1-.1-.2-.1s-.2.2-.3.2c-.1 0-.3.1-.5 0-1.3-1.1-2.8-2.4-2.8-2.5-.1-.1.2-.3.4-.7.1-.4.3-.9 0-1.6-.2-.5-1-2-3.2-1.2-.7.2-1.4.6-2 .8-.7.2-.8.2-1.2.4-.1 0-.2.1-.2.3.2.4 1.1-.5 1.6.8l1.9 4.9z"/>
  </g>
  <g fill="#fedf00" transform="matrix(.64 0 0 .64 0 16)">
    <path d="M412.66 249.25h82.18v82.02h-82.18z" fill="#d52b1e"/>
    <path id="a" d="M451.2 313.83s-.05 2.93-.85 5.3c-.94 2.7-.95 2.7-1.8 4.03-1.15 1.78-2.56 3.08-3.8 3.9-1.97 1.24-3.96 1.87-5.96 1.7-5.5-.5-8.1-6.44-9.3-11.28-1.3-5.13-5.1-7.92-7.5-6.06-1.4 1.1-1.5 2.9-.3 4.66 1.2 1.87 4.1 2.8 4.1 2.8l-3 3.73s-6.3-.8-7.6-7.3c-.5-2.5.7-7.1 4.9-8.5 5.3-1.7 8.7 2 10.3 5.2 2.2 4.4 3.2 12.5 9.4 11.2 3.4-.7 4.9-5.6 4.9-7.8l2.4-2.6 3.6 1.2.1.1z" fill="#fff"/>
    <use height="100%" width="100%" xlink:href="#a" transform="matrix(-1 0 0 1 907.52 0)"/>
    <path d="M461.12 278.95l10.76-11.64s1.62-1.3 1.6-3.4l-2.2.4-.5-1.1-.12-1.1 2.98-.6c.05-.5 0-.8.1-1.4.08-.5.2-.7.3-1.2l-3.26.2c.17-.5.13-.8.3-1.4.17-.4.2-.6.52-1.1.6-.1 1.16-.2 1.9-.3.73-.1 1.15 0 1.88-.1 1.78-3.3 9.2-6.3 14.45-.9 3.8 4 3 11.2-1.95 13.2-2.8 1.1-5.05.5-6.86-1.1l1.97-3.9c2.7 1.7 4.9-.4 4.8-2.5-.2-2.6-1.9-4.3-4.4-4.5-2.3-.2-3.9 1.1-4.9 3.1-.7 1.3-.4 2.2-.6 3.5-.3 1.5-.1 2.4-.6 3.9-.3 1.1-1.2 2.5-2.4 3.6l-11 11.9-42.9 46.4-3.3-3 43.2-46.7z"/>
    <path d="M429.5 283.04s2.7 13.37 11.88 33.43c4.67-1.7 7.42-2.8 12.37-2.8 4.94 0 7.7.94 12.36 2.8 9.2-20.07 11.9-33.43 11.9-33.43l-24.2-31.18-24.2 31.18z" fill="#fff"/>
    <path d="M456.12 262.4l16.82 21.65s-2.24 10.52-9.08 26.35c-2.64-.6-4.9-1.13-7.73-1.32V262.4zm-4.74 0l-16.82 21.65s2.24 10.52 9.08 26.35c2.64-.6 4.9-1.13 7.73-1.32V262.4z"/>
  </g>
  <g fill="#d52b1e">
    <path d="M322.3 175.52h52.6v52.5h-52.6z" fill="#fedf00"/>
    <path d="M329.67 175.52h7.84v52.5h-7.8zm15.03 0h7.84v52.5h-7.84zm15.03 0h7.84v52.5h-7.84z"/>
  </g>
  <g fill="#d52b1e" stroke="#d52b1e" stroke-width=".51">
    <path d="M264.3 273.54c.15.95.5 2.57 1.4 4.23.93 1.5.58 1.45 2.72 3.84 1.06 1.2 2.7 2.2 4 2.9 1.28.7 2.24 1.1 4.37 1.6 4.1 1.1 7 1.2 10.6 1.1 2.7-.1 4.8-.4 6.5-.6 2.4-.3 4.3-.5 7.1-.6h3.9c1.5.1 3 .4 4.6.7 3.5.7 7 2.1 7 2.1v-54.9h-52.6v37.5s.1 1.9.2 2.5z" fill="#fedf00" stroke="none"/>
    <path d="M270.4 283.15l2.47 1.44 3.38 1.2v-52.2h-5.84zm29.23 2.38v-51.9h-5.85v52.73s4-.5 5.85-.63zm11.67-51.9h-5.83v52.1c1.9.2 3.85.53 5.84 1.06v-53.2zm-23.35 0v53.33c-.06 0-3.9.2-5.87 0v-53.32z" stroke-width=".33"/>
  </g>
  <g transform="matrix(.64 0 0 .64 0 16)">
    <path d="M585.48 402.4c-.23 1.47-.76 4-2.16 6.6-1.48 2.33-.94 2.27-4.28 6-1.64 1.84-4.2 3.4-6.23 4.5-2 1.08-3.5 1.62-6.8 2.5-6.5 1.7-11.1 1.8-16.5 1.6-4.2-.18-7.5-.7-10.2-1.08-3.8-.5-6.7-.82-11.1-1-2.1-.1-4.1-.1-6.1 0-2.4.13-4.8.5-7.3 1-5.4 1.1-11 3.2-11 3.2l.1-85.66 82.2-.03v58.55s-.1 2.86-.3 3.8z" fill="#fedf00"/>
    <g id="b">
      <path d="M524.62 346.9l-.6.3c-.3.32-.44.5-.77.8-.45.4-.77.5-1.25.85-.23.16-.42.2-.6.44-.25.3-.08.6-.25 1-.18.4-.37.5-.65.9-.37.4-.65.6-1.07 1-.4.4-.58.7-1.1 1-.13 0-.2.1-.34.2h-.6c-.4.1-.5.5-.8.7.1.2.1.3.2.6s.7 1.2.8 1.4c.2.3.3.7.5.7.5.1.8.1 1.3.1.8.2 1.2.1 2 .5.6.2.8.5 1.4.8.4.2.7.3 1.2.4.4 0 .6.1 1 .1.2-.1.4-.2.6-.2h.1l-.1.3v.1l2 .9a1.72 1.72 0 0 0-.2.4c-.1.3-.1.7-.1.8.6 1.9 1.1 3.1 1.4 3.2.6.2.8.8 1.1 1.5l-.4.3c-.6.6-1.2 1-1.7 1.8-.7 1.2-1.2 1.2-.3 2.8.6.9.8 1.1 1.6 2.4.3.6.5 1.2.8 2 .2.7.2 1.2.3 1.9l.9.3.6-.7.6-1.2v-.9c-.3-.2-.3-.5-.3-.8.1-.4.5-.3.7-.6.3-.5-.3-.8-.7-1.1-.6-.7-1.4-.8-1.6-1.9-.1-.3.1-.5.4-.8.8-.9 1.1-1 1.9-1.8.2.1.6.2.9.1.3-.1.6.1 1.4.4.6.1.9 0 1.3 0l.4-.1c0 .2.1.4.1.7.1 1-.2 3 .2 3.5.1.2.2.3.3.5.1.2.2.4.2.7 0 .7.1 1.1 0 1.9 0 .7-.1 1-.2 1.7-.1.5-.2.7-.5 1.1-.3.3-.6.4-1 .7l-.1 1 1.1.4 1.3.3.7-.3c0-.3.1-.4.2-.6.1-.3.2-.5.47-.6.4-.2.8.1.9-.1.2-.3.1-.4.1-.8-.1-.7-.2-1-.3-1.7-.2-1.1-.2-1.7-.2-2.8.02-.6.1-1 .2-1.6.12-.9.5-1.3.7-2.2.2-1 .2-1.6.3-2.5 3.15.5 5.8.4 9.32-.4.1 0 .7-.2.7-.2.8.7 1.7 1.3 2.7 1.6v1c0 .3-.07.5.1.8l.3.3c.3.1.5 0 .7-.2.2-.2.2-.5.2-.8v-.7h1.8s0 .3.1.4c0 .3-.1.5 0 .7.1.2.2.33.5.4a.66.66 0 0 0 .5-.1c.3-.2.22-.5.3-.86v-.8c.2-.05.8-.27 1-.36a5.12 5.12 0 0 1-.1.8c-.03.4-.1.6-.2.96-.2.6-.4.9-.73 1.4-.4.7-.6 1-1 1.6l-.6.68c-.22.35-.3.6-.6.9-.3.5-.5.75-.9 1.1-.7.55-1.1.1-2.1.84l-.2 1 1.5.6 1.3.2.46-.2c0-.3.04-.5.23-.8.2-.3.4-.4.8-.4.3-.1.7 0 1-.2.4-.3.4-1 .6-1.5.8-1.7 1.6-2.6 3-3.9.6-.6 1.1-.8 1.6-1.5.2-.3.5-.5.5-.9 0-.3-.2-.4-.2-.7-.1-.4-.2-1-.2-1 1.5.8.9.7 1.2 1.4.2.6-.1 1.1 0 1.7.1.8.4 1.1.5 1.9.1.9-.1 1.4-.3 2.3-.2.8-.1 1.3-.5 2-.3.7-.6 1.1-1.2 1.6-.23.2-.4.2-.6.4l-.14 1 1.1.4 1.6.45.4-.4c.1-.7-.1-1.65.4-1.7.4-.1.7 0 .8-.3l.1-.65c.2-1.9.4-3.7.6-4.5.2-1 .2-1.2.4-1.9s-.1-.3.4-1.7c.7-2.1-.2-2.4-1.03-3.7-.5-.7-.7-.9-.7-1.5-.1-.8.1-1.5.1-2.7-.1-1.3-.03-2.2 0-2.9l.3-.2c1.2-.6 1.67-.8 2.4-2.5a3.43 3.43 0 0 0 .3-1.5c0-.3 0-.64-.1-1 0-.4-.13-.7-.3-1-.1-.3-.3-.5-.5-.8-.8-.9-1.8-1.1-2.7-1.4-1.5-.6-2.56-.5-4.18-.6-1.7-.1-2.6-.2-4.3-.1-2 .1-3.1.5-5.1.77-1.9.2-3 .4-4.9.4-2.25.1-4.4-.4-5.8-.3-2.45.2-2.5.8-6.2 1.1a66.92 66.92 0 0 1-3.8.2l-2.1-.7c.9-.3 1.1-.5 1.5-1.1.3-.4.2-.7.55-1.1.3-.3.5-.6.8-1a2.2 2.2 0 0 0-.9-.4c-.35-.1-.6-.05-.9 0-.5.05-.8.1-1.24.3-.4.2-.7.4-.9.6 0 0-1.3-.8-2.2-1.2-1.1-.5-1.6-.7-3-.9zm1.97 11.92l-.1.03-.1-.03z" fill="#d52b1e"/>
      <g fill="none" stroke="#fedf00" stroke-width=".99" stroke-linecap="round">
        <path d="M568.77 359.52l-.76.24c-.8.4-1.5.42-2.6.5-2.6.2-4.2-1.06-7-.85-1.4.2-2 1.2-3.4 1.6a9.25 9.25 0 0 1-1.7.3l.5-1s-1.3.3-2.1.3a7.55 7.55 0 0 1-1.5-.1l1-.9s-.8-.1-1.3-.3a3.92 3.92 0 0 1-1-.6 20.48 20.48 0 0 0 1.7-.3c1.6-.4 2.1-1.1 3.9-1.3 1.2-.1 3.1 0 7.7.7 3.1.5 4.4.3 5.6-.2.8-.3 1-1 1.1-1.8.1-.7-.4-1.4-.8-1.8-.1-.1-.4-.3-1.1-.3"/>
        <path d="M524.8 350.6c-.53-.06-.88.02-1.34.3-.48.3-.54.7-.9 1.15.46.1.7.36 1.15.25.4-.1.6-.24.8-.5.3-.37.5-.7.5-1.17l-.1-.02z" fill="#fcd900" stroke-width=".51" stroke-linecap="butt"/>
        <path d="M536.04 363.8s.26.47.4.8c.25.54.38.87.53 1.46.2.8.12 1.28.24 2.1l.1.37v1.13m6.8-6.95l-.3 1.4c-.3 1.4-.7 2.1-.9 3.5 0 .3-.1.5-.1.7m-10.8-4c.8.2.6 3.4 1.8 4.1"/>
        <path d="M560.12 369.78l.38-.25a8.15 8.15 0 0 0 2.7-1.8" stroke-linecap="butt"/>
        <path d="M552.38 368.02c3.54-.88 5.9-2.65 7.6-2.87m-4-1.55c.3 0 .57-.02.82-.06 1.47-.2 1.7.7 2.73 1.26 1.85 1.04 2.1 2.3 4.3 3.36l.32.15.84.5"/>
        <path d="M517.7 354.53c.27.07.43.08.7.05.34-.03.5-.23.82-.25.27 0 .47-.03.7.13.13.1.2.2.27.34 0 .17.1.28.1.47-.1.28-.3.42-.6.42s-.5-.1-.6-.3a.47.47 0 0 1-.1-.4c-.3.1-.5.1-.8 0a1.04 1.04 0 0 1-.7-.5z" fill="#fcd900" stroke-width=".51" stroke-linecap="butt"/>
      </g>
      <path d="M525.13 364.17c-.8-.24-1.97-.83-1.97-.83.33-.25.6-.26.87-.55.4-.5.37-.8.6-1.4.2-.5.17-1 .66-1.4.2-.3.7-.3 1.1-.2.3.1.7.4.8.7.1.6-.2.9-.3 1.4-.1.5-.3.9-.2 1.4 0 .4.2.5.3.9 0 0-1.3-.1-2.1-.4zm-1 .95a.63.63 0 1 1 .65.62.63.63 0 0 1-.64-.62zm-1.75-16.5l-.14-.1c-.4-.32-.42-.67-.6-1.12-.18-.44-.26-.7-.32-1.16-.05-.4 0-.64 0-1.05 0-.4.04-.6 0-1s-.03-.6-.2-1c-.1-.2-.4-.4-.32-.4.1-.1.25-.1.42 0 .4 0 .63.1.94.4.37.3.52.5.67 1 .17.5.25.9.4 1.4.1.3.14.4.3.7.15.3.3.4.5.6-.3.3-.44.5-.77.8-.3.2-.56.4-.85.5zm3.6 10.63l2.23 1.03c1.2-.63 2.5-1.92 3.5-3.92.9-1.72 1.1-2.65 1.4-4.3l-1.8-.6-.3.08c-.5 1.72-.7 2.7-1.6 4.2-.8 1.28-1.7 2.3-2.6 3.03l-.7.48zm4.94 18.12c.36-.5.5-.8.92-1.26.46-.5.8-.7 1.3-1.1.17 0 .35 0 .5.1-.03.6-.06 1-.2 1.6-.1.5-.17.8-.33 1.2-.1.4-.1.7-.3 1-.1.2-.3.3-.5.5-.5-.7-1.3-1.3-1.3-1.9zm33 1.85c.58.2.93.27 1.48.54.6.3.9.57 1.47.94.02.16.1.32.06.5-.53.1-.93.2-1.53.24a8.4 8.4 0 0 1-1.26 0c-.4-.03-.66.02-1.05-.1-.3-.1-.4-.2-.7-.32.5-.7.9-1.64 1.4-1.8zm-9.75-2.04c.57.2.92.27 1.47.54.6.3.9.57 1.47.94.1.16.1.32.1.48-.5.13-.9.2-1.5.26-.5.03-.7.02-1.2 0-.4-.03-.6.02-1-.1-.2-.1-.4-.2-.6-.32.6-.7.9-1.64 1.5-1.8zm-17.34 2.13c.57.3.92.3 1.47.6.6.3.9.6 1.47 1 .02.2.1.3.06.5-.53.1-.93.2-1.53.3-.5.1-.77 0-1.26 0-.4 0-.66 0-1.05-.1-.3-.1-.4-.2-.7-.3.6-.7.9-1.6 1.4-1.8zm-8.98-29.8c-.6-.2-1.05-1-.66-1.5.1-.2.4-.2.5-.4.2-.2.1-.5.1-.8 0-.3-.2-.5-.2-.9-.1-.4-.2-.6-.2-1 0-.6-.1-1.1.3-1.5.2-.3.6-.6.8-.6.1.2-.1.5-.1.8 0 .5.1.8.2 1.2.2.6.5.8.7 1.4.2.5.4.8.4 1.4 0 .5-.1.8-.2 1.2-.2.4-.3.6-.7.9-.3.3-.5.4-.8.5a1.15 1.15 0 0 1-.6-.1z" fill="#0065bd"/>
    </g>
    <use height="100%" width="100%" xlink:href="#b" y="36.59"/>
  </g>
  <path d="M264.1 175.52h52.6v52.5h-52.6zm58.2 0h52.6v52.5h-52.6zm-58 98.02c.15.95.5 2.57 1.4 4.23.93 1.5.58 1.45 2.72 3.84 1.06 1.2 2.7 2.2 4 2.9 1.28.7 2.24 1.1 4.37 1.6 4.1 1.1 7 1.2 10.6 1.1 2.7-.1 4.8-.4 6.5-.6 2.4-.3 4.3-.5 7.1-.6h3.9c1.5.1 3 .4 4.6.7 3.5.7 7 2.1 7 2.1v-54.9h-52.6v37.5s.1 1.9.2 2.5zm110.4 0c-.14.93-.48 2.56-1.38 4.22-.94 1.5-.6 1.45-2.73 3.84-1.1 1.17-2.7 2.18-4 2.88-1.3.7-2.3 1.04-4.4 1.6-4.2 1.1-7.1 1.16-10.6 1.02-2.8-.1-4.9-.45-6.6-.68-2.5-.33-4.3-.53-7.1-.65-1.4-.06-2.7-.07-4 0-1.6.08-3.1.32-4.7.65-3.5.7-7.1 2.04-7.1 2.04v-54.82l52.6-.02v37.47s-.1 1.8-.2 2.4z" stroke-width=".51" fill="none" stroke="#703d29"/>
</svg>
