<svg xmlns="http://www.w3.org/2000/svg" xmlns:xlink="http://www.w3.org/1999/xlink" height="480" width="640" viewBox="0 0 640 480">
  <path fill="#74acdf" d="M0 0h640v480H0z"/>
  <path fill="#fff" d="M0 160h640v160H0z"/>
  <g id="c" transform="translate(-64) scale(.96)">
    <path id="a" d="M396.84 251.3l28.45 62s.4 1.2 1.2.86c.8-.33.3-1.5.3-1.5l-23.7-63.97m-.7 24.1c-.4 9.4 5.4 14.6 4.7 23-.8 8.4 3.8 13.2 4.9 16.4 1 3.2-1.2 5.2-.2 5.7.9.4 3-2.2 2.4-6.8-.7-4.7-4.3-6.1-3.4-16.3.8-10.3-4.2-12.7-3-22.1" fill="#f6b40e" stroke="#85340a" stroke-width="1.11"/>
    <use height="100%" width="100%" xlink:href="#a" transform="rotate(22.5 400 250)"/>
    <use height="100%" width="100%" xlink:href="#a" transform="rotate(45 400 250)"/>
    <use height="100%" width="100%" xlink:href="#a" transform="rotate(67.5 400 250)"/>
    <path id="b" d="M404.3 274.4c.46 9.06 5.6 13.07 4.6 21.32 2.2-6.52-3.13-11.58-2.83-21.22m-7.65-23.75l19.5 42.57-16.34-43.88" fill="#85340a"/>
    <use height="100%" width="100%" xlink:href="#b" transform="rotate(22.5 400 250)"/>
    <use height="100%" width="100%" xlink:href="#b" transform="rotate(45 400 250)"/>
    <use height="100%" width="100%" xlink:href="#b" transform="rotate(67.5 400 250)"/>
  </g>
  <use height="100%" width="100%" xlink:href="#c" transform="rotate(90 320 240)"/>
  <use height="100%" width="100%" xlink:href="#c" transform="rotate(180 320 240)"/>
  <use height="100%" width="100%" xlink:href="#c" transform="rotate(-90 320 240)"/>
  <circle r="26.67" cy="240" cx="320" fill="#f6b40e" stroke="#85340a" stroke-width="1.44"/>
  <path id="h" d="M329.1 234.3c-1.83 0-3.57.8-4.6 2.43 2.05 1.84 6.58 2.04 9.66-.2a7.04 7.04 0 0 0-5.07-2.23zm-.04.42c1.77-.04 3.43.78 3.66 1.6-2.05 2.24-5.33 2.05-7.38.4.9-1.43 2.34-1.98 3.72-2z" fill="#843511"/>
  <use height="100%" width="100%" xlink:href="#d" transform="matrix(-1 0 0 1 640.24 0)"/>
  <use height="100%" width="100%" xlink:href="#e" transform="matrix(-1 0 0 1 640.24 0)"/>
  <use height="100%" width="100%" xlink:href="#f" transform="translate(18.11)"/>
  <use height="100%" width="100%" xlink:href="#g" transform="matrix(-1 0 0 1 640.24 0)"/>
  <path d="M315.92 243.7c-.88.15-1.5.93-1.5 1.82 0 1.02.84 1.83 1.86 1.83.6 0 1.15-.3 1.5-.78.7.53 1.7.6 2.22.6h.24c.53 0 1.5-.07 2.22-.6.35.5.9.78 1.5.78 1.02 0 1.86-.8 1.86-1.83 0-.9-.62-1.67-1.5-1.83.5.1.8.6.8 1.1 0 .7-.54 1.2-1.22 1.2a1.24 1.24 0 0 1-1.23-1.2c-.2.4-1 1.6-2.55 1.6-1.56-.1-2.35-1.3-2.55-1.7a1.24 1.24 0 0 1-1.23 1.16c-.68 0-1.23-.56-1.23-1.24 0-.54.4-1 .9-1.2zm2 5.45c-2.05 0-2.86 1.86-4.7 3.1 1.02-.42 1.83-1.23 3.27-2.05 1.4-.82 2.6.18 3.4.18.8 0 2-1 3.4-.18 1.4.82 2.24 1.63 3.3 2.04-1.88-1.23-2.7-3.1-4.77-3.1-.4 0-1.2.23-2.04.64h-.05c-.84-.4-1.65-.63-2.06-.63z" fill="#85340a"/>
  <path d="M317.24 251.58c-.8.03-1.9.2-3.42.66 3.7-.82 4.5.42 6.15.42h.02c1.6 0 2.4-1.24 6.1-.42-4.1-1.23-4.9-.42-6.2-.42h-.1c-.8 0-1.4-.3-2.78-.24z" fill="#85340a"/>
  <path d="M314 252.2c-.24 0-.5.02-.78.04 4.3.4 2.24 2.88 6.75 2.88h.03c4.5 0 2.47-2.47 6.78-2.88-4.5-.4-3.1 2.25-6.78 2.25h-.03c-3.46 0-2.4-2.4-5.97-2.3z" fill="#85340a"/>
  <path d="M323.7 258.87a3.7 3.7 0 0 0-7.4 0 3.8 3.8 0 0 1 7.4 0z" fill="#85340a"/>
  <path id="e" d="M303.42 234.26c4.72-4.1 10.67-4.72 13.95-1.64.8 1.07 1.32 2.22 1.53 3.43.4 2.33-.32 4.85-2.15 7.44.2 0 .62.2.82.4 1.63-3.1 2.2-6.3 1.67-9.4a13.26 13.26 0 0 0-.64-2.4c-4.5-3.7-10.66-4.1-15.18 2z" fill="#85340a"/>
  <path id="d" d="M310.8 233.03c2.67 0 3.28.62 4.52 1.64 1.23 1.03 1.84.82 2.05 1.03.2.2 0 .82-.4.6-.42-.2-1.24-.6-2.47-1.63-1.24-1.02-2.46-1.02-3.7-1.02-3.7 0-5.74 3.07-6.15 2.87-.4-.2 2.05-3.5 6.15-3.5z" fill="#85340a"/>
  <use height="100%" width="100%" xlink:href="#h" transform="translate(-18.41)"/>
  <circle id="f" cy="236.3" cx="310.92" r="1.85" fill="#85340a"/>
  <path id="g" d="M305.88 237.54c3.5 2.67 6.97 2.46 9.02 1.23 2.06-1.23 2.06-1.64 1.65-1.64-.4 0-.82.4-2.47 1.23-1.64.82-4.1.82-8.2-.82z" fill="#85340a"/>
</svg>
