<svg xmlns="http://www.w3.org/2000/svg" height="480" width="640" viewBox="0 0 640 480">
  <g stroke-width="1pt">
    <path fill="#006" d="M0 0h640v480H0z"/>
    <path d="M0 0v28l307 222h38.7v-28L38.7 0H0zm345.7 0v28l-307 222H0v-28L307 0h38.7z" fill="#fff"/>
    <path d="M144 0v250h57.6V0H144zM0 83.3v83.4h345.7V83.3H0z" fill="#fff"/>
    <path d="M0 100v50h345.7v-50H0zM155.6 0v250H190V0h-34.4zM0 250l115.2-83.3H141L25.8 250H0zM0 0l115.2 83.3H89.5L0 18.6V0zm204.7 83.3L320 0h25.7L230.5 83.3h-25.8zm141 166.7l-115.2-83.3h25.7l89.5 64.7V250z" fill="#c00"/>
    <path d="M299.8 392.5l-43.7 3.8 6 43.4-30-31.7-30 31.7 6-43.4-43-3.8 38-22.3-24-36.5 41 15.5 13.6-41.7 13.5 41.7 41-15.5-24.4 36.5m224 62.3l-11-15.8 18 6.7 5.7-18 6 18 18-6.7-10.8 15.8 16.5 9.7-19 1.7 3 18-13-14-13 13.2 2-18-18.6-2M487 150l-11-15.4 17.8 6.7 5.8-18 5.8 18 18-6.7-10.7 15.8L529 160l-19 1.8 2.7 18.8-13-13.7-13.2 13 2.6-19-18-2m-90 106l-10.3-16 17.6 7 6-18.5 6 18L418 249l-10.7 16 16.3 9.7-19 1.6 2.7 19-13.2-14-13 14 2.6-19-19-1.6m216.3-38L570 221l18 6.7 5.6-18 6 18 17.7-6.7-10.5 15.8 16.3 9.7-19 1.7 3 18.8-13-13.8-13 13.8 3-18.8-19-1.7M542 320l-10.4 6.4 3-12-9.4-7.7 12-1 4.7-11.2 4 11.3 12 1-10 7.7 3 12" fill-rule="evenodd" fill="#fff"/>
  </g>
</svg>
