<svg xmlns="http://www.w3.org/2000/svg" height="480" width="640" viewBox="0 0 640 480">
  <defs>
    <clipPath id="a">
      <path fill-opacity=".7" d="M-85.3 0h682.6v512H-85.3z"/>
    </clipPath>
  </defs>
  <g clip-path="url(#a)" transform="matrix(.9 0 0 .9 80 0)" fill-rule="evenodd">
    <path d="M-85.3 0h682.6v512H-85.3z" fill="#009"/>
    <path d="M-85.3 0l682.6 512V0H-85.3z" fill="#fc0"/>
    <path d="M-21.5 75L-46 57.5-70.2 75l9.4-28.6L-85 28.7h30L-46 0l9.5 28.7h30l-24.3 17.7m61 65.6L5.6 129.7 15 101-9.4 83.3h30.2L30 54.6l9.4 28.7h30.2L45.2 101l9.3 28.7m27 54.6l9.5-28.7L66.6 138h30l9.4-29 9.4 28.7h30L121 155.3l9.5 28.7-24.4-17.7m61 43.7l-24-17.8h30l9.6-28.7 9.4 28.7h30l-24.7 18 9.4 28.7-24.4-18-24.4 18m61 8h30l9-29 9 28.3h30l-24 18 9.2 28.4L258 275l-24.5 18 9.5-28m81.6 36.6L334 273l9.2 28.7h30.2L349 319.5l9.3 28.7-24.4-17.8-25 17.8 9-28.7-24.4-17.8m115.4 26l9.4 28.7H449L425 374l9 29-24.2-18-24.4 17.8 9.3-28.7-24.4-17h30.2m85.3 26l9.2 28h30.2l-24.4 18 9.4 28.8-24.4-17.7-24.4 17.8 9.3-28.7-24.4-17.6h30.2M571 466h30.2l-24.4 17.7L586 512l-24.3-17.7-24.4 17.7 9.3-28.7-24.4-17.7h30.2l9.3-28.7" fill="#fff"/>
  </g>
</svg>
