<svg xmlns="http://www.w3.org/2000/svg" height="480" width="640" viewBox="0 0 640 480">
  <path fill="#cf142b" d="M0 0h640v480H0z"/>
  <path fill="#00247d" d="M0 0h320v160H0z"/>
  <path d="M0 0v17.9L284.22 160H320v-17.9L35.78 0H0zm320 0v17.9L35.78 160H0v-17.9L284.22 0H320z" fill="#fff"/>
  <path d="M133.33 0v160h53.34V0h-53.34zM0 53.33v53.34h320V53.33H0z" fill="#fff"/>
  <path d="M0 64v32h320V64H0zM144 0v160h32V0h-32zM0 160l106.67-53.33h23.85L23.85 160H0zM0 0l106.67 53.33H82.82L0 11.93V0zm189.48 53.33L296.15 0H320L213.33 53.33h-23.85zM320 160l-106.67-53.33h23.85l82.82 41.4V160z" fill="#cf142b"/>
  <path d="M553.83 148.26v135.5c0 36.2-72.36 47.97-72.36 47.97s-72.36-11.76-72.36-47.96v-135.5h144.8z" fill="#fff"/>
  <path d="M553.83 283.77c0 36.2-72.36 47.96-72.36 47.96s-72.36-11.76-72.36-47.96c0 0 0-2.9 1.5-4.57 0 0-.8 6.02 3.9 10.57 0 0-3.6-6.42 0-12.73 0 0-1.3 8.12 3.8 12.78 0 0-2.8-6.63.4-14.03 0 0-1.5 12.1 4 14.5 0 0 1.5-7-.7-11.4 0 0 3.8 1.5 3.6 11.6 0 0 1.2-1.5 1.5-8.8 0 0 .2 8.3 3.1 10.2 0 0 .9-.9-.3-4.7s.6-5.1.8-5c0 0-.6 4.2 2.9 7.3 0 0-1.5-6.6.6-7.5 0 0-.4 5.5 4 6.8 0 0 .3-1.7-.6-3.5 0 0-.8-2.2-.2-3.8 0 0 1.4 5 3.3 5.9 0 0-1.1-3-.1-5.9 0 0 .2 4.2 4 5.9 0 0-2.5-3.3-1.5-6.8l24.1 1.1 12.5.6 37.5-2.7 6.5-5.6s2.6 3.6-1.5 9.1c0 0 4-.8 5.3-7 0 0 1.7 3.4-.6 7.2 0 0 4.5-4.5 5.1-9.5 0 0 1.7 4.9-2.4 10.1 0 0 3.8-1.3 5.4-6.8 0 0 1.3 3.3-2.3 8.1 0 0 6.8-3.6 6.6-11.1 0 0 2.9 4.1-.4 9.7 0 0 3.5-3.1 3.8-7.7 0 0 1.9 2.1-.1 7.8 0 0 4.3-4 4.9-8.3 0 0 .9 4-2.7 9 0 0 2.5-.6 4.8-5.5 0 0 .7 1.9-1.5 5.42 0 0 2.3-.4 3.9-4.8 0 0 .3 2.62-.4 5 0 0 1.8-1.2 2.2-6.2 0 0 1 1.7 1 3.7v.7z" fill="#2f8f22"/>
  <path d="M516.57 205.44s-2.52.42-5.75-.56c-3.22-1-4.53-.6-5.53 0 0 0 1.3-2.6-1.9-4.65 0 0 1 2.62-.4 3.85 0 0-.7.6-1.4-.3 0 0-1.1-1.15-2.3-2.04 0 0 2.7-.94 2.2-3.7-.5-2.75-2-3.1-2.8-3.45 0 0 .2 1.2 0 2 0 0-3-1.7 1-4 4-2.4 3.2-3.7 2.5-4.9-.7-1.2-2.3-2.5-3-3 0 0 .8 1.2.6 2.3-.1 1-2 1.7-1.6-.1.4-1.9 0-1.6-.1-3.6 0 0 3.5 1.2 4.9-2.3 0 0 1.3-3.6-3.2-5.4 0 0 1.1 1.5.5 2.6 0 0-.9 1.8-2.1.3s-1.8-1.8-1.7-3.5c0 0 4.1.5 3-3.9 0 0-.7 2.9-6-1 0 0 3.5-3.6 2.1-6.4 0 0-.4-1.3-4.1-.6 0 0 3.2-2 1.9-3.8 0 0-.7-1.1-3.8.4 0 0 1.2-2-1.8-4.2 0 0-2 1-3 2 0 0-2.1-2.6-3.4-3.6 0 0-2.4.9-3 3.6 0 0-1.1-1.3-3.6-1.9 0 0-1.2 2.2.3 4.1 0 0-1.2 0-3.3-.9 0 0-2.4-1.2-2.1.9.4 2.1.5 2.5 1 3.5 0 0-5.4-1.3-5.2 1.7.2 2 .9 3.8 2.6 5.2 0 0-3 3.9-5.6 1 0 0-.9.9 1.1 3.5 0 0 1.9 2.1.3 3.4 0 0-2.2 1.7-3.2-1.6 0 0-3.5 3.4.6 6 0 0 2.6 1.5 5.3-.8 0 0-.8 6.6-3.4 5.3 0 0-1.6-1.1 1.2-2.5 0 0-4-.5-4.6 3.3 0 0-.5 3 3 4.1 0 0 2.7 1-.1 3.1 0 0-1.9 1.5-.6 3.7 0 0 1.5 2.4-2.4 2.7 0 0-2.1 0-2.9-.3 0 0-.8 1.6-.2 3.4 0 0-2-1.5-6.4.1s-4.1.4-4.4.9c-.4.5-1.2 2.1-1.2 2.1l2.3 2.8-.5 3.2 1.1.5 9.04-4.1 9.2-4.8 7.45.4 4.7 1.1 6.2.4 4.4-2.4h6.4l7.1 3.5 8.1 4.8 4.2.76 3.2-.13v-6.5l-1.57-2.4z" fill="#d40000" stroke="#000" stroke-width=".53" stroke-linejoin="round"/>
  <path d="M443.5 213.04s3.5 1.8 4.98-.38c0 0 1.9-3.65-2.3-4.9 0 0 2.3-2.76-.16-5.3 0 0-1.28-1.35-3.53-.35 0 0-1-1.9-3.2-1.8 0 0-1.9 0-2.6 2.1 0 0-2.7-1.1-4.1.5 0 0-2.4 2.8.9 4.9l2.4.2 2.4-1.1 2.6.8s-.7 2.7 2.3 5.5z" fill="#d40000" stroke="#000" stroke-width=".53" stroke-linejoin="round"/>
  <path d="M521.83 206.63c4.23-.4 5.72 3.17 5.72 3.17 2.22 5.2-2.5 7.97-2.5 7.97.37 1.16.4 2.7.4 2.7 6.63.8 5.47 8.24 5.47 8.24l-2.2-1.8c-3.82-1.5-7.77 1.8-10.6 7.3s-1.47 8.1-1 14.5c.5 6.5 11 10.4 11 10.4s-4.97 12.9-8.2 21.1c-3.23 8.3-9.97 4.8-11.93 3.1-2-1.7-2.5-.8-3.5 0s4.4 5-5.4 9c-9.9 4-11.6 7.1-13.2 8.1-1.7 1-8.5.3-9.2-.5-.7-.8-.3-.8-2.9-2.4-2.6-1.6-6.9-2.9-11.6-5.2s-4.6-5.2-4.6-5.8c0-.6 1.6-5.5-3.9-1.6s-10.2-1.9-10.2-1.9c-1.1-1.4-5.7-13.7-5.7-13.7-1.3-4.6-3.7-9.9-3.7-9.9.1 0-.3.6 3.8-1.7 4-2.4 5.8-6.2 7.3-10.1 1.4-3.8 0-10.4-.5-11.7-.5-1.3-3.6-7.4-7.3-8.7-3.8-1.3-6.3 1.9-6.3 1.9s-1.2-7.4 5.5-8.2c0 0 0-1.5.4-2.7 0 0-4.7-2.7-2.5-7.9 0 0 1.5-3.5 5.7-3.2l-1 2s-1.1 10.6 14.5 3.5c15.5-7.1 15-8.4 23.9-4l6.4-.1s9.3-4.3 12.3-2.5c3 1.9 13.7 7.9 13.7 7.9s10.4 3.9 12.4-3.3l-1.2-3.4z" fill="#64b4d1" stroke="#000" stroke-width=".4"/>
  <path stroke-miterlimit="10" d="M475.08 252.65s-.54-3.26-1.1-5.37c0 0-1.16-3.3.8-5.63l2.45-2.8s1.5-2.05 3.4-2.33c0 0 1.87-.05 2.04-.44.18-.38 2.24-3.76 7.12 0 0 0 1.5-2.5 3.9-2.9 0 0 2.6-.8 3.8 1.13 0 0 2.9-2.2 5.4 1.4 0 0 3.4-1.9 5.9 1.9 0 0 3.4-1.6 5.5 1.9 2.1 3.6 1.7 5 1.7 5l1.5 5.6 5.5 6.8-12.8 4.8h-5.8l-11.5 3.1-20.4 1.6-5.7-6.7 8-7z" fill="#fff" stroke="#00247d" stroke-width=".53"/>
  <path d="M457.84 286.55s-3.05.18-4.6.96c-1.56.8-2.76 1.7-4.55 2.8 0 0-.9 1.1-4.4.5 0 0-6.1-1.4-6.1 3.3 0 0-7.3.6-4.3 7 0 0 2 5 6.2 1.5 0 0-2.7 3.9 2.5 5.4 0 0 3.7.9 4.8-2.9 0 0 .6-1.5-.9-3.3 0 0 1.8-.4 3-2.3 0 0-3.8 4.8.3 6.6 0 0 5.2 1.3 5.5-4.2 0 0-.4-2.5 1.6-3.4 0 0 4.2-.9 6.1-5.6 0 0-6.1-3.2-5.5-6zm-12.32-48.1s-4.7-2.18-6.94 0c0 0-3.1-1.94-6.38 0 0 0-3.1 2.02-5.26 4.26 0 0-1.5 1.3-.96 5.4 0 0 .8 2.9.32 4.4 0 0-1.04-.2-3.1 2.3 0 0-2.64 3.1-4.95.4 0 0 .7 3.8 5.06 3.2 0 0-2.1 1.7-.2 5.9 0 0 1.4 3-.8 6.8 0 0 3.8-1.5 3.7-6 0 0-.3-3 .8-5.1 0 0-1.1 2 1.5 6.1 0 0 2 3 .4 6.1 0 0 3.8-1.4 3.4-5.9-.3-4.5-2.6-2.6-1.1-6.8 0 0 .4 2.2 1.5 3.3 1.2 1.1 2.6 2.9 2 5.9 0 0 2.3-2.7 1.7-5.6-.5-2.8-1-3.7-1-3.7l7.1-4 3.5-6.3.2-10.2z" fill="#d40000" stroke="#000" stroke-width=".53" stroke-linejoin="round"/>
  <path stroke-miterlimit="10" d="M434.8 256.37s-2.9-.2-3.4-2.45m-5.1-1.5s1.02-.03 1.93.9c0 0 .7 1.04 1.7.92" fill="none" stroke="#000" stroke-width=".53"/>
  <path d="M439.1 247.8s-1.5 0-2.35-.72c0 0-.88-.6-1.4.36 0 0-.8 1.37.68 1.97 0 0 1.84 1-1.07 2.8 0 0 3.47-1.2 2.07-2.9 0 0-1.52-1.1-.96-1.5 0 0 .16-.3.76.1s1.8.3 2.27 0z"/>
  <path fill="#784421" stroke="#000" stroke-width=".4" d="M484.88 256.1l1.78-.6L475 215.2l-.42.12z"/>
  <path d="M446.06 300.66s-2.75-1.55-5.03.26c0 0 .24-1 1.97-1.45 0 0 .94-2.65 3.58-2.4 0 0-1.08 1.28-2.52 2.37 0 0 1.52.15 2 1.22z"/>
  <path stroke-miterlimit="2.61" d="M436.37 307.05s-4.37-2.74-2-7.35c0 0 .68-1.33 2-1.06 0 0 2.72.84.6 4.62 0 0-1.08 2.44-.6 3.8zm8.85 4.35s-6.22-2.84-4.3-7.66c0 0 .58-1.63 1.96-1.5 0 0 2.4.1 1.92 3.3 0 0-.72 3.14.42 5.86z" fill="#64b4d1" stroke="#00247d" stroke-width=".4"/>
  <path d="M443.9 293.4s-1.87 1.37-2.63 2.3c0 0-.76-.95-1.75-1.52 0 0 1.15-.15 1.76.36 0 0 .95-.92 2.63-1.15z"/>
  <path stroke-miterlimit="2.61" d="M449.44 310.2s4.87-1.24 3.97-6.28c0 0-.4-2.2-2.5-1.9 0 0-2.5.63-.8 3.83 0 0 1 2.3-.5 4.34z" fill="#64b4d1" stroke="#00247d" stroke-width=".4"/>
  <path stroke-miterlimit="2.61" d="M471.46 203.65s3.14.96 4.84 1.65c0 0 4.55 2.05 10.32 0 0 0 3.9-1.54 4.43-1.66l-3 4.56-.14 2.35 1.9 2.74s-1.1.4-4.4-1.6c0 0-3.7-2.9-8.1 0 0 0-2.4 1.6-4.4 1.6l2.9-3.2-1.1-2.9-3-3.6z" fill="#f5ce00" stroke="#000" stroke-width=".53"/>
  <path d="M451.32 304.17s.18-.24-.03-.34c0 0-.3-.1-.4.2 0 0-.5.8-.1 1.9 0 0 .4.78.2 1.58 0 0 0 .3.1.3 0 0 .2 0 .2-.2 0 0 .2-.8-.2-1.5 0 0-.5-1.2 0-1.8z" fill="#fff"/>
  <path d="M518.84 213.04s-3.5 1.8-4.97-.38c0 0-1.92-3.65 2.28-4.9 0 0-2.28-2.76.17-5.3 0 0 1.28-1.35 3.53-.35 0 0 .92-1.9 3.1-1.8 0 0 1.92 0 2.58 2.1 0 0 2.63-1.1 4.1.5 0 0 2.42 2.8-.96 4.9l-2.43.2-2.4-1.1-2.67.8s.7 2.7-2.33 5.5z" fill="#d40000" stroke="#000" stroke-width=".53" stroke-linejoin="round"/>
  <path stroke-miterlimit="2.61" d="M491.05 210.2s-.1.73-.8.8c0 0-.76.26-1.2-.68l-.06-.3c-.1-.45-.2-1.7 1.1-2.73 0 0 2.2-1.9 6.4.3 0 0 3.3 1.6 5.6 2.9 0 0 6 3.2 6.7 3.4 0 0 2.6 1.3 6.6 1.5 0 0 5.5.4 7.8-3.5 0 0 1.8-3 0-4.8 0 0-.7-.9-1.9-.7-.5 0-1.1.3-1.6.9 0 0-.9 1.2.1 2.2 0 0 1.3.8 1.7-.9 0 0 0-.1 0 0s.3 1.3-.4 2.4c0 0-3.4 5-12.5-.2l-12-6.7s-6.1-3.1-9.7 1.7c0 0-2.9 4 .8 6.6 0 0 2.8 1.6 4.5-1 0 0 1.4-2.6-.9-3.8 0 0-2-1-2.8 1-.8 2 1.5 2.5 1.8 1.1 0 0 0-.3.1 0z" fill="#f5ce00" stroke="#000" stroke-width=".53"/>
  <path stroke-miterlimit="2.61" d="M443.3 230.94v-7.54c0-.6.02-1.1.9-1.8.9-.74 1.87-1.88 3.24 1.38 0 0 2.7-2.84 3.6-3.26 0 0 1.55-1.33 2.62.6 0 0 1.44-2.17 2.58-2.7 0 0 2.7-1.76 2.8 3.5l2.1-1.95s1.62-1.32 3.4.5c0 0 3.06 2.94 3.48 3.8 0 0 .67.9.73 2.34 0 0 0 1.7.83 2.6 0 0 .95.9 1.88 1.1 0 0 2.18.1 2.96 2.1 0 0 .36-.3 1.43 9.5V259l-12.08 14.43-19.38-5.55-7.8-3.2-1.8-5.67 7.5-4.8 4-11-1.4-7.7-1.9-4.4z" fill="#e4cb5e" stroke="#000" stroke-width=".4"/>
  <path d="M496.7 240.45l.93-1.37 2.2-1.7s3.34 8.8 3.5 10.72v2.73s5.02 1.28 5.9 9l-4.15 7.64-6.5-3.62-1.87-1.37v-22.04z" fill="#784421" stroke="#000" stroke-width=".4"/>
  <path d="M435.16 300.8s.24-.32.07-.45c0 0-.1-.15-.4.2 0 0-1.3 1.48-.26 3.75 0 0 .12.33.33.22 0 0 .18-.1.02-.36 0 0-.94-1.87.24-3.36z" fill="#fff"/>
  <path stroke-miterlimit="10" d="M454.75 299.3s.2-.67-.28-1.4c0 0-.32-.52-.2-1.2" fill="none" stroke="#000" stroke-width=".53"/>
  <path stroke-miterlimit="10" d="M459.05 221.1s.02 1.9.56 3.28 2.4 3.78 2.5 5.08" fill="none" stroke="#000" stroke-width=".4"/>
  <path d="M504.63 286.55s3.05.18 4.6.96c1.55.8 2.75 1.7 4.54 2.8 0 0 .84 1.1 4.37.5 0 0 6.1-1.4 6.1 3.3 0 0 7.3.6 4.3 7 0 0-2.02 5-6.2 1.5 0 0 2.68 3.9-2.52 5.4 0 0-3.7.9-4.8-2.9 0 0-.6-1.5.85-3.3 0 0-1.8-.4-3.05-2.3 0 0 3.83 4.8-.36 6.6 0 0-5.26 1.3-5.56-4.2 0 0 .43-2.5-1.6-3.4 0 0-4.2-.9-6.12-5.6 0 0 6.03-3.2 5.45-6z" fill="#d40000" stroke="#000" stroke-width=".53" stroke-linejoin="round"/>
  <path stroke-miterlimit="10" fill="none" stroke="#000" stroke-width=".4" d="M456.64 229.46l4.98 40.18m-3.83-40.27l5.5 37.45m-4.6-37.62l6.4 37.14"/>
  <path fill="#784421" stroke="#000" stroke-width=".4" d="M469 263.14l1.8-.6-11.67-40.26-.43.1z"/>
  <path stroke-miterlimit="10" fill="none" stroke="#000" stroke-width=".4" d="M462.4 227.72l11.78 29.76m-12.56-29.28l11.36 31.08"/>
  <path d="M442.97 308.54s-1.37-1.3-1.18-3.66c0 0 0-.5-.2-.57 0 0-.3-.1-.3.5 0 0-.4 2.5 1.2 3.9 0 0 .1.2.3.1 0 0 .2 0 .1-.2z" fill="#fff"/>
  <path stroke-miterlimit="10" fill="none" stroke="#000" stroke-width=".4" d="M462.94 227.32l12.14 27.14M459.62 229l7.44 36.56"/>
  <path stroke-miterlimit="2.61" d="M520.53 256.1c-5.32-3.03-6.5-9.72-6.5-9.72-1.27-6.67 1.33-11.95 1.33-11.95 3.44-7.26 9.33-8.62 9.33-8.62s-5.8 4.1-7.4 9.5c0 0-1.3 4.6-.6 9.1.7 4.5.4 3.4 1.5 6.8l2.2 5z" fill="#f5ce00" stroke="#000" stroke-width=".53"/>
  <path d="M497.63 239.08l-22.35 7.05-1.22 9.96c-5.3 7.6-16.08 9-16.08 9l8.4 8.9 16.1 3.4 8.45-6.5 7.65-7.1c-.8-3.8-.36-9.4-.36-9.4 0-1 .36-3.2.36-3.2s-1.3-9.1-.95-12.3z" fill="#784421" stroke="#000" stroke-width=".24"/>
  <path stroke-miterlimit="10" d="M474.37 253.6s14.72-4.6 23.5-8.3m-30.57 16.68s18.36-3.32 31.28-10.68l4.75-3.2" fill="none" stroke="#000" stroke-width=".4"/>
  <path stroke-miterlimit="10" d="M503.33 250.83l-5.1 3.63s-20.54 9.47-36.18 9.72m36.17-3s-15.8 8.14-24.84 8.26" fill="none" stroke="#000" stroke-width=".4"/>
  <path d="M517.04 238.44s4.7-2.17 6.94 0c0 0 3.1-1.93 6.38 0 0 0 3.1 2.03 5.27 4.27 0 0 1.5 1.3.95 5.4 0 0-.8 2.9-.32 4.4 0 0 1.04-.2 3.1 2.3 0 0 2.64 3.1 4.96.4 0 0-.72 3.8-5.07 3.2 0 0 2.12 1.7.28 5.9 0 0-1.35 3 .8 6.8 0 0-3.8-1.5-3.63-6 0 0 .32-3-.8-5.1 0 0 1.12 2-1.47 6.1 0 0-2 3-.36 6.1 0 0-3.75-1.4-3.4-5.9.37-4.5 2.64-2.6 1.17-6.8 0 0-.36 2.2-1.48 3.3-1.1 1.1-2.55 2.9-1.95 5.9 0 0-2.2-2.7-1.7-5.6s1.1-3.7 1.1-3.7l-7-4-3.5-6.3-.1-10.2z" fill="#d40000" stroke="#000" stroke-width=".53" stroke-linejoin="round"/>
  <path stroke-miterlimit="10" d="M437.1 263.87s.66-3.12 3.65-1.9c0 0 1.02-5.1 6.46-5.28 5.5-.2 5.8 5.3 5.8 5.6 0 0 1.6-2.4 4.3-2.1 0 0 4.6-.3 2.9 7.1l.9.9s3.5-8.3 10.8-6.1c0 0 7.1 2.1 2.5 9 0 0 3.5 4.5 6.4 4.1 3-.5 5.6-1.4 8.5-6.6 3-5.2 9.8-6 11.5-5.7 1.8.3 3.1 1.4 3.4 2.6 0 0 3.6-12.1 16.6-10.2l5.2 2.7 2 .9-2.9 8.3-7.2 16.2-5.4 1.7-5.7-3.3-2 1-.1 4.8-7.5 5.4-5.2 2.1-5.7 3.9-1.3 3.5s-3.2-1.3-6.7 0l-1.2-2.9-3.3-3.2-13-6.1-2.3-7.6-2.4-1.1-2.7 3-3.9.4-5.8-3.9-6.1-17.8z" fill="#fff" stroke="#00247d" stroke-width=".53"/>
  <path stroke-miterlimit="2.61" d="M493.76 204.88s-4.97-.22-4.8 4.93" fill="none" stroke="#000" stroke-width=".53"/>
  <path stroke-miterlimit="2.61" d="M526.43 259.56c-8.65-2.66-11-11.95-11-11.95-1.77-6.9 1.07-13 1.07-13 3.95-9.2 10.63-9.2 10.63-9.2 3.35-.1 3.75 2.8 3.75 2.8.3 2.1-1.1 2.8-1.1 2.8-2.3 1.3-3.75-.4-3.75-.4-.96-1.2-.22-2.3-.22-2.3.6-.8 1.8-.4 1.8-.4.9.3.8 1.4.8 1.4h.1c.1 0 0 0 0 0s.2-1.3-1.1-1.5c0 0-2.6-.5-5.6 3.3 0 0-4 5.1-4 11.7 0 0-.5 12.5 12.5 15.7 0 0-1.4 2-3.9 9.3 0 0-2.8 9.4-5.5 14.5 0 0-3.5 7.3-11.5 4.3 0 0-4.7-2.1-4.7-5.5 0 0-.3-3.1 2.5-3.4 0 0 2.8-.2 2.8 2.2 0 0 .1 2.6-3 2 0 0-1-.2-.8-1.3 0 0 .2-.9 1.5-.5h.1v-.1s-.5-.2-1 0c0 0-.4.2-.5.9 0 0 0 .6.6.9 0 0 .8.3 1.4.2 0 0 .8 1.6 2.7 2.2 2.5.8 4.6 0 5.9-1 1.4-1.1 2.3-3 2.5-3.5.3-.4 2.6-5.7 4.4-11.3 0 0 1.5-4.8 2.8-7.3l.5-1z" fill="#f5ce00" stroke="#000" stroke-width=".53"/>
  <path stroke-miterlimit="2.61" d="M502.04 283.17s1.6-.22 1.6 1.22c0 0-.1 2.1-2.65 1.6 0 0-2.6-.6-1.7-3.4 0 0 .6-2 3-1.7 0 0 2.3.1 3.3 3.2 0 0 .7 2.6-.6 4.9-1.5 2.5-5.3 4.2-7.1 4.9 0 0-7.3 2.8-9.5 4.5 0 0-3.3 2.4-1.9 4.7 0 0 .5.8 1.4.8 0 0 1 0 1.1-1s-.1.6-.6.8c0 0-.7.3-1.5-.3 0 0-.8-.8-.2-1.9 0 0 .9-1.5 2.9-.6 0 0 1.8.9 1 2.7 0 0-.7 1.7-2.8 1.7 0 0-1.6-.1-2.7-1.1-1.6-1.7-1.7-5-.3-6.7 0 0 1.3-1.8 4-2.9 1.6-.6 4.5-1.9 7.5-3.1 2.1-.9 4.1-1.9 5.4-3.4 0 0 1.1-1.3 1.4-3.4 0 0 .3-1.6-.7-2 0 0-.5-.2-1.1-.2 0 0-.1.1 0 .1z" fill="#f5ce00" stroke="#000" stroke-width=".53"/>
  <path stroke-miterlimit="2.61" d="M502.17 283.16s1.8-.32 2.9 1.8c0 0 .66 1.37.77 2.16m.58-7.6s-1.8.32-.87 2.85c.87 2.4 2.48 3.17 2.96 3.5" fill="none" stroke="#000" stroke-width=".53"/>
  <path stroke-miterlimit="2.61" d="M471.46 210.2s.1.73.8.8c0 0 .75.25 1.2-.68l.05-.3c.1-.45.2-1.7-1.1-2.73 0 0-2.2-1.9-6.4.3 0 0-3.3 1.6-5.6 3 0 0-6 3.2-6.7 3.4 0 0-2.6 1.3-6.6 1.5 0 0-5.5.4-7.8-3.5 0 0-1.7-3 0-4.8 0 0 .7-.9 1.9-.7.5 0 1.1.3 1.6.9 0 0 .9 1.2-.1 2.1 0 0-1.3.8-1.7-.9 0 0 0-.1 0 0s-.3 1.3.4 2.4c0 0 3.3 5 12.5-.2l12-6.7s6.1-3.1 9.7 1.7c0 0 2.9 4-.8 6.6 0 0-2.8 1.6-4.5-1 0 0-1.4-2.6.9-3.8 0 0 2-1 2.8 1 .8 2-1.5 2.5-1.8 1.1 0 0 0-.3-.1 0zm-29.48 45.9c5.32-3.03 6.48-9.72 6.48-9.72 1.3-6.67-1.3-11.95-1.3-11.95-3.45-7.26-9.35-8.62-9.35-8.62s5.8 4.1 7.4 9.5c0 0 1.3 4.6.6 9.1-.7 4.5-.4 3.4-1.5 6.8l-2.2 5z" fill="#f5ce00" stroke="#000" stroke-width=".53"/>
  <path stroke-miterlimit="2.61" d="M468.75 204.88s4.96-.22 4.78 4.93" fill="none" stroke="#000" stroke-width=".53"/>
  <path stroke-miterlimit="2.61" d="M436.08 259.56c8.64-2.66 11-11.95 11-11.95 1.77-6.9-1.07-13-1.07-13-3.9-9.2-10.6-9.2-10.6-9.2-3.3-.1-3.7 2.8-3.7 2.8-.3 2.1 1.1 2.8 1.1 2.8 2.3 1.3 3.8-.4 3.8-.4 1-1.2.2-2.3.2-2.3-.6-.8-1.7-.4-1.7-.4-.9.3-.8 1.4-.8 1.4s-.2-1.3 1.1-1.5c0 0 2.6-.5 5.7 3.3 0 0 4 5.1 4 11.7 0 0 .5 12.5-12.4 15.7 0 0 1.4 2 3.9 9.3 0 0 2.8 9.4 5.5 14.5 0 0 3.6 7.3 11.6 4.3 0 0 4.8-2.1 4.7-5.5 0 0 .4-3.1-2.5-3.4 0 0-2.8-.2-2.7 2.2 0 0-.1 2.6 3 2 0 0 1.1-.2.9-1.3 0 0-.1-.9-1.4-.5v-.1s.5-.2 1 0c0 0 .5.2.5.9 0 0 .1.6-.6.9 0 0-.7.3-1.3.2 0 0-.8 1.6-2.6 2.2-2.5.8-4.6 0-5.9-1-1.4-1.1-2.3-3-2.5-3.5-.2-.4-2.6-5.7-4.3-11.3 0 0-1.5-4.8-2.7-7.3l-.5-1z" fill="#f5ce00" stroke="#000" stroke-width=".53"/>
  <path stroke-miterlimit="2.61" d="M460.47 283.17s-1.62-.22-1.62 1.22c0 0 .1 2.1 2.66 1.6 0 0 2.6-.6 1.7-3.4 0 0-.6-2-3-1.7 0 0-2.3.1-3.3 3.2 0 0-.8 2.6.6 4.9 1.5 2.5 5.3 4.2 7.1 4.9 0 0 7.3 2.8 9.5 4.5 0 0 3.3 2.4 1.9 4.7 0 0-.5.8-1.4.8 0 0-.9 0-1.1-1s.1.6.6.8c0 0 .7.3 1.5-.3 0 0 .8-.8.1-1.9 0 0-.8-1.5-2.8-.6 0 0-1.8.9-1 2.7 0 0 .7 1.7 2.8 1.7 0 0 1.6-.1 2.7-1.1 1.6-1.7 1.7-5 .3-6.7 0 0-1.3-1.8-4-2.9-1.5-.6-4.5-1.9-7.5-3.1-2.1-.9-4.1-1.9-5.4-3.4 0 0-1.1-1.3-1.4-3.4 0 0-.3-1.6.7-2 0 0 .5-.2 1.1-.2s0 .1 0 .1z" fill="#f5ce00" stroke="#000" stroke-width=".53"/>
  <path stroke-miterlimit="2.61" d="M460.33 283.16s-1.78-.32-2.9 1.8c0 0-.66 1.37-.76 2.16m-.58-7.6s1.7.32.8 2.85c-.9 2.38-2.5 3.16-3 3.5m22.9-76.35s4.3-2.7 8.7.3" fill="none" stroke="#000" stroke-width=".53"/>
  <path stroke-miterlimit="2.61" d="M452.35 235.94s.6-2.4-2.15-6.63c0 0-1.8-3.8-2.75-6.3m6.22-2.6s1.55 3.8 2.1 5.5c0 0 1.92 4.8 2.33 5.7" fill="none" stroke="#000" stroke-width=".4"/>
  <path stroke-miterlimit="10" d="M454.44 238.6s1.63 1.75 1.44 4.7m-6.82-6.57s1.8.86 1.68 5.63c0 0-.18 3.47 2.5 5.22m-4.42 1.23s5.6-.6 5.92 2.9c0 0 .12 3.3 2.04 3.7 0 0 2.86.3 3.43 3m-9.6-5.6s1 1.5 2 2.1m5.3-5.7s1.5 2.2 1.7 3.5M464 223s1.32 1.8 2.6 2.63m2.67 7.97s2.8 1.36 2.3 8.4c0 0-.35 4.12.8 6.4" fill="none" stroke="#000" stroke-width=".4"/>
  <path d="M456.1 228.8l.17.66s5 .2 7.7-3.2l-.3-.65s-4.35-.2-7.58 3.2z" fill="#784421" stroke="#000" stroke-width=".4"/>
  <path stroke-miterlimit="10" d="M474.12 255.64s17.3-5.16 23.97-8.16" fill="none" stroke="#000" stroke-width=".4"/>
  <path fill="#784421" stroke="#000" stroke-width=".24" d="M472.26 223.72l-.2-.56 8.56-3.26.2.57z"/>
  <path stroke-miterlimit="10" fill="none" stroke="#000" stroke-width=".4" d="M473 223.45l5.67 27.85m-4.7-28.23l6.5 27.73m-5.4-28.15l7.13 27.53m-4.33-28.6l9.7 20.67m-8.42-21.14l10.35 20.6m-9.4-20.9l11.2 20.4m-13.02 10.5l4.4-1.4m-7.72-1.3s12.87-3.8 22.6-7.7m-22.77 9.1s16.3-4.3 22.7-7.5m-17.8 20.8l.8 2.6 2.3-.7-.8-2.6m4.2-1.1l.8 2.6 2.3-.7-.8-2.6M475 246.4l-.2-3.53 21.4-6.5 1.12 3m-13.5.77l1.2 3.16m6.3-5.4l1.4 2.96m.4-3.5l1.23 2.8m.44-3.3l1.4 2.94m0-3.4l2.3-1.4 1 2.6m-2.2-1.95l1.2 2.7"/>
  <path stroke-miterlimit="10" d="M444.57 276.17s-4.18-4.24 0-8.4c0 0-4.54-2.2-3.82-5.8m11.3 17.56s-4.33.6-3.05-7.85c0 0-1.8 3.35-2.4 5.07-.48 1.3-.17 3.36 1.67 4.5.73.44 4.62 1.45 5.87-1.13m-6.93-13.5s-1.7 1.62-.5 4.6m2.4-4.22s.2 2.9 1.7 4.53m-.4-5.67s0 3.4 2.5 5.52m-1.2-6.7s0 3.83 2.9 6.2m11.3-.6s1.5-3.12 4.5-2.97c0 0-1.4.7-1.4 2.2 0 0-.1 2.4 2.5 2.7 0 0 2.1.3 3.2-.8" fill="none" stroke="#00247d" stroke-width=".53"/>
  <path stroke-miterlimit="10" d="M472.75 284.62s-7.45-3.5-6.67-8.54c0 0 .3-3.07 3.3-4.52m-1.57 3.2s-.6 2.17.9 3.68m.9-5.16s-.9 2.38.6 4.16m1.2-5.32s-1.1 1.97.2 3.75m-7 9.26s4.1 3.53 7.3 3.56m-8.5-2.5s3.8 3 6.2 3.5M462 287s4.7 4.1 7.6 4.4m11.5 3.8s-4.63 2.5-1.05 5.1m-1.9-7.88s5.24-2.74 7.5-3.77m-5.6 5.2s7.56-4.64 9.8-5.63m-5.92 5.9s6.48-4.3 9.95-6.14m-5.62 6.04s4.44-3.5 8.75-6.03m1.5-4.4s-2.2-3.2-9.3 0c0 0 2.7-2.4 7.9-4.3m7.2-13.8s.6 2.6 0 4.1m-11.9 8.7s1.5-2.2 5.3-3.3c0 0 1 2.5 4 2 0 0 4.5-.9 3.1-5.8 0 0-.9-3.7-6-4m15.2-6.1s5.2.9 5.1 5.1c0 0 .5 6.3-6.2 7.5m5.5-10.1s1.5-3.1 4.6-4.4m-3.8-1.8s1.4 2.2 2.4 2.6m-3.1-.8s1.4 1.6 1.8 1.9m-2.2-.4s.7 1 1.4 1.3m-27.9-25.8s1-1.7 3.5-1m10.2 13.2s1.6-6.7 7.1-4.2m-2.2-.6s.6-3.1-.8-4.6m-3 4.4s.7 1.2.1 2.3" fill="none" stroke="#00247d" stroke-width=".53"/>
  <path stroke-miterlimit="2.61" d="M517.25 311.4s6.22-2.84 4.3-7.66c0 0-.6-1.63-1.97-1.5 0 0-2.4.1-1.92 3.3 0 0 .72 3.14-.4 5.85z" fill="#64b4d1" stroke="#00247d" stroke-width=".4"/>
  <path d="M519.5 308.54s1.37-1.3 1.17-3.66c0 0-.08-.5.17-.57 0 0 .27-.1.3.5 0 0 .4 2.5-1.26 3.9 0 0-.12.2-.3.1 0 0-.2 0-.08-.2z" fill="#fff"/>
  <path stroke-miterlimit="2.61" d="M526.1 307.05s4.36-2.74 2-7.35c0 0-.7-1.33-2-1.06 0 0-2.73.84-.6 4.62 0 0 1.07 2.44.6 3.8z" fill="#64b4d1" stroke="#00247d" stroke-width=".4"/>
  <path d="M527.2 300.8s-.25-.32-.1-.46c0 0 .12-.15.4.2 0 0 1.32 1.5.27 3.76 0 0-.12.33-.33.22 0 0-.18-.1 0-.36 0 0 .93-1.87-.25-3.37z" fill="#fff"/>
  <path stroke-miterlimit="2.61" d="M513.03 310.2s-4.88-1.24-3.98-6.28c0 0 .48-2.2 2.54-1.9 0 0 2.4.63.8 3.83 0 0-1 2.3.5 4.34z" fill="#64b4d1" stroke="#00247d" stroke-width=".4"/>
  <path d="M511.14 304.17s-.18-.24.03-.34c0 0 .2-.1.36.2 0 0 .5.8.08 1.9 0 0-.4.78-.2 1.58 0 0 .1.3-.1.3 0 0-.1 0-.2-.2 0 0-.2-.8.2-1.5 0 0 .5-1.2-.1-1.8z" fill="#fff"/>
  <path d="M516.53 300.66s2.75-1.55 5.02.26c0 0-.23-1-1.97-1.45 0 0-.94-2.65-3.57-2.4 0 0 1.1 1.28 2.6 2.37 0 0-1.5.15-2 1.22zm2.03-7.27s1.87 1.3 2.63 2.3c0 0 .7-1 1.7-1.6 0 0-1.2-.2-1.8.3 0 0-1-.9-2.7-1.2z"/>
  <path stroke-miterlimit="10" d="M507.7 299.3s-.2-.67.3-1.4c0 0 .3-.52.2-1.2m19.57-40.33s2.9-.2 3.4-2.45m5.1-1.5s-1.02-.03-1.94.9c0 0-.7 1.04-1.7.92" fill="none" stroke="#000" stroke-width=".53"/>
  <path d="M523.47 247.8s1.5 0 2.35-.72c0 0 .87-.6 1.4.36 0 0 .8 1.37-.68 1.97 0 0-1.84 1 1.07 2.8 0 0-3.4-1.2-2-2.9 0 0 1.5-1.1 1-1.5 0 0-.1-.3-.7.1s-1.8.3-2.3 0z"/>
  <path stroke-miterlimit="2.61" d="M525.53 211.2s.68-.94.4-3.74 2.15-3.1 3.08-2.3c0 0 1 .83.1 2.6-.5 1.02-1.3 2.35-3.5 3.43z" fill="#64b4d1" stroke="#00247d" stroke-width=".4"/>
  <path d="M526.44 209.1s.9-.98.47-3.1c0 0 0-.2.2-.22 0 0 .2-.06.3.15 0 0 .5 2.27-.5 3.5 0 0-.2.18-.3 0 0 0-.1-.13 0-.33z" fill="#fff"/>
  <path stroke-miterlimit="2.61" d="M524.75 210.17s-.07-1.12-2.02-3.04c-1.95-1.9-.34-3.68.85-3.66 0 0 1.23.02 1.68 1.9.25 1.1.47 2.6-.5 4.8z" fill="#64b4d1" stroke="#00247d" stroke-width=".4"/>
  <path d="M524.45 207.72s.03-1.38-1.73-2.82c0 0-.14-.16-.06-.25 0 0 .13-.2.3-.05 0 0 1.9 1.52 1.94 3.18 0 0-.02.27-.24.2 0 0-.2 0-.2-.25z" fill="#fff"/>
  <path stroke-miterlimit="2.61" d="M522.1 209.32s-.5-.9-2.9-1.77c-2.4-.85-1.76-2.95-.75-3.4 0 0 1.05-.46 2.18.95.65.8 1.43 2 1.48 4.23z" fill="#64b4d1" stroke="#00247d" stroke-width=".4"/>
  <path d="M521.05 207.64s-.54-1.27-2.74-1.82c0 0-.2-.1-.1-.2 0 0 .1-.23.3-.17 0 0 2.4.56 3.1 2.05 0 0 .1.25-.1.28 0 0-.2.07-.3-.14z" fill="#fff"/>
  <path stroke-miterlimit="2.61" d="M523.6 210.24s-1.1.32-3.68-.92-3.7.92-3.25 2.07c0 0 .47 1.2 2.46.9 1.15-.1 2.7-.4 4.48-2.2z" fill="#64b4d1" stroke="#00247d" stroke-width=".4"/>
  <path d="M517.63 211.06s1.16.72 3.28-.1c0 0 .3-.04.3.08 0 0 .1.2-.1.28 0 0-2.2.9-3.7.1 0 0-.2-.14 0-.3 0 0 .1-.16.4-.06z" fill="#fff"/>
  <path stroke-miterlimit="2.61" d="M519.85 202.1s1.28.63.98 2.14" fill="none" stroke="#000" stroke-width=".53"/>
  <path stroke-miterlimit="10" d="M525.53 202.32s.5 1.6-.05 2.45" fill="none" stroke="#000" stroke-width=".53"/>
  <path stroke-miterlimit="2.61" d="M436.82 211.2s-.7-.94-.4-3.74c.27-2.8-2.15-3.1-3.1-2.3 0 0-.95.83-.06 2.6.5 1.02 1.33 2.35 3.56 3.43z" fill="#64b4d1" stroke="#00247d" stroke-width=".4"/>
  <path d="M435.9 209.1s-.9-.98-.47-3.1c0 0 0-.2-.12-.22 0 0-.2-.06-.2.15 0 0-.5 2.27.6 3.5 0 0 .2.18.3 0 0 0 .2-.13 0-.33z" fill="#fff"/>
  <path stroke-miterlimit="2.61" d="M437.6 210.17s.06-1.12 2-3.04c1.96-1.9.36-3.68-.84-3.66 0 0-1.23.02-1.68 1.9-.25 1.1-.47 2.6.5 4.8z" fill="#64b4d1" stroke="#00247d" stroke-width=".4"/>
  <path d="M437.9 207.72s-.04-1.38 1.72-2.82c0 0 .15-.16.06-.25 0 0-.13-.2-.3-.05 0 0-1.9 1.52-1.94 3.18 0 0 .02.27.24.2 0 0 .2 0 .22-.25z" fill="#fff"/>
  <path stroke-miterlimit="2.61" d="M440.24 209.32s.5-.9 2.9-1.77c2.4-.85 1.76-2.95.75-3.4 0 0-1.1-.46-2.2.95-.7.8-1.5 2-1.5 4.23z" fill="#64b4d1" stroke="#00247d" stroke-width=".4"/>
  <path d="M441.3 207.64s.54-1.27 2.74-1.82c0 0 .2-.1.16-.2 0 0-.04-.23-.25-.17 0 0-2.36.56-3.1 2.05 0 0-.1.25.13.28 0 0 .2.07.3-.14z" fill="#fff"/>
  <path stroke-miterlimit="2.61" d="M438.73 210.24s1.12.32 3.7-.92c2.57-1.24 3.7.92 3.25 2.07 0 0-.47 1.2-2.47.9-1.1-.1-2.6-.4-4.4-2.2z" fill="#64b4d1" stroke="#00247d" stroke-width=".4"/>
  <path d="M444.72 211.06s-1.17.72-3.3-.1c0 0-.2-.04-.24.08 0 0-.1.2.1.28 0 0 2.27.9 3.7.1 0 0 .23-.14.07-.3 0 0-.1-.16-.33-.06z" fill="#fff"/>
  <path stroke-miterlimit="2.61" d="M442.5 202.1s-1.3.63-1 2.14" fill="none" stroke="#000" stroke-width=".53"/>
  <path stroke-miterlimit="10" d="M436.8 202.32s-.5 1.6.07 2.45" fill="none" stroke="#000" stroke-width=".53"/>
  <path d="M492.63 187.7s.82 2.32.47 4.42c-.32 1.9.1 2.38.8 2.75.58.32 1.95-.24 2.1-1.72 0 0 1.63 3.15-1.5 5.28 0 0-2.27 1.38-4.18-.47-.68-.65-.98-2.46-.65-4.13 0 0 .5-2.27-.33-4.6 0 0 1.3 1.37.96 4.1 0 0-.66 4.9 2.98 4.67 0 0 2.5-.03 2.58-3.07 0 0-.94 1.08-2.1.72-.83-.25-1.6-1.05-1.46-2.3.14-1.33.5-3.64.33-5.66zm-4.1 8.05s-.2 3.88-3.76 4.83c0 0 .5-.7-.3-2.64 0 0-.78-1.12-.72-2.87 0 0-1.13.88.16 3.22.8 1.4.1 3-.1 3.1-.2 0 5.9-.8 4.8-5.7zm-4.62-3.86s-.8-1-.9-3.2c0-2.3-.5-2.8-.7-3.1 0 0 .5 1.9.3 3.1-.1 1.2.1 1.8.3 2.4 0 0-1.9.3-3.1-2.5-1.1-2.7-2.3-2.5-2.9-2.5 0 0 .7.1 2.1 2.5 1.4 2.4 1.8 2.9 5.2 3.1zm-9-5.9s1.1 2.7 1.2 4.1c0 0-2.6-.9-3.3-3.1 0 0-2.7.9-1.7 4.1 0 0-2.4-.9-3.4-2.8 0 0 1.4 1 2.6 1.4 0 0-.1-2.6 3.1-3.6 0 0 .5 2.3 2.1 2.8 0 0-.1-1.5-.4-3.1zm4.3-4.6s.9 1.3 2.8 1.3c.9 0 1.8-.2 2.8-1.4 0 0-.1 2.2-2.7 2.3 0 0-2.7.1-2.7-2.3zM467.9 197s1.3 1.25 1.6 1.65c0 0 .95.94 1.8-.27 0 0 1.02-1.94 2.3-1.88 0 0-.9.63-1.93 2.46 0 0-.28.67-1.04.75-.3.1-.8.2-1.4-.5 0 0-.6-.7-1.3-2.1zm14-24.63c-2.75 0-.45 2.1-.45 2.1.06 3.36-2.63 4.4-4.46 3.42-1.9-1-.4-3.5-.4-3.5s-2.1 1.3-.8 3.3c1.3 1.9 4.7 1 6-.8 1.2 1.8 4.7 2.7 6 .7 1.3-2-.8-3.4-.8-3.4s1.4 2.4-.4 3.4c-1.9 1-4.5-.1-4.5-3.4 0 0 2.3-2.1-.5-2.1zm1.63-3.62s1 1.63.8 4.1c0 0 .9-2.47-.72-4.1zm-8.3 3.83s-.2-1.78-1.94-1.93c0 0 1.4 1.06 1.9 1.93zm13.47 0s.2-1.78 1.95-1.93c0 0-1.46 1.06-1.93 1.93zm-16.2 2.72s1.37.42 2.2-.6c0 0-1.6.42-2.2.6zm-4.5-10.92s1.6-.18 3.2 2.2c0 0-1.6.84-1.98 1.36 0 0 0-.8.77-1.48 0 0-.3-1.2-2-2.08zm26.8 0s-1.6-.18-3.2 2.2c0 0 1.57.84 1.96 1.36 0 0 0-.8-.77-1.48 0 0 .3-1.2 2-2.08zm-12.36 1.78s1.43.4 3.23-.6c0 0 2.22-1.18 3.62 0 0 0-1.3-.55-3.6.6 0 0-2.4 1.3-3.3 0z"/>
  <path d="M483.87 167.6s1.23-2.14 4.96-1.72c0 0-1 3-4.96 1.73z" fill="#fff"/>
  <ellipse cx="486.45" cy="166.94" rx=".74" ry=".94" fill="#784421"/>
  <ellipse cx="486.45" cy="166.94" rx=".44" ry=".57"/>
  <path d="M475.86 163.02s2.36.15 3.8 1.06c0 0 1.52.9 3.25-.4 0 0 1.9-1.08 3.1-2.6 0 0-2.8 2-3.9 2.3 0 0-1-.75-1.4-1.84 0 0 .2-.8 1.7-2.32 0 0-2.1.64-2.5 2.4 0 0 .4 1.1 1.2 1.95 0 0-.4.18-1.4-.46 0 0-2.2-.7-3.8 0zm6 14.2c-2.05 1.76 0 1.57 0 1.57s2.04.1 0-1.6zm-1.2-11.06s-1.42.4-3.22-.6c0 0-2.2-1.18-3.62 0 0 0 1.23-.55 3.6.6 0 0 2.36 1.3 3.25 0z"/>
  <path d="M479.18 167.6s-1.23-2.14-4.96-1.72c0 0 1 3 4.96 1.73z" fill="#fff"/>
  <ellipse cx="476.6" cy="166.94" rx=".74" ry=".94" fill="#784421"/>
  <ellipse cx="476.6" cy="166.94" rx=".44" ry=".57"/>
  <path d="M554.06 148.26v135.5c0 36.2-72.36 47.97-72.36 47.97s-72.36-11.76-72.36-47.96v-135.5h144.72z" fill="none" stroke="#000" stroke-width="1.28"/>
</svg>
