<svg xmlns="http://www.w3.org/2000/svg" height="480" width="640" viewBox="0 0 640 480">
  <path fill="#007934" d="M0 0h640v480H0z"/>
  <path fill="#ffe000" d="M0 0h640v320H0z"/>
  <path fill="#d52b1e" d="M0 0h640v160H0z"/>
  <path d="M368.6 210.7l-98 98a91.8 91.8 0 0 0-1.3-1l98-98 1.3 1z" fill="#a05a2c" stroke="#000" stroke-width=".1"/>
  <path d="M374.7 204.5c-.4.7-1.4 2.5-1 3.8l-2-1.5c.5 1 .4 1.4 0 1.8-.4.4-1.5.3-2.2.2.7.4 1.5.8 2.4 1h1c-1 .3-2 .8-3 1-1 0-2 .2-2 0-1 .5-2-.4-2-1-1-.3-1-.8-1-1.4v-3 1.7c0 1 1 1 1 2-1 0-1-1 0-2h2l-2-1c1 0 3-1 4-1l5-4-4 5z" fill="#e7e7e7" stroke="#000" stroke-width=".1"/>
  <path d="M387 222.8l-125.7 71-1-1.3 125.8-71c0-.3 2 1.7 1 1.3z" fill="#a05a2c" stroke="#000" stroke-width=".1"/>
  <path d="M395 218.3c-.7.6-2.3 2-2.3 3.4l-1.4-2c.2 1 0 1.5-.7 1.7-.4.4-1.4 0-2-.3.5 1 1 2 2 2l1.8 1c-.7 0-2.4 1-3.4 0h-2c-.7 1-1.6-1-1-1l.2-1c.2 0 .7-1 1.6-2a7.8 7.8 0 0 0 0 2c0 1 .3 1 .5 2 0 0 0-1 .7-2 .7 0 1.4 0 2 1l-1.4-1h4.4l6-2-5 3z" fill="#e7e7e7" stroke="#000" stroke-width=".1"/>
  <path d="M376.3 217.5l-113 85.2-1-1c.4-.5 112.2-84.8 113-85.3l1 1z" fill="#a05a2c" stroke="#000" stroke-width=".1"/>
  <path d="M383.4 212c-.5.7-1.8 2.3-1.6 3.7L380 214c.4 1 .2 1.5-.3 1.7-.4.4-1.5.2-2.2 0 .7.5 1.4 1 2.3 1.2h2-3.5c-.5 0-1.6 0-2-1-.6 0-1.8-1-1-1-.3-1-.2-1-.2-2s1-2 2-3a7.8 7.8 0 0 0 0 1l1 1c0-1 0-2 1-2 1-1 2-1 2 0l-2-2c1 0 4-1 5-1s4-2 6-3c-1 1-4 3-4 4z" fill="#e7e7e7" stroke="#000" stroke-width=".1"/>
  <path d="M271.4 210.7l98 98c.4-.4 1-1 1.3-1l-98-98-1.3 1z" fill="#a05a2c" stroke="#000" stroke-width=".1"/>
  <path d="M265.3 204.5c.4.7 1.4 2.5 1 3.8l2-1.5c-.5 1-.4 1.4 0 1.8.4.4 1.5.3 2.2.2-.7.4-1.5.8-2.4 1h-1c1 .3 2 .8 4 1 1 0 2 .2 2 0 1 .5 2-.4 1-1 1-.3 1-.8 1-1.4v-3a8 8 0 0 1 0 1.7c0 1-1 1-1 2 1 0 1-1 0-2h-2l2-1c-1 0-3-1-4-1l-5-4 4 5z" fill="#e7e7e7" stroke="#000" stroke-width=".1"/>
  <path d="M253 222.8l125.7 71 1-1.3-125.8-71c0-.3-2 1.7-1 1.3z" fill="#a05a2c" stroke="#000" stroke-width=".1"/>
  <path d="M245 218.3c.7.6 2.3 2 2.3 3.4l1.4-2c-.2 1 0 1.5.7 1.7.4.4 1.4 0 2-.3-.5 1-1 2-2 2l-1.8 1c.7 0 2.4 1 3.4 0h2c.7 1 1.6-1 1-1l-.2-1c-.2 0-.7-1-1.6-2v2c0 1-.3 1-.5 2 0 0 0-1-.7-2-.7 0-1.4 0-2 1l1.4-1H246l-6-2 5 3z" fill="#e7e7e7" stroke="#000" stroke-width=".1"/>
  <path d="M263.7 217.5l113 85.2 1-1c-.4-.5-112.2-84.8-113-85.3l-1 1z" fill="#a05a2c" stroke="#000" stroke-width=".1"/>
  <path d="M256.6 212c.5.7 1.8 2.3 1.6 3.7l1.7-1.7c-1 1-1 1.5 0 1.7 0 .4 1 .2 2 0-1 .5-2 1-3 1.2h-2 3s1 0 2-1c0 0 2-1 1-1v-2l-2-3a7.8 7.8 0 0 1 0 1l-1 1v-2c-1-1-1-1-2 0l2-2c-1 0-4-1-5-1s-4-2-6-3l4 4z" fill="#e7e7e7" stroke="#000" stroke-width=".1"/>
  <path d="M300 283.5c4-2.7 15.2-4 16.8-3.7-8 6-16 6.3-16.7 3.7z" fill="#00e519" stroke="#000" stroke-width=".1"/>
  <path d="M300.2 283.5c.7 2.6 8.7 2.4 16.6-3.6-8.5 2-15.7 4-16.6 3z" fill="#ffe533" stroke="#000" stroke-width=".1"/>
  <path d="M300.2 283.5c.7 2.6 8.7 2.4 16.6-3.6-8.5 2-15.7 4-16.6 3z" fill="none" stroke="#000" stroke-width=".1" stroke-linecap="round"/>
  <path d="M300.2 283.4c4-2.8 15.6-4 16.6-3.6-8 6-16 6.3-16.6 3.6z" fill="none" stroke="#000" stroke-width=".1"/>
  <path d="M347.6 220.2L322 272.5c-1.2 1-2.2-.4-2.6-.2-1.5 1.7-3.6 2-4 2.5-1.8 2.4-.8 4.3-.7 4.5 1.3 1.8-1.6 3.5-1.5 4-.6 1-2.7 1-3 2-.2 0-4.5 8.4-5 9.3-.5.5-3.6 6-3.6 6-2 0-10.2-5-10.4-5 4.6-7.3 15.6-18.5 15.3-19.2 3-5.2 8-11 10-10.8 3-1.6 4.6-5.7 4-6.6 2.3 0 3.6-1.4 3.7-1.5L343 220c1.6-.6 1.4 0 2 1 0 0 1-1.3.8-1.4 1-.4 1.7.2 1.8.6z" fill="#a05a2c" stroke="#000" stroke-width=".1"/>
  <path d="M348.5 208.8c-.4 1 .3 1 .6 1l2 .4c1 0 2 .7 2 1l-30 61.3c-1 1-2-.3-2 0l21-42 10-18.7-3-1.2c0-.2-1-.8 0-1.6l13-21.6-10 21v.3" fill="#cce5e5" stroke="#000" stroke-width=".1"/>
  <path d="M348.5 208.8c-.4 1 .3 1 .6 1l2 .4c1 0 2 .7 2 1l-30 61.3c-1 1-2-.3-2 0l21-42 10-18.7-3-1.2c0-.2-1-.8 0-1.6l13-21.6-10 21v.3" fill="#e7e7e7" stroke="#000" stroke-width=".1"/>
  <path d="M308.8 272.4c-3 0-4.6 2-2.7 4.7m2-2c-1 1-1 0-1 0m15-13c-1 6-4 10-5 11-2 2-4 7-3 8l-8 14" fill="none" stroke="#000" stroke-width=".1"/>
  <path d="M322 272.7c-1.4-.5-5.7-4.5-10-3.8-3.3 3-5.3 7-6 8 4 3 6.8 5 7.7 5 .7-1 1-2 1-2 1-1-.2-2-.2-2 .2-3 2-4 3.8-4 2.2-1 1.6-1 2-1 1-1 1.7-2 1.7-2z" fill="#cce5e5" stroke="#000" stroke-width=".1"/>
  <path d="M322 272.7c-1.4-.5-5.7-4.5-10-3.8-3.3 3-5.3 7-6 8 4 3 6.8 5 7.7 5 .7-1 1-2 1-2 1-1-.2-2-.2-2 .2-3 2-4 3.8-4 2.2-1 1.6-1 2-1 1-1 1.7-2 1.7-2z" fill="none" stroke="#000" stroke-width=".1"/>
  <path d="M317.6 272.8c-2 0-4 1-4.7 2.6l4-2.6" fill="#cce5e5" stroke="#000" stroke-width=".1"/>
  <path d="M317.6 272.8c-2 0-4 1-4.7 2.6m-4 .7c0 1 0 1 1 1v-1h-2c-1 0-1 1-1 1zm2-3c0 1 0 1 1 1v-1h-1c-1 0-1 1-1 1z" fill="none" stroke="#000" stroke-width=".1"/>
  <path d="M345.3 226c.8-.2 1.2-1 .8-2l-4-1.6-1 .7v2l5 2" fill="#cce5e5" stroke="#000" stroke-width=".1"/>
  <path d="M345.3 226c.8-.2 1.2-1 .8-2l-4-1.6-1 .7v2l5 2" fill="none" stroke="#000" stroke-width=".1"/>
  <path d="M294.5 286c4-2.7 15-4.2 16.6-3.8-7 6-15 6.5-16 4z" fill="#00e519" stroke="#000" stroke-width=".1"/>
  <path d="M294.6 286c.7 2.7 8.7 2.3 16.5-3.8-8 2.7-15 4.3-16 4z" fill="#ffe533" stroke="#000" stroke-width=".1"/>
  <path d="M294.6 286c.7 2.7 8.7 2.3 16.5-3.8-8 2.7-15 4.3-16 4z" fill="none" stroke="#000" stroke-width=".1" stroke-linecap="round"/>
  <path d="M294.5 286c4.2-3 15.6-4 16.7-4-8 6.3-16 6.7-16.7 4z" fill="none" stroke="#000" stroke-width=".1"/>
  <path d="M340.7 222l-24.4 53c-1.3 1-2.4-.3-2.7-.2-1.5 1.7-3.6 2-4 2.5-1.8 2.6-.7 4.5-.6 4.7 1.3 1.7-1.5 3.5-1.4 4-.6 1-2.7 1-3 2-.2 0-4.3 8.5-4.7 9.4-1 .6-4 6.3-4 6.3-2 0-11-5-11-5 4-7.3 15-18.7 15-19.4 3-5.4 7-11 10-11 3-1.7 4-5.8 3-6.7 2 0 3-1.5 3-1.6l18-37.8c1-.7 1 0 2 1 0 0 1-1.3 1-1.5 0-.4 1 .2 1 .6z" fill="#a05a2c" stroke="#000" stroke-width=".1"/>
  <path d="M340.7 222l-24.4 53c-1.3 1-2.4-.3-2.7-.2-1.5 1.7-3.6 2-4 2.5-1.8 2.6-.7 4.5-.6 4.7 1.3 1.7-1.5 3.5-1.4 4-.6 1-2.7 1-3 2-.2 0-4.3 8.5-4.7 9.4-1 .6-4 6.3-4 6.3-2 0-11-5-11-5 4-7.3 15-18.7 15-19.4 3-5.4 7-11 10-11 3-1.7 4-5.8 3-6.7 2 0 3-1.5 3-1.6l18-37.8c1-.7 1 0 2 1 0 0 1-1.3 1-1.5 0-.4 1 .2 1 .6z" fill="none" stroke="#000" stroke-width=".1"/>
  <path d="M341.4 210.6c-.5 1 .3 1 .6 1.2l1 .3c1.3 0 2 1 2 1l-28.8 62c-1.3 1-2.5 0-3 0l19.8-42 9.7-19-2.8-1c-1 0-2-1-1-1l12-22-10 22v1" fill="#cce5e5" stroke="#000" stroke-width=".1"/>
  <path d="M341.4 210.6c-.5 1 .3 1 .6 1.2l1 .3c1.3 0 2 1 2 1l-28.8 62c-1.3 1-2.5 0-3 0l19.8-42 9.7-19-2.8-1c-1 0-2-1-1-1l12-22-10 22v1" fill="#e7e7e7" stroke="#000" stroke-width=".1"/>
  <path d="M303 275c-3-.2-4.6 2-2.6 4.6m1.3-2.4c-1 .6-1.7-.3-1.7-.3m15-14c-1.5 5-4.2 9-4.8 10-2 2-3.8 7-3.4 8l-7.8 14" fill="none" stroke="#000" stroke-width=".1"/>
  <path d="M316 275c-1.2-.5-5.7-4.5-10-3.7-3 4-5 7.8-5.6 8.3 4 3.2 6.7 4.8 7.7 5.3 1-1 1-2 1-2 1-1 0-2 0-2 0-3 2-4 4-5 2 0 2-1 2-1l2-2z" fill="#cce5e5" stroke="#000" stroke-width=".1"/>
  <path d="M316 275c-1.2-.5-5.7-4.5-10-3.7-3 4-5 7.8-5.6 8.3 4 3.2 6.7 4.8 7.7 5.3 1-1 1-2 1-2 1-1 0-2 0-2 0-3 2-4 4-5 2 0 2-1 2-1l2-2z" fill="none" stroke="#000" stroke-width=".1"/>
  <path d="M311.8 275c-2 0-4 1-4.7 2.8l5-2.7" fill="#cce5e5" stroke="#000" stroke-width=".1"/>
  <path d="M311.8 275c-2 0-4 1-4.7 2.8m-3 .8c0 .4 1 .6 1 .4 1 0 1-.6 1-1 0-.5 0-.6-1-.5v1zm3-3.5c0 1 1 1 2 1s1 0 1-1h-1s-1 1 0 1z" fill="none" stroke="#000" stroke-width=".1"/>
  <path d="M338.5 228c.8-.2 1.2-1 .8-2l-4.8-1.6s-.5 0-1 .7c-.4 1 .2 2 .2 2l4.8 2" fill="#cce5e5" stroke="#000" stroke-width=".1"/>
  <path d="M338.5 228c.8-.2 1.2-1 .8-2l-4.8-1.6s-.5 0-1 .7c-.4 1 .2 2 .2 2l4.8 2" fill="none" stroke="#000" stroke-width=".1"/>
  <path d="M340.6 283.3c-4-2.7-15.2-4-16.8-3.7 8 6 16 6.4 16.8 3.7z" fill="#00e519" stroke="#000" stroke-width=".1"/>
  <path d="M340.6 283.3c-.7 2.7-8.8 2.4-16.8-3.6 8.6 2.5 15.8 4 16.8 3.6z" fill="#ffe533" stroke="#000" stroke-width=".1"/>
  <path d="M340.6 283.3c-.7 2.7-8.8 2.4-16.8-3.6 8.6 2.5 15.8 4 16.8 3.6z" fill="none" stroke="#000" stroke-width=".1" stroke-linecap="round"/>
  <path d="M340.6 283.2c-4.2-2.8-15.8-4-17-3.6 8.2 6 16.3 6.3 17 3.6z" fill="none" stroke="#000" stroke-width=".1"/>
  <path d="M292.7 219.3l25.7 53c1.3 1 2.4-.4 2.7-.3 2 1.7 4 2 5 2.5 2 2.4 1 4.4 1 4.6-1 2 2 4 2 5 1 1 3 1 3 2l5 10c1 1 4 6 4 6 2 0 11-5 11-5-4-7-15-19-15-19-3-5-8-11-10-11-3-1-4-5-4-6-2 0-3-1-3-1l-19-38c-1 0-1 1-2 1l-1-1c-1 0-2 1-2 1z" fill="#a05a2c" stroke="#000" stroke-width=".1"/>
  <path d="M291.7 207.8c.5 1-.2 1-.5 1.2l-1 .3c-1.3 0-2 .7-2 1l30.2 62c1.3 1 2.5-.4 3-.2l-21-42-10-19 2.8-1c.8 0 1-1 .7-1l-13-22 10 22v1" fill="#cce5e5" stroke="#000" stroke-width=".1"/>
  <path d="M291.7 207.8c.5 1-.2 1-.5 1.2l-1 .3c-1.3 0-2 .7-2 1l30.2 62c1.3 1 2.5-.4 3-.2l-21-42-10-19 2.8-1c.8 0 1-1 .7-1l-13-22 10 22v1" fill="#e7e7e7" stroke="#000" stroke-width=".1"/>
  <path d="M332 272.2c2.8-.2 4.5 2 2.6 4.7m-1.4-3c1 0 1.7-1 1.7-1m-16-12c1 5 4 9 5 10 2 2 4 7 3 8l8 13" fill="none" stroke="#000" stroke-width=".1"/>
  <path d="M318.6 272.4c1.3-.5 5.7-4.6 10-4 3.4 4 5.4 8 6 8.5-4 3-6.7 4-7.7 5-1-1-1-2-1-2-1-1 0-2 0-2 0-3-2-5-4-5-3 0-2-1-2-1l-2-2z" fill="#cce5e5" stroke="#000" stroke-width=".1"/>
  <path d="M318.6 272.4c1.3-.5 5.7-4.6 10-4 3.4 4 5.4 8 6 8.5-4 3-6.7 4-7.7 5-1-1-1-2-1-2-1-1 0-2 0-2 0-3-2-5-4-5-3 0-2-1-2-1l-2-2z" fill="none" stroke="#000" stroke-width=".1"/>
  <path d="M323 272.5c2 0 4 1 4.8 2.7l-4.8-2.7" fill="#cce5e5" stroke="#000" stroke-width=".1"/>
  <path d="M323 272.5c2 0 4 1 4.8 2.7m3.6.6c-.2.5-.7.7-1.2.5-.5 0-.7-.6-.6-1 .2-.5.8-.6 1.3-.5v1zm-2.5-3.4c-1 .4-1 .6-2 .5-1-1-1-1-1-2s0-1 1-1v1z" fill="none" stroke="#000" stroke-width=".1"/>
  <path d="M295 225.4c-.8-.3-1.2-1.2-.8-2l4.8-1.8s.5 0 1 .7c.4.7-.2 1.2-.2 1.2l-4.8 2" fill="#cce5e5" stroke="#000" stroke-width=".1"/>
  <path d="M295 225.4c-.8-.3-1.2-1.2-.8-2l4.8-1.8s.5 0 1 .7c.4.7-.2 1.2-.2 1.2l-4.8 2" fill="none" stroke="#000" stroke-width=".1"/>
  <path d="M345.6 286c-3.8-2.7-15-4.2-16.6-3.8 8 6 16 6.5 16.6 4z" fill="#00e519" stroke="#000" stroke-width=".1"/>
  <path d="M345.6 286c-.8 2.7-8.7 2.3-16.5-3.8 9 2.7 16 4.3 17 4z" fill="#ffe533" stroke="#000" stroke-width=".1"/>
  <path d="M345.6 286c-.8 2.7-8.7 2.3-16.5-3.8 9 2.7 16 4.3 17 4z" fill="none" stroke="#000" stroke-width=".1" stroke-linecap="round"/>
  <path d="M345.6 286c-4-3-15.6-4-16.6-4 7.8 6.3 16 6.7 16.6 4z" fill="none" stroke="#000" stroke-width=".1"/>
  <path d="M299.5 222l24.5 53c1 1 2.2-.3 2.6-.2 1.5 1.7 3.6 2 4 2.5 1.7 2.6.7 4.5.6 4.7-1.4 1.7 1.5 3.5 1.4 4 .5 1 2.7 1 3 2 .2 0 4.2 8.5 4.7 9.4.6.6 3.5 6.3 3.5 6.3 2 0 10.3-5 10.5-5-4.4-7.3-15.2-18.7-15-19.4-3-5.4-7.7-11-9.8-11-3-1.7-4.3-5.8-3.7-6.7-2.3 0-3.6-1.5-3.7-1.6l-18-38c-1-.7-1 0-1 1 0 0-1-1.3-1-1.5-1-.4-1 .2-1 .6z" fill="#a05a2c" stroke="#000" stroke-width=".1"/>
  <path d="M299.5 222l24.5 53c1 1 2.2-.3 2.6-.2 1.5 1.7 3.6 2 4 2.5 1.7 2.6.7 4.5.6 4.7-1.4 1.7 1.5 3.5 1.4 4 .5 1 2.7 1 3 2 .2 0 4.2 8.5 4.7 9.4.6.6 3.5 6.3 3.5 6.3 2 0 10.3-5 10.5-5-4.4-7.3-15.2-18.7-15-19.4-3-5.4-7.7-11-9.8-11-3-1.7-4.3-5.8-3.7-6.7-2.3 0-3.6-1.5-3.7-1.6l-18-38c-1-.7-1 0-1 1 0 0-1-1.3-1-1.5-1-.4-1 .2-1 .6z" fill="none" stroke="#000" stroke-width=".1"/>
  <path d="M298.8 210.6c.4 1-.3 1-.6 1.2l-1 .3c-1.3 0-2 1-2 1l28.8 62c1 1 2.4 0 2.8 0L307 233l-9.5-19 2.7-1c1-.3 1.2-.8.8-1.7l-12-22 9.6 21 .2.6" fill="#cce5e5" stroke="#000" stroke-width=".1"/>
  <path d="M298.8 210.6c.4 1-.3 1-.6 1.2l-1 .3c-1.3 0-2 1-2 1l28.8 62c1 1 2.4 0 2.8 0L307 233l-9.5-19 2.7-1c1-.3 1.2-.8.8-1.7l-12-22 9.6 21 .2.6" fill="#e7e7e7" stroke="#000" stroke-width=".1"/>
  <path d="M337.2 275c3-.2 4.5 2 2.6 4.6m-1.4-2.4c1 .6 1.8-.3 1.8-.3m-15-14c1.4 5 4.2 9 4.7 10 2 2 3 7 3 8l8 13" fill="none" stroke="#000" stroke-width=".1"/>
  <path d="M324 275c1.4-.5 5.8-4.5 10-3.7 3.3 4 5.2 7.8 5.8 8.3-4 3.2-6.8 4.8-7.8 5.3l-1-2c-.7-1 .3-2 .3-2 0-3-1.8-4-3.6-5-2.3 0-1.6-1-2-1-1-1-1.7-2-1.7-2z" fill="#cce5e5" stroke="#000" stroke-width=".1"/>
  <path d="M324 275c1.4-.5 5.8-4.5 10-3.7 3.3 4 5.2 7.8 5.8 8.3-4 3.2-6.8 4.8-7.8 5.3l-1-2c-.7-1 .3-2 .3-2 0-3-1.8-4-3.6-5-2.3 0-1.6-1-2-1-1-1-1.7-2-1.7-2z" fill="none" stroke="#000" stroke-width=".1"/>
  <path d="M328.4 275c2 0 4 1 4.7 2.8l-4-2.8" fill="#cce5e5" stroke="#000" stroke-width=".1"/>
  <path d="M328.4 275c2 0 4 1 4.7 2.8m4 .8c0 .4-1 .6-1 .4 0 0-1-.6 0-1 0-.5 1-.6 2-.5 1 .2 1 .6 1 1zm-2-3.6c0 1 0 1-1 1v-1c0-.3 1-.5 1-.3 1 .2 1 .7 1 1z" fill="none" stroke="#000" stroke-width=".1"/>
  <path d="M301.6 228c-.8-.2-1-1-.7-2l4-1.6 1 .7v2l-5 2" fill="#cce5e5" stroke="#000" stroke-width=".1"/>
  <path d="M301.6 228c-.8-.2-1-1-.7-2l4-1.6 1 .7v2l-5 2" fill="none" stroke="#000" stroke-width=".1"/>
  <path d="M315.3 250.7l35.5-38a97.4 97.4 0 0 1-1.4-1l-35.6 38c-.4 0 2 1.3 1.5 1z" fill="#a05a2c" stroke="#000" stroke-width=".1"/>
  <path d="M349.8 212.2c-1.2-1-3.4-2.2-5-1.8-.5-2.2 2.5-4.4 3.8-4-.3 2.3 3.2 3.8 3 3.8l-1.8 2z" fill="#e7e7e7" fill-rule="evenodd" stroke="#000" stroke-width=".1"/>
  <path d="M352 210.4c1 .8 1.5.8 3 1.6 1.3.7 3-1 4-1.7 0 0 1 3.4-1 5.6-2.2 2-4.7 2-6.6 2 0 0 2.5-3 1.5-4l-3-2" fill="#e7e7e7" stroke="#000" stroke-width=".1"/>
  <path transform="matrix(-.68 .74 -.82 -.57 0 0)" fill="#e7e7e7" stroke="#000" stroke-width=".1" d="M-27.7-406.5h4v2.2h-4z"/>
  <path d="M308.2 290.3l-1 9 1.8-2.2c.3 0 1.5-2 1.8-7 0 0-1-3-1.4-3-.7 0-1.2 4-1.2 4zm2.2-20l-2.7 15.7c0 .4 1.3 1.6 2-1.2l1.6-10.5-1-4z" fill="#007934" fill-rule="evenodd" stroke="#000" stroke-width=".1"/>
  <path d="M316 284.6c-.7-.8-1.5-1.7-1.5-2l-.4 3s2 1.6 2 4.4l1-.6v-1s1-2 1-3l-1-.8z" fill="#d52b1e" fill-rule="evenodd" stroke="#000" stroke-width=".1"/>
  <path d="M307.2 299.4s3.4-3 3.6-9.7l.4-2s0 1.6.7.5v-2.8s1-1.6 1 .3l-1 9.6a51.4 51.4 0 0 1-1 2s-1-1-2 0c-1 1.3-2 2.8-4 2zm4-25l-1.4 10.4s1.2.6 1.4 3c0 1.2.6.6.7.4v-9.7l-2-4.3z" fill="#ffe000" fill-rule="evenodd" stroke="#000" stroke-width=".1"/>
  <path d="M310 298.7v2.7s1 0 1.6-1.2c.8-1 1-2.8 1-2.8s-.7-1-1.3 0c-.5 1-1.2 1.3-1.2 1.3zm2-10.5c.5-1 .7-2.6.6-2.8l-.7.5v2z" fill="#ffe000" fill-rule="evenodd" stroke="#000" stroke-width=".1"/>
  <path d="M315.2 287a4.4 4.4 0 0 0-1.2-1.4l-1.5 12s-.4 3-2.3 3.7c0 0 1 10.3 4.5 7.5.4-.4 1-3.6.8-5.5l-.8-6c0-1.3.2-2.7.5-4.7 0-.8.5-2.4.6-2.6.2-.2 0-1.7-.6-3z" fill="#d52b1e" fill-rule="evenodd" stroke="#000" stroke-width=".1"/>
  <path d="M317 285.3s.8 1 1 1c.2 0-2.4 19.3-2.4 19.3s0-2-.7-6c-1-3.2 0-7.5 0-9.5 0 0 1 0 1-4z" fill="#d52b1e" fill-rule="evenodd" stroke="#000" stroke-width=".1"/>
  <path d="M312.6 278.8l-.6 7s1.7-2.3 2 0l.5-3.3s-1.5-2.4-2-3.7z" fill="#f7e214" fill-rule="evenodd" stroke="#000" stroke-width=".1"/>
  <path d="M311.3 287.8s-.6-6-3.6-1.8c0 0-.2 2.4 0 3 0 .8 1 1.8 1.2 2.3 0 1 1-.2 1-.2l1-3z" fill="#007934" fill-rule="evenodd" stroke="#000" stroke-width=".1"/>
  <path d="M287.8 237c0-3.5-1.2-9.3-1.3-13.3l-12-12.2s-1.4 10-5.8 15.5l19 10" fill="#d52b1e" stroke="#000" stroke-width=".1"/>
  <path d="M288.7 237.3c.5-2.4 1-5 1.5-10.2l-7.7-7c0 3-3.6 8-4 14" fill="#ffe000" stroke="#000" stroke-width=".1"/>
  <path d="M295.3 244.7c1-4.3-1.3-4.8 2-10.8l-7.2-7c-1 4-2 6-2 10l6 4" fill="#007934" stroke="#000" stroke-width=".1"/>
  <path d="M267.6 270c-1.5-4.2.5-12.6.3-18-1-3.5 2-16.6 2-20.6l-14-8.8s-1 14.3-3 30c-2 8-2 15.2-1 21.4 1 8.7 3 12.2 6 16 6 6.4 19 2.6 19 2.6 11-2.3 18-9.4 18-9.4s-4 .8-10 1.4c-13-1-18 2.4-19-11" fill="#d52b1e" stroke="#000" stroke-width=".1"/>
  <path d="M305.4 278.8h.2l-6 1.8-7.8.6c-17.3.4-15-10.3-14.4-27.5 0-6.6 1.4-14.8 1-17.7l-11.5-6.6c-4 10.6-3 18-4 23.5-1 5-2 17 0 22 2 11 12 11 24 10 6-1 9-2 9-2l8-5" fill="#f7e214" stroke="#000" stroke-width=".1"/>
  <path d="M305.6 278.5c-2.4 1.3-6 2.2-6 2.2l-8 .8c-12.5 1-19.8-7.7-18.2-27.6 0-7 .2-11 2.6-20l7 4c-.5 2-1.5 7-1.5 9 0 16 10 28 24 30" fill="#007a3d" stroke="#000" stroke-width=".1"/>
  <path d="M260 230.5c1 2 8 12.6 12 14.6m-11-7c1.3 2 9.8 14 13.6 15m-15.6 3c2 3 4 7 10 10m-7 4c4 4 13.5 12 23 12m-23-6c2 3 6.2 14 24 9m-26.8-6c1.3 3 10.2 18 26 12" fill="none" stroke="#000" stroke-width=".1"/>
  <path d="M277.8 264.8c-1.5-4.3.5-12.7.2-18 0-3.6 1.5-15.6 1.5-19.6l-13.2-10s-.6 14.4-2.3 30c-1.4 8-2.5 18-1.5 24 1.8 10 6.6 12.8 7.5 13.6 6.7 6 22 5.4 23.5 5 10.8-4 15.6-11 15.6-11s-5 0-11 .6c-13-1-19-.4-20-13.8" fill="#d52b1e" stroke="#000" stroke-width=".1"/>
  <path d="M315.6 273.5h.2l-6 1.8-7.8.7c-17.3.4-15-10.3-14.4-27.6 0-6.5.3-12.4 0-15.3l-10.3-7c-3.8 11-2.8 17-3.5 22-.4 6-1.7 18 .2 23 2.7 12 11.8 12 24.2 11 6 0 9.4-2 9.4-2l8-4" fill="#ffe000" stroke="#000" stroke-width=".1"/>
  <path d="M316 273.4c-2.5 1.2-6 2-6 2l-8 1c-12.6 1-20-7.8-18.3-27.7 0-7-.3-7.5 2.2-17l11 9s-2 2.7-2 6.6c0 16 6 24 20 26l1-13" fill="#007934" stroke="#000" stroke-width=".1"/>
  <path d="M270 225.3c1.3 2 8.2 12.6 12.2 14.6m-11-8c1.3 2 9.8 14 13.6 14m-15.5 3c2 2 4 7 9.7 10m-7 3c4 3 13.6 11 23 12m-23-6c2 2 6.2 13 24 8m-26.7-7c1.2 2 10 17 26 11" fill="none" stroke="#000" stroke-width=".1"/>
  <path d="M256.2 224l-.7 6c-.2 4.4 0 7.7 0 9.8 0 .2 1 5.5.6 5.8-1 1-1 1.2-2 .4l1-6.3 1-10c0-1 1-6.3 1-6.3s0-1.2 1 .5" fill="#e8a30e" stroke="#000" stroke-width=".1"/>
  <path d="M256.2 224l-.7 6c-.2 4.4 0 7.7 0 9.8l.8 5.8c-1 1-1.2 1.6-2.3.7l.5-6.6.4-10c0-1 1-6.3 1-6.3v.5z" fill="none" stroke="#000" stroke-width=".1"/>
  <path d="M256 222.2s-1 6-1.2 9.6c0 4.2-.3 5.4-.3 8l-.5 4.4v.2c-1 .5-1.5 0-2-.3-.2 0 1.4-3 1.4-4 1-11 2.4-17 2.4-17s-.6 4 .3 0" fill="#f7e214" stroke="#000" stroke-width=".1"/>
  <path d="M256 222.2s-1 6-1.2 9.6c0 4.2-.3 5.4-.3 8l-.5 4.4v.2c-1 .5-1.5 0-2-.3-.2 0 1.4-3 1.5-4 .8-11 2.3-17 2.3-17s-.6 4 .3 0zm-.4 17.3s-1 .4-1 .2m0-1.3s.7 0 .8-.2m0-1s-.6.3-.8 0m.8-1.6h-.6m.6-1.5h-.6m.5-2h-.4m0-1h-1m-1 10h-1m1-2h-1m1-1h-1m1-1h-1m0-2h-1m0-1h-1m0-2s-1 1-1 0m0 9h-1m13-20l-1 6v10c0 1 1 6 0 6-1 1-1 2-2 1v-16c0-1 1-6 1-6v1" fill="#e8a30e" stroke="#000" stroke-width=".1"/>
  <path d="M266.4 218.7l-.7 6c-.2 4.4 0 7.8 0 9.8l.8 5.8c-1 1.2-1.2 1.6-2.3.7l.5-6.6.4-9.8c0-1 1-6.5 1-6.5s1-1 1 1z" fill="none" stroke="#000" stroke-width=".1"/>
  <path d="M266.3 217s-1.2 6-1.3 9.5c0 4.3-.3 5.5-.3 8l-.5 4.4c-1 0-1.5 0-2-1-.2 0 1.4-4 1.4-5 1-11 2.4-17 2.4-17l.3-1" fill="#e8a30e" stroke="#000" stroke-width=".1"/>
  <path d="M266.3 217s-1.2 6-1.3 9.5c0 4.3-.3 5.5-.3 8l-.5 4.4c-1 0-1.5 0-2-1-.2 0 1.4-4 1.4-5 1-11 2.4-17 2.4-17l.3-1zm-.5 17.2s-1 .5-1 .2m0-1.2s.7 0 .8-.3m0-1h-.8m.8-2h-.6m.6-2h-.6m.5-2h-.4m1 7h-1m1-2h-1m2-4h-1m3 3s-1 0-1-1" fill="none" stroke="#000" stroke-width=".1"/>
  <path d="M274.3 211.3s.5 5 .2 8c-.3 3.5-.3 4.5-.6 6.6-1 0 0 2 0 3 0 0-1 0 0 0h2s-1-3-1-4c0-9-1-15-1-15v-1" fill="#e8a30e" stroke="#000" stroke-width=".1"/>
  <path d="M274.3 211.3s.5 5 .2 8c-.3 3.5-.3 4.5-.6 6.6-1 0 0 2 0 3 0 0-1 0 0 0h2s-1-3-1-4c0-9-1-15-1-15zM274 226h1m-.8-1.8s1 .2 1 0m-1-1.2h1m-1-1.2h.8m-.5-1.4h.5m-.5-1.3s.4 1 .5 0m-.4-1h.4m-1 8h1" fill="#e8a30e" stroke="#000" stroke-width=".1"/>
  <path d="M306 221.6h.8-.8z" fill="#005000" stroke="#000" stroke-width=".1"/>
  <path d="M316.7 256.4s-.3-.2-.4 0v.2l.4-.2zm-1 1h2" fill="#fff" fill-rule="evenodd" stroke="#000" stroke-width=".1"/>
  <path d="M292.2 284.2c-.2 3-7.4 6.6-12.7 0-5.7-4.4-4.4-11.3 0-12.2l54.7-53.3c2.2-1.2 2.4-2.3 3.5-3.5 2.3 2.4 7 6.8 9.6 9-1.6 1.2-2.8 2.5-3.2 3.5l-51 56.5z" fill="#e8a30e" fill-rule="evenodd" stroke="#000" stroke-width=".1"/>
  <path d="M337.8 215c2.6-3.5 12.8 5.8 10 8.7-2.6 2.8-12.4-5-10-8.6z" fill="#e7e7e7" fill-rule="evenodd" stroke="#000" stroke-width=".1" stroke-linejoin="round"/>
  <path d="M347 223c-2 1.4-9.3-4.8-8-7.2 2-2.2 10 5.7 8 7.2z" fill="#cccccf" fill-rule="evenodd" stroke="#000" stroke-width=".1"/>
  <path d="M344 228c-4.5-1.6-7.8-4.6-9.8-9.2m-23 45c-5.8-1.8-9.7-5.6-11.5-11.7m9 15c-5.6-2-9.5-5-11.3-11m-2 26c-6-1-10.5-6-12.3-12m10 15c-6-1-10-6-12-12" fill="none" stroke="#000" stroke-width=".1"/>
  <path d="M279.3 285c-.2 1.4-1 1.8-2 1.4m13.7-2c-2 3.5-4.5 2.4-6.5 2.5" fill="none" stroke="#000" stroke-width=".1" stroke-linecap="round"/>
  <path d="M276.4 285.2c0 1 .8 1.6 1.7 1.6 1 0 2-.7 2-1.6 0-1 0-1.7-1-1.7s-1 1-1 2" fill="#e8a30e" stroke="#000" stroke-width=".1"/>
  <path d="M279.5 285c-.3 1.2-1 1.6-2 1.2m13.5-1.7c-2 3.4-4.5 2.3-6.5 2.4" fill="none" stroke="#000" stroke-width=".1" stroke-linecap="round"/>
  <path d="M331.8 290.3l1 9-1.8-2.2c-.3 0-1.5-2-1.8-7 0 0 1-3 1.4-3 .7 0 1.2 4 1.2 4zm-2.2-20l2.7 15.7c0 .4-1.3 1.6-2-1.2l-1.6-10.5 1-4z" fill="#007934" fill-rule="evenodd" stroke="#000" stroke-width=".1"/>
  <path d="M324 284.6c.7-.8 1.5-1.7 1.5-2l.4 3s-2 1.6-2 4.4l-1-.6v-1s-1-2-1-3l1-.8z" fill="#d52b1e" fill-rule="evenodd" stroke="#000" stroke-width=".1"/>
  <path d="M332.8 299.4s-3.4-3-3.6-9.7l-.4-2s0 1.6-.7.5v-2.8s-1-1.6-1 .3l1 9.6 1 2s1-1 2 0c1 1.3 2 2.8 4 2zm-4-25l1.4 10.4s-1.2.6-1.4 3c0 1.2-.6.6-.7.4v-9.7l2-4.3z" fill="#ffe000" fill-rule="evenodd" stroke="#000" stroke-width=".1"/>
  <path d="M330 298.7v2.7s-1 0-1.6-1.2c-.8-1-1-2.8-1-2.8s.7-1 1.3 0c.5 1 1.2 1.3 1.2 1.3zm-2-10.5c-.5-1-.7-2.6-.6-2.8l.7.5v2z" fill="#ffe000" fill-rule="evenodd" stroke="#000" stroke-width=".1"/>
  <path d="M324.8 287a4.4 4.4 0 0 1 1.2-1.4l1.5 12s.4 3 2.3 3.7c0 0-1 10.3-4.5 7.5-.4-.4-1-3.6-.8-5.5l.8-6c0-1.3-.2-2.7-.5-4.7 0-.8-.5-2.4-.6-2.6-.2-.2 0-1.7.6-3z" fill="#d52b1e" fill-rule="evenodd" stroke="#000" stroke-width=".1"/>
  <path d="M323 285.3s-.8 1-1 1c-.2 0 2.4 19.3 2.4 19.3s0-2 .7-6c1-3.2 0-7.5 0-9.5 0 0-1 0-1-4z" fill="#d52b1e" fill-rule="evenodd" stroke="#000" stroke-width=".1"/>
  <path d="M327.4 278.8l.6 7s-1.7-2.3-2 0l-.5-3.3s1.5-2.4 2-3.7z" fill="#f7e214" fill-rule="evenodd" stroke="#000" stroke-width=".1"/>
  <path d="M328.7 287.8s.6-6 3.6-1.8c0 0 .2 2.4 0 3 0 .8-1 1.8-1.2 2.3 0 1-1-.2-1-.2l-1-3z" fill="#007934" fill-rule="evenodd" stroke="#000" stroke-width=".1"/>
  <path d="M352.2 237c0-3.5 1.2-9.3 1.3-13.3l12-12.2s1.4 10 5.8 15.5l-19 10" fill="#d52b1e" stroke="#000" stroke-width=".1"/>
  <path d="M351.3 237.3c-.5-2.4-1-5-1.5-10.2l7.7-7c0 3 3.6 8 4 14" fill="#ffe000" stroke="#000" stroke-width=".1"/>
  <path d="M344.7 244.7c-1-4.3 1.3-4.8-2-10.8l7.2-7c1 4 2 6 2 10l-6 4" fill="#007934" stroke="#000" stroke-width=".1"/>
  <path d="M372.4 270c1.5-4.2-.5-12.6-.3-18 1-3.5-2-16.6-2-20.6l14-8.8s1 14.3 3 30c2 8 2 15.2 1 21.4-1 8.7-3 12.2-6 16-6 6.4-19 2.6-19 2.6-11-2.3-18-9.4-18-9.4s4 .8 10 1.4c13-1 18 2.4 19-11" fill="#d52b1e" stroke="#000" stroke-width=".1"/>
  <path d="M334.6 278.8h-.2l6 1.8 7.8.6c17.3.4 15-10.3 14.4-27.5 0-6.6-1.4-14.8-1-17.7l11.5-6.6c4 10.6 3 18 4 23.5 1 5 2 17 0 22-2 11-12 11-24 10-6-1-9-2-9-2l-8-5" fill="#f7e214" stroke="#000" stroke-width=".1"/>
  <path d="M334.4 278.5c2.4 1.3 6 2.2 6 2.2l8 .8c12.5 1 19.8-7.7 18.2-27.6 0-7-.2-11-2.6-20l-7 4c.5 2 1.5 7 1.5 9 0 16-10 28-24 30" fill="#007a3d" stroke="#000" stroke-width=".1"/>
  <path d="M380 230.5c-1 2-8 12.6-12 14.6m11-7c-1.3 2-9.8 14-13.6 15m15.6 3c-2 3-4 7-10 10m7 4c-4 4-13.5 12-23 12m23-6c-2 3-6.2 14-24 9m26.8-6c-1.3 3-10.2 18-26 12" fill="none" stroke="#000" stroke-width=".1"/>
  <path d="M362.3 264.8c1.4-4.3-.6-12.7-.3-18 0-3.6-1.5-15.6-1.5-19.6l13.2-10s.6 14.4 2.3 30c1.4 8 2.5 18 1.5 24-1.8 10-6.6 12.8-7.5 13.6-6.7 6-22 5.4-23.5 5-10.8-4-15.6-11-15.6-11s5 0 11 .6c13-1 19-.4 20-13.8" fill="#d52b1e" stroke="#000" stroke-width=".1"/>
  <path d="M324.4 273.5h-.2l6 1.8 7.8.7c17.3.4 15-10.3 14.4-27.6 0-6.5-.3-12.4 0-15.3l10.3-7c3.8 11 2.8 17 3.5 22 .4 6 1.7 18-.2 23-2.7 12-11.8 12-24.2 11-6 0-9.4-2-9.4-2l-8-4" fill="#ffe000" stroke="#000" stroke-width=".1"/>
  <path d="M324 273.4c2.5 1.2 6 2 6 2l8 1c12.6 1 20-7.8 18.3-27.7 0-7 .3-7.5-2.2-17l-11 9s2 2.7 2 6.6c0 16-6 24-20 26l-1-13" fill="#007934" stroke="#000" stroke-width=".1"/>
  <path d="M370 225.3c-1.3 2-8.2 12.6-12.2 14.6m11-8c-1.3 2-9.8 14-13.6 14m15.5 3c-2 2-4 7-9.7 10m7 3c-4 3-13.6 11-23 12m23-6c-2 2-6.2 13-24 8m26.7-7c-1.2 2-10 17-26 11" fill="none" stroke="#000" stroke-width=".1"/>
  <path d="M383.8 224l.7 6c.2 4.4 0 7.7 0 9.8 0 .2-1 5.5-.6 5.8 1 1 1 1.2 2 .4l-1-6.3-1-10c0-1-1-6.3-1-6.3s0-1.2-1 .5" fill="#f7e214" stroke="#000" stroke-width=".1"/>
  <path d="M383.8 224l.7 6c.2 4.4 0 7.7 0 9.8l-.8 5.8c1 1 1.2 1.6 2.3.7l-.5-6.6-.4-10c0-1-1-6.3-1-6.3v.5z" fill="#e8a30e" stroke="#000" stroke-width=".1"/>
  <path d="M384 222.2s1 6 1.2 9.6c0 4.2.3 5.4.3 8l.5 4.4v.2c1 .5 1.5 0 2-.3.2 0-1.4-3-1.4-4-1-11-2.4-17-2.4-17s.6 4-.3 0" fill="#f7e214" stroke="#000" stroke-width=".1"/>
  <path d="M384 222.2s1 6 1.2 9.6c0 4.2.3 5.4.3 8l.5 4.4v.2c1 .5 1.5 0 2-.3.2 0-1.4-3-1.5-4-.8-11-2.3-17-2.3-17s.6 4-.3 0zm.4 17.3s1 .4 1 .2m0-1.3s-.7 0-.8-.2m0-1s.6.3.8 0m-.8-1.6h.6m-.6-1.5h.6m-.5-2h.4m0-1h1m1 10h1m-1-2h1m-1-1h1m-1-1h1m0-2h1m0-1h1m0-2s1 1 1 0m0 9h1" fill="#e8a30e" stroke="#000" stroke-width=".1"/>
  <path d="M373.6 218.7l.7 6c.2 4.4 0 7.8 0 9.8 0 .2-1 5.5-.6 5.8 1 1.2 1 1.3 2 .4.2 0-.4-5.5-.4-6.3l-.4-9.8c0-1-1-6.5-1-6.5s-1-1-1 1" fill="#f7e214" stroke="#000" stroke-width=".1"/>
  <path d="M373.6 218.7l.7 6c.2 4.4 0 7.8 0 9.8l-.8 5.8c1 1.2 1.2 1.6 2.3.7l-.5-6.6-.4-9.8c0-1-1-6.5-1-6.5s-1-1-1 1z" fill="#e8a30e" stroke="#000" stroke-width=".1"/>
  <path d="M373.7 217s1.2 6 1.3 9.5c0 4.3.3 5.5.3 8l.5 4.4c1 0 1.5 0 2-1 .2 0-1.4-4-1.4-5-1-11-2.4-17-2.4-17l-.3-1" fill="#f7e214" stroke="#000" stroke-width=".1"/>
  <path d="M373.7 217s1.2 6 1.3 9.5c0 4.3.3 5.5.3 8l.5 4.4c1 0 1.5 0 2-1 .2 0-1.4-4-1.4-5-1-11-2.4-17-2.4-17l-.3-1zm.5 17.2s1 .5 1 .2m0-1.2s-.7 0-.8-.3m0-1h.8m-.8-2h.6m-.6-2h.6m-.5-2h.4m-1 7h1m-1-2h1m-2-4h1m-3 3s1 0 1-1m-11-22s-1 5-1 8v10h-2l1-4c-1-9 0-15 0-15m2 2s-1 5 0 8v6c1 0 0 2 0 3 0 0 1 0 0 0h-2s1-3 1-4c0-9 1-15 1-15zm0 14h-1m1-2h-1m1-1h-1m1-2h-1m0-2h-1m1 4h-1" fill="#e8a30e" stroke="#000" stroke-width=".1"/>
  <path d="M334 221.6h-.8.8z" fill="#005000" stroke="#000" stroke-width=".1"/>
  <path d="M323.3 256.4s.3-.2.4 0v.2l-.4-.2zm1 1h-2" fill="#fff" fill-rule="evenodd" stroke="#000" stroke-width=".1"/>
  <path d="M291.7 215.5c0-2 2-3.3 2.2-3.5 1-.7 1-1.3 3-1.5v.8c0 .3-1 1.6-2 2.7-2 1-4 1.5-4 1.5z" fill="#d52b1e" stroke="#000" stroke-width=".1"/>
  <path d="M291.6 214.7l29.7 38.5 1.4-1.4-30.2-39-1 2z" fill="#a05a2c" fill-rule="evenodd" stroke="#000" stroke-width=".1"/>
  <path d="M291.2 207.2s3.2-.4 2.8-2.2c-.5-1.8-2.6-1.8-3.5-2-1 0-4 .8-4.8 1.6-1 1-2.7 2.5-2 5s1.2 4.4 2.2 6v4c0 .2-1 1.2 0 1.5 1 1 1 1 2 0s2-3 2-5 2-3 2-3c1 0 1-1 3-1 0 0-1-1-2-1s-4-1-5-2z" fill="#d52b1e" stroke="#000" stroke-width=".1"/>
  <path d="M291.2 207.2s3.2-.4 2.8-2.2c-.5-1.8-2.6-1.8-3.5-2-1 0-4 .8-4.8 1.6-1 1-2.7 2.5-2 5s1.2 4.4 2.2 6v4c0 .2-1 1.2 0 1.5 1 1 1 1 2 0s2-3 2-5 2-3 2-3c1 0 1-1 3-1 0 0-1-1-2-1s-4-1-5-2z" fill="none" stroke="#000" stroke-width=".1"/>
  <path d="M291.2 207.2c-.4 0-1.7-.6-2.6-.3-1 0-2.7 1-2.4 2m10.4 0l-3 1c-.7 0-2.5 2-3.6 3-1 1-1.3 2-3.5 4m9-10c-.4 0-.8 1-1.4 1 0 0 0 1-1 1" fill="none" stroke="#000" stroke-width=".1"/>
  <path d="M347.8 284.2c.2 3 7.4 6.6 12.7 0 5.7-4.4 4.4-11.3 0-12.2l-54.7-53.3c-2.2-1.2-2.4-2.3-3.5-3.5-2.3 2.4-7 6.8-9.6 9 1.6 1.2 2.8 2.5 3.2 3.5l51 56.5z" fill="#e8a30e" fill-rule="evenodd" stroke="#000" stroke-width=".1"/>
  <path d="M302.2 215c-2.6-3.5-12.8 5.8-10 8.7 2.6 2.8 12.4-5 10-8.6z" fill="#e7e7e7" fill-rule="evenodd" stroke="#000" stroke-width=".1" stroke-linejoin="round"/>
  <path d="M293 223c2 1.4 9.3-4.8 8-7.2-2-2.2-10 5.7-8 7.2z" fill="#cccccf" fill-rule="evenodd" stroke="#000" stroke-width=".1"/>
  <path d="M296 228c4.5-1.6 7.8-4.6 9.8-9.2m23 45c5.8-1.8 9.7-5.6 11.5-11.7m-9 15c5.6-2 9.5-5 11.3-11m2 26c6-1 10.5-6 12.3-12m-10 14c6-1 10-6 12-12" fill="none" stroke="#000" stroke-width=".1"/>
  <path d="M360.7 285c.2 1.4 1 1.8 2 1.4m-13.7-2c2 3.5 4.5 2.4 6.5 2.5" fill="none" stroke="#000" stroke-width=".1" stroke-linecap="round"/>
  <path d="M363.6 285.2c0 1-.8 1.6-1.7 1.6-1 0-2-.7-2-1.6 0-1 0-1.7 1-1.7s1 1 1 2" fill="#e8a30e" stroke="#000" stroke-width=".1"/>
  <path d="M360.5 285c.3 1.2 1 1.6 2 1.2m-13.5-1.7c2 3.4 4.5 2.3 6.5 2.4" fill="none" stroke="#000" stroke-width=".1" stroke-linecap="round"/>
  <path d="M339.6 175.5c1.8 3 4.5 8 5.2 12 1.3 7-.8 15.2-7 20.8-5.2 4.7-13.3 6-16.6 6.8-3.4 1-5.8 2-6.4 3 0 0 0-1 .5-1 1.6 0 4-1 7.8-1 8-1 15-4 19-12 6-10 3-18-2-26z" fill="#007934" fill-rule="evenodd" stroke="#000" stroke-width=".1"/>
  <path d="M341.6 206.2a.4.6 50 0 1-.6-.6.4.6 50 1 1 .6.6z" fill="#d52b1e" stroke="#000" stroke-width=".1"/>
  <path d="M346.6 205c-1 .6-2.2.7-3 1l-2.2.8c-.4 0-1 .4-1.5.6-1 .4-2 1.3-2 1.3s1 1.3 2 1c1 0 1-.3 2-.6l1-1c1 0 1-2 2-3zm-5.7 1c-1 .7-2 .6-2 .6v.2s1 0 2-.5v-.2z" fill="#007934" fill-rule="evenodd" stroke="#000" stroke-width=".1"/>
  <path d="M346.6 205c-1 1-2.8 2-4.7 2.8-2 .8-4 1-5 1l-1 .3c1 0 3 0 5-1s4-2 5-3zm-2.4 4.6c-2 0-3 .5-4.8 1-1.7.3-3.7-.6-4.8 1 4.4 3 7.6 1 9.6-2z" fill="#007934" fill-rule="evenodd" stroke="#000" stroke-width=".1"/>
  <path d="M340.2 213.6c-.8-.8-8-3.2-9.2-.5 1.7 2 6.8 3 9.2 1z" fill="#007934" fill-rule="evenodd" stroke="#000" stroke-width=".1"/>
  <path d="M338.5 215.5c-.8 0-1.6-.3-2.5-.4h-2c-1 0-2.2-1-6 0 1.5 4 6.5 4 10.5 2zm1.6-2c-3 1-8 0-10-1v.3c4 1.7 8 1.5 11 .8zm4-4c-2 1.6-5 2.7-11 2 9 .8 10-.7 12-2z" fill="#007934" fill-rule="evenodd" stroke="#000" stroke-width=".1"/>
  <path d="M338.5 215.5c-3 0-4.7 1.4-10.3-1.3l-1.4-.6-.5.2 1.4.4c7 3 6.7 1.6 10.8 1.3z" fill="#007934" fill-rule="evenodd" stroke="#000" stroke-width=".1"/>
  <path d="M327.3 211.6a.4.6 66.2 1 0 .4.7.4.6 66.2 0 0-.4-.7z" fill="#d52b1e" stroke="#000" stroke-width=".1"/>
  <path d="M327 212.3c-.5 0-.7 1-.7 1.3l-.4.2c0-.6 0-1.4 1-1.7v1z" fill="#007934" fill-rule="evenodd" stroke="#000" stroke-width=".1"/>
  <path d="M346 186.8a.4.6 15.8 1 1-1-.2.4.6 15.8 0 1 1 .2z" fill="#d52b1e" stroke="#000" stroke-width=".1"/>
  <path d="M341.6 203.2c0-2-1 .8-3.2-4-.6-1.3-.6-2-1-4.2 1 1.8 3 2.3 3.8 3.6.7 1.4.5 3.5.4 4.6z" fill="#007934" fill-rule="evenodd" stroke="#000" stroke-width=".1"/>
  <path d="M337.5 195.2s1 2.4 2.4 4c1 1.7 1 3.7 1 3.7" fill="#007934" fill-rule="evenodd" stroke="#000" stroke-width=".1"/>
  <path d="M338.5 197.2c1.3 1.7 3 3.8 3 6h.3c-.3-2.8-2-4-3-5.6l-.3-.4zm10.8 2.7c-1 0-2 1-2.7 1l-1.4 1h-1.4l-2 2s1.3 1 2 1c2.4-1 3-2 4.3-3 1-1 1-3 2-4z" fill="#007934" fill-rule="evenodd" stroke="#000" stroke-width=".1"/>
  <path d="M340.7 204.8l-.2.4c1.3-.2 3.5-1.5 5-2.2 1.8-1 3-1.7 3.7-3-1 1.3-2 2-4 3-1.4.7-3.6 2-4.5 1.8z" fill="#007934" fill-rule="evenodd" stroke="#000" stroke-width=".1"/>
  <path d="M350 195.3c-.7 1-1.6 1.3-2.3 1.8l-1.3 2-1.2 1-1.5 3s.7 1 1.4 1c3 0 4-1 4-3 1-1 1-1 1-2z" fill="#007934" fill-rule="evenodd" stroke="#000" stroke-width=".1"/>
  <path d="M341.5 199.4a.6.4 62 1 0 .8-.3.6.4 62 0 0-.8 1z" fill="#d52b1e" stroke="#000" stroke-width=".1"/>
  <path d="M342.5 201.6l-.2.3c3-2 6.6-4 8-7-2 3-4.8 4-7.8 6zm8.3-10.7c-.7 1-1.5 1-2.2 2l-1 1c-.4 0-.8 0-1.2 1-.5 0-1.3 2-1.3 2s1 1 2 0 2-1 2-2c1-1 1-2 2-3s1-2 1-3z" fill="#007934" fill-rule="evenodd" stroke="#000" stroke-width=".1"/>
  <path d="M348.7 193.8c-1.4 1.6-3 3-4.7 3.8v.4c2.5-1.5 3.6-2.8 4.8-4v-.2zm1-5.6c-.4 1-1 1.5-1.6 2v1.2c0 .3 0 .5-1 1v2s1 .6 1 .2l2-1.6c1-.5 1-1.4 1-2.2 1-1 1-1.7 0-2.6zm-4.3-1l-.5 1.5-1-.4V187z" fill="#007934" fill-rule="evenodd" stroke="#000" stroke-width=".1"/>
  <path d="M348.4 191c-1 1.6-2.4 3.2-3.8 4v.3c2.2-1.6 3-3 3.8-4.2zm-5.6 10c-.2-.6-.3-1-.6-1.4l.4 1.5z" fill="#007934" fill-rule="evenodd" stroke="#000" stroke-width=".1"/>
  <path d="M342 181.3a.4.3 39.5 0 1-.6.5.4.3 39.5 0 1 .5-.5z" fill="#d52b1e" stroke="#000" stroke-width=".1"/>
  <path d="M343 182.5c-.2-.3-.7-.6-1-.8-.2 0-.2 0 0 0l1.2 1v-.2zm5.7.4c-1.2 2-4 4-2.8 7 2 2 3-5 2-8z" fill="#007934" fill-rule="evenodd" stroke="#000" stroke-width=".1"/>
  <path d="M346 177.7c-.4 2.4-2.5 4.4-1 7.7 4 1 2-4.4 1-7.7z" fill="#007934" fill-rule="evenodd" stroke="#000" stroke-width=".1"/>
  <path d="M343.7 174c2 3.7 2.5 6 .2 8.3 0 0-2-1-2-3.3 0-1.8 1-4 1-5z" fill="#007934" fill-rule="evenodd" stroke="#000" stroke-width=".1"/>
  <path d="M340.4 172c.5 2.2-1.5 3.3 1.4 6.3 2-2.4 1-3-1.4-6.4z" fill="#007934" fill-rule="evenodd" stroke="#000" stroke-width=".1"/>
  <path d="M339.6 176c-3.3.3-2-2.6-3-5.3 2 1.5 4.7 2 3 5.3zm2.2 4.4c-1-4.4-4-2.6-5.6-4.6.8 3 2 4.8 5.6 4.6zm1.4 4c-2.6 0-4.8-1.3-6.2-4.3 2.7 2 5.7 2 6.2 5z" fill="#007934" fill-rule="evenodd" stroke="#000" stroke-width=".1"/>
  <path d="M343.6 188.3c-1-1.2-1-2-1.5-2.7 0-1.3-1-2.5-3-3.7 0 3 1 6 5 6zm.6 3.3c-1.6-2.3-3-4.2-5.6-5.8 1 2.3.6 6.3 5.6 5.8z" fill="#007934" fill-rule="evenodd" stroke="#000" stroke-width=".1"/>
  <path d="M343.7 196c-5 0-4.5-4.8-4.5-7l2.8 3.5c1 1 1.7 2.2 1.7 3.5z" fill="#007934" fill-rule="evenodd" stroke="#000" stroke-width=".1"/>
  <path d="M343 198.8c-.3-1 0-1.4-1-2.3-.8-1-2.6-2.7-3.6-4.6 0 1-.2 4 1.2 5 1 0 2 1 3.5 1zm-4 7.2c-4-3-1.6-5.5-1.2-7.8 1 2.6 3.7 4.8 1.2 8zm1.6-29c-1.3-2.4-2-3.7-3.7-6.2 2 2.8 2 4.6 4 6.5" fill="#007934" fill-rule="evenodd" stroke="#000" stroke-width=".1"/>
  <path d="M339 206.8c0-3-.8-5.7-1.4-8.5.5 3 1.3 6 1 8.8h.3zm4.5-7.4c-.4-1.8-4-3-5-7.5.7 4 4.4 5 4.8 7l.2-1zm.8-2.5c-.6-3-4-5-5-9 1.3 4 4.2 4 5 8zm.7-5c-1.7-3-4-4-6.4-7 2.2 3 4.8 4 6.4 7v-1zm0-4c-2-1-4-3-6-7 1.4 3 3 5 6 7v-1zm-1-4c-2-2-5-3-7-5 1.7 2 5 3 7 5v-1zm-1.6-5c-2.2-2-4.4-2-6.2-5 1.5 2 3.8 3 6.2 5v-1zm6.3 2c-.8 3-1.5 6-3.6 8v-1c1-1 3-4 4-8zm-2.7-5c0 3 0 6-1 8 1.4-2 1.3-5 1.6-8zm-2-4c1 3 1 5 0 9 .5-2 1-5 0-9zm-3-2c1 2 2 4 1 7 1-3 0-5-1-7zm-5 31c1.6 3-.2 5-2.3 6-1.6-5 1.8-4 2.5-7z" fill="#007934" fill-rule="evenodd" stroke="#000" stroke-width=".1"/>
  <path d="M336.2 203c.2 2-2 4.3-2.6 7.7l-.3.2c1-4 3-6 3-8z" fill="#007934" fill-rule="evenodd" stroke="#000" stroke-width=".1"/>
  <path d="M343.7 181.2a.3.4 1.8 1 1-.6 0 .3.4 1.8 0 1 1 0z" fill="#d52b1e" stroke="#000" stroke-width=".1"/>
  <path d="M343.5 183v-1.6h-.2v1.8l.2-.2z" fill="#007934" fill-rule="evenodd" stroke="#000" stroke-width=".1"/>
  <path d="M342.8 181a.3.4 2 0 1-.5 0 .3.4 2 0 1 .5 0z" fill="#d52b1e" stroke="#000" stroke-width=".1"/>
  <path d="M343.2 182.4l-.5-1.2c0 .5.3 1 .4 1.4l1-.2z" fill="#007934" fill-rule="evenodd" stroke="#000" stroke-width=".1"/>
  <path d="M344.7 187a.4.3 80.5 1 1-.7 0 .4.3 80.5 0 1 .7 0z" fill="#d52b1e" stroke="#000" stroke-width=".1"/>
  <path d="M345 188.6l-.5-1.5v1l.2 2h.2z" fill="#007934" fill-rule="evenodd" stroke="#000" stroke-width=".1"/>
  <path d="M343.6 187.2a.4.3 57 1 1-.4.5.4.3 57 0 1 .4-.5z" fill="#d52b1e" stroke="#000" stroke-width=".1"/>
  <path d="M344.8 188.6c-.3-.4-.8-.7-1.2-1l1.3 1.2-1-.2z" fill="#007934" fill-rule="evenodd" stroke="#000" stroke-width=".1"/>
  <path d="M343.4 199a.3.4 12.7 1 1-.7 0 .3.4 12.7 0 1 .7 0z" fill="#d52b1e" stroke="#000" stroke-width=".1"/>
  <path d="M342.8 200.8c.2-.5.2-1 .2-1.5 0 .6-.2 1.2-.3 1.7v-.2z" fill="#007934" fill-rule="evenodd" stroke="#000" stroke-width=".1"/>
  <path d="M344 200a.3.4 50.5 1 0 .5.3.3.4 50.5 1 0-.5-.4z" fill="#d52b1e" stroke="#000" stroke-width=".1"/>
  <path d="M342.7 201l1.3-.8-1.3 1z" fill="#007934" fill-rule="evenodd" stroke="#000" stroke-width=".1"/>
  <path d="M340.7 205a.3.4 40.3 1 1-.4-.6.3.4 40.3 0 1 .4.5z" fill="#d52b1e" stroke="#000" stroke-width=".1"/>
  <path d="M339.5 206.2l1-1.3h-.2l-1 1h.2z" fill="#007934" fill-rule="evenodd" stroke="#000" stroke-width=".1"/>
  <path d="M338.8 204.5a.4.6 10 0 0 1 0 .4.6 10 1 0-1 0z" fill="#d52b1e" stroke="#000" stroke-width=".1"/>
  <path d="M339.4 205c-.3.7 0 1 0 1.2v.3c-.3-.4-.4-.7-.2-1.5h.2zm-12 9.5c-.8 0-1-.4-1.3-.8 1 .5 1 1 2 1v-.2z" fill="#007934" fill-rule="evenodd" stroke="#000" stroke-width=".1"/>
  <path d="M327.3 215a.6.4 9.5 0 1 .2-.7.6.4 9.5 1 1-.2.8z" fill="#d52b1e" stroke="#000" stroke-width=".1"/>
  <path d="M332.7 206c.5 3.2-1.3 5.7-4 6.4-1-4 2.8-4 4-6.3z" fill="#007934" fill-rule="evenodd" stroke="#000" stroke-width=".1"/>
  <path d="M332.7 206c-1 2.5-2.3 4.8-4.8 7.3h-1c2-2 4-5 5-7.2z" fill="#007934" fill-rule="evenodd" stroke="#000" stroke-width=".1"/>
  <path d="M327.8 213.3a.5.4 9.8 1 1-.4-.7.5.4 9.8 0 1 .4.7z" fill="#d52b1e" stroke="#000" stroke-width=".1"/>
  <path d="M326 213.8l1.4-.7c-.7 1-1.2 1-1.8 1h.3zm2.5-5c0 1.2-1 2.4-2 3.2-1 1-1 1.2-2.2 1.6-1.2-2.8 2.8-3.3 4.2-4.8z" fill="#007934" fill-rule="evenodd" stroke="#000" stroke-width=".1"/>
  <path d="M328.5 208.8c-1.3 2.5-3.5 3.8-4.7 5.4 1.5-2.2 3-2.7 4.7-5.4zm-28-33.3c-2 3-4.5 8-5 12-1.5 7 .5 15.2 7 20.8 5 4.7 13 6 16.4 6.8 3 1 5 2 6 3 0 0 0-1-1-1-2 0-4-1-8-1-8-1-15-4-19-12-6-10-3-18 2-26z" fill="#007934" fill-rule="evenodd" stroke="#000" stroke-width=".1"/>
  <path d="M314 213.6c0 .4-4 3.7-7.4 3.5h-3l2-1c2.4 0 6.3-2 8.5-1z" fill="#007934" fill-rule="evenodd" stroke="#000" stroke-width=".1"/>
  <path d="M303.8 216.3c2.7.3 5.5-.8 7.7-1.6" fill="#007934" stroke="#000" stroke-width=".1"/>
  <path d="M311.2 208.7c.3 0 3.4 1.6 4.6 3.7 1 1.5.7 2 .7 2s-.2 0-1.3-1c-1-1.3-3.4-3.4-4-4.7z" fill="#007934" fill-rule="evenodd" stroke="#000" stroke-width=".1"/>
  <path d="M316.5 214.2c-1-1.7-2.5-3-3.7-4.2" fill="#007934" stroke="#000" stroke-width=".1"/>
  <path d="M300.3 175.8c0-.3.3-3.4 2-4.4 1.3-.7 1.8-.5 1.8-.5s1 0 0 1-2 3-3 3z" fill="#007934" fill-rule="evenodd" stroke="#000" stroke-width=".1"/>
  <path d="M304 171c-1.4.7-2.3 2.2-3 3.4" fill="#007934" stroke="#000" stroke-width=".1"/>
  <path d="M299.4 177.4c-.2-.2-1-3-.3-4.7l1-1.4s1 0 1 1.3 0 3.7-1 4.8z" fill="#007934" fill-rule="evenodd" stroke="#000" stroke-width=".1"/>
  <path d="M300 171.4c-.6 1.4-.6 3-.6 4.4" fill="#007934" stroke="#000" stroke-width=".1"/>
  <path d="M299.4 177.5c.2 0 2.7-.8 4-2 .7-1 .7-1.4.7-1.4l-1 1c-1 1-3 2-3 3z" fill="#007934" fill-rule="evenodd" stroke="#000" stroke-width=".1"/>
  <path d="M304 174c-1 1.2-2.2 2-3.3 2.7" fill="#007934" stroke="#000" stroke-width=".1"/>
  <path d="M298.2 179.6c-.2-.2-1.3-3-1-5.2.4-1.6.7-1.7.7-1.7v7.4z" fill="#007934" fill-rule="evenodd" stroke="#000" stroke-width=".1"/>
  <path d="M298 172.7c-.5 1.7-.2 3.6 0 5" fill="#007934" stroke="#000" stroke-width=".1"/>
  <path d="M297.3 181.6c-.3-.2-2.3-3-2-5.2 0-1.7.4-2 .4-2s.4 0 .7 1.4c.3 1.6 1.2 4.3 1 5.8z" fill="#007934" fill-rule="evenodd" stroke="#000" stroke-width=".1"/>
  <path d="M295.7 174.5c-.2 1.8.5 3.7 1 5.2" fill="#007934" stroke="#000" stroke-width=".1"/>
  <path d="M296.2 184c-.2 0-2.2-2.4-2.4-4.6-.2-1.5 0-1.8 0-1.8s.4 0 .8 1.3c.5 1 1.6 3 1.6 5z" fill="#007934" fill-rule="evenodd" stroke="#000" stroke-width=".1"/>
  <path d="M294 177.7c0 1.7.8 3.4 1.4 4.8" fill="#007934" stroke="#000" stroke-width=".1"/>
  <path d="M298.2 179.6c.3 0 3.2-.2 4.6-1.7l1-2s-.2-1-1.4 0c-1 1-3.4 2-4.2 3z" fill="#007934" fill-rule="evenodd" stroke="#000" stroke-width=".1"/>
  <path d="M303.7 176.5c-1 1.2-2.7 2-4 2.5" fill="#007934" stroke="#000" stroke-width=".1"/>
  <path d="M297.3 181.6c.2 0 3.2 0 4.6-1.4 1-1 1-1.4 1-1.4s-1-.3-2 .3c-1 1-4 2-5 3z" fill="#007934" fill-rule="evenodd" stroke="#000" stroke-width=".1"/>
  <path d="M303 179c-1.2 1-2.8 1.6-4 2" fill="#007934" stroke="#000" stroke-width=".1"/>
  <path d="M296.4 184.2c.2 0 3.4-.2 5-1.7 1-1 1-1.5 1-1.5s-.2-.4-1.5.3c-2 .8-4 1.8-5 3z" fill="#007934" fill-rule="evenodd" stroke="#000" stroke-width=".1"/>
  <path d="M302.3 181c-1.2 1.3-3 2-4.3 2.5" fill="#007934" stroke="#000" stroke-width=".1"/>
  <path d="M296.8 183s-.3-.5-.3-1c0-.6.2-.8.2-.8l-.2-.2v1.2l-.6-.5-1-.4v1.7" fill="#007934" fill-rule="evenodd" stroke="#000" stroke-width=".1"/>
  <path d="M295.6 180.3a.5.4 83.5 1 1 0 1 .5.4 83.5 1 1 0-1z" overflow="visible" fill-rule="evenodd" stroke="#000" stroke-width=".1"/>
  <path d="M296.8 180.3a.4.5 19.3 1 1-.3 1 .4.5 19.3 1 1 .3-1z" overflow="visible" fill-rule="evenodd" stroke="#000" stroke-width=".1"/>
  <path d="M296.7 183l1-.7c.3-.4.3-.7.3-.7h.2l-.4.7-.2.3h.6l.5-.3-.6.5-1 .3" fill="#007934" fill-rule="evenodd" stroke="#000" stroke-width=".1"/>
  <path d="M299.4 181.6a.4.5 45.6 1 0-.8.8.4.5 45.6 1 0 .8-.8z" overflow="visible" fill-rule="evenodd" stroke="#000" stroke-width=".1"/>
  <path d="M298.4 180.8a.4.5 19.8 1 0-.3 1 .4.5 19.8 1 0 1-1z" overflow="visible" fill-rule="evenodd" stroke="#000" stroke-width=".1"/>
  <path d="M295.4 187c-.2-.3-2.4-2.7-2.8-5-.2-1.5 0-1.8 0-1.8s.3 0 .8 1.3c.6 1.5 2 4 2 5.4z" fill="#007934" fill-rule="evenodd" stroke="#000" stroke-width=".1"/>
  <path d="M292.6 180.3c.2 1.8 1.2 3.5 2 5" fill="#007934" stroke="#000" stroke-width=".1"/>
  <path d="M295.6 187c.3 0 3.5-.5 5-2.2 1-1.2 1-1.6 1-1.6s-.2-.4-1.4.5c-1.3.8-3.8 2-4.6 3.2z" fill="#007934" fill-rule="evenodd" stroke="#000" stroke-width=".1"/>
  <path d="M301.5 183.2c-1 1.4-2.8 2.2-4.2 3" fill="#007934" stroke="#000" stroke-width=".1"/>
  <path d="M295.2 189.6c.3 0 3.5-1 5-2.6 1-1.3 1-1.7 1-1.7s0-.2-1.4.7c-1.2 1-3.8 2.5-4.6 3.6z" fill="#007934" fill-rule="evenodd" stroke="#000" stroke-width=".1"/>
  <path d="M301.2 185.4c-1.2 1.4-3 2.4-4.3 3.3" fill="#007934" stroke="#000" stroke-width=".1"/>
  <path d="M295 189.6c-.3 0-3.3-2.2-3.8-4.5-.3-1 0-2 0-2s.5 0 1.2 2 2.6 4 2.7 6z" fill="#007934" fill-rule="evenodd" stroke="#000" stroke-width=".1"/>
  <path d="M291.3 183.2c.3 1.8 1.5 3.5 2.5 4.8" fill="#007934" stroke="#000" stroke-width=".1"/>
  <path d="M295.2 193c.3 0 3.4-1.5 4.6-3.6 1-1.5.7-1.8.7-1.8s-.2-.3-1.3 1c-1 1.2-3.4 3-4 4.5z" fill="#007934" fill-rule="evenodd" stroke="#000" stroke-width=".1"/>
  <path d="M300.5 187.7c-1 1.6-2.5 3-3.8 4" fill="#007934" stroke="#000" stroke-width=".1"/>
  <path d="M295 193.2c-.3 0-3.6-1.7-4.4-4-.6-1.6-.4-2-.4-2s.4-.4 1.3 1c1 1.3 3 3.5 3.5 5z" fill="#007934" fill-rule="evenodd" stroke="#000" stroke-width=".1"/>
  <path d="M290.3 187.2c.5 1.8 2 3.4 3.2 4.5" fill="#007934" stroke="#000" stroke-width=".1"/>
  <path d="M295 191.6s-.4-.5-.5-1c-.2-.6 0-1 0-1h-.3v1l.2.3-.6-1-.3-1h-.2.5c.6 0 1 1 1 1" fill="#007934" fill-rule="evenodd" stroke="#000" stroke-width=".1"/>
  <path d="M293 189a.6.4 69.4 1 1 .4 1.2.6.4 69.4 1 1-.4-1z" overflow="visible" fill-rule="evenodd" stroke="#000" stroke-width=".1"/>
  <path d="M294.3 188.7a.4.6 5.2 1 1 0 1.2.4.6 5.2 1 1 0-2z" overflow="visible" fill-rule="evenodd" stroke="#000" stroke-width=".1"/>
  <path d="M295 191.6s.6-.5.8-1c.3-.5.3-.8.3-.8h1v1.2l1-.3 1-.4v.7l-1 .7" fill="#007934" fill-rule="evenodd" stroke="#000" stroke-width=".1"/>
  <path d="M297.5 189.5a.4.6 31.5 1 0-.6 1 .4.6 31.5 1 0 0-1z" overflow="visible" fill-rule="evenodd" stroke="#000" stroke-width=".1"/>
  <path d="M296.3 189a.4.6 5.7 1 0 0 1 .4.6 5.7 1 0 0-1z" overflow="visible" fill-rule="evenodd" stroke="#000" stroke-width=".1"/>
  <path d="M295.4 196.2c-.3 0-3.8-1.8-5-4-1-1.7-1-2-1-2s.3-.4 1.5 1c1 1.3 3 3.5 4 5z" fill="#007934" fill-rule="evenodd" stroke="#000" stroke-width=".1"/>
  <path d="M289.5 190.2c1 1.8 2.8 3.3 4.2 4.6" fill="#007934" stroke="#000" stroke-width=".1"/>
  <path d="M295.7 196.2c.3 0 4-2 4.8-4.4.7-1.8.4-2.3.4-2.3s-1-.3-2 1.2c-1 1.4-4 3.8-4 5.5z" fill="#007934" fill-rule="evenodd" stroke="#000" stroke-width=".1"/>
  <path d="M301 189.6c-.8 2-2.4 3.7-3.7 5" fill="#007934" stroke="#000" stroke-width=".1"/>
  <path d="M296.6 199.2c.3 0 3.7-2.2 4.5-4.7 1-2 1-2.3 1-2.3s0-.3-1 1.3c-1 1.5-3 4-3 5.7z" fill="#007934" fill-rule="evenodd" stroke="#000" stroke-width=".1"/>
  <path d="M301.5 192.3c-.7 2-2.2 3.8-3.4 5.2" fill="#007934" stroke="#000" stroke-width=".1"/>
  <path d="M296.3 199.2c-.4 0-4.7-1.2-6.2-3.7-1-2 0-2.5 0-2.5s1-.4 2 1 5 3.5 6 5.2z" fill="#007934" fill-rule="evenodd" stroke="#000" stroke-width=".1"/>
  <path d="M289.3 193c1 2.2 3.3 3.7 5 4.8" fill="#007934" stroke="#000" stroke-width=".1"/>
  <path d="M300.2 205.7c.2-.2 2.5-3 2.7-5.6 0-1-1-2-1-2s-1 0-1 2-2 5-2 6z" fill="#007934" fill-rule="evenodd" stroke="#000" stroke-width=".1"/>
  <path d="M302.7 198c0 2-1 4-1.6 5.7" fill="#007934" stroke="#000" stroke-width=".1"/>
  <path d="M300 205.6c-.5.2-5.3 0-7.6-2-1.7-1.7-1.6-2.3-1.6-2.3s.2-.5 2 .5c2 1 5.8 2.3 7.2 3.8z" fill="#007934" fill-rule="evenodd" stroke="#000" stroke-width=".1"/>
  <path d="M290.8 201.4c1.8 1.7 4.5 2.6 6.5 3.4" fill="#007934" stroke="#000" stroke-width=".1"/>
  <path d="M298.2 203c-.4 0-4.8-1-6.8-3-1.6-1.7-1.5-2.2-1.5-2.2s0-.4 1 .8c1 1.2 5 3 6 4.5z" fill="#007934" fill-rule="evenodd" stroke="#000" stroke-width=".1"/>
  <path d="M290 198c1.5 1.6 4 3 5.8 4" fill="#007934" stroke="#000" stroke-width=".1"/>
  <path d="M298.4 203c.4-.2 3.6-2.8 4-5.6.2-2-.2-2.5-.2-2.5s-.5-1-1.2 1-2.5 4-2.6 6z" fill="#007934" fill-rule="evenodd" stroke="#000" stroke-width=".1"/>
  <path d="M302.2 195c-.2 2.2-1.5 4.3-2.5 6" fill="#007934" stroke="#000" stroke-width=".1"/>
  <path d="M297.4 201.5s-.6-.4-1-1c-.4-.3-.5-.7-.5-.7h-1v1.2h-1l-1-.4v.2l1 .4 1 .5" fill="#007934" fill-rule="evenodd" stroke="#000" stroke-width=".1"/>
  <path d="M294.2 199.8a.7.5 46 1 1 1 1 .7.5 46 1 1-1-1z" overflow="visible" fill-rule="evenodd" stroke="#000" stroke-width=".1"/>
  <path d="M295.4 198.8a.7.5 71.6 1 1 .4 1.3.7.5 71.6 1 1-.4-1z" overflow="visible" fill-rule="evenodd" stroke="#000" stroke-width=".1"/>
  <path d="M297.5 201.4s.4-.6.4-1.3h-1v2-1l-1 1-1 2" fill="#007934" fill-rule="evenodd" stroke="#000" stroke-width=".1"/>
  <path d="M299 198.2a.5.7 8 1 0 0 1.3.5.7 8 1 0 0-1.3z" overflow="visible" fill-rule="evenodd" stroke="#000" stroke-width=".1"/>
  <path d="M297.6 198a.7.5 72.2 1 0 .4 1.4.7.5 72.2 1 0-.4-1.3z" overflow="visible" fill-rule="evenodd" stroke="#000" stroke-width=".1"/>
  <path d="M301.8 207.6c-.3.2-4.3 1-6.8-.2-1.8-1-2-1.5-2-1.5s0-1 2-1c1.8 0 5.2 1 6.8 2z" fill="#007934" fill-rule="evenodd" stroke="#000" stroke-width=".1"/>
  <path d="M293 206c2 1 4.5 1.2 6.4 1.4" fill="#007934" stroke="#000" stroke-width=".1"/>
  <path d="M302 207.5c.2 0 2-2.5 2-4.8-.2-1.7-.5-2-.5-2s-.3-.2-.5 1.3c-.3 1.5-1.2 4-1 5.5z" fill="#007934" fill-rule="evenodd" stroke="#000" stroke-width=".1"/>
  <path d="M303.5 200.8c.2 1.8-.4 3.6-1 5" fill="#007934" stroke="#000" stroke-width=".1"/>
  <path d="M305.5 210.3c-.3.3-5 1.5-8 .3-2-1-2-1.5-2-1.5h2c2.2 1 6.3 1 8 2z" fill="#007934" fill-rule="evenodd" stroke="#000" stroke-width=".1"/>
  <path d="M295.5 209.2c2.2 1 5 1 7.3 1" fill="#007934" stroke="#000" stroke-width=".1"/>
  <path d="M305.8 210.3c.2-.3 1.2-3.8 0-5.6-1-1.4-1.5-1.4-1.5-1.4s-.4.2 0 1.6c.3 1 .5 4 1.5 5z" fill="#007934" fill-rule="evenodd" stroke="#000" stroke-width=".1"/>
  <path d="M304.4 203.4c1 1.4 1.2 3.4 1.3 5" fill="#007934" stroke="#000" stroke-width=".1"/>
  <path d="M303.3 208.6s-.5.5-1.2 0v-.6.2l1 .7h1-1 1l2-1" fill="#007934" fill-rule="evenodd" stroke="#000" stroke-width=".1"/>
  <path d="M299.5 208.7a.8.5 24 1 1 1.4.7.8.5 24 1 1-2-.7z" overflow="visible" fill-rule="evenodd" stroke="#000" stroke-width=".1"/>
  <path d="M300.3 207.2a.8.5 50 1 1 1 1.2.8.5 50 1 1-1-1.2z" overflow="visible" fill-rule="evenodd" stroke="#000" stroke-width=".1"/>
  <path d="M303.5 209s.4-.5 0-1.2l-.5-1 .8.8c0 .3.2.4.2.4l.2-.8v-.7h.2v1l-.5 1.5" fill="#007934" fill-rule="evenodd" stroke="#000" stroke-width=".1"/>
  <path d="M303.7 205a.8.5 69.4 1 0 .6 1.6.8.5 69.4 1 0-.6-1.5zm-1.5 1a.8.5 43.7 1 0 1 1 .8.5 43.7 1 0-1-1z" overflow="visible" fill-rule="evenodd" stroke="#000" stroke-width=".1"/>
  <path d="M308.3 212c-.3.2-4.2 2.8-7.4 2.2-3-.5-3-1-3-1s0-.7 2-1c2 0 6-1 8-.3z" fill="#007934" fill-rule="evenodd" stroke="#000" stroke-width=".1"/>
  <path d="M298.4 213c2.5.7 5.2 0 7.3-.5" fill="#007934" stroke="#000" stroke-width=".1"/>
  <path d="M310.8 212.5s-.5.8-1.3.6h-1.2l-.3 1 1.3 1h.5l-1 1h-.6v1h1.2c.2 0 1.4-1 1.4-1" fill="#007934" fill-rule="evenodd" stroke="#000" stroke-width=".1"/>
  <path d="M306.6 214a1 .6 5.4 1 1 1.7.2 1 .6 5.4 1 1-1.7 0zm.4-2a1 .6 31.2 1 1 1.5 1 1 .6 31.2 1 1-1.5-1z" overflow="visible" fill-rule="evenodd" stroke="#000" stroke-width=".1"/>
  <path d="M309.5 212.2c.2-.3.7-4-1-5.6-1-1.2-1.7-1-1.7-1s-.5 0 0 1.5c.8 2 1.5 5 2.7 6z" fill="#007934" fill-rule="evenodd" stroke="#000" stroke-width=".1"/>
  <path d="M306.8 205.6c1.4 1.2 2 3.2 2.3 4.7" fill="#007934" stroke="#000" stroke-width=".1"/>
  <path d="M311.4 213s.2-.7-.5-1.2l-2-.6v-.4l1 .6v.4-1l-1-.7v3" fill="#007934" fill-rule="evenodd" stroke="#000" stroke-width=".1"/>
  <path d="M309.7 209a1 .6 42.7 1 0 1.3 1 1 .6 42.7 1 0-1.3-1zm-1.2 1.5a1 .6 17 1 0 1.7.6 1 .6 17 1 0-1.7 0z" overflow="visible" fill-rule="evenodd" stroke="#000" stroke-width=".1"/>
  <path d="M319 209s-2.2 5.4-1.4 6c0 0 2.3-4.3 4.4-6 1-1 1.8.2 2-.7 0-1-3-2.2-3-2.2l-2 3" fill="#452c25"/>
  <path d="M319 209s-2.2 5.4-1.4 6c0 0 2.3-4.3 4.4-6 1-1 1.8.2 2-.7 0-1-3-2.2-3-2.2l-2 3" fill="none" stroke="#000" stroke-width=".2"/>
  <path d="M310.6 213s-3.4 6-2.5 6c1 .2 5-7.4 5-7.4l-1 .2v1.3z" fill="#452c25"/>
  <path d="M310.6 213s-3.4 6-2.5 6c1 .2 5-7.4 5-7.4l-1 .2v1.3z" fill="none" stroke="#000" stroke-width=".1"/>
  <path d="M311.6 211.5s-3.6 5.8-2.7 6l4-7.5-2 .2-1 1.3z" fill="#452c25"/>
  <path d="M311.6 211.5s-3.6 5.8-2.7 6l4-7.5-2 .2-1 1.3z" fill="none" stroke="#000" stroke-width=".1"/>
  <path d="M312.3 210.5s-4 5.4-3.2 5.6c1 1 6-6 6-6h-1l-1 2z" fill="#452c25"/>
  <path d="M312.3 210.5s-4 5.4-3.2 5.6c1 1 6-6 6-6h-1l-1 2z" fill="none" stroke="#000" stroke-width=".1"/>
  <path d="M313.4 209.5s-4.7 5-4 5.2c1 .3 6.3-6.2 6.3-6.2h-1.2l-1 1z" fill="#452c25"/>
  <path d="M313.4 209.5s-4.7 5-4 5.2c1 .3 6.3-6.2 6.3-6.2h-1.2l-1 1z" fill="none" stroke="#000" stroke-width=".1"/>
  <path d="M313.6 207.7s-4.2 5.4-3.3 5.6c1 .2 5.5-6.8 5.5-6.8h-1.3l-1 1.2z" fill="#452c25"/>
  <path d="M313.6 207.7s-4.2 5.4-3.3 5.6c1 .2 5.5-6.8 5.5-6.8h-1.3l-1 1.2z" fill="none" stroke="#000" stroke-width=".1"/>
  <path d="M312.5 212.4s-4 5.5-3.2 5.6c1 .2 5.4-7 5.4-7h-1.3l-1 1.4z" fill="#452c25"/>
  <path d="M312.5 212.4s-4 5.5-3.2 5.6c1 .2 5.4-7 5.4-7h-1.3l-1 1.4z" fill="none" stroke="#000" stroke-width=".1"/>
  <path d="M314.8 211.3s-2.4 4.5-2 4.6c.2 0 3-3 4.5-6 1.4-3-2.6 0-2.6 0" fill="#452c25"/>
  <path d="M314.8 211.3s-2.4 4.5-2 4.6c.2 0 3-3 4.5-6 1.4-3-2.6 0-2.6 0" fill="none" stroke="#000" stroke-width=".1"/>
  <path d="M315 211s-2.3 5.3-1.5 5.8c0 0 3-3.2 3.7-6 .8-2.5 0 0 0 0l-.2-3-2 2.8" fill="#452c25"/>
  <path d="M315 211s-2.3 5.3-1.5 5.8c0 0 3-3.2 3.7-6 .8-2.5 0 0 0 0l-.2-3-2 2.8" fill="none" stroke="#000" stroke-width=".2"/>
  <path d="M313.8 210.4s-4.7 4.8-4 5c1 .4 6.4-6 6.4-6H315l-1.2 1z" fill="#452c25"/>
  <path d="M313.8 210.4s-4.7 4.8-4 5c1 .4 6.4-6 6.4-6H315l-1.2 1z" fill="none" stroke="#000" stroke-width=".1"/>
  <path d="M314.2 211s-4.7 5-4 5.2c1 .3 6.3-6.2 6.3-6.2h-1.2l-1 1z" fill="#452c25"/>
  <path d="M314.2 211s-4.7 5-4 5.2c1 .3 6.3-6.2 6.3-6.2h-1.2l-1 1z" fill="none" stroke="#000" stroke-width=".1"/>
  <path d="M314.6 211.8s-4.8 5-4 5.2c1 .3 6.3-6.2 6.3-6.2h-2l-1 1z" fill="#452c25"/>
  <path d="M314.6 211.8s-4.8 5-4 5.2c1 .3 6.3-6.2 6.3-6.2h-2l-1 1z" fill="none" stroke="#000" stroke-width=".1"/>
  <path d="M315 205s-3.6 4.6-3 5.4c.4.8 3.6-2 4.7-4 1-2-1.7-1.4-1.7-1.4" fill="#452c25"/>
  <path d="M315 205s-3.6 4.6-3 5.4c.4.8 3.6-2 4.7-4 1-2-1.7-1.4-1.7-1.4" fill="none" stroke="#000" stroke-width=".1"/>
  <path d="M314.8 210s-3 5.7-2.2 5.4c.8-.4 3.8-4.7 4.2-5.7.3-1 .2-2 .2-2l-2.4 1.5.2 1" fill="#452c25"/>
  <path d="M314.8 210s-3 5.7-2.2 5.4c.8-.4 3.8-4.7 4.2-5.7.3-1 .2-2 .2-2l-2.4 1.5.2 1" fill="none" stroke="#000" stroke-width=".1"/>
  <path d="M314.8 208s2.5-4.6 0 1c-2.5 5.3-3.4 4.4-3.4 4.4-.2-.3 2.2-4 2.2-4s1.7-2.8 2-3" fill="#452c25"/>
  <path d="M314.8 208s2.5-4.6 0 1c-2.5 5.3-3.4 4.4-3.4 4.4-.2-.3 2.2-4 2.2-4s1.7-2.8 2-3" fill="none" stroke="#000" stroke-width=".1"/>
  <path d="M317.5 207.4s2.8-4.6 0 1c-2.8 5.3-4 4.4-4 4.4 0-.3 2.6-4 2.6-4s2-2.8 3-3" fill="#452c25"/>
  <path d="M317.5 207.4s2.8-4.6 0 1c-2.8 5.3-4 4.4-4 4.4 0-.3 2.6-4 2.6-4s2-2.8 3-3" fill="none" stroke="#000" stroke-width=".1"/>
  <path d="M316.5 205.5s-3.5 4.5-3 5.2c.5.8 3.7-2 4.7-4s-1.7-1.4-1.7-1.4" fill="#452c25" stroke="#000" stroke-width=".1"/>
  <path d="M352.8 251a32.8 37 0 1 1-65.6 0 32.8 37 0 1 1 65.6 0z" fill="#e8a30e"/>
  <path d="M293.7 251c0-17 12-30.2 26.3-30.2 14.2 0 26.3 13 26.3 30.3" style="line-height:normal;-inkscape-font-specification:Sans;text-indent:0;text-align:start;text-decoration-line:none;text-transform:none;block-progression:tb" font-weight="400" overflow="visible" color="#000" font-family="Sans" fill="none" stroke="#390" stroke-width=".8"/>
  <path d="M287.2 253c1 19.5 15.3 35 32.8 35 17.5 0 32-15.5 32.8-35h-65.6z" fill="#007934" stroke="#eee" stroke-width=".1"/>
  <path d="M352.8 251a32.8 37 0 1 1-65.6 0 32.8 37 0 1 1 65.6 0z" fill="none" stroke="#000" stroke-width=".4"/>
  <path d="M314.5 225.4c-.4 1.4 0 2.5.7 3.6.6 1 1 1.8 1 2.7a8 8 0 0 0-.8.5l-5.6-3.7 3.8 5.5a8 8 0 0 0-.2.2c-1-.4-2-.5-3-.3-1.4 0-2.5-1-3.7-1 .8 1 2 2 3 2s2 0 2.7 1a8 8 0 0 0-.2 1l-6.6 1 6.6 1c-1 0-1.8 1-2.4 2-.7 1-1.7 1-3 2 1.3 0 2.5 0 3.6-1 .8-1 1.7-1 2.7-1l1 1-3 5 6-4h1v3c0 1 0 2-1 3 1-1 2-2 2-3l2-3h1l2 6 2-7h1c1 1 1 2 2 2 1 1 2 2 2 3 1-2 0-3 0-4-1-1-1-2-1-3 0 0 1 0 1-1l6 4-4-6h3c2 0 3 0 4 1-1-1-2-2-3-2s-2-1-2-1v-1l7-1-6-1c1-1 2-1 3-2s2-2 3-2c-1-1-3 0-4 0h-3a8 8 0 0 0 0-1l4-6-5 3c1-1 1-2 1-3 0-2 0-3 1-4-1 0-1 2-2 3 0 1 0 2-1 2a8 8 0 0 0-1 0l-1-7-1 6h-1c0-1-1-2-2-3s-2-2-2-3z" overflow="visible" fill="#d52b1e" stroke="#000" stroke-width=".1"/>
  <use height="330" width="330" transform="matrix(.13 .05 -.05 .13 333.99 232.71)" fill="#fcbf49" stroke-width="1.1"/>
  <use height="330" width="330" transform="matrix(-.14 0 0 .14 333.96 232.69)" fill="#fcbf49" stroke-width="1.1"/>
  <path d="M325.8 236.7c-1.6-1.4-3.7-1.6-4.8-.6-.8 2-.8 3 .2 4a.5.5 0 0 0-.3 0c-1-1-1-2-1-4 1-1 3-1 5 1"/>
  <path d="M323.3 236.3c-1 0-1.2.2-1.6.5-.4.4-.6.3-.7.4v.2c.3 0 .6-.2 1-.6.4-.3 1-.3 1.3-.3 1.3 0 2 1 2 1 .3 0-.6-1.2-2-1.2"/>
  <path d="M325 237.5c-1-1-2.7-1-3.4 0h.3c0-1 2-.6 2 0"/>
  <circle r=".6" cy="237.4" cx="323.1"/>
  <path d="M321.6 237.6c.7.6 2.3.7 3.3 0l-1-.2c-1 .8-2 .7-3 .2v-.2"/>
  <path d="M325 237.8c-1.2 1-2.4 1-3 .5-1-.5-1-.6-.7-.6 0 0 .3 0 .8.4 1 1 2 1 3 0m-3 2a.4.4 0 1 1 0 1s0 1-1 1v1h1a.6.6 0 1 0 1-1m1 3c-1 0-1-1-2-1v1h2l2 1m0 0h-2v1h2m-1-2c-1 0-1 1-2 1v1c2 0 1-1 3-1m-9-6c2-1 4-1 5 0 1 2 1 3 0 4a.5.5 0 0 1 1 0c1-1 1-2 1-4-1-1-3-1-5 1m0-3c1 0 1 0 2 1l1 1a4 4 0 0 1-1 0h-1c-1 0-2 1-2 1s1-1 2-1m-2 0c1-1 3-1 4 0 0-1-2 0-2 0"/>
  <circle transform="scale(-1 1)" r=".6" cy="237.4" cx="-316.9"/>
  <path d="M318.4 237.6c-.7.6-2.3.7-3.3 0l1-.2c1 .8 2 .7 3 .2v-.2"/>
  <path d="M315 237.8c1.2 1 2.4 1 3 .5 1-.5 1-.6.7-.6 0 0-.3 0-.8.4-1 1-2 1-3 0m3 2a.4.4 0 1 0 0 1s0 1 1 1v1h-1a.6.6 0 1 1-1-1m-1 3c1 0 1-1 2-1v1h-2l-2 1m0 0h2v1h-2m1-2c1 0 1 1 2 1v1c-2 0-1-1-3-1"/>
  <path d="M323.2 258.4c1.6.2 3.3.2 4.7-.3h4-2l-3-2h-1c2 3 7 2 12 1h6l-2-1c-1 0-3 0-3-1l-5-3h-1c-1 0 0 0-5-4-5-2-4-3-7-4-1 0-2-1-3-1-2 1-5 2-7 3l-4 3c-1 1-4 3-7 5l-9 5c8 0-7 3 29 5z" fill="#007934" stroke="#000" stroke-width=".1" stroke-linecap="round"/>
  <path d="M303.3 249c2-1 10-5.3 12.4-8.4-.4 0 .6 1 .5 1.3.8 0 .4-1 1-1 .5 0 1 0 1.3-1h.2c-.7 1-2 2-3.2 3h1.4v-1c-1 0-2 0-2 1-1 0-1 1-2 1 0-1 1-1 1-1 1 0 1-1 2-1s1-1 2-2c0 0-1 0-1 1l-3 2h-1c-1 0-1 1-1 1-1 1-2 2-2 3l-1 1c-1 0-5 3-5 3 0-2-4 1-13-2m31 0h-1c0-1-1-1-1-1 1 0 2 1 2 0h-1l-1-1h3c0-1 1-1 1-1h1-3 3v-1c0-1 1-1 1-1v1h2c0-1-1-1-1-1h1v1h1c0 1-1 1-1 1h-1v1h1l1-1h-1c-1 0 0 0 0-1s1 0 1 0-1-1 0-1h1-1c0 1-1 1 0 1v1c0 1 1 1 1 1 0-1 1 0 2-1-1 0-1-1 0-1s3 0 4 1h-4s-2 1-4 1c-1 0-1-1-2-1m-12-1" fill="#007934" stroke="#000" stroke-width=".1"/>
  <path d="M321.2 259c2 0 2.2 1.5 3.5.2 1 .2 2.2 0 2.2-.3 2 0 11-1 10-1-1-1-3-2-4-2 0-1-1-1-1-1-1 0-2 0-2-1l-3-2-1-2-2-1c-1-1-2-1-2-2-1 0-1 0-1-1-1 0-2-1-2-1-1 0-2 1-3 2-1 0-2 1-2 1-1 0-3 1-6 3-3 1-6 2-7 2 0 0 2 1 8 1l3 1h6z" fill="#007934" stroke="#000" stroke-width=".1"/>
  <path d="M309.8 254.8c1.2-.6 6-3 7.4-4.5-.2 0 .5.5.4.7.5 0 .2-.4.6-.5h.8c.3-.2 0 0 0 0-.3.7-1.2 1-2 1.6l.3 1h.7c.3 0 .2 1 0 1 0 1-.8 1-1 1l-1 1h2.4l1.4-1c-.2 0-.5 1-.4 1 0 0 .2 1 .4 0-.4 1-1.3 1-1.5 2h-.6c-.3 0-.2 1-.4 1-.7 0-1 1-1.4 2l-1 1c-1 0-3 2-3 2 0-1-3 1-8-1" fill="#007934" stroke="#000" stroke-width=".1"/>
  <path overflow="visible" font-weight="400" style="line-height:normal;-inkscape-font-specification:Sans;text-indent:0;text-align:start;text-decoration-line:none;text-transform:none;block-progression:tb" d="M320 214.2c-18 0-32.8 16.5-32.8 37 0 20.3 14.7 36.8 32.8 36.8 18 0 32.8-16.5 32.8-37 0-20.3-14.7-36.8-32.8-36.8zm0 8.2c13.2 0 24.7 12.3 24.7 28.7 0 17-11.5 29-24.7 29s-24.7-12-24.7-28 11.5-29 24.7-29z" color="#000" font-family="Sans" fill="#00a6de" stroke="#000" stroke-width=".1"/>
  <path d="M324.7 266.8c0 .2 0 .2-.4.3h-.5 1z" fill="#e8a30e"/>
  <path d="M324.8 266.8l-.5.2h-.5c0-.2.2-.2.5-.3h.5zm-2.8 9c.8-2.2 1-3.8-.2-6 2-2 3.3-1.2 4.6 0-1.2 2.3-1 4-.2 6-1.5.8-2.8.7-4.2 0z" fill="#e8a30e"/>
  <path d="M324 268.6v7.8c0-2.6.2-5 0-7.8z" fill="#e8a30e"/>
  <path d="M324.4 268.6c-.3 2.4-.4 4.8-.4 7.8h.2c0-3 0-5.4.4-7.7h-.2zm.7-2.4v1c1-.3 1-.5 1-1zm0 .2c0 .3 1 .4 1 1v-1zm0 .6c0 .3 1 .3 0 1v-1zm0 .4c0 .2 1 .4 1 1v-1z" fill="#e8a30e"/>
  <path d="M324 268c.3 0 .7.2.4.8-.4-.3-.2-.4-.4-1z" fill="#e8a30e"/>
  <path d="M324 268.4c.2.2.6.3.4 1-.3-.4-.4-.4-.4-1zm1.3-1.7c-.2.2-.6 0-.6.8.5-.3.5-.3.6-.8z" fill="#e8a30e"/>
  <path d="M325.3 267c-.2.3-.7.3-.7 1 .6-.4.6-.4.7-.8z" fill="#e8a30e"/>
  <path d="M325.2 267.6c-.2 0-.6 0-.7.7.6-.3.6-.2.7-.7z" fill="#e8a30e"/>
  <path d="M325.2 268c-.2.2-.7 0-.7.8.4 0 .4-.3.7-.7z" fill="#e8a30e"/>
  <path d="M325 268.6c-.3 0-.5 0-.6.7.5-.3.4-.2.5-.7zm.2.3c-.7 2-.8 4-.7 7 0-4 .2-5 1-8a2.8 2.8 0 0 0-.3 0zm1.2-3c-.4 0-.6 0-.5 1v-1zm-.8 0c.2 0 .5 0 .2 1-.4-1-.3-1-.2-1zm-.2 1c.3 0 .5 0 .2 1l-.2-1z" fill="#e8a30e"/>
  <path d="M325.3 267.7c0 .3.4.4 0 1-.2-.4-.2-.4 0-1z" fill="#e8a30e"/>
  <path d="M325 268c.3.4.6.6.2 1-.3-.3 0-.4-.2-1z" fill="#e8a30e"/>
  <path d="M325 268.6c0 .3.4.5 0 1-.2-.4-.2-.4 0-1zm1.5-1.4c-.2.2-.6 0-.7.7l.7-1z" fill="#e8a30e"/>
  <path d="M326.4 267.7c-.2 0-.6 0-.8.5.6 0 .6 0 .8-.5z" fill="#e8a30e"/>
  <path d="M326.3 268c-.3 0-.7 0-1 .6.7 0 .7 0 1-.6z" fill="#e8a30e"/>
  <path d="M326 268.6s-.5-.2-.7.5h.8z" fill="#e8a30e"/>
  <path d="M325.8 269c-.3 0-.5 0-.7.6 1-.2 1 0 1-.6zm0 .4c-.8 2-1 3.6-.5 6.8h.2c-.5-3-.3-4.8.5-6.7zm1.7-2.2c-.5.2-.7.2-.7.8.5-.2.5-.4.7-.8z" fill="#e8a30e"/>
  <path d="M326.7 267.2c0 .3.4.5 0 1-.3-.5-.2-.5 0-1z" fill="#e8a30e"/>
  <path d="M326.4 267.7c.2.3.4.5 0 1 0-.5-.2-.5 0-1z" fill="#e8a30e"/>
  <path d="M326.2 268c0 .3.4.5 0 1-.3-.4-.2-.4 0-1z" fill="#e8a30e"/>
  <path d="M326 268.5c0 .3.4.5 0 1-.3-.5 0-.5 0-1z" fill="#e8a30e"/>
  <path d="M325.7 269c.2.2.5.4 0 1 0-.5-.2-.6 0-1zm1.8-1.2c-.2 0-.6 0-.8.5.6 0 .5 0 .8-.5z" fill="#e8a30e"/>
  <path d="M327.3 268.2c-.2 0-.6 0-.8.4.6 0 .6 0 .8-.4z" fill="#e8a30e"/>
  <path d="M327 268.5s-.5 0-.7.5c.6 0 .5 0 .8-.5z" fill="#e8a30e"/>
  <path d="M327 269c-.3 0-.7-.3-1 .4.5 0 .5 0 1-.4z" fill="#e8a30e"/>
  <path d="M326.5 269.4c-.3 0-.4 0-.7.5l.7-1zm-3-.7c.2 2.4.4 4.8.4 7.7 0-3 0-5.4-1-7.7zm-.6-2.6v1c-1 0-1 0-1-1zm0 1c-1 0-1 1-1 1v-1zm0 0l-1 1zm0 1l-1 1v-1z" fill="#e8a30e"/>
  <path d="M324 268c-.3 0-.7.2-.5.8.5-.3.2-.4.4-1z" fill="#e8a30e"/>
  <path d="M324 268.4c-.3.2-.6.3-.4 1 .3-.4.4-.5.4-1zm-1.3-1.8c.2.2.6.2.6.8-.5-.3-.5-.2-.6-.7z" fill="#e8a30e"/>
  <path d="M322.7 267c.2.2.6.2.6.8-.5-.3-.5-.2-.6-.7z" fill="#e8a30e"/>
  <path d="M322.8 267.5c.2.2.6.2.6.8-.5-.3-.5-.3-.6-.8z" fill="#e8a30e"/>
  <path d="M322.8 268c.2 0 .7 0 .7.8-.4 0-.4-.4-.7-.8z" fill="#e8a30e"/>
  <path d="M323 268.5c.3.2.5 0 .5.8-.4-.3-.4-.3-.5-.8zm-.2.5c.5 2 .8 4 .7 7.3h.2c0-3.3-.2-5.2-1-7.3zm-1.2-2.4c.4.3.6.3.5.8v-.8z" fill="#e8a30e"/>
  <path d="M322.4 266.7c-.2.3-.5.4-.2 1 .3-.4.3-.4.2-1z" fill="#e8a30e"/>
  <path d="M322.5 267.3c-.2.3-.4.4 0 1 0-.5.2-.5 0-1z" fill="#e8a30e"/>
  <path d="M322.7 267.6c-.2.3-.5.5 0 1 .2-.4 0-.4 0-1z" fill="#e8a30e"/>
  <path d="M323 268c-.3.4-.6.5-.3 1 .4-.4 0-.4.2-1z" fill="#e8a30e"/>
  <path d="M323 268.6c0 .2-.5.4 0 1 0-.4.2-.5 0-1zm-1.5-1.5c.2 1 .6 1 .7 1h-.7z" fill="#e8a30e"/>
  <path d="M321.6 267.6c.2 0 .6 0 .7.5h-.7z" fill="#e8a30e"/>
  <path d="M321.7 268c.2 0 .7 0 .8.6-.6-.2-.6-.2-.8-.7z" fill="#e8a30e"/>
  <path d="M322 268.5s.5-.2.7.6h-.8z" fill="#e8a30e"/>
  <path d="M322.2 269c.3 0 .4 0 .6.5-.4-.2-.4 0-.6-.6zm0 .5a4 4 0 0 0-.2 0c1 2 1 3.6.7 6.6l.2 1c0-3 0-4-1-6zm-1.7-2.5c.5.3.6.2.7.8-.5 0-.5-.3-.7-.8z" fill="#e8a30e"/>
  <path d="M321.3 267c0 .3-.4.5 0 1 .3-.4.2-.4 0-1z" fill="#e8a30e"/>
  <path d="M321.6 267.6c-.2.3-.5.4 0 1 0-.5.2-.5 0-1z" fill="#e8a30e"/>
  <path d="M321.8 268c-.2.2-.4.4 0 1 .2-.5.2-.5 0-1z" fill="#e8a30e"/>
  <path d="M322 268.4c0 .3-.4.5 0 1 .3-.5 0-.5 0-1z" fill="#e8a30e"/>
  <path d="M322.3 268.8c-.2.3-.5.5 0 1v-1zm-1.8-1.2c.2 0 .6 0 .8.5h-.8z" fill="#e8a30e"/>
  <path d="M320.6 268c.3 0 .7 0 1 .5-.7 0-.7 0-1-.5z" fill="#e8a30e"/>
  <path d="M320.8 268.4c.3 0 .7 0 1 .5l-1-1zm.2.6c.3 0 .7-.4 1 .4-.5 0-.5-.3-1-.5z" fill="#e8a30e"/>
  <path d="M321.4 269.3c.3 0 .5 0 .7.5v-.5zm2.2-3.2c.3 1 .5 1 .3 1-1 0-1 0-1-1z" fill="#e8a30e"/>
  <path d="M324.3 266.4c-.2.2-.5.3-.4 1v-1z" fill="#e8a30e"/>
  <path d="M324.4 267c-.3.2-.6.3-.5.8v-.7zm0 .4c-.2.2-.5.3-.4 1 .4-.4.4-.4.4-1z" fill="#e8a30e"/>
  <path d="M324.5 268c-.3 0-.6.2-.5.8.5-.3.3-.4.5-1z" fill="#e8a30e"/>
  <path d="M324.5 268.4c-.2.2-.6.3-.4 1 1-.4 1-.4 1-1zm-1.2-1.8c.2.2.6.2.6.8-1-.3-1-.3-1-.8z" fill="#e8a30e"/>
  <path d="M323.3 267c.2.2.6.2.6.8-1-.3-1-.3-1-.8z" fill="#e8a30e"/>
  <path d="M323.4 267.4c.2.2.6.2.6 1-.5-.5-.5-.4-.6-1z" fill="#e8a30e"/>
  <path d="M323.4 268c.2 0 .7 0 .6.8-.4-.2-.3-.4-.6-.8z" fill="#e8a30e"/>
  <path d="M323.6 268.5c.2 0 .4 0 .4.8-.4-.4-.4-.3-.4-.8zm-.4.3c.4 2.5.6 4.7.5 7.5.2-2.5 0-5-.5-7.5zm-1-2.4c.4.4.6.3.5 1-.4-.3-.4-.5-.5-1z" fill="#e8a30e"/>
  <path d="M323 266.6c-.2.2-.5.4-.2 1 .3-.4.3-.4.2-1z" fill="#e8a30e"/>
  <path d="M323 267.2c0 .3-.4.3 0 .8 0-.3.2-.3 0-.8z" fill="#e8a30e"/>
  <path d="M323.3 267.5c-.2.3-.5.4-.2 1 1-.4 1-.4 1-1z" fill="#e8a30e"/>
  <path d="M323.5 268c-.3.3-.6.4-.3 1 .4-.4 0-.5.3-1z" fill="#e8a30e"/>
  <path d="M323.6 268.5c-.2.2-.6.4-.3 1 .3-.4.3-.4.3-1zM322 267c.2 0 .6 0 .7.6-.5-.2-.5 0-.6-.6z" fill="#e8a30e"/>
  <path d="M322 267.4c.3 0 .8 0 1 .6-.7-.2-.7 0-1-.6z" fill="#e8a30e"/>
  <path d="M322.3 267.8c.2 0 .6 0 .7.7-.6-.3-.6-.2-.7-.7z" fill="#e8a30e"/>
  <path d="M322.4 268.3c.2 0 .6 0 .7.7v-.7z" fill="#e8a30e"/>
  <path d="M322.7 268.8c.3 0 .4 0 .6.6-.5-.2-.5 0-.6-.6zm-.8 1a2.5 2.5 0 0 0-1 0c0 1.3 1 2.5 1 3.6 0 .8 0 1.6-1 2.5 0-3 0-5-1-7zm0-.6c0 2.2 1 4.2 0 7 0-2.8 0-5-1-7zm-2-2.4v.8c-1 0-1-.3-1-.8zm1 .2s-1 .3 0 1v-1zm0 .5c0 .2-1 .3 0 .8v-.8zm0 .3c0 .2-1 .4 0 1v-1zm0 .4c0 .3-1 .5 0 1v-1z" fill="#e8a30e"/>
  <path d="M322.7 268.7c-.2.2-.5.5 0 1 0-.4.2-.5 0-1zm-1.7-1.3c.2 0 .6 0 .8.5l-.8-1zm0 .4c.4 0 .8 0 1 .5-.6 0-.6 0-1-.5z" fill="#e8a30e"/>
  <path d="M321.3 268.2c.2 0 .7 0 1 .5-.7 0-.7 0-1-.5z" fill="#e8a30e"/>
  <path d="M321.5 268.7c.2 0 .6-.3 1 .5-.6 0-.6-.3-1-.5z" fill="#e8a30e"/>
  <path d="M322 269c.2 0 .3 0 .5.6-.4 0-.4 0-.6-.5zm-2-1.6c.4.2.6.2.7.7h-.7z" fill="#e8a30e"/>
  <path d="M320.7 267.4c0 .3-.3.5.2 1 0-.5 0-.5-1-1z" fill="#e8a30e"/>
  <path d="M321 268c0 .2-.3.4 0 .8.2-.4.3-.4 0-1z" fill="#e8a30e"/>
  <path d="M321.3 268.2c0 .3-.3.5 0 1 .3-.5.3-.5 0-1z" fill="#e8a30e"/>
  <path d="M321.6 268.6c0 .3-.4.5 0 1 .3-.6 0-.5 0-1z" fill="#e8a30e"/>
  <path d="M322 269c-.2.3-.5.6 0 1v-1zm-2-1c.2 0 .6 0 1 .4-.7 0-.7 0-1-.4z" fill="#e8a30e"/>
  <path d="M320.2 268.4c.2 0 .6-.2 1 .4-.7 0-.7 0-1-.4z" fill="#e8a30e"/>
  <path d="M320.5 268.7c.2 0 .6 0 1 .4-.7 0-.7 1-1 0z" fill="#e8a30e"/>
  <path d="M320.7 269.2c.2 0 .6-.3 1 .4-.5 0-.5-.2-1-.4z" fill="#e8a30e"/>
  <path d="M321 269.5c.5 0 .6 0 1 .5-.6 0-.6 0-1-.5zm4-.7c-.7 2.4-.8 5-.8 7.6a2.5 2.5 0 0 0 .2 0c0-3 0-5.2.7-7.5a2.8 2.8 0 0 0 0-1zm1-2.3c-.5.3-.6.3-.6 1 .4-.3.5-.5.5-1zm-.8 0c0 .4.4.6 0 1-.2-.3 0-.3 0-1z" fill="#e8a30e"/>
  <path d="M325 267.3c.2.2.5.3.2.8h-.2z" fill="#e8a30e"/>
  <path d="M325 267.6c0 .2.3.4 0 1-.3-.4-.2-.5 0-1z" fill="#e8a30e"/>
  <path d="M324.7 268c.2.3.5.5.2 1-1-.4-1-.5-1-1z" fill="#e8a30e"/>
  <path d="M324.5 268.5c.2.3.6.5.3 1-.3-.4-.3-.4-.3-1zm1.6-1.5v.7c1-.2 1-.2 1-.6zm0 .5v.6h1zm0 .5l-1 .5c1-.2 1 0 1-.6z" fill="#e8a30e"/>
  <path d="M325.7 268.4c-.2 0-.6-.2-.7.6.4 0 .4-.3.7-.6z" fill="#e8a30e"/>
  <path d="M325.4 268.8c-.2 0-.4 0-.5.7v-.7zm.2.4c-1 2-1 4-.8 7h.2c-.2-3 0-5 .8-7a4 4 0 0 0-.2 0zm1.5-2.3c1 0 1-1 1-1zm0 0s1 0 0 1v-1zm0 0c1 0 1 0 0 1v-1zm0 0s1 0 0 1v-1z" fill="#e8a30e"/>
  <path d="M325.6 268.3c.2.3.5.5 0 1-.2-.5 0-.5 0-1z" fill="#e8a30e"/>
  <path d="M325.4 268.7c.2.3.5.5 0 1v-1zm1.7-1.2v.5c1 0 1 0 1-.5zm0 .5v.4c1 0 1 0 1-.5zm0 .3l-1 .5c1 0 1 0 1-.5z" fill="#e8a30e"/>
  <path d="M326.6 268.8c-.2 0-.6-.3-1 .5.6 0 .6-.3 1-.5z" fill="#e8a30e"/>
  <path d="M326.3 269.2c-.4 0-.5 0-.7.5.4 0 .4 0 .6-.5zm0 .5c-1 2-1 4-.6 6.3h.2c-1-1-1-2-1-3s0-2 1-3.2zm2-2c-.6 0-.8 0-1 .6.6 0 .7-.3 1-.7z" fill="#e8a30e"/>
  <path d="M327.4 267.5c0 .3.3.6-.2 1-.2-.5 0-.5.2-1z" fill="#e8a30e"/>
  <path d="M327 268c.2.3.4.5 0 1 0-.5-.2-.5 0-1z" fill="#e8a30e"/>
  <path d="M326.8 268.3c0 .3.3.5 0 1-.3-.5-.3-.5 0-1z" fill="#e8a30e"/>
  <path d="M326.5 268.7c0 .3.4.6 0 1-.3-.6 0-.5 0-1zm-.3.3c0 .4.4.7 0 1-.2-.4-.2-.4 0-1zm2-.8c-.3 0-.7-.2-1 .4.6 0 .6 0 1-.4z" fill="#e8a30e"/>
  <path d="M328 268.6c-.3 0-.7-.2-1 .3.6 0 .6 0 1-1z" fill="#e8a30e"/>
  <path d="M327.7 269c-.3 0-.7-.3-1 .3.7 0 .6 0 1-.4z" fill="#e8a30e"/>
  <path d="M327.4 269.4c-.2 0-.6-.4-1 .3.5 0 .5-.2 1-.3zm-.4.3c-.3 0-.5 0-.8.4h.8zm-3.5 2.7h1c.8 0 1.4.2 1.4.4s-1 .3-2 .3h-2 1z" fill="#e8a30e"/>
  <path d="M322.7 272.4l-.4.6h.4l.4-.6zm1 0l-.5.7h.8-.4zm.8 0l-.4.7h2zm.8 0l-.3.7h.7a.3.3 0 0 0-.2 0h-.2z" fill="#e8a30e"/>
  <path d="M316.5 268.8l.5 2.7.2.2v1.2c.3 0 .3 1 .5 1h.7-1v-1c-.3 0-.3-1-.3-1v-1l-1-3m-6-1h2v3s0 1 1 2h3v-3l1-2v-2l-1-2v-1m-2-1c-3 1-2 3-1 3m9-8l1-1v-1l-1 1" fill="#e7e7e7" stroke="#000" stroke-width=".1"/>
  <path d="M319.2 262.4h.4v-.3H317c-1 0-1 1-2 2 0 0 0 2-1 3v1h-4.7c-.8 0-1.8 1-1.8 1s-1 1-1.4 2v1c1 3 2 0 3 0s2 2 3 2c4 1 6-1 5-6h2" fill="#e7e7e7" stroke="#000" stroke-width=".1"/>
  <path d="M317.2 261l.5-1v-.4l-1 1m-8.8 7.6v1.8c0 .4-1 .6-1 .6v.2c-1 0-1 .3-1 .5a1.3 1.3 0 0 0 0 .6v3-3a8.3 8.3 0 0 1 0-1v-1l1-1 1-1v-1a.5.5 0 0 0 0-1 3.8 3.8 0 0 0 0-1 3.2 3.2 0 0 0-1-1m6 2c-1 0-2 0-2 1v2h-1s0 1-1 1l-1 1h-1v-7m4-6h1m0-1z" fill="#e7e7e7" stroke="#000" stroke-width=".1"/>
  <path d="M317.8 261.4c.2.3.4.3.6 0-.2-.2-.4 0-.5 0h-1z"/>
  <path d="M329 273a2 2 0 0 0 0 .7v.7a2 2 0 0 0 0 .7 2 2 0 0 0 0 1h1.3v-3a2.3 2.3 0 0 0 0-1 2.2 2.2 0 0 0 0-1v-1a2.4 2.4 0 0 0 0-1v-3a2.3 2.3 0 0 0 0-1 3.2 3.2 0 0 0 0-1 3 3 0 0 0 0-1v-1a2.7 2.7 0 0 0 0-1v-2h-1v1a2.3 2.3 0 0 0 0 1v1a2.7 2.7 0 0 0 0 1 2.6 2.6 0 0 0 0 1 3 3 0 0 0 0 1v3a2.5 2.5 0 0 0 0 1v3a2.4 2.4 0 0 0 0 1 2.6 2.6 0 0 0 0 1 2.2 2.2 0 0 0 0 1 2 2 0 0 0-.2 1 2.3 2.3 0 0 0 0 1z" fill="#e7e7e7" fill-rule="evenodd" stroke="#000" stroke-width=".1"/>
  <path d="M329 273.6c.4.2 1.2.2 1.3 0m-1.2-.7h2m-1-1h1m-1-1h1m-1-1h1m-1-1h1m-1-1h1m-1-1h1m-1-1h1m-1-1h1m-1-1h1m-1-1h1m-1-1h1m-1-1h1m-1-1h1m-1-1h1m-1-1h1m-1-1h1m-1-1h1m-1-1h1m-1 15h2m-1 1h2" fill="#e7e7e7" fill-rule="evenodd" stroke="#000" stroke-width=".1" stroke-linejoin="round"/>
  <path d="M331.5 257h2a13.7 13.7 0 0 0-.7-.3h2.2a5 5 0 0 0-1-.5h2.2c-.3 0-.6-.3-1-.4 1 0 1.2 0 2 .2a2.6 2.6 0 0 0-1-.5c1-.2 1.7-.2 2.6-.2-2.7-1.2-6-.6-8 .8l1-1a2.5 2.5 0 0 0-.7 0l2-1h2a3 3 0 0 0-1 0c1 0 1-1 2-1a4 4 0 0 0-1 0l2-1c-3 1-5 3-5 5-1-2-3-3-6-3l3 1a4.4 4.4 0 0 0-1 0l2 1a3.4 3.4 0 0 0-1 1c1 0 2 1 2 1 1 0 1 1 2 1l1 1c-2 0-5 0-7 3l2-1v1l2-1a4.8 4.8 0 0 0 0 1l2-1v1h2v1h1c-1 1-3 3-3 6l1-2v1l1-2v1l1-2v1l1-2v1l1-1 1-1v2c1 0 1-1 1-1v2-1l1 3v-1l1 2c1-3-1-5-2-6l1 1a5 5 0 0 0-1-1l1 2v-1l2 2a5.4 5.4 0 0 0 0-1l2 2v-1c0 1 1 1 1 2 0-2-3-5-6-5z" fill="#007934" fill-rule="evenodd" stroke="#e7e7e7" stroke-width=".1"/>
  <path d="M330.3 257c3.2-.3 7.2 2.4 7.2 5.4l-1.3-1.8v1c0-.4-.7-1.3-1.2-1.7l.2 1c-.3-1-1-2-1.5-2l.2 1c-1 0-1-1-2-2v1c-1-1-1-1-2-1m-2-2c-2-1-6-1-9 2l2-1-1 1c0-1 1-1 2-1a4.8 4.8 0 0 0-1 0l1-1-1 1 2-1-1 1h1m5-1c-1-2-3-5-7-5l2 1a4.3 4.3 0 0 0-1 0l2 1a3.4 3.4 0 0 0-1 0s1 0 2 1h-1 1-1c1 0 1 0 1 1m1 1c-3 1-5 3-5 6v-2 1l1-2v1l1-2v1a13.3 13.3 0 0 1 1-2v1l1-2m-2 0a8.7 8.7 0 0 0-1 1m-1-1a9.7 9.7 0 0 0-1 2m0-1a9 9 0 0 0-1 2" fill="none" stroke="#e7e7e7" stroke-width=".1" stroke-linecap="round" stroke-linejoin="round"/>
  <path class="fil1 str2" fill="none" stroke="#e7e7e7" stroke-width=".1" stroke-linecap="round" stroke-linejoin="round" d="M330 258.6v-.6"/>
  <path d="M332.6 261.3v1.4m-1-3v1.5m-1-2.7c.2.4.2.8.2 1.3m4.8-.4l.6 1.2m-2-2l.8 1.3m-2-2l.7 1m-10.7-1a4.7 4.7 0 0 1 2-2m0 1c.3-1 .5-1 1.5-1m-.2 1c.5-1 1-1 1.7-1m-.4 1l1.6-1m-3.8-4h2.2m-1.2 0h1.8m-1 0h2m-1.3 0h1m1 0c2-2 5-3 8-1h-2 1l-2-1h1-3 1-4m4-2h-2m1 0h-2m1 0c-1-1-2-1-3-1m1 1h-2m0 1l1 1" fill="none" stroke="#e7e7e7" stroke-width=".1" stroke-linecap="round" stroke-linejoin="round"/>
  <path d="M329.4 255.6c.2-2 2-4.4 5.3-4.8-.8.4-1.4 1-2 1.3h1l-1.7 2h1c0 1-1 1-1 1h1c-.4 0-1 1-1.3 1h.8l-1 1m2-4l-1.5 1m1 1a4.5 4.5 0 0 0-1.6 1m1 1l-1.7 1m1 0a3.2 3.2 0 0 0-1.3 1m-.5 3a6 6 0 0 0-1 1m1-2c2 2 4 4 3 8 0-1 0-2-1-2 0 1-1 1-1 1l-1-2a3.5 3.5 0 0 1-1 1s-1-1-1-2l-1 1c0-1-1-2-1-2" fill="none" stroke="#e7e7e7" stroke-width=".1" stroke-linecap="round" stroke-linejoin="round"/>
  <path d="M293.3 233.5l1.3.7.3-.6v-.6c0-.2-1-.4-1-.5l-1-.2-1 .4v.8m1 1l1 .8v-1.5a.7.7 0 0 0 0-.2 2 2 0 0 0 0-.2c-1-.4-2-.3-2 .3v.7m-3-.8v-1.2a3.3 3.3 0 0 1 0-.7v-.4h1v.6l1-1h1v2h-1l-2-1-2-1-2-1v-1m9-11c-1 0-1 1 0 2 0 1 1 1 1 1h1v-1s0-1-1-1c-1-1-1-1-2-1h-1m4-1s1 1 0 2c0 1 0 1-1 2 0 0-1 1-2 0 0 0-1 0-2-1v-2c0-1 1-1 1-2l2-1c1 0 2 0 2 1m8-3s0 1 1 1l1-1h1l-3 1h-1l-1-2-1-2a12 12 0 0 0-1-1h1v-1 4m9-3a12.2 12.2 0 0 0 0-2h1v1l-1 2a12 12 0 0 0 0 2s-1 0-1-1h-1v-4m10 5c2-1 3-2 3-3h1c-2 2-4 3-5 4v-1a316.2 316.2 0 0 1 .4-2v-4l1 1h.5v4m9 4l1-1-1.6 1-1 1-1 1v-1l1-1 1-1.6m5 10l1.6-1h-2v2m-1-1.3h-2a2 2 0 0 0 0-1 2.6 2.6 0 0 0 0-1h7l-4 5-.8-1a5.4 5.4 0 0 0 0-1l1-2a35 35 0 0 0-.4-1l-.8-1" style="line-height:125%;-inkscape-font-specification:'Linux Biolinum Bold';text-align:center" font-size="100" font-weight="700" letter-spacing="60" font-family="Linux Biolinum" word-spacing="0" text-anchor="middle" fill="#e8a30e" stroke="#000" stroke-width=".1"/>
  <path d="M325 280.6l-.8 2.2h-2.4l2 1.5-.8 2.2 2-1.3 1.8 1.3-.6-2.2 1.8-1.4-2.3-1zm9-4l-.7 2.3H331l1.8 1-.7 2 2-2 2 1v-2l2-2h-3zm14.2-24.8l-.8 2.2H345l2 1.4-.7 2.3 2-1.4 1.8 1.4v-2.3l2-1.4h-3zm-6.7 17.8l.7 2.2h2.4l-2 1.4.8 2.3-2-1.4-1.8 2 .6-2-1.8-1h2.3zm4.7-8.2l.8 2.2h2.3l-2 1.5.8 3-1-1-2 2 1-2-2-1h3zm-31 19.2l.6 2.2h2.4l-2 1.5.8 2.2-2-1.3-1.8 1.3.6-2.2-1.8-1.4 2.3-1zm-9.3-4v2.3h2l-2 1 1 2-2-2-2 1v-2l-2-2h2zM291 252l.8 2.2h2.4l-2 1.4.7 2.3-2-2-2 1v-3l-2-2h2zm6.7 17.8l-.7 2.2h-2l2 1.4-.7 2.3 2-1.4 1.8 1.5v-2.3l2-1.4h-3zm-4.7-8.2l-.8 2.2H290l2 1.5-.7 2.3 1.8-1.3 2 1.3v-2.2l2-1.3h-3z" fill="#e8a30e" stroke="#000" stroke-width=".1" stroke-linecap="square" stroke-linejoin="round"/>
  <path d="M321 248v-.4l-.7-.5h-.7l-.8 1v1h2.3" fill="#e7e7e7"/>
  <path d="M321 248v-.4l-.7-.5h-.6v1l-1 1h.2v1h2zm.3.7v.2h-2.6v-1h2.6" fill="#e7e7e7"/>
  <path d="M321.3 248.7v.2h-2.6v-1h2.6zm-2.5 0v-.5h.2v.5-.5h-.2 2.4-.2v.5-.5.5" fill="#e7e7e7"/>
  <path d="M318.8 248.7v-.5h.2v.5-.5h-.2 2.4-.2v.5-.5.5" fill="#e7e7e7"/>
  <path d="M319.4 248.6v-.4h-.4v.4h.4" fill="#e7e7e7"/>
  <path d="M319 248.3v.2h.3v-.2h-.2m2 .3v-.4.4h1m0-.3v.2-.2m1-.3v-.3.3h1zm0-.3v.2-1m-1 0v-1h1zm-1 0h1v-1m1 0v-1h1m-2 2v-1m1 0v-1h1m-2 2h1v-1m1 0h-1v-1h1m0 1h-1v-1h1zm-1 0h1m-1 0v-1m2 0h2m-2-1zm1 0zm0 0" fill="#e7e7e7"/>
  <path d="M319.8 246h.4v.4h-.4v-.4z" fill="#e7e7e7" fill-rule="evenodd"/>
  <path d="M320 245.6v.5m-.2 0h.4" fill="none" stroke="#000" stroke-width=".1"/>
  <path d="M317 210.3s-2.2 5.4-1.4 6c0 0 3-3.3 3.7-6 .8-2.5 0 0 0 0l-.2-3-1 2.8" fill="#452c25"/>
  <path d="M317 210.3s-2.2 5.4-1.4 6c0 0 3-3.3 3.7-6 .8-2.5 0 0 0 0l-.2-3-1 2.8" fill="none" stroke="#000" stroke-width=".2"/>
  <path d="M317.6 207.7s-2.8 6-2 6.4c0 0 2.2-2 2.8-4 .6-2 0 0 0 0l.8-4" fill="#452c25"/>
  <path d="M317.6 207.7s-2.8 6-2 6.4c0 0 2.2-2 2.8-4 .6-2 0 0 0 0l.8-4" fill="none" stroke="#000" stroke-width=".1"/>
  <path d="M320.5 206.4s-2.8 6-2 6.4c0 0 2.2-2.7 2.8-4.8.6-2.2 0-.2 0-.2l.8-3.8" fill="#452c25"/>
  <path d="M320.5 206.4s-2.8 6-2 6.4c0 0 2.2-2.7 2.8-4.8.6-2.2 0-.2 0-.2l.8-3.8" fill="none" stroke="#000" stroke-width=".1"/>
  <path d="M356.8 195.6l3.4 2s.8.6-1 .2c-1.8-.4-5.6-1.7-12.8-6.4-3.3-2-4.3-2-4.3-2h5l10 6.2z" fill="#452c25"/>
  <path d="M356.8 195.6l3.4 2s.8.6-1 .2c-1.8-.4-5.6-1.7-12.8-6.4-3.3-2-4.3-2-4.3-2h5l10 6.2z" fill="none" stroke="#000" stroke-width=".1"/>
  <path d="M358 194.8l3.3 2s.8.6-1 .2c-1.8-.4-5.6-1.8-12.8-6.4-3.3-2-.6 1.7-.6 1.7v-2.5l10 5z" fill="#452c25"/>
  <path d="M358 194.8l3.3 2s.8.6-1 .2c-1.8-.4-5.6-1.8-12.8-6.4-3.3-2-.6 1.7-.6 1.7v-2.5l10 5z" fill="none" stroke="#000" stroke-width=".1"/>
  <path d="M363.5 196.6s-4-.7-5.4-1.8l-1-.4s1 1.7-5-2c-5-3.8-3-2-3-2l2-.3 10 4 5 3" fill="#452c25"/>
  <path d="M363.5 196.6s-4-.7-5.4-1.8l-1-.4s1 1.7-5-2c-5-3.8-3-2-3-2l2-.3 10 4 5 3z" fill="none" stroke="#000" stroke-width=".1"/>
  <path d="M342.6 198l1.4 2s-.5 1.8-5-1.7c-4.7-3.5-4.5-3.2-4.5-3.2h2.6l6 3" fill="#452c25"/>
  <path d="M342.6 198l1.4 2s-.5 1.8-5-1.7c-4.7-3.5-4.5-3.2-4.5-3.2h2.6l6 3" fill="none" stroke="#000" stroke-width=".1"/>
  <path d="M336.6 199s2.2 3 1.7 3.2c-.5.4-3 .2-4.8-2.5-2-2.8 0-.2 0-.2V195l3.2 4" fill="#452c25"/>
  <path d="M336.6 199s2.2 3 1.7 3.2c-.5.4-3 .2-4.8-2.5-2-2.8 0-.2 0-.2V195l3.2 4" fill="none" stroke="#000" stroke-width=".1"/>
  <path d="M338.8 197.8s2 2.6 2 3c-.3.4-3.3.2-5.6-2.5-2.3-2.6-.3-3.4-.3-3.4l3 2" fill="#452c25"/>
  <path d="M338.8 197.7s2 2.7 2 3c-.3.5-3.3.3-5.6-2.4-2.3-2.6-.3-3.4-.3-3.4l3 2z" fill="none" stroke="#000" stroke-width=".1"/>
  <path d="M350.7 196.2s6 2.5 1.5 2.4c0 0-8.6-2.4-13-6.2l1.2-1.6 10.2 5.2" fill="#452c25"/>
  <path d="M350.7 196.2s6 2.5 1.5 2.4c0 0-8.6-2.4-13-6.2l1.2-1.6 10.2 5.2" fill="none" stroke="#000" stroke-width=".1"/>
  <path d="M353.8 195.4s3.2 2 3.4 2.7c.2 1-10-1-15.3-6l2-1 9 5z" fill="#452c25"/>
  <path d="M353.8 195.4s3.2 2 3.4 2.7c.2 1-10-1-15.3-6l2-1 9 5z" fill="none" stroke="#000" stroke-width=".1"/>
  <path d="M344.5 197.2s2.3 2 2 2c-.3.3-5-.4-8.6-3.2v-1.7l6 2.8" fill="#452c25"/>
  <path d="M344.5 197.2s2.3 2 2 2c-.3.3-5-.4-8.6-3.2v-1.7l6 2.8" fill="none" stroke="#000" stroke-width=".1"/>
  <path d="M348.4 197s2.3 1.6 1.8 1.8c-.4 0-2.2 1.6-10.7-3.4l-1-.6 1.3-2 8.6 4" fill="#452c25"/>
  <path d="M348.4 197s2.3 1.6 1.8 1.8c-.4 0-2.2 1.6-10.7-3.4l-1-.6 1.3-2 8.6 4.2z" fill="none" stroke="#000" stroke-width=".1"/>
  <path d="M339.7 192.4s2.8 2.5 2.4 2.8c0 .4-3-.4-5-1.5l-2-2.5 3-.6 2 1.8z" fill="#452c25"/>
  <path d="M339.7 192.4s2.8 2.5 2.4 2.8c0 .4-3-.4-5-1.5l-2-2.5 3-.6 2 1.8z" fill="none" stroke="#000" stroke-width=".1"/>
  <path d="M336.4 188.3l5 3s4 2.8 3.7 3c0 .4-3-.6-6-2-2-1-4-3.8-4-3.8" fill="#452c25"/>
  <path d="M336.4 188.3l5 3s4 2.8 3.7 3c0 .4-3-.6-6-2-2-1-4-3.8-4-3.8" fill="none" stroke="#000" stroke-width=".1"/>
  <path d="M333.2 202.4s1 2.4.4 2.6c-.6.2-2-.2-3-2.4-1.2-2 1-1.2 1-1.2l1.6 1z" fill="#452c25"/>
  <path d="M333.2 202.4s1 2.4.4 2.6c-.6.2-2-.2-3-2.4-1.2-2 .7-1.2.7-1.2l2 1z" fill="none" stroke="#000" stroke-width=".1"/>
  <path d="M335 201s1.3 2.2 1 2.5c-.3.2-2.2 1-4.2-2s2-2.3 2-2.3l1 1.7z" fill="#452c25"/>
  <path d="M335 201s1.3 2.2 1 2.5c-.3.2-2.2 1-4.2-2s2-2.3 2-2.3l1 1.7z" fill="none" stroke="#000" stroke-width=".1"/>
  <path d="M330.7 190.4s4.8 9.3 4.4 9.7c0 1-2 0-3-2l-2-5 1-1z" fill="#452c25"/>
  <path d="M330.7 190.4s4.8 9.3 4.4 9.7c0 1-2 0-3-2l-2-5 1-1z" fill="none" stroke="#000" stroke-width=".1"/>
  <path d="M336.3 192.8s4 3.4 3.2 3.8c-1 .4-2.4-.2-4.8-2.5-2.3-2 1.5-1 1.5-1" fill="#452c25"/>
  <path d="M336.3 192.7s4 3.5 3.2 4c-1 .3-2.4-.3-4.8-2.6-2.3-2 1.6-1 1.6-1z" fill="none" stroke="#000" stroke-width=".1"/>
  <path d="M334.3 192.8s3 5.3 2.6 5.8c-1 .5-3-1.4-4-2.7l-2-4" fill="#452c25"/>
  <path d="M334.3 192.8s3 5.3 2.6 5.8c-1 .5-3-1.4-4-2.7l-2-4" fill="none" stroke="#000" stroke-width=".1"/>
  <path d="M313 203.6s-.3 3 0 3.3c0 0 1.6 0 1.7-3 0-3-.3-3-.3-3l-1.5 1" fill="#452c25"/>
  <path d="M313 203.6s-.3 3 0 3.3c0 0 1.6 0 1.7-3 0-3-.3-3-.3-3l-1.5 1" fill="none" stroke="#000" stroke-width=".1"/>
  <path d="M313.8 200s-1 3.3 0 4c1 .7 2-3.4 2-4.3 0-1-2 .2-2 .2" fill="#452c25"/>
  <path d="M313.8 200s-1 3.3 0 4c1 .7 2-3.4 2-4.3 0-1-2 .2-2 .2z" fill="none" stroke="#000" stroke-width=".1"/>
  <path d="M314.6 204.3s.2 3.2.8 3.4c.6 0 1.6-1 1.6-1.8 0-1-1-3-1-3l-1.4 1" fill="#452c25"/>
  <path d="M314.6 204.3s.2 3.2.8 3.4c.6 0 1.6-1 1.6-1.8 0-1-1-3-1-3l-1.4 1" fill="none" stroke="#000" stroke-width=".1"/>
  <path d="M314.6 200.4s-1 3.5 0 4.2c1 .7 2-3.4 2-4.4 0-1-2 .2-2 .2z" fill="#452c25" stroke="#000" stroke-width=".1"/>
  <path d="M314.7 195s-1.6 1.5-1.6 2.4c1 1 3-1.2 3-1.6 0-.4-1-1-1-1" fill="#452c25"/>
  <path d="M314.7 195s-1.6 1.5-1.6 2.4c1 1 3-1.2 3-1.6 0-.4-1-1-1-1z" fill="none" stroke="#000" stroke-width=".1"/>
  <path d="M313.6 194s-1.3 2.3-1 3c.4.8 1.6-.5 2.2-1.4.6-.8-1.2-1.7-1.2-1.7" fill="#452c25"/>
  <path d="M313.6 194s-1.3 2.3-1 3c.4.8 1.6-.5 2.2-1.4.6-.8-1.2-1.7-1.2-1.7z" fill="none" stroke="#000" stroke-width=".1"/>
  <path d="M331.5 190.8s2 3.8 1.5 4c-.6.2-1.4-.7-2.3-2-.8-1 .8-2 .8-2" fill="#452c25"/>
  <path d="M331.5 190.8s2 3.8 1.5 4c-.6.2-1.4-.7-2.3-2-.8-1 .8-2 .8-2z" fill="none" stroke="#000" stroke-width=".1"/>
  <path d="M331.6 198.6s.7 3.3 0 3.6c-1.2.5-2-2.3-2-3.4 0-1.2 2-.2 2-.2zm-2.6 5s.2 2.6-.2 2.8c-.3.2-1.2.2-2-1.8l-.6-1.3 2.3-1 .5 1.2" fill="#452c25" stroke="#000" stroke-width=".1"/>
  <path d="M331.4 203.2s.2 2.5-.3 2.6c0 0-1-.8-2-2.3 0-1.8 3-1.3 3-1.3l1 1z" fill="#452c25" stroke="#000" stroke-width=".1"/>
  <path d="M329 195.3s2.6 6 2.2 6.8c-1 2-3.3-3-4-5-.8-2 1.8-1 1.8-1z" fill="#452c25" stroke="#000" stroke-width=".1"/>
  <path d="M327.7 196.3s3.6 6.5 2 6.6c-1.4 0-4-5-4.6-6 0-1 3-1 3-1z" fill="#452c25" stroke="#000" stroke-width=".1"/>
  <path d="M327.5 197.7s1.8 6.2.6 5.6c-1-.5-2-5.2-2-6.2s2 1 2 1zm6.2-8.8s2.7 4 1.8 4c-.8 0-4-3-4-3 0-1 2.2-1 2.2-1z" fill="#452c25" stroke="#000" stroke-width=".1"/>
  <path d="M332 189s3.5 4.8 2.4 5c-1 .2-1-.5-1-.5s-3-2.5-3-3c-.2-.7 1.5-1.5 1.5-1.5m3 0s2 2.6 2 3.4c-1 .8-4-3-5-3.6-1-.5 3 .2 3 .2m-6 3.5s3 7.5 3 8.2c-1 .8-5-5.5-5-6.5-1-1 2-1.8 2-1.8" fill="#452c25" stroke="#000" stroke-width=".1"/>
  <path d="M327.5 193.2s1.5 2.3 1.4 3.6c-1 1.2-3-1.8-3-2.4 0-.6 1-1.2 1-1.2z" fill="#452c25" stroke="#000" stroke-width=".2"/>
  <path d="M330.6 192s1.2 2.4.8 3c-.3.8-2-1.3-2.5-2.2-1-1 1-.8 1-.8z" fill="#452c25" stroke="#000" stroke-width=".1"/>
  <path d="M325 194.4s2 2 2 3c-.2 1.2-3-1.5-3.2-2-.2-.5 1.3-1 1.3-1z" fill="#452c25" stroke="#000" stroke-width=".2"/>
  <path d="M337.2 188.4s2.8 2.5 2.4 3c-.5.3-4.3-2.4-5-3-.5-.5 2.6 0 2.6 0z" fill="#452c25" stroke="#000" stroke-width=".1"/>
  <path d="M334.8 188.2l2.2 2s2 1.2 1.7 1.6c-.4.3-3.6-1-4-1.8-.7-.7-.6-1.4-.6-1.4l1-.4zm7.3.6s9 3.4 8 4.2c0 .8-8-2.7-10-3.7-1-1 2-.6 2-.6" fill="#452c25" stroke="#000" stroke-width=".1"/>
  <path d="M342.4 190s6.3 3.4 5.5 3.7c-1 .4-6-.8-8-2.4-3-1.6-4-2.5-4-2.5l3-.6 2 1.7zm-15.4 4s1 2.4.7 3c-.4.8-1.5-.5-2-1.4-.7-.8 1.2-1.6 1.2-1.6zm.2 5.4s1 3.5 0 4.2c-1.2.6-2-3.5-2-4.5s2 1 2 1z" fill="#452c25" stroke="#000" stroke-width=".1"/>
  <path d="M322.3 193.8s3.5-1.5 4-1.4c0 0 .8-.2 1.2-.5l1.3-1s-.6-5 4-4l11.4 1c1.2 0 5.5 1 6.5 2l9 4c.8 0 2.6 1 4 2 .8 0 0 0 0 0s-10.7-6-14.7-6c-1 0 0 1 0 1l-3.2-2c-1-1-2-1-3-1a5.8 5.8 0 0 1-2-1c-.7-1-4-1-4.5-1a7.3 7.3 0 0 1-1-1h.2l-1.5-1h-2.2c0-1-1 2-1.3 3-.4 1-2 1-2.3 1l-1 1c-.2 0-1.3 1-1.7 1h-3l-.5-1h.3zm4.6 10s0 3-1 3.3c0 1-2 1-2-2v-2l1 1" fill="#452c25" stroke="#000" stroke-width=".1"/>
  <path d="M327.3 201.4s-.3-1.4-.5-1.6c-.2 0 0-.3 0-.3s-.5-1.4-.8-1.6c-.4-1 0-1 0-1s-.6-1-1-1c-.4-1 0-1 0-1s-.5-2-1.5-2c0 0-.7-1-1.4-1 0-1-2-1-4-1s-3 1-3 1v2-1 2s1 1 1 2v1c0 1 1 2 1 3 1 0 1 1 1 1l1 1 1 1 1 1c0-1 1 1 1 1l1-1h1v1l2-1v-1l1-1 1-1s2 1 2 2h2l1 1v-1h1c1-1 1-2 1-2 0-1 0 0 0 0s1-1 1-2 1 0 1 0v-4z" fill="#452c25" stroke="#000" stroke-width=".1"/>
  <path d="M324.3 196.7c.3 0 .4.4.6.6-1-.3-1-.7-1-.8v.2m0 1.2v1c0-1 0-2-1-2m1 0v1-1m0 2v1-1m0 2a1.2 1.2 0 0 0-1 0m0-3a3 3 0 0 0-1-1m-1 2a6 6 0 0 1 0 1v-1m-1 1v1a6.2 6.2 0 0 0 0-1"/>
  <path d="M310.7 194.3s-.8 3.2-.2 3.5c1.3.7 2-2.2 2.2-3.2 0-1.2-2-.3-2-.3" fill="#452c25"/>
  <path d="M310.7 194.3s-.8 3.2-.2 3.5c1.3.7 2-2.2 2.2-3.2 0-1.2-2-.3-2-.3z" fill="none" stroke="#000" stroke-width=".1"/>
  <path d="M312.6 194.3S311 196 311 197c0 .8 2.4-1.4 2.6-1.8.2-.4-1-1-1-1" fill="#452c25"/>
  <path d="M312.6 194.3S311 196 311 197c0 .8 2.4-1.4 2.6-1.8.2-.4-1-1-1-1z" fill="none" stroke="#000" stroke-width=".1"/>
  <path d="M285 194.5s-3.3 1.7-3.6 2.4c-.3 0 10-2 15.8-6l-2.2-1-10 4z" fill="#452c25"/>
  <path d="M285 194.5s-3.3 1.7-3.6 2.4c-.3 0 10-2 15.8-6l-2.2-1-10 4z" fill="none" stroke="#000" stroke-width=".1"/>
  <path d="M289 195.2s-6 2.2-1.7 2.3c0 0 8.7-1.8 13.3-5.4l-1-1-10.6 4" fill="#452c25"/>
  <path d="M289 195s-6 2.4-1.7 2.5c0 0 8.7-1.8 13.3-5.4l-1-1-10.6 4z" fill="none" stroke="#000" stroke-width=".1"/>
  <path d="M298 189s-6.5 3.4-5.8 3.7c.7.4 5.3-.6 7.7-2l3-2.4-3-.8-3 1.6z" fill="#452c25"/>
  <path d="M298 189s-6.5 3.4-5.8 3.7c.7.4 5.3-.6 7.7-2l3-2.4-3-.8-3 1.6z" fill="none" stroke="#000" stroke-width=".1"/>
  <path d="M295.5 196.3s-2.3 2-2 2c.2.3 5-.4 8.6-3.3v-1.7l-6 3" fill="#452c25"/>
  <path d="M295.5 196.3s-2.3 2-2 2c.2.3 5-.4 8.6-3.3v-1.7l-6 3" fill="none" stroke="#000" stroke-width=".1"/>
  <path d="M291.5 196s-2.2 1.7-1.7 1.8c.5.2 2.3 1.5 10.6-4l1-.5-1.5-2-9 4.5" fill="#452c25"/>
  <path d="M291.5 196s-2.2 1.7-1.7 1.8c.5 0 2.3 1.5 10.6-4l1-.5-1.5-2-9 4.6z" fill="none" stroke="#000" stroke-width=".1"/>
  <path d="M289.8 189.6c-7 2.4-14 7.2-14 7.2.8-.2 18-7 18-7m11.2 10.6s-1.5 2.3-1.2 2.6c.3.2 2 1 4.3-1.8 3-3-2-2.5-2-2.5l-1 1.7z" fill="#452c25"/>
  <path d="M305 200.4s-1.5 2.3-1.2 2.6c.3.2 2 1 4.3-1.8 3-3-2-2.5-2-2.5l-1 1.7z" fill="none" stroke="#000" stroke-width=".1"/>
  <path d="M306.6 202s-1 2.4-.5 2.6c1 .2 2 0 4-2.3 1-2 0-1 0-1l-2 .7zm-3.3-3.5s-2.2 2.7-1.7 3c.4.5 3 .4 5-2.2 1.8-2.7 0-.2 0-.2l-.6-2-2.7 2" fill="#452c25"/>
  <path d="M306.6 202s-1 2.4-.5 2.6c1 .2 2 0 4-2.3 1-2 0-1 0-1l-2 .7zm-3.3-3.5s-2.2 2.7-1.7 3c.4.5 3 .4 5-2.2 1.8-2.7 0-.2 0-.2l-.6-2-2.7 2" fill="none" stroke="#000" stroke-width=".1"/>
  <path d="M301.2 197s-2.2 2.7-2 3c.2.5 3.2.4 5.6-2s.5-3.6.5-3.6l-4 2.6" fill="#452c25"/>
  <path d="M301.2 197s-2.2 2.7-2 3c.2.5 3.2.4 5.6-2s.5-3.6.5-3.6l-4 2.6" fill="none" stroke="#000" stroke-width=".1"/>
  <path d="M297.4 197.3l-1.4 2s.3 1.7 5-1.6 4.6-3 4.6-3l-2.6-.5-5.7 3" fill="#452c25"/>
  <path d="M297.3 197.2l-1.3 2s.3 1.8 5-1.5 4.6-3 4.6-3l-2.6-.5-5.7 3z" fill="none" stroke="#000" stroke-width=".1"/>
  <path d="M282.2 194.5l-3 1.3s-.7.6 1 .7c1.8 0 5.5-.5 12-4 2.7-1.7 4.6-3.3 4.6-3.3l-2.4-.8-12.2 6z" fill="#452c25"/>
  <path d="M282.2 194.5l-3 1.3s-.7.6 1 .7c1.8 0 5.5-.5 12-4 2.7-1.7 4.6-3.3 4.6-3.3l-2.4-.8-12.2 6z" fill="none" stroke="#000" stroke-width=".1"/>
  <path d="M277 196.4s4.4-.5 6-1.6c0 0-.3.5 2-.4 0 0-1.2 2 5.3-2 6.5-3.8 0 0 0 0l7.2-4-.4-1s-13 6-14 6.3c-1 .3-5 2.7-5 2.7" fill="#452c25"/>
  <path d="M290.3 192.4l7.2-4-.4-1s-13 6-14 6.3c-1 .3-5 2.7-5 2.7s5-.5 6-1.6c0 0 0 .5 2-.4 0 0-1 2 6-2z" fill="none" stroke="#000" stroke-width=".1"/>
  <path d="M308.5 202s-.4 3.4 0 3.5c.6 0 2-1 2.7-3 .6-2.2-2.4-2-2.4-2l-.4 1.3" fill="#452c25"/>
  <path d="M308.5 202s-.4 3.4 0 3.5c.6 0 2-1 2.7-3 .6-2.2-2.4-2-2.4-2l-.4 1.3" fill="none" stroke="#000" stroke-width=".2"/>
  <path d="M310.8 203.5s-.3 2.4 0 2.6c.4 1 1.3 1 2.3-1l1-1-2-1v2" fill="#452c25"/>
  <path d="M310.8 203.4s-.3 2.5 0 2.7c.4 1 1.3 1 2.3-1l1-1-2-1v2z" fill="none" stroke="#000" stroke-width=".1"/>
  <path d="M311.4 199s-2 4-.8 4c1 0 2.5-3 2.7-3.7.2-.7-2-.3-2-.3" fill="#452c25"/>
  <path d="M311.4 199s-2 4-.8 4c1 0 2.5-3 2.7-3.7.2-.7-2-.3-2-.3z" fill="none" stroke="#000" stroke-width=".1"/>
  <path d="M311.3 199s-.8 4.5.3 4c1-.3 1.5-3.7 1.5-4.4 1-.7-1 .4-1 .4" fill="#452c25"/>
  <path d="M311.3 199s-.8 4.5.3 4c1-.3 1.5-3.7 1.5-4.4 1-.7-1 .4-1 .4z" fill="none" stroke="#000" stroke-width=".1"/>
  <path d="M312.8 199.4s-1 3.5 0 4.2c1 .7 1.8-3.4 2-4.3 0-1-2 0-2 0" fill="#452c25"/>
  <path d="M312.8 199.4s-1 3.5 0 4.2c1 .7 1.8-3.4 2-4.3 0-1-2 0-2 0z" fill="none" stroke="#000" stroke-width=".1"/>
  <path d="M308.4 198.3s-1 3.2-.4 3.5c1.2.6 2.3-2.2 2.4-3.3 0-1.2-2-.2-2-.2zm-8-6.6s-2.7 2.4-2.4 2.7c.3.4 3.6-.2 5-1.3l2.2-1-2.5-1-2.2 2z" fill="#452c25" stroke="#000" stroke-width=".1"/>
  <path d="M303 189.3s-1.8 1.5-1.5 2c.4.2 3.6-1 4.2-1.8.6-.6.6-1.3.6-1.3l-3.3 1z" fill="none" stroke="#000" stroke-width=".1"/>
  <path d="M305 189s-2.6 2-2 3c.6.6 4-2.7 4.5-3 .5-.5-3 0-3 0" fill="#452c25" stroke="#000" stroke-width=".1"/>
  <path d="M303.8 188.2l-5 2.3s-4.2 2.7-3.8 3c.4.3 3.7-.6 6-1.7 2.4-1.2 5-3 5-3m-.8 2s-5.4 4.7-4.6 5c.8.6 4.4-1.4 6.8-3.6" fill="#452c25" stroke="#000" stroke-width=".1"/>
  <path d="M305.8 192.4s-3 5-2.7 5.6c1 .5 3-1.2 4-2.5s2-3.2 2-3.2" fill="#452c25" stroke="#000" stroke-width=".1"/>
  <path d="M307.6 192.8s-3.3 6-3 6.6c.5.6 2.4 0 3.5-2.3 2-2 2-3 2-3h-1z" fill="#452c25" stroke="#000" stroke-width=".1"/>
  <path d="M309.5 193s-3.7 7.7-3 8.4c.8.7 4.8-5.7 5-6.6.3-1.6-2-1.8-2-1.8m-7.7-5s-3.3 1.7-2.7 2c1 .3 4-1 5-1.2 1 0-1-.7-1-.7z" fill="#452c25" stroke="#000" stroke-width=".1"/>
  <path d="M302.3 188.6s-2 1.6-1.6 2c.4.5 3.5-1.2 4-1.7.7-1-2.4-1-2.4-1zm4.3 0s-2.8 4-2 4c1 0 4-2.4 4.2-3 0-.3-2.2-1-2.2-1z" fill="#452c25" stroke="#000" stroke-width=".1"/>
  <path d="M307.8 189.6s-3 3.7-2 4c.7.2.8-.4.8-.4s2.3-2 2.5-2.5c1-.5-1-1.2-1-1.2" fill="#452c25" stroke="#000" stroke-width=".1"/>
  <path d="M308.7 190.5s-2 3.7-1.6 4c1 .2 2-.7 3-2 1-1-1-2-1-2z" fill="#452c25" stroke="#000" stroke-width=".1"/>
  <path d="M309.3 192.2s-1.3 2.3-1 3c.4.8 1.6-.5 2.2-1.3.6-1-1.2-2-1.2-2zm.5 6.5s-.8 3.2-.2 3.5c1.3.7 2-2.2 2.2-3.2 0-1.2-2-.3-2-.3z" fill="#452c25" stroke="#000" stroke-width=".1"/>
  <path d="M315.7 194.4l-1.5-.3s-2-1-3-1-.2-2-.5-3c0 0 0-2-1.7-2h-5.7c-.7 0-2.6-1-6.3 0-3.8 1-11.2 5-11.6 5-.4 0 8.5-2 11-3h3.3s-3 2-.2 1h2s-.2 1 1.3 1h1.4s1.7 1 3 0c0 0 .7 2 1.6 3 0 0 1 2 3 3l1.3 1h2l2-1" fill="#452c25" stroke="#000" stroke-width=".1"/>
  <path d="M298.3 188s-8.5 3-8.2 4c1 .7 9-2.5 11-3.3 2-1-2-.7-2-.7" fill="#452c25" stroke="#000" stroke-width=".1"/>
  <path d="M321.8 194.6c.2 0 .3 0 .5.2a1.5 1.5 0 0 0-.3-.3c-.3 0-.5-.2-.7-.3v.2l.5.2M315 201c.3.3.3.5.4.8v-.2c0-.2 0-.5-.2-.7m1-7h1-1m1.8 0h.8-.8m-3 1v-1m0 4"/>
  <path d="M316.6 214s-1 .6-1 1a3.8 3.8 0 0 0-.2.7s.8 0 .7.3c0 0 1 .2 1-.8l1-1.5c1 0 1 .4 1 .6l1 .3v-.7l1-1s0-1-1-1l-1-1 1-3-1-2v2l-1 2-2 1h-1l1-1h2c0-1 0 0 0 0l1-1" fill="#bd8759"/>
  <path d="M316.6 214s-1 .6-1 1a3.8 3.8 0 0 0-.2.7s.8 0 .7.3c0 0 1 .2 1-.8l1-1.5c1 0 1 .4 1 .6l1 .3v-.7l1-1s0-1-1-1l-1-1 1-3-1-2v2l-1 2-2 1h-1l1-1h2c0-1 0 0 0 0l1-1" fill="none" stroke="#000" stroke-width=".1"/>
  <path d="M323 209.2l.2 2c0 .4 0 1-.3 1.2l-1 .5h-2s0-1 0 0h1v-1 2-2a6.7 6.7 0 0 1-1-1h2v-1l-1-1-1-1-1-1v-2l-1-1" fill="#bd8759"/>
  <path d="M323 209l.2 2.3c0 .3 0 1-.3 1l-1 .6h-2s0-1 0 0h1v-1 2-2l-1-1h2v-1l-1-1-1-1-1-1v-2l-1-1z" fill="none" stroke="#000" stroke-width=".1"/>
  <path d="M315 197.3s0-1.3.3-1.4c0 0 0-2 1.7-1 0 0 .5-1 1.4-1 0 0 .8-1 1.3 0h2c.4 0 .2 1 .2 1v3l-1 1s0 1-1 1h-2l-1-1c0-1-1-1-1-1s-1 1-2 1c-1-1-1-1-2-1l-1-1-1-1c0-1 1-1 1-1v-1z" fill="#dcddde"/>
  <path d="M317.8 212h-.2m.6-1a.8.8 0 0 1-.3 0m4 .4h-1m1 .5" fill="none" stroke="#000" stroke-width=".1"/>
  <path d="M313.4 215h.6s-.3.7-.2.8c0 .2-.5-.3-.3-.7" fill="#d9c0b9"/>
  <path d="M313.4 215h.6s-.3.7-.2.8c0 .2-.5-.3-.3-.7z" fill="none" stroke="#000" stroke-width=".1"/>
  <path d="M315.5 215.5s-.6 1 .2 1.5c0 0 0-1 .6-1l-.8-.5z" fill="#d9c0b9"/>
  <path d="M315.5 215.5s-.6 1 .2 1.5c0 0 0-1 .6-1l-.8-.5z" fill="none" stroke="#000" stroke-width=".1"/>
  <path d="M319.6 214.5l-.2-.5.2-.3h.6s.4 1 0 1.3c0 0 0-.5-.2-.5h-.4" fill="#d9c0b9"/>
  <path d="M319.6 214.5l-.2-.5.2-.3h.6s.4 1 0 1.3c0 0 0-.5-.2-.5h-.4z" fill="none" stroke="#000" stroke-width=".1"/>
  <path d="M321 213.4h.3v.6l-.2.2v-.8" fill="#d9c0b9"/>
  <path d="M321 213.4h.3v.6l-.2.2v-.8z" fill="none" stroke="#000" stroke-width=".1"/>
  <path d="M323.5 216l.4-.5v.2l-1 1.2-1-1-1-1" fill="#d9c0b9"/>
  <path d="M323.5 216l.4-.5v.2l-1 1.2-1-1-1-1z" fill="none" stroke="#000" stroke-width=".1"/>
  <path d="M326 214.8l.5 1s.6-.6-.2-1.5l-.4.5z" fill="#d9c0b9"/>
  <path d="M326 214.8l.5 1s.6-.6-.2-1.5l-.4.5z" fill="none" stroke="#000" stroke-width=".1"/>
  <path d="M323.3 196h.2s0-.2-.2-.2m0 2.2c.3.2.4.4.5.7v-.2a1.7 1.7 0 0 0-.4-.7v.2m-.4-1.6l.5.6v-.2c-.2 0-.3-.3-.5-.5m.5 3.6h-.2l.2-1m.5 1v1a2.2 2.2 0 0 0 0-1c0-1 0 0 0 0m1.5 4s-.2 1-.4 1c0 0 1 0 0 0 1 0 1-1 1-1m-10-3l1 1v-1m2 0v-1h1v-1m-1 2l1 1v-1m1 0h1v-1 1m1 1a3.3 3.3 0 0 0 0-1m0 1v1-1m1-5a8 8 0 0 1 0-1m0 1h1l-1-1m0 1h1m1 1v1m1-4a10 10 0 0 1 0-1m2-1a3.6 3.6 0 0 1 0 1h1m2 1v1a3.7 3.7 0 0 0 0-1m0 2c1 0 1 0 1-1m-2-1v-1m-1 1v-1c0 .2 0 1 1 1.2m2 0v1h1v-1m2 1a9.2 9.2 0 0 1 0 1h1v-1m1 1a17 17 0 0 0 0 1v-1m1-2v1m-12-5"/>
  <path d="M318.8 196.3c.7-.6 1.7-1.3 2.7-1v-.2c-1 0-2 1-2.7 2m3.5 1h-2.7 2.7m-2.8 1c.3 1 .7 2 .5 3 .2-1-.2-2-.5-3m.5 0c.7 1 1.7 1 2.2 2-.5-1-1.5-1-2.4-2m.5 2c.6 1 1 1 1.2 2l-1.2-2m-4.3 1h.8c-.4 0-.6 1-.8 1m1.4-5c0-1-.5-1-1-1 .5 0 1 0 1 1m-.8 0c-.5-1-1-1-1.6-1 .6 0 1 0 1.6 1m1.5 0v-2 1l1 1m2 1h2s-1 0-1 1m1 1c1 0 1 1 2 1 0 0-1-1-2-1m-3 2c0 1 0 2-1 2 1 0 1-1 1-1v-1" fill="#fff"/>
  <path d="M319.5 199c.3.7.7 1.5.5 2.2a1 1 0 0 0 0 .3c.2-1 0-1.8-.5-2.7v.2m1 0c.7 0 1.3.6 1.4 1.3a1 1 0 0 0 0-.2s-1-1-2-1v1m-1-1s1 0 2 1h-3m-1-2s0-1 1-1c-1 0-2 1-2 2m-1 1s-1-1-1-2v3c0 1 0 0 0 0m-1 1c0-1-1-1-1-1v1l1 1m-1 0h-1l1 1m2 3v1" fill="#fff"/>
  <path d="M319.4 199c.2.5.5 1.2.4 1.8v.2c0-1 0-1.6-.4-2.4v.3m.5-1s1 0 1 1v-1c-1-1-1-1-2-1m-2-2v-1c0-1 0-1 0 0v1m-2-1l-1-1 1 1v-1m0 3l-1 1v-1m1 0l-1 1v-1m2-3c0-1 1-1 2-1h-2m-4 0a2 2 0 0 1-1 0m0 3v-1a.7.7 0 0 0 0-1m1 0l-1 1 1-1m1 0l-1 1c-1-1 0-1 0-2m1 0s0 1-1 1v-2m2-1c0 1 0 1 1 2l-1-2m0-1l2 2-2-2" fill="#fff"/>
  <path d="M320.5 197.8h.8l.6.5v1.4-1c0-.2-1-.4-1-.5 0-.2-1-.3-1-.5h-1m3 1.5v.7-2m-2-4l1-1v-1h-2m-2 0v-2h-1s-1 0-1 1m-2 5v1a1.4 1.4 0 0 1 0-1m1 0v1-1m1-1v1l1-1m0-2v-1m-1 0v-1m-1 0h-1v-1m-2-1h1m3 0v-1m0 0a1 1 0 0 1 0-1m0 0a.8.8 0 0 0 0-1m0 0a.8.8 0 0 0-1 0m0-1h1a1.2 1.2 0 0 1-1 0m0-2s1 0 1-.8v-1l-1 .2m-1 0a1 1 0 0 1 0-.8 1 1 0 0 0 0 .4m0 0l-1 .2m-2 1v1h-.7m-1.4 0h1m1 1c0-1 0-2-.4-2s0 .5 0 1m1-.6v.4m.5 5v-1h-1v2m3 2v1h-1v1m-1 2a1.2 1.2 0 0 0 0 .7v-1m-1 0v-.4m-1 .8v2-2m0 0v1a1.3 1.3 0 0 0 0 .5v-2 .4m-3 .4v-1 1m1-1v-1 .5m1 0h.3v-.8a9.3 9.3 0 0 1-1-.7v.8m0-1v1a4 4 0 0 1 0-1m-4-2a1.7 1.7 0 0 0-.4 0v1m1-1a.7.7 0 0 0 0 .6m1-1v1-1a.6.6 0 0 0 0-.7m0 2l.7-1-.2.2m1 0v-1h-1v1m1 0a7.6 7.6 0 0 1-1 0v1h.4m0 1h1v-1l-1-1" fill="#fff"/>
  <path d="M320 198c.3 0 .6.3.8.5v-.4h-.8m-4.2-2l1 1 .5 1h-.6c-.3 0-.7 0-1-1v1m.6 1a7.7 7.7 0 0 1-.4 0 1.6 1.6 0 0 0-1 1v1m-1 3c0 1-1 1-1 1m1 3v-2c0-1 0 0 0 0v1m0-1v-1m0 0v1s0 1 0 0v-2 1m0 0a12.6 12.6 0 0 1 0 2c0-1-1-1-1-2m0 0l1 1a.7.7 0 0 0 0-1l-1-1v1m1-1h-1" fill="#fff"/>
  <path d="M319.7 198a7.5 7.5 0 0 1 1 0v-.3h-1v.4m.7-2l-.5 1c-1 0 0 0 0 1v-2m-2 1v1l-1-1m0 1a1.5 1.5 0 0 1-1 0v1m-1 0h-1c0 1 1 1 1 1" fill="#fff"/>
  <path d="M318.5 196.2l-2 .4-2 .2-1.3-.4c-.3 0-1.6-.2-2 .3l-1 .8s-.6.6-.6 1c0 0 0 .4.4.4h2.4c1.3 0 2-1 4-1 1 0 3-1 3.4-1 .4-1 .6-1 .2-2-.3-1-1.4-1-1.5-1" fill="#dba05f"/>
  <path d="M318.5 196.2l-2 .4-2 .2-1.3-.4c-.3 0-1.6-.2-2 .3l-1 .8s-.6.6-.6 1c0 0 0 .4.4.4h2.4c1.3 0 2-1 4-1 1 0 3-1 3.4-1 .4-1 .6-1 .2-2-.3-1-1.4-1-1.5-1z" fill="none" stroke="#000" stroke-width=".1"/>
  <path d="M311.4 198s0-.2.2-.3a.8.8 0 0 1 .4-.3h.5-.5c-.3 0-.3.5-.6.7"/>
  <path d="M311.3 198s.2 0 .4-.4l.6-.2h.3" fill="none"/>
  <path d="M312 197.4l-.4.3c0 .2-.3.3-.3.3m.7-.6h.5m-.6.2" fill="none"/>
  <path d="M312.4 198v-.2h-.2v.2s-.2 0-.3.2h-1l1-.3"/>
  <path d="M312.3 197.8l-.3.2-.3.2h-.2" fill="none"/>
  <path d="M312 198c.2 0 .3-.2.3-.2m-.4.4h-1m0 0h-1" fill="none"/>
  <path d="M313 196.5s-.2-.6-.7-.8c-.5-.2-1-.2-1.3-.2l-.5.2a2.5 2.5 0 0 0-.6.2h-3v-2l1-1v-1z" fill="#c6262c"/>
  <path d="M313 196.5s-.2-.6-.7-.8c-.5-.2-1-.2-1.3-.2l-.5.2a2.5 2.5 0 0 0-.6.2h-3v-2l1-1v-1z" fill="none" stroke="#000" stroke-width=".1"/>
  <path d="M312.2 197.8s0 .3-.3.3c-1 1-1 1-1 0"/>
  <path d="M308.6 200.2s-.7-1.2 1.3-1.8v.6s-1 .5-2 .7c0 0-1 0-1 .5" fill="#d9c0b9"/>
  <path d="M308.6 200.2s-.7-1.2 1.3-1.8v.6s-1 .5-2 .7c0 0-1 0-1 .5z" fill="none" stroke="#000" stroke-width=".1"/>
  <path d="M308.8 200s.8.2 1.3-.2c1-.3 1-.2 1 0v-.8l-1 .5c0 .2 0 0-1 .5" fill="#d9c0b9"/>
  <path d="M308.8 200s.8.2 1.3-.2c1-.3 1-.2 1 0v-.8l-1 .5c0 .2 0 0-1 .5z" fill="none" stroke="#000" stroke-width=".1"/>
  <path d="M311 199.6h.5-.5m0-1.8c.3 0 .4 0 .5-.2h-.3v.2m.7.8a.3.3 0 0 0 0-.2.3.3 0 0 1-1 0v.2m0-.2a.8.8 0 0 0 0-.3.7.7 0 0 1-1 1m-1 0v1m0 2h1a3 3 0 0 1-1 0m2 0s1 0 1-1c0 1-1 1-1 1m0 0v-1a1.5 1.5 0 0 1-1 1m-1-2l1 1h-1m6 1v-2 2m-5-1l1 1-1-1m2 2a1.3 1.3 0 0 1 0 1" fill="#7a2e26"/>
  <path d="M318 199.2l.4-.2m-8.5-.3c-1 .2-1 .2-1 .7 0-.4 0-.4 1-.6" fill="#5e3f17"/>
  <path d="M309.7 197.3s.3 0 .3.2a.7.7 0 0 0 0-.2h-.3m.6.2a.7.7 0 0 0 0-.5v.4m.6-.4c0-.3-1-.5-1-.6v.7m0 0v1m-1-1s1 0 1 1h-2v1" fill="#842116"/>
  <path d="M309.5 198v-.4.4m4.7 1.5a.6.6 0 0 0 .3-.4.6.6 0 0 1-.3 1m4.7-2a1 1 0 0 1 0 1m-1 1" fill="#7a2e26"/>
  <path d="M324.3 210.5v.2-.3z" fill="#452c25"/>
  <path d="M314.5 195c-1.8 0-3.5-1-3.5-1-2-.5-2.2-2.4-2.2-2.4-.8-.4-1.6-2.5-1.6-2.5-1.3 1-3 0-3 0h-1.4c-1.5 1-1.3 0-1.3 0h-2l.2-1c-.8 1-3.3 1-3.3 1-1 0-1.8 1-2.8 1l-2.3 1-6.8 3-5.5 2c.2 0 3.4-2 7.5-4l10.3-4c3-1 5.2 0 6.5 0 .6 1 4 0 5.7 0 1.6 1 1.8 3 1.8 3 .3 0 .4 3 .4 3s-1 0 0 0l3 2h3.7l2 1h1l3-1h1a105 105 0 0 0 1-1s-1-4 4-4l11 2c1 0 5 1 6 2l5 3 4 1c2 1 3 2 3 2l-3-2c-1 0-2 0-3-1l-3-2-5-1c-1 0 0 1 0 1l-4-1h-3a5.8 5.8 0 0 1-2 0h-4a7.3 7.3 0 0 1-1 0v1h-2l-1 1h-2c0-1-1 2-1 3-1 1-2 1-3 1s-2 1-2 1h-9c-1 0-1 0-2 1l-1 1" fill="#dcddde"/>
  <path d="M314.5 195c-1.8 0-3.5-1-3.5-1-2-.5-2.2-2.4-2.2-2.4-.8-.4-1.6-2.5-1.6-2.5-1.3 1-3 0-3 0h-1.4c-1.5 1-1.3 0-1.3 0h-2l.2-1c-.8 1-3.3 1-3.3 1-1 0-1.8 1-2.8 1l-2.3 1-6.8 3-5.5 2c.2 0 3.4-2 7.5-4l10.3-4c3-1 5.2 0 6.5 0 .6 1 4 0 5.7 0 1.6 1 1.8 3 1.8 3 .3 0 .4 3 .4 3s-1 0 0 0l3 2h3.7l2 1h1l3-1h1l1-1s-1-4 4-4l11 2c1 0 5 1 6 2l5 3 4 1c2 1 3 2 3 2l-3-2c-1 0-2 0-3-1l-3-2-5-1c-1 0 0 1 0 1l-4-1h-3a5.8 5.8 0 0 1-2 0h-4a7.3 7.3 0 0 1-1 0v1h-2l-1 1h-2c0-1-1 2-1 3-1 1-2 1-3 1s-2 1-2 1h-9c-1 0-1 0-2 1l-1 1" fill="#e7e7e7" stroke="#000" stroke-width=".1"/>
  <path d="M314.6 194.4s-.2.2-.2.5" fill="#452c25"/>
  <path d="M323.3 194c.2 0 .5.3.7.5a6.5 6.5 0 0 0-.8-.8.6.6 0 0 0 0 .2" fill="#574f4c"/>
</svg>
