<svg xmlns="http://www.w3.org/2000/svg" height="480" width="640" viewBox="0 0 640 480">
  <defs>
    <clipPath id="a">
      <path fill-opacity=".67" d="M0 0h682.6v512H0z"/>
    </clipPath>
  </defs>
  <g fill-rule="evenodd" clip-path="url(#a)" transform="scale(.94)">
    <path fill="#b20000" d="M0 0h1024v340.1H0z"/>
    <path fill="#429f00" d="M0 340.1h1024V512H0z"/>
    <path fill="#fff" d="M0 0h113.37v512H0z"/>
    <g stroke-width="1pt" fill="#b20000">
      <path d="M5.4 8.68h5.4v8.68H5.4zm16.2 0h16.2v8.68H21.6zM26.97 0h5.4v8.68h-5.4zm27 0h5.4v8.68h-5.4zm21.6 8.68h16.2v8.68h-16.2zM80.97 0h5.4v8.68h-5.4zM16.2 17.36H27v8.68H16.2zm16.2 0h10.8v8.68H32.4zm37.78 0h10.8v8.68h-10.8zm16.2 0h10.8v8.68h-10.8zm-75.6 8.68h10.8v8.68h-10.8zm27 0h10.8v8.68h-10.8zm27 0h10.8v8.68h-10.8zm27 0h10.78v8.68h-10.8zm10.8-17.36h5.4v8.68h-5.4zM5.38 34.72h10.8v8.68H5.4zm37.8 0h10.8v8.68h-10.8zm54 0h10.8v8.68h-10.8zm-86.4 26.03h10.8v8.68H10.8zm5.4 8.68H27v8.68H16.2zm21.6-8.68h10.8v8.68h-10.8zm-5.4 8.68h10.8v8.68H32.4zM21.6 78.1h16.2v8.7H21.6z"/>
      <path d="M26.98 86.78h5.4v8.68h-5.4zm37.8-26.03h10.8v8.68h-10.8zm5.4 8.68h10.8v8.68h-10.8zm21.6-8.68h10.78v8.68h-10.8zm-5.4 8.68h10.8v8.68h-10.8zm-10.8 8.68h16.2v8.7h-16.2z"/>
      <path d="M80.98 86.78h5.4v8.68h-5.4zm-27-8.67h5.4v8.7h-5.4zM0 78.1h5.4v8.7H0zm107.96 0h5.4v8.7h-5.4zm-80.98 43.4h5.4v8.68h-5.4z"/>
      <path d="M21.6 130.17h16.2v8.68H21.6zm-5.4 8.68h27v8.68h-27zm64.78-17.35h5.4v8.68h-5.4z"/>
      <path d="M75.57 130.17h16.2v8.68h-16.2zm-5.4 8.68h27v8.68h-27zm5.4 43.4h27v8.67h-27zm-10.8-34.72h37.8v8.68h-37.8zm-53.98 0h37.7v8.68H10.7zm5.4 43.4h16.2v8.67H16.2zm-5.4-8.7h26.9v8.7h-27zm75.5-17.33h27v8.6h-27zm-5.4 26h16.2v8.7H80.9zm-59.4 8.7H27v8.64h-5.4zm64.76 0h5.4v8.64h-5.4zM0 164.9h27v8.66H0zm48.6 17.34h16.18v8.68h-16.2zm5.38 8.68h5.4v8.68h-5.4zm-16.2-26.03h37.8v8.6h-37.8zM59.4 34.7h10.8v8.68H59.4zm-10.8 8.7h16.18v8.67h-16.2zm-5.42 8.67h10.8v8.68h-10.8zm16.2 0h10.8v8.68h-10.8zM0 43.4h10.8v8.67H0z"/>
      <path d="M5.4 52.07h10.8v8.68H5.4zm97.17-8.68h10.8V52h-10.8zm-5.4 8.6h10.8v8.64h-10.8zM0 130.1h5.4v8.7H0zm107.96 0h5.4v8.7h-5.4zM48.6 199.6h16.18v8.68h-16.2zm-5.42 8.68h10.8v8.67h-10.8zm16.2 0h10.8v8.67h-10.8zm-21.6 8.67h10.8v8.68h-10.8zm27 0h10.8v8.68h-10.8zm-32.38 8.68h10.8v8.68H32.4zm37.78 0h10.8v8.68h-10.8zm-43.2 8.68h10.8v8.7h-10.8zm48.6 0h10.8v8.7h-10.8z"/>
      <path d="M16.2 243h16.2v8.66H16.2zm64.78 0h16.2v8.66h-16.2zm10.8-8.7h10.8v8.7h-10.8zm5.4-8.67h10.8v8.68h-10.8zm5.4-8.68h10.8v8.68h-10.8zM10.8 234.3h10.8v8.7H10.8zm-5.4-8.67h10.8v8.68H5.4zM0 216.95h10.8v8.68H0zm21.6 34.72H27v8.67h-5.4zm64.77 0h5.4v8.67h-5.4zm-32.4-26.04h5.4v8.68h-5.4zM37.8 251.67h5.38v8.67h-5.4zm32.38 0h5.4v8.67h-5.4zm-16.2 0h5.4v8.67h-5.4zm-53.98 0h5.4v8.67H0zm107.96 0h5.4v8.67h-5.4zm-53.98-121.5h5.4v8.68h-5.4zm-27-86.77h5.4v8.67h-5.4zm54 0h5.4v8.67h-5.4zm-32.4 60.74h16.2v8.68h-16.2zm-10.78 8.68h16.18v8.68h-16.2zm5.38 8.68h5.4v8.68h-5.4zm-10.8-17.36h10.8v8.68H32.4zm5.42-8.68h16.18v8.68h-16.2z"/>
      <path d="M43.18 86.78h5.4v8.68h-5.4zm16.2 8.68h16.2v8.68h-16.2z"/>
      <path d="M64.78 86.78h5.4v8.68h-5.4zm5.4 17.36h10.8v8.68h-10.8zm-10.8 8.68h16.2v8.68h-16.2zm5.4 8.68h5.4v8.68h-5.4zm21.6-17.36h10.8v8.68h-10.8zm5.4-8.68h16.2v8.68h-16.2zm10.8 8.68h10.8v8.68h-10.8zm-10.8 8.68h16.2v8.68h-16.2z"/>
      <path d="M97.17 121.5h5.4v8.68h-5.4zm0-34.72h5.4v8.68h-5.4zM0 104.14h10.8v8.68H0zm5.4-8.68h16.2v8.68H5.4zm10.8 8.68H27v8.68H16.2zm-10.8 8.68h16.2v8.68H5.4z"/>
      <path d="M10.8 121.5h5.38v8.68h-5.4zm0-34.72h5.38v8.68h-5.4zM5.4 156.2H27v8.7H5.4zm27 0H54v8.7H32.4zm26.98 0h21.6v8.7h-21.6zm27 0h21.6v8.7h-21.6zm-43.2 17.36h27v8.68h-27zm-37.8 0h27v8.68h-27zm75.6 0h27v8.68h-27zm26.98 34.72h5.4v8.67h-5.4zM0 208.28h5.4v8.67H0zm5.4 295.05h5.4v-8.68H5.4zm16.2 0h16.2v-8.68H21.6z"/>
      <path d="M26.98 512h5.4v-8.68h-5.4zm27 0h5.4v-8.68h-5.4zm21.6-8.67h16.2v-8.68h-16.2z"/>
      <path d="M80.98 512h5.4v-8.68h-5.4zM16.2 494.65H27v-8.68H16.2zm16.2 0h10.8v-8.68H32.4zm37.78 0h10.8v-8.68h-10.8zm16.2 0h10.8v-8.68h-10.8zm-48.6-8.7h10.8v-8.66h-10.8zm27 0h10.8v-8.66h-10.8zm27 0h10.78v-8.66h-10.8zm10.8 17.38h5.4v-8.68h-5.4zM5.38 477.3h10.8v-8.7H5.4z"/>
      <path d="M43.18 477.3h10.8v-8.7h-10.8zm54 0h10.8v-8.7h-10.8zm-86.4-26.04h10.8v-8.68H10.8zm5.42-8.68H27v-8.68H16.2zm21.6 8.68h10.78v-8.68h-10.8zm-5.4-8.68h10.8v-8.68H32.4zm-10.8-8.68h16.2v-8.68H21.6z"/>
      <path d="M26.98 425.23h5.4v-8.68h-5.4zm37.8 26.03h10.8v-8.68h-10.8zm5.4-8.68h10.8v-8.68h-10.8zm21.6 8.68h10.78v-8.68h-10.8zm-5.4-8.68h10.8v-8.68h-10.8zm-10.8-8.68h16.2v-8.68h-16.2z"/>
      <path d="M80.98 425.23h5.4v-8.68h-5.4zm-27 8.67h5.4v-8.68h-5.4zM0 433.9h5.4v-8.68H0zm107.96 0h5.4v-8.68h-5.4zm-80.98-43.4h5.4v-8.67h-5.4z"/>
      <path d="M21.6 381.84h16.2v-8.68H21.6zm-5.4-8.68h27v-8.68h-27zm64.78 17.35h5.4v-8.6h-5.4zm-5.4-8.6h16.2v-8.7h-16.2zm-5.4-8.7h27v-8.7h-27zm5.4-43.4h27v-8.63h-27zm-10.8 34.7h37.8v-8.62h-37.8zm-54 0h37.8v-8.62h-37.8zm5.4-43.33h16.2v-8.7H16.2zm-5.4 8.67h27v-8.7h-27zm75.58 17.34h27v-8.66h-27zm-5.4-26h16.2v-8.7h-16.2zM0 347.1h27v-8.68H0zm48.6-17.35h16.18v-8.68h-16.2zm5.38-8.68h5.4v-8.7h-5.4zm-16.2 26.02h37.8v-8.7h-37.8zM59.4 477.3h10.8v-8.7H59.4zm-10.8-8.7h16.2v-8.67H48.6zm-5.4-8.67H54v-8.68H43.2zm16.2 0h10.8v-8.68H59.4zM0 468.6h10.8v-8.67H0zm5.4-8.67h10.8v-8.68H5.4zm97.17 8.68h10.8V460h-10.8zm-5.4-8.6h10.8v-8.7h-10.8zM0 381.9h5.4v-8.7H0zm107.96 0h5.4v-8.7h-5.4zm-64.78-78.1h10.8v-8.7h-10.8zm16.2 0h10.8v-8.7h-10.8zm-21.6-8.7h10.8v-8.7h-10.8zm27 0h10.8v-8.7h-10.8zm-32.4-8.7h10.8v-8.7H32.4zm37.8 0h10.8v-8.7h-10.8zm-43.2-8.7h10.8v-8.68h-10.8zm48.6 0h10.8v-8.68h-10.8zm-59.38-8.68h16.2v-8.68H16.2zm64.78 0h16.2v-8.68h-16.2zm10.8 8.68h10.78v-8.68h-10.8z"/>
      <path d="M97.17 286.37h10.8v-8.68h-10.8zm5.4 8.7h10.8v-8.7h-10.8zM10.8 277.7h10.78v-8.68h-10.8z"/>
      <path d="M5.4 286.37h10.8v-8.68H5.4zm-5.4 8.7h10.8v-8.7H0zm21.6-34.73H27v-8.68h-5.4zm32.38 26.03h5.4v-8.68h-5.4zm0 95.47h5.4v-8.68h-5.4zm-27 86.77h5.4V460h-5.4zm54 0h5.4V460h-5.4zm-32.4-60.7h16.2v-8.7h-16.2zm-10.8-8.7H54v-8.7H37.8zm5.4-8.7h5.4v-8.6h-5.4zm-10.8 17.4h10.8v-8.7H32.4z"/>
      <path d="M37.8 416.54h16.18v-8.68h-16.2zm5.38 8.68h5.4v-8.67h-5.4zm16.2-8.68h16.2v-8.68h-16.2zm5.4 8.68h5.4v-8.67h-5.4z"/>
      <path d="M70.18 407.87h10.8v-8.68h-10.8zm-10.8-8.68h16.2v-8.7h-16.2zm5.4-8.7h5.4v-8.7h-5.4zm21.6 17.3h10.8v-8.7h-10.8zm5.4 8.7h16.2v-8.7h-16.2z"/>
      <path d="M102.57 407.87h10.8v-8.68h-10.8zm-10.8-8.68h16.2v-8.7h-16.2zm5.4-8.7h5.4v-8.7h-5.4zm0 34.7h5.4v-8.7h-5.4zM0 407.9h10.8v-8.68H0z"/>
      <path d="M5.4 416.54h16.2v-8.68H5.4z"/>
      <path d="M16.2 407.87H27v-8.68H16.2zM5.4 399.2h16.2v-8.7H5.4zm5.4-8.7h5.38v-8.67h-5.4zm0 34.72h5.38v-8.67h-5.4zm-5.4-69.4H27v-8.7H5.4zm27 0H54v-8.7H32.4zm26.98 0h21.6v-8.7h-21.6zm27 0h21.6v-8.7h-21.6zm-43.2-17.38h27v-8.68h-27zm-37.8 0h27v-8.68h-27zm75.6 0h27v-8.68h-27zm26.98-34.7h5.4v-8.68h-5.4zM0 303.74h5.4v-8.68H0zm48.6-43.4H54v8.68h-5.4zm10.78 0h5.4v8.68h-5.4zm0-17.35h5.4v8.6h-5.4zm-10.8 0H54v8.6h-5.4zM10.8 477.3h10.8v8.67H10.8zm75.6-164.9h5.4v-8.67h-5.4zm-64.8 0H27v-8.67h-5.4zm27-8.67h16.2v8.68H48.6z"/>
    </g>
  </g>
</svg>
