<svg xmlns="http://www.w3.org/2000/svg" height="480" width="640" viewBox="0 0 640 480">
  <defs>
    <clipPath id="a">
      <path fill-opacity=".7" d="M-85 0h682.7v512H-85z"/>
    </clipPath>
  </defs>
  <g fill-rule="evenodd" clip-path="url(#a)" transform="matrix(.9 0 0 .9 79.7 0)">
    <path fill="#108c00" d="M-258.3 0H769.2v512H-258.3z"/>
    <path fill="#ffd600" d="M-260 178.2H772.6v50H-260z"/>
    <path fill="#ffd600" d="M181 0h48.5v512H181z"/>
    <path d="M227.8 0h48.4v512h-48.4z"/>
    <path d="M-260 226.6H772.6v50.2H-260z"/>
    <path fill="#fff" d="M-260 276.8H772.6v50H-260z"/>
    <path fill="#fff" d="M276.2 0h48.5v512h-48.5z"/>
    <rect transform="scale(-1)" ry="137.5" width="273.8" y="-393.9" x="-394.6" height="275" fill="#e72910"/>
    <g stroke-width="1pt">
      <path d="M250.5 137l5.6-16 6 15.7s17 .5 17 .2-13 10-13 10l6 17c0-1-14-11-14-11l-15 11 6-17-13.2-10 16.5-1z"/>
      <path d="M251.3 137.7L256 124l4.5 13.5s14.8.4 14.8.2-11.7 9-11.7 9L269 162c-.3-.6-13-9.5-13-9.5s-12.7 9-12.5 9 5-14.8 5-14.8L237 138l14.2-.4z" fill="#ffe700"/>
      <path d="M253.3 140l2.8-8 3 8h9l-6 5 3 9c0-.4-7-5.5-7-5.5l-7 5 3-8.4-6.6-5h8.3z" fill="#108c00"/>
    </g>
    <g stroke-width="1pt">
      <path d="M357 211.8l5.5-16 5 15.7s17.2.6 17.2.3-13.5 10.3-13.5 10.3l6 18-14.7-11s-14.8 11-14.5 11 5.6-17 5.6-17l-13.3-10H357z"/>
      <path d="M357.6 212.6l5-14 4.3 13.8s14 .4 14 .2-12 9-12 9l5 15-13-9.3-13 9 5-14.8-12-8.7 14.2-.2z" fill="#ffe700"/>
      <path d="M359.7 215l2.8-8 2.5 7.7 8.6.2-6.8 5 3 8c0-1-7.3-6-7.3-6l-7.3 5 2.8-9-6.6-5h8.3z" fill="#108c00"/>
    </g>
    <g stroke-width="1pt">
      <path d="M326 330.6l5.5-16 5 15.8s17.2.5 17.2.2-13.5 10.4-13.5 10.4l6 17.5c-.2-.5-14.7-10.8-14.7-10.8S316.7 358 317 358s5.6-17 5.6-17l-13.3-10 16.6-.4z"/>
      <path d="M326.6 331.4l5-13.8 4.3 13.6s14 .5 14 .2-12 9-12 9l5 15.2-13-9.4-13 9 5-14.8-12-8.7 14.2-.3z" fill="#ffe700"/>
      <path d="M328.7 333.7l2.8-8 2.5 8h8.6l-6.8 5.2 3 8-7.3-6-7.3 5 2.8-9-6.6-5h8.3z" fill="#108c00"/>
    </g>
    <g stroke-width="1pt">
      <path d="M177.2 330.6l5.6-16 5 15.8s17.2.5 17.2.2-13.6 10.4-13.6 10.4l6.2 17.5c-.3-.5-14.8-10.8-14.8-10.8S168 358 168.2 358s5.7-17 5.7-17l-14-10 16-.4z"/>
      <path d="M178 331.4l4.8-13.8 4.4 13.6s14.8.5 14.8.2-11.7 9-11.7 9l5.3 15.2c-.2-.5-12.8-9.4-12.8-9.4s-12.8 9-12.6 9 5-14.8 5-14.8l-11.6-8.7 14.3-.3z" fill="#ffe700"/>
      <path d="M180 333.7l2.8-8 2.5 8h8.6l-7 5.2 3 8-8-6-8 5 3-9-7-5h8z" fill="#108c00"/>
    </g>
    <g stroke-width="1pt">
      <path d="M150 208.7l5.6-16 5 15.8s17.2.5 17.2.2-13.5 10.4-13.5 10.4l6 18-14.7-11s-14.8 10-14.6 10 5.7-17 5.7-17l-13.3-10H150z"/>
      <path d="M150.8 209.5l4.8-13.8 4.4 13.6s14.8.5 14.8.2-11.7 9-11.7 9l6 15.2c0-.5-13-9.4-13-9.4s-13 9-12 9 5-14.8 5-14.8l-11-8.7 15-.3z" fill="#ffe700"/>
      <path d="M152.8 211.8l2.8-8 2.6 8h8.5L160 217l3 8.7c0-.2-7.4-5.4-7.4-5.4l-7.2 5.2 2.8-8.5-6.6-5 8.2-.2z" fill="#108c00"/>
    </g>
    <g stroke-width="1pt">
      <path d="M324.6 174c0 .4-5.6 16-5.6 16l-5-15.6s-17.2-.5-17.2-.3 13.5-10 13.5-10l-6-17c.2 1 14.7 11 14.7 11s14.8-10 14.5-10-5.6 17-5.6 17l13 10-17 1z"/>
      <path d="M324 173.3c0 .3-5 14-5 14l-4.4-13.7s-14.8-.5-14.8-.3 11.7-9 11.7-9l-5.3-15c.2.4 12.8 9.3 12.8 9.3s12.8-9 12.6-9-5 14.8-5 14.8l11.6 8.7-14.3 1z" fill="#ffe700"/>
      <path d="M321.8 171l-2.8 8-2.5-7.8s-8.6-.3-8.6 0 6-5.3 6-5.3l-3-9 7 5 7-5-3 8 6 5h-8z" fill="#108c00"/>
    </g>
    <g stroke-width="1pt">
      <path d="M367.3 290.3l-5.6 16-5-15.8s-17.2-.5-17.2-.2S353 280 353 280l-6-17.6c.2.5 14.7 11 14.7 11s14.8-10.5 14.5-10.5-5.6 17-5.6 17l13.3 10h-17z"/>
      <path d="M366.6 289.5l-5 13.8-4.3-13.6s-14.8-.4-14.8-.2 11.7-9 11.7-9l-5.3-15.2c0 .5 12 9.4 12 9.4s13-9 12-9-5 14.8-5 14.8l11 8.8-14.7.2z" fill="#ffe700"/>
      <path d="M364.5 287.2l-2.8 8-2.5-8h-8.6l6.8-5-3-9c0 .4 7.3 5.5 7.3 5.5l7.3-5-2.8 8.4 6.6 5-8.3 1z" fill="#108c00"/>
    </g>
    <g stroke-width="1pt">
      <path d="M261.4 375.3l-5.6 16-5-15.8s-17.2-.5-17.2-.2S247 365 247 365l-6-17.6c.3.5 14.8 10.8 14.8 10.8s14.8-10.3 14.5-10.3-5.6 17-5.6 17l13.3 10h-16.6z"/>
      <path d="M260.7 374.4c0 .3-5 14-5 14l-4.3-13.7s-14.8-.5-14.8-.2 11.7-9 11.7-9l-5.3-15.2c.2.5 12.8 9.4 12.8 9.4s12.8-9 12.6-9-5 14.8-5 14.8l11.6 8.7-14.3.3z" fill="#ffe700"/>
      <path d="M258.6 372.2l-2.8 8-2.5-8h-8.6l6.8-5.2-3-8.7c0 .2 7.3 5.4 7.3 5.4l7.3-5.2-2 8.5 7 5-8 .2z" fill="#108c00"/>
    </g>
    <g stroke-width="1pt">
      <path d="M162 290.3l-5.7 16-5-15.8s-17.2-.5-17.2-.2 14-10.3 14-10.3l-6-17.6 15 11 14-10.4-5 17 14 10-16.5.2z"/>
      <path d="M161.2 289.5l-5 13.8-4.3-13.6s-15-.4-15-.2 11-9 11-9l-6-15.2c0 .5 13 9.4 13 9.4s13-9 12-9-5 14.8-5 14.8l11.3 8.8-14 .2z" fill="#ffe700"/>
      <path d="M159 287.2l-2.7 8-2.5-8h-8.6l6.8-5-3-9c0 .4 7.3 5.5 7.3 5.5l7.3-5-2.8 8.4 6.6 5-8.3 1z" fill="#108c00"/>
    </g>
    <g stroke-width="1pt">
      <path d="M198.7 175.8c0 .3-5.7 16-5.7 16l-5-15.7h-17l13.4-10-6-17c0 1 14.6 11 14.6 11s14.8-10 14.6-10-5.6 17-5.6 17l13.2 10-16.5 1z"/>
      <path d="M198 175c0 .3-5 14-5 14l-4.4-13.7s-14.8-.5-14.8-.3 11.7-9 11.7-9l-5.3-15c.2.4 12.8 9.3 12.8 9.3s12.8-9 12.6-9-4.8 14.8-4.8 14.8l11.4 9-14.3 1z" fill="#ffe700"/>
      <path d="M195.8 172.8l-2.8 8-2.5-8H182l6.7-5.2-3-8.7 7.3 5 7.3-5-2.8 8 6.6 5h-8z" fill="#108c00"/>
    </g>
    <g transform="translate(-250.6 359.4)">
      <g transform="matrix(.2 0 0 .2 429.8 -215.6)" stroke="#000" stroke-width="2.5" fill="#009200">
        <ellipse rx="30.8" ry="189.8" transform="matrix(1.4 0 0 1 -534.3 263.7)" cy="586.1" cx="680.2"/>
        <ellipse rx="30.8" ry="189.8" transform="matrix(1.5 0 0 1 -547.2 267.1)" cy="586.1" cx="680.2"/>
        <ellipse rx="30.8" ry="189.8" transform="matrix(1.2 0 0 1.1 -364.9 214.1)" cy="586.1" cx="680.2"/>
      </g>
      <g stroke="#000" transform="translate(72.9 -9.8)">
        <path d="M388.5-53c6-.3 3.4-3.3 6.4-5 3-1.6 7-.6 8 1.4s0 4 2 4 47-2.6 48-1c1 1.8 2 5 0 6.4-2 1.4-59 3-61 1.6s-5-7-5-7.4z" stroke-width=".5" fill="#a95600"/>
        <path d="M393.4-41c0 4 4.5 2.6 4.6 6 0 3.5-7.6.3-7.8-6.2.2-6.4 7.5-9.8 7.7-6 0 3-5 2-5 6z" stroke-width=".4" fill="#ff0"/>
        <path d="M397.4-41c0 4 4.5 2.7 4.6 6 0 3.6-7.6.4-7.8-6 .2-6.5 7.5-9.8 7.7-6 0 3-5 2-5 6z" stroke-width=".4" fill="#ff0"/>
        <path d="M401.7-41.2c0 4 4.5 2.7 4.6 6 0 3.6-7.6.4-7.8-6 .2-6.5 7.5-9.8 7.6-6 1 3-4 2-4 6z" stroke-width=".4" fill="#ff0"/>
        <path d="M405.7-41.2c0 4 4.5 2.7 4.6 6 0 3.6-7.6.4-7.8-6 .2-6.5 7.5-9.8 7.6-6 1 3-4 2-4 6z" stroke-width=".4" fill="#ff0"/>
        <ellipse rx="3.5" ry="3.4" transform="matrix(1.1 0 0 1.1 -75.6 4.7)" cy="-41.1" cx="478.4" stroke-width=".4" fill="#a95600"/>
      </g>
      <g transform="rotate(-5.8 688.4 -625.2)" stroke="#000" stroke-width="2.5" fill="#009200">
        <ellipse rx="20.8" ry="24.1" transform="matrix(.2 0 0 .3 369.8 -361.6)" cy="905" cx="427.1"/>
        <ellipse rx="20.8" ry="24.1" transform="matrix(.2 0 0 .3 364 -362.7)" cy="905" cx="427.1"/>
        <ellipse rx="20.8" ry="24.1" transform="matrix(.2 0 0 .3 360.6 -370.6)" cy="905" cx="427.1"/>
        <ellipse rx="20.8" ry="24.1" transform="matrix(.2 0 0 .3 369.3 -399.4)" cy="905" cx="427.1"/>
        <ellipse rx="20.8" ry="24.1" transform="matrix(.2 0 0 .3 377.4 -379.1)" cy="905" cx="427.1"/>
        <ellipse rx="20.8" ry="24.1" transform="matrix(.2 0 0 .3 373.2 -382.2)" cy="905" cx="427.1"/>
        <ellipse rx="20.8" ry="24.1" transform="matrix(.2 0 0 .3 368 -386.7)" cy="905" cx="427.1"/>
        <ellipse rx="20.8" ry="24.1" transform="matrix(.2 0 0 .3 363 -389.5)" cy="905" cx="427.1"/>
      </g>
      <path d="M482.6-141s-11.7 10-10 37c1.7 27 26.4 39.4 26.4 39.4s6.2-7.7 5.2-29.5c-2-32-13.8-46-13.8-46l-7.8-2z" stroke="#000" stroke-width=".5" fill="#804bff"/>
      <g transform="rotate(4.5 181 769.9)" stroke="#000" stroke-width="2.5" fill="#009200">
        <ellipse rx="20.8" ry="24.1" transform="matrix(.2 0 0 .3 369.8 -361.6)" cy="905" cx="427.1"/>
        <ellipse rx="20.8" ry="24.1" transform="matrix(.2 0 0 .3 364 -362.7)" cy="905" cx="427.1"/>
        <ellipse rx="20.8" ry="24.1" transform="matrix(.2 0 0 .3 360.6 -370.6)" cy="905" cx="427.1"/>
        <ellipse rx="20.8" ry="24.1" transform="matrix(.2 0 0 .3 369.3 -399.4)" cy="905" cx="427.1"/>
        <ellipse rx="20.8" ry="24.1" transform="matrix(.2 0 0 .3 377.4 -379.1)" cy="905" cx="427.1"/>
        <ellipse rx="20.8" ry="24.1" transform="matrix(.2 0 0 .3 373.2 -382.2)" cy="905" cx="427.1"/>
        <ellipse rx="20.8" ry="24.1" transform="matrix(.2 0 0 .3 368 -386.7)" cy="905" cx="427.1"/>
        <ellipse rx="20.8" ry="24.1" transform="matrix(.2 0 0 .3 363 -389.5)" cy="905" cx="427.1"/>
      </g>
      <ellipse rx="58.3" ry="186.5" stroke="#000" transform="matrix(.2 -.1 .1 .1 369.6 -145.1)" cy="606.1" cx="624.4" stroke-width="1pt" fill="#c90000"/>
      <g stroke="#000" fill="#009200" transform="rotate(1 242.4 -1957.8)">
        <ellipse rx="10.8" ry="12.9" transform="matrix(.4 0 0 .3 445.1 -230.5)" cy="356.8" cx="218.1" stroke-width="1.5"/>
        <ellipse rx="10.8" ry="12.9" transform="matrix(.3 0 0 .3 457.2 -235.9)" cy="356.8" cx="218.1" stroke-width="1.5"/>
        <ellipse rx="10.8" ry="12.9" transform="matrix(.3 0 0 .3 452 -235.9)" cy="356.8" cx="218.1" stroke-width="1.5"/>
        <ellipse rx="10.8" ry="12.9" transform="matrix(.4 0 0 .3 449.5 -233.5)" cy="356.8" cx="218.1" stroke-width="1.6"/>
        <ellipse rx="10.8" ry="12.9" transform="matrix(.4 0 0 .3 448.9 -237.9)" cy="356.8" cx="218.1" stroke-width="1.6"/>
        <ellipse rx="10.8" ry="12.9" transform="matrix(.3 0 0 .3 447 -238.8)" cy="356.8" cx="218.1" stroke-width="1.5"/>
        <ellipse rx="10.8" ry="12.9" transform="matrix(.3 0 0 .3 448.1 -241.6)" cy="356.8" cx="218.1" stroke-width="1.6"/>
        <ellipse rx="10.8" ry="12.9" transform="matrix(.4 0 0 .3 432.8 -243.5)" cy="356.8" cx="218.1" stroke-width="1.5"/>
        <ellipse rx="10.8" ry="12.9" transform="matrix(.4 0 0 .3 445.9 -243.5)" cy="356.8" cx="218.1" stroke-width="1.6"/>
        <ellipse rx="10.8" ry="12.9" transform="matrix(.3 0 0 .3 444.2 -247)" cy="356.8" cx="218.1" stroke-width="1.6"/>
        <ellipse rx="10.8" ry="12.9" transform="matrix(.3 0 0 .3 436.1 -243.2)" cy="356.8" cx="218.1" stroke-width="1.5"/>
        <ellipse rx="10.8" ry="12.9" transform="matrix(.3 0 0 .3 437.4 -243.9)" cy="356.8" cx="218.1" stroke-width="1.6"/>
        <ellipse rx="10.8" ry="12.9" transform="matrix(.3 0 0 .3 439 -247)" cy="356.8" cx="218.1" stroke-width="1.6"/>
      </g>
      <g stroke="#000" fill="#009200" transform="matrix(.2 0 0 .2 421 -216.8)">
        <ellipse rx="67.4" ry="205.6" transform="matrix(1 -.3 .4 .9 -245.8 324.4)" cy="564.5" cx="528.7" stroke-width="2.5"/>
        <ellipse rx="13.3" ry="40.8" transform="rotate(-23.4 630.5 660.9)" cy="646.1" cx="528.7" stroke-width="2.5"/>
        <path d="M140 644c0 57.7-19 86.2-34.7 110.3 7.5-32.5 13-52.6 13-110.3 0-57.7 29.5-85.3 40.3-102-4.2 16.7-18.7 44.3-18.7 102z" transform="matrix(1.9 -.5 .9 1.2 -352.3 -10)" stroke-width="1.5"/>
        <path d="M140 644c0 57.7-19 86.2-34.7 110.3 7.5-32.5 13-52.6 13-110.3 0-57.7 29.5-85.3 40.3-102-4.2 16.7-18.7 44.3-18.7 102z" transform="matrix(1.9 -.5 .9 1.2 -348.4 44.1)" stroke-width="1.5"/>
        <path d="M140 644c0 57.7-19 86.2-34.7 110.3 7.5-32.5 13-52.6 13-110.3 0-57.7 29.5-85.3 40.3-102-4.2 16.7-18.7 44.3-18.7 102z" transform="matrix(1.9 -.5 1 1.2 -361.9 105.8)" stroke-width="1.5"/>
        <ellipse rx="13.3" ry="40.8" transform="matrix(1.8 -.4 .7 1.6 -915.6 -221)" cy="646.1" cx="528.7" stroke-width="1.4"/>
        <ellipse rx="13.3" ry="40.8" transform="matrix(1.6 -.2 .5 1.4 -739.5 -91.8)" cy="646.1" cx="528.7" stroke-width="1.6"/>
        <ellipse rx="13.3" ry="40.8" transform="matrix(1.6 -.2 .5 1.4 -750.6 -91.8)" cy="646.1" cx="528.7" stroke-width="1.6"/>
        <ellipse rx="13.3" ry="40.8" transform="matrix(1.3 -.2 .5 1 -531.1 47.6)" cy="646.1" cx="528.7" stroke-width="2.1"/>
        <ellipse rx="13.3" ry="40.8" transform="matrix(1.3 -.1 .4 1 -517.9 12.2)" cy="646.1" cx="528.7" stroke-width="2.1"/>
        <path d="M145.7 569.5c0 34-6.7 61.6-15 61.6s-15-27-15-61" transform="matrix(1 -.5 .5 1.2 12.8 -14.5)" stroke-width="2.1"/>
        <ellipse rx="13.3" ry="40.8" transform="matrix(1.3 -.1 .4 1 -519.5 -34.4)" cy="646.1" cx="528.7" stroke-width="2.1"/>
        <ellipse rx="13.3" ry="40.8" transform="matrix(1.3 -.1 .4 1 -534 -40.1)" cy="646.1" cx="528.7" stroke-width="2.1"/>
        <path d="M145.7 569.5c0 34-6.7 61.6-15 61.6s-15-27-15-61" transform="matrix(.7 -.5 .5 .8 39.5 143.3)" stroke-width="2.9"/>
        <path d="M145.7 569.5c0 34-6.7 61.6-15 61.6s-15-27-15-61" transform="matrix(.7 -.5 .5 .8 51.1 125.8)" stroke-width="2.9"/>
        <path d="M145.7 569.5c0 34-6.7 61.6-15 61.6s-15-27-15-61" transform="matrix(.9 -.6 .6 1.1 -40.2 -10.7)" stroke-width="2.1"/>
        <path d="M145.7 569.5c0 34-6.7 61.6-15 61.6s-15-27-15-61" transform="matrix(.7 -.5 .5 .9 68.6 71.2)" stroke-width="2.7"/>
      </g>
      <g stroke="#000" stroke-width=".5" fill="#804bff">
        <path d="M513.2-145.2c-2.5 1.8 0 5 2.4 6 2.6 1.7 17.3 11.8 27.2 2.5-8 .2-23.7-12.6-29.6-8.5z"/>
        <path d="M512-151c-2.6 1.7 0 5 2.3 6 2.6 1.6 17.3 11.7 27.2 2.4-8 .2-23.7-12.6-29.6-8.5z"/>
        <path d="M510-156.7c-2.4 1.8 0 5 2.5 6 2.6 1.7 17.3 11.8 27.2 2.5-8 .2-23.7-12.6-29.6-8.5z"/>
        <path d="M506.2-163c-2.5 1.7 0 5 2.4 6 2.6 1.6 17.3 11.7 27.2 2.4-8 .2-23.7-12.6-29.6-8.5z"/>
      </g>
      <g transform="rotate(1 -589.6 681.6)">
        <path d="M211.2 247.3c21.7-12 56.6-9.8 79.7 11.2 19 17 45 75.2 70 92.8-20 0-32-5.8-42-15.2-29 16-38 17-64 16-36-1-63-17-68-40-7-21 4-52 24-63z" transform="matrix(.2 0 .1 .2 407.8 -213.6)" stroke="#000" stroke-width="2.5" fill="#804bff"/>
        <ellipse rx="14.2" ry="15" stroke="#000" transform="matrix(.3 0 0 .1 401.8 -215.2)" cy="323" cx="287.2" stroke-width="2.5" fill="red"/>
        <ellipse rx="23.3" ry="15.9" stroke="#000" transform="matrix(.2 -.1 .1 .2 398.7 -208.1)" cy="348.3" cx="204.6" stroke-width="2.5" fill="#ff0"/>
        <ellipse rx="5.8" ry="5.8" transform="matrix(.2 0 0 .2 411.3 -233.7)" cy="333.9" cx="283.9"/>
        <path d="M469.6-165.5c.4 1.8-.7 4.3-3.3 5.3-2.7 1.3-4.6 4.2-5.6 8.8-4.7-10.3-2.3-14.8 2-16 3.8-1.5 6-1.4 7 2z" stroke="#000" stroke-width=".7" fill="#ff0"/>
        <ellipse rx="4.7" ry="4.7" transform="matrix(.2 0 0 .2 418.7 -235)" cy="362.4" cx="199"/>
      </g>
    </g>
  </g>
</svg>
