<svg xmlns="http://www.w3.org/2000/svg" height="480" width="640" viewBox="0 0 640 480">
  <defs>
    <clipPath id="a">
      <path fill-opacity=".67" d="M-77.62 0h682.67v512H-77.62z"/>
    </clipPath>
  </defs>
  <g clip-path="url(#a)" transform="translate(72.77) scale(.94)">
    <path fill-rule="evenodd" fill="#ba0000" d="M629.43 512H-102V0h731.43z"/>
    <path d="M281.02 376c.2-.6.6-6.83.4-6.83s-9.46-10.87-9.26-10.87c.2 0 11.88 2.6 11.88 2.2 0-.4 4.63-11.46 4.63-11.66 0-.2 5.63 13.48 5.63 13.48l11.47 5.04-8.05 6.64s1.82 12.88 1.82 13.08c0 .2-8.05-7.65-8.05-7.65l-8.9 1s-1.2-4.02-1.6-4.42z" fill-rule="evenodd" fill-opacity=".99" stroke="#000" stroke-width="2.2" fill="#ffef00"/>
    <path d="M218.66 206.9c-7.65 3.93-37 37.48-41.02 42.7-3.37 7.6-9.97 17.2-16.76 23.4-7.26 5.5-11.3 12.98-10.3 20.08-.07 8.83 4.88 14.84 8.83 21.05 2.4 2.84 5.5 4.68 8.9 4.9 6.9.9 7.5 3 10.9 4.32 13.5 18.4 33.7 31.95 48.2 42.7 9.3 4.87 15.7 9.74 17.9 12.4 4.3 8.1 3.5 16.02 2.9 19.9L237.3 439c-1.8 11.1 7.8 8.6 8.32 6.38 4.3-5.63 10.8-1.68 20.04-34.28 4.24-5.72 8.5-11.43 12.73-17.15 0 0 4.9-1.96 4.9-2.44 7.4-8.9 1.7-14-2.5-15.6l-9.3-3.4s-10.8-10.7-11.3-10.7c-5.1-14.9-30.3-46.7-36.1-51.1-4.1-4.2-6-6-9.8-8.3-5.9-2.8-7.8-3.7-11.4-5.1-3.1-1.2-.9-4.5 1-6 19.9-10.8 35.6-22.8 54.7-35.1l2.9-1.9-6.9-39.1-31.6-11.5c-1.7 1.1-3 2.3-4.4 3.4z" fill-rule="evenodd" stroke="#000" stroke-width="2.64" fill="#fff"/>
    <path d="M245.3 413.15c.1-.4 19.9-4.03 19.9-4.03s-2.3 7.35-2.4 7.35l-19.72 5.94 2.2-9.2z" fill-rule="evenodd" fill="#ffec00"/>
    <path d="M193.64 338.5c3.82-10.15 14.44-18.2 21.57-20.42" stroke="#000" stroke-width="2.2" fill="none"/>
    <path d="M244.58 413.32c1.28-.36 6.96-2.02 8.62-2.28 1.76-.4 3.52-.87 5.22-1.42 1.96-.4 3.18-.77 5.22-1.14 1.6-.6 3.17-1.02 4.87-1.42M241 425.58c.16-.22 1.5-1.42 2.48-2 1.14-.36 5.05-2 6.52-2.27a53.94 53.94 0 0 0 4.67-1.4c1.75-.4 2.84-.7 4.66-1.1 1.42-.6 2.83-1 4.35-1.4" stroke="#000" stroke-width="2.44" fill="none"/>
    <path d="M249.04 341.38h-.28c.9 0 .34-.07-.86 1.42-.42 1.15-4.08 3.7-6.83 3.7-1.33.14-3.37.3-4.7.3-.38 0-.9-.3-1.28-.3m13.6 53.52h1.4c1.5 0 2.9.26 4.2.28 1.4 0 2.8.4 4.2.4 1.4.2 3.1.14 4.6.36 1.6.05 3 .38 4.7.38 1.4.06 2.1.3 3.7.3l-3.7-.3c1.4.06 2.1.3 3.7.3m-32.8 33c.1-.22 1.4-1.42 2.3-2 1-.35 4.6-2 5.9-2.27a46.72 46.72 0 0 0 4.2-1.42c1.6-.4 2.6-.77 4.2-1.14 1.3-.6 2.6-1 4-1.4m5.8-41.2c-.8 2.4.24 2.9.7 4 .72 1 2.64 2.5 5.7 3.5 1.13.3 2.03.6 3.4 1.2.9.1 1.3.3 2 .6m-124-94.8h.26c-.86 0-.3 0 1.17-1.2.94-1 1.7-1.5 2.57-2.6m14.5 24c.2 0 16.6-8.2 18.3-10 1.3-.9 2.2-1.8 3.7-2.9 1-.5 1.7-1.1 2.6-1.7.8-1.1 1.8-1.7 2.3-2.7 1-.8.6-1.8 1.4-2.8.4-1.1 1.1-2.9 1.3-3.9m20.9 12.2c.1.6-.2 2.4-.2 3.8 0 1.6-2.1 6.6-4.6 8" stroke="#000" stroke-width="2.2" fill="none"/>
    <path d="M192.55 307.82c.1 0 2.6.8 6.75 2.1 5 1.8 15.44 8.36 16.47 9.27 1.06.8 2.95 1.5 3.67 2.5 1.14 1 1.96 2.1 2.85 3.1 1 1.2 1.9 2.3 2.5 3.4 3.1 2.6 11.7 20.3 11.9 21.3l1.4 3.1c.6.7 1 1.7 1.7 2.8.6 1.4 1.2 2 2 3.1.9.6 2.2 1.9 3.4 2.5 1.3 1.1 2.5 1.5 3.4 2.3 1.3.5 16.3 10 17 10.5 1.3 1.1 5.5 5.4 2.6 8.6-1.3 1-2.4 2.4-3.5 3-1.1 1.1-2.6 1.6-3.9 2.1-6.8 2-10.2 1.3-11.6 1.3H248M159.2 274c1.95.7 1.18.2 2.9.95 1.2.5 1.95.55 3.1.96 1.2.4 4.6 1 6.24 2.7 1.2 1.1 2.1 2 3.4 2.8 1.55 1.1 2.7 1.6 4.6 2.4 1.62.6 3.43 1.3 5.1 1.3 1.7.1 2.1.1 3.74.1h4-4 3.96" stroke="#000" stroke-width="2.2" fill="none"/>
    <path d="M158.96 293.28c4.27-.28 11.38 1 11.53 1l9.3-.14c4.9-.48 6-2.38 6.8-3.7 1.8-2.85 3.1-3.85 4.5-5.98 2.3-1.7 5.4 2.27 5.5 2.27 8 7.55 1.6 16.8 1.1 17.08-4 3.7-4.9 3.9-7.3 1.6-2.4-2.8-3.1-4.1-5.1-5.1-3.9-1.8-11.8-.4-12-.4-.2 0-4.2 1.6-4.2 1.6-2 .7-3.2 2.4-6.6 3-3.4.3-4.6-.1-6.3-2.8-2.3-3.5-1.1-7.8 2.3-8.2z" fill-rule="evenodd" stroke="#000" stroke-width="2.2" fill="#ffe606"/>
    <path d="M381.8 120.66c-.63.12-6.26 2.83-6.16 3 .1.18-4.84 13.57-4.94 13.4-.1-.18-3.54-11.64-3.9-11.44-.34.2-12.25 1.6-12.43 1.7-.18.1 9-11.53 9-11.53l-1.25-12.5 9.74 3.7s10.34-7.9 10.5-8c.2-.1-2.7 10.7-2.7 10.7l5.2 7.2s-2.9 3-3.06 3.5z" fill-rule="evenodd" fill-opacity=".99" stroke="#000" stroke-width="2.2" fill="#ffef00"/>
    <path d="M264.93 257.9c7.18 4.74 50.8 13.88 57.34 14.82 8.27-.78 19.88.26 28.6 3.15 8.34 3.63 16.85 3.47 22.55-.88 7.73-4.3 10.55-11.6 14.03-18 1.33-3.5 1.4-7.1-.05-10.1-2.57-6.4-1.03-8-1.57-11.6 9.4-20.8 11.36-45 13.6-62.9-.28-10.5.82-18.5 2.06-21.7 4.9-7.7 12.2-10.9 15.9-12.3l40.7-10.6c10.5-3.9 3.6-11 1.5-10.4-7.1-1.1-6.8-8.6-39.7-.7l-21.2-2.7s-4.1-3.3-4.6-3.1c-11.5-2.1-13.2 5.3-12.5 9.8l1.5 9.8s-4.2 14.6-3.9 15.1c-10.5 11.7-26.1 49.5-27.1 56.8-.5 6.8-3.1 5.5-2.4 12.2 0 5.1-.6 1.9 1.1 12.6.4 3.2-3.5 2.9-5.8 2-19.2-12-37.4-19.9-57.5-30.5l-3.2-1.6-30.8 25.1 5.8 33.2c1.8.9 3.4 1.4 5.1 2.1z" fill-rule="evenodd" stroke="#000" stroke-width="2.64" fill="#fff"/>
    <path d="M431.67 133.6c-.4.1-13.27-15.4-13.27-15.4s7.54-1.58 7.58-1.5l14.84 14.3-9.15 2.6z" fill-rule="evenodd" fill="#ffec00"/>
    <path d="M391.93 215.2c-10.73 1.66-22.95-3.65-28.38-8.78" stroke="#000" stroke-width="2.2" fill="none"/>
    <path d="M432.18 134.14c-.94-.94-5.17-5.08-6.2-6.4a66.48 66.48 0 0 0-3.8-3.85c-1.32-1.6-2.24-2.4-3.56-4-1.3-1.1-2.44-2.3-3.63-3.6m29.6 14.9c-.3 0-2-.6-3-1.2-.9-.8-4.3-3.4-5.2-4.6a54.2 54.2 0 0 0-3.5-3.4c-1.2-1.4-2.1-2.1-3.3-3.5-1.2-1-2.3-2-3.4-3.1" stroke="#000" stroke-width="2.44" fill="none"/>
    <path d="M367.28 165.5l.14.26c-.44-.78-.23-.27 1.66.04 1.2-.2 5.22 1.75 6.57 4.14.78 1.1 1.9 2.8 2.55 3.96.2.33.2.93.38 1.26m39.95-38.14l-.14-.25-.6-1c-.7-1.28-1.2-2.7-1.9-3.85-.7-1.24-1.1-2.68-1.8-3.92-.6-1.35-1.5-2.83-2-4.23-.8-1.48-1.2-2.8-2-4.32-.7-1.24-.8-2-1.6-3.36l1.5 3.3c-.7-1.3-.9-2-1.6-3.4m44.8 12.3c-.3 0-1.9-.5-2.9-1-.9-.8-4.1-3.1-5-4.1a47.07 47.07 0 0 0-3.4-3.1c-1.1-1.2-2-1.9-3.1-3.2-1.2-.9-2.2-1.8-3.2-2.8M397 129.2c2.46-.43 2.46-1.63 3.1-2.5.5-1.13.87-3.53.2-6.64-.3-1.2-.45-2.1-.7-3.55-.33-.8-.4-1.3-.44-2M377.6 269.4l-.15-.24c.45.74.24.3-1.54-.47-1.3-.3-2.1-.8-3.5-1m13.9-24.4c-.1-.2-15.3-10.4-17.7-11-1.4-.7-2.6-1-4.3-1.8-.9-.6-1.8-.9-2.7-1.4-1.3-.2-2.3-.7-3.5-.7-1.2-.4-1.8.4-3.2.2-1.1.2-3 .4-4 .7m.5-24.2c.5-.4 2.2-1 3.4-1.7 1.5-.8 6.8-1.4 9.3 0" stroke="#000" stroke-width="2.2" fill="none"/>
    <path d="M365.7 231.2c-.04-.08-.55-2.65-1.48-6.9-.88-5.26-.26-17.57.02-18.9.2-1.34-.08-3.35.43-4.47.3-1.46.88-2.74 1.33-4 .6-1.54 1.1-2.84 1.73-3.92.68-4 12-20.1 12.75-20.8a43.02 43.02 0 0 1 2.03-2.7c.4-.9 1.1-1.8 1.7-2.9 1-1.2 1.2-2.1 1.8-3.2.1-1.1.6-2.8.6-4.2.4-1.6.2-2.9.3-4.1-.1-1.4.8-19.1.9-20 .3-1.7 2.1-7.5 6.2-6.5 1.6.6 3.4.9 4.4 1.5 1.5.4 2.7 1.5 3.8 2.3 5.1 4.9 6.1 8.3 6.8 9.4l.7 1.3m-56.9 133l-.1-.2c.4.7.2.4-.3-1.1-.1-1.2-.5-3-.7-4.2-.2-1.2-.8-2.7-.7-3.5-.4-1.2-.1-2.3 0-3.5.4-1.6.5-2.7.6-4.2.2-1.9.1-3.2.2-5-.5-1.4-.6-2.7-1.3-4.1-.6-1.4-1.1-2.7-1.9-4.1l-2-3.5 2 3.5-2-3.4" stroke="#000" stroke-width="2.2" fill="none"/>
    <path d="M369.5 267.6c-2.34-3.58-4.7-10.4-4.78-10.54l-4.73-8.1c-2.9-4.08-5.1-4.1-6.6-4.15-3.4-.2-4.9-.8-7.5-1-2.6-1.1-.7-5.8-.8-5.9 2.6-10.6 13.8-9.6 14.3-9.3 5.1 1.7 5.7 2.3 4.9 5.6-1.3 3.5-2.1 4.8-2 7 .2 4.3 5.4 10.5 5.5 10.6 0 .2 3.4 2.9 3.4 2.9 1.5 1.4 3.6 1.6 5.8 4.3 1.8 2.9 2.1 4 .6 6.9-2 3.8-6.3 4.9-8.4 2.1z" fill-rule="evenodd" stroke="#000" stroke-width="2.2" fill="#ffe606"/>
    <path d="M105.24 168.67c.45.46 5.8 3.7 5.9 3.5s14-3.38 13.9-3.2-7.8 9.33-7.43 9.52c.4.1 8.1 9.3 8.3 9.4.2.1-14.5-1.2-14.5-1.2l-9.7 7.8-2.2-10.2s-12.4-4.2-12.6-4.3c-.2-.1 10.5-3.7 10.5-3.7l3.2-8.3s4.1.8 4.7.6z" fill-rule="evenodd" fill-opacity=".99" stroke="#000" stroke-width="2.2" fill="#ffef00"/>
    <path d="M284.06 191.25c.03-8.6-16.22-50.1-19-56.1-5.2-6.48-10.7-16.76-13.05-25.64-1.5-8.9-6.3-15.9-13-18.3-7.8-4.1-15.4-2.5-22.7-1.9-3.6.8-6.6 2.7-8.4 5.6-3.9 5.7-6.1 5.3-8.8 7.7-22.5 3.5-43.8 15.2-60.1 23.1-8.5 6-15.8 9.5-19.2 10.2-9.1.1-15.8-4.3-19-6.6L69.7 101c-9-6.7-11.2 2.96-9.5 4.44 3 6.46-3.5 10.4 21.15 33.6l9.36 19.2s-.5 5.27-.1 5.5c4.5 10.7 11.7 8.05 15.1 5.04l7.4-6.67s14.5-4.6 14.8-5c15.6 2.3 55.8-5.3 62.4-8.5 6-3.3 6.4-.5 11.6-4.7 4.3-2.8 2-.6 9.9-7.8 2.5-2.1 4.4 1.3 4.9 3.7.5 22.7 3.9 42.2 5.9 64.8l.4 3.5 37.9 11.9 24.67-23c-.3-2-.7-3.6-1-5.5z" fill-rule="evenodd" stroke="#000" stroke-width="2.64" fill="#fff"/>
    <path d="M88.74 119.85c.3.28-5.6 19.54-5.6 19.54s-5.47-5.5-5.42-5.6l3.82-20.3 7.2 6.2z" fill-rule="evenodd" fill="#ffec00"/>
    <path d="M178.78 108.4c7.26 8.07 9.5 21.2 8.2 28.55" stroke="#000" stroke-width="2.2" fill="none"/>
    <path d="M88.92 119.14c-.27 1.3-1.42 7.1-1.95 8.7a66.82 66.82 0 0 0-1.15 5.3c-.54 1.9-.78 3.17-1.4 5.15-.18 1.6-.54 3.2-.97 4.9m-3.75-32.9c.1.2.55 2 .62 3.1-.2 1.2-.54 5.4-1 6.8a54.36 54.36 0 0 0-.88 4.8c-.45 1.7-.62 2.9-1.13 4.6-.1 1.5-.4 3-.7 4.5" stroke="#000" stroke-width="2.44" fill="none"/>
    <path d="M150.7 156.25l.12-.25c-.4.8-.1.34-.86-1.42-.83-.9-1.4-5.33-.14-7.77.5-1.2 1.3-3.1 1.9-4.3.2-.3.68-.6.85-1M98.8 129l-.13.24-.53 1c-.68 1.32-1.6 2.5-2.22 3.67-.65 1.3-1.67 2.4-2.32 3.6-.84 1.2-1.58 2.8-2.45 4-.82 1.5-1.73 2.5-2.53 4.1-.7 1.2-1.24 1.8-1.96 3.2l1.96-3.1c-.7 1.2-1.24 1.8-1.96 3.2m-14.22-44.3c.13.3.62 1.9.72 3-.16 1.1-.34 5.1-.73 6.4-.3 1.5-.56 3-.7 4.5-.4 1.6-.53 2.7-.97 4.3-.06 1.4-.28 2.8-.57 4.2m33.8 24c-1.7-1.8-2.7-1.1-3.8-1.2-1.2.2-3.4 1.2-5.7 3.5-.8.9-1.5 1.6-2.6 2.6-.5.8-.9 1.1-1.5 1.5M232 90.5l-.12.2c.4-.8.1-.4.47 1.5.5 1.3.55 2.2 1.1 3.5m-27.93 1.8c-.1.2-.3 18.5.45 20.8.22 1.5.63 2.8.84 4.6 0 1.1.3 2 .4 3 .6 1.2.8 2.3 1.4 3.3.3 1.3 1.4 1.3 1.9 2.5.8.8 2.1 2.3 2.8 2.9m-20.4 12.8c-.5-.2-2-1.4-3.2-2-1.4-.8-4.8-4.9-5-7.8" stroke="#000" stroke-width="2.2" fill="none"/>
    <path d="M206.53 121.57c-.05.1-1.9 1.93-4.97 5.03-3.9 3.62-14.54 9.84-15.82 10.34-1.23.56-2.76 1.9-3.97 2.08-1.4.56-2.77.77-4.1 1.1-1.6.33-2.95.62-4.2.7-3.73 1.6-23.43.98-24.45.76a43.16 43.16 0 0 1-3.43-.18c-1 .22-2.1.13-3.4.2-1.6-.12-2.4.17-3.7.33-1 .53-2.7 1.1-3.9 1.85-1.6.63-2.5 1.5-3.6 1.98-1.1.93-16.5 9.87-17.2 10.27-1.6.7-7.4 2.43-8.8-1.63-.4-1.6-1.1-3.25-1.2-4.47-.5-1.46-.2-3.03-.2-4.4 1.3-6.9 3.5-9.63 4.2-10.8l.6-1.28M251.1 108l-.13.26c.36-.7.2-.33-.78.88-1 .8-2.2 2.05-3.1 2.88-.9.9-1.8 2.16-2.6 2.5-.8 1.07-1.9 1.4-3 2-1.5.56-2.6 1.04-3.9 1.84-1.7.9-2.7 1.73-4.3 2.6-1 1.23-1.9 1.98-2.8 3.4-.8 1.33-1.6 2.47-2.4 3.92l-1.9 3.54 1.8-3.54-1.9 3.54m11.8 73.12l.2-.5c-.5.93-.3.68.13-.9 0-1.9.46-4.18.5-5.85.3-1.8.6-3.7.6-5.5-.1-2.1-.1-4-.4-6 0-1.9-.2-3.8-.3-5.6 0-1.8-.15-3.4-.5-5.1-.1-1.3-.17-3.1-.5-4.7.2-1.3-.2-2.5-.4-3.5-.5-2-.7-3.1-1.2-5.1-.3-1.1-.6-2.5-1.1-4.1-.15-1.6-1-3.6-1.3-4.9-.5-1-.9-2.3-1.1-3.5-.5-1.1-1.2-2.4-1.4-3.6-.5-1-1.1-2.4-1.6-3.8-.5-1.1-.9-2.5-1.4-3.6-.5-1.4-1.14-2.6-1.5-4-.5-.5-.6-1-.83-1.4" stroke="#000" stroke-width="2.2" fill="none"/>
    <path d="M234.9 98.47c-1.72 3.92-6.14 9.64-6.2 9.77l-4.2 8.4c-1.85 4.6-.67 6.44.13 7.77 1.68 3 1.97 4.6 3.2 6.8.48 2.8-4.5 3.8-4.57 3.9-10.37 3.6-15.62-6.3-15.68-6.8-1.4-5.2-1.22-6.1 1.96-7.1 3.64-.8 5.1-.9 6.9-2.2 3.42-2.5 5.82-10.2 5.9-10.4.06-.1.5-4.4.5-4.4.27-2-.68-3.9.37-7.2 1.4-3.1 2.2-4 5.5-4.2 4.2-.4 7.5 2.6 6.3 5.9z" fill-rule="evenodd" stroke="#000" stroke-width="2.2" fill="#ffe606"/>
    <path d="M221.3 199.65c-1.58-1.42 29.45 11.24 33.72 11.38 5.83-2.13 29.88-22.48 29.88-22.48.24 2 1.1 7.16 3.42 8.26-9.3 7.6-17.74 14.8-27.04 22.4.66 12-1.52 24.6 4.55 38 0 0-7.25.2-7.25 0-6.4-6.4-8.7-37.3-8.7-37.3-10.18-4.5-20.38-8.9-30.58-13.5 1.47-.9 2.65-3.9 2-6.7z" fill-rule="evenodd" fill-opacity=".99" stroke="#000" stroke-width="2.2" fill="#ffef00"/>
    <path d="M250.8 231.3c.5-.36-5.6 2.83-7.15 3.63-28.2 15.04-42.7 36.9-43.6 37.73-.48.93-1.38 2.18-2.2 3.4-.66 1-1.6 2.07-2.23 3.1-.87 1.2-2.68 3.56-3.67 4.6-.13.68.47-.22.27.23m77.85-70.6c-.55-.3 5.08 3.7 6.5 4.7 26.27 18.2 52.35 21.1 53.5 21.5 1.05 0 2.56.2 4.02.4 1.2.1 2.5.5 3.7.5 1.4.2 4.4.7 5.7 1.1.6-.2-.4-.3 0-.4" stroke="#000" stroke-width="2.2" fill="none"/>
  </g>
</svg>
