<svg xmlns="http://www.w3.org/2000/svg" height="480" width="640" viewBox="0 0 640 480">
  <defs>
    <clipPath id="a">
      <path fill-opacity=".67" d="M-86.33 0h682.67v512H-86.33z"/>
    </clipPath>
  </defs>
  <g clip-path="url(#a)" transform="translate(80.93) scale(.9375)">
    <path fill-rule="evenodd" fill="#e73e2d" d="M-164.28 0h835.8v306.5h-835.8z"/>
    <path d="M204.3 282.1c-19.43-15.16-55.63-10.03-61.6-51.28 27.72 21.47 22.7-1.22 64.1 19.23l-2.5 32.06z" fill-rule="evenodd" stroke="#d8aa3f" stroke-width="1.67" fill="#fec74a"/>
    <path d="M209.47 263.35c-13.85-20.4-49.88-26.6-42.92-67.7 19.8 28.94 21.97 5.8 55.1 37.95l-12.18 29.75z" fill-rule="evenodd" stroke="#d8aa3f" stroke-width="1.67" fill="#fec74a"/>
    <path d="M215.77 250c-5-24.14-35.92-43.64-13.78-78.95 7.2 34.3 18 13.74 36.4 56.13L215.7 250z" fill-rule="evenodd" stroke="#d8aa3f" stroke-width="1.67" fill="#fec74a"/>
    <path d="M230.32 237.6c2.65-24.5-20.8-52.56 11.12-79.37-3.64 34.87 13 18.64 17.43 64.6l-28.55 14.78z" fill-rule="evenodd" stroke="#d8aa3f" stroke-width="1.67" fill="#fec74a"/>
    <path d="M243.26 227.67c12.46-21.28 2.56-56.47 42.65-67.86-17.6 30.4 4.3 22.4-10.5 66.1l-32.1 1.8z" fill-rule="evenodd" stroke="#d8aa3f" stroke-width="1.67" fill="#fec74a"/>
    <path d="M262.07 230.3c18.56-16.24 20.33-52.76 61.96-50.86-26.3 23.18-3.06 22.5-30.94 59.32L262 230.3z" fill-rule="evenodd" stroke="#d8aa3f" stroke-width="1.67" fill="#fec74a"/>
    <path d="M278.57 239.87c22.5-10.07 34.9-44.46 74.15-30.43-31.94 14.45-9.53 20.63-47 47.63l-27.15-17.2z" fill-rule="evenodd" stroke="#d8aa3f" stroke-width="1.67" fill="#fec74a"/>
    <path d="M292.5 254.93c24.42-3.33 46-32.84 79.7-8.32-34.7 4.9-14.94 17.1-58.5 32.5L292.5 255z" fill-rule="evenodd" stroke="#d8aa3f" stroke-width="1.67" fill="#fec74a"/>
    <path d="M379.46 259.6l-112.06 2.46 4.7 30.2 107.36-32.66z" fill-rule="evenodd" stroke="#d8aa3f" stroke-width="1.67" fill="#fec74a"/>
    <path d="M363 218.4l-103.84 39.87 17.4 33.37L363 218.4z" fill-rule="evenodd" stroke="#d8aa3f" stroke-width="1.67" fill="#fec74a"/>
    <path d="M280.58 280.67l53.72-97.54-82.4 76.7 28.68 20.84z" fill-rule="evenodd" stroke="#d8aa3f" stroke-width="1.67" fill="#fec74a"/>
    <path d="M279.46 272.63l17.27-109.47-53.8 97.28 36.53 12.2z" fill-rule="evenodd" stroke="#d8aa3f" stroke-width="1.67" fill="#fec74a"/>
    <path d="M273 263.74L254.98 153.5 235 264.2l38-.48z" fill-rule="evenodd" stroke="#d8aa3f" stroke-width="1.67" fill="#fec74a"/>
    <path d="M263.68 254.3l-52.3-92.08 20.1 111.92 32.2-19.85z" fill-rule="evenodd" stroke="#d8aa3f" stroke-width="1.67" fill="#fec74a"/>
    <path d="M255.56 253.6l-81.1-68.48 57.67 98 23.43-29.52z" fill-rule="evenodd" stroke="#d8aa3f" stroke-width="1.67" fill="#fec74a"/>
    <path d="M145.95 218.9l87.07 71.88 13.4-37.6-100.47-34.3z" fill-rule="evenodd" stroke="#d8aa3f" stroke-width="1.67" fill="#fec74a"/>
    <path d="M232.1 260.85l-102.3-1.44 101.87 34.1.43-32.5z" fill-rule="evenodd" stroke="#d8aa3f" stroke-width="1.67" fill="#fec74a"/>
    <path d="M315.12 279.22c0 33.9-27.48 61.38-61.37 61.38s-61.38-27.48-61.38-61.38 27.48-61.37 61.38-61.37 61.37 27.48 61.37 61.37z" fill-rule="evenodd" stroke="#d8aa3f" stroke-width="1.67" fill="#fec74a"/>
    <path fill-rule="evenodd" fill="#005989" d="M-165.12 303.4h839.9V512h-839.9z"/>
    <path d="M-165.6 454c15.62 7.23 38 25.32 61.92 25.3 40.04-.26 41.1-27.42 81.67-26.13 40.6 1.03 33.3 29.63 88.2 29.5 45.3-.13 60-34.67 99.1-30.54 28.9-1.5 40.8 32.72 85.3 33.15 46.1 1 63.1-37.28 92.1-34.1 30.8 0 40.9 30.8 84.2 31.03 55.1.3 64.8-32 99.3-30 24.5-.5 43.9 23.8 79.9 24.4 28.7.5 52.7-21.2 68.9-28.9l.8-36.8c-17 6.4-42.4 27.1-67.8 27.3-36.5 1.4-59.1-23.9-84.5-23.7-30.4.3-42.6 31.3-94.1 31.3-47.1 0-57.9-31.3-88.3-31.3-29.7.3-38.8 34.1-90.3 33.4-42-.5-58.3-32.2-88-32-31.5 0-64.1 30.9-99 29.4-48.1-2-58.5-29.4-90-29.4-23.6 0-49 25.7-77.3 26.1-28.2.5-59.9-25.5-62.9-26l.4 38.37zm0-72.93c15.62 7.23 38 25.32 61.92 25.3 40.04-.26 41.1-27.42 81.67-26.13 40.6 1.03 33.3 29.63 88.2 29.5 45.3-.13 60-34.67 99.1-30.54 28.9-1.5 40.8 32.72 85.3 33.15 46.1 1 63.1-37.28 92.1-34.1 30.8 0 40.9 30.8 84.2 31.03 55.1.28 64.8-32.07 99.3-30 24.5-.52 43.9 23.7 79.9 24.3 28.7.5 52.7-21.2 68.9-28.96l.8-36.83c-17 6.3-42.4 27-67.8 27.3-36.5 1.3-59.1-24-84.5-23.8-30.4.3-42.6 31.3-94.1 31.3-47.1 0-57.9-31.3-88.3-31.3-29.7.2-38.8 34-90.3 33.4-42-.5-58.3-32.3-88-32.1-31.5 0-64.1 30.9-99 29.4-48.1-2-58.5-29.4-90-29.4-23.6 0-49 25.6-77.3 26-28.2.4-59.9-25.5-62.9-26.1l.4 38.3z" fill-rule="evenodd" fill="#fff"/>
    <path d="M-165.6 308.92c15.6 7.23 37.95 25.32 61.87 25.3 40-.26 41.07-27.42 81.6-26.13 40.63 1 33.27 29.6 88.13 29.4 45.33-.1 59.97-34.7 99.04-30.5 28.94-1.5 40.78 32.7 85.26 33.1 46.12 1 63.06-37.3 92-34.1 30.83 0 40.93 30.8 84.17 31 55.1.2 64.77-32.1 99.23-30 24.53-.6 43.87 23.7 79.82 24.3 28.68.5 52.7-21.2 68.9-29l.8-36.9c-17 6.3-42.34 27.1-67.68 27.3-36.48 1.3-59.04-24-84.4-23.7-30.36.2-42.46 31.3-93.98 31.3-47.06 0-57.86-31.3-88.23-31.3-29.68.2-38.78 34-90.17 33.4-41.92-.5-58.25-32.3-87.94-32.1-31.47 0-64 30.8-98.86 29.3-48.1-2-58.5-29.4-89.96-29.4-23.52 0-48.9 25.66-77.23 26.1-28.15.46-59.8-25.5-62.74-26.04l.4 38.3z" fill-rule="evenodd" fill="#fff"/>
    <path d="M136.8 75.96c61.06-4.18 49.93-9.4 74.5-13.32 30.97 4.26 34.5 23 51.76 34.5 0 0-6.48 21.93-27.7 18.83-2.86-8.8 10.27-11.52-27.5-34.54-21.96-1.3-61.25 3.85-71.05-5.47zm189.27 33.93l-43.98 1.8v10.8c29.6.9 35-3 43.9-12.7z" fill-rule="evenodd" stroke="#d8aa3f" stroke-width="1.78" fill="#ffc84b"/>
    <path stroke-linejoin="round" d="M174.84 108.07c7.67-3.92 11.48-2.32 18.12-2.58 4.57 8.2 8.88 9 18.88 10 15.27 21.4 36.74 21.7 39.84 21.7 29.92-.8 39.4-21.8 59.5-24.1h21.22c-3.54-6.1-6.3-9.5-13.97-9.9-15.78-.9-36.22-.5-54.07 3.6l-25.1 6.2c-7.32-3.6-25.26-22.4-36.73-22-6.73 1.8-6.73 4.1-10.1 6.7-6.46 2.7-12.92 1.4-17.6 10z" fill-rule="evenodd" stroke="#d8aa3f" stroke-width="1.67" fill="#ffc84b"/>
    <path d="M205.1 98.9a3.17 3.17 0 1 1-6.34 0 3.17 3.17 0 0 1 6.34 0z" fill-rule="evenodd" stroke="#d8aa3f" stroke-width="1.66" fill="#ffc84b"/>
    <path d="M225.56 107.82c44.93-54.15 84.16-47.5 135.3-51.22 1.73 6.3 1.12 15.7-23.28 24.06-33.37 4.9-93.13 40.1-93.4 40.1-11.12-.52-18.88-12.16-18.62-12.94z" fill-rule="evenodd" stroke="#d8aa3f" stroke-width="1.78" fill="#ffc84b"/>
    <path d="M317.87 72.54L351 73.97m-36.74 3.97l24.15 1.97" stroke="#d9a43e" stroke-linecap="round" stroke-width="1.78" fill="none"/>
  </g>
</svg>
