<svg xmlns="http://www.w3.org/2000/svg" height="480" width="640" viewBox="0 0 640 480">
  <path fill="#006" d="M0 0h640v480H0z"/>
  <path fill-rule="evenodd" fill="#006" d="M0 0h400v200H0z"/>
  <g stroke-width="1pt">
    <path fill="#fff" d="M0 0v27.1l334.4 215.2h42.1v-27.1L42.1 0H0zm376.5 0v27.1L42.1 242.3H0v-27.1L334.4 0h42.1z"/>
    <path fill="#fff" d="M156.88 0v242.3h62.75V0h-62.75zM0 80.77v80.76h376.5V80.77H0z"/>
    <path fill="#c00" d="M0 96.92v48.46h376.5V96.92H0zM169.43 0v242.3h37.65V0h-37.65zM0 242.3l125.5-80.77h28.06L28.06 242.3H0zM0 0l125.5 80.77H97.44L0 18.07V0zm222.94 80.77L348.44 0h28.06L251 80.77h-28.06zM376.5 242.3L251 161.53h28.06l97.44 62.7v18.07z"/>
  </g>
  <path d="M448.33 179.14c-1 .6-3.03 2.44-5.05 1.83-2.02-.6-6.56-8.54-11.6-7.32-5.06 1.22-8.1 3.05-10.1 3.05-2.02 0-7.58 1.83-7.58 6.7 0 4.9.5 8.55 1.52 8.55 1 0 2.52-3.05 2.52-3.05s.5 6.1 4.04 6.1 11.1.62 11.6 2.45c.52 1.83-3.52 6.1-2.5 9.76 1 3.7 5.54 9.8 5.54 9.8s-6.56 4.9-6.56 8 1 6.1 1 6.1l-29.27 1.3s-2.1 86.7-1.1 93.4c1 6.7 3.5 23.2 3.5 23.2s-6.6-2.1-12.1 3.4c-5.6 5.5-25 15-25.5 19.2s-2.3 8-.3 11c2 3.1 9.1 11.4 7 11-6.8-1.2-9.3-10.8-13.9-14.3-4.5-3.5-13.4-2.7-14.4.9-1 3.7-.5 9.8 0 11 .5 1.2 6 20.8 7.6 25s17.4 10.7 24.5 10.1c13.3.3 19.4-5.8 19.9-5.1.5.6 28.8 29.8 86.8 29.9 45.2.1 79.2-29.3 79.2-28.7 0 .6 18.7 6.1 25.2 4.3 6.5-1.8 16.1-6.1 18.1-10.3 2-4.2 7.6-26.2 8.1-29.9s0-7.9-4.5-9.1-7.1-.9-9.6.3-3.3 4.6-7.1 10.7c-2 1.8-7.3 6.7-5.8 5.5s4.8-10.4 5.3-13.4 2-8.5-1.5-11.6c-3.5-3-9-4.3-15.2-8.8-5.9-4-10.6-10.7-14.2-10.7-3.5 0-7.6-1.8-7.1-1.8s4.5-8.8 3.5-18c-1-9.1.5-96.7 0-96.7s-25.3 1.9-25.3.6 2-9.7 0-15.2-10.6-9.1-8.1-10.4c2.5-1.2 13.6-4.2 13.1-9.1-.5-4.9-7.6-4.3-10.6-6.1-3.1-1.8-12.2-10.4-13.2-10.4s26.2-16.5 24.2-16.5c-2.1 0-12.7-3-16.2-1.2 0-3 14.6-12.2 12.1-13.4-2.6-1.2-14.2-2.4-11.1-3 3-.6 4-7.9 3.5-7.9s-13.1 1.8-13.1 1.8-3-4.2-4-4.2-5.5 2.5-5.5 2.5l-2.5-6.7-5.6 3.7-2.6-3s-4.5 1.2-4.5 0c.2-.1-.5-3.1-1.2-3.1-.8 0-5.8 3.9-5.9 3.7-.2-.2-5.7-8-5.7-7.7 0 .2-4 14.7-4.2 14.7-.2 0-3.9.4-4.1.6-.2.2-20-11.4-19.8-11.2.2.2 5.1 11.2 5.1 11.2s-4.3 2.4-4.3 2.6c0 .2.7 5 .7 5l-13.2-4.5s5 10.2 4.6 10.2c-.4 0-9.8.4-9.6.4.1 0 4.4 8.5 4.4 8.5l-1.6 5s14.9 9.2 13.9 9.8zm84.3 212.35c1.27 1.8 8.08 10.3 7.07 10.3-1 0-17.92 11.3-24.73 13.4-6.82 2.1-29.03 6.1-27.77 5.8 1.26-.3 19.95-10.6 27.52-15.4 7.57-4.9 17.92-13.6 17.92-14.2zm-105.5-.4c-1.02 1.2-5.8 10.7-5.8 10.7s13.87 9.7 24.22 13.4c10.35 3.6 28.02 4.8 27 4.5-1-.3-22.2-9.8-28.26-14.7-6.1-4.9-17-14.1-17.2-14.1z" fill-rule="evenodd" fill="#fff"/>
  <g fill-rule="evenodd" stroke="#6d6666" fill="#fec500">
    <path d="M394.65-212.97S423.43-195.7 430-191.6s27.96 22.2 29.6 21.38c1.65-.82 13.16-9.86 13.16-9.86s-23.85-18.9-38.65-23.02-39.4-8.23-39.4-9.87z" stroke-width="1.4" transform="matrix(.3 0 0 .4 317.1 244.3)"/>
    <path d="M390.54-231.88c2.47 0 47.7 23.02 61.66 34.53s19.74 26.3 21.38 26.3c1.65 0 23.02-3.28 22.2-3.28-.82 0-9.87-29.6-30.42-38.64-20.56-9.04-74-18.9-74.82-18.9z" stroke-width="1.4" transform="matrix(.3 0 0 .4 317.1 244.3)"/>
    <path d="M603.48-296c-.82 0-9.04 24.66-11.5 32.06-2.48 7.4-6.6 23.02-6.6 23.02s-36.16 3.3-34.52-.83c1.65-4.1 55.1-54.26 52.62-54.26z" transform="matrix(.3 0 0 .4 317.1 246)" stroke-width="1.4"/>
    <path d="M398.76-261.48s42.75 28.78 57.55 45.22c14.8 16.44 29.6 45.22 30.5 45.22.9 0 40.3-8.22 40.3-7.4s-46.1-46.04-68.3-60.02-59.2-21.38-60-23.02z" stroke-width="1.4" transform="matrix(.3 0 0 .4 317.1 244.3)"/>
    <path d="M443.16-273.8s21.38 32.88 25.5 44.4c4.1 11.5 16.43 41.1 16.43 41.1h33.7s-16.5-37-34.6-55.1-40.3-28.77-41.1-30.4z" transform="matrix(.3 0 0 .4 317.1 246)" stroke-width="1.4"/>
    <path d="M454.66-291.9c.82 2.47 31.24 31.24 38.64 50.15 7.4 18.9 13.16 42.76 13.16 42.76l29.6-7.4s-26.3-48.5-42.76-61.6c-16.44-13.1-37-22.2-38.64-23.8z" transform="matrix(.3 0 0 .4 317.1 246)" stroke-width="1.4"/>
    <path d="M700.5-209.68s-61.66 6.58-83.86 12.33-34.53 27.13-34.53 27.13 28.8 10.7 30.5 9.05 18.9-18.9 37.8-25.5c18.9-6.57 51.8-22.2 50.2-23z" stroke-width="1.4" transform="matrix(.3 0 0 .4 317.1 244.3)"/>
    <path d="M698.03-249.97c-1.65.82-50.98 41.1-66.6 54.26-15.62 13.1-30.42 27.1-32.06 27.9-1.65.8-32.07-4.1-30.42-5.8 1.64-1.7 45.22-37 74-52.7 28.77-15.6 52.6-22.2 55.08-23.9z" stroke-width="1.4" transform="matrix(.3 0 0 .4 317.1 244.3)"/>
    <path d="M685.7-278.75c-4.93 5.75-53.44 45.22-66.6 59.2s-34.53 38.64-34.53 38.64-25.5-11.6-23.84-16.5c1.64-5 36.17-33.7 60.84-50.2s66.6-29.6 64.13-31.3z" stroke-width="1.4" transform="matrix(.3 0 0 .4 317.1 244.3)"/>
    <path d="M636.37-282.04c-.82.82-29.6 31.24-35.35 39.47-5.76 8.22-23.03 44.4-23.03 44.4s-25.5-22.2-25.5-23.03 32-34.53 50.9-47.7 33.7-10.67 32.9-13.14z" stroke-width="1.4" transform="matrix(.3 0 0 .4 317.1 244.3)"/>
    <path d="M565.1-241.77c0 5.78-4.7 10.46-10.47 10.46s-10.47-4.7-10.47-10.5 4.68-10.5 10.46-10.5 10.47 4.7 10.47 10.4zM586-227.8c0 5.13-4.68 9.3-10.46 9.3s-10.47-4.17-10.47-9.3 4.67-9.3 10.45-9.3 10.47 4.15 10.47 9.3zm-46.5-10.48c0 5.14-5.74 9.3-12.8 9.3-7.06 0-12.8-4.16-12.8-9.3s5.74-9.3 12.8-9.3c7.06 0 12.8 4.16 12.8 9.3z" transform="matrix(.3 0 0 .4 317.1 246)" stroke-width="1.5"/>
    <path d="M573.23-219.1c0 9.96-6.5 18.03-14.53 18.03s-14.54-8.07-14.54-18.02c0-9.9 6.5-18 14.54-18 8.02 0 14.53 8.1 14.53 18zm-39.53.6c0 7.7-6.5 13.94-14.53 13.94s-14.54-6.24-14.54-13.95c0-7.8 6.5-14 14.54-14 8.02 0 14.53 6.2 14.53 13.9z" transform="matrix(.3 0 0 .4 317.1 246)" stroke-width="1.5"/>
    <path d="M513.93-207.46c0 6.74-4.95 12.2-11.05 12.2s-11.04-5.46-11.04-12.2c0-6.74 4.94-12.2 11.04-12.2 6.1 0 11.05 5.46 11.05 12.2zm81.4-1.17c0 8.03-7.56 14.53-16.87 14.53-9.3 0-16.86-6.5-16.86-14.53s7.55-14.53 16.86-14.53c9.3 0 16.86 6.5 16.86 14.53zm-40.7-20.93c0 4.82-6 8.72-13.37 8.72s-13.37-3.9-13.37-8.72 5.9-8.72 13.3-8.72 13.3 3.9 13.3 8.72z" transform="matrix(.3 0 0 .4 317.1 246)" stroke-width="1.5"/>
    <path d="M556.95-210.37c0 7.06-8.33 12.8-18.6 12.8s-18.6-5.74-18.6-12.8c0-7.06 8.32-12.8 18.6-12.8s18.6 5.74 18.6 12.8zm47.67 22.67c0 8.67-7.8 15.7-17.44 15.7s-17.44-7.03-17.44-15.7 7.8-15.7 17.44-15.7c9.63 0 17.44 7.03 17.44 15.7zm-95.34-4.07c0 5.78-4.42 10.46-9.88 10.46s-9.9-4.7-9.9-10.5 4.44-10.5 9.9-10.5 9.88 4.7 9.88 10.4z" transform="matrix(.3 0 0 .4 317.1 246)" stroke-width="1.5"/>
    <path d="M579.04-193.5c0 7.38-6.77 13.36-15.12 13.36-8.34 0-15.1-5.98-15.1-13.37s6.76-13.4 15.1-13.4c8.35 0 15.12 6 15.12 13.3zm-47.67-.6c0 6.43-6 11.64-13.37 11.64-7.4 0-13.37-5.2-13.37-11.63 0-6.4 6-11.6 13.37-11.6 7.38 0 13.37 5.2 13.37 11.7z" transform="matrix(.3 0 0 .4 317.1 246)" stroke-width="1.5"/>
    <path d="M554.63-190.6c0 7.05-6.25 12.78-13.95 12.78-7.7 0-13.96-5.73-13.96-12.8 0-7.05 6.25-12.78 13.96-12.78 7.7 0 13.95 5.73 13.95 12.8zm-60.47-76.75c3.5 0 27.9 8.14 27.9 8.14s-30.23 11.6-25.57 10.4 33.7-4.7 31.3-4.7c-2.4 0-25.6 22.1-18.6 20.9 6.9-1.2 20.9-15.1 22.1-15.1 1.1 0 15.1 22 16.2 20.9 1.1-1.2 0-22.1 1.1-22.1s29 13.9 26.7 12.8c-2.3-1.2-18.6-17.5-17.4-17.5 1.1 0 38.4 3.5 36 2.3-2.4-1.2-24.4-11.7-24.4-11.7s16.3-15.1 12.8-15.1-30.3 15.1-27.9 13.9c2.3-1.2 29.1-31.4 29.1-31.4l-26.8 12.8s4.6-18.6 2.3-17.5c-2.3 1.1-21 24.4-22.1 24.4s-5.8-23.3-5.8-23.3 1.1 25.5-5.8 26.7c-7 1.1-31.4 5.8-31.4 4.6z" transform="matrix(.3 0 0 .4 317.1 246)" stroke-width="1.5"/>
  </g>
  <g fill-rule="evenodd">
    <path d="M445.5 216.54c.2.86 5.9 16.4 14.65 15.96s12.3-3.02 11.95-3.24c-.35-.2-4.1-2.8-6.24-8.4-2.15-5.62-2.5-8-2.5-8l-17.85 3.68zm31.24-6.04s6.43 15.3 9.28 17.47c2.86 2.16 9.46 3.88 12.32 3.67 2.86-.22 6.25 0 6.25 0s-2.9-1.5-5.2-9.93l-3.1-11.2h-19.6zm39.27 5.6s-1.2 11.22 0 14.03c1.3 2.8 7.5 7.98 7.5 7.98s7.5-1 7.7-7.9c.2-6.9-2.5-13.4-2.5-13.4l-12.7-.6z" fill="#00389b"/>
    <path d="M288.94 21.02s1.16 4.65 0 8.14-11.04 12.8-11.04 20.34c0 7.56 11.62 30.8 47.1 31.4 35.45.58 80.2-19.2 79.63-19.77-.58-.58-84.88-56.97-86.04-56.4-1.2.6-29.7 17.45-29.7 16.3zm234.3 40.1s7.55 20.36 10.45 22.68c2.9 2.33 4 6.98 4.6 6.98s48.8 10.46 48.8 10.46 4.6-13.37-2.3-23.83c-7-10.4-33.2-37.7-33.2-37.7l-28.5 21.5zm33.13-25c1.16 0 12.8 9.9 22.1 4.66 9.3-5.23 24.4-19.18 24.4-19.18s-12.78 4.07-22.08 3.48c-9.3-.58-23.9 11.63-24.5 11.05z" stroke="#000" stroke-width="1.5" fill="#005120" transform="matrix(.3 0 0 .4 350.7 188.7)"/>
    <path d="M287.2 23.34s-3.5-9.88-12.8-10.46c-9.3-.6-26.15 1.16-31.97-3.5-5.8-4.64-7.55-15.7-10.46-15.1-2.9.57-10.47 0-11.05 0s-3.48-9.3 4.65-13.96 15.12-.58 19.77-4.07c4.65-3.5 11.63-5.82 20.93-6.4 9.3-.58 24.42 11.63 31.4 14.54 6.97 2.9 22.1 6.3 27.9 3.4 5.8-2.9 38.37-15.7 50-16.3 11.62-.6 36.04-1.2 45.34-.6s46 5.2 57 10.4c11.1 5.3 69.8 25.6 77.9 30.3C564 16.3 582 23.3 582 23.3s-32 31.45-47.7 36.68-65.7 13.37-95.35 11.62c-29.65-1.78-52.9-4.7-75.58-16.3-22.68-11.6-47.1-22.7-48.26-28.5-1.1-5.8-.5-13.37-.5-13.37l-27.3 9.87z" stroke="#000" stroke-width="1.5" fill="#005120" transform="matrix(.3 0 0 .4 350.7 188.7)"/>
    <path d="M251.15-14.45c-1.16.58-6.98 2.9-5.8 4.07 1.15 1.16 3.48 4.65 10.45 4.07 6.98-.6 14.54-4.7 14.54-4.7s-8.72-4.1-19.2-3.5z" stroke="#000" stroke-width="1.5" fill="#005120" transform="matrix(.3 0 0 .4 350.7 188.7)"/>
    <path d="M250.57-13.3v6.4s8.14 2.33 8.14.6c0-1.75.6-5.82-1.1-5.82s-6.4-.6-7-1.17z" stroke="#000" stroke-width="1.5" transform="matrix(.3 0 0 .4 350.7 188.7)"/>
    <path d="M331.95-8.45c2.06-3.7 0-8.63 11.92-14.4 11.92-5.75 32.68-4.1 32.68-4.1s-5.96 4.52-6.16 9.25c-.3 4.73.4 6.78.4 6.78s-11.3-3.7-20-1.44-18.7 4.52-18.9 3.9zM385.4-28.6c-1.23.62-10.28 10.7-9.25 13.78 1.03 3.08 13.15 10.48 17.06 9.86 4-.6 21.8-9.25 22.9-13.56 1-4.32 1.9-10.08.4-11.3-1.4-1.24-30.8 1.64-31 1.22zm39.26-1.64c-2.26 2.26-1.44 13.15-.62 14.4.82 1.22 15 15.4 18.1 16.23 3.07.8 25.9-1.5 27.74-4s7.4-13 5.76-15.4c-1.65-2.5-6.58-5.8-21.8-9.1s-24.24-2.9-29.18-2.3zm58.16 13.77c3.7 1.85 25.28 12.33 38.03 20.76 12.74 8.4 17.88 18 21.58 18.9 3.7.8 18.7-8.3 19.32-10.7.62-2.5-18.3-15.6-31.04-21.6-12.7-6-47.8-6.8-47.8-7.4zm-4.52 8.84c-1.85 1.64 23.02 45 27.75 46.45 4.73 1.44 33.1-8.42 32.68-11.7-.4-3.3-7.8-9.88-25.28-19.54-17.47-9.66-31.65-16.03-35.15-15.2zM447.47 8.2c-3.9 2.26-10.07 41.1-6.17 42.96 3.9 1.85 52-4.73 53.86-9.05 1.84-4.3-19.74-38.6-26.1-38.6-6.38 0-17.9 1.7-21.6 4.8zM397.73-.02c-5.14 4.72-4.1 40.9-1.85 43.16 2.26 2.26 30.83 9.66 33.9 7 3.1-2.68 7.2-43.38 4.33-46.47-2.8-3.07-10.8-10.47-17-11.1-6.1-.6-16.4 5.96-19.3 7.4zM333.2-.65c-4.74 3.7-4.94 13.36.2 15 5.13 1.65 17.88 7.2 29.8 12.34 11.92 5.1 18.7 11.3 22.2 11.1 3.5-.2 6.78-36.4 3.08-38.5-3.7-2.1-14.6-3.7-24.87-3.3-10.2.4-25.2 1.4-30.4 3.3z" stroke="#000007" stroke-width="1.5" fill="#001707" transform="matrix(.3 0 0 .4 350.7 188.7)"/>
  </g>
  <path d="M387.98 359.2c2.6-2.52 6.6-8.68 12.08-8.96 5.46-.28 11.22 4.76 11.22 4.76s5.75 23.53 5.46 23.53c-.3 0-9.5 6.72-9.78 6.72-.3 0-4.03-9.24-7.48-8.4-3.45.84-3.16 13.44-3.74 12.6-.57-.84-15.24-18.2-14.67-18.76.58-.6 7.2-10.7 6.9-11.5zm151.9-3.08c1.7-.28 9.48-6.16 14.94-5.88 5.47.28 8.63 2.8 11.5 5.32 2.9 2.52 6.34 8.96 6.34 8.96s-6.9 19.05-7.48 19.05-3.45 1.68-4.03.28-2.3-5.9-5.75-6.45c-3.45-.56-4.32 6.17-4.32 6.17l-11.2-27.45z" fill-rule="evenodd" fill="#d40f0f"/>
  <path d="M543.6 362c0 1.7 10.65 28.02 27.9 33.06 17.27 5.04 22.73-4.76 24.74-8.12 2.02-3.37 9.2-3.08 9.2-3.08s-1.72 24.64-4.6 27.72c-2.87 3.08-5.17 9.8-21.28 10.08-16.1.28-30.78-15.12-35.67-19.6-4.9-4.48-11.3-16.25-13.9-21.57-2.6-5.4 13.8-18 13.5-18.5zm-187.55 52.37c.3 0 7.76 8.13 18.7 7.3 10.93-.85 29.62-7.3 38.25-18.5 8.63-11.2 12.95-23.25 12.95-23.25s-12.66-22.4-12.95-22.4c-.3 0-1.44 7.28-3.74 12.04-2.3 4.76-8.63 18.2-19.27 22.4-10.7 4.2-10.7 5.9-15 5.33-4.3-.6-15.6-7.3-15.6-7.6 0-.3-5.5 13.1-5.5 13.1s-1.2 8.6 2 11.5z" fill-rule="evenodd" fill="#fddc59"/>
  <path d="M387.78 358.42c-.8 0-21.15 11.1-20.34 15.85.82 4.75 35 72.1 108.2 72.88 73.23.8 117.98-61 114.73-71.3-3.26-10.3-26.04-22.18-26.04-22.18s5.7 4.75 4.88 11.1c-.8 6.33-26 61-89.4 59.4-63.4-1.58-93.5-49.9-93.5-55.45 0-5.54 3.3-8.7 1.7-10.3z" fill-rule="evenodd" fill="#fddc59"/>
  <path d="M586.17 407.38c1.73-1.4 12.37-30.53 18.4-29.7 6.05.85 4.04 9.53 3.46 11.78-.57 2.24-6.6 22.4-6.6 22.4s.28-4.76-3.75-5.88-10.64 1.96-11.5 1.4zm-230.12 7.3c0-1.6-4.88-7.14.8-8.72 5.7-1.6 13.03 1.58 13.03 1.58s-4.07-11.88-8.95-21.4c-4.88-9.5-6.5-7.9-10.58-6.32-4.07 1.58-3.97 5.77-1.53 12.1 2.44 6.35 7.23 24.34 7.23 22.75z" fill-rule="evenodd" fill="#d40f0f"/>
  <path fill="#fdc400" fill-rule="evenodd" d="M423.18 360.35l7.06-23.93-19.62-15.03 24.57-.6 8-23.6 8.1 23.5 24.5.4-19.6 15.1 7.1 23.9-20.2-14.3z"/>
  <path d="M555.64 235.83v92.04c.18 45-45.7 84.38-76.15 92.04-30.5-7.6-76.4-47-76.2-92v-92h152.3z" fill-rule="evenodd" fill="#fff"/>
  <path d="M177.16 325.98l.42 160.73s2.4-3.2 35-1.2c32.64 2 35.45 35.5 70.88 35.5 35.43 0 35.43-35.4 70.87-35.4S389.76 521 425.2 521s35.4-35.46 70.8-35.46 35.4 35.44 72.8 37.47c33.43-2 33.43-37.4 69.06-39.4l35.22 2V326h-496z" fill-rule="evenodd" transform="matrix(.3 0 0 .4 349 119)" stroke="#000" stroke-width="1.5" fill="#d40f0f"/>
  <path d="M403.34 312v19.05h10.88c10 .72 10.88 12.7 21.75 12.7s10.88-12.7 21.76-12.7 10.88 12.7 21.76 12.7 10.8-12.7 21.7-12.7 10.2 11.97 21.7 12.7c10.2-.73 10.8-11.98 21.7-12.7h10.8V312h-10.8c-10.9 0-10.9 12.7-21.8 12.7S512.1 312 501.2 312s-10.86 12.7-21.74 12.7c-10.9 0-10.9-12.7-21.8-12.7s-10.9 12.7-21.76 12.7-10.83-12.7-21.7-12.7h-10.9zm3.28 38.1l7.6 19.03c10.02.72 10.88 12.7 21.76 12.7 10.87 0 10.87-12.7 21.75-12.7s10.88 12.7 21.76 12.7 10.8-12.7 21.7-12.7 10.2 11.97 21.7 12.7c10.2-.73 10.5-11.98 21.5-12.7l7.8-19.34-7.6.3c-10.9 0-10.9 12.6-21.8 12.6S512 350 501.1 350s-10.9 12.7-21.73 12.7c-10.9 0-10.9-12.7-21.8-12.7s-10.9 12.7-21.8 12.7S425 350 414.1 350h-7.6zm72.87 69.8c10.8 0 35.8-19.03 35.5-19.03.2 0-2.9-12.7-13.8-12.7s-10.9 12.7-21.8 12.7-10.9-12.7-21.8-12.7-13.7 12.7-13.7 12.7c-.5 0 24.5 19.04 35.4 19.04z" fill-rule="evenodd" fill="#0062bb"/>
  <path d="M90.85 117.57c.82 0 8.22 1.23 13.56.82 5.4-.5 7.4-2.5 7.4-2.9v-1.3h7s1.3 5.7.4 6.1-2.8 2-3.2 2 0-2.9-.8-2.1-1.2 2-1.2 2-.8-1.3-1.2-1.3-1.2 1.2-1.2 1.2 0-1.2-.4-1.2-2.4 2.1-2.4 2.1l-2-1.7s-1.2 2.1-1.6 2.1-2.9-1.7-2.9-1.7l-4.1 2.5s0-3.7-.8-3.3c-.8.4-5.3.4-5.3.4s-1.3 2.6-1.7 2.6-2-2-1.6-2 1.3-1.2.8-1.7c-.4-.4-2.4 0-2.4-.4s-.8-2.9-.4-2.9 2.1.4 2.1.4V115H91l.4 2.47z" fill-rule="evenodd" transform="matrix(1.5 0 0 1.3 286.9 126.3)" stroke="#000" stroke-width=".7" fill="#fdc400"/>
  <path d="M98.25 94.14c-.4 0-3.3 3.28-2.88 6.98.4 3.7 7.4 9.05 7.4 9.05s3.7-1.65 4.93 0 1.24 6.57.83 6.57-5.35 1.24-5.35.4c0-.8 0-1.63-.4-1.63s-4.94.5-4.94.5l.4-1.6-4.1-.8 1.64-1.6s-6.58-2.9-6.16-2.9 2.87-1.6 2.87-1.6l-5-3.3h2.9s-4.1-3.3-3.7-3.3c.4 0 2.4.5 2.4.5L87.8 98h1.23l-1.23-2.5 2.08-.83 1.22 2.1-.4-4.93 2.83.4v4.13s1.2-2.5 1.2-2.9c0-.4 3.7 1.64 3.3.82z" fill-rule="evenodd" transform="matrix(1.5 0 0 1.3 286.9 126.3)" stroke="#000" stroke-width=".7" fill="#fdc400"/>
  <path d="M529.97 282.45c-.78.67-3.1 2.15-3.1 2.15s5.25-.4 5.1-.4-1.85-1.34-2-1.75zm4.47 2.55c-.3.4-1.24 4.56-.62 4.3.62-.28 3.08-3.36 3.08-3.36l-2.46-.94zm7.08.53c.77.67 4.32 3.76 3.85 3.1-.46-.68-.92-3.5-1.23-3.63-.3-.14-2.3.8-2.62.53zm-62.14-4.42c-.46.2-4.3 2.7-4.3 2.7s6.46-1 6.15-1c-.3 0-2-1.2-1.85-1.6zm4 3.3c-.6.6-2.6 4.3-1.84 4.2.77-.1 4.16-2.5 4.16-2.5l-2.3-1.6zm-2.46-5.2c-.47-.1-3.7-1.4-3.55-1.4s4.32-.9 4.32-.9l-.8 2.4zm-61.06-1.7l-4.63-3.2 5.86 1.6-1.3 1.7zm-4 2.2c-.63 0-6.5 3.3-6.33 3.3s8.17.2 8.02 0c-.16-.1-1.4-2.9-1.7-3.2zm3.7 4.7c-.63.3-5.25 3.4-4.95 3.4.4 0 7 .2 7 0s-1.8-3.2-2-3.3zm-.63-33.4s-1.7-3.7-1.54-3.7c.1 0 4.3 3 4.3 3l-2.8.8zm4.63-4.7c0-.1.46-2.4.46-2.4s4.16 2.8 4 2.8c-.14 0-4.15 0-4.46-.4zm6.48 1.8c0-.1.46-3.5.46-3.5s3.85 4.6 3.55 4.7c-.3.2-3.7-.6-4-1.2z" fill-rule="evenodd"/>
  <path d="M137.26 110.86c0 .2 4.32 3.7 4.42 4.52.1.82-7.8 1.03-7.8 1.03s-2.27-1.7-3-1.6c-.7.1-1.02 1.9-1.02 1.9l1.85 1-3.4.2 1 2 2.7-.2-.6 1.9s1.7 1.3 2 1c.3-.2 1.4-2 2.2-2.3.9-.3 2.6-.3 2.6-.3s-1.3 2.3-.7 2.3c.7 0 3.4-2.3 3.4-2.3s.6 2.2.7 2.2c.1 0 2.1-2.4 2.1-2.4s0 2 .3 2 3.2-2.4 3.2-2.4 2.3 2.8 2.6 2.6c.3-.2.6-3.1.9-3.1s2.3-.3 2.3-.4-1.2-1.1-1.4-2.6c-.2-1.4.2-4.8.1-4.8s-13.8.6-14 .2z" fill-rule="evenodd" transform="matrix(1.5 0 0 1.3 285.9 126.6)" stroke="#000" stroke-width=".7" fill="#fdc400"/>
  <path d="M115.37 104.6h40.3c4.1 0 7.8-1.64 7.8-4.1 0-2.48-6.58-2.9-9.05-2.07-2.46.83-13.15 5.76-17.67 5.35s-8.64-3.3-9.05-6.17c-.4-2.8 2.06-5.3 6.58-5.3s10.28 1.7 11.5 1.3 4.12-3.7 5.35-4.1c1.24-.4 4.94-.8 4.94-.8l-1.65 1.3 5.35-1.2s-4.1 4.6-8.23 5.8c-4.1 1.3-12.74.9-16.03.9s-4.9-.4-4.5 2.1c.4 2.5 2.9 4.1 5 3.7 2.1-.4 8.3-2.5 8.3-2.5l-1.6-1.2 7.4-.4s-.4-1.2 0-1.2 4.1.4 4.1.4-2.4-1.2-2-1.2 2.1 0 5.4.4c3.3.4 10.3 1.7 9.9 5-.4 3.3-2.8 6.2-5.7 6.2s-5.3-.8-5.3.4c0 1.2 3.3 2.1 5.3 2.1s4.5-1.6 4.9-1.6 1.3 2.5 1.7 2.5 2.9-.8 2.9-.8l-1.6 4.5 2.9.8s-1.6 1.7-1.2 1.7 2.9 0 2.9.4-3.3 2.9-3.3 3.3 2.5 1.6 2.5 1.6-1.6 2.5-2 2.1-2.1-2.4-2.1-2.4-.4 1.6-1.2 1.6-2.4-.4-2.4-.4 1.3-2.5.9-2.5-2.4 1.6-2.4 1.2l-1.2-1.2s3.3-1.3 3.3-3.3c0-1.9-1.3-3.9-7.3-4.2-6-.3-6.1 1.5-10.5 1.3-4.4-.2-4.4-2-7.7-2s-13.4 4.2-18.2 4c-4.7-.1-10.7-.4-10.5-.6.2-.2 3.9-9.6 4-9.9z" fill-rule="evenodd" transform="matrix(1.5 0 0 1.3 285.9 126.6)" stroke="#000" stroke-width=".7" fill="#fdc400"/>
  <path d="M106.88 102.46c-.4.2-4 .72-4.2 4.52-.22 3.8.3 3.8.7 3.6.42-.2 1.24-3.5 1.24-3.5s-1.23 4.53.1 5.55a9.3 9.3 0 0 0 2.78 1.44l.5-3.6s-1.02 3.5 1.45 4.73c2.47 1.24 3.4.3 3.2-.6-.22-.94-.94-3.3-.94-3.3s2 2.16 2.1 2.36c.1.2 1 1.85 3.5 1.13 2.5-.8.7-2.4.7-2.4l-2.9-2.5s3.1 3.2 4.5 2-1-3.6-.9-3.5 2 3.5 2.7 1.3-1.1-2.8-1.7-4.9c-.6-2.1-1.1-2.3-.5-3.5.6-1.3.7-3.6.7-3.6s2.6.6 2.4-1.6c-.2-2.2-2.8-2.7-3.3-2.8-.5-.1-.4-2.3-.6-2.2-.2.1-1.8 1.3-1.8 1.3s-1.4-3.4-1.7-3.2-2 1.9-3.2 2c-1.2.1-1.9 1.9-1.9 1.9s-4.3-2.1-4.2 1.3c.1 3.4 2.6 2.6 2.6 2.7s-.4 4.7-.8 4.9z" fill-rule="evenodd" transform="matrix(1.5 0 0 1.3 286.9 126.3)" stroke="#000" stroke-width=".7" fill="#fdc400"/>
  <path d="M450.87 253.26c.75-.23 1.84-1.18 3.1-1.06s3.3 1.08 2.3 1.6c-1 .54-1.75.77-2.9.5-1.12-.26-2-.83-2.5-1.04zm12.58-.14c-.74-.22-1.83-1.17-3.1-1.06s-3.3 1.1-2.28 1.62c1 .53 1.74.75 2.88.5 1.13-.28 2-.85 2.5-1.06z" fill-rule="evenodd"/>
  <path d="M111 103.17c.1.5.4 4.83.6 4.52.2-.4 1.75-4.5 1.65-4.5s-2.16.1-2.26-.1z" fill-rule="evenodd" transform="matrix(1.5 0 0 1.3 287.1 126.4)" stroke="#000" stroke-width=".42" fill="#000039"/>
  <path d="M109.96 103.17c.05-1.22.82-1.13 2.47-.93 1.64.2 2.46 1.03 2.36 1.24-.1.2-1.5.72-2.6.6-1.4-.4-2.3.1-2.3-.9z" transform="matrix(1.5 0 0 1.3 287.1 126.6)" stroke="#000" stroke-width=".84" fill="none"/>
  <path d="M112.43 100.08l-.2 1.95m7.1-7.2s1.33.63 1.12 1.25c-.2.6-1.13.92-1.13.92m-11.2-2.67c-.3.1-.72.3-.93 1.13-.2.82.9 1.34.9 1.34" transform="matrix(1.5 0 0 1.3 287.1 126.6)" stroke="#000" stroke-width="1.5" fill="none"/>
  <path d="M111.2 136.13s-1.46 1.45 1 1.45.73-1.3.73-1.3" transform="matrix(1.5 0 0 1.3 287.4 77.6)" stroke="#000" stroke-width="1.5" fill="none"/>
  <path fill="#fdc400" fill-rule="evenodd" d="M462.35 403.76l6.4-21.06-17.8-13.24 22.3-.5 7.27-20.78 7.37 20.75 22.3.4-17.8 13.32 6.5 21.03-18.4-12.52z"/>
  <path fill="#003017" fill-rule="evenodd" d="M465.38 398.1l5.34-16.72-14.83-10.5 18.5-.4 6-16.52 6.1 16.48 18.6.32-14.8 10.58 5.4 16.7-15.3-9.93z"/>
  <path fill="#fdc400" fill-rule="evenodd" d="M425.66 361.1l6.34-19.9-17.6-12.53 22.05-.47 7.2-19.66 7.28 19.62 22.05.38-17.55 12.6 6.44 19.9-18.13-11.85z"/>
  <path fill="#003017" fill-rule="evenodd" d="M428.67 355.76l5.3-15.82-14.7-9.94 18.4-.38 5.98-15.6 6.08 15.58 18.38.3-14.6 10 5.4 15.8-15.1-9.4z"/>
  <path fill="#fdc400" fill-rule="evenodd" d="M499.57 361.1l6.42-19.9-17.9-12.53 22.3-.47 7.3-19.66 7.4 19.62 22.3.38-17.8 12.6 6.5 19.9-18.4-11.85z"/>
  <path fill="#003017" fill-rule="evenodd" d="M502.62 355.76l5.35-15.82L493.1 330l18.62-.38 6.07-15.6 6.1 15.58 18.6.3-14.8 10 5.4 15.8-15.3-9.4z"/>
  <path d="M373.27 372.55c8.03 34.55 41.9 60.18 87.53 66.25 58.6 7.78 114.5-21.9 124.8-66.28" fill="none"/>
  <path d="M373.13 377.9l11-6.22 1.04 2.26-4.32 2.44 1.43 3.12 4.32-2.44 1.03 2.27-11 6.22-1.04-2.27 4.9-2.8-1.5-3.14-5 2.82-1-2.26m4.6 9.63l10.3-7.6 3.5 5.86-1.7 1.2-2.3-3.8-2.4 1.7 2.1 3.5-1.7 1.2-2.1-3.5-2.8 2.1 2.3 3.8-1.8 1.2-3.6-6m7.1 11l9-9.3 1.6 1.8-3.6 3.7 2.1 2.5 3.5-3.7 1.5 1.8-9.1 9.3-1.6-1.9 4.1-4.2-2.2-2.6-4 4.3-1.6-1.9m11.8 5.5l1.4 1.4 2.7-5-4.1 3.6m-5.8 1.7l10.2-8.2 2.3 2.2-6 12.4-1.9-1.8 1.6-3-2-1.9-2.5 2.1-1.8-1.7m8.9 8.3l6.1-9.2-2.1-1.7 1.2-1.9 6.1 5-1.2 1.8-2.2-1.8-6.1 9.2-1.9-1.5m5 4l6.4-11.8 2 1.3-2.5 4.6 2.7 1.8 2.5-4.6 1.9 1.3-6.5 11.7-1.9-1.3 2.9-5.3-2.7-1.8-2.9 5.3-2-1.3M416 425l5.2-12.5 5.8 3-.85 2.1-3.76-2-1.3 2.9 3.6 1.8-.8 2-3.6-1.8-2.3 5.4-2.1-1.1m11.5-1.9c-.7 2.1-1.1 3.5-1 4.1 0 .6.3 1.03.9 1.3.6.25 1.1.15 1.5-.3.4-.4 1-1.7 1.7-3.86s1.1-3.5 1.1-4.1c0-.6-.3-1.1-.9-1.3s-1.1-.13-1.5.3c-.4.5-1 1.77-1.7 3.9m-2.2-.93c.5-1.3.9-2.4 1.3-3.2.4-.7.8-1.3 1.2-1.6.5-.4 1.1-.7 1.6-.7.6 0 1.2.1 2 .4s1.3.7 1.7 1.2c.4.5.6 1.1.8 1.8.1.5 0 1.2-.1 2.1-.2.8-.5 1.9-1 3.3-.5 1.3-.9 2.4-1.3 3.1-.4.8-.8 1.3-1.2 1.7-.6.5-1.1.7-1.7.8-.5.07-1.2-.1-1.9-.4s-1.4-.7-1.7-1.13c-.4-.4-.7-1-.8-1.72-.1-.5-.1-1.2 0-2.1.1-.8.4-1.9.9-3.3m10.6-2.9l2.2.7-2.4 8.9c-.3 1-.4 1.8-.3 2.2.1.5.4.8 1 1 .5.2 1 .16 1.3-.1.3-.3.6-1 .9-2l2.3-8.9 2.2.7-2.5 9.1c-.3.9-.5 1.5-.7 1.9a2.88 2.88 0 0 1-.7.9 2.87 2.87 0 0 1-1.6.7c-.5 0-1.2-.1-1.9-.3-1.3-.5-2.2-1.1-2.6-2-.3-.83-.3-2.1.1-3.7l2.5-9.1m5.9 16.2l2.7-13.4 2.3.6 1.3 10.1 1.8-9.4 2.1.57-2.7 13.38-2.3-.6-1.3-10.2-1.8 9.4-2.1-.5m12.1.7l1 .2c.5.1.9.1 1.1.08a.97.97 0 0 0 .6-.3c.3-.3.5-.8.7-1.33.2-.6.4-1.5.6-2.9.1-1.3.2-2.3.2-2.9-.1-.6-.2-1.1-.4-1.4a1.1 1.1 0 0 0-.5-.4c-.2-.1-.6-.2-1-.3l-1-.1-1.3 9.6M451 438l1.9-13.5 3.7.6c.8.2 1.4.3 1.8.6.4.2.8.5 1 .9.4.5.6 1.2.7 1.9.1.7 0 1.82-.2 3.3-.24 1.9-.5 3.3-.73 4.1-.2.8-.6 1.4-.9 1.9s-.8.9-1.4 1c-.5.1-1.4.1-2.6-.1l-3.1-.55m9.55 1.6l1.2-13.7 6.3.7-.2 2.23-4-.48-.3 3.2 3.7.4-.2 2.1-3.75-.4-.33 3.8 4.1.5-.2 2.3-6.4-.7m10.4-1.1l1 .1c.5 0 .9 0 1.1-.1a1 1 0 0 0 .5-.4c.2-.36.4-.84.5-1.45.1-.7.2-1.7.2-3s0-2.3-.1-2.9c-.1-.6-.22-1.1-.5-1.4a1.05 1.05 0 0 0-.5-.4c-.2-.1-.5-.1-1-.1h-1l-.3 9.6m-2.3 1.9l.48-13.7 3.7.1c.8 0 1.4.1 1.8.3.4.1.8.4 1.1.7.4.4.7 1.1.8 1.8.2.7.27 1.8.2 3.3-.1 1.9-.2 3.3-.3 4.1-.1.8-.4 1.5-.7 2-.3.5-.7.9-1.2 1.1-.5.2-1.4.3-2.6.2l-3.17-.1m13.8.2l-.5-13.7 2.3-.1.5 13.7-2.3.1m6.1-.4l-.3-11-2.7.2-.13-2.3 7.6-.7.2 2.2-2.63.2.9 11.4-2.3.2m8.3-14l2.3-.43 1.4 9.1c.2 1.1.4 1.77.7 2.1.3.34.7.45 1.3.3.6-.1 1-.34 1.1-.76.2-.4.2-1.12 0-2.2l-1.4-9.03 2.3-.43 1.5 9.37c.2.9.2 1.57.2 2 0 .4-.1.8-.3 1.1a3.27 3.27 0 0 1-1.1 1.3c-.5.3-1.1.5-1.8.7-1.4.3-2.4.1-3.1-.4-.7-.6-1.1-1.7-1.4-3.4L498 426m12.3 3.48l.93-.25c.7-.2 1.15-.47 1.37-.85.2-.38.24-.94.08-1.67-.16-.7-.4-1.2-.73-1.4-.32-.2-.84-.2-1.56 0l-1 .3.8 4m-.6 8.1l-2.9-13.3 3.9-1c1.2-.3 2.1-.2 2.7.2.6.5 1.1 1.4 1.4 2.7.3 1.4.2 2.4-.2 3.2-.4.8-1.2 1.4-2.3 1.7l-1.7.5 1.2 5.7-2.2.6m8.8-9.7c.6 2.2 1.1 3.5 1.5 4 .4.5.9.6 1.5.4.6-.2.9-.6 1-1.3 0-.6-.2-2-.9-4.2s-1.1-3.5-1.5-4c-.4-.4-.9-.6-1.5-.4-.6.2-.9.7-1 1.3-.1.7.2 2.1.8 4.2m-2.3.8c-.4-1.4-.7-2.5-.8-3.4-.1-.8-.1-1.5 0-2 .2-.7.4-1.3.8-1.7.4-.4 1-.7 1.8-1s1.4-.3 2-.3c.5.1 1.1.4 1.6.9.4.3.7.9 1.1 1.7.3.8.7 1.9 1.1 3.2.4 1.4.6 2.5.8 3.4.1.9.1 1.6 0 2.1-.2.7-.5 1.3-.9 1.7-.4.4-1 .8-1.8 1.1s-1.4.3-2 .2c-.5-.1-1.1-.3-1.6-.8-.3-.3-.7-.9-1-1.7-.4-.8-.7-1.9-1.1-3.3m11.3 3.1l-4.3-13 2.2-1 6.2 7.6-3.3-8.9 2-.9 4.6 12.7-2.2 1-6.2-7.6 3.2 8.9-2 .9m14.3-7l-4.9-10.1-2.4 1.4-1-2 6.7-3.9.9 2-2.4 1.3 4.8 10.1-2 1.2m5.4-3.3l-6.6-11.6 1.9-1.4 2.6 4.5 2.6-1.9-2.6-4.6 1.9-1.4 6.6 11.6-1.9 1.3-3-5.3-2.6 1.9 3 5.3-2 1.4m8.2-5.9l-7.4-10.8 5-4.2 1.2 1.8-3.2 2.7 1.7 2.6 3-2.5 1.2 1.7-3 2.5 2.1 3 3.3-2.8 1.3 1.8-5.1 4.3m6.4-11.8l1.6-1.8.6.6c.5.6.9.9 1.3 1 .3.1.6-.1 1-.5.3-.3.5-.7.5-1.1 0-.4-.2-.8-.5-1.1-.3-.3-.6-.4-.9-.5-.3 0-.9 0-1.6.1l-1.4.3c-1.2.2-2.1.3-2.6.1-.5-.2-1-.5-1.5-1.1-.7-.8-1.1-1.7-1.1-2.6.1-.9.5-1.8 1.2-2.6.9-.9 1.7-1.3 2.6-1.3s1.7.5 2.5 1.4l.1.3.14.2-1.6 1.7-.2-.3c-.5-.5-.9-.8-1.24-.8-.3-.1-.7.1-1.02.5-.2.3-.4.6-.4.9 0 .3.2.6.4.9.4.4 1.1.5 2.3.2a.1.1 0 0 1 .1 0l1.5-.3c1.05-.26 1.9-.3 2.5-.1.6.15 1.2.6 1.75 1.2.8.9 1.12 1.8 1.1 2.8-.07 1-.5 2-1.3 2.9-.9.9-1.8 1.4-2.7 1.4-.9-.1-1.8-.6-2.7-1.63-.1-.1-.3-.3-.5-.6V404m9.53-3.9l-9.5-8.8 4.1-5.4 1.6 1.5-2.6 3.4 2.2 2.06 2.4-3.2 1.5 1.4-2.4 3.2 2.6 2.4 2.6-3.5 1.6 1.5-4.15 5.5m2.4-12.3l1.1-1.8-4.9-2.3 3.8 4.1m2.3 6.18l-8.7-10.2 1.7-2.8 12 5.6-1.4 2.28-2.9-1.4-1.5 2.4 2.3 2.5-1.3 2.1m1.46-11.2l1.05-2.3.7.4c.7.4 1.2.6 1.5.5.33 0 .6-.3.8-.7.2-.5.26-.9.16-1.3s-.4-.7-.8-1c-.3-.2-.7-.3-1-.3-.3 0-.8.2-1.5.6l-1.3.7c-1.1.6-1.9 1-2.5 1-.5 0-1.1-.1-1.7-.5-.9-.6-1.5-1.3-1.8-2.2-.3-.9-.1-1.9.4-3s1.2-1.8 2-2.1c.9-.3 1.8-.1 2.8.5l.3.1.1.1-1 2.2-.3-.2c-.6-.3-1.1-.5-1.4-.4-.4.1-.7.4-.9.9-.2.3-.2.7-.1 1 .1.3.3.5.7.7.4.2 1.1.1 2.1-.5l1.3-.8c.9-.6 1.7-.9 2.3-1 .6-.1 1.3.1 2 .5 1 .5 1.6 1.3 1.9 2.2.3 1 .1 2-.4 3.2-.6 1.2-1.3 2-2.1 2.3-.9.27-1.9.07-3.1-.6a11.54 11.54 0 0 1-.6-.4h-.1"/>
</svg>
