<svg xmlns="http://www.w3.org/2000/svg" height="480" width="640" viewBox="0 0 640 480">
  <g fill-rule="evenodd" stroke-width="1pt">
    <path fill="#00319c" d="M0 0h213.34v480H0z"/>
    <path fill="#ffde00" d="M213.34 0h213.33v480H213.34z"/>
    <path fill="#de2110" d="M426.66 0H640v480H426.66z"/>
  </g>
  <path d="M360.38 320.38l24.26 35c1.35 1.95 2.7 3.9.66 5.2-2.03 1.28-1.37 6.45-.02 8.4 2.7 3.9 6.08 4.55 8.1 3.26l18.33-11.6c2.1-1.28 2.8-4.52.1-8.4-1.5-1.97-6.1-4.55-8.1-3.27-2 1.3-3.4-.65-4.7-2.6l-24.23-35" fill-rule="evenodd" stroke="#000" stroke-width=".73" fill="#ff1900"/>
  <path d="M177.17 696.26c0 24.46-9.52 44.3-21.26 44.3-11.7 0-21.2-19.84-21.2-44.3s9.5-44.3 21.3-44.3 21.3 19.84 21.3 44.3z" fill-rule="evenodd" transform="matrix(.53 -.42 .44 .5 -32.42 19.92)" stroke="#000" stroke-width="2.54" fill="#a77b3b"/>
  <path d="M261.95 306.14l-21.42 36.67c-1.2 2.1-2.38 4.1-4.5 3-2.14-1.1-6.66 1.8-7.85 3.9-2.38 4.1-1.44 7.28.7 8.4l19.18 10.26c2.13 1.14 5.46.24 7.84-3.83 1.1-2.2 1.44-7.27-.7-8.4-2.13-1.14-.94-3.2.25-5.2l21.43-36.7" fill-rule="evenodd" stroke="#000" stroke-width=".73" fill="#ff1900"/>
  <path d="M331.17 280.58h-19.53c-.65.6-6.2 35.6-12.2 49-7.34 16.32-29.27 30.73-29.27 30.73s13.14 4 17.05 6.6c.97-.2 21.94-4.6 24.38-30.3C314.04 362.3 297 374 297 374s24.4 7 24.4 23.34c0-16.33 24.42-23.33 24.42-23.33s-12.25-11.6-14.7-37.3c4.9 25.7 23.5 30.1 24.46 30.38 3.9-2.6 17.06-6.6 17.06-6.6S350.7 346 343.38 329.7c-6-13.4-11.56-48.38-12.2-49zM248.12 163.9l36.63 11.67c12.2 0 24.4-11.65 24.4-23.32.42-25.95-9.75-35-12.2-35l4.9-4.67-7.34-7s2.5-12.1 26.9-11.65c24.4.45 24.4 11.66 24.4 23.33s-12.2 11.66-12.2 35c0 11.66 12.2 23.33 24.4 23.33l36.7-11.7v116.6H248.2V163.9z" fill-rule="evenodd" stroke="#000" stroke-width="1.71" fill="#a77b3b"/>
  <g stroke="#000" fill="none">
    <path d="M302.16 292.24l14.64 14.96 14.65-14.96 14.64 14.96 29.2-14.96 14.2 15.8 15.02-15.8 21.6 15.8 22.33-15.8 14.64 14.96 14.67-14.96" transform="matrix(.17 0 0 .47 253.9 31.9)" stroke-width=".49"/>
    <path d="M432.28 435.83l-7.1 38.98m10.65-38.9v39m7.07-38.9v38.98M450 436l3.6 38.97m3.6-38.96l3.56 39" transform="matrix(.7 0 0 .66 16.18 -144.03)" stroke-width=".2"/>
  </g>
  <g stroke="#000" stroke-width="2.54">
    <path d="M318.9 361.42c35.43 17.72 35.43 53.15 35.43 70.87-1.25 16.1 0 354.3 0 354.3s-2.3-20.1-17.7-35.5l-17.73-17.7-17.72-17.8c-12.95-11.77-17.7-35.43-17.7-53.15v-248s0-17.73 35.42-53.16z" fill-rule="evenodd" transform="matrix(-.7 0 0 .66 443.44 -144.03)" fill="#a77b3b"/>
    <path d="M283.46 574.02c.42 0 17.72-17.72 17.72-17.72l17.7 17.72 17.73-17.72 17.8 17.72" transform="matrix(-.7 0 0 .66 443.44 -237.35)" fill="none"/>
    <path d="M283.46 574.02c.42 0 17.72-17.72 17.72-17.72l17.7 17.72 17.73-17.72 17.8 17.72" transform="matrix(-.7 0 0 -.66 443.44 530.2)" fill="none"/>
    <path d="M283.46 574.02c.42 0 17.72-17.72 17.72-17.72l17.7 17.72 17.73-17.72 17.8 17.72" transform="matrix(-.7 0 0 .66 443.44 -190.69)" fill="none"/>
    <path d="M301.4 557l-.22 158.75" transform="matrix(-.7 0 0 1.25 443.44 -566.79)" fill="none"/>
    <path d="M301.4 539.27l-.22 176.48" transform="matrix(-.7 0 0 1.12 431.38 -463.99)" fill="none"/>
    <path d="M301.4 539.27l-.22 176.48" transform="matrix(-.7 0 0 1.26 419.17 -548.33)" fill="none"/>
  </g>
  <g stroke="#000" stroke-width="2.54">
    <path d="M318.9 361.42c35.43 17.72 35.43 53.15 35.43 70.87-1.25 16.1 0 354.3 0 354.3s-2.3-20.1-17.7-35.5l-17.73-17.7-17.72-17.8c-12.95-11.77-17.7-35.43-17.7-53.15v-248s0-17.73 35.42-53.16z" fill-rule="evenodd" transform="matrix(.7 0 0 .66 199.29 -144.03)" fill="#a77b3b"/>
    <path d="M283.46 574.02c.42 0 17.72-17.72 17.72-17.72l17.7 17.72 17.73-17.72 17.8 17.72" transform="matrix(.7 0 0 .66 199.29 -237.35)" fill="none"/>
    <path d="M283.46 574.02c.42 0 17.72-17.72 17.72-17.72l17.7 17.72 17.73-17.72 17.8 17.72" transform="matrix(.7 0 0 -.66 199.29 530.2)" fill="none"/>
    <path d="M283.46 574.02c.42 0 17.72-17.72 17.72-17.72l17.7 17.72 17.73-17.72 17.8 17.72" transform="matrix(.7 0 0 .66 199.29 -190.69)" fill="none"/>
    <path d="M301.4 557l-.22 158.75" transform="matrix(.7 0 0 1.25 199.29 -566.79)" fill="none"/>
    <path d="M301.4 539.27l-.22 176.48" transform="matrix(.7 0 0 1.12 211.36 -463.99)" fill="none"/>
    <path d="M301.4 539.27l-.22 176.48" transform="matrix(.7 0 0 1.26 223.56 -548.33)" fill="none"/>
  </g>
  <path d="M177.17 696.26c0 24.46-9.52 44.3-21.26 44.3-11.7 0-21.2-19.84-21.2-44.3s9.5-44.3 21.3-44.3 21.3 19.84 21.3 44.3z" fill-rule="evenodd" transform="matrix(.64 .25 -.27 .6 361.15 -165.21)" stroke="#000" stroke-width="2.54" fill="#a77b3b"/>
  <path fill-rule="evenodd" fill="red" d="M248.12 175.6h146.5v69.98H248.1z"/>
  <path d="M248.12 245.58h146.5v35c0 23.33-36.63 23.33-73.25 46.66-36.63-23.33-73.25-23.33-73.25-46.66v-35z" fill-rule="evenodd" fill="#564dff"/>
  <path d="M336.6 485.43h212.6v159.45c0 35.43-53.14 35.43-106.3 70.87-53.14-35.44-106.3-35.44-106.3-70.87V485.43z" transform="matrix(.7 0 0 .66 16.18 -144.03)" stroke="#ff0" stroke-width="2.03" fill="none"/>
  <path d="M385.6 129.9s-50.63 55.45-50.63 108.6c0 53.15 53.15 70.87 53.15 70.87s-17.72 0-17.72 70.86c0 35.43 53.15 17.72 53.15 35.43 0 17.72-.75 60.58 0 88.6 0 17.7-35.43 0-35.43 17.7 0 8.86 26.58 53.15 53.15 53.15s53.15-44.2 53.15-53.1c0-17.7-35.43 0-35.43-17.7v-88.6c0-17.7 53.1 0 53.1-35.4 0-70.8-17.7-70.8-17.7-70.8s53.1-17.7 53.1-70.85S496.9 130 496.9 130s28.45 73.16 28.45 108.6c0 17.72-13.27 53.15-48.7 53.15 0 0-8.97-17.72-17.7 0 0 0-10.2-17.72-17.74 0-2.6 6.1-7.2-17.72-17.7 0-4.4 4.7-7.92-17.72-17.7 0-17.7 0-53.1-17.72-53.1-53.15S385.6 130 385.6 130z" fill-rule="evenodd" transform="matrix(.48 0 0 .3 108.52 140.09)" stroke="#000" stroke-width="2.45" fill="#ff0"/>
  <path d="M382.68 248.03c-3.54 3.54 4.58 61.27 7.1 63.78 3.53 3.6 24.8 3.6 28.33 0 2.6-2.5 0-56.6-3.5-60.2-3.5-3.5-29.4-6-31.9-3.5z" fill-rule="evenodd" transform="matrix(.48 0 0 .3 110.36 201.59)" stroke="#000" stroke-width="2.45" fill="#ff0"/>
  <path d="M382.68 248.03c-3.54 3.54 4.58 61.27 7.1 63.78 3.53 3.6 24.8 3.6 28.33 0 2.6-2.5 0-56.6-3.5-60.2-3.5-3.5-29.4-6-31.9-3.5z" fill-rule="evenodd" transform="matrix(-.48 0 0 .3 532.37 201.59)" stroke="#000" stroke-width="2.45" fill="#ff0"/>
  <path d="M414.57 228.54c0 8.8-7.14 15.95-15.95 15.95-8.8-.1-15.94-7.2-15.94-16s7.14-16 15.95-16c8.8 0 15.94 7.1 15.94 15.9z" fill-rule="evenodd" transform="matrix(.55 0 0 .4 82.69 183.73)" stroke="#000" stroke-width="2.45" fill="#ff0"/>
  <path d="M414.57 228.54c0 8.8-7.14 15.95-15.95 15.95-8.8-.1-15.94-7.2-15.94-16s7.14-16 15.95-16c8.8 0 15.94 7.1 15.94 15.9z" fill-rule="evenodd" transform="matrix(.55 0 0 .4 118.05 183.73)" stroke="#000" stroke-width="2.45" fill="#ff0"/>
  <path d="M336.75 307.5c0 1.5-1.9 2.74-4.27 2.74-2.36 0-4.27-1.23-4.27-2.74s2-2.74 4.3-2.74 4.3 1.23 4.3 2.74zm-22.22 0c0 1.5-1.9 2.74-4.27 2.74-2.36 0-4.27-1.23-4.27-2.74s1.9-2.74 4.2-2.74 4.2 1.23 4.2 2.74z" fill-rule="evenodd"/>
  <path fill-rule="evenodd" transform="matrix(.67 0 0 .64 26 -133.34)" stroke="#000" stroke-width="1.08" fill="#ff0" d="M439.37 549.92l-7.78-10.26-12.8 1.75 1.7-12.7-10.3-7.8 10.23-7.8-1.76-12.7 12.8 1.8 7.76-10.25 7.8 10.28 12.78-1.74-1.74 12.75 10.26 7.8-10.28 7.78 1.73 12.76-12.75-1.77z"/>
  <path d="M496.06 591.73l21.26 10.63 21.26-10.63-21.26-10.63-21.26 10.63z" fill-rule="evenodd" transform="matrix(.7 0 0 .66 16.18 -144.03)" stroke="#000" stroke-width="1.08" fill="#ff0"/>
  <path d="M496.06 591.73l21.26 10.63 21.26-10.63-21.26-10.63-21.26 10.63z" fill-rule="evenodd" transform="matrix(.7 0 0 .66 -88.81 -144.03)" stroke="#000" stroke-width="1.08" fill="#ff0"/>
  <path d="M535.04 659.06c-3.54-7.1-14.17-10.63-21.26-10.63-7.1 0-14.17 0-21.26 10.63 0-14.17 10.5-21.26 21.26-21.26 10.76 0 21.26 10.5 21.26 21.26z" fill-rule="evenodd" transform="matrix(.6 -.33 .34 .57 -165.15 86.49)" stroke="#000" stroke-width="1.08" fill="#ff0"/>
  <path d="M386.22 651.97a7.1 7.1 0 1 1-14.17 0 7.1 7.1 0 0 1 14.17 0z" fill-rule="evenodd" transform="matrix(.7 0 0 .66 13.73 -155.7)" stroke="#000" stroke-width="1.08" fill="#ff0"/>
  <path d="M386.22 651.97a7.1 7.1 0 1 1-14.17 0 7.1 7.1 0 0 1 14.17 0z" fill-rule="evenodd" transform="matrix(.7 0 0 .66 8.85 -139.37)" stroke="#000" stroke-width="1.08" fill="#ff0"/>
  <path d="M386.22 651.97a7.1 7.1 0 1 1-14.17 0 7.1 7.1 0 0 1 14.17 0z" fill-rule="evenodd" transform="matrix(.7 0 0 .66 6.41 -148.7)" stroke="#000" stroke-width="1.08" fill="#ff0"/>
  <path d="M386.22 651.97a7.1 7.1 0 1 1-14.17 0 7.1 7.1 0 0 1 14.17 0z" fill-rule="evenodd" transform="matrix(.7 0 0 .66 18.62 -139.37)" stroke="#000" stroke-width="1.08" fill="#ff0"/>
  <path d="M386.22 651.97a7.1 7.1 0 1 1-14.17 0 7.1 7.1 0 0 1 14.17 0z" fill-rule="evenodd" transform="matrix(.7 0 0 .66 21.06 -148.7)" stroke="#000" stroke-width="1.08" fill="#ff0"/>
  <path d="M386.22 651.97a7.1 7.1 0 1 1-14.17 0 7.1 7.1 0 0 1 14.17 0z" fill-rule="evenodd" transform="matrix(.7 0 0 .66 13.73 -146.37)" stroke="#000" stroke-width="1.08" fill="#ff0"/>
  <g fill-rule="evenodd">
    <path d="M297.77 120.38c-12.32 0-13.95 1.95-19.53 3.9 0-5.38 13.72-11.68 26.04-11.68 0 3.9-3.25 7.78-6.5 7.78z" fill="#da4500"/>
    <path d="M316.48 107.93c0 2.58-2.18 4.67-4.88 4.67s-4.88-2.1-4.88-4.67 2.18-4.66 4.88-4.66 4.88 2.1 4.88 4.66z" fill="#cac9c7"/>
    <path d="M361.42 357.87v10.63h17.72v53.15h10.63V368.5h17.7v-10.63h-17.7V343.7h-10.63v14.17h-17.72z" stroke="#000" stroke-width="1.08" fill="#ff0" transform="matrix(.7 0 0 .66 16.18 -144.03)"/>
    <path d="M304.26 112.6c-14.37 0-22.78 1.3-29.3 3.9 0-7.16 8.42-15.56 22.8-15.56 3.25 0 6.5 7.78 6.5 11.67z" fill="#da4500"/>
  </g>
  <g fill-rule="evenodd">
    <path d="M67.32 613c-14.17-14.18-16.63-21.37 3.55-10.1l283.75 247.5-3.37 6.96L67.32 613z" transform="matrix(.4 .3 -.14 .24 237.45 71.29)" stroke="#000" stroke-width=".71" fill="#008500"/>
    <path d="M228.4 330.4c.77-10.58-18.6-22.03-19.38-21.3-.77.76 1.18 6.92 4.85 10.13-7.03-3.62-14.4-5.86-14.56-4.28-.5 2.12 11 7.2 11.9 9.14.2 1.4-8.4 1.2-8.3 2.6.2 1.4 24.3 13.5 25.5 3.7zm-19.37-30.83c.77-10.58-18.6-22.04-19.37-21.3-.77.75 1.17 6.92 4.85 10.13-7-3.63-14.4-5.86-14.5-4.3-.6 2.13 11 7.2 11.9 9.16.2 1.4-8.4 1.22-8.3 2.62.2 1.4 24.3 13.57 25.5 3.7zm-14.8-28c.76-10.58-18.62-22.03-19.4-21.3-.76.76 1.2 6.92 4.86 10.13-7.1-3.62-14.5-5.86-14.6-4.28-.6 2.12 10.9 7.2 11.9 9.14.1 1.4-8.5 1.22-8.3 2.62.1 1.4 24.2 13.57 25.5 3.7zm-14.66-30.33c.77-10.6-18.6-22.04-19.38-21.3-.8.75 1.1 6.92 4.8 10.13-7.1-3.63-14.4-5.86-14.6-4.3-.6 2.14 10.9 7.2 11.9 9.16.1 1.4-8.5 1.22-8.3 2.62.1 1.4 24.2 13.57 25.5 3.7z" fill="#008f00"/>
    <path d="M184.6 239.87c9.38-5.7 7.54-27.4 6.46-27.54-1.08-.15-5.12 5-5.65 9.74-1.1-7.57-3.6-14.57-5-13.75-2.1.8.4 12.68-.6 14.57-1.1.9-6-5.8-7.1-4.9-1.1.9 3 26.7 12 21.8zm13.6 26.63c10.8-2.37 16.66-23.4 15.7-23.9-.97-.48-6.58 3.08-8.73 7.38 1.6-7.5 1.7-14.88.07-14.56-2.3.1-4.03 12.08-5.72 13.52-1.35.55-3.67-7.38-5.02-6.83-1.36.6-6.57 26.2 3.7 24.4zm16.2 27.24c9.88-4.86 10.1-26.63 9.02-26.87-1.06-.24-5.56 4.54-6.53 9.2-.5-7.62-2.3-14.8-3.8-14.1-2.2.62-.8 12.65-2 14.45-1.2.85-5.5-6.28-6.7-5.43-1.2.8.4 26.8 9.9 22.7zm17.57 35.57c10.34-3.8 12.85-25.5 11.82-25.8-1.1-.3-6.1 4-7.5 8.6.4-7.6-.7-14.92-2.2-14.4-2.3.4-2.1 12.5-3.6 14.2-1.3.75-4.8-6.76-6.1-6.02-1.28.73-2.45 26.75 7.42 23.6z" fill="#008f00"/>
  </g>
  <path d="M209.06 775.98c0 7.83-10.3 14.17-23.03 14.17-12.72 0-23.03-6.34-23.03-14.17s10.3-14.17 23.03-14.17c12.72 0 23.03 6.4 23.03 14.2z" fill-rule="evenodd" transform="matrix(.6 .32 -.34 .57 389.58 -146.81)" stroke="#000" stroke-width="1.08" fill="#ff1900"/>
  <g stroke="#000" fill-rule="evenodd" fill="#ff0" stroke-width=".51">
    <path d="M155.9 414.57v-7.1h7.1v-7.07h7.08v7.08h7.1v7.1h-7.1v17.7H163v-17.7h-7.1zm7.1 60.23h7.08v205.5h-7.1z" transform="matrix(.5 .16 -.18 .47 451.44 -3.73)"/>
    <path d="M159.45 676.77h14.17v56.7h-14.17zm-3.54-237.4h21.3c14.2 0-3.5 38.98-3.5 38.98h-14.2s-17.7-38.98-3.5-38.98z" transform="matrix(.5 .16 -.18 .47 451.44 -3.73)"/>
    <path d="M173.62 434.06c0 2.94-3.17 5.32-7.1 5.32s-7.07-2.38-7.07-5.32 3.17-5.32 7.08-5.32 7.1 2.38 7.1 5.32z" transform="matrix(.5 .16 -.18 .47 451.44 -3.73)"/>
  </g>
  <path d="M209.06 775.98c0 7.83-10.3 14.17-23.03 14.17-12.72 0-23.03-6.34-23.03-14.17s10.3-14.17 23.03-14.17c12.72 0 23.03 6.4 23.03 14.2z" fill-rule="evenodd" transform="matrix(.57 -.36 .38 .55 -2.26 4.21)" stroke="#000" stroke-width="1.08" fill="#ff1900"/>
</svg>
