<svg xmlns="http://www.w3.org/2000/svg" height="480" width="640" viewBox="0 0 640 480">
  <defs>
    <clipPath id="a">
      <path fill-opacity=".67" d="M0 0h640v480H0z"/>
    </clipPath>
  </defs>
  <g clip-path="url(#a)">
    <path fill-rule="evenodd" fill="#ef2d29" d="M-3.3-21.6h702.27v553H-3.3z"/>
    <path fill-rule="evenodd" fill="#009025" d="M174.57 317.33h535.76V524.9H174.57z"/>
    <path fill-rule="evenodd" fill="#fff" d="M174.57-35.4h564.88v190.05H174.57z"/>
    <g stroke-width=".98" stroke="#ef2d28">
      <g fill-rule="evenodd" transform="matrix(.2 0 0 .2 111.3 -13.4)" fill="#fff">
        <rect rx="11.3" ry="11.85" height="85.04" width="138.19" y="467.72" x="17.72" stroke-width="1.41"/>
        <rect rx="10.72" ry="10.86" height="77.95" width="131.1" y="471.26" x="21.26" stroke-width="1.31"/>
        <path d="M64.97 396.07l9.72.44.4 5.8 7.9 5.3 6.1-6.6 7.5 5.3-7.1 5.7 1.7 8 8.8-.4v10.6l-7.1-.4-3.55 6.6 8 7.5-6.2 6.2-6.6-6.7-9.7 2.7.43 9.7-10.6.9-1.36-9.3-8.8-4.8-4.9 6.6-7.5-4.8 4.4-7.5-5.3-4.9H34l-.44-13.7 7.5.9 5.3-7.93-6.18-6.2 7.9-7.1 5.76 5.74 9.7-1.8 1.34-5.72z" transform="matrix(.7 0 0 .6 38 260.7)" stroke-width="1.31"/>
        <ellipse transform="matrix(.7 0 0 .7 38.8 209.6)" cx="68.94" rx="11.05" cy="426.78" ry="9.94" stroke-width="1.31"/>
        <path d="M38.98 474.8l-10.63 10.63m17.7-10.63l-10.62 10.63m17.72-10.63l-10.63 10.63m17.72-10.63L49.6 485.43m17.72-10.63L56.7 485.43m17.7-10.63l-10.6 10.63m17.7-10.63l-10.63 10.63m17.7-10.63l-10.62 10.63m17.72-10.63l-10.63 10.63m17.7-10.63l-10.62 10.63m17.72-10.63L99.2 485.43m17.73-10.63l-10.63 10.63M88.58 474.8l-10.63 10.63M124 474.8l-10.62 10.63m17.72-10.63l-10.63 10.63m17.72-10.63l-10.7 10.63m17.7-10.63l-10.7 10.63m0-10.63l10.6 10.63m-17.7-10.63l10.6 10.63m-17.7-10.63l10.7 10.63m-17.7-10.63l10.7 10.63m-17.7-10.63l10.6 10.63M99.2 474.8l10.64 10.63M92.12 474.8l10.63 10.63m-17.7-10.63l10.62 10.63M77.95 474.8l10.63 10.63M70.86 474.8l10.63 10.63M63.7 474.8l10.63 10.63M56.7 474.8l10.62 10.63m17.72-10.63l10.63 10.63M49.6 474.8l10.64 10.63M42.52 474.8l10.63 10.63M35.43 474.8l10.63 10.63m-17.7-10.63l10.62 10.63m0 49.6l-10.63 10.64m17.7-10.63l-10.62 10.63m17.72-10.63l-10.63 10.63m17.72-10.63L49.6 545.67m17.72-10.63L56.7 545.67m17.7-10.63l-10.6 10.63m17.72-10.63L70.9 545.67m17.7-10.63l-10.63 10.63m17.72-10.63L85 545.67m17.7-10.63l-10.6 10.63m17.73-10.63L99.2 545.67m17.73-10.63l-10.63 10.63m-17.72-10.63l-10.63 10.63M124 535.04l-10.62 10.63m17.72-10.63l-10.63 10.63m17.72-10.63l-10.7 10.63m17.7-10.63l-10.7 10.63m0-10.63l10.6 10.63m-17.7-10.63l10.6 10.63m-17.7-10.63l10.7 10.63m-17.7-10.63l10.7 10.63m-17.7-10.63l10.6 10.63m-17.7-10.63l10.6 10.63m-17.7-10.63l10.6 10.63M85 535.04l10.63 10.63M77.9 535.04l10.64 10.63m-17.72-10.63l10.63 10.63m-17.8-10.63l10.6 10.63m-17.7-10.63l10.6 10.63M85 535.04l10.64 10.63M49.6 535.04l10.64 10.63m-17.72-10.63l10.63 10.63m-17.72-10.63l10.63 10.63m-17.7-10.63l10.62 10.63" stroke-width="1.31"/>
      </g>
      <g fill-rule="evenodd" fill="#fff" transform="matrix(.2 0 0 .2 19.1 -14.1)">
        <rect rx="11.3" ry="11.85" height="85.04" width="138.19" y="467.72" x="17.72" stroke-width="1.41"/>
        <rect rx="10.72" ry="10.86" height="77.95" width="131.1" y="471.26" x="21.26" stroke-width="1.31"/>
        <path d="M64.97 396.07l9.72.44.4 5.8 7.9 5.3 6.1-6.6 7.5 5.3-7.1 5.7 1.7 8 8.8-.4v10.6l-7.1-.4-3.55 6.6 8 7.5-6.2 6.2-6.6-6.7-9.7 2.7.43 9.7-10.6.9-1.36-9.3-8.8-4.8-4.9 6.6-7.5-4.8 4.4-7.5-5.3-4.9H34l-.44-13.7 7.5.9 5.3-7.93-6.18-6.2 7.9-7.1 5.76 5.74 9.7-1.8 1.34-5.72z" transform="matrix(.7 0 0 .6 38 260.7)" stroke-width="1.31"/>
        <ellipse transform="matrix(.7 0 0 .7 38.8 209.6)" cx="68.94" rx="11.05" cy="426.78" ry="9.94" stroke-width="1.31"/>
        <path d="M38.98 474.8l-10.63 10.63m17.7-10.63l-10.62 10.63m17.72-10.63l-10.63 10.63m17.72-10.63L49.6 485.43m17.72-10.63L56.7 485.43m17.7-10.63l-10.6 10.63m17.7-10.63l-10.63 10.63m17.7-10.63l-10.62 10.63m17.72-10.63l-10.63 10.63m17.7-10.63l-10.62 10.63m17.72-10.63L99.2 485.43m17.73-10.63l-10.63 10.63M88.58 474.8l-10.63 10.63M124 474.8l-10.62 10.63m17.72-10.63l-10.63 10.63m17.72-10.63l-10.7 10.63m17.7-10.63l-10.7 10.63m0-10.63l10.6 10.63m-17.7-10.63l10.6 10.63m-17.7-10.63l10.7 10.63m-17.7-10.63l10.7 10.63m-17.7-10.63l10.6 10.63M99.2 474.8l10.64 10.63M92.12 474.8l10.63 10.63m-17.7-10.63l10.62 10.63M77.95 474.8l10.63 10.63M70.86 474.8l10.63 10.63M63.7 474.8l10.63 10.63M56.7 474.8l10.62 10.63m17.72-10.63l10.63 10.63M49.6 474.8l10.64 10.63M42.52 474.8l10.63 10.63M35.43 474.8l10.63 10.63m-17.7-10.63l10.62 10.63m0 49.6l-10.63 10.64m17.7-10.63l-10.62 10.63m17.72-10.63l-10.63 10.63m17.72-10.63L49.6 545.67m17.72-10.63L56.7 545.67m17.7-10.63l-10.6 10.63m17.72-10.63L70.9 545.67m17.7-10.63l-10.63 10.63m17.72-10.63L85 545.67m17.7-10.63l-10.6 10.63m17.73-10.63L99.2 545.67m17.73-10.63l-10.63 10.63m-17.72-10.63l-10.63 10.63M124 535.04l-10.62 10.63m17.72-10.63l-10.63 10.63m17.72-10.63l-10.7 10.63m17.7-10.63l-10.7 10.63m0-10.63l10.6 10.63m-17.7-10.63l10.6 10.63m-17.7-10.63l10.7 10.63m-17.7-10.63l10.7 10.63m-17.7-10.63l10.6 10.63m-17.7-10.63l10.6 10.63m-17.7-10.63l10.6 10.63M85 535.04l10.63 10.63M77.9 535.04l10.64 10.63m-17.72-10.63l10.63 10.63m-17.8-10.63l10.6 10.63m-17.7-10.63l10.6 10.63M85 535.04l10.64 10.63M49.6 535.04l10.64 10.63m-17.72-10.63l10.63 10.63m-17.72-10.63l10.63 10.63m-17.7-10.63l10.62 10.63" stroke-width="1.31"/>
      </g>
      <path d="M538.58 531.5c1.72 166.56 24.8 201.97 3.54 201.97s-31.9-92.07-31.9-205.5 14.2-205.52 35.45-205.52-8.92 31.9-7.1 209.06z" fill-rule="evenodd" transform="matrix(-.3 -.1 -.2 .2 345.9 61.4)" stroke-width="1.31" fill="#fff"/>
      <path d="M36.17 142.5l12.04 3.55c-11.3 12.05-24 17-27.6 14.88-3.5-2.12 6.4-7.1 15.6-18.42z" fill-rule="evenodd" stroke-width=".25" fill="#fff"/>
      <path d="M33.35 149.28l10.18 2.95c-11.34 12.05-22.55 15.48-25.45 14-2.92-1.47 6.05-5.6 15.27-16.95z" fill-rule="evenodd" stroke-width=".25" fill="#fff"/>
      <path d="M87.7 83.82c-.03.13-.1.7-.14.94 0 .32-.03.57-.06.82-.08.2-.07.42-.32.5-.17.26-.27.33-.5.43-.15.2-.38.3-.62.4-.25.1-.48.1-.75.1l-.5-.4c0-.2-.1-.5-.1-.6.1.2.1.5.2.8 0 .3-.1.5-.2.7m1.5.5h-.1c.2.2.1.1-.2-.1-.25-.1-.5-.2-.82-.2h-1c-.34 0-.57.08-.8.15-.2.2-.45.3-.64.45-.2.2-.27.3-.37.5-.17.2-.3.5-.44.6-.05.3-.2.3-.3.5.3.05.54.1.7.27.25.18-.2-.1-.3-.2-.2-.03-.3-.1-.6-.1-.26-.1-.43.1-.72.1-.15.1-.2.16-.42.16m3.1 1c-.2 0-.7.1-1 0-.3-.1-.4-.24-.6-.47-.1-.16 0 .3 0 .5 0 .38-.2.38-.3.6-.2.15-.4.3-.6.4-.2.15-.37.24-.6.3-.2.1-.4.2-.56.34-.2.14-.2.3-.3.55 0 .3 0 .46.2.6.06.22.23.42.37.6.2.25.35.4-.04.5-.2.1-.32 0-.55 0m-.07.3c-.13 0-.7-.2-.9-.3h-.9c-.35.04-.4.14-.7.26-.2.2-.3.36-.56.48-.13.2-.4.5-.5.7-.07.2-.1.5-.1.8 0 .4.1.46.1.78.07.3.2.5.4.78 0 .1 0 .1.1.14" stroke-width=".18" fill="none"/>
      <path d="M55.65 120.6c-.04 0-.12.2-.25.38-.3.3-.32.32-.75.32-.4-.02-.36-.16-.63-.25-.13-.2-.3-.36-.44-.63-.1-.16-.2-.4-.3-.56-.12-.2-.26-.33-.38-.5-.12-.05-.17-.1-.32-.13.36.06.4.2.63.38.2.2.3.4.4.6l.2.8c0 .4 0 .6-.1.9-.1.2-.2.3-.4.5l-.4.5-.6.4c-.2.1-.4.3-.7.3-.3 0-.4-.1-.7-.2l-.6-.4c-.2-.1-.34-.3-.45-.5-.34-.1-.56 0-.76.2a1.65 1.65 0 0 1-.43.46l-.4.26" stroke-width=".23" fill="none"/>
      <path d="M50.93 119.58c.1.04.45.3.6.38.1.3.25.5.3.82.08.33.07.7.07 1.05-.08.4-.24.67-.37.98-.24.2-.36.3-.68.5-.3.1-.6.1-.97.1-.23.1-.67.1-.9 0-.33 0-.58-.2-.83-.3-.27-.1-.44-.3-.75-.4-.14-.2-.37-.4-.6-.6-.18-.2-.32-.4-.45-.6.12.3.3.6.38.9.17.3.27.5.3.9.1.3.08.7.08 1.05 0 .27 0 .7-.1.9v.25" stroke-width=".23" fill="none"/>
      <path d="M37.05 146.45v.12c0-.34 0-.16.12.5.24.3.8.37 1.25.25.4-.33.4-.58 1.13-.74.7.05.98.25 1.37.5.47.23.7.35 1 .87.16.43.24.7-.25.88-.4.28-.85.43-1.37.5-.58 0-1-.07-1.26.25-.4.4-.37.65-.37 1.37-.14.22-.16.88-.25 1.13-.35.16-.55.25-1.12.25-.14-.4-.3-1.08-.38-1.5-.1-.45-.13-1.08-.38-1.38a3.32 3.32 0 0 1-.87-.87c-.16-.22-.45-.4-.75-.5.5.25.56.52.63 1.12-.43.22-.55.37-1.25.38-.7-.06-.86-.23-1.13-.63-.05.63-.25.84-.38 1.38-.3.38-.4.77-.7 1.25.1.6.3.63.4 1.38.1.48.1.95.5 1.25.1.2.2.3.6.3-.7 0-1.2-.1-1.6-.4-.4-.2-.7-.5-1-.7-.5-.3-1-.6-1.5-.7-.6 0-1 0-1.3.3-.4.3-.6.7-.8 1.3-.1.6-.2 1.1.1 1.5.2.5.2.7 0 1.2-.3.4-.7.5-1.4.7-.5-.03-1-.14-1.3-.25" stroke-width=".25" fill="none"/>
      <g fill-rule="evenodd" stroke-width="1.31" transform="matrix(-.2 0 0 .2 145.3 -13.4)">
        <path d="M531.5 359.64c0-165.27 7.94-299.4 17.72-299.4 9.78 0 17.7 134.12 17.7 299.4H531.5z" transform="matrix(1.4 -.7 .5 .9 -716.8 541.1)" fill="#fff"/>
        <path d="M531.5 359.64c0-165.27 7.94-299.4 17.72-299.4 9.78 0 17.7 134.12 17.7 299.4" transform="matrix(1.1 -.6 .5 .9 -554.8 471.8)" fill="#fff"/>
        <path d="M563.4 301.18c.18 18.9 0 40.2 0 60.24h-28.36c0-20.05-.2-41.33 0-60.24h28.35z" transform="matrix(1.4 -.7 .5 .9 -716.7 541.4)" fill="#fff"/>
        <path d="M559.84 304.72c.2 18.9 0 33.1 0 53.15h-21.26c0-20.05-.2-34.24 0-53.15h21.26z" transform="matrix(1.4 -.7 .5 .9 -716.7 541.4)" fill="#fff"/>
        <path transform="matrix(1.4 -.7 .5 .9 -716.7 541.4)" fill="#fff" d="M542.13 311.8h14.17v39h-14.17zm0 0l14.17 39m-14.17 0l14.17-39m-14.17-198.4h14.17"/>
        <ellipse fill="#ef0000" transform="matrix(1.6 .5 -.4 1.6 -734.9 -170.8)" cx="545.67" rx="3.54" cy="92.13" ry="3.54"/>
      </g>
      <path d="M538.58 531.5c1.72 166.56 24.8 201.97 3.54 201.97s-31.9-92.07-31.9-205.5 14.2-205.52 35.45-205.52-8.92 31.9-7.1 209.06z" fill-rule="evenodd" transform="matrix(.3 -.1 .2 .2 -181.5 60.8)" stroke-width="1.31" fill="#fff"/>
      <path d="M128.23 141.8l-12.04 3.55c11.3 12.05 24 17 27.6 14.88 3.5-2.12-6.4-7.1-15.6-18.42z" fill-rule="evenodd" stroke-width=".25" fill="#fff"/>
      <path d="M131.05 148.58l-10.18 2.95c11.34 12.05 22.55 15.48 25.45 14 2.92-1.47-6.05-5.6-15.27-16.95z" fill-rule="evenodd" stroke-width=".25" fill="#fff"/>
      <path d="M76.7 83.12c.03.13.1.7.14.94 0 .32.03.57.06.82.08.2.07.42.32.5.17.26.27.33.5.43.15.2.38.3.62.4.25.1.48.1.75.1l.5-.4c0-.2.1-.5.1-.6-.1.2-.1.5-.2.8 0 .3.1.5.2.7m-1.5.5c-.1.2-.07.1.26-.1.26-.1.5-.2.83-.2h.9c.4 0 .6.1.8.17.2.2.5.3.7.45.2.17.3.3.4.5.2.2.3.47.43.6.05.3.2.3.3.5-.3.04-.54.08-.7.26-.25.14.23-.1.3-.25.2 0 .3-.1.6-.1.3-.1.46.1.75.1.13.1.2.18.4.18m-3.16 1.1c.18 0 .76.1 1 0 .22-.1.4-.2.53-.43.06-.2 0 .3 0 .5 0 .35.1.35.3.6.2.12.37.3.56.4.1.12.3.2.5.3l.6.3c.2.18.2.35.3.6 0 .3-.04.5-.22.6-.04.24-.2.44-.34.6-.18.27-.3.4.04.5.2.1.3 0 .53 0m.08.33c.16-.02.7-.2.94-.3h.84c.36.04.4.14.7.26.2.2.3.35.57.47.1.2.4.5.5.7.06.2.1.5.1.8 0 .4-.1.42-.1.74-.1.3-.2.5-.4.78 0 .1-.03.1-.1.14" stroke-width=".18" fill="none"/>
      <path d="M108.73 119.98c.04 0 .12.2.25.37.3.3.32.32.75.32.4-.02.36-.16.63-.25.13-.2.3-.36.44-.63.1-.2.2-.5.3-.6.12-.2.26-.4.38-.5.12-.1.17-.1.32-.2-.36 0-.4.2-.63.3-.1.2-.22.3-.3.5-.05.2-.13.5-.14.8 0 .3 0 .5.13.8.15.1.25.3.44.4.14.14.32.33.43.5l.57.4c.18.1.4.22.68.24.37-.03.48-.14.75-.26l.63-.4c.16-.1.33-.33.44-.5.33-.1.55-.04.75.1a1.65 1.65 0 0 1 .43.46l.38.28" stroke-width=".23" fill="none"/>
      <path d="M113.45 118.95c-.1.04-.45.3-.6.38-.1.3-.25.5-.3.82-.08.33-.07.7-.07 1.05.08.4.24.67.37.98.24.16.36.28.68.45.3.04.6.07.97.07.23.08.67.12.9 0 .33-.04.58-.18.83-.3.27-.15.44-.3.75-.45.14-.2.37-.4.6-.67.18-.25.32-.4.45-.68-.12.32-.3.6-.38.9-.17.32-.27.44-.3.83-.1.3-.08.7-.08 1.05.04.24.05.7.15.9v.22" stroke-width=".23" fill="none"/>
      <path d="M127.35 145.75v.12c0-.34 0-.16-.12.5-.24.3-.8.37-1.25.25-.4-.33-.4-.58-1.13-.74-.7.05-.98.25-1.37.5-.47.23-.7.35-1 .87-.16.43-.24.7.25.88.4.28.85.43 1.37.5.58 0 1-.07 1.26.25.4.4.37.65.37 1.37.14.22.16.88.25 1.13.35.16.55.25 1.12.25.14-.4.3-1.08.38-1.5.1-.45.13-1.08.38-1.38a3.32 3.32 0 0 1 .87-.87c.16-.22.45-.4.75-.5-.5.25-.56.52-.63 1.12.43.22.55.37 1.25.38.7-.06.86-.23 1.13-.63.05.63.25.84.38 1.38.3.38.4.77.7 1.25-.1.6-.3.63-.4 1.38-.1.48-.1.95-.5 1.25-.1.2-.2.3-.6.3.7 0 1.2-.1 1.6-.4.4-.2.7-.5 1-.7.5-.3 1-.6 1.5-.7.6 0 1 0 1.3.3.4.3.6.7.8 1.3.1.6.2 1.1-.1 1.5-.2.5-.2.7 0 1.2.3.4.7.5 1.4.7.5-.03 1-.14 1.3-.25" stroke-width=".25" fill="none"/>
      <g stroke-width="1.31" fill-rule="evenodd" transform="matrix(.2 0 0 .2 19.1 -14.1)">
        <path d="M531.5 359.64c0-165.27 7.94-299.4 17.72-299.4 9.78 0 17.7 134.12 17.7 299.4H531.5z" transform="matrix(1.4 -.7 .5 .9 -716.8 541.1)" fill="#fff"/>
        <path d="M531.5 359.64c0-165.27 7.94-299.4 17.72-299.4 9.78 0 17.7 134.12 17.7 299.4" transform="matrix(1.1 -.6 .5 .9 -554.8 471.8)" fill="#fff"/>
        <path d="M563.4 301.18c.18 18.9 0 40.2 0 60.24h-28.36c0-20.05-.2-41.33 0-60.24h28.35z" transform="matrix(1.4 -.7 .5 .9 -716.7 541.4)" fill="#fff"/>
        <path d="M559.84 304.72c.2 18.9 0 33.1 0 53.15h-21.26c0-20.05-.2-34.24 0-53.15h21.26z" transform="matrix(1.4 -.7 .5 .9 -716.7 541.4)" fill="#fff"/>
        <path transform="matrix(1.4 -.7 .5 .9 -716.7 541.4)" fill="#fff" d="M542.13 311.8h14.17v39h-14.17zm0 0l14.17 39m-14.17 0l14.17-39m-14.17-198.4h14.17"/>
        <ellipse fill="#ef0000" transform="matrix(1.6 .5 -.4 1.6 -734.9 -170.8)" cx="545.67" rx="3.54" cy="92.13" ry="3.54"/>
      </g>
      <g fill-rule="evenodd" fill="#fff" transform="matrix(.2 0 0 .2 19.1 -14.1)">
        <path d="M305.6 396.85c0 124.02.5 170.76-5.6 177.17-5.8 6.86-167.13 0-167.13 35.43s132.87 70.87 172.74 70.87c53.2 0 79.8-35.43 79.8-106.3V396.85h-79.8z" transform="matrix(1.3 0 0 1 -141.7 0)" stroke-width="1.31"/>
        <path d="M265.75 432.3V450c35.43 5.9 70.87 5.9 106.3 0v-17.7c-35.43 5.9-70.87 5.9-106.3 0zm0-35.45v17.72c35.43 5.9 70.87 5.9 106.3 0v-17.72c-35.43 5.9-70.87 5.9-106.3 0z" stroke-width="1.31"/>
        <path d="M265.75 414.57v17.72c35.43 5.9 70.87 5.9 106.3 0v-17.8c-35.43 5.9-70.87 5.9-106.3 0zm0 35.43v17.72c35.43 5.9 70.87 5.9 106.3 0V450c-35.43 5.9-70.87 5.9-106.3 0z" stroke-width="1.31"/>
        <ellipse transform="matrix(.6 0 0 .1 130.5 394.3)" cx="256.89" rx="8.86" cy="210.83" ry="26.57" stroke-width="4.39"/>
        <ellipse transform="matrix(.6 0 0 .1 130.5 391.1)" cx="292.32" rx="8.86" cy="246.26" ry="26.57" stroke-width="4.39"/>
        <ellipse transform="matrix(.6 0 0 .1 130.5 390.5)" cx="327.76" rx="8.86" cy="263.98" ry="26.57" stroke-width="4.39"/>
        <ellipse transform="matrix(.6 0 0 .1 130.5 390.5)" cx="363.19" rx="8.86" cy="263.98" ry="26.57" stroke-width="4.39"/>
        <ellipse transform="matrix(.6 0 0 .1 130.5 391.1)" cx="398.62" rx="8.86" cy="246.26" ry="26.57" stroke-width="4.39"/>
        <ellipse transform="matrix(.6 0 0 .1 130.5 394.3)" cx="434.06" rx="8.86" cy="210.83" ry="26.57" stroke-width="4.39"/>
        <path d="M265.75 485.43l106.3 95.67m-95.67-95.67l95.67 85.04m-81.5-81.5l81.5 70.88m-70.87-70.87l70.87 60.24m-60.24-60.24l60.3 49.6m-49.6-49.6l49.6 38.98m-39-38.98l39 28.35m-28.3-28.35l28.4 21.26m-17.7-21.26l17.8 14.17m-7.1-14.17l7.1 7.1m-106.3-.02l106.3 95.67m0-106.3l-117 106.3m106.3-106.3l-102.8 92.13m88.6-88.58l-81.5 70.87m70.9-70.87L266 549.22m60.2-60.24l-60.24 49.6m49.6-49.6l-49.6 38.98m38.98-38.98l-38.96 28.35m28.34-28.35l-28.34 21.26m17.7-21.26l-17.7 14.17m7.1-14.17l-7.1 7.1m106.3-.02l-117 106.3m116.9-95.66L255.1 613m116.93-95.68L255.1 623.62m116.93-95.67L255.1 634.25m116.93-95.67L255.1 644.88m116.93-95.67l-116.9 106.3m116.92-95.6L255.12 666.2m116.93-95.68L255.12 676.8m116.93-95.68L262.2 680.3m109.85-88.57l-99.2 88.58m95.65-74.4l-77.95 70.9m74.4-56.7l-63.77 56.7m56.7-39l-31.9 28.4m-60.23-159.5l102.75 92.1m-102.75-81.5l102.75 92.2M265.8 528l99.2 88.6m-99.2-77.96L365 627.2m-99.2-77.97l95.7 85.05m-99.3-77.94l95.7 85.05M262.25 567l88.6 77.94M258.65 574l88.6 77.97M255.1 581.1l85.05 74.4m-85.04-63.77l81.5 70.86m-81.5-60.3l70.9 63.8m-60.2-198.4v17.7c35.5 5.9 70.9 5.9 106.3 0v-17.7c-35.4 5.9-70.8 5.9-106.3 0zM255.1 613l63.8 56.68m-63.8-46.06l56.7 49.6m-56.7-38.97l49.62 42.52m-49.6-31.9l35.43 31.9M255.1 655.5l28.36 24.8m-28.35-14.16l17.8 14.17" stroke-width="1.31"/>
        <ellipse transform="matrix(.6 0 0 .1 130.5 447.5)" cx="256.89" rx="8.86" cy="210.83" ry="26.57" stroke-width="4.39"/>
        <ellipse transform="matrix(.6 0 0 .1 130.5 444.3)" cx="292.32" rx="8.86" cy="246.26" ry="26.57" stroke-width="4.39"/>
        <ellipse transform="matrix(.6 0 0 .1 130.5 443.6)" cx="327.76" rx="8.86" cy="263.98" ry="26.57" stroke-width="4.39"/>
        <ellipse transform="matrix(.6 0 0 .1 130.5 443.6)" cx="363.19" rx="8.86" cy="263.98" ry="26.57" stroke-width="4.39"/>
        <ellipse transform="matrix(.6 0 0 .1 130.5 444.3)" cx="398.62" rx="8.86" cy="246.26" ry="26.57" stroke-width="4.39"/>
        <ellipse transform="matrix(.6 0 0 .1 130.5 447.5)" cx="434.06" rx="8.86" cy="210.83" ry="26.57" stroke-width="4.39"/>
        <path d="M113.4 651.97l127.54-74.4M106.3 648.42l120.47-70.87m-124 63.78l109.83-63.78m-113.38 56.7l95.67-56.7m-102.8 49.6l88.5-49.6m-85 38.98l60.2-35.44m-63.7 28.3l46-28.4M92 598.7l32-17.62m0 74.4l120.46-70.84m-109.83 74.4L248 591.74M145.3 662.6l106.3-63.78m-95.67 67.32L244.5 613m-74.42 53.14l77.95-46.07m-67.32 49.6l67.4-38.97m-56.7 42.53l53.2-31.9m-39 31.9l42.6-24.8m-28.3 28.35l28.4-17.72m-14.2 17.7l17.8-10.62m7.07-92.12H241c-5.9 35.43-5.9 70.87 0 106.3h17.72c-5.9-35.43-5.9-70.87 0-106.3zm-209.1 49.6l42.5-35.42m-42.6 10.6l42.5 42.52" stroke-width="1.31"/>
        <path d="M260.15 388l5.6 26.57c35.43 5.9 65.27 5.9 100.7 0l11.2-26.58c-35.45 5.9-82.07 5.9-117.5 0z" transform="matrix(0 .6 -.8 0 423.8 416.3)" stroke-width="1.31"/>
        <path d="M258.66 350.8v-17.87c-10.63.14-17.72-10.5-17.72-21.26l-35.43.14c0 10.7-7 21.3-17.7 21.3v17.7h70.9z" transform="matrix(1.5 0 0 1 -15.6 53.1)" stroke-width="1.31"/>
        <path stroke-width="1.36" d="M296.1 343.7h45.5v21.26h-45.5zm3.78-21.26h37.92v21.26h-37.92zm0-21.26h37.92v21.26h-37.92zm3.8-28.35H334v28.35h-30.33z"/>
        <path stroke-width="1.41" d="M302.36 248.03h32.95v24.8h-32.9z"/>
        <ellipse transform="translate(75.3 63.8)" cx="237.4" rx="42.52" cy="161.22" ry="33.66" stroke-width="1.31"/>
        <path d="M333.96 223.25c0 9.3 10.63 24.8 10.63 24.8-7.7 6.1-20.2 10.63-31.9 10.63s-26.4-2.53-31.9-10.63c0 0 10.6-15.5 10.6-24.8S280.8 202 280.8 202c7.7-6.1 20.17-10.64 31.9-10.64 11.74 0 24.2 4.54 31.9 10.63 0 0-10.64 11.9-10.64 21.2z" stroke-width="1.31"/>
        <path d="M326.88 223.25c0 9.3 10.63 28.35 10.63 28.35-7.7 6.1-13 7.08-24.8 7.08s-19.2 1.02-24.8-7.08c0 0 10.7-19.06 10.7-28.35s-10.6-24.8-10.6-24.8c7.7-6.1 13.1-7.1 24.8-7.1 11.8 0 17.1 1 24.8 7.1 0 0-10.6 15.5-10.6 24.8z" stroke-width="1.31"/>
        <ellipse transform="translate(75.3 60.2)" cx="194.88" rx="10.63" cy="166.54" ry="10.63" stroke-width="1.31"/>
        <ellipse transform="translate(163.2 60.2)" cx="194.88" rx="10.63" cy="166.54" ry="10.63" stroke-width="1.31"/>
        <ellipse transform="translate(119.3 60.2)" cx="194.88" rx="10.63" cy="166.54" ry="10.63" stroke-width="1.31"/>
        <ellipse transform="translate(119.3 24.8)" cx="194.88" rx="10.63" cy="166.54" ry="10.63" stroke-width="1.31"/>
        <ellipse transform="matrix(1.1 0 0 1 79.9 226.8)" cx="194.88" rx="10.63" cy="166.54" ry="10.63" stroke-width="1.31"/>
        <ellipse transform="matrix(1.1 0 0 1 140.6 226.8)" cx="194.88" rx="10.63" cy="166.54" ry="10.63" stroke-width="1.31"/>
        <path d="M212.6 311.8h49.6l-24.8 31.9-24.8-31.9z" transform="matrix(1.1 0 0 1 64.8 53.1)" stroke-width="1.31"/>
        <ellipse transform="matrix(1.4 0 0 1.3 40.7 167.7)" cx="194.88" rx="10.63" cy="166.54" ry="10.63" stroke-width="1.31"/>
      </g>
      <g fill-rule="evenodd" transform="matrix(.2 0 0 .2 18.8 -19.1)" fill="#fff">
        <rect rx="4.35" ry="3.69" height="21.26" width="81.5" y="524.41" x="262.2" stroke-width="1.23"/>
        <path d="M368.5 506.7c-9.8 0-17.7 8.25-17.7 18.5v16.12c0 10.26 7.9 18.52 17.7 18.52 9.82 0 17.73-8.26 17.73-18.52v-16.1c0-10.27-7.9-18.53-17.72-18.53zm0 7.08c-5.88 0-10.62 6.6-10.62 14.8v9.36c0 8.2 4.74 14.8 10.63 14.8 5.9 0 10.7-6.6 10.7-14.8v-9.35c0-8.2-4.7-14.9-10.6-14.9zm-92.12-3.54c-5.9 0-10.63 6.6-10.63 14.82v16.43c0 8.2 4.74 14.8 10.63 14.8 5.9 0 10.63-6.6 10.63-14.8V525c0-8.2-4.7-14.82-10.6-14.82zm0-7.1c-9.8 0-17.72 8.27-17.72 18.53v23.2c0 10.26 7.9 18.52 17.72 18.52 9.8 0 17.72-8.3 17.72-18.6v-23.2c0-10.3-7.9-18.5-17.72-18.5z" stroke-width="1.23"/>
        <path d="M248.03 517.32c-5.9 0-10.63 6.6-10.63 14.82V536c0 8.2 4.74 14.82 10.63 14.82 5.9 0 10.63-6.6 10.63-14.82v-3.86c0-8.2-4.74-14.82-10.63-14.82zm0-7.1c-9.8 0-17.72 8.27-17.72 18.53v10.63c0 10.26 7.9 18.52 17.8 18.52 9.8 0 17.7-8.26 17.7-18.52v-10.63c0-10.26-7.9-18.52-17.7-18.52z" stroke-width="1.23"/>
        <path d="M478.35 237.4c-5.9 0-10.63 6.6-10.63 14.82v16.43c0 8.2 4.74 14.8 10.63 14.8 5.9 0 10.63-6.6 10.63-14.8v-16.43c0-8.2-4.74-14.82-10.63-14.82zm0-7.1c-9.8 0-17.72 8.27-17.72 18.53v23.2c0 10.26 7.9 18.52 17.72 18.52 9.8 0 17.72-8.26 17.72-18.52v-23.2c0-10.26-7.9-18.52-17.72-18.52z" transform="matrix(1.8 0 0 1.1 -655.5 242.2)" stroke-width=".87"/>
        <path d="M478.35 237.4c-5.9 0-10.63 6.6-10.63 14.82v16.43c0 8.2 4.74 14.8 10.63 14.8 5.9 0 10.63-6.6 10.63-14.8v-16.43c0-8.2-4.74-14.82-10.63-14.82zm0-7.1c-9.8 0-17.72 8.27-17.72 18.53v23.2c0 10.26 7.9 18.52 17.72 18.52 9.8 0 17.72-8.26 17.72-18.52v-23.2c0-10.26-7.9-18.52-17.72-18.52z" transform="matrix(1.8 0 0 1.1 -425.2 245.7)" stroke-width=".87"/>
        <rect rx="2.27" ry="3.69" height="21.26" width="42.52" y="524.41" x="375.59" stroke-width="1.23"/>
        <rect rx="1.32" ry="4.92" height="28.35" width="24.8" y="520.87" x="336.61" stroke-width="1.23"/>
        <rect rx="1.32" ry="4.92" height="28.35" width="24.8" y="520.87" x="219.69" stroke-width="1.23"/>
        <rect rx="2.65" ry="6.14" height="35.43" width="49.61" y="517.32" x="141.73" stroke-width="1.23"/>
        <rect rx="2.46" ry="6.14" height="35.43" width="46.06" y="520.87" x="450" stroke-width="1.23"/>
      </g>
    </g>
  </g>
</svg>
