<svg xmlns="http://www.w3.org/2000/svg" height="480" width="640" viewBox="0 0 640 480">
  <defs>
    <clipPath id="a">
      <path d="M-15-7.5h30v15h-30z"/>
    </clipPath>
  </defs>
  <path d="M0 0h640v480H0z" fill="#00247d"/>
  <g clip-path="url(#a)" transform="matrix(21.3 0 0 21.3 320 160)">
    <circle r="20" fill="#00247d"/>
    <path d="M-20-10l40 20m-40 0l40-20" stroke="#fff" stroke-width="3"/>
    <path d="M-20-10l40 20m-40 0l40-20" stroke="#cf142b" stroke-width="2"/>
    <path d="M0 0l20 10h-3L-3 0m3 0l20-10h3L3 0M0 0l-20 10h-3L-3 0m3 0l-20-10h3L3 0" fill="#fff"/>
    <path d="M-20 0h40M0-10v20" stroke="#fff" stroke-width="5"/>
    <path d="M-20 0h40M0-10v20" stroke="#cf142b" stroke-width="3"/>
  </g>
  <path d="M409.94 310.38c-9.17 7.76-17.92 19.1-20.05 29.35-6.1 28.85-14.1 35.27-26.5 29.06 0 15.4 13.6 16.6 19.5 7.6 0 14.5 5.2 27.1 17.1 37.8 5 4.5 5.9 1.4 3.6-3.6-2.4-5-2.4-21.2-7.2-30.5 7.6 5.5 18.8 2.4 17.8-12.7-9.8 5.7-19.5 5.5-20.5-8.1-1.2-16 5-39.1 16-49.1zm-11.58-114.75c.64-5.72-.58-11.6-4.76-15.28-8.1-7.12-16-4.75-21.9.96-8.8-4.7-13.5 12.2-23.5 9.3 1.67 5.5 4.3 7.9 9.3 6-5.24 4.8 0 10.5-6.18 16.2 11.18 3.6 17.15-2.6 16.66-13.3 4.3 3.9 10.96 3.6 14.53-.7-5.9-1.9-5.9-7.1-3.5-11.9 3.6-7.1 20.4-6.8 19.4 8.9z" fill="#f7e017" stroke="#000" stroke-width=".63"/>
  <path d="M424.2 278.5c-12.62 6.66-35.74 3.8-37.87-12.62-2.14-16.43 13.82-23.83 18.1-25.96 6.7-3.35 11.9 2.6 9.78 9.5a10.82 10.82 0 0 0 5.5-16.2c9.8.72 18.9-6.66 22.7-17.13-3.4 3.2-12.7 1-20.4.5 2.4-2.6 2.4-7.7 1.7-10.3-8.1 8.3-19.8 4.5-35.3 28.6 2.4-8.4 6.9-25.1 9.6-36a27.1 27.1 0 0 0 .6-3.3c.9-15.8-15.8-16-19.4-8.9 3.9 4.4 1.9 9.6.5 17.4-1.6 9.3-5.2 30.7-8.3 37.9-.9-11.2-8.3-11.9-9.8-17.4-2.1 1.4-3.3 5.2-2.8 7.8-2.6-2.9-11.6.7-15-3.6-3.6 7.1 2.2 14.3 8.1 17.4-3.4.2-4.3 4.4-8.1 4.4 5.2 5.9 10.4 8.3 16.5 8.8s10.6 2.7 14.3 10.1c6 11.9 28.7 19.6 50.1 8.8z" fill="#337321" stroke="#000" stroke-width=".63"/>
  <path d="M455.66 263.96c-7.15 19.77-26.7 33.85-35.52 36-15 3.6-45.6 18.48-53.8 26.12" fill="#f7e017" stroke="#000" stroke-width=".63"/>
  <path d="M409.94 310.38c-11.3 9.6-17.2 33.15-16 49.13.32 4.5 1.58 7.5 3.46 9.3.85-9 7.14-32.4 23.23-42.9 13.57-8.8 34.77-28.5 42.65-51.2-1.43-4-3.82-6.9-8.35-9.7-7.78 21.4-28.7 31.6-45 45.5z" fill="#337321" stroke="#000" stroke-width=".63"/>
  <path d="M448.4 254.8c-4.05 6.06-13.22 14.4-22.03 17.75 1.9-2.15 2.5-4.9 2.6-7.16-11.2 4.3-33.58 3.8-42.65.4A58.18 58.18 0 0 0 444 248.7c1.9 2.13 3.55 4.05 4.4 6.08z" fill="#316d3a" stroke="#000" stroke-width=".63"/>
  <path d="M362.73 304.7c-18.2 17.07-6.2 31.94.96 35.27-2 11.9 9.3 10.47 9 20.48 4.5-2.63 5.7-9.52 5-15 5.7 6.2 20.3-.72 23.3 10.7 1.9-12.62-7.9-25.25-20-24.05 5-4.53 2.1-11.9-2.6-13.8-1 9.27-11.5 9.27-15.5 6.4-4.1-2.84-7.4-12.14-.3-20z" fill="#337321" stroke="#000" stroke-width=".63"/>
  <path d="M402.18 413.1c-2 1.13-1.84 3.7-.6 5.35 2.5 3.33-1.75 10.88 6.3 12.5 2.4.5 4.24-.98 5.13-3.7 2.6-7.5-5.4-8.3-6.1-11.9-.7-3.57-3-3.2-4.6-2.25z" fill="#f7e017" stroke="#000" stroke-width=".63"/>
  <path d="M408.96 427.16c-2.67 1.23-5 2.98-3.92 11.54.42 3.56.2 12.16-2.86 12.3 1.9.93 5.95 1.95 7.6-.27 1.6 2.7 5.26 1.92 6.7-1.43 1.9 1.56 4.5-1.07 4.5-3.33 1.68 1.07 5-.47 4.17-5.6 2.03.72 4.65-.7 5.6-2-2.97-.6-10.48-4.66-12.27-7.88-1.78-3.2-6.43-4.8-9.52-3.4z" fill="#f7e017" stroke="#000" stroke-width=".63"/>
  <path d="M367.68 186.22c1.22-1.8 2.56-3.46 4.05-4.9M413 217.74c2.15-1.2 5.33-1.35 8.87-1.1M409.8 450.72c-.84-1.17-1.12-6.2-.54-9.22m7.2 7.82" stroke-width=".64" fill="none" stroke="#000"/>
  <path d="M535 304.94c29.3 24.53 31.2 44.07 26.68 55.5-2.38-10.7-14.52-27.38-27.15-31.67l.47-23.83z" fill="#f7e017" stroke="#000" stroke-width=".63"/>
  <path d="M482.58 291.14h54.34v64.32c0 54.78-30.5 87.2-61.48 104.34-30.98-17.13-61.47-49.56-61.47-104.34v-64.32h38.13c.06 3.32.36 8.32 4.26 13.33 9-.9 19.2-7.62 26.24-13.33z" fill="#337321" stroke="#000" stroke-width=".63"/>
  <path d="M536.9 291.14v64.32c0 16.53-2.78 31.04-7.5 43.7l-53.94-99-53.96 99" fill="#006ec7" stroke="#000" stroke-width=".63"/>
  <g fill="#f7e017" stroke="#000" stroke-width=".64">
    <path d="M499.97 429.65c1.43.73 4.05 2.05 5.25 2.52 2.85-5.72 3.35-13.8 2.4-20.97-3.1 7.9-13.6 7.64-16.44 12.4 1.75.87 3.37 2.02 4.78 3.04-3.56 3.57-11.95 9.6-16.7 11v-51.08c0-3.58-1.2-6.55-1.2-9.54v-10.56c0-2.4-.47-5.84-2.63-5.84-2.15 0-2.6 3.45-2.6 5.84v10.56c0 3-1.2 6.43-1.2 9.54v51.1c-2.62-7.62-12.88-5.02-17.64-12.64a13.53 13.53 0 0 1 5.7-.23c-3.6-12.2-13.4-13.1-15.3-16.7 0 5-2.2 16.7 1.1 21.7a13.27 13.27 0 0 1 3.2-2.7c4 8.8 22.2 8.8 26.5 23.3 3.4-5.4 15.8-11.5 24.5-20.9z"/>
    <path d="M475.44 387.14c4.05 0 16.9-1.33 21.54-1.33 1.22 0 2.22-1.7 2.22-4s-1-4-2.2-4c-4.65 0-17.5-1.3-21.54-1.3s-16.94 1.3-21.6 1.3c-1.2 0-2.17 1.8-2.17 4.1s.9 4.1 2.1 4.1c4.6 0 17.5 1.3 21.5 1.3zm-2.6-20.93"/>
    <path d="M453.9 385.8c1.2 0 2.18-1.78 2.18-4.02s-.98-4.05-2.2-4.05"/>
    <path d="M455.68 385.8c1.22 0 2.2-1.78 2.2-4.02s-.98-4.05-2.2-4.05m11.76 8.9c1.47 0 2.64-2.16 2.64-4.85 0-2.7-1.17-4.88-2.65-4.88m2.76 9.98c1.5 0 2.7-2.28 2.7-5.12 0-2.8-1.3-5.08-2.8-5.08m9.1 10.24c1.5 0 2.7-2.3 2.7-5.14 0-2.86-1.3-5.16-2.8-5.16m2.9 10.15c1.5 0 2.8-2.24 2.8-5s-1.3-4.98-2.8-4.98m12.8 9.1c1.2 0 2.2-1.9 2.2-4.2s-1-4.1-2.2-4.1m-46.2 49.5a18.13 18.13 0 0 1 5.1-2.2m43.4 2.6l-1.4-1m4 3c3.3-3.6 6.1-7.6 7.6-12.3"/>
  </g>
  <g stroke="#000" stroke-width=".64">
    <path d="M464.53 336.6c0-1.16.94-1.67 2.07-2.5 1.32-1 1.88-1.5 3.1-1.5h15.63c1.16 0 1.43.3 1.43 1.37v21.27c0 1.07-.27 1.37-1.43 1.37h-20.8v-20.1" fill="#fff"/>
    <path d="M481.47 358.46c2.05 0 1.7-.04 3.12-1.5 1.4-1.48 1.3-1.35 1.3-2.74v-19.44c0-1-.3-1.28-1.3-1.28h-14.4c-1.2 0-1.7.43-2.9 1.4-1.1.78-1.9 1.25-1.9 2.34v21.22h16.1z" fill="#e5e5e5"/>
    <path d="M483 358.02c0 1.06-.27 1.36-1.44 1.36h-15.64c-1.15 0-1.4-.3-1.4-1.36v-21.27c0-1.07.25-1.37 1.4-1.37h15.64c1.17 0 1.43.3 1.43 1.37v21.27z" fill="#fff"/>
  </g>
  <path d="M513.32 278.68c3.05 3.4 4.06 7.96 2.4 12.44h-4.53c1.9-5.72.7-11.18-7.4-11.9-12.1-1.08-26.2 22.4-47.5 25.25-6.2-7.38-5.9-21.46 2-28.12-4.1-11.73-12.7-24.62-18.6-30.2" fill="#96877d" stroke="#000" stroke-width=".63"/>
  <path d="M460.46 284.93C459.4 269 453 255.96 444 247.03c4.26 1.18 13.1 1.18 19.04-3.1 7.87-5.23 28.35-14.4 35.84-10.48a11.7 11.7 0 0 1 .5 6.2c-1.8-4.77-21.56 2.6-27.17 4.9-5.3 2.5-7.7 5.82-5.8 13.33-3.1-2.63-2-5.12-5.2-7.04 1.3 3.1 2.4 8.7 2.8 13.22-1.2-3.15-3.3-10.1-8-14.14 4.1 7.85 7.6 26.73 5.9 36.74 3.2 0 10.3-3.16 13.2-5.42-2.5 3.58-9.7 6.08-14.3 7.04-2 2.5-3.5 8.92-3.4 12.5-.3-4.42 1.1-15.15 3.3-15.85zm52.86-6.25c-3.94-4.4-11.3-6.8-20.73-4.23 1.4-.72 4.5-1.92 7.2-2.4-.4-2.48-2.6-13.2-3-15.82l2.6-1.06c1.3 6.4 3 13.8 4 16.8.8.2 2.7.58 4.4 1.42-.8-2.6-4.8-20.5-4.7-22.4l3.6-2c1.4 9.7 3.7 23.9 6.4 29.6z"/>
  <path d="M511.2 291.1c1.9-5.7.7-11.16-7.4-11.9-6.3-.54-13.1 5.56-21.16 11.92h28.55zm-52.66-51.3" stroke-width=".64" fill="#96877d" stroke="#000"/>
  <path d="M458.4 276.35c1.3 3.8 2.17 7.47 2.3 10.73m-13.13-58.24c-2.13 3.14-4.03 6.53-4.65 9.4 4.06 1.3 12.03 2.02 15.62 1.55" fill="none" stroke="#000" stroke-width=".63"/>
  <path d="M439.8 246.16c1.52.26 2.97.56 4.2.88 4.28 1.2 13.1 1.2 19.06-3.1 5.97-4.28 22.14-17.6 40.5-19.04" fill="none" stroke="#000" stroke-width=".63"/>
  <path d="M435.05 242.05c5.72 1.2 17.52 1.8 23.47-2.26 13.82-9.5 27.16-14.9 40.5-15.7" fill="none" stroke="#000" stroke-width=".63"/>
  <path d="M535 304.94c20 13.82 34.77 27.16 39.08 48.62 4.27 21.44 12.37 27.16 22.4 21.44-2.4 12.37-14.78 13.8-25.26 4.26.96 14.3-4.78 31.47-19.54 37.66-.96-8.58 4.7-15.36 3.1-22.4-.7-3.1-.95-10.24 3.1-13.57-7.86 2.62-20.26-2.4-21.45-14.06 9.06 4.2 20.73 5 25.25-6.5 4.53-11.5 2.63-31-26.66-55.6zm25.26-111.5c6.18-16.2 22.4-14.52 27.86-7.6 15.98-9.07 18.13 11.43 31.7 7.38-.26 3.8-4.78 7.38-9.77 7.14 5.23 4.76-2.13 11.9 9.04 16.22-9.6 4.75-22.9-.26-26.5-13.36-3.1 6.2-14.3 6.2-18.8 1.2 9.7-2.63 9-11.7 3.6-15.26-5.6-3.6-15.3-2.13-17.2 4.27zm-48.32 35.68c4.43 14.34 13.65 27.67 23.55 36.76 11.4 10.47 28.6 7.85 38.3-2.14.2 19.95-20.5 21.5-32 15.24-5.1-2.78-9.2-1.3-4.3 3.1 7.3 6.67 23.5 11.62 42.6 15.7 33.3 7.16 21.4 33.6 11.6 33.38 2.8-.06 5.1-3 1.1-6.62-29-26.02-87.8-15.78-86.9-73.92-6.2 15.26-31.7 9.3-19.8-8.8 3.8 3.1 10.5 3.32 12.3-1.44 1.5-3.7.5-10.15-6.1-15.7 1.1-.1 3.4 0 3.2-2.73.3 1.6 1.7 4 5.5 3.2 1 1.7 2.2 2.8 3.7 2.2.3-.13 1.2-.58.8-2.28.3 3.15 4 4.3 6 4.05z" fill="#337321" stroke="#000" stroke-width=".63"/>
  <path d="M541.9 278.98c13.83 9.04 29.45 9.04 43.85-7.62 4.52-5.25 11.67-9.77 16.68-10.24 5-.5 4.76-5.25 8.58-6.2-2.3-.7-3.3-3.57-6.9-3.23 9-3.1 6.3-10.3 10.8-13.7-3.6 1.3-9.2-4.1-14.3 2.7 1.3-3.1-.5-6.8-1.8-8.3.5 3.6-7 4.3-8.4 13.3-.8 5-3.5 4.7-4-3.1-.3-5.8-3.1-21.7-6.4-29.8-3.3-8.2-4.1-19.3.4-21m-33.6 234.4c3 1.4 5.5 3.5 3.9 13-.6 3.9-.8 13.5 2.7 13.8-2.2.9-6.7 1.9-8.5-.6-1.9 2.9-5.9 1.9-7.4-1.9-2.2 1.6-5-1.4-4.9-4-1.9 1.1-5.5-.8-4.4-6.4-2.3.7-5.1-1-6.2-2.5 3.4-.6 12-4.8 14.1-8.3 2.2-3.5 7.4-5.1 10.8-3.3z" fill="#f7e017" stroke="#000" stroke-width=".63"/>
  <path d="M544.73 452.67c.98-1.28 1.53-6.87 1-10.28m-8.4 8.4a15.74 15.74 0 0 0 5.07-8.2m-9.96 4.2c1.88-.8 6.63-6.5 7.78-10.2m-12.2 3.8c2.22-.4 9.1-4.5 12.08-9.1" stroke-width=".64" fill="none" stroke="#000"/>
  <path d="M506.18 250.62c-.4 24.43 9.75 36.78 23.8 44.82-5.22-3.13-2.96-13.86-10-17.3 1.68-.12 4.3 2.27 8.47 1.3-2.03-4.52-5.36-11.43-13.1-12.37 2.03-.23 6.42.47 9.28-.6-4.05-6.18-14.76-3.22-18.45-15.85zm-2.54-23.2c-.86-.3-1.6-1.16-2.3-2.3-3.76.82-5.2-1.57-5.5-3.2.2 2.78-2.14 2.66-3.25 2.74 6.7 5.55 7.6 12 6.1 15.72-1.9 4.76-8.6 4.53-12.4 1.43-.5 10.2 12.6 13.5 17.3.8 0 2.2 2.7 1.9 3.4 4.8 3.4-5.5.8-13.3-3.6-19.9z" fill="#f7e017" stroke="#000" stroke-width=".63"/>
  <path d="M487 150.68c-.1-2.14 3.62-4.93 8.64-4.9 6 .08 10.66 5.56 15.46 5.03 4.8-.5 2.46 2.2 1.43 2.9-1 .7-1.6 1.8-1.23 3.1.36 1.3-.26 2.2-2.2 1-4.3-2.7-8.6 1.1-14.25-1-4.9-1.8-7.75-2.7-7.85-6z" fill="#cf142b" stroke="#000" stroke-width=".64"/>
  <path d="M462.46 206.9c-2.4-7.5-11.43-15.7-15.85-17.63l-.2-4.05c2.4-.94 8.1-5.46 10.8-7.98 17.9 8.57 42.2-3.57 53.4-16.2l4.3 2.63-2.1 2.86-2.2-1.2c-2.8 3.33-13 12.97-16.1 14.98 4.2 1.1 9.9 1.8 11.5 1.8 10-7.1 17.9-13.6 21.7-14.1l3.2 4.3-2.8 2.1-2.2-1.3c-10.7 8.9-22.8 28.2-27.6 41-6.7-1.4-30.5-.5-35.4-7z" fill="#96877d" stroke="#000" stroke-width=".64"/>
  <path d="M463.4 204.3c-1.6-8.9.96-18.72 5.5-21.7 9.88 6.56 26.8 6.56 36.8-.58" fill="none" stroke="#000" stroke-width=".64"/>
  <path d="M463.4 199.64c7.64-.22 24.2 1.06 28.25 1.66 4.05.6 10.84 2.26 9.88 4.3m-34.6-7.22l2.2-2.2-2.2-2.18-2.18 2.18 2.17 2.2z" fill="none" stroke="#000" stroke-width=".64"/>
  <path d="M472.1 154.03c-2.72-3.84-10.28-5.04-11.9.1-.72 2.26-1.8 4.65-3.58 5.72-1.77 1.07-1.37 4.33-.58 5.72 1.9 3.45.22 6.78 3.93 9.06 0-2.75 4.05-5.6 7.5-6.3 3.46-.74 8.7-3.83 9.4-7.26.72-3.48 1.9-6.34-4.76-7.04z" fill="#337321" stroke="#000" stroke-width=".64"/>
  <path d="M454.93 188.33h.96v6.5c.2.07.4.18.5.3l5.6-3.24.5.8-5.7 3.2a1.7 1.7 0 0 1 0 .6l5.6 3.2-.5.8-5.6-3.3" fill="#96877d" stroke="#000" stroke-width=".64"/>
  <path d="M450.67 215.02c-.7-.86-2.03-3.12-1.92-4.78a6.2 6.2 0 0 1 4.05 1.56c-.1-1.2-.58-3.82-.34-5.02 1.3.5 4.05 2.03 5 3.82" fill="#337321" stroke="#000" stroke-width=".64"/>
  <path d="M490.54 151.9c-.04-.86 1.92-2.87 5.42-2.84 4.2.02 8.1 3.1 11.48 2.9 3.37-.22 1.7.85 1 1.15-.7.3-1.13.8-.88 1.3.26.6-.2.9-1.53.4-3-1.1-6.02.5-10-.4-3.4-.7-5.4-1.1-5.5-2.4z" fill="#f7e017"/>
  <g stroke="#000" stroke-width=".64">
    <path d="M454.36 222.16c-3.56 4.27-7.15 3.57-7.85.84-.7-2.76 2-4.06 1-6.45-.9-2.4 1.6-3.45 2.8-2.4 1.2 1.08 5-2.35 6.7 1.2 1.7 3.6 3 6.1 2 7.52-.9 1.43-3.8.72-4.5-.7zm15.36-6.44c-.68-1.56 3.03-4.58 4.93-2.43 1.92 2.1 4.9-2.4 6.57 1 1.66 3.4 2.2 5.2 3.03 7.1.85 1.9-4.53 2.9-6.2 1.2.22 1.1-4.62 2-5.96-1.2l-2.4-5.8zm24.8 1.96c-.9-1.66 3.44-4.05 5.7-1 .6-1.26 4.9-1.5 5.2 2.14.3 3.62.42 5.78.52 7.2.1 1.44-2.6 2.74-4.58-.9-3.5.74-5.12-1.23-5.55-3.32-.4-2.1-.8-3.1-1.2-4.12z" fill="#f7e017"/>
    <path d="M456.66 215.32c-.53-1.2 3.05-3.6 5.48-1.8 2.46 1.8 5.83-1.55 7.26 1.67 2.92 6.4 3.1 6.9 2.22 8.2-.9 1.2-4.7.7-5.66-1-.2 1.2-3.48 1-5.18 0-1.96-1.1-3.35-5.1-4.12-7.2zm25.1.28c-.86-1.84 4.75-3.44 7.18-.22 1.26-1.15 4-1.2 5.55 2.3 1.5 3.52 1.7 5.5.6 6.38-.8.64-3.7 1.13-4.7-.47-1.4.8-5.4.1-6.3-2.2-.9-2.3-1.7-4.3-2.5-5.9zm23.7 3.52c-.12-1.67 2.9-2.44 4.04 0 1.13 2.43 4.76.25 5.08 4.28.04.77-.43 3.76-1.56 5.2-1.13 1.42-6.67 0-7.04-3.04" fill="#337321"/>
    <path d="M454.36 222.16c-1.3-1.8-3.1-4.65-5.36-1.55m16.98 1.9" fill="none"/>
  </g>
</svg>
