<svg xmlns="http://www.w3.org/2000/svg" height="480" width="640" viewBox="0 0 640 480">
  <path fill="#ee1c25" d="M0 0h640v480H0z"/>
  <path fill="#0b4ea2" d="M0 0h640v320H0z"/>
  <path fill="#fff" d="M0 0h640v160H0z"/>
  <path d="M233 370.8c-43-20.7-104.6-62-104.6-143.2 0-81.4 4-118.4 4-118.4h201.3s4 37 4 118.4S276 350 233 370.8z" fill="#fff"/>
  <path d="M233 360c-39.5-19-96-56.8-96-131.4 0-74.7 3.6-108.6 3.6-108.6h184.8s3.5 34 3.5 108.6c0 74.7-57 112.4-96 131.4z" fill="#ee1c25"/>
  <path d="M241.4 209c10.7.2 31.6.6 50.2-5.6 0 0-.5 6.6-.5 14.4 0 7.7 1 14.4 1 14.4-17-5.7-38-5.8-50-5.7v41.2h-17v-41.2c-12 0-33 0-50 5.7 0 0 .4-6.7.4-14.4 0-7.8-.4-14.4-.4-14.4 18.4 6.2 39.3 5.8 50 5.6v-26c-9.8 0-23.8.5-39.7 5.8 0 0 .3-6.6.3-14.4 0-7.7-.5-14.3-.5-14.3 16 6 30 6 39.7 6-.5-16-5.3-37-5.3-37s10 1 13.8 1c4 0 14-.6 14-.6s-5 20.6-5.4 37c9.7 0 23.7-.3 39.6-5.6 0 0-.3 6.7-.3 14.4 0 8 .5 14.5.5 14.5-16-5-30-5.6-39.6-5.5v26z" fill="#fff"/>
  <path d="M233 263.3c-20 0-30.5 27.5-30.5 27.5s-6-13-22.2-13c-11 0-19 9.7-24.2 18.8 20 31.7 52 51.3 77 63.4 25-12 57-31.7 77-63.4-5-9-13-18.8-24-18.8-16 0-22 13-22 13s-11-27.5-31-27.5z" fill="#0b4ea2"/>
</svg>
