<svg xmlns="http://www.w3.org/2000/svg" height="480" width="640" viewBox="0 0 640 480">
  <defs>
    <clipPath id="a">
      <path fill-opacity=".67" d="M-85.33 0h682.67v512H-85.33z"/>
    </clipPath>
  </defs>
  <g clip-path="url(#a)" transform="matrix(.9 0 0 .9 80 0)">
    <path fill-rule="evenodd" fill="#3e5eb9" d="M-128 0h768v512h-768z"/>
    <path fill-rule="evenodd" fill="#ffd900" d="M-128 91.43h768v329.14h-768z"/>
    <path fill-rule="evenodd" fill="#b10c0c" d="M-128 128h768v256h-768z"/>
    <rect fill-rule="evenodd" rx="5.77" ry="5.85" height="10.97" width="621.71" stroke="#000" y="250.51" x="-51.44" stroke-width="1.47" fill="#ffd900"/>
    <g stroke="#000" transform="translate(-757 -25.6)">
      <path d="M1224.9 216.13l-26.56 10.62 26.57 10.64 26.6-10.7L1225 216z" fill-rule="evenodd" stroke-width="1.25" fill="#fff"/>
      <rect fill-rule="evenodd" rx="4.11" ry="3.78" height="7.09" width="442.91" y="223.23" x="761.81" stroke-width="1.33" fill="#ffd900"/>
      <path d="M1194.1 230.36c1.77 0 3.55-1.77 3.55-3.55s-1.78-3.5-3.55-3.5" stroke-width="1.33" fill="none"/>
      <path d="M1190.6 230.36c1.77 0 3.55-1.77 3.55-3.55s-1.78-3.5-3.55-3.5m-3.6 7.1c1.77 0 3.55-1.7 3.55-3.5s-1.78-3.5-3.55-3.5" stroke-width="1.33" fill="none"/>
    </g>
    <g stroke="#000" transform="translate(-786.3 -3.7)">
      <path d="M1224.9 216.13l-26.56 10.62 26.57 10.64 26.6-10.7L1225 216z" fill-rule="evenodd" stroke-width="1.25" fill="#fff"/>
      <rect fill-rule="evenodd" rx="4.11" ry="3.78" height="7.09" width="442.91" y="223.23" x="761.81" stroke-width="1.33" fill="#ffd900"/>
      <path d="M1194.1 230.36c1.77 0 3.55-1.77 3.55-3.55s-1.78-3.5-3.55-3.5" stroke-width="1.33" fill="none"/>
      <path d="M1190.6 230.36c1.77 0 3.55-1.77 3.55-3.55s-1.78-3.5-3.55-3.5m-3.6 7.1c1.77 0 3.55-1.7 3.55-3.5s-1.78-3.5-3.55-3.5" stroke-width="1.33" fill="none"/>
    </g>
    <g fill-rule="evenodd">
      <path d="M338.07-.42c-5.57 12.45 4.28-4.13 28.3 16.7 4.45 3.86 8.34 14.08 8.34 21.17-1.1-.97-1.9-3.14-3.2-4.55-1.7 2.25 1.7 12.58 2.2 17.46-3.7-2.7-3.4-4-4.6-7.33.3 4.03-.6 15.12.9 19.4-2.9-1.1-2.7-4.17-4.3-4.8 1.1 4.84-.9 10.1-.4 15.54-1.7-2.2-3.6-3.94-4.4-4.83-.1 2.6-3.3 9.4-3.4 11.83-1.4-1.14-1.8-2.92-2.1-4.12-1.8 2.95-8.3 13.87-8.7 17.2-5-5.7-17.8-19.55-19.4-26.9-1.5 4.17-3.6 5.58-7.8 8.63-1.64-11.66-7.9-24.76-4.54-34.75-2.32 1.8-4.3 3.6-6.63 5.83 2.26-16.88 13.64-36.66 30-46.48z" transform="matrix(1 0 0 .8 190.4 252)" stroke="#000" stroke-width="1.42" fill="#3d5da7"/>
      <path d="M505.88 299.16c2.3-4.6 4.42-6.05 5.9-9 2.63-5.22 3-9.36 5.3-8.75 2.28.7 2.28 2.8-.7 7.9-2.95 5.1-4.36 6.2-10.5 9.9zm15.56 10.95c-.3-3.5.72-4.9.53-7.2-.3-3.9-1.94-6.7.17-6.8 2.1-.2 3.1 1.2 3.1 5.2s-.6 5.1-3.8 9zm11.8 6.9c-.92-4.9-.23-7-.82-10.2-1.03-5.5-3.06-9.2-1.1-9.7 1.95-.5 3.13 1.3 3.87 6.9.7 5.6.3 7.2-2 13zm12.27-34.2c-2.8-2.2-4.5-2.3-6.4-3.7-3.2-2.4-4.9-5.1-6-3.8-1 1.3-.3 2.8 3.2 5.1s4.6 2.5 9.3 2.5zm-2 16.3c-1.5-3.1-3.1-3.9-4.1-6-1.7-3.5-1.7-6.6-3.6-5.8-1.9.8-2 2.4 0 5.9s3.1 4.1 7.8 6z" fill="#a70000"/>
    </g>
    <g fill-rule="evenodd">
      <path d="M329.6 20.7c-.27-2.66.25-2.98-1.26-5 2.2 1 2.3 3.66 4.96 1.78.98-.55 1.4-.57.22-3.53 2.8.14 11.93 3.54 13.4 3.62 3.83.2 10.84-4.37 15.7 1.24 4.68 5.2 3.12 10.5 3.12 17.6-1.87-.9-.97-1.4-2.96-4 1.5 6.2-.08 17.4-.08 24-.77-1.6-.66-.9-1.4-2.5-2 6-4.4 7.3-4.4 14.3-.7-2.7 0-2.2-.8-3.6-1.95 4.6-14.94 8.5-9.93 13.1-4.52-2.87-6.5-2.57-8.55-5.15-.88.6-1.58 1.8-2.4 3.4-7.95-3.96-5.1-12.5-11.33-18.2-1.1 2.4-.6 2.03-1.8 5.93-1.3-5.4-1.6-8.8-3-12.8-1.2 2.2-1.1 1.38-3.4 4.7-1-6.6-2.5-8.13-1.9-12.5-2.4 1.8-.8 1.08-3.2 3.3C312.8 29.48 322.4 17 329.4 21z" transform="matrix(1.1 0 0 1 -399.4 239.2)" stroke="#000" stroke-width="1.42" fill="#3d5da7"/>
      <path d="M-35.7 289.8c2.32-5.7 4.42-7.5 5.92-11.16 2.66-6.46 3.1-11.62 5.32-10.83 2.23.8 2.2 3.5-.8 9.8-2.97 6.4-4.37 7.7-10.45 12.2zm8.8 14.27c.94-5.1 2.4-6.97 3.02-10.27 1.07-5.8.47-10.1 2.55-9.87 2.07.22 2.54 2.4 1.16 8.17-1.38 5.76-2.33 7.13-6.72 11.97zm10.55 9.92c.26-5 1.42-6.9 1.6-10.1.3-5.6-.77-9.7 1.2-9.7 1.98-.1 2.7 2 2.08 7.6-.6 5.6-1.34 7-4.88 12.1zm22.63-32.5c-4.33-4.3-6.94-5.1-9.74-7.9-4.9-4.9-7.3-9.5-9.04-7.8-1.75 1.6-.7 4 4.48 8.6 5.18 4.6 6.98 5.3 14.3 7zm-2.63 16.7c-2.82-4.4-4.9-5.5-6.7-8.3-3.22-4.9-4.32-9.1-6.14-8.1-1.8 1-1.4 3.2 2.1 8 3.5 4.7 4.9 5.6 10.8 8.3z" fill="#a70000"/>
    </g>
    <g fill-rule="evenodd">
      <path d="M637.8 230.32c-53.15 59.05-124.02 177.16-265.75 177.16-124.02 0-212.6-118.1-265.75-177.16 53.15-59.06 141.73-177.17 265.75-177.17 141.73 0 212.6 118.1 265.75 177.17z" transform="matrix(.7 0 0 .6 0 113.4)" stroke="#000" stroke-width="2.11" fill="#fff"/>
      <path d="M243.23 184.44c9.73 10.95 1.6 15.36 11.9 16.08 10.87.8 4.7 11.56 13.85 11.93 6.38.28-.64 25.8 5.5 34.22 6.27 8.77 11.52 2.57 11.63 8.9.1 6.57-17 5.9-17.3 26.1-.5 11.65-14.5 12.4-15.1 19.9-.8 7.03 27.5 11 27.2 17.3-.4 6.3-30.6 5.3-31.9 12.47-.6 6.45 41.6 11.72 45 30.36-6.3 2.06-24.2 4-37.74 4-85.32.07-146.3-73.14-182.85-109.7 36.56-36.58 97.5-109.72 182.86-109.72 0 0-25.32 23.15-12.76 38.17z"/>
      <path d="M141.4 217h8.87v29.25h-8.86zm0 48.75h8.87V295h-8.86zM159.15 217H168v29.25h-8.86zm0 48.75H168V295h-8.86zM176.87 217h8.86v29.25h-8.86zm0 48.75h8.86V295h-8.86zM194.6 217h8.87v29.25h-8.87zm0 48.75h8.87V295h-8.87zM212.33 217h8.87v29.25h-8.87zm0 48.75h8.87V295h-8.87zM230.06 217h8.87v29.25h-8.87zm0 48.75h8.87V295h-8.87z" fill="#fff"/>
      <path d="M275.5 217h8.87v29.25h-8.87zm0 48.75h8.87V295h-8.87zM293.23 217h8.86v29.25h-8.9zm0 48.75h8.86V295h-8.9zM310.96 217h8.86v29.25h-8.86zm0 48.75h8.86V295h-8.86zM328.7 217h8.86v29.25h-8.87zm0 48.75h8.86V295h-8.87zM346.4 217h8.87v29.25h-8.88zm0 48.75h8.87V295h-8.88zM364.15 217h8.87v29.25h-8.87zm0 48.75h8.87V295h-8.87z"/>
    </g>
    <g fill-rule="evenodd">
      <path d="M338.07-.42c-5.57 12.45 9.75-4.13 33.78 16.7 4.45 3.86 10.83 19.15 10.83 26.24-5.1-1.26-14.17-7.1-14.17-7.1s10.7 12.3 10.7 26.48c-3.7-2.7-5.6-2.3-6.9-5.63 0 4.58 3.4 7.5 3.4 14.6-2.7-2.5-5-4.17-7.3-5.63 3.6 7.1-6.4 20.84-1.4 25.42-8.7-1.46-17.7-7.92-21.2-15-1.9 1.46-2.1 3.75-2.1 6.2.27.27-13.32-11.65-12.07-16.23-1.83 2.95-2.1 4.58-2.5 7.9-5-5.68-9.6-11.37-11.24-18.73-2.24 3.33-2.38 3.33-4.6 6.66-1.68-11.65-1.68-11.24 1.65-21.23-2.34 1.8-4.3 3.6-6.65 5.83 2.2-16.88 13.6-36.66 30-46.48z" transform="matrix(.9 0 0 .8 -110.6 166.1)" stroke="#000" stroke-width="1.42" fill="#3d5da7"/>
      <path d="M184.38 213.64c.8-6.75 2.57-9.3 3.1-13.64.94-7.65-.18-13.24 2.53-13.1 2.8.15 3.5 2.97 2.2 10.6-1.3 7.63-2.4 9.48-7.8 16.14zM198.5 226c-.55-5.7.5-8.1.15-11.78-.6-6.46-2.6-10.83-.23-11.24 2.36-.4 3.56 1.77 3.8 8.3.27 6.5-.37 8.24-3.72 14.73zm22.08 10.1c-2.4-4.94-4.46-6.4-6-9.58-2.75-5.58-3.32-10.13-5.43-9.3-2.12.82-2 3.18 1.05 8.64 3.05 5.45 4.43 6.57 10.38 10.23zm7.64-44.15c-6.12-3.22-9.26-3.26-13.2-5.33-6.94-3.63-10.98-7.73-12.42-5.47-1.43 2.25.48 4.5 7.64 7.8 7.15 3.3 9.35 3.45 17.98 3zm2.24 18.43c-4.46-3.7-7.1-4.25-9.96-6.63-5.06-4.18-7.58-8.3-9.27-6.63-1.7 1.67-.56 3.87 4.75 7.8 5.3 3.95 7.13 4.44 14.48 5.46z" fill="#a70000"/>
    </g>
  </g>
</svg>
