<svg xmlns="http://www.w3.org/2000/svg" height="480" width="640" viewBox="0 0 640 480">
  <g fill-rule="evenodd">
    <path fill="#f31930" d="M0 0h640v480H0z"/>
    <path d="M407 247.5c0 66.2-54.6 120-122 120s-122-53.8-122-120 54.6-120 122-120 122 53.8 122 120z" fill="#fff"/>
    <path d="M413 247.5c0 53-43.6 96-97.5 96s-97.6-43-97.6-96 43.5-96 97.4-96 97.6 43 97.6 96z" fill="#f31830"/>
    <path d="M430.7 191.5l-1 44.3-41.3 11.2 40.8 14.5-1 40.7 26.5-31.8 40.2 14-23.4-34 28.3-34-43.6 12-25.8-37z" fill="#fff"/>
  </g>
</svg>
