<svg xmlns="http://www.w3.org/2000/svg" height="480" width="640" viewBox="0 0 640 480">
  <defs>
    <clipPath id="a">
      <path fill-opacity=".67" d="M-85.33 0h682.67v512H-85.33z"/>
    </clipPath>
  </defs>
  <g clip-path="url(#a)" transform="matrix(.9 0 0 .9 80 0)">
    <path fill-rule="evenodd" fill="#ffe700" d="M-128 341.36h768v85.32h-768z"/>
    <path fill-rule="evenodd" d="M-128 256h768v85.32h-768z"/>
    <path fill-rule="evenodd" fill="#de3908" d="M-128 170.68h768V256h-768z"/>
    <path fill-rule="evenodd" fill="#ffe700" d="M-128 85.36h768v85.32h-768z"/>
    <path fill-rule="evenodd" d="M-128 0h768v85.32h-768z"/>
    <path d="M335.7 256c0 44.02-35.68 79.7-79.7 79.7s-79.7-35.68-79.7-79.7 35.68-79.7 79.7-79.7 79.7 35.67 79.7 79.7z" fill-rule="evenodd" stroke="#000" stroke-width=".99" fill="#fffdff"/>
    <path d="M241.94 194.9l-5.18-9.54c2-2 5.36-3.54 10.7-3.54 0 .36-.53 10.44-.53 10.44l-5 2.63z" fill-rule="evenodd" stroke="#000" stroke-width=".99" fill="#de3108"/>
    <path d="M246.93 192.35l.72-10.53s10.7-.63 16.52 6.36c.1-.1-5.72 8.17-5.72 8.17l-11.52-4z" fill-rule="evenodd" stroke="#000" stroke-width=".99" fill="#ffe700"/>
    <path d="M258.64 196.26l5.26-8.17c3.54 3.7 5 6.3 5.54 10.3.1.1-8.35 2.1-8.35 2s-2.4-4.1-2.5-4.2z" fill-rule="evenodd" stroke="#000" stroke-width=".99" fill="#de3108"/>
    <path stroke-linejoin="round" d="M244.57 331.15s9.9-11.34 29.14-8.9c-2.9-4.7-12.2-4.17-12.2-4.17s-2.9-22.06-.6-23.15 11.9.1 11.9.1c1.3 0 3.5-3.46 1.7-5.64-1.7-2.2-6.8-10.6-4.7-12.2 2.1-1.7 13.5.9 13.5.9l-32-41s-3.2-15.5 3.3-22.9c7.9-6.6 7.1-13.6 6.8-13.6-1.1-7.2-11.93-12.4-19.3-5.8-4.32 5.2-1.42 9.2-1.42 9.2s-11.45 3.1-11.9 5.1c-.45 2 12.9-.4 12.9-.4l-1.3 9.13s-25.97 23.6-6.1 44.02c.2-.1.64-.9.64-.9s7 8.6 14.34 10.5c6.9 7.1 6.3 6 6.3 6s1.35 11.15.1 13.33c-1.74-.55-19.35-1.2-22-.2-2.35.74-11.43.3-9.16 15.1l3.26-7.53s-.26 5.4 1.9 7.3c-.34-5.64 2.1-9.45 2.1-9.45s.46 6.16 1.8 7.06c1.4.9 1.4-10 8.9-9.08 7.55.9 13 .6 13 .6s2.5 21.36 1.7 23.36c-5.48-1.3-18.46.53-19.28 3.8 7.6-.48 11.2.43 11.2.43s-6.2 5.47-4.27 8.64z" fill-rule="evenodd" stroke="#000" stroke-linecap="round" stroke-width=".92"/>
    <path stroke-linejoin="round" d="M247.63 214.75s-18.9 20.82-10.74 36.76c.4-2.2.2-3.6.5-3.5-.5-.2 2.3 1.9 2.1 1.5 0-1.1-.9-3.6-.9-3.6l2.5.7-1.5-2.7 3.6.5s-1.3-3.4-.9-3.4 3 .2 3 .2c-5.4-9.62-.3-17.63 2.1-26.2z" fill-rule="evenodd" stroke="#9ca69c" stroke-linecap="round" stroke-width=".92" fill="#9ca69c"/>
    <path d="M254.2 196.9s1 7.16-2.9 9.25c-.65.45-3.1 1.27-2.74 2.72.46 2 1.54 1.63 3.1 1.27 4.07-.72 8.8-9.44 2.53-13.25z" fill-rule="evenodd" stroke="#9ca69c" stroke-width=".99" fill="#9ca69c"/>
    <path d="M247.2 203.06a1.54 1.54 0 1 1-3.08 0 1.54 1.54 0 0 1 3.08 0z" fill-rule="evenodd" fill="#fff"/>
    <path d="M241.12 209.05c-1 .82-6.27 6.27-1.1 8.26 5.36-1.4 3.9-2.4 5.1-3.6.02-2.4-2.67-3.1-4-4.6z" fill-rule="evenodd" stroke="#000" stroke-width=".99" fill="#de3108"/>
    <path stroke-linejoin="round" d="M252.55 260.53c-.27 1.18-1.45 5.54.2 8.9 4.53-1.9 6.6-1.37 8.16-.37-3.7-3-5.1-4.26-8.3-8.53z" fill-rule="evenodd" stroke="#9ca69c" stroke-linecap="round" stroke-width=".92" fill="#9ca69c"/>
    <path stroke-linejoin="round" d="M260.37 281.14l.27 10.17s3.54.7 5.17 0c1.7-.6 0-7-5.4-10.1z" fill-rule="evenodd" stroke="#fff" stroke-linecap="round" stroke-width=".92" fill="#fff"/>
    <path d="M286.05 282.4s-6.53-15.8-23.24-19.8-14.5-21.77-13.1-22.86c.8-1.55 1.3-3.9 6.1-1.64 4.8 2.27 27 13.44 30.2 13.98s.5 30.7.2 30.32z" fill-rule="evenodd" stroke="#000" stroke-width=".99" fill="#9ca69c"/>
    <path stroke-linejoin="round" d="M270.17 262.53c-.28.18 22.33 13.34 15.52 24.7 6.4-4.28 4.3-11.72 4.3-11.72s5.2 13.8-7.6 20.5c1.3 1.2 2.2.9 2.2.9l-2.2 2.2s-1 1.6 7.6-2.5c-2.4 1.9-2.6 3.3-2.6 3.3s.6 1.8 6.23-3.1c-4.54 4.9-5.54 7.5-5.54 7.4 12.3-1.1 39-40.9-8.4-52.7l2.16 2.3-12 9z" fill-rule="evenodd" stroke="#000" stroke-width=".92" fill="#de3108"/>
    <path stroke-linejoin="round" d="M271.17 258.62c3.08 2.18 4.17 2.9 4.53 4-2.8-.64-5.35-.45-5.35-.45s-6.08-5.8-7.17-6.27c-.82 0-5.54-3-5.54-3-2.36-1.18-4.54-9.35 4.18-7 8.98 4.28 10.25 4.64 10.25 4.64l10.72 3.36 6.1 6.9s-11-5.44-12.4-5.54c3 2.46 4.7 5.8 4.7 5.8-3.5-.98-6.5-1.9-10.2-2.44z" fill-rule="evenodd" stroke="#000" stroke-linecap="round" stroke-width=".92" fill="#fff"/>
    <path d="M228.4 209.87s10.54-2.54 11.8-2.18" stroke="#fff" stroke-linecap="round" stroke-width=".92" fill="none"/>
    <path fill-rule="evenodd" fill="#de3908" d="M-128 426.68h768V512h-768z"/>
  </g>
</svg>
