<svg xmlns="http://www.w3.org/2000/svg" height="480" width="640" viewBox="0 0 640 480">
  <g fill-rule="evenodd">
    <g stroke-width="1pt">
      <path d="M0 0h912v37H0zm0 73.8h912v37H0zm0 74h912v36.8H0zm0 73.7h912v37H0zm0 74h912v36.8H0zM0 369h912v37H0zm0 74h912v37H0z" fill="#bd3d44"/>
      <path d="M0 37h912v36.8H0zm0 73.8h912v37H0zm0 73.8h912v37H0zm0 74h912v36.8H0zm0 73.7h912v37H0zm0 74h912V443H0z" fill="#fff"/>
    </g>
    <path fill="#192f5d" d="M0 0h364.8v258.5H0z"/>
    <path d="M30.4 11l3.3 10.3h10.8l-8.7 6.3L39 37.8l-8.6-6.3-8.7 6.3L25 27.6l-8.7-6.3H27zm60.8 0l3.3 10.3h10.8l-8.7 6.3 3.3 10.2-9-6.3-9 6.3 3-10.2-9-6.3h11zm60.8 0l3.3 10.3H166l-8.6 6.3 3.3 10.2-8.7-6.3-8.7 6.3 3.3-10.2-8.7-6.3h10zm60.8 0l3.3 10.3h11l-8 6.3 4 10.2-8-6.3-8.6 6.3 3.4-10.2-9-6.3h10zm60.8 0l3.3 10.3h10l-9 6.3 3 10.2-9-6.3-9 6.3 3-10.2-9-6.3h11zm60.8 0l3.3 10.3h10.8l-8.7 6.3 3.3 10.2-8-6.3-8 6.3 4-10.2-8.3-6.3h10zM60.8 37L64 47h11l-9 6.5 3.3 10.3-8.7-6.4-8.7 6.4 3-10.3-9-6.3h11zm60.8 0l3.3 10h10l-9 6.4 3 10.3-9-6.4-9 6.4 3-10.3-8-6.4h11zm60.8 0l3.3 10h10.8l-8.7 6.4 3.3 10.3-8-6.4-8 6.4 4-10.3-9-6.4h10zm60.8 0l3.3 10h10.8l-8.7 6.4 3.3 10.3-9-6.4-9 6.4 3-10.3-8-6.4h11zm60.8 0l3.3 10H318l-8.6 6.4 3.3 10.3-8.7-6.4-8.7 6.4 3.3-10.3L290 47h10.7zM30.4 62.7L33.7 73h10.8l-8.7 6.3L39 89.5l-8.6-6.3-8.7 6.3L25 79.3 16.3 73H27zm60.8 0L94.5 73h10.8l-8.7 6.3 3.3 10.2-9-6.3-9 6.3 3-10.2-8-6.3h11zm60.8 0l3.3 10.2H166l-8.6 6 3.3 10-8.7-6-8.7 6 3.3-10-8.6-6h10.7zm60.8 0L216 73h11l-8.8 6.3 3.3 10.2-8.7-6.3-8.7 6.3 4-10.2-9-6.3h11zm60.8 0L277 73h10.7l-8.7 6.3 3.3 10.2-8.7-6.3-8.7 6.3 3-10.2-9-6.3h11zm60.8 0l3.3 10.2h10.8l-8.7 6 3.2 10-8.3-7-8.7 7 3.2-11-8.6-6H331zm-273.6 26l3.2 10h11l-9 6.3 3.3 10.3-8.7-6.3-8.7 6.3 3-10.3-9-6h11zm60.8 0l3.3 10h10l-8 6.3 3 10.3-9-6.3-9 6.3 3-10.3-9-6.2h11zm60.8 0l3.3 10h10.8l-8.7 6.4 3.2 11-8-6-8.8 7 3-10-8.6-6H179zm60.8 0l3.3 10h10.8l-8.7 6.4 3.4 11-9-6-9 7 3.3-10-8.3-7h11zm60.8 0l3.3 10H318l-8.6 6.4 3.3 11-8.7-6-8.7 7 3.3-10-8.6-7h10.7zM30.4 114.3l3.3 10.3h10.8l-8.7 6.3 3.3 10-8-7-8 6 3-10-8-6h10zm60.8 0l3.3 10.3h10.8l-8.7 6.3 3.3 10-9-6-9 6 3-10-9-7h11zm60.8 0l3.3 10.3H166l-8.6 6.3 3.3 10-8.7-7-8.7 6 3.3-10-8.7-7h10zm60.8 0l3.3 10.3h11l-9 6.3 4 10-8-7-8 6 3.5-10-8.7-7h10zm60.8 0l3.3 10.3h10l-8 6.4 3 10.2-9-6.3-9 6 3-10-9-7h11zm60.8 0l3.3 10.3h10.8l-8.7 6.3 3.3 10-8-7-8 6 3-10-8-7h10zm-273.6 26l3.3 10h11l-9 6.6 4 10-8-7-8 6 3-10-9-6h11zm60.8 0l3.3 10h10l-8 6.7 3 10.2-9-6.3-9 6 3-10-9-7h11zm60.8 0l3.3 10h10.8l-8.7 6.4L191 167l-8.6-6.3-8.7 6.3 3.3-10.2-8.7-6.3H179zm60.8 0l3.3 10h10.8l-8.7 6.4L252 167l-8.8-6.3-8.7 6.3 3.3-10.2-8.7-6.3h11zm60.8 0l3.3 10H318l-8.6 6.4 3.3 10.2-8.7-7-8.7 6 3.3-11-8.7-6.8h10zM30.4 166l3.3 10.4h10.8l-8.7 6.3L39 193l-8.6-6.4-8.7 6.3 3.3-11-8.7-7H27zm60.8 0l3.3 10.4h10.8l-8.7 6.3L100 193l-8.8-6.4-8.7 6.3 3.3-11-8.8-6h11zm60.8 0l3.3 10.4H166l-8.6 6.3 3.3 10.2-8.7-7-8.7 6 3.3-11-8.7-7h10zm60.8 0l3.3 10.4h11l-8 6.3 3 10.3-9-7-8 6.3 3-10.3-9-6.3h11zm60.8 0l3.3 10.4h10l-9 6.3 4 10.3-9-6.5-9 6.3 3-10.3-9-6.3h11zm60.8 0l3.3 10.4h10.8l-8.7 6.3L343 193l-8.6-6.4-8.7 6.3 3.3-11-8.7-7H331zM60.8 192l3.3 10.2h11l-8 6.3 4 10.2-8-6.3-8.6 6.3 3.4-10.2-9-6.3h10zm60.8 0l3.3 10.2h10l-9 6.3 3 10.2-9-6.3-9 6.3 3-10.2-9-6.3h11zm60.8 0l3.3 10.2h10.8l-8.7 6.3 3.3 10.2-8-6.3-8 6.3 4-10.2-8.3-6.3h10zm60.8 0l3.3 10.2h10.8l-8.7 6.3 3.3 10.2-9-6.3-9 6.3 3-10.2-9-6.3h11zm60.8 0l3.3 10.2H318l-8.6 6.3 3.3 10.2-8.7-6.3-8.7 6.3 3.3-10.2-8.7-6.3h10zM30.4 217.8l3.3 10.2h10.8l-8.7 6.4 3.3 10.2-8-6.3-8 6.3 4-10.2-9-6.4h10zm60.8 0l3.3 10.2h10.8l-8.7 6.4 3.3 10.2-9-6.3-9 6.3 3-10.2-8-6.4h11zm60.8 0l3.3 10.2H166l-8.6 6.4 3.3 10.2-8.7-6.3-8.7 6.3 3.3-10.2-8.7-6.4h10zm60.8 0L216 228h11l-8.8 6.4 3.3 10.2-8.7-6.3-8.7 6.3 4-10.2-8-6.4h10zm60.8 0L277 228h10.7l-8.7 6.4 3.3 10.2-8.7-6.3-8.7 6.3 3-10.2-9-6.4h11zm60.8 0l3.3 10.2h10.8l-8.7 6.4 3.3 10.2-8-6.3-8 6.3 4-10.2-8.3-6.4h10z" fill="#fff"/>
  </g>
</svg>
