<svg xmlns="http://www.w3.org/2000/svg" xmlns:xlink="http://www.w3.org/1999/xlink" height="480" width="640" viewBox="0 0 640 480">
  <g fill-rule="evenodd" stroke-width="1pt">
    <path d="M0 0h640v480H0z"/>
    <path d="M426.66 0H640v480H426.66z" fill="#090"/>
    <path d="M213.34 0h213.34v480H213.34z" fill="#bf0000"/>
  </g>
  <g transform="matrix(1.06 0 0 1.06 .96 27.31)" fill="#fff" fill-rule="evenodd" stroke="#bd6b00" stroke-width=".5">
    <path d="M319.5 225.84h8.35c.03 3.16 1.88 6.55 4.48 8.5h-16c2.5-2.28 3.2-4.97 3.17-8.5z"/>
    <path d="M266.7 178.53l4.58 5.04 56.94.1 4.67-5.05-14.6-.18-7.1-4.95-22.9-.1-6.6 5.1h-15z" stroke="none"/>
    <path d="M290.02 172.74l19.66-.02c2.66-1.4 3.5-5.9 3.48-8.42-.04-7.43-5.23-11-10.45-11.18-.7-.04-1.6-.64-1.8-1.36-.5-1.6-.4-2.64-.9-2.58-.5 0-.3.94-.8 2.45-.2.75-1.1 1.5-1.9 1.54-6.5.32-10.7 5.06-10.5 11.13.1 4.02.6 6.42 3.4 8.44z"/>
    <path d="M257.66 242.83h84.47l-7.56-6.16h-69.35l-7.56 6.16z" stroke="none"/>
    <path d="M296.4 219.7l1.53 4.6h3.5l-2.8-4.6h-2.24zm-1.97 4.6l.9 4.58 4.1.05-1.5-4.62h-3.5zm6.95.06l2.85 4.52h5.83l-4.57-4.57-4.2.1zm-34.44 10.36c3.1-2.88 5.07-5.34 5.1-8.87h7.55c0 1.98.7 3.16 1.8 3.08l7.6-.05-.1-4.52h-5.6v-24.7c-.2-8.72 10.6-13.8 15-13.76l-26.3-.04v-.8h55.2v.8l-26.7.04c7.9.02 15.5 7.5 15.6 13.82v7H315v-6.9c0-6.92-8.7-13.37-15.7-13.17-6.06.17-15.4 5.93-15.3 13.1v2.16l14.3.1-.15 2.5 2.3 1.5 4.5 1.5-.05 3.7 3.2 1 .07 3.7 3.8 1.7v3.9l2.5 1.5-.1 3.9 3.3 2.4H310l4.9 5.5h-7.25l-3.6-5.5h-4.76l2.1 5.4h-5.1l-1.2-5.4H289l.05 5.8h-22.2zm22.17-14.98v4.57h5.4l-1-4.5h-4.2z"/>
    <path fill="none" d="M289.4 211.66h3.3v7.6h-3.3z"/>
    <path d="M284.7 219.8h3.24l-.02-5.6c-.04-2.43 2.15-4.88 3.2-4.96 1.15-.05 2.86 2.3 2.9 4.77l.06 5.9h3.43v-14.5l-12.8.1v14.4zm25.6 3.34h4v3.13h-4zm-2.38-5.37h4v3.13h-4zm-3.87-5.37h4v3.13h-4zm-3.3-4.52h4V211h-4z" fill="none"/>
    <path d="M298.08 219.82l4.1.14 7.33 6.5v-3.84l-2.4-1.77v-3.04l-3.6-2v-3.2l-3.5-1.1V207l-1.7-1.47-.1 14.35z" fill="none"/>
    <path d="M315.43 210.35h.98v7.05h-.9z"/>
    <g id="a">
      <path d="M257.32 186.53c-1.23-1.98-2.7 2.75-7.8 6.27-2.35 1.6-4 5.9-4 8.7-.1 1.95.2 3.88 0 5.75-.15 1.2-1.4 3.82-.54 4.5 2.23 1.65 5.13 5.42 6.47 6.72 1.16 1.02 2.16-5.24 3.03-8.05.94-3 .52-6.6 3.1-9.37 1.84-1.87 6.46-3.72 5.94-4.55l-6.2-9.97z"/>
      <path d="M257.06 201.88a10.1 10.1 0 0 0-1.66-2.6c-.7-.8-1.52-1.45-2.43-1.77-.88-.3-1.78-.7-2.4-1.5a3.65 3.65 0 0 1-.73-1.4c-.12-.5-.12-1.2-.03-1.9-.1.1-.1.2-.2.3-2.3 1.6-4 5.9-4 8.7a28.5 28.5 0 0 0 0 2.3c.2.5.4 1 .6 1.3.4.4.7.7 1.2.8.8.4 1.8.5 2.7.8.9.3 1.9 1.1 2.7 2a10.5 10.5 0 0 1 1.8 2.7l.2-.8c.9-2.7.7-5.9 2.6-8.5z" fill="#bf0000"/>
      <path d="M249.82 192.4c-.48 3.35 1.4 4.46 3.15 5.1 1.82.66 3.32 2.62 4.1 4.4m-11.77 1.54c.77 2.9 2.8 2.53 4.56 3.18 1.83.65 3.75 2.96 4.52 4.73" fill="none"/>
      <path d="M255.6 184.48l.94-.6 17.75 29.9-1 .6-17.8-29.9z"/>
      <path d="M257.52 183.3a2.05 2.05 0 1 1-4.1 0 2.05 2.05 0 1 1 4.1 0zm15.18-24.03h7.2v1.65h-7.2zm0 3.13h7.2v13.78h-7.2zm-.44-5l7.98.04c.3-2.7-2.4-5.63-3.97-5.6-1.56.07-4.07 2.95-4 5.55z"/>
      <path d="M292.62 155.76c-1.52.64-2.7 2.38-3.4 4.38-.73 2-1 4.26-.66 6.1v.02c.12.63.3 1.08.5 1.4.2.33.42.52.68.57.27.05.52-.1.66-.3.14-.23.2-.52.2-.86-.16-1.88-.15-3.73.3-5.4.45-1.68 1.34-3.17 2.97-4.38.3-.3.46-.5.5-.8.04-.3-.1-.5-.28-.6-.4-.3-1-.4-1.5-.2zm.16.44c.37-.16.84-.07 1.03.1.1.07.1.12.1.2 0 .1 0 .24-.3.42-1.7 1.27-2.6 2.87-3.1 4.62-.4 1.75-.4 3.66-.3 5.56a.93.93 0 0 1-.1.57c0 .1-.1.14-.2.12 0-.1-.2-.2-.4-.4-.1-.3-.3-.7-.4-1.3-.3-1.7 0-4 .7-5.9.7-2 1.8-3.6 3.2-4.1z" fill="#bd6b00" stroke="none"/>
      <path d="M295.2 157.73c-1.53.64-2.5 2.3-3.04 4.2-.53 1.88-.62 4.05-.28 5.86.26 1.2.93 1.9 1.6 2 .32 0 .64-.1.83-.4.2-.3.3-.6.2-1.1-.3-1.5-.5-3.4-.2-5.1.3-1.7 1-3.3 2.2-4.2.3-.2.5-.5.5-.7.1-.3-.1-.5-.3-.7-.3-.3-.9-.4-1.4-.2zm.18.44c.37-.16.8-.07 1 .1.1.07.13.12.12.2 0 .1-.1.24-.34.42-1.4 1-2.13 2.6-2.4 4.4-.3 1.8-.1 3.6.27 5.2.1.3 0 .6-.1.7-.08.1-.2.2-.4.1-.38-.1-.98-.6-1.22-1.7-.3-1.8-.2-3.9.3-5.7.5-1.8 1.5-3.3 2.8-3.9z" fill="#bd6b00" stroke="none"/>
      <path d="M272.3 187.4h8.04v11.1h-8.03zm.48 17.45h7.75v2.33h-7.75zm-.2 4.1h7.94v8.68h-7.93zm-.55 10.46h8.68v4.9h-8.6zm1.07-16.6h7l1.38-2.3h-9.63l1.25 2.3zm9.43-8.5l.07-6.1h4.8c-1.88 1.6-3.64 3.5-4.87 6.1z"/>
      <path d="M273.56 196.74c.05 1.3 1.52.72 1.52.07 0-2 .02-4.1-.06-5.5 0-1 2.5-.8 2.48-.1 0 1.7.03 4 .04 6-.02 1 1.6.9 1.6 0-.02-2.2-.02-5.4 0-7 0-2.1-5.5-2-5.55 0 0 1.7-.1 4.6-.1 6.8zm0 13.24h5.7v7.1h-5.7z" fill="none"/>
      <path d="M277.2 212.92h2.02v1.17h-2zm-3.5 0h1.97v1.17h-1.96z"/>
      <path d="M275.67 210.07h1.54v2.9h-1.5zm0 3.97h1.54v3.08h-1.5zM244 138.97c.35 5.57-1.38 8.62-4.33 8.16-.8-3.1 1.04-5.16 4.32-8.16zm-6.48 12.34c-2.62-1.3-.73-11.5.28-15.7.74 5.5 2 13.3-.28 15.8z"/>
      <path d="M238.45 151.8c4.4 1.52 7.9-3.22 9.07-8.72-3.63 5.02-9.55 5.03-9.07 8.7zm-3.34 5.13c-3.4-.9-1.3-11.7-.7-16.03.8 4.46 3.2 14.55.8 16.03zm1.2-.34c.2-3.8 3.9-2.7 6.5-4.7-.4 1.8-2 5.1-6.4 4.6zm-4.2 4.9c-3.4-.9-1.3-12.6-1.5-17.4 1 4.1 4.2 16.2 1.6 17.3zm1.6-.5c2.8.9 6.5-.9 6.8-4.3-2.4 1.6-6.2.4-6.8 4.2z"/>
      <path d="M229.52 166.7c-3.27.27-1.8-9.63-1.8-18.85 1.2 8.62 4.47 16.5 1.8 18.86z"/>
      <path d="M230.65 166.26c2.2 1.1 6.16-.66 7.28-4.4-3.98 1.75-6.64.05-7.28 4.4zm25.63-22.13c-.58 4.83-2.55 7.64-5.5 7.17-.8-3.08 1.58-5.06 5.5-7.17zm-7.8 12.4c4.9.68 6.66-3.07 9.96-7.88-4.62 3.34-10.15 4.04-9.96 7.87z"/>
      <path d="M247.1 155.97c-2.68-3.2-.1-7.23 1.94-10.66-.44 5.1 1.3 8-1.95 10.7zm-1.2 5.3c-.3-3.14 5.05-3.84 7.46-5.58-.8 1.8-2.04 6.6-7.45 5.5z"/>
      <path d="M244.8 161.33c-3.7-.42-2.17-6.7.48-10.17-1.12 4.8 1.95 8.15-.5 10.17z"/>
      <path d="M242 166.55c-4.2-1.86-1.5-7.13.08-10.24-.67 4.1 2.7 7.2-.07 10.3z"/>
      <path d="M242.84 166.06c2.2 2.88 6.5-.86 7.38-5.22-3.73 3.1-6.5 2.6-7.38 5.22zm-9.6 20.26c-.43-4.3 2.8-12.08.5-16.24-.3-.57.7-2.1 1.33-1.17 1 1.5 2.04 5.7 2.48 4.2.46-1.7.53-4.6 2-5.2.96-.3 2.3-.5 1.94 1-.4 1.5-1.2 3.4-.3 3.6.5.1 2-1.9 3.3-2.9 1-.8 2.5.5 1 1.8-4.9 4.1-9.6 5.9-12.4 15.3zm-8.73 64.53c-.5-.1-1.3-.3-.6.58 5.7 7 7.3 8.93 15.6 7.94 8.4-1.1 10.4-3.36 16.2-6.65 3.2-1.83 7.7-2.24 11.2-1.1 1.6.53 2.6.56 1.5-.6-1.1-1.16-2.5-2.73-3.9-3.82-3.1-2.4-8.4-3.43-12.7-2.66-6.1.96-11.1 4.85-17.1 6.32-3.1.72-6.6.6-9.9 0zm47.8 12.5c1.1.13 1.8 2.18 2.3.8.9-2.25.3-4.03-.7-3.84-1.1.4-3.1 3-1.5 3.1z"/>
      <path d="M220.6 182.92c-1.22-1.27-.86-1.75.93-1.77 1.43-.1 4.25.87 5.32.1 1-.72.6-3.75 1.03-5.14.2-.7.74-2 1.96-.1 3.62 5.9 8.15 12.8 10.08 19.6 1.06 3.9.06 9.8-3.45 13.9.12-3.4-1.16-5.7-2.7-8.6-1.93-3.7-9.07-13.9-13.17-17.9z" stroke="none"/>
      <path d="M235.53 213.44c3.98.02 4.67-5.32 4.67-6.8-1.96.36-5.42 3.63-4.67 6.8zm34.42 51.82c2.83.65 2.8-6.18-.1-9.07 1.27 4.3-2.13 8.3.1 9zm-1.1-.06c.2 3.24-7.96-.42-10.05-2.95 4.8 2.05 9.8.36 10.05 2.95zm-3.57-4.63c.3 3.14-7.06.38-9.24-2.07 4.83 1.56 8.92-.52 9.24 2.07zm1.35.44c2.83.7 2.37-6.4-.38-8.8 1.32 4.7-1.85 8.2.38 8.9zm-2.98-4.2c2.83.7 1.2-5.4-.9-7.8.35 4.5-1.05 7.5.9 7.9zm-1.5 0c.3 3.3-5.43.8-7.65-2.3 4.78 1.6 7.33-.3 7.65 2.3zm-1.56-2.4c1.8-1.3-.2-4.8-3.7-4.6.3 2.2 1.5 5.9 3.6 4.7zm13.9 14.6c.2 3.3-8 1.7-10.5-1.8 5.1 1 10.3-.8 10.5 1.8zm-32.4-5.8c.3 3.3-8.6-.3-10.8-3.3 4.8 1.6 10.5.8 10.8 3.4zm5.4 1.4c1.8-1.3-2-4.8-5-5.6.3 2.2 2.8 6.9 4.9 5.6zm.5 2.3c.2 2.9-9.6 1.3-12.1-1.4 8.4 1.5 11.8-1.1 12.1 1.4z"/>
      <path d="M252.76 268.63c1.08 2.7-8.26 2.04-11.54.47 5.3-.05 10.8-2.35 11.54-.47z"/>
      <path d="M257.13 270.6c1.03 2.42-7.6 2.37-11.82 1.03 5.6-.04 10.8-3.43 11.9-1.03zm6.3 1.3c1.52 2.87-7.6 3.14-10.56 1.73 5.28-.72 9.25-3.98 10.55-1.73zm-10.7-4.9c-2.9 1.83-2.74-3.56-5.04-7.3 3.6 3.3 7 5.56 5 7.3z"/>
      <path d="M257.88 268.94c-2.43 2.16-4.38-5.25-6.6-9.4 3.6 3.95 8.85 7.6 6.6 9.4zm6.8 2.06c-2.06 2.4-8.02-7.02-10.2-11.92 3.3 3.82 11.84 9.9 10.2 11.92zm-5.8 7.18c-1.03 3.63-16.2-3.42-17.9-7.08 8.7 4.6 18.1 3.64 17.9 7.08zm-48.73-73.8c-.35-.46-1.37 0-1.12 1.12.24 1.5 2.45 9.2 6.25 11.85 2.7 1.96 16.97 5.1 23.43 6.44 3.6.7 6.6 2.4 8.9 5.3-.9-3.7-1.7-6.5-3-9.8-1.2-3-4.4-6.2-7.7-6.4-6.1-.3-14.1-.8-19.9-3.3-3-1.3-4.8-3-6.7-5.4z"/>
      <path d="M245.54 234.87c1.95 1.43 4.1-3.7 1.62-8.6-.08 4.7-3.8 6.3-1.62 8.6z"/>
      <path d="M247.4 239.58c2.7.83 3.55-3.94 1.77-7.75.3 4.1-4.23 6.56-1.76 7.75z"/>
      <path d="M249.46 243.36c2.6 1.3 3.58-3.52 1.72-7.1.2 4.57-3.72 5.9-1.72 7.1z"/>
      <path d="M248.4 243.65c-1.04 3.08-7.02-2.65-8.02-5.78 3.7 3.7 8.75 3.28 8 5.78z"/>
      <path d="M245.68 238.94c-1.17 3.08-8.7-4.85-10.35-8.67 3.7 3.7 11.2 6.5 10.35 8.67z"/>
      <path d="M244.2 234.32c-1.18 3.5-9.35-5.83-11.66-9.13 3.9 3.6 12.53 6.5 11.65 9.1zm-.27-3.46c2.88-.56-.16-2.96-3.7-6.85-.15 4.1.52 7 3.7 6.9z"/>
      <path d="M239.08 228.53c1.24-1.35-1.2-1.93-4.2-5.3-.45 2.27 2.8 6.44 4.2 5.3zm13.92 15.2c1.57.92 2.65-2.3.7-5.22-.46 3.2-2.14 4.1-.7 5.3zm-34.2-20.35c-3.33 2-8.64-6-10.06-9.28 2.93 3.77 10.7 7.22 10.07 9.28z"/>
      <path d="M221.65 228.04c-1.85 2.05-7.67-3.52-9.7-6.34 3.13 2.7 10.52 3.02 9.7 6.34z"/>
      <path d="M224.82 232.22c-.6 2.8-9.1-3.5-11.1-6.48 3.67 3.46 11.66 3.14 11.1 6.48z"/>
      <path d="M223.52 235.25c-1.3 2.52-8.22-3.73-9.88-7 4.22 3.7 10.95 4.5 9.88 7zm-3.55-12.28c2.18-2.3 1.25-3.38-.34-7-.87 3.72-2.18 5.2.34 7zm2.9 4.34c3.94.2.03-4.6-.9-8.6.34 4.6-1.02 8.3.9 8.7z"/>
      <path d="M225.38 231.13c2.74-.62 1.95-4.5-.15-9.2.44 5.08-2.32 8 .15 9.2zm-.93 7.67c-1.03 3.08-8.83-4.06-10.07-6.76 3.95 3.32 10.77 4.45 10.07 6.76z"/>
      <path d="M229.12 243.6c-1.17 3.1-9.34-3.16-11.84-6.56 4.92 3.87 12.44 3.52 11.84 6.57z"/>
      <path d="M233.88 248.46c-1.3 4.3-9.85-2.56-12.4-5.9 5.44 4.14 13.1 2.85 12.4 5.9zm-8.03-11.03c2.32 1.2 3.26-5.38 1.95-10.03.02 5.07-4.66 8.84-1.95 10.03z"/>
      <path d="M229.8 242.66c2.8.83 1.9-6.27-.47-10.87-.3 4.5-2.36 8.8.48 10.8zm4.96 4.9c3.1.17.97-6.08-1.6-9.6.44 4.6-1 9.07 1.6 9.6zm-5.46 2.67c-.94 1.6-3.23-1.35-7-3.5 3.4.9 7.42 2.03 7 3.5zm-1.78-52.74c2.9-2.2.7-6.2 0-10-.94 3.6-3.4 8.3 0 10zm-.1 5.3c-4.37-.5-3.7-6.2-3.84-9.8 1.3 4.8 4.9 5.6 3.84 9.7zm.7-.8c3.68-.2 3.5-4.4 3.68-8.7-1.87 3.9-4.1 4.5-3.7 8.6z"/>
      <path d="M227.96 207.34c-2.87.23-4.37-2.6-5.02-7 2.72 4.06 5.2 2.8 5.02 7zM229 207c3.68.47 3.1-3.83 2.95-7-1.14 3.02-4.14 3.97-2.96 7z"/>
      <path d="M223.23 205.17c.3 2.8 2.07 7.63 4.93 6.55 1.18-3.45-2.52-4.14-4.93-6.55z"/>
      <path d="M229.04 212.02c-1.28-2.46 2.9-3.7 3.8-6.9.5 4.58.07 7.6-3.8 6.9zm-11.9-29.18c2.3-2.48.26-6.4-.43-10.23-.9 3.7-2.5 8.5.5 10.3zm-.08 4.6c-4.04.42-5.02-7.8-5.43-11.33 1.32 4.9 5.97 7.1 5.43 11.4zm.83-.07c2.8-1.47 2.1-4.65 3-7.04-1.9 2.93-3.7 3.35-3.1 7.04z"/>
      <path d="M217.1 192.75c-4.23.36-6.75-8.74-6.88-12.32 1.3 4.86 7.36 7.5 6.87 12.32zm.8-.14c3.97-.9 3.5-3.4 2.9-7.6-1.26 4.2-3.48 3.3-2.9 7.7z"/>
      <path d="M217.04 198c-4.65.8-4.32-6.56-8-11.9 3.18 3.97 8.93 8.96 8 11.9zm1.05-.25c3.5.1 3.8-5.18 3.6-7.32-.8 2.13-5 4.16-3.7 7.32z"/>
      <path d="M209.78 192.34c1.74 5.65 4.22 11.32 7.26 10.9 1.46-3.22-2.9-3.63-7.26-10.9z"/>
      <path d="M218.14 202.4c-1.28-2.46 2.9-3.7 3.8-6.9.5 4.58.07 7.6-3.8 6.9zm-7.16-3.6c2.5 5.1 3.6 10.95 7.02 10.1 1.28-3.96-3.77-4.8-7.02-10.1z"/>
      <path d="M218.7 207.93c-1.46-2.7 2.73-3.65 3.76-7.36.55 4.86.03 8.33-3.75 7.36zm7.17-34.48c2.45.66 5.02-2.1 4.13-6.2-2.8.7-4.1 3.23-4.13 6.2zm-7.84-2.06c.2 1.1 1.62 1.2 1.2-.4-.33-1.4-.4-2.4 0-3.4.56-1.4.38-3.7-.03-4.7-.42-1-1.8-.5-1.22.3.64.9.68 2.8.24 3.7-.58 1.3-.42 3-.2 4.3zm22.87 15.9c-.95 1.4-2.88.5-1.4-1.4 1.2-1.6 2.92-2.8 3.05-4.4.1-2.1 1.3-5.1 2.37-6.2 1.12-1.1 2.4.4 1.2 1.2-1.33.8-2.2 4.4-2.17 5.8-.05 2-2.04 3.4-3.05 4.9zm-2.98-2.3c-.95 1.4-2.46.6-1.6-1.7.72-1.6.8-3.5 1.6-4.6 1.13-1.7 3.03-3.2 4.12-4.2 1.1-1.1 2.04-.1 1.02.9-1.25 1.2-2.6 2.8-3.35 3.9-1.4 2.3-.7 4.1-1.7 5.5zm-15.74-7.2c-.1 1.9 1.47 2.4 1.4-.4-.07-3-2.18-5.7-.9-10.3.7-2.2.7-6.3.3-8.5-.37-2.2-1.9-.8-1.3.9.62 1.9-.13 5.6-.62 7.5-1.46 5.4 1.2 8.1 1.12 10.6zm4.32-10.9c-.23 1.8-1.76 2-1.32-.6.37-2.1.44-3.7 0-5.4-.6-2.1-.4-5.7.05-7.2.45-1.6 1.95-.7 1.32.6-.7 1.4-.73 4.4-.25 5.8.62 2.1.45 4.8.2 6.7zM210.94 204c.76.9 2.04.3.87-.92-.9-1-.6-1.3-1.2-2.5-.5-1.35-.5-2.1-1.2-3.05-.6-.9-1.5.02-.9.8.8.9.6 1.56 1 2.44.9 1.5.7 2.3 1.5 3.23zm20.4 24.6c2.44 1.2 4.3 4.2 4.4 6.65.22 2.8.63 5.18 1.9 7.17-2.02-.56-2.98-3.76-3.27-6.82-.3-3.18-2-4.55-3.03-7zm5.08 5.9c1.7 3.1 4.05 4.3 4.17 6.6.2 2.67.4 2.8 1.1 5.42-2-.53-2.5-.7-3.1-4.68-.4-2.8-2.6-4.78-2.3-7.35z"/>
      <path d="M288.97 263.32c.95 1.8 2.04 4.5 4 4 .04-1.36-2.12-2.3-4-4zm2.94.6c3.9 1.58 7.2 1.2 7.6 3.6-3.6.4-4.9-1.08-7.5-3.6zm-16-12.68c2.6 2.12 4.3 4.53 5.1 7.65.8 2.9 2 5.2 3.7 7.8-2.7-1.9-4.4-4.4-5.3-7.5-.7-3-1.6-5.3-3.3-8.1zm3.2 0c2.8 2.2 5.4 4.7 6.2 7.83.8 2.9 1.3 5.13 3.2 8.03-2.9-1.87-4.1-4.7-4.9-7.75-.7-3-2.5-5.26-4.4-8.12zm9.2 7.23c-.1-.55.3-1.02.8-1.17a33.43 33.43 0 0 1 2.6-.84c1-.23 1.6.47 1.6.94v2c0 .73-.2.78-.6.9-.7.1-1.7.24-2.4.74-.6.36-1.1.07-1.4-.56-.2-.5-.3-1.44-.4-2zm10.7 0c.1-.55-.2-1.07-.6-1.2-.8-.34-1.5-.42-2.4-.4-.9 0-1.1.2-1.1.67v2.1c0 .72 0 .78.4.88.7.13 1.8.16 2.5.66.5.36 1.1.07 1.2-.6 0-.52.1-1.54.1-2.1z" stroke="none"/>
    </g>
    <use transform="scale(-1 1)" xlink:href="#a" x="-600" width="100%" height="100%"/>
    <g stroke="none">
      <path d="M328.54 286.65c.05 1.18.2 2.13.9 3.08-4.1-1.63-9.84-.76-13.78 1.07-1.76.84-3.88-.95-1.82-2.66 2.93-2.37 9.7-1.02 14.7-1.5zm-57.5-.06c.05 1.1-.08 2.1-.5 3.1 4.44-1.9 9.2-.4 13.68 1.5 3.07 1.2 3.32-1 2.78-1.7-.93-1.4-2.74-2.9-5.03-2.9-1.52-.1-7.38-.1-10.94-.1zm3.74-21.7c-1.24-.6-2.68 0-3.96 1.3-4.33 4.2-9.4 8.3-13.5 11.6-1.54 1.3-3.1 3.7 3.42 6.1.24.1 5 1.8 8 1.9 1.24-.1 1.24 1.8 1 2.3-.5.9-.14 1.3-1.2 2.3-1.08.9.13 2.1 1 1.3 3.66-3.2 9.62-1.2 15.36.7 1.35.4 3.83.3 3.8-1.6.04-2 1.5-3.5 2.42-3.5 2.34.4 13.92.5 17.48.1 2.08-.3 2.2 2.8 3.32 4 .76.8 3.72 1 5.74.1 4-1.9 10.1-1.9 12.58-.1 1.02.8 1.83.1 1.25-.7-.8-1.1-.8-1.6-1.1-2.5-1-1.9-.2-2.4.7-2.5 11-1.4 14.6-5.2 11.2-8.3-4.4-3.9-9.2-7.7-13.4-12.2-1.2-1.2-1.9-1.7-4.3-.7-7.2 3.2-16.4 5.6-25.4 5.8-8.4 0-19.8-3.8-24.6-5.8z"/>
      <path d="M326.62 265.54c-.58.06-1.2.24-1.66.4-8.92 3.14-17.1 5.33-25.65 5.32-8.3-.02-17-2.3-24.9-5.53-.4-.2-.9-.16-1.4-.03-.5.13-1 .36-1.3.68-3.6 3.63-7.6 7.15-11.8 10.35-.6.5-.5 1.73.5 2.15 8.3 2.98 16.5 8.54 39.7 8.32 23.5-.22 31.8-5.64 39.2-8.13.5-.2 1.1-.5 1.3-.97a1.03 1.03 0 0 0 .1-.8c-.1-.3-.3-.56-.6-.85-4.2-3.46-8.7-6.2-11.7-10.4-.3-.5-.9-.57-1.5-.5zm.03.44c.5-.05.9.02 1.1.3 3.04 4.3 7.62 7.08 11.8 10.5.3.26.45.5.5.67a.5.5 0 0 1-.02.43c-.15.3-.6.57-1.07.75-7.53 2.52-15.66 7.9-39.03 8.13-23.1.22-31.1-5.3-39.47-8.3-.75-.32-.68-1.17-.4-1.4 4.24-3.2 8.22-6.73 11.87-10.36.25-.25.65-.45 1.1-.57.44-.1.9-.13 1.2 0 7.9 3.24 16.63 5.58 25.04 5.6 8.62 0 16.9-2.2 25.85-5.35.45-.16 1.02-.35 1.53-.4z" fill="#bd6b00"/>
      <path d="M269.7 114.56c-.06-1.38 2.08-1.48 1.83.4-.3 2.37 4.46 8.35 4.86 12.04.2 2.47-1.5 4.64-3.2 6-2.1 1.6-5.3 1.38-6.8.45-.9-.73-1.8-3.23-1.1-4.22.2-.34 1.3 3.67 3.7 3.66 3.2-.1 5.9-2.5 6-4.7.1-3.8-5.4-9.8-5.4-13.7zm9.54 9.4c.54-.4 1.4 1.3.8 1.7-.5.34-1.5-1.24-.8-1.7zm1.45-3.42c-.3.13-.9-.06-.7-.3.7-1.08 2.4-2.7 3.5-3.3.3-.16 1 .48.7.8-.7 1-2.4 2.18-3.7 2.8zm12.5-10c.3-.62 2.1-1.33 2.6-1.76.4-.44.6.37.4.75-.3.63-1.9 1.7-2.6 1.73-.4 0-.7-.33-.5-.7zm4.3.2c.4-1.1 1.6-2.78 2.5-3.33.4-.2 1.2 0 1.1.4-.4 1-1.9 2.6-2.9 3.4-.4.3-.8-.1-.7-.4zm-3.7 2.78c-.3.13-.2.7.1.78.5.18 1.5.2 1.9-.03.6-.4.3-2.85-.6-1.54-.6.8-1 .55-1.6.8zm-7.3 5.62c-1.3-1.03.3-2.46 1.7-1.46 2.7 2.02-4 9.78-7.7 13.4-.7.7-1.3-1.07-.4-1.84 2.6-2.22 5-4.86 6.7-7.6.3-.52.6-1.65-.4-2.5zm15.2-6.67c.1-.98-1.6.02-1.6-1.28 0-.7 1.9-1.2 2.7-.4 1.4 1.4.3 3.7-1.9 3.8-1.9.1-5.1 2.7-4.6 3.2.5.6 5.4 1.1 8.3.6 1.7-.3 1.4 1.3-.4 1.5-1.8.2-3.2 0-4.8.5-2 .5-2.8 3.1-3.9 4.1-.3.1-.9-.9-.7-1.2.8-1.2 2-3.1 3.3-3.6.9-.4-2.3-.5-3.4-.8-.8-.3-.6-1.3-.3-1.9.4-.9 3.4-3.9 4.6-3.9 1.1 0 2.3-.3 2.4-1.1zm5.1.26c.5-.5.8-1.34 1.4-1.85.3-.32.8.07.7.86-.1.62-.9 1.15-1.5 1.62-.5.34-1-.4-.7-.63zm6.4-2.3c.8-.1 1 1.54.1 1.8-.6.2-1.1-1.7-.2-1.8zm-2.2 5.04c0 1.4.6 1.28 2 1.23 1.2-.05 2.4.03 2.4-1.24 0-1.3-.8-2.46-1-1.57-.2.8-.4 2.2-.9 1.6-.5-.5-.3-.7-1.1.2-.4.4-.5-.3-.7-.7-.2-.3-.8.2-.8.4zm-9.3 7.16c-.3 1.86 0 4.46.9 4.5 1.1.03 3.6-4.07 4.7-6.2.7-1.2 1.9-1.4 1.4-.16-.8 1.9-.7 6-.1 7.2.3.65 3-.6 3.4-1.5.7-1.7.1-4.77.4-6.66.1-1.2 1.2-1.4 1.2-.3-.1 2.1-.3 5.8-.2 7.6.1 1 2.9 2.5 3.3-.5.2-1.8 1.2-3.7-.1-5.8-.8-1.3 1.1-1.1 2.2.7.7 1.2-.6 3.2-.6 4.7.1 2.4-1.7 3.7-3.1 3.8-1.2.1-2-1.4-3-1.4-1.1-.1-2.2 1.7-3.1 1.6-3.5-.2-1.6-5.3-2.7-5.4-1.2 0-2.6 5-4 4.8-1.5-.1-3-4.1-2.4-5.8.5-1.5 1.5-1.9 1.4-.9zm16.9-8.03c-1.7-1.04.1-3.74.9-2.8 1.6 1.94 3.2 6.5 4.3 6.88.7.24.6-3.38 1.1-5.02.3-1.2 1.8-.82 1.5.74-.1.52-1.9 6.42-1.8 6.65 1.2 2.52 2.5 5.08 3.3 7.8.3 1.16-1.1.37-1.3.13-.9-1.34-2.5-6.45-2.5-6.22-.7 3.6-.9 4.66-1.7 7.72-.3.98-1.7.8-1.4-.93.3-1.4 2.4-8.4 2.2-8.6-1.6-2.85-3.1-5.12-5.1-6.35z"/>
      <path d="M322.03 131.2c-.47-.05-1.2 1.05 1.15 1.5 3.16.56 6.6-.5 7.67-3.6 1.2-3.68 2-7.17 2.65-8.5.8-1.52 1.8-1.4 1.05-3.64-.52-1.6-1.5-1.13-1.7-.26-.56 2.35-2.66 9.95-3.3 11.35-1.25 2.55-3.73 3.56-7.52 3.15z"/>
      <path d="M328.35 119.07c-.34-.72-1.13-.16-1 .63a1.2 1.2 0 0 0 1.26 1.1c.7-.04 2.2 0 2.2-1.14 0-.8-.6-1.48-1.1-.6-.4.82-1 .73-1.3 0zm.8-3.04c-.25.17-.03 1.07.25 1.06 1.04-.1 2.5-.4 3.28-1 .23-.2.13-.7-.2-.7-1 0-2.57 0-3.34.5zm8.75 2.26c.75-1.2 2.8-1.3 2.07.3-.53 1.1-5.66 11-6.36 12.3-.7 1.4-1.3.7-.8-.4.8-1.5 4.9-12 5.2-12.3z"/>
      <path d="M330.18 133.04c-.22-.8-1.44-1.95-1.3.15.24 3.8 5.5 2.6 7.1 1.2 1.44-1.3.18 4.3 2.1 4.9 1.06.3 3.05-1.1 4.03-2.4 2.8-3.6 4.5-8.6 7.1-12.1 1-1.4-.5-2.4-1.1-1.3-2.3 3.8-5.1 11.6-8.2 13.6-2.5 1.6-1.7-2.1-1.8-3.2-.1-.8-1.1-2-2.4-.9-.9.7-2.3 1.3-3.6 1.1-.7 0-1.4 0-1.7-1.4z"/>
      <path d="M339.57 125.93c.03-.22-1.1-.3-1.06.8.1.8 1.1 1.03 1.2.92 1.6-1.12-.3-.57-.1-1.72zm-2.24 4.5c-.3.06-.58 1.03.13 1.1.66.03 3.22-.24 3.92-.2.46-.02.63-.9-.35-.85-1.2.06-2.75-.24-3.7-.06zm-61.96-16.67c.4.02 1.52 1.46 1.45 1.9-.05.23-1.2-.02-1.54-.3-.26-.23-.16-1.6.1-1.6zM270 124.2c-1.02.57.16 1.66.92 1.2 2.86-1.85 7.16-3.8 8.06-7.47.28-1.24 1.44-3.15 2.54-3.57 1.06-.4 2.6 1.92 3.6.08.6-1.04 2.65.7 3.15-.43.6-1.3.32-2.1.34-3.3 0-.8-.6-1.1-1.1.3-.2.6.1 1.3-.1 1.6-.1.3-.6.5-.9.3-.2-.2 0-.7-.7-.9-.2-.1-.6-.2-.7.1-.7 1.3-1.1 2.5-2.1 1.1-.9-1.2-1.3-3.2-2-.4-.2 1-1.7 2.4-2.6 2.4-1.1 0-.8-2.9-3.2-2.5-1.2.3-1.1 2.7-.9 3.6.3 1.2 3.9.4 3.8 1.2-.6 2.8-4.5 5.4-7.7 7.1zm-22.7 13.22c-.15.46.46 1.72 1.1 1.82.63.04.95-1.36.75-1.82-.15-.34-1.74-.33-1.85 0zm3.33 4.88c-.4-.43-1.6.73-.63 1.55.54.44 2.5 1.07 3.05.15.73-1.18-.72-5.5-.07-6.06.5-.44 2.82 2.88 3.97 3.12 2.7.37 2.05-4.62 4.96-4.28 2 .26 2.2-2.2 2-3.76-.2-1.48-2.6-3.62-3.7-4.58-1.4-1.2-2.1.9-1.1 1.58 1.2.94 3.3 2.84 3.6 4.1.2.6-1.4 1.77-2 1.45-1.3-.74-2.6-3.9-3.8-4.62-.4-.25-1.3.3-.9 1.3.6 1.05 2.9 2.7 3.1 3.8.2 1.04-1 3.27-1.8 3.27s-3-2.7-3.7-3.96c-.3-.6-1.5-.54-1.6.3-.2 1.25.2 3.9.5 5.55.3 1.6-.9 1.7-1.5 1.1zm-4.07-8.57c-.34.38.8 1.13 1.02.94.43-.38 2.13-2.3 1.8-2.98-.3-.6-2.62-2-3-1.3-.7 1.1 2.2 1.6 1.74 1.9-.22.1-1.02.6-1.56 1.3zm4.17-8.46s.73 2.5 1.32 1.45c.48-.72-1.32-1.45-1.32-1.45zm1.2 3.96c-.28.15-1.03.74-.54 1.06.7.4 2.8.8 2.4-.7-.3-.9 3.1 0 2.3-2.4-.2-.7-1.3-1.6-1.8-1.8-.3-.1-1.5.5-.8.8.5.2 2 1.1 1.4 1.7-.7.6-1.1-.3-1.9-.2-.4.1-.2 1.2-.4 1.5-.1.1-.7-.4-.9-.3zm5.47-9.46c-.43.22-1.2 1.4-1.24 1.94-.02.3.3.7.55.6.5-.2 1.2-1.3 1.2-1.8 0-.3-.2-.8-.5-.6zm2.84-.3c-.84-1.04.9-2.56 1.67-.5.5 1.28 5.5 7.9 6.6 10.13.8 1.5 0 2.14-.9 1.05-2.5-3.24-4.6-7.28-7.2-10.7zm5.15.13c.9-.97 2.7-2.95 2.2-4.05-.4-.95-1.5-.86-1.7-.64-1.1 1.3.7 1 .5 1.5-.6 1.1-1.1 1.6-1.4 2.6-.1.3.1.9.3.7zm77.7 3.24c-.7-.52.6-3.04 1.5-2.05 2.3 2.7 3.4 11.6 4.1 18.2 0 0-1.1.9-1.1.7 0-3.6-1.5-14.4-4.6-17zm-53.1-8.66c-.8-1.76 1.1-2.4 1.4-1.16 1.3 5.8 4.5 10.16 6.9 14.1.7 1.23.1 1.96-1.7.83-1.3-.85-2.5-3.92-3.1-4.04-1.1-.2-3.7 5-9.1 3.6-1.4-.4-1.3-4.5-1.3-6.3-.1-.8.9-1.1.9.1 0 1.7 0 5.2 2.1 5.3 1.7.1 5.6-2.4 6.4-4.3.7-2-1.9-5.9-2.8-8z"/>
      <path d="M344.6 138.38c.44-1.2 6.12-10.73 6.87-12.84.38-1 2.02 1.74.42 3.22-1.4 1.26-5.6 8.04-6.3 10.4-.4 1.08-1.5.57-1-.78z"/>
      <path d="M354.28 129.28c1.05-3.94 3.6.6 1.35 2.85-3.46 3.38-4.5 9.85-9.98 10.82-1.48.32-4.1-.66-4.86-1.2-.3-.22.2-1.63 1.1-.94 1.3 1.1 4.1 1.3 5.5.1 3.1-3 5.6-7.1 6.8-11.6zm-57 12.74c-.26.28-1 .24-1.08.64-.3 1.48 0 2.23-.33 3.65-.3 1.4-1.26 1.5-1.2.4.1-1.4 1.28-3.5.44-3.6-.5-.1-.9-.8-.4-1.2 1.1-.7 1.7-.6 2.5-.4.3.1.4.5.2.7z"/>
      <path d="M296.5 140.1c-1.45 1.26-2.8 1.77-4.12 3.37-.55.66-.53 1.57-.86 2.4-.32.9-1.37 1.07-1.7.9-.54-.37-.46-2.02-1.07-1.13-.5.82-.84 1.94-1.6 1.93-.7-.02-2-1.43-1.33-1.5 2.25-.22 2.22-2.03 3.06-2.14.95-.13 1 1.48 1.6 1.16.45-.3.67-2.2 1.17-2.7 1.52-1.6 2.73-2.4 4.3-3.6.78-.7 1.34.5.55 1.1zm5.28 4.84c-1.16.23-.96 1.72-.62 1.9.56.27 1.43.38 1.75-1.33.2-.7.3 3.5 1.9 1.9.9-1 3.1.2 4-1 .7-.8.9-1.4.4-2.6-.1-.4-1-.2-1 .7.1.8-.5 1.7-1.3 1.6-.3 0 .3-1.8-.1-2.3-.2-.2-.5-.2-.7.1-.3.4.3 2.1-.6 2.3-1.2.3-.5-1.1-1-1.4-1.6-.8-1.7.2-2.4.4zm9.05-2.86c.85-.24.58-.24 1.92-1.33.52-.4.62.76.57 1.2-.1.8-1.02.24-1.3.92-.42.9-.25 2.95-.4 3.8-.1.42-.78.38-.84.04-.2-1 .14-2 .1-3.3 0-.4-.63-1.1-.05-1.3zm-5-2.62c-.2.93-.2 1.7-.2 2.32.06.52 1 .2 1 .12-.05-.8.13-1.94-.1-2.25-.14-.17-.65-.37-.7-.2z"/>
      <path d="M299.54 130.2l-1.46 5.58-2.03-3.75v3.85l-4.37-5.2 1.52 5.57-3.93-3.34 2.1 3.8-6.98-4.5 4.4 5.2-5.6-2.7 4 3.4-9.2-3.4 8.8 4.4c3.2-1.6 7.6-2.5 12.5-2.5s9.3 1 12.5 2.6l8.7-4.3-9 3.5 3.9-3.4-5.5 2.7 4.4-5.2-7 4.5 2.1-3.8-3.9 3.4 1.5-5.5-4.4 5.2.1-3.8-2 3.7-1.5-5.6z"/>
    </g>
  </g>
  <path d="M311.3 294.9c0 .64-.1 1.55-.28 2.74h-.44c0-.8-.04-1.43-.12-1.87a9.26 9.26 0 0 0-.42-1.56 7.26 7.26 0 0 0-.58-1.2c-.2-.3-.54-.8-1-1.4l.88-2.1.87 1.2.6 1.2a9.36 9.36 0 0 1 .6 3.2m6.9-4.2c0 .7-.1 1.2-.3 1.5-.2.3-.7.6-1.3.7.2.6.3 1.1.4 1.5.1.4.1.8.1 1.2v.9a22.48 22.48 0 0 1-.1 1.3h-.4a8.24 8.24 0 0 0-.1-1.2 5.53 5.53 0 0 0-.2-.9l-.4-1a10.53 10.53 0 0 0-.6-1.5c-.2-.4-.5-.9-1-1.6l.7-2c.4.5.7.9 1 1.1.2.2.6.3.9.3.8 0 1.2-.4 1.2-1.3h.4v1.4m6.4 4.8l-.5 2.2c-.3-.1-.6-.3-.8-.7-.2-.3-.3-.8-.4-1.3a12.42 12.42 0 0 1-.1-1.7c-.4.2-.7.2-1 .2-.5 0-.9-.1-1.2-.4a1.25 1.25 0 0 1-.4-1c0-.8.2-1.6.7-2.3.5-.7 1-1 1.5-1s.8.1.9.4a2 2 0 0 1 .4 1c0 .3.1 1 .1 2 0 .9.1 1.5.2 1.9.1.3.4.6.8 1m-2-3.6c-.1-.5-.4-.8-.8-.8-.2 0-.4.1-.6.2-.2.1-.3.2-.3.3 0 .3.3.4 1 .4.2 0 .4 0 .6-.1m8.7 3l-.3 2.6c-.5-.3-.9-1-1.4-1.9-.4-1-.9-2.3-1.3-4.1-.4 1.8-.7 3-1 3.8-.3.8-.5 1.4-.8 1.7-.16.2-.4.5-.8.7l.1-2.4c.4-.6.8-1.1.9-1.4a7.63 7.63 0 0 0 .7-1.7c.2-.6.4-1.5.5-2.62h.5c.3 1.1.6 2 .86 2.6.2.6.5 1.2.84 1.68.3.3.6.8 1.2 1.3" fill="#fff"/>
  <path d="M350.82 319.4c.34.4.6.8.73 1.18.13.4.23.94.3 1.65l-.78.07c-.33-.65-.65-1.15-.96-1.5-.2-.3-.6-.7-1.1-1.2a46.04 46.04 0 0 0-1.6-1.5 34.38 34.38 0 0 0-2.1-1.7c-.3-.22-.5-.38-.5-.47-.1-.15-.2-.42-.3-.84a11.2 11.2 0 0 1-.1-1.6l2.7 2.2a44.32 44.32 0 0 1 2.5 2.2l1.4 1.4m-9.5-5.8l-.1 2-3.1-.1.3-2 3.1.1m8.3 8.8l-7.5 2.3-1.4-2 6.6-2c-.3-.4-.5-.7-.7-.9a2.83 2.83 0 0 0-.8-.6 1.42 1.42 0 0 1-.4.9c-.3.3-.6.5-1.1.6a3.38 3.38 0 0 1-1.7.1c-.6-.2-1-.4-1.3-.8-.4-.6-.6-1.3-.6-2.2 0-1 .3-1.6.8-1.8.8-.3 1.8-.1 3.1.6s2.3 1.5 3 2.4l2.3 3.1m-5.8-4c-.3-.2-.6-.3-.8-.3a1.14 1.14 0 0 0-.6 0 .7.7 0 0 0-.4.4.5.5 0 0 0 .1.5c.1.1.2.2.4.2s.4 0 .6-.1c.2-.1.3-.2.5-.3.2-.1.3-.3.4-.5m-8.1-1.6l-.4 1.9-3.1-.3.5-2 3.2.3m7.2 7.8l-1.7.4a5.3 5.3 0 0 1-1.7.1 3.56 3.56 0 0 1-1.5-.5c-.3.5-.8.9-1.5 1.2a7.4 7.4 0 0 1-1.6.5l-1.2.2-1.1-2 1.2-.3c.6-.1 1.1-.3 1.3-.4.3-.1.6-.3.9-.5-.4-.2-.7-.4-.9-.5-.3-.1-.5-.1-.8-.1a.4.4 0 0 0-.2.1.6.6 0 0 0-.1.2l-.6.1c-.5-.9-.6-1.6-.3-2.1s.9-.8 1.96-1.1c1.1-.2 2-.3 2.7-.1.77.1 1.3.4 1.5.9.17.3.2.5.2.8-.05.3-.2.7-.4 1.2.15 0 .33.1.54.1a2 2 0 0 0 .55-.1l1.7-.4 1.1 2m-8 1.9l-1.6.23c-.9.2-1.7 0-2.3-.4-.7-.4-1.2-1.3-1.7-2.6l-.8-2.1c-.2-.5-.4-.8-.75-1.1-.16-.1-.47-.2-.9-.4l.53-2.1c.6.4 1.1.7 1.4 1.1.4.44.7 1 1 1.72l.5 1.5c.4 1.03.8 1.74 1.14 2.12.3.3.6.4 1 .4l1.63-.2.8 2m-7-7.5l-1.06 1.82-3-.7 1.04-1.9 2.9.7m1.78 8.4l-7.44.7-.4-2.1 6.3-.6a2.32 2.32 0 0 0-.7-.8c-.18-.1-.5-.36-1-.6l.55-2c.7.4 1.2.8 1.5 1.3.4.5.6 1.2.8 2.1l.5 2.05m-5.9 1c-.9-.05-1.6-.1-2.2-.2a10.5 10.5 0 0 1-1.7-.47 5.6 5.6 0 0 1-1.3.4c-.4 0-.9.1-1.6 0l-2-.1c-.5 0-1-.1-1.3-.3-.2-.2-.5-.5-.7-1a4.12 4.12 0 0 1-1.5.9c-.44.1-1 .2-1.7.17H309l.17-2.1 1.7.06c.8.04 1.5-.1 2.1-.4.75-.35 1.2-.95 1.23-1.76l.72.1-.1.6-.06.7c0 .3.1.5.38.7.28.2.6.3.9.3l1.5.1c1 0 1.7 0 2.1-.2.5-.2.8-.6.9-1.1 0-.2.1-.3.2-.4l.5-.24.5-.2v.4a8.87 8.87 0 0 1 0 .3c0 .3-.1.7-.3 1.1l1 .3 1.2.2c0-.2-.1-.4-.27-.7s-.3-.5-.3-.6a.52.52 0 0 1 .1-.3s.1-.1.3-.2l1.1-.83c.2.4.3.7.4.9.06.3.1.6.05 1l-.2 3m-11.3-8.7l-1.9 1.4-1.4-.9-1.45 1-1.9-1.15 1.8-1.3 1.5.83 1.4-1.06 1.84 1.1m-2.9 8.1l-7.3-1.2.8-2.1 6.2 1c.1-.3 0-.67-.1-.9-.1-.2-.2-.48-.5-.87l1.7-1.6c.4.57.6 1.1.7 1.6 0 .5-.13 1.2-.5 2.1l-.76 2m-6.2-.9l-1.54-.4c-.9-.2-1.4-.6-1.5-1.15-.2-.6.1-1.5.8-2.73l1.2-2.1c.24-.5.4-.86.3-1.2 0-.14-.1-.4-.37-.7l2.2-1.56c.2.5.3.9.23 1.35-.1.5-.3 1.1-.7 1.8l-.9 1.4c-.6 1-.9 1.74-.9 2.2 0 .34.2.6.53.7l1.6.3-1.1 2m-3.7-7.9l-2.6 1.1-1.9-1.7 2.6-1.1 1.7 1.7m-1.1 6.6c-.5.6-1.1 1.1-1.6 1.4a4.24 4.24 0 0 1-1.7.6c-.6 0-1.4 0-2.4-.1a14.84 14.84 0 0 1-2.8-.7c-1.7-.6-2.9-1.3-3.5-2.1-.6-.7-.57-1.5.06-2.2a7.02 7.02 0 0 1 1.9-1.6c.87-.4 2.1-1 3.87-1.6l.4.5c-1.4.5-2.3.9-2.8 1.2-.5.3-.9.6-1.2 1-.4.5-.3 1 .2 1.6.57.6 1.48 1.1 2.77 1.6 1.2.5 2.4.7 3.6.7 1.1 0 1.8-.2 2.2-.7.2-.3.4-.6.5-.9.1-.3.1-.9.1-1.7l2.5-1.5c0 .7-.1 1.3-.1 1.5-.2.5-.5 1-1 1.6l-1.2 1.4" fill="#bf0000"/>
</svg>
