<svg xmlns="http://www.w3.org/2000/svg" height="480" width="640" viewBox="0 0 640 480">
  <defs>
    <clipPath id="a">
      <path fill-opacity=".7" d="M0 0h640v480H0z"/>
    </clipPath>
  </defs>
  <g clip-path="url(#a)">
    <path fill-rule="evenodd" fill="#fff" d="M.4.4H403v240H.5z"/>
    <path d="M.4.4v18l96 59.3 36.3 1.3L.4.4z" fill="#c00"/>
    <path d="M41.6.4l116.5 73V.4H42z" fill="#006"/>
    <path d="M173.6.4v93.3H.4V147h173.2v93.2H227V147h173V93.7H227V.4h-53.4z" fill="#c00"/>
    <path d="M242.4.4v69L356.4.8l-114-.6z" fill="#006"/>
    <path d="M246 76.8l32-.4L402.7 1l-33 .6L246 76.8z" fill="#c00"/>
    <path d="M401.3 21l-95 56.7 93.8.4v85h-80l80 52 1 27h-42l-116-69v68h-85v-69L50 240l-49 .2V480h799V.4L402 0M.4 27L0 77l84.2 1L.4 27zm0 135.5v51l80-50.5-80-.5z" fill="#006"/>
    <path d="M308.2 164.6l-33.3-.3 125 75-1-17-92-57.7zm-276.6 76l117.8-74.2-31 .3-118 73.8" fill="#c00"/>
    <path d="M525.4 247.8l2 2-2-2z" fill="#49497d"/>
    <path d="M527.4 247.8l2 2-2-2z" fill="#0e0e6e"/>
    <path d="M521.3 249.8l2 2-2-2z" fill="#262678"/>
    <path d="M523.3 249.8l2 2-2-2z" fill="#808067"/>
    <path d="M529.4 249.8l2 2-2-2z" fill="#58587b"/>
    <path d="M454.3 252l2 2-2-2z" fill="#0e0e6e"/>
    <path d="M517.3 252l2 2-2-2z" fill="#1b1b74"/>
    <path d="M519.3 252l2 2-2-2z" fill="#6e6c70"/>
    <path d="M458 255.5c0 52.5-6.2 111.6 33 152.7 8 8.4 23.3 27.7 36.4 27 13.7-.8 31.4-21 39.3-31 34-44.8 28.6-98.2 29.7-150.2-15.3 7-23 9.2-36.4 9-10 1.2-25.3-5.5-34.5-10-6 4-14.7 9-30.4 9.4-18 .8-23-2.3-37-7z" fill="#cc3"/>
    <path d="M531.5 252l2 2-2-2z" fill="#99994e"/>
    <path d="M533.5 252l2 2-2-2z" fill="#49497d"/>
    <path d="M596.4 252l2 2-2-2z" fill="#0e0e6e"/>
    <path d="M456.4 254l2 2-2-2z" fill="#a4a43d"/>
    <path d="M458.4 254l2 2-2-2z" fill="#6e6c70"/>
    <path d="M460.4 254l2 2-2-2z" fill="#3a3a7c"/>
    <path d="M513.2 254l2 2-2-2z" fill="#1b1b74"/>
    <path d="M515.2 254l2 2-2-2z" fill="#6e6c70"/>
    <path d="M517.3 254l2 2-2-2z" fill="#a4a43d"/>
    <path d="M525.4 254l2 2-2-2z" fill="#d0d045"/>
    <path d="M533.5 254l2 2-2-2z" fill="#a4a43d"/>
    <path d="M535.5 254l2 2-2-2z" fill="#8d8d5b"/>
    <path d="M537.6 254l2 2-2-2z" fill="#3a3a7c"/>
    <path d="M590.3 254l2 2-2-2z" fill="#262678"/>
    <path d="M592.4 254l2 2-2-2z" fill="#53527c"/>
    <path d="M594.4 254l2 2-2-2z" fill="#8d8d5b"/>
    <path d="M464.5 256l2 2-2-2z" fill="#737370"/>
    <path d="M466.5 256l2 2-2-2z" fill="#53527c"/>
    <path d="M468.5 256l2 2-2-2z" fill="#1b1b74"/>
    <path d="M509 256l2.2 2-2-2z" fill="#262678"/>
    <path d="M511.2 256l2 2-2-2z" fill="#6e6c70"/>
    <path d="M513.2 256l2 2-2-2z" fill="#a4a43d"/>
    <path d="M523.3 256l2 2-2-2z" fill="#e5e59d"/>
    <path d="M462 261.2c-1 27.6-.2 58.6 4 88 5 15.5 4.2 24 11.3 33.2l99-.8c6-9.7 10.5-24.4 11-30.3 5.6-29.7 5.7-62.6 5.8-92-9 5.3-23 9-35 7.4-10-.8-19-3-30-9.2-9 5.6-12 8.2-28 9-12 .5-22 1.5-36-5.3z" fill="#fff"/>
    <path d="M527.4 256l2 2-2-2z" fill="#f2f1d7"/>
    <path d="M529.4 256l2 2-2-2z" fill="#d9d868"/>
    <path d="M537.6 256l2 2-2-2z" fill="#a4a43d"/>
    <path d="M539.6 256l2 2-2-2z" fill="#99994e"/>
    <path d="M541.6 256l2 2-2-2z" fill="#49497d"/>
    <path d="M543.6 256l2 2-2-2z" fill="#0e0e6e"/>
    <path d="M584.3 256l2 2-2-2z" fill="#3a3a7c"/>
    <path d="M586.3 256l2 2-2-2z" fill="#667"/>
    <path d="M588.3 256l2 2-2-2z" fill="#99994e"/>
    <path d="M590.3 256l2 2-2-2m-121.8 2l2 2-2-2z" fill="#a4a43d"/>
    <path d="M470.6 258l2 2-2-2z" fill="#99994e"/>
    <path d="M472.6 258l2 2-2-2z" fill="#6e6c70"/>
    <path d="M474.6 258l2 2-2-2z" fill="#49497d"/>
    <path d="M476.6 258l2 2-2-2m26.4 0l2 2-2-2z" fill="#1b1b74"/>
    <path d="M505 258l2 2-2-2z" fill="#53527c"/>
    <path d="M507 258l2 2-2-2z" fill="#8d8d5b"/>
    <path d="M509 258l2.2 2-2-2z" fill="#a4a43d"/>
    <path d="M519.3 258l2 2-2-2z" fill="#e5e59d"/>
    <path d="M521.3 258l2 2-2-2z" fill="#fbfaf2"/>
    <path d="M531.5 258l2 2-2-2z" fill="#f2f1d2"/>
    <path d="M533.5 258l2 2-2-2z" fill="#d9d868"/>
    <path d="M543.6 258l2 2-2-2z" fill="#a4a43d"/>
    <path d="M545.7 258l2 2-2-2z" fill="#6e6c70"/>
    <path d="M547.7 258l2 2-2-2z" fill="#3a3a7c"/>
    <path d="M574 258l2 2-2-2z" fill="#0e0e6e"/>
    <path d="M576 258l2.2 2-2-2z" fill="#32327b"/>
    <path d="M578.2 258l2 2-2-2z" fill="#58587b"/>
    <path d="M580.2 258l2 2-2-2z" fill="#808067"/>
    <path d="M583.6 258.6l1.3.7-2-.7z" fill="#a4a43d"/>
    <path d="M460.4 260l2 2-2-2z" fill="#dddc7a"/>
    <path d="M462.4 260l2 2-2-2z" fill="#d0d045"/>
    <path d="M478 260.7l1.4.6-1.4-.6z" fill="#a4a43d"/>
    <path d="M480.7 260l2 2-2-2z" fill="#808067"/>
    <path d="M482.7 260l2 2-2-2z" fill="#667"/>
    <path d="M484.8 260l2 2-2-2z" fill="#58587b"/>
    <path d="M486.8 260l2 2-2-2z" fill="#49497d"/>
    <path d="M499 260l2 2-2-2z" fill="#737370"/>
    <path d="M501 260l2 2-2-2z" fill="#99994e"/>
    <path d="M503 260l2 2-2-2z" fill="#a4a43d"/>
    <path d="M515.2 260l2 2-2-2z" fill="#e5e59d"/>
    <path d="M517.3 260l2 2-2-2z" fill="#fbfaf2"/>
    <path d="M535.5 260l2 2-2-2z" fill="#f2f1d2"/>
    <path d="M537.6 260l2 2-2-2z" fill="#d9d868"/>
    <path d="M549 260.7l1.4.6-1.3-.6z" fill="#a4a43d"/>
    <path d="M551.8 260l2 2-2-2z" fill="#808067"/>
    <path d="M553.8 260l2 2-2-2z" fill="#667"/>
    <path d="M555.8 260l2 2-2-2z" fill="#58587b"/>
    <path d="M558 260l2 2-2-2z" fill="#3a3a7c"/>
    <path d="M567.3 260.7l1.4.6-1.4-.6z" fill="#58587b"/>
    <path d="M570 260l2 2-2-2z" fill="#737370"/>
    <path d="M572 260l2 2-2-2z" fill="#99994e"/>
    <path d="M574 260l2 2-2-2z" fill="#a4a43d"/>
    <path d="M590.3 260l2 2-2-2z" fill="#dddc7a"/>
    <path d="M592.4 260l2 2-2-2z" fill="#d0d045"/>
    <path d="M464.5 262l2 2-2-2z" fill="#f2f1d7"/>
    <path d="M466.5 262l2 2-2-2z" fill="#e0dea1"/>
    <path d="M468.5 262l2 2-2-2z" fill="#dddc7a"/>
    <path d="M509 262l2.2 2-2-2z" fill="#d9d868"/>
    <path d="M511.2 262l2 2-2-2z" fill="#e5e3af"/>
    <path d="M539.6 262l2 2-2-2z" fill="#f6f6e4"/>
    <path d="M541.6 262l2 2-2-2z" fill="#e1e18c"/>
    <path d="M582.2 262l2 2-2-2z" fill="#d4d456"/>
    <path d="M584.3 262l2 2-2-2z" fill="#e1e18c"/>
    <path d="M586.3 262l2 2-2-2z" fill="#eeedc1"/>
    <path d="M472.6 264l2 2-2-2z" fill="#f2f1d2"/>
    <path d="M474.6 264l2 2-2-2z" fill="#e0dea1"/>
    <path d="M476.6 264l2 2-2-2z" fill="#dddc7a"/>
    <path d="M478.7 264l2 2-2-2z" fill="#d0d045"/>
    <path d="M503 264l2 2-2-2z" fill="#dddc7a"/>
    <path d="M505 264l2 2-2-2z" fill="#e5e3af"/>
    <path d="M507 264l2 2-2-2z" fill="#f6f6e4"/>
    <path d="M545.7 264l2 2-2-2z" fill="#eeedc1"/>
    <path d="M547.7 264l2 2-2-2z" fill="#e1e18c"/>
    <path d="M549.7 264l2 2-2-2z" fill="#d4d456"/>
    <path d="M574 264l2 2-2-2z" fill="#d9d868"/>
    <path d="M576 264l2.2 2-2-2z" fill="#e1e18c"/>
    <path d="M578.2 264l2 2-2-2z" fill="#eeedc1"/>
    <path d="M580.2 264l2 2-2-2z" fill="#f6f6e4"/>
    <path d="M482.7 266l2 2-2-2z" fill="#f2f1d7"/>
    <path d="M484.8 266l2 2-2-2z" fill="#f2f1d2"/>
    <path d="M486.8 266l2 2-2-2z" fill="#eeedc1"/>
    <path d="M496.3 266.7l1.3.7-1.3-.7z" fill="#f2f1d2"/>
    <path d="M499 266l2 2-2-2z" fill="#fbfaf2"/>
    <path d="M509 266l4.2 4v-4h-4z" fill="#fef8f1"/>
    <path d="M553.8 266l2 2-2-2z" fill="#f2f1d7"/>
    <path d="M555.8 266l2 2-2-2z" fill="#f2f1d2"/>
    <path d="M558 266l2 2-2-2z" fill="#e5e3af"/>
    <path d="M561.3 266.7l1.3.7-1.4-.7z" fill="#e5e59d"/>
    <path d="M564 266l2 2-2-2z" fill="#e0dea1"/>
    <path d="M567.3 266.7l1.4.7-1.4-.7z" fill="#f2f1d2"/>
    <path d="M570 266l2 2-2-2z" fill="#fbfaf2"/>
    <path d="M505 268l2 2-2-2z" fill="#fef8f1"/>
    <path d="M507 268l2 2-2-2z" fill="#fbbe66"/>
    <path d="M505 270l2 2.2-2-2z" fill="#fbc477"/>
    <path d="M509 270l2.2 2.2-2-2z" fill="#fcb144"/>
    <path d="M505 272.2l2 2-2-2z" fill="#fe9f11"/>
    <path d="M509 272.2l2.2 2-2-2z" fill="#fea522"/>
    <path d="M503 274.2l2 2-2-2m8.2 0l2 2-2-2z" fill="#fae3c9"/>
    <path d="M521.3 274.2l2 2-2-2z" fill="#fbead6"/>
    <path d="M523.3 274.2l2 2-2-2z" fill="#f9d6aa"/>
    <path d="M531.5 274.2l2 2-2-2z" fill="#fae3c9"/>
    <path d="M533.5 274.2l2 2-2-2z" fill="#fef8f1"/>
    <path d="M503 276.2l2 2-2-2z" fill="#f9d099"/>
    <path d="M511.2 276.2l2 2-2-2z" fill="#fdab33"/>
    <path d="M515.2 276.2l2 2-2-2z" fill="#fcf1e4"/>
    <path d="M517.3 276.2l2 2-2-2z" fill="#fbc477"/>
    <path d="M519.3 276.2l2 2-2-2z" fill="#fea522"/>
    <path d="M535.5 276.2l2 2-2-2z" fill="#fcb755"/>
    <path d="M537.6 276.2l2 2-2-2z" fill="#f9d6aa"/>
    <path d="M503 278.3l2 2-2-2z" fill="#faca88"/>
    <path d="M513.2 278.3l2 2-2-2m26.4 0l2 2-2-2z" fill="#fea522"/>
    <path d="M541.6 278.3l2 2-2-2z" fill="#f8dcbb"/>
    <path d="M460.4 280.3l2 2-2-2z" fill="#f6f6e4"/>
    <path d="M503 280.3l2 2-2-2z" fill="#fbc477"/>
    <path d="M543.6 280.3l2 2-2-2z" fill="#fbbe66"/>
    <path d="M545.7 280.3l2 2-2-2z" fill="#f8dcbb"/>
    <path d="M503 282.3l2 2-2-2z" fill="#faca88"/>
    <path d="M549.7 282.3l2 2-2-2z" fill="#fcb755"/>
    <path d="M551.8 282.3l2 2-2-2z" fill="#f8dcbb"/>
    <path d="M501 284.3l2 2-2-2z" fill="#fef8f1"/>
    <path d="M503 284.3l2 2-2-2z" fill="#fe9f11"/>
    <path d="M560 284.3l2 2-2-2z" fill="#fdab33"/>
    <path d="M562 284.3l2 2-2-2z" fill="#fcb144"/>
    <path d="M564 284.3l2 2-2-2z" fill="#fbc477"/>
    <path d="M566 284.3l4 4-4-4z" fill="#f9d6aa"/>
    <path d="M568 284.3l2 2-2-2z" fill="#fef8f1"/>
    <path d="M501 286.4l2 2-2-2z" fill="#fcb144"/>
    <path d="M529.4 286.4l2 2-2-2z" fill="#fdab33"/>
    <path d="M531.5 286.4l2 2-2-2zm8 0l2 2-2-2z" fill="#fbc477"/>
    <path d="M541.6 286.4l2 2-2-2z" fill="#fea522"/>
    <path d="M499 288.4l2 2-2-2z" fill="#fae3c9"/>
    <path d="M525.4 288.4l2 2-2-2z" fill="#fcb144"/>
    <path d="M527.4 288.4l2 2-2-2z" fill="#fae3c9"/>
    <path d="M543.6 288.4l2 2-2-2z" fill="#f8dcbb"/>
    <path d="M545.7 288.4l2 2-2-2z" fill="#fdab33"/>
    <path d="M558 288.4l2 2-2-2z" fill="#fe9f11"/>
    <path d="M560 288.4l2 2-2-2z" fill="#fcb755"/>
    <path d="M562 288.4l2 2-2-2z" fill="#f9d099"/>
    <path d="M564 288.4l2 2-2-2z" fill="#fbead6"/>
    <path d="M499 290.4l2 2-2-2z" fill="#fcb144"/>
    <path d="M523.3 290.4l2 2-2-2z" fill="#fbbe66"/>
    <path d="M547.7 290.4l2 2-2-2z" fill="#f9d099"/>
    <path d="M555.8 290.4l2 2-2-2z" fill="#fbead6"/>
    <path d="M497 292.5l2 2-2-2z" fill="#fcf1e4"/>
    <path d="M521.3 292.5l2 2-2-2z" fill="#fbbe66"/>
    <path d="M549.7 292.5l2 2-2-2z" fill="#f9d099"/>
    <path d="M555.8 292.5l2 2-2-2z" fill="#fae3c9"/>
    <path d="M497 294.5l2 2-2-2z" fill="#fbc477"/>
    <path d="M519.3 294.5l2 2-2-2m32.5 0l2 2-2-2z" fill="#fcb144"/>
    <path d="M555.8 294.5l2 2-2-2z" fill="#fbbe66"/>
    <path d="M460.4 296.5l2 2-2-2z" fill="#f6f6e4"/>
    <path d="M497 296.5l2 2-2-2z" fill="#fea522"/>
    <path d="M519.3 296.5l2 2-2-2z" fill="#fbead6"/>
    <path d="M551.8 296.5l2 2-2-2z" fill="#fcf1e4"/>
    <path d="M558 296.5l2 2-2-2z" fill="#fef8f1"/>
    <path d="M495 298.6l2 2-2-2z" fill="#fcf1e4"/>
    <path d="M517.3 298.6l2 2-2-2z" fill="#fbbe66"/>
    <path d="M553.8 298.6l2 2-2-2z" fill="#faca88"/>
    <path d="M558 298.6l2 2-2-2z" fill="#f9d099"/>
    <path d="M495 300.6l2 2-2-2z" fill="#f9d6aa"/>
    <path d="M517.3 300.6l2 2-2-2z" fill="#fcf1e4"/>
    <path d="M527.4 300.6l2 2-2-2z" fill="#fae3c9"/>
    <path d="M529.4 300.6l2 2-2-2z" fill="#fea522"/>
    <path d="M531.5 300.6l2 2-2-2z" fill="#fcb144"/>
    <path d="M533.5 300.6l2 2-2-2z" fill="#f9d6aa"/>
    <path d="M553.8 300.6l2 2-2-2z" fill="#fef8f1"/>
    <path d="M555.8 300.6l2 2-2-2z" fill="#fea522"/>
    <path d="M558 300.6l2 2-2-2z" fill="#fdab33"/>
    <path d="M495 302.6l-2 6 2-6z" fill="#faca88"/>
    <path d="M515.2 302.6l2 2-2-2z" fill="#fea522"/>
    <path d="M517.3 302.6l2 2-2-2z" fill="#fef8f1"/>
    <path d="M527.4 302.6l2 2-2-2z" fill="#f9d099"/>
    <path d="M535.5 302.6l2 2-2-2z" fill="#fdab33"/>
    <path d="M537.6 302.6l2 2-2-2z" fill="#fae3c9"/>
    <path d="M555.8 302.6l2 2-2-2z" fill="#f8dcbb"/>
    <path d="M558 302.6l2 2-2-2z" fill="#f90"/>
    <path d="M560.6 304l.6 1.3-.6-1.3z" fill="#fbead6"/>
    <path d="M519.3 304.6l2 2-2-2z" fill="#fea522"/>
    <path d="M521.3 304.6l2 2-2-2z" fill="#fbbe66"/>
    <path d="M523.3 304.6l2 2-2-2z" fill="#faca88"/>
    <path d="M525.4 304.6l2 2-2-2z" fill="#fcb144"/>
    <path d="M527.4 304.6l2 2-2-2z" fill="#fae3c9"/>
    <path d="M529.4 304.6l2 2-2-2z" fill="#fe9f11"/>
    <path d="M539.6 304.6l2 2-2-2z" fill="#fdab33"/>
    <path d="M541.6 304.6l2 2-2-2z" fill="#fbc477"/>
    <path d="M543.6 304.6l2 2-2-2z" fill="#faca88"/>
    <path d="M545.7 304.6l2 2-2-2z" fill="#f9d6aa"/>
    <path d="M549 305.3l1.4.7-1.3-.7z" fill="#fae3c9"/>
    <path d="M551.8 304.6l2 2-2-2z" fill="#fef8f1"/>
    <path d="M558 304.6l2 2-2-2z" fill="#fbc477"/>
    <path d="M470.6 306.7l2 2-2-2z" fill="#fef8f1"/>
    <path d="M472.6 306.7l2 2-2-2z" fill="#fcf1e4"/>
    <path d="M525.4 306.7l2 2-2-2z" fill="#fcb755"/>
    <path d="M529.4 306.7l2 2-2-2z" fill="#fbead6"/>
    <path d="M531.5 306.7l2 2-2-2z" fill="#fea522"/>
    <path d="M547.7 306.7l2 2-2-2z" fill="#fe9f11"/>
    <path d="M549.7 306.7l-2 4 2-4z" fill="#fcb144"/>
    <path d="M553.8 306.7l2 2-2-2z" fill="#fe9f11"/>
    <path d="M555.8 306.7l2 2-2-2z" fill="#fbbe66"/>
    <path d="M558 306.7l2 2-2-2z" fill="#fcf1e4"/>
    <path d="M470.6 308.7l2 2-2-2z" fill="#fae3c9"/>
    <path d="M472.6 308.7l4 4-4-4z" fill="#fe9f11"/>
    <path d="M474.6 308.7l2 2-2-2zm18.3 0l2 2-2-2z" fill="#fbead6"/>
    <path d="M495 308.7l2 2-2-2z" fill="#fae3c9"/>
    <path d="M513.2 308.7l2 2-2-2z" fill="#fe9f11"/>
    <path d="M515.2 308.7l2 2-2-2z" fill="#fbc477"/>
    <path d="M517.3 308.7l2 2-2-2z" fill="#fea522"/>
    <path d="M523.3 308.7l2 2-2-2z" fill="#fbc477"/>
    <path d="M525.4 308.7l2 2-2-2z" fill="#fef8f1"/>
    <path d="M533.5 308.7l2 2-2-2z" fill="#fbc477"/>
    <path d="M549.7 308.7l2 2-2-2z" fill="#fff"/>
    <path d="M551.8 308.7l2 2-2-2z" fill="#fdab33"/>
    <path d="M560 308.7l2 2-2-2z" fill="#fbc477"/>
    <path d="M470.6 310.7l2 2-2-2z" fill="#fef8f1"/>
    <path d="M476.6 310.7l2 2-2-2z" fill="#fbead6"/>
    <path d="M486.8 310.7l2 2-2-2z" fill="#f9d6aa"/>
    <path d="M497 310.7l2 2-2-2z" fill="#fe9f11"/>
    <path d="M500.3 311.4l1.4.7h-1.4z" fill="#f9d6aa"/>
    <path d="M513.2 310.7l2 2-2-2z" fill="#f8dcbb"/>
    <path d="M519.3 310.7l2 2-2-2z" fill="#fcf1e4"/>
    <path d="M535.5 310.7l2 2-2-2z" fill="#f9d6aa"/>
    <path d="M549.7 310.7l2 2-2-2z" fill="#fdab33"/>
    <path d="M562 310.7l2 2-2-2z" fill="#fcb755"/>
    <path d="M564 310.7l2 2-2-2z" fill="#fef8f1"/>
    <path d="M454.3 312.8l2 2-2-2z" fill="#53527c"/>
    <path d="M472.6 312.8l2 2-2-2z" fill="#fcb755"/>
    <path d="M476.6 312.8l2 2-2-2z" fill="#fea522"/>
    <path d="M484.8 312.8l2 2-2-2z" fill="#fbead6"/>
    <path d="M488.8 312.8l2 2-2-2z" fill="#fe9f11"/>
    <path d="M491 312.8l2 2-2-2z" fill="#fcf1e4"/>
    <path d="M497 312.8l2 2-2-2z" fill="#fbbe66"/>
    <path d="M499 312.8l2 2-2-2z" fill="#fbc477"/>
    <path d="M501 312.8l2 2-2-2z" fill="#fbbe66"/>
    <path d="M511.2 312.8l2 2-2-2z" fill="#fea522"/>
    <path d="M537.6 312.8l2 2-2-2z" fill="#f9d6aa"/>
    <path d="M564 312.8l2 2-2-2z" fill="#fcb144"/>
    <path d="M596.4 312.8l2 2-2-2z" fill="#8d8d5b"/>
    <path d="M460.4 314.8l2 2-2-2z" fill="#e5e3af"/>
    <path d="M472.6 314.8l2 2-2-2z" fill="#f8dcbb"/>
    <path d="M478.7 314.8l2 2-2-2z" fill="#fdab33"/>
    <path d="M484.8 314.8l2 2-2-2z" fill="#fe9f11"/>
    <path d="M488.8 314.8l2 2-2-2z" fill="#faca88"/>
    <path d="M497 314.8l2 2-2-2z" fill="#fcf1e4"/>
    <path d="M511.2 314.8l2 2-2-2m28.4 0l2 2-2-2z" fill="#f9d099"/>
    <path d="M566 314.8l2 2-2-2z" fill="#fbbe66"/>
    <path d="M474.6 316.8l2 2-2-2z" fill="#fea522"/>
    <path d="M480.7 316.8l2 2-2-2z" fill="#fdab33"/>
    <path d="M482.7 316.8l2 2-2-2z" fill="#fea522"/>
    <path d="M486.8 316.8l2 2-2-2z" fill="#fe9f11"/>
    <path d="M488.8 316.8l2 2-2-2z" fill="#fef8f1"/>
    <path d="M499 316.8l2 2-2-2z" fill="#fbbe66"/>
    <path d="M511.2 316.8l2 2-2-2z" fill="#fef8f1"/>
    <path d="M541.6 316.8l2 2-2-2z" fill="#fbbe66"/>
    <path d="M568 316.8l2 2-2-2z" fill="#f9d099"/>
    <path d="M474.6 319l2 2-2-2z" fill="#f9d6aa"/>
    <path d="M486.8 319l2 2-2-2z" fill="#f9d099"/>
    <path d="M499 319l2 2-2-2z" fill="#fcf1e4"/>
    <path d="M509 319l2.2 2-2-2m34.4 0l2 2-2-2z" fill="#fdab33"/>
    <path d="M570 319l2 2-2-2z" fill="#fbead6"/>
    <path d="M476.6 321l2 2-2-2z" fill="#fea522"/>
    <path d="M484.8 321l2 2-2-2z" fill="#fe9f11"/>
    <path d="M501 321l2 2-2-2z" fill="#fcb144"/>
    <path d="M509 321l2.2 2-2-2z" fill="#faca88"/>
    <path d="M543.6 321l2 2-2-2z" fill="#f8dcbb"/>
    <path d="M570 321l2 2-2-2z" fill="#fcb144"/>
    <path d="M460.4 323l2 2-2-2z" fill="#d3d079"/>
    <path d="M476.6 323l2 2-2-2zm24.4 0l2 2-2-2z" fill="#faca88"/>
    <path d="M509 323l2.2 2-2-2m34.4 0l2 2-2-2z" fill="#fae3c9"/>
    <path d="M572 323l2 2-2-2z" fill="#f8dcbb"/>
    <path d="M590.3 323l2 2-2-2z" fill="#f2f1d7"/>
    <path d="M597 324.3l.8 1.3-.7-1.3z" fill="#58587b"/>
    <path d="M461 326.3l.8 1.4-.7-1.4z" fill="#d9d868"/>
    <path d="M476.6 325l2 2-2-2z" fill="#f8dcbb"/>
    <path d="M541.6 325l2 2-2-2z" fill="#f9d6aa"/>
    <path d="M543.6 325l2 2-2-2z" fill="#fe9f11"/>
    <path d="M572 325l2 2-2-2z" fill="#fcb144"/>
    <path d="M591 326.3l.7 1.4-.7-1.4z" fill="#f2f1d2"/>
    <path d="M476.6 327l2 2-2-2z" fill="#fcf1e4"/>
    <path d="M539.6 327l2 2-2-2z" fill="#fef8f1"/>
    <path d="M541.6 327l2 2-2-2z" fill="#fe9f11"/>
    <path d="M547.7 327l-2 4 2-4z" fill="#fdab33"/>
    <path d="M549.7 327l2 2-2-2z" fill="#fcb755"/>
    <path d="M574 327l2 2-2-2z" fill="#fea522"/>
    <path d="M576 327l2.2 2-2-2z" fill="#f9d099"/>
    <path d="M596.4 327l2 2-2-2z" fill="#53527c"/>
    <path d="M457 330.4l.7 1.3-.7-1.3z" fill="#808067"/>
    <path d="M478.7 329l2 2-2-2m6 0l2 2-2-2z" fill="#fea522"/>
    <path d="M507 329l2 2-2-2z" fill="#fe9f11"/>
    <path d="M539.6 329l2 2-2-2z" fill="#fae3c9"/>
    <path d="M547.7 329l2 2-2-2z" fill="#fef8f1"/>
    <path d="M551.8 329l2 2-2-2z" fill="#fcb144"/>
    <path d="M578.2 329l2 2-2-2z" fill="#fcb755"/>
    <path d="M580.2 329l4 4-4-4z" fill="#fef8f1"/>
    <path d="M591 330.4l.7 1.3-.7-1.3z" fill="#e5e59d"/>
    <path d="M597 330.4l.8 1.3-.7-1.3z" fill="#32327b"/>
    <path d="M479.4 332.4l.6 1.4-.6-1.4z" fill="#fcb755"/>
    <path d="M486.8 331l2 2-2-2z" fill="#fef8f1"/>
    <path d="M507 331l2 2-2-2z" fill="#fbbe66"/>
    <path d="M539.6 331l2 2-2-2z" fill="#fbead6"/>
    <path d="M543.6 331l2 2-2-2z" fill="#fe9f11"/>
    <path d="M545.7 331l2 2-2-2z" fill="#fcf1e4"/>
    <path d="M551.8 331l2 2-2-2z" fill="#fbead6"/>
    <path d="M580.2 331l2 2-2-2z" fill="#fdab33"/>
    <path d="M456.4 333l2 2-2-2z" fill="#667"/>
    <path d="M462.4 333l2 2-2-2z" fill="#f6f6e4"/>
    <path d="M486.8 333l2 2-2-2z" fill="#f9d6aa"/>
    <path d="M503 333l2 2-2-2z" fill="#fdab33"/>
    <path d="M505 333l2 2-2-2z" fill="#fe9f11"/>
    <path d="M507 333l2 2-2-2z" fill="#fcf1e4"/>
    <path d="M541.6 333l2 2-2-2z" fill="#fea522"/>
    <path d="M543.6 333l2 2-2-2m10.2 0l2 2-2-2z" fill="#faca88"/>
    <path d="M582.2 333l2 2-2-2z" fill="#fcb144"/>
    <path d="M590.3 333l2 2-2-2z" fill="#dddc7a"/>
    <path d="M456.4 335l2 2-2-2z" fill="#58587b"/>
    <path d="M462.4 335l2 2-2-2z" fill="#f2f1d2"/>
    <path d="M479.4 336.5l.6 1.3-.6-1.3z" fill="#fcb144"/>
    <path d="M486.8 335l2 2-2-2z" fill="#fea522"/>
    <path d="M507 335l2 2-2-2z" fill="#fef8f1"/>
    <path d="M509 335l2.2 2-2-2z" fill="#fea522"/>
    <path d="M513.2 335l2 2-2-2z" fill="#fcb144"/>
    <path d="M515.2 335l2 2-2-2z" fill="#fbead6"/>
    <path d="M541.6 335l2 2-2-2z" fill="#f8dcbb"/>
    <path d="M543.6 335l2 2-2-2z" fill="#fcf1e4"/>
    <path d="M553.8 335l2 2-2-2z" fill="#fef8f1"/>
    <path d="M555.8 335l2 2-2-2z" fill="#fe9f11"/>
    <path d="M584.3 335l2 2-2-2z" fill="#fbead6"/>
    <path d="M590.3 335l2 2-2-2z" fill="#d9d868"/>
    <path d="M456.4 337l2 2.2-2-2z" fill="#3a3a7c"/>
    <path d="M462.4 337l2 2.2-2-2z" fill="#e5e3af"/>
    <path d="M488.8 337l2 2.2-2-2z" fill="#faca88"/>
    <path d="M509 337l2.2 2.2-2-2z" fill="#fbead6"/>
    <path d="M515.2 337l2 2.2-2-2z" fill="#fe9f11"/>
    <path d="M517.3 337l2 2.2-2-2z" fill="#fcf1e4"/>
    <path d="M539.6 337l2 2.2-2-2z" fill="#fbead6"/>
    <path d="M541.6 337l2 2.2-2-2z" fill="#fae3c9"/>
    <path d="M543.6 337l2 2.2-2-2z" fill="#fbead6"/>
    <path d="M555.8 337l2 2.2-2-2m16.3 0l2 2-2-2z" fill="#fbbe66"/>
    <path d="M574 337l2 2.2-2-2z" fill="#fcf1e4"/>
    <path d="M576 337l2.2 2.2-2-2z" fill="#fef8f1"/>
    <path d="M578.2 337l2 2.2-2-2z" fill="#f8dcbb"/>
    <path d="M580.2 337l2 2.2-2-2z" fill="#fcb755"/>
    <path d="M584.3 337l2 2.2-2-2z" fill="#fae3c9"/>
    <path d="M594.4 337l2 2.2-2-2z" fill="#808067"/>
    <path d="M456.4 339.2l2 2-2-2z" fill="#32327b"/>
    <path d="M459 340.5l.7 1.4-.7-2z" fill="#a4a43d"/>
    <path d="M462.4 339.2l2 2-2-2z" fill="#e5e59d"/>
    <path d="M478.7 339.2l2 2-2-2z" fill="#fbc477"/>
    <path d="M491 339.2l2 2-2-2z" fill="#f9d6aa"/>
    <path d="M511.2 339.2l2 2-2-2z" fill="#fbbe66"/>
    <path d="M517.3 339.2l2 2-2-2z" fill="#f9d099"/>
    <path d="M535.5 339.2l2 2-2-2z" fill="#fae3c9"/>
    <path d="M537.6 339.2l2 2-2-2z" fill="#fcb144"/>
    <path d="M545.7 339.2l2 2-2-2z" fill="#fae3c9"/>
    <path d="M555.8 339.2l2 2-2-2z" fill="#f8dcbb"/>
    <path d="M572 339.2l2 2-2-2z" fill="#f9d099"/>
    <path d="M582.2 339.2l2 2-2-2z" fill="#fbc477"/>
    <path d="M584.3 339.2l2 2-2-2z" fill="#fbead6"/>
    <path d="M594.4 339.2l2 2-2-2z" fill="#737370"/>
    <path d="M462.4 341.2l2 2-2-2z" fill="#d9d868"/>
    <path d="M478.7 341.2l2 2-2-2z" fill="#f9d099"/>
    <path d="M493 341.2l2 2-2-2m18.2 0l2 2-2-2z" fill="#f9d6aa"/>
    <path d="M517.3 341.2l2 2-2-2z" fill="#fbc477"/>
    <path d="M527.4 341.2l2 2-2-2z" fill="#fef8f1"/>
    <path d="M529.4 341.2l2 2-2-2z" fill="#f8dcbb"/>
    <path d="M531.5 341.2l2 2-2-2z" fill="#fbc477"/>
    <path d="M533.5 341.2l2 2-2-2z" fill="#fea522"/>
    <path d="M545.7 341.2l2 2-2-2z" fill="#fbead6"/>
    <path d="M588.3 341.2l2 2-2-2z" fill="#f2f1d2"/>
    <path d="M594.4 341.2l2 2-2-2z" fill="#58587b"/>
    <path d="M458.4 343.2l2 2-2-2z" fill="#99994e"/>
    <path d="M462.4 343.2l2 2-2-2z" fill="#d0d045"/>
    <path d="M495 343.2l2 2-2-2z" fill="#fcb144"/>
    <path d="M497 343.2l2 2-2-2z" fill="#fae3c9"/>
    <path d="M511.2 343.2l2 2-2-2z" fill="#fef8f1"/>
    <path d="M519.3 343.2l2 2-2-2z" fill="#fcb755"/>
    <path d="M521.3 343.2l2 2-2-2z" fill="#fbc477"/>
    <path d="M523.3 343.2l2 2-2-2z" fill="#fcb144"/>
    <path d="M525.4 343.2l2 2-2-2z" fill="#fea522"/>
    <path d="M541.6 343.2l2 2-2-2z" fill="#fe9f11"/>
    <path d="M543.6 343.2l2 2-2-2z" fill="#f9d6aa"/>
    <path d="M572 343.2l2 2-2-2z" fill="#fef8f1"/>
    <path d="M588.3 343.2l2 2-2-2z" fill="#e0dea1"/>
    <path d="M594.4 343.2l2 2-2-2z" fill="#3a3a7c"/>
    <path d="M458.4 345.3l2 2-2-2z" fill="#737370"/>
    <path d="M464.5 345.3l2 2-2-2z" fill="#fbfaf2"/>
    <path d="M480.7 345.3l2 2-2-2z" fill="#fea522"/>
    <path d="M499 345.3l2 2-2-2z" fill="#fe9f11"/>
    <path d="M501 345.3l2 2-2-2z" fill="#fcb144"/>
    <path d="M503 345.3l2 2-2-2z" fill="#fbc477"/>
    <path d="M505 345.3l2 2-2-2z" fill="#faca88"/>
    <path d="M507 345.3l2 2-2-2z" fill="#fbc477"/>
    <path d="M509 345.3l2.2 2-2-2z" fill="#fcb144"/>
    <path d="M511.2 345.3l2 2-2-2z" fill="#fdab33"/>
    <path d="M539.6 345.3l2 2-2-2z" fill="#fbc477"/>
    <path d="M541.6 345.3l2 2-2-2z" fill="#fef8f1"/>
    <path d="M570 345.3l2 2-2-2z" fill="#fdab33"/>
    <path d="M588.3 345.3l2 2-2-2z" fill="#e1e18c"/>
    <path d="M593 346.6l.7 1.4-.7-1.4z" fill="#a4a43d"/>
    <path d="M594.4 345.3l2 2-2-2z" fill="#262678"/>
    <path d="M458.4 347.3l2 2-2-2z" fill="#58587b"/>
    <path d="M464.5 347.3l2 2-2-2z" fill="#f2f1d2"/>
    <path d="M480.7 347.3l2 2-2-2z" fill="#faca88"/>
    <path d="M535.5 347.3l2 2-2-2z" fill="#fe9f11"/>
    <path d="M537.6 347.3l2 2-2-2z" fill="#fbead6"/>
    <path d="M555.8 347.3l2 2-2-2z" fill="#fbc477"/>
    <path d="M570 347.3l2 2-2-2z" fill="#faca88"/>
    <path d="M588.3 347.3l2 2-2-2z" fill="#d4d456"/>
    <path d="M458.4 349.3l2 2-2-2z" fill="#32327b"/>
    <path d="M464.5 349.3l2 2-2-2z" fill="#e5e59d"/>
    <path d="M480.7 349.3l2 2-2-2z" fill="#fef8f1"/>
    <path d="M482.7 349.3l2 2-2-2z" fill="#fe9f11"/>
    <path d="M535.5 349.3l2 2-2-2z" fill="#fbead6"/>
    <path d="M555.8 349.3l2 2-2-2z" fill="#fea522"/>
    <path d="M570 349.3l2 2-2-2z" fill="#fcf1e4"/>
    <path d="M592.4 349.3l2 2-2-2z" fill="#808067"/>
    <path d="M458.4 351.3l2 2-2-2z" fill="#0e0e6e"/>
    <path d="M460.4 351.3l2 2-2-2z" fill="#a4a43d"/>
    <path d="M464.5 351.3l2 2-2-2z" fill="#d9d868"/>
    <path d="M482.7 351.3l2 2-2-2z" fill="#f8dcbb"/>
    <path d="M553.8 351.3l2 2-2-2z" fill="#f9d6aa"/>
    <path d="M568 351.3l2 2-2-2z" fill="#faca88"/>
    <path d="M586.3 351.3l2 2-2-2z" fill="#f2f1d2"/>
    <path d="M592.4 351.3l2 2-2-2z" fill="#58587b"/>
    <path d="M460.4 353.4l2 2-2-2z" fill="#8d8d5b"/>
    <path d="M484.8 353.4l2 2-2-2z" fill="#f9d6aa"/>
    <path d="M525.4 353.4l2 2-2-2z" fill="#fdab33"/>
    <path d="M527.4 353.4l2 2-2-2z" fill="#fff"/>
    <path d="M530.8 354l1.3.7-1-.7z" fill="#fcb144"/>
    <path d="M551.8 353.4l-2 4 2-4z" fill="#fef8f1"/>
    <path d="M553.8 353.4l2 2-2-2z" fill="#fe9f11"/>
    <path d="M566 353.4l-2 4 2-4z" fill="#fdab33"/>
    <path d="M586.3 353.4l2 2-2-2z" fill="#e5e59d"/>
    <path d="M592.4 353.4l2 2-2-2z" fill="#3a3a7c"/>
    <path d="M460.4 355.4l2 2-2-2z" fill="#667"/>
    <path d="M466.5 355.4l2 2-2-2z" fill="#f2f1d2"/>
    <path d="M486.8 355.4l2 2-2-2z" fill="#f9d6aa"/>
    <path d="M525.4 355.4l2 2-2-2z" fill="#fe9f11"/>
    <path d="M527.4 355.4l2 2-2-2z" fill="#faca88"/>
    <path d="M529.4 355.4l2 2-2-2z" fill="#fea522"/>
    <path d="M531.5 355.4l2 2-2-2z" fill="#fcf1e4"/>
    <path d="M551.8 355.4l2 2-2-2z" fill="#fdab33"/>
    <path d="M566 355.4l2 2-2-2z" fill="#fef8f1"/>
    <path d="M586.3 355.4l2 2-2-2z" fill="#d9d868"/>
    <path d="M590.3 355.4l2 2-2-2z" fill="#a4a43d"/>
    <path d="M592.4 355.4l2 2-2-2z" fill="#0e0e6e"/>
    <path d="M460.4 357.4l2 2-2-2z" fill="#3a3a7c"/>
    <path d="M466.5 357.4l2 2-2-2z" fill="#e5e59d"/>
    <path d="M488.8 357.4l4 4-4-4z" fill="#fae3c9"/>
    <path d="M491 357.4l2 2-2-2z" fill="#fe9f11"/>
    <path d="M529.4 357.4l2 2-2-2z" fill="#f8dcbb"/>
    <path d="M547.7 357.4l2 2-2-2z" fill="#fcf1e4"/>
    <path d="M549.7 357.4l2 2-2-2z" fill="#fdab33"/>
    <path d="M562 357.4l2 2-2-2z" fill="#fcb144"/>
    <path d="M564 357.4l2 2-2-2z" fill="#fef8f1"/>
    <path d="M584.3 357.4l2 2-2-2z" fill="#fbfaf2"/>
    <path d="M590.3 357.4l2 2-2-2z" fill="#8d8d5b"/>
    <path d="M460.4 359.5l2 2-2-2z" fill="#0e0e6e"/>
    <path d="M462.4 359.5l2 2-2-2z" fill="#a4a43d"/>
    <path d="M466.5 359.5l2 2-2-2z" fill="#d4d456"/>
    <path d="M527.4 359.5l2 2-2-2z" fill="#f9d6aa"/>
    <path d="M545.7 359.5l2 2-2-2z" fill="#f9d099"/>
    <path d="M547.7 359.5l2 2-2-2z" fill="#fe9f11"/>
    <path d="M560 359.5l2 2-2-2z" fill="#faca88"/>
    <path d="M584.3 359.5l2 2-2-2z" fill="#eeedc1"/>
    <path d="M590.3 359.5l2 2-2-2z" fill="#58587b"/>
    <path d="M462.4 361.5l2 2-2-2z" fill="#737370"/>
    <path d="M468.5 361.5l2 2-2-2z" fill="#f6f6e4"/>
    <path d="M491 361.5l2 2-2-2z" fill="#fbbe66"/>
    <path d="M523.3 361.5l2 2-2-2z" fill="#fcb144"/>
    <path d="M526 363l.7 1.2-.7-1.3z" fill="#f8dcbb"/>
    <path d="M541.6 361.5l2 2-2-2z" fill="#fbbe66"/>
    <path d="M543.6 361.5l2 2-2-2z" fill="#fe9f11"/>
    <path d="M555.8 361.5l2 2-2-2z" fill="#fbc477"/>
    <path d="M558 361.5l2 2-2-2z" fill="#fcf1e4"/>
    <path d="M584.3 361.5l2 2-2-2z" fill="#d3d079"/>
    <path d="M588.3 361.5l2 2-2-2z" fill="#a4a43d"/>
    <path d="M590.3 361.5l2 2-2-2z" fill="#262678"/>
    <path d="M462.4 363.5l2 2-2-2z" fill="#49497d"/>
    <path d="M468.5 363.5l2 2-2-2z" fill="#e0dea1"/>
    <path d="M488.8 363.5l2 2-2-2z" fill="#fae3c9"/>
    <path d="M517.3 363.5l2 2-2-2z" fill="#fdab33"/>
    <path d="M519.3 363.5l2 2-2-2z" fill="#fbc477"/>
    <path d="M521.3 363.5l2 2-2-2z" fill="#fbead6"/>
    <path d="M527.4 363.5l2 2-2-2z" fill="#fcb144"/>
    <path d="M553.8 363.5l2 2-2-2z" fill="#f9d6aa"/>
    <path d="M588.3 363.5l2 2-2-2z" fill="#99994e"/>
    <path d="M462.4 365.6l2 2-2-2z" fill="#0e0e6e"/>
    <path d="M464.5 365.6l2 2-2-2z" fill="#a4a43d"/>
    <path d="M468.5 365.6l2 2-2-2z" fill="#d4d456"/>
    <path d="M486.8 365.6l2 2-2-2z" fill="#f9d099"/>
    <path d="M488.8 365.6l2 2-2-2m10.2 0l2 2-2-2z" fill="#fe9f11"/>
    <path d="M501 365.6l2 2-2-2z" fill="#f9d6aa"/>
    <path d="M503 365.6l2 2-2-2z" fill="#f9d099"/>
    <path d="M511.2 365.6l2 2-2-2z" fill="#f9d6aa"/>
    <path d="M513.2 365.6l2 2-2-2z" fill="#fae3c9"/>
    <path d="M515.2 365.6l2 2-2-2z" fill="#fef8f1"/>
    <path d="M531.5 365.6l2 2-2-2z" fill="#fbead6"/>
    <path d="M533.5 365.6l2 2-2-2z" fill="#fae3c9"/>
    <path d="M535.5 365.6l2 2-2-2z" fill="#faca88"/>
    <path d="M537.6 365.6l2 2-2-2z" fill="#fbc477"/>
    <path d="M539.6 365.6l2 2-2-2z" fill="#fdab33"/>
    <path d="M549.7 365.6l2 2-2-2z" fill="#fe9f11"/>
    <path d="M551.8 365.6l2 2-2-2z" fill="#f9d6aa"/>
    <path d="M582.2 365.6l2 2-2-2z" fill="#e5e3af"/>
    <path d="M588.3 365.6l2 2-2-2z" fill="#667"/>
    <path d="M464.5 367.6l2 2-2-2z" fill="#737370"/>
    <path d="M470.6 367.6l2 2-2-2z" fill="#f2f1d7"/>
    <path d="M484.8 367.6l2 2-2-2z" fill="#fea522"/>
    <path d="M495 367.6l2 2-2-2z" fill="#fe9f11"/>
    <path d="M497 367.6l2 2-2-2z" fill="#fbbe66"/>
    <path d="M499 367.6l2 2-2-2z" fill="#fcf1e4"/>
    <path d="M547.7 367.6l2 2-2-2z" fill="#fea522"/>
    <path d="M549.7 367.6l2 2-2-2z" fill="#fbead6"/>
    <path d="M582.2 367.6l2 2-2-2z" fill="#dddc7a"/>
    <path d="M586.3 367.6l2 2-2-2z" fill="#a4a43d"/>
    <path d="M588.3 367.6l2 2-2-2z" fill="#262678"/>
    <path d="M464.5 369.6l2 2-2-2z" fill="#49497d"/>
    <path d="M467.2 371l.6 1.3-.6-1.3z" fill="#a4a43d"/>
    <path d="M470.6 369.6l2 2-2-2z" fill="#d3d079"/>
    <path d="M486.8 369.6l2 2-2-2z" fill="#f9d099"/>
    <path d="M488.8 369.6l2 2-2-2z" fill="#fcb144"/>
    <path d="M491 369.6l2 2-2-2z" fill="#faca88"/>
    <path d="M493 369.6l2 2-2-2z" fill="#f8dcbb"/>
    <path d="M495 369.6l2 2-2-2z" fill="#fef8f1"/>
    <path d="M539.6 369.6l2 2-2-2z" fill="#f8dcbb"/>
    <path d="M547.7 369.6l2 2-2-2z" fill="#fcf1e4"/>
    <path d="M580.2 369.6l2 2-2-2z" fill="#f6f6e4"/>
    <path d="M586.3 369.6l2 2-2-2z" fill="#8d8d5b"/>
    <path d="M472.6 371.6l2 2-2-2z" fill="#fbfaf2"/>
    <path d="M539.6 371.6l2 2-2-2z" fill="#fbbe66"/>
    <path d="M545.7 371.6l2 2-2-2z" fill="#faca88"/>
    <path d="M580.2 371.6l2 2-2-2z" fill="#e1e18c"/>
    <path d="M586.3 371.6l2 2-2-2z" fill="#49497d"/>
    <path d="M466.5 373.7l2 2-2-2z" fill="#58587b"/>
    <path d="M472.6 373.7l2 2-2-2z" fill="#e5e59d"/>
    <path d="M539.6 373.7l2 2-2-2z" fill="#fe9f11"/>
    <path d="M543.6 373.7l2 2-2-2z" fill="#fdab33"/>
    <path d="M578.2 373.7l2 2-2-2z" fill="#fbfaf2"/>
    <path d="M584.3 373.7l2 2-2-2z" fill="#a4a43d"/>
    <path d="M586.3 373.7l2 2-2-2z" fill="#0e0e6e"/>
    <path d="M466.5 375.7l2 2-2-2z" fill="#1b1b74"/>
    <path d="M468.5 375.7l2 2-2-2z" fill="#a4a43d"/>
    <path d="M472.6 375.7l2 2-2-2z" fill="#d0d045"/>
    <path d="M537.6 375.7l2 2-2-2z" fill="#fbead6"/>
    <path d="M541.6 375.7l2 2-2-2z" fill="#fe9f11"/>
    <path d="M543.6 375.7l2 2-2-2z" fill="#fbead6"/>
    <path d="M578.2 375.7l2 2-2-2z" fill="#e5e59d"/>
    <path d="M584.3 375.7l2 2-2-2z" fill="#667"/>
    <path d="M468.5 377.7l2 2-2-2z" fill="#6e6c70"/>
    <path d="M474.6 377.7l2 2-2-2z" fill="#e5e3af"/>
    <path d="M538.2 379l.7 1.4-1-1.3z" fill="#faca88"/>
    <path d="M541.6 377.7l2 2-2-2z" fill="#fae3c9"/>
    <path d="M576 377.7l2.2 2-2-2z" fill="#fbfaf2"/>
    <path d="M582.2 377.7l2 2-2-2z" fill="#a4a43d"/>
    <path d="M584.3 377.7l2 2-2-2m-115.8 2l2 2-2-2z" fill="#1b1b74"/>
    <path d="M470.6 379.8l2 2-2-2z" fill="#a4a43d"/>
    <path d="M474.6 379.8l2 2-2-2z" fill="#d0d045"/>
    <path d="M476.6 379.8l2 2-2-2z" fill="#fbfaf2"/>
    <path d="M539.6 379.8l2 2-2-2z" fill="#f9d6aa"/>
    <path d="M576 379.8l2.2 2-2-2z" fill="#e5e59d"/>
    <path d="M582.2 379.8l2 2-2-2m-111.6 2l2 2-2-2z" fill="#6e6c70"/>
    <path d="M476.6 381.8l2 2-2-2z" fill="#8cbf84"/>
    <path d="M477.5 381.8c7 14.8 32 49.8 51 49.2 18.6-.7 39.5-35 47.6-49.2h-98z" fill="#0cf"/>
    <path d="M580.2 381.8l2 2-2-2z" fill="#a4a43d"/>
    <path d="M582.2 381.8l2 2-2-2m-111.6 2l2 2-2-2z" fill="#1b1b74"/>
    <path d="M472.6 383.8l2 2-2-2z" fill="#a4a43d"/>
    <path d="M476.6 383.8l2 2-2-2z" fill="#adb333"/>
    <path d="M478.7 383.8l2 2-2-2z" fill="#1ac5b5"/>
    <path d="M574 383.8l2 2-2-2z" fill="#68b070"/>
    <path d="M580.2 383.8l2 2-2-2z" fill="#667"/>
    <path d="M472.6 386l2 2-2-2z" fill="#58587b"/>
    <path d="M478.7 386l2 2-2-2z" fill="#7fb15c"/>
    <path d="M572 386l2 2-2-2z" fill="#27c2aa"/>
    <path d="M578.2 386l-2 4 2-4z" fill="#a4a43d"/>
    <path d="M580.2 386l2 2-2-2m-107.6 2l2 2-2-2z" fill="#0e0e6e"/>
    <path d="M474.6 388l4 4-4-4z" fill="#a4a43d"/>
    <path d="M480.7 388l2 2-2-2z" fill="#34be9e"/>
    <path d="M572 388l2 2-2-2z" fill="#96b247"/>
    <path d="M578.2 388l2 2-2-2z" fill="#53527c"/>
    <path d="M474.6 390l2 2-2-2z" fill="#3a3a7c"/>
    <path d="M480.7 390l2 2-2-2z" fill="#a2b23d"/>
    <path d="M482.7 390l2 2-2-2z" fill="#0dc9c1"/>
    <path d="M570 390l2 2-2-2z" fill="#5bb47c"/>
    <path d="M576 390l2.2 2-2-2z" fill="#8d8d5b"/>
    <path d="M476.6 392l2 2-2-2z" fill="#737370"/>
    <path d="M482.7 392l2 2-2-2z" fill="#74b166"/>
    <path d="M568 392l2 2-2-2z" fill="#27c2aa"/>
    <path d="M574 392l-2 4 2-4z" fill="#a4a43d"/>
    <path d="M576 392l2.2 2-2-2z" fill="#262678"/>
    <path d="M476.6 394l2 2-2-2z" fill="#0e0e6e"/>
    <path d="M478.7 394l4 4-4-4z" fill="#a4a43d"/>
    <path d="M484.8 394l2 2-2-2z" fill="#42bb92"/>
    <path d="M566 394l2 2-2-2z" fill="#0dc9c1"/>
    <path d="M568 394l2 2-2-2z" fill="#96b247"/>
    <path d="M574 394l2 2-2-2z" fill="#58587b"/>
    <path d="M478.7 396l2 2-2-2z" fill="#3a3a7c"/>
    <path d="M484.8 396l2 2-2-2z" fill="#adb333"/>
    <path d="M486.8 396l2 2-2-2z" fill="#27c2aa"/>
    <path d="M566 396l2 2-2-2z" fill="#74b166"/>
    <path d="M572 396l2 2-2-2z" fill="#8d8d5b"/>
    <path d="M480.7 398l2 2-2-2z" fill="#6e6c70"/>
    <path d="M486.8 398l2 2-2-2z" fill="#96b247"/>
    <path d="M488.8 398l2 2-2-2z" fill="#0dc9c1"/>
    <path d="M564 398l2 2-2-2z" fill="#42bb92"/>
    <path d="M570 398l-4 6 4-6z" fill="#a4a43d"/>
    <path d="M572 398l2 2-2-2z" fill="#1b1b74"/>
    <path d="M480.7 400l2 2-2-2z" fill="#0e0e6e"/>
    <path d="M482.7 400l2 2-2-2z" fill="#8d8d5b"/>
    <path d="M488.8 400l2 2-2-2z" fill="#7fb15c"/>
    <path d="M562 400l2 2-2-2z" fill="#34be9e"/>
    <path d="M570 400l2 2-2-2z" fill="#3a3a7c"/>
    <path d="M482.7 402l2 2-2-2z" fill="#1b1b74"/>
    <path d="M484.8 402l22.3 22.4-22-22.4z" fill="#a4a43d"/>
    <path d="M491 402l2 2-2-2z" fill="#74b166"/>
    <path d="M560 402l2 2-2-2z" fill="#27c2aa"/>
    <path d="M562 402l2 2-2-2z" fill="#adb333"/>
    <path d="M568 402l2 2-2-2z" fill="#667"/>
    <path d="M484.8 404l2 2.2-2-2z" fill="#32327b"/>
    <path d="M493 404l2 2.2-2-2z" fill="#42bb92"/>
    <path d="M558 404l-8.3 10.3L558 404z" fill="#0dc9c1"/>
    <path d="M560 404l2 2.2-2-2z" fill="#adb333"/>
    <path d="M566 404l2 2.2-2-2z" fill="#737370"/>
    <path d="M486.8 406.2l2 2-2-2z" fill="#49497d"/>
    <path d="M495 406.2l2 2-2-2z" fill="#42bb92"/>
    <path d="M558 406.2l2 2-2-2z" fill="#96b247"/>
    <path d="M564 406.2l-2 4 2-4z" fill="#8d8d5b"/>
    <path d="M566 406.2l2 2-2-2z" fill="#0e0e6e"/>
    <path d="M488.8 408.2l2 2-2-2z" fill="#53527c"/>
    <path d="M497 408.2l2 2-2-2z" fill="#42bb92"/>
    <path d="M555.8 408.2l2 2-2-2z" fill="#96b247"/>
    <path d="M564 408.2l2 2-2-2z" fill="#0e0e6e"/>
    <path d="M491 410.2l2 2-2-2z" fill="#6e6c70"/>
    <path d="M499 410.2l2 2-2-2z" fill="#42bb92"/>
    <path d="M553.8 410.2l2 2-2-2z" fill="#96b247"/>
    <path d="M560 410.2l-4.2 6 4-6z" fill="#a4a43d"/>
    <path d="M562 410.2l2 2-2-2z" fill="#262678"/>
    <path d="M493 412.2l2 2-2-2z" fill="#6e6c70"/>
    <path d="M501 412.2l2 2-2-2z" fill="#42bb92"/>
    <path d="M551.8 412.2l2 2-2-2z" fill="#96b247"/>
    <path d="M560 412.2l2 2-2-2z" fill="#262678"/>
    <path d="M495 414.3l2 2-2-2z" fill="#6e6c70"/>
    <path d="M503 414.3l2 2-2-2z" fill="#68b070"/>
    <path d="M547.7 414.3l2 2-2-2z" fill="#27c2aa"/>
    <path d="M549.7 414.3l2 2-2-2z" fill="#adb333"/>
    <path d="M558 414.3l2 2-2-2z" fill="#262678"/>
    <path d="M497 416.3l2 2-2-2z" fill="#667"/>
    <path d="M505 416.3l2 2-2-2z" fill="#74b166"/>
    <path d="M545.7 416.3l2 2-2-2z" fill="#34be9e"/>
    <path d="M547.7 416.3l2 2-2-2z" fill="#adb333"/>
    <path d="M553.8 416.3l-2 4 2-4z" fill="#8d8d5b"/>
    <path d="M555.8 416.3l2 2-2-2z" fill="#262678"/>
    <path d="M499 418.3l2 2-2-2z" fill="#49497d"/>
    <path d="M507 418.3l2 2-2-2z" fill="#96b247"/>
    <path d="M509 418.3l2.2 2-2-2z" fill="#0dc9c1"/>
    <path d="M543.6 418.3l2 2-2-2z" fill="#42bb92"/>
    <path d="M553.8 418.3l2 2-2-2z" fill="#0e0e6e"/>
    <path d="M501 420.4l2 2-2-2z" fill="#49497d"/>
    <path d="M509 420.4l2.2 2-2-2z" fill="#a2b23d"/>
    <path d="M511.2 420.4l2 2-2-2z" fill="#27c2aa"/>
    <path d="M541.6 420.4l2 2-2-2z" fill="#74b166"/>
    <path d="M547.7 420.4l-6 8 6-8z" fill="#a4a43d"/>
    <path d="M549.7 420.4l2 2-2-2z" fill="#808067"/>
    <path d="M551.8 420.4l2 2-2-2z" fill="#0e0e6e"/>
    <path d="M503 422.4l2 2-2-2z" fill="#262678"/>
    <path d="M511.2 422.4l2 2-2-2z" fill="#adb333"/>
    <path d="M513.2 422.4l2 2-2-2z" fill="#42bb92"/>
    <path d="M537.6 422.4l2 2-2-2z" fill="#0dc9c1"/>
    <path d="M539.6 422.4l2 2-2-2z" fill="#96b247"/>
    <path d="M547.7 422.4l2 2-2-2z" fill="#6e6c70"/>
    <path d="M505 424.4l2 2-2-2z" fill="#1b1b74"/>
    <path d="M507 424.4l2 2-2-2z" fill="#8d8d5b"/>
    <path d="M515.2 424.4l2 2-2-2z" fill="#74b166"/>
    <path d="M517.3 424.4l2 2-2-2z" fill="#0dc9c1"/>
    <path d="M535.5 424.4l2 2-2-2z" fill="#34be9e"/>
    <path d="M537.6 424.4l2 2-2-2z" fill="#adb333"/>
    <path d="M545.7 424.4l2 2-2-2z" fill="#49497d"/>
    <path d="M507 426.5l2 2-2-2z" fill="#0e0e6e"/>
    <path d="M509 426.5l2.2 2-2-2z" fill="#6e6c70"/>
    <path d="M511.2 426.5l4 4-4-4z" fill="#a4a43d"/>
    <path d="M517.3 426.5l2 2-2-2z" fill="#96b247"/>
    <path d="M519.3 426.5l2 2-2-2z" fill="#27c2aa"/>
    <path d="M533.5 426.5l2 2-2-2z" fill="#68b070"/>
    <path d="M543.6 426.5l2 2-2-2z" fill="#32327b"/>
    <path d="M511.2 428.5l2 2-2-2z" fill="#49497d"/>
    <path d="M521.3 428.5l2 2-2-2z" fill="#5bb47c"/>
    <path d="M529.4 428.5l2 2-2-2z" fill="#27c2aa"/>
    <path d="M531.5 428.5l2 2-2-2z" fill="#96b247"/>
    <path d="M537.6 428.5l-2 4 2-4z" fill="#a4a43d"/>
    <path d="M539.6 428.5l2 2-2-2z" fill="#808067"/>
    <path d="M541.6 428.5l2 2-2-2z" fill="#0e0e6e"/>
    <path d="M513.2 430.5l2 2-2-2z" fill="#262678"/>
    <path d="M515.2 430.5l2 2-2-2z" fill="#8d8d5b"/>
    <path d="M523.3 430.5l2 2-2-2z" fill="#8bb252"/>
    <path d="M525.4 430.5l2 2-2-2z" fill="#1ac5b5"/>
    <path d="M527.4 430.5l2 2-2-2z" fill="#5bb47c"/>
    <path d="M537.6 430.5l2 2-2-2z" fill="#58587b"/>
    <path d="M515.2 432.6l2 2-2-2z" fill="#0e0e6e"/>
    <path d="M517.3 432.6l2 2-2-2z" fill="#667"/>
    <path d="M519.3 432.6l2 2-2-2z" fill="#a4a43d"/>
    <path d="M533.5 432.6l2 2-2-2z" fill="#99994e"/>
    <path d="M535.5 432.6l2 2-2-2m-16.2 2l2 2-2-2z" fill="#32327b"/>
    <path d="M521.3 434.6l2 2-2-2z" fill="#99994e"/>
    <path d="M529.4 434.6l2 2-2-2z" fill="#a4a43d"/>
    <path d="M531.5 434.6l2 2-2-2z" fill="#667"/>
    <path d="M533.5 434.6l2 2-2-2m-12.2 2l2 2-2-2z" fill="#0e0e6e"/>
    <path d="M523.3 436.6l2 2-2-2z" fill="#667"/>
    <path d="M525.4 436.6l2 2-2-2z" fill="#a4a43d"/>
    <path d="M527.4 436.6l2 2-2-2z" fill="#99994e"/>
    <path d="M529.4 436.6l2 2-2-2z" fill="#32327b"/>
    <path d="M525.4 438.6l2 2-2-2z" fill="#262678"/>
    <path d="M527.4 438.6l2 2-2-2z" fill="#0e0e6e"/>
    <path d="M529.4 302.6c3.2 7.4 13.2 15.5 16 19.5-3.5 4-4.2 4-3.8 11 6-6 6.2-7 10.2-6 8.6 9 1.5 27-5.6 31-7 5-5.8 0-16.5 6 5 4 10.6 0 15.2 1 2 3-2 9 0 14 4 0 3-8 4-11 3-11 21-18 22-28 3-1.4 7-.2 12 2.4-2-9.5-10-9.4-12-12.3-5-8-9-16-20-18-8-2-8 0-13-3-3-3-13-7-11-4z" fill="#f90"/>
    <path d="M552 311a1.6 1.6 0 1 1-3.3 0 1.6 1.6 0 0 1 3.3 0z" fill-rule="evenodd" fill="#fff"/>
    <path d="M504.3 334c5-6.3 7.6-19 9.8-23.3 6 1.2 6 2 12-1.8-8-3-9-3-10-7 4-12 23-14 30-10s3 5 13 12c2-6-5-9-6-14 2-4 8-3 12-7-2-4-9 1-12 1-11 2-26-10-35-6-3.6-3-4-7-4-12-7.4 6-4 13-5.5 16-4.5 7-10 15-7 25 2 8 3.6 6 3 12-.7 4-.4 14.3 2 11.2z" fill="#f90"/>
    <path d="M501.2 310c.8-.4 1.8 0 2.2.7a1.6 1.6 0 1 1-2.2-.7z" fill-rule="evenodd" fill="#fff"/>
    <path d="M545.4 338.2c-8-1-20 3.3-25 3.7-1.6-6-.8-6-7.4-9 2.3 8 2.8 9 0 11-11.8 3-24-13-23.8-21 0-9 3.2-5 4-17-6 2-5 9-8.3 13-4 0-7-6-12-7-2 3 5 7 7 10 8 8 5 27 13 33-1 4-4 6-8 9 9 3 13-4 16-4 9 0 18 0 25-8 5-5.6 3-6 8-9 3.3-1 12.2-7 8.2-7.6z" fill="#f90"/>
    <path d="M526.6 353.3a1.6 1.6 0 1 1 1.7-2.8 1.6 1.6 0 0 1-1.7 2.8z" fill-rule="evenodd" fill="#fff"/>
  </g>
</svg>
