<svg xmlns="http://www.w3.org/2000/svg" xmlns:xlink="http://www.w3.org/1999/xlink" height="480" width="640" viewBox="0 0 640 480">
  <path fill="#e41e20" d="M0 0h640v480H0z"/>
  <path id="a" d="M272.1 93.32c-4.68-.08-12.42 1.48-12.25 5.07-13-2.3-14.35 3.1-13.6 7.9 1.25-1.9 2.75-3 3.9-3.1 1.74-.3 3.56.2 5.4 1.4 1.86 1.1 3.9 2.9 4.8 4.1-4.58 1.1-8.12.4-11.72-.3-1.77-.3-4.25-1.3-5.73-2.4-1.48-1.04-1.94-2-4.26-4.38-2.73-2.8-5.65-2.03-4.74 2.33 2.1 4.03 5.6 5.83 10.02 6.56 2.13.35 5.3 1.1 8.88 1.1 3.6 0 7.62-.5 9.8-.05-1.3.84-2.8 2.27-5.75 2.84-3 .56-7.57-1.8-10.35-2.44.35 2.32 3.3 4.5 9.12 5.65 9.55 2.08 17.5 3.66 22.74 6.5 5.25 2.86 8.56 6.4 10.92 9.2 4.7 5.57 4.95 9.84 5.25 10.78.97 8.9-2.13 13.9-7.9 15.42-2.87.76-7.98-.68-9.86-2.88-1.88-2.2-3.7-6-3.18-11.9.5-2.34 3.1-8.4.9-9.64-10.5-5.76-23.1-11.6-32.3-15.05-2.5-.95-4.6 2.45-5.4 3.78-15.6-1.9-29.6-12.42-35.9-23.63-4.3-7.65-11.4 0-10.2 7.22 1.9 8.04 8 13.86 15.4 18 7.5 4.15 17 8.24 26.5 8.03 5.15.97 5.1 7.63-1.08 8.9-12.1.05-21.7-.25-30.8-9-6.9-6.3-10.8 1.2-8.8 5.44 3.37 13.1 22.1 16.8 41 12.56 7.33-1.26 2.94 6.6.87 6.7-7.9 5.65-22.04 11.2-34.5-.08-5.7-4.4-9.58-.7-7.46 5.6 5.53 16.43 26.7 13 41.22 4.9 3.73-2.1 7.12 2.74 2.57 6.43-18.06 12.64-27.1 12.78-35.24 7.94-10.2-4.04-11.1 7.3-5.05 11 6.75 4.13 23.9 1.03 36.46-6.87 5.4-4 5.65 2.27 2.24 4.75-14.94 12.9-20.8 16.3-36.38 14.2-7.7-.6-7.6 8.9-1.54 12.63 8.3 5.07 24.46-3.37 37.02-13.78 5.28-2.86 6.15 1.8 3.54 7.3-7.7 9.64-14.9 15.34-21.8 18-6.97 2.63-13.6 2.2-18.36.6-5.77-2-6.5 4-3.3 9.44 1.9 3.3 9.86 4.33 18.44 1.3 8.54-3.06 17.8-10.2 24.1-18.55 5.5-4.8 4.8 1.66 2.3 6.2-12.68 20.04-24.26 27.47-39.5 26.2-6.8-1.14-8.3 4.1-4 9 7.6 6.26 17.03 6.06 25.3-.14 7.37-7.1 21.45-22.4 28.84-30.56 5.2-4.17 6.87-.08 5.34 8.35-1.4 4.8-4.87 9.9-14.34 13.6-6.42 3.7-1.6 8.77 3.3 8.87 2.66.05 8.1-3.07 12.23-7.74 5.43-6.12 5.75-10.24 8.8-19.8 2.8-4.67 7.9-2.5 7.9 2.4-2.46 9.56-4.55 11.3-9.47 15.2-4.7 4.4 3.3 5.9 5.98 4.1 7.8-5.27 10.66-12.06 13.26-18.23 1.87-4.43 7.32-2.3 4.8 5-6.04 17.4-15.96 24.25-33.3 27.77-1.77.3-2.84 1.37-2.23 3.4 2.33 2.4 4.66 4.6 7 7-10.74 3.15-19.45 4.9-30.2 8.04-5.26-3.45-9.5-6.4-14.78-9.83-1.4-3.26-2.07-8.2-9.8-4.7-5.3-2.46-7.7-1.56-10.66.9 4.24.13 6.08 1.26 7.73 3.2 2.18 5.7 7.16 6.23 12.26 4.6 3.3 2.8 5.06 4.94 8.4 7.75-6.2-.23-10.5-.34-16.7-.5-5.9-6.35-10.6-6-14.8-1.04-3.24.5-4.6.58-6.8 4.5 3.46-1.44 5.64-1.87 7.14-.3 6.3 3.6 10.37 2.8 13.5 0 6.03.35 11.5.66 17.53 1.06-2.23 1.9-5.3 2.9-7.5 4.8-9.1-2.6-13.83.9-15.43 8.3-1.2 3-1.8 6.1-1.25 9.3.9-2.9 2.3-5.43 4.9-7 8.1 2.05 11.14-1.25 11.58-6.1 3.9-3.2 9.8-3.9 13.68-7.1 4.6 1.45 6.8 2.36 11.4 3.8 1.63 4.96 5.32 6.9 11.3 5.65 7.14.2 5.9 3.12 6.46 5.5 1.9-3.4 1.85-6.67-2.54-9.6-1.6-4.38-5.15-6.36-9.8-3.85-4.36-1.22-5.5-3-9.86-4.24 11.03-3.5 18.84-4.3 29.84-7.8 2.75 2.6 4.94 4.47 7.7 6.8 1.47.86 2.87 1.1 3.73 0 6.9-10 9.98-18.8 16.4-25.36 2.44-2.74 5.5-6.4 8.96-7.3 1.73-.45 3.83-.18 5.17 1.3 1.35 1.45 2.4 4.15 1.96 8.2-.63 5.76-2.03 7.6-3.65 11.05-1.6 3.47-3.6 5.6-5.62 8.26-4.05 5.3-9.43 8.37-12.6 10.45-6.37 4.17-9.06 2.35-14 2.1-6.36.7-8.05 3.8-2.84 8.1 4.9 2.5 9.3 2.83 12.8 2.2 3.1-.6 6.67-4.53 9.2-6.65 2.9-3.3 7.6.6 4.4 4.48-5.9 7-11.8 11.63-19.05 11.53-7.65 1.04-6.2 5.34-1.15 7.4 9.1 3.8 17.4-3.26 21.57-7.9 3.22-3.52 5.5-3.66 4.94 1.8-3.2 9.9-7.6 13.7-14.73 14.2-5.8-.5-5.86 3.96-1.62 7 9.67 6.67 16.66-4.7 19.93-11.6 2.33-6.2 5.9-3.25 6.27 1.87.06 6.85-3.03 12.4-11.3 19.4 6.33 10.1 13.7 20.36 20.04 30.48l19.2-213.9L320 139c-2-1.85-8.76-9.82-10.52-10.92-.65-.7-1.04-1.18-.1-1.53.92-.35 3.07-.73 4.5-1-4.07-4.07-7.55-5.38-15.26-7.6 1.88-.8 3.7-.35 9.24-.6-2.2-3.13-7.1-7.9-13.44-10.2 4.18-3 5-3.2 9.15-6.67-7.2-.5-13.33-1.88-19.5-3.75-3.9-1.83-9.33-3.38-11.97-3.42zm.68 8.37c3.8 0 6.15 1.3 6.15 2.8 0 1.6-2.35 2.9-6.15 2.9-3.78 0-6.18-1.4-6.18-3s2.4-2.8 6.18-2.8z"/>
  <use height="100%" width="100%" xlink:href="#a" transform="matrix(-1 0 0 1 640 0)"/>
</svg>
