<svg xmlns="http://www.w3.org/2000/svg" height="480" width="640" viewBox="0 0 640 480">
  <defs>
    <clipPath id="a">
      <path fill-opacity=".7" d="M0 0h640v480H0z"/>
    </clipPath>
  </defs>
  <g clip-path="url(#a)">
    <path fill="#006" d="M-374-16H650v512H-374z"/>
    <path d="M-374 240L650 496V-16L-374 240z" fill-rule="evenodd" fill="#bd1021"/>
    <path d="M650 11.4v457.2L-264.3 240 650 11.4z" fill-rule="evenodd" fill="#fff"/>
    <g stroke="#000">
      <path stroke-linejoin="round" d="M478 297.4s-6.4-5.2 1.2-13.7c-4-3.4-.3-10-.3-10s-7-2.7 0-13.5c-6-3.5-3-11.3-3-11.3s-17-7-1-13c-14 6-26-8-26-8h-20c-4-16-29-2-10-49-5-1-11-3-16 1s-21 12-31 4 6-21 6-22 21-11 23-18c-1-6-7-10-1-21 7-11 48-21 66-25 9-4 13-12 13-12l2 7s42-11 44-17 1 5 1 5c16-2 37-16 39-9 13-3 40-14 40-14s9-1 2 9c4 6-1 12-2 12 0 0 2 6-3 10 2 5-3 10-3 10s3 6-7 10c1 6-5 7-5 7s1 6-3 9c0 4-4 6-4 6s3 1-1 4c-5 3-47 29-47 28 0 0 31 5 33 7l26 16-23 29s-26-3-27-2 5 2 7 5c1 2 4 8 8 7 4 0-9 9-18 9 0 3 11 3 14 1 3-3-7 7-8 9s13-2 13-2-2 9-15 12c5 8 3 13 2 13s-8-8-16-7c2 7 8 15 10 16s-14 1-16-4-4 10.2 2 15c-6 .2-12-3.6-12-3.6s-4 8-1 13c2 4-9-9-9-9l-22 9-5-9z" fill-rule="evenodd" stroke-width="1.8" fill="#9c3900"/>
      <path d="M307.3 280c.5 0 32-.4 46.6-8.7 7 11.4 17 19 17 19l4-16.3s11 0 12 3c-2 3-2 7-2 7s7 .4 8 1.4c0 1-2 9.8-2 9.8l33 7.8s2-13 5-11.3c2 1.5 14 17.5 30 18.5s17-13.4 17-13.4l4 2s6-14.4 8-14.4 2 2 11 2c2 3 4 10.4 4 10.4s-10 10-7 17.7 4 5.7 4 5.7l71 17s3 5.7-3 8.8c0 .6-72-16.5-72-16.5s-7 7.7-12 6.2-2 3-2 3l77 6s5 7.3 1 9.4c-5 1-84-5-84-5s-4 10-10 2c-4 6-8-1-8-1s-7 6-8 0c-6 4-10-2-10-2l-33-2-3 3s6 2-3 5c-9 4 53 2 54 3s-4 5-4 5 31 2 37-5c6-6-2 9-2 9s25-1 25-2-1 8-18 7c10 7 23 11 23 11s-13 3-28-1c2 7 14 13 14 13s-8 8-27-10c5 9 1 13 0 12s-9-14-30-19c13 8 8 12 8 12s-7-12-18 0c-5-11-21-17-40-18-7-7-10-5-25-9-8-9-20-20-20-20s.2-14 14.2-12c1.6 5 1.6 3 1.6 3s15.3-5 20 2c7-12 16-2 18 3 4 1 27 2 27 2s-3-4-1-4c1 1 14-5 13-6-.6-1-1-7 1-6s-17.5-3-28 5c-4-4-1-13-1-13l-32-6-2 8s-9.8 2-9 0l-2 8s-12.8-3-12.8-4l3-18c0 1-10 1-25 12-4-13-37-30-37-30z" fill-rule="evenodd" stroke-width="1.9" fill="#ffc221"/>
      <path d="M386 284.8l-6.7 30m13-18.7l-2.2 10m36-2l-3 10m61 54s-16 2-18 2 26 9 26 12m-36-10s-16-10-18-9 16 0 18-2m-32 0s-16 1-18-1 16 12 19 11m-36-19s-11-4-16-5c4 4 8 10 18 12m2-14c0-1-20-7-20-10 5 2 12 4 18 2m109-16l-2 10" stroke-width="1.9" fill="none"/>
      <path d="M347.7 237.7s-21.7 18.6 0 29.5c1-7.3 2.6-8.3 2.6-8.3s18 6 29-10c-4.7-7-13-4-13-4s-17 0-18.6-8z" fill-rule="evenodd" stroke-width="1.9" fill="#ffc221"/>
      <path d="M365.8 246l-15 13m61.2 76.8s3.5 3.8.4 8.5m72.4-4.7l-5.7.5m-40-3l11 2m18-28s1 11-8 10c-9 0-6 1-6 1" stroke-width="1.9" fill="none"/>
      <path d="M472.8 308s3.5 1.3 2.6 4c-1 2.5 1 10-9.3 17.4-10 2.3-9-9-9-9" stroke-width="1.9" fill="none"/>
      <path d="M476.6 311.3s6.3-3.7 7.2 2.4c1 6-5.2 17.4-9.6 19.2-4.3 1-9.3-1-8.7-4m19-16s5.7-5 7.5 1c1.7 6-4.7 20-7.3 20m7.8-20s3-2 5 0m-14.3 21c-1 0-6 0-7.8-4m-18.4-6h-6m28.7 22l-.6-10-2-3-4 4s0 9-2 10m3-11l-3-6-5 6s0 8-2 9m3-10l-2-6s-6 3-6 5-1 8-2 9m2-10s1-6-1-6-9 7-10 14" stroke-width="1.9" fill="none"/>
      <path stroke-linejoin="round" d="M348.4 237.8s3-3 3.8-6.4c.8-3.5-1.2-7.2 2.3-10.4s49.4-22.7 53.2-26.5c3.8-3.7 10.7-12 11.6-13.6 1-2 3.5 8-4.4 13 8-3 14-5 17-4-4 5-13 13-17 13 10-4 19-7 22-5 2 2-13 12-19 13 10-3 24-7 25-3-6 1-4 3-15 9-2 1-9 1-9 1 8-1 20-4 21 2-7 3-10 6-15 8-6 1-20 4-28 7s-20 12-20 12-26 1-26 0l-5-12z" fill-rule="evenodd" stroke-width="1.9" fill="#fff"/>
      <path d="M360.6 235.8s.3-5.8 3-7.8c2.5-2 15.6-7 18.5-11.4 3-4.3-4 7.6-3 10.8m-13-.3s7 3 5 8" stroke-width="1.9" fill="none"/>
      <path d="M373.4 230.4a4.8 4.8 0 1 1-9.6 0 4.8 4.8 0 0 1 9.6 0z" stroke-width="1.6" fill="none"/>
      <path d="M570 220l50.4 9.7s5.5-6.4 2.6-10c7.6-1.6 5.5-11.5 5.5-11.5s8.7-3.8 1.5-12.5c5-5-1.2-8.7-1.2-8.7s2-8.7-4.3-9.6c1.7-7-11-9.3-11-9.3s-26.5 8-45 8c6 6-2.5 10-2.5 10s5 4 3.5 7c-1.4 3 1 6-5.5 8 8.4 4-1 11-1 11s9.4 7 7 10z" fill-rule="evenodd" stroke-width="1.9" fill="#fff"/>
      <path d="M565.2 209.4s44.4 5.2 46.5 5.2 9.8 2.6 11.3 5.2m-55.5-13l62 1.4m-61.7-3s58.7-3.4 62.8-9.5m-61-3.2s59-6.4 59.5-5.5m-61-1.8s57-9 58-7.5m-221-29.4s18 19.8 16 33.2" stroke-width="1.9" fill="none"/>
      <path d="M419.3 171s5.8 8.4 8 9.3 22.8 2 24 10.7c1 5.6-4.4 3.8-3.5 8 1.4 5 15 11.8 30 4m-13.7 4s13 18 31-1.4m-9 7.8s15 8 27-12.5m-16 14s8 6 23-2m21-9s23 4 24 6m-17-10h16m-25-9s27-2 31 4m-42-12s38 2 40 4m-31 35s7-2 8-1m-22 16s9 8 19 4m-15 9s9 4 21 2m-18 5s9 6 16 5m-20-1s6 5 7 8m-16-2s2 10 9 14m-14-10s-4 13 5 22m-14-12s-1 6 0 7m-52-60l15-1s6-3 2-6m2 3s15 2 18 6c4 5 9 13 11 15 3 1 4-1 4-1m-6-3s-7 13-1 17m-2-2s-7 9-1 14m-1-2s-6 9 1 15m-4-39c0 1-7 5-9 4m2 11s3 3 5 2m-4 11l4 3m-3 7l4 2m-69-145s8 4 14 0 36-19 43-22c8-3 12-17 14-23m-6 16l42-13s7-6 8-16m-4 12s43-5 43-21m-11 16s45-12.5 49-17" stroke-width="1.9" fill="none"/>
      <path d="M436.2 151.5s27.2-14 31.5-15.6c4.3-2 14-14-.6-14m-17 35c1 0 23-15 30-17 4-6 2-12-5-10" stroke-width="1.9" fill="none"/>
      <path d="M480.8 137c.7-.2 12-.5 8 8.4-5.8 4.2-31 16.8-31 16.8m17.2-34.6l47.7-15.8s4-8.3-1.8-9.5M560 88c0 .2 6 3.6 2.5 9-6.8 4-38.5 11.7-38.5 11.7M609 83l-45 12.6m41.5-2.5l-39 12m35.7-2l-34.6 11m28 0c-.8 0-25.5 8-25.5 8m21 0l-16 7m12 2l-14 6m10 1l-12 6m-8 7s2 1 1 3m-32 14s5 2 1 7c-2 4-9 3-14 9m45-86s7 2 2 10c-13 5-39 13-39 13s-1 2-4 4-40 12-40 12m84-29s7 3 0 8c-8 5-36 13-36 13s0 3-1 4-38 13-38 13m77-29s8 3 1 9c-7 5-32 13-32 13s-2 3-6 5c-4 1-29 11-29 11m69-28c2 1 8 2 1 8l-28 11-2 4-32 14m64-28s3 4-3 8c-7 4-23 10-23 10m23-9s4 2-1 5.4l-28 11-12 8" stroke-width="1.9" fill="none"/>
      <path d="M523.6 112c0 .4 5.2 4.6 3.4 9.5 4.6 3.4 3.7 7 3.7 7s6.4 3.7 5.5 9c6.4 1.5 6 5 6 5l-2 3.5s6.3-.3.8 8c3.4 1.8 2 4 2 4m-2-3.8c-1 0-22.3 8-27.8 13" stroke-width="1.9" fill="none"/>
      <path d="M489.4 144.8s6.4-.3 5.5 6.7c7-2.5 5 4.6 5 4.6s8-3 7 8c5-1 4 5 4 5s5 0 5 3c3-3 7-1 7-1s2-3 6-2m-35-15c0 1-29 17-29 17m34-11l-22 13m29-6c0 1-19 12-19 12m23-7s-13 11-16 10m21-7s-8 6-14 9m22-11s2 3-13 11" stroke-width="1.9" fill="none"/>
    </g>
  </g>
</svg>
