<svg xmlns="http://www.w3.org/2000/svg" height="480" width="640" viewBox="0 0 640 480">
  <defs>
    <clipPath id="a">
      <path fill-opacity=".7" d="M0 0h288v216H0z"/>
    </clipPath>
  </defs>
  <g transform="scale(2.22)" clip-path="url(#a)">
    <path fill="#39c" d="M0 0v216h324V0H0z"/>
    <path fill="#ff0" d="M0 144v12h324v-12H0zm0 24v12h324v-12H0z"/>
  </g>
  <path fill="#9cc" d="M142.6 28l3 3-3-3zm-3 6l3 3-3-3m6 0l3 3-3-3z"/>
  <path fill="#ccf" d="M139.7 37l3 3-3-3m6 0l2.8 3-3-3z"/>
  <path fill="#6cc" d="M136.7 42.8l3 3-3-3z"/>
  <path fill="#c66" d="M142.6 42.8l3 3-3-3z"/>
  <path fill="#6cc" d="M148.6 42.8l3 3-3-3z"/>
  <path fill="#ccf" d="M136.7 45.8l3 3-3-3zm12 0l2.8 3-3-3z"/>
  <path fill="#fcc" d="M139.7 48.7l3 3-3-3m6 0l2.8 3-3-3z"/>
  <path fill="#6cc" d="M133.8 51.7l3 3-3-3z"/>
  <path d="M142.2 34l-20.7 78.5L42.8 134l78.4 20.4 21 78.4 21-78.4 78.3-21-78.4-21L142.5 34z" stroke="#fff" stroke-width="3.7" fill="#c00"/>
  <path fill="#6cc" d="M151.5 51.7l3 3-3-3z"/>
  <path fill="#9cf" d="M133.8 54.6l3 3-3-3m17.7 0l3 3-3-3z"/>
  <path fill="#fcc" d="M136.7 57.6l3 3-3-3m12 0l2.8 3-3-3z"/>
  <path fill="#69c" d="M130.8 60.5l3 3-3-3z"/>
  <path fill="#c33" d="M137.7 62.5l1 2-1-2m11.8 0l1 2-1-2z"/>
  <path fill="#69c" d="M154.5 60.5l3 3-3-3z"/>
  <path fill="#9cf" d="M130.8 63.5l3 3-3-3m23.7 0l3 3-3-3z"/>
  <path fill="#fcc" d="M133.8 66.4l3 3-3-3m17.7 0l3 3-3-3z"/>
  <path fill="#69c" d="M128 69.4l2.8 3-3-3zm29.4 0l3 3-3-3z"/>
  <path fill="#9cc" d="M128 72.3l2.8 3-3-3m29.6 0l3 3-3-3z"/>
  <path fill="#cff" d="M128 75.3l2.8 3-3-3m29.6 0l3 3-3-3z"/>
  <path fill="#69c" d="M125 78.3l3 3-3-3z"/>
  <path fill="#fcc" d="M130.8 78.3l3 3-3-3m23.7 0l3 3-3-3z"/>
  <path fill="#69c" d="M160.4 78.3l3 3-3-3z"/>
  <path fill="#9cc" d="M125 81.2l3 3-3-3z"/>
  <path fill="#c33" d="M131.8 83.2l1 2-1-2m23.6 0l1 2-1-2z"/>
  <path fill="#9cc" d="M160.4 81.2l3 3-3-3z"/>
  <path fill="#cff" d="M125 84.2l3 3-3-3m35.4 0l3 3-3-3z"/>
  <path fill="#fcc" d="M128 87l2.8 3-3-3m29.6 0l3 3-3-3z"/>
  <path fill="#9cc" d="M122 90l3 3-3-3z"/>
  <path fill="#c33" d="M129 92l1 2-1-2m29.4 0l1 2-1-2z"/>
  <path fill="#9cc" d="M163.3 90l3 3-3-3z"/>
  <path fill="#ccf" d="M122 93l3 3-3-3m41.3 0l3 3-3-3z"/>
  <path fill="#fcc" d="M125 96l3 3-3-3m35.4 0l3 3-3-3z"/>
  <path fill="#9cc" d="M119 99l3 3-3-3z"/>
  <path fill="#c33" d="M126 101l1 2-1-2m35.3 0l1 2-1-2z"/>
  <path fill="#9cc" d="M166.3 99l3 3-3-3z"/>
  <path fill="#ccf" d="M119 102l3 2.8-3-3m47.3 0l3 3-3-3z"/>
  <path fill="#fcc" d="M122 104.8l3 3-3-3m41.3 0l3 3-3-3z"/>
  <path fill="#9cc" d="M116 107.8l3 3-3-3z"/>
  <path fill="#c33" d="M122 107.8l3 3-3-3m41.3 0l3 3-3-3z"/>
  <path fill="#9cc" d="M169.2 107.8l3 3-3-3m-62 3l3 3-3-3z"/>
  <path fill="#ccf" d="M110.2 110.7l3 3-3-3m65 0l3 3-3-3z"/>
  <path fill="#9cc" d="M178 110.7l3 3-3-3m-79.6 3l3 3-3-3z"/>
  <path fill="#ccf" d="M101.3 113.7l3 3-3-3z"/>
  <path fill="#fcc" d="M113 113.7l3 3-3-3z"/>
  <path fill="#c33" d="M116 113.7l3 3-3-3m53.2 0l3 3-3-3z"/>
  <path fill="#fcc" d="M172.2 113.7l3 3-3-3z"/>
  <path fill="#ccf" d="M184 113.7l3 3-3-3z"/>
  <path fill="#9cc" d="M187 113.7l3 3-3-3z"/>
  <path fill="#69c" d="M86.6 116.6l3 3-3-3z"/>
  <path fill="#9cc" d="M89.5 116.6l3 3-3-3z"/>
  <path fill="#cff" d="M92.5 116.6l3 3-3-3z"/>
  <path fill="#fcc" d="M104.3 116.6l3 3-3-3z"/>
  <path fill="#c33" d="M109.2 117.6l2 1-2-1m68 0l2 1-2-1z"/>
  <path fill="#fcc" d="M181 116.6l3 3-3-3z"/>
  <path fill="#cff" d="M192.8 116.6l3 3-3-3z"/>
  <path fill="#9cc" d="M195.8 116.6l3 3-3-3z"/>
  <path fill="#69c" d="M198.7 116.6l3 3-3-3m-121 3l3 3-3-3z"/>
  <path fill="#9cc" d="M80.7 119.6l3 3-3-3z"/>
  <path fill="#cff" d="M83.6 119.6l3 3-3-3z"/>
  <path fill="#fcc" d="M95.4 119.6l3 3-3-3z"/>
  <path fill="#c33" d="M100.3 120.6l2 1-2-1m85.6 0l2 1-2-1z"/>
  <path fill="#fcc" d="M190 119.6l2.8 3-3-3z"/>
  <path fill="#cff" d="M201.7 119.6l3 3-3-3z"/>
  <path fill="#9cc" d="M204.6 119.6l3 3-3-3z"/>
  <path fill="#69c" d="M207.6 119.6l3 3-3-3m-138.8 3l3 3-3-3z"/>
  <path fill="#9cf" d="M71.8 122.5l3 3-3-3z"/>
  <path fill="#fcc" d="M86.6 122.5l3 3-3-3z"/>
  <path fill="#c33" d="M91.5 123.5l2 1-2-1m103.3 0l2 1-2-1z"/>
  <path fill="#fcc" d="M198.7 122.5l3 3-3-3z"/>
  <path fill="#9cf" d="M213.5 122.5l3 3-3-3z"/>
  <path fill="#69c" d="M216.4 122.5l3 3-3-3z"/>
  <path fill="#6cc" d="M60 125.5l3 3-3-3z"/>
  <path fill="#9cf" d="M63 125.5l3 3-3-3z"/>
  <path fill="#fcc" d="M74.8 125.5l3 3-3-3zm135.7 0l3 3-3-3z"/>
  <path fill="#9cf" d="M222.4 125.5l3 3-3-3z"/>
  <path fill="#6cc" d="M225.3 125.5l3 3-3-3m-174.2 3l3 3-3-3z"/>
  <path fill="#ccf" d="M54 128.4l3 3-3-3z"/>
  <path fill="#fcc" d="M66 128.4l2.8 3-3-3z"/>
  <path fill="#c33" d="M70.8 129.4l2 1-2-1m144.7 0l2 1-2-1z"/>
  <path fill="#fcc" d="M219.4 128.4l3 3-3-3z"/>
  <path fill="#ccf" d="M231.2 128.4l3 3-3-3z"/>
  <path fill="#6cc" d="M234.2 128.4l3 3-3-3z"/>
  <path fill="#9cc" d="M42.3 131.4l3 3-3-3z"/>
  <path fill="#ccf" d="M45.2 131.4l3 3-3-3z"/>
  <path fill="#fcc" d="M57 131.4l3 3-3-3zm171.3 0l3 3-3-3z"/>
  <path fill="#ccf" d="M240 131.4l3 3-3-3z"/>
  <path fill="#9cc" d="M243 131.4l3 3-3-3m-206.6 3l3 3-3-3z"/>
  <path fill="#c66" d="M51 134.3l3 3-3-3zm183.2 0l3 3-3-3z"/>
  <path fill="#9cc" d="M249 134.3l3 3-3-3m-206.7 3l3 3-3-3z"/>
  <path fill="#ccf" d="M45.2 137.3l3 3-3-3z"/>
  <path fill="#fcc" d="M57 137.3l3 3-3-3m171.3 0l3 3-3-3z"/>
  <path fill="#ccf" d="M240 137.3l3 3-3-3z"/>
  <path fill="#9cc" d="M243 137.3l3 3-3-3z"/>
  <path fill="#6cc" d="M51 140.2l3 3-3-3z"/>
  <path fill="#ccf" d="M54 140.2l3 3-3-3z"/>
  <path fill="#fcc" d="M66 140.2l2.8 3-3-3z"/>
  <path fill="#c33" d="M70.8 141.2l2 1-2-1m144.7 0l2 1-2-1z"/>
  <path fill="#fcc" d="M219.4 140.2l3 3-3-3z"/>
  <path fill="#ccf" d="M231.2 140.2l3 3-3-3z"/>
  <path fill="#6cc" d="M234.2 140.2l3 3-3-3m-174.2 3l3 3-3-3z"/>
  <path fill="#9cf" d="M63 143.2l3 3-3-3z"/>
  <path fill="#fcc" d="M74.8 143.2l3 3-3-3zm135.7 0l3 3-3-3z"/>
  <path fill="#9cf" d="M222.4 143.2l3 3-3-3z"/>
  <path fill="#6cc" d="M225.3 143.2l3 3-3-3z"/>
  <path fill="#69c" d="M68.8 146.2l3 3-3-3z"/>
  <path fill="#9cf" d="M71.8 146.2l3 3-3-3z"/>
  <path fill="#fcc" d="M86.6 146.2l3 3-3-3z"/>
  <path fill="#c33" d="M91.5 147l2 1-2-1m103.3 0l2 1-2-1z"/>
  <path fill="#fcc" d="M198.7 146.2l3 3-3-3z"/>
  <path fill="#9cf" d="M213.5 146.2l3 3-3-3z"/>
  <path fill="#69c" d="M216.4 146.2l3 3-3-3m-138.7 3l3 3-3-3z"/>
  <path fill="#9cc" d="M80.7 149l3 3-3-3z"/>
  <path fill="#cff" d="M83.6 149l3 3-3-3z"/>
  <path fill="#fcc" d="M95.4 149l3 3-3-3z"/>
  <path fill="#c33" d="M100.3 150l2 1-2-1m85.6 0l2 1-2-1z"/>
  <path fill="#fcc" d="M190 149l2.8 3-3-3z"/>
  <path fill="#cff" d="M201.7 149l3 3-3-3z"/>
  <path fill="#9cc" d="M204.6 149l3 3-3-3z"/>
  <path fill="#69c" d="M207.6 149l3 3-3-3m-121 3l3 3-3-3z"/>
  <path fill="#9cc" d="M89.5 152l3 3-3-3z"/>
  <path fill="#cff" d="M92.5 152l3 3-3-3z"/>
  <path fill="#fcc" d="M104.3 152l3 3-3-3z"/>
  <path fill="#c33" d="M109.2 153l2 1-2-1m68 0l2 1-2-1z"/>
  <path fill="#fcc" d="M181 152l3 3-3-3z"/>
  <path fill="#cff" d="M192.8 152l3 3-3-3z"/>
  <path fill="#9cc" d="M195.8 152l3 3-3-3z"/>
  <path fill="#69c" d="M198.7 152l3 3-3-3z"/>
  <path fill="#9cc" d="M98.4 155l3 3-3-3z"/>
  <path fill="#ccf" d="M101.3 155l3 3-3-3z"/>
  <path fill="#fcc" d="M113 155l3 3-3-3z"/>
  <path fill="#c33" d="M116 155l3 3-3-3m53.2 0l3 3-3-3z"/>
  <path fill="#fcc" d="M172.2 155l3 3-3-3z"/>
  <path fill="#ccf" d="M184 155l3 3-3-3z"/>
  <path fill="#9cc" d="M187 155l3 3-3-3m-79.8 3l3 3-3-3z"/>
  <path fill="#ccf" d="M110.2 158l3 3-3-3m65 0l3 3-3-3z"/>
  <path fill="#9cc" d="M178 158l3 3-3-3m-62 3l3 3-3-3z"/>
  <path fill="#c33" d="M122 161l3 3-3-3m41.3 0l3 3-3-3z"/>
  <path fill="#9cc" d="M169.2 161l3 3-3-3z"/>
  <path fill="#fcc" d="M122 164l3 2.8-3-3m41.3 0l3 3-3-3z"/>
  <path fill="#ccf" d="M119 166.8l3 3-3-3z"/>
  <path fill="#c33" d="M126 168.8l1 2-1-2m35.3 0l1 2-1-2z"/>
  <path fill="#ccf" d="M166.3 166.8l3 3-3-3z"/>
  <path fill="#9cc" d="M119 169.8l3 3-3-3m47.3 0l3 3-3-3z"/>
  <path fill="#fcc" d="M125 172.7l3 3-3-3m35.4 0l3 3-3-3z"/>
  <path fill="#ccf" d="M122 175.7l3 3-3-3z"/>
  <path fill="#c33" d="M129 177.6l1 2-1-2m29.4 0l1 2-1-2z"/>
  <path fill="#ccf" d="M163.3 175.7l3 3-3-3z"/>
  <path fill="#9cc" d="M122 178.6l3 3-3-3m41.3 0l3 3-3-3z"/>
  <path fill="#fcc" d="M128 181.6l2.8 3-3-3m29.6 0l3 3-3-3z"/>
  <path fill="#cff" d="M125 184.5l3 3-3-3z"/>
  <path fill="#c33" d="M131.8 186.5l1 2-1-2m23.6 0l1 2-1-2z"/>
  <path fill="#cff" d="M160.4 184.5l3 3-3-3z"/>
  <path fill="#9cc" d="M125 187.5l3 3-3-3m35.4 0l3 3-3-3z"/>
  <path fill="#69c" d="M125 190.4l3 3-3-3z"/>
  <path fill="#fcc" d="M130.8 190.4l3 3-3-3m23.7 0l3 3-3-3z"/>
  <path fill="#69c" d="M160.4 190.4l3 3-3-3z"/>
  <path fill="#cff" d="M128 193.4l2.8 3-3-3zm29.4 0l3 3-3-3z"/>
  <path fill="#9cc" d="M128 196.3l2.8 3-3-3m29.6 0l3 3-3-3z"/>
  <path fill="#69c" d="M128 199.3l2.8 3-3-3m29.6 0l3 3-3-3z"/>
  <path fill="#fcc" d="M133.8 202.2l3 3-3-3m17.7 0l3 3-3-3z"/>
  <path fill="#9cf" d="M130.8 205.2l3 3-3-3z"/>
  <path fill="#c33" d="M137.7 207.2l1 2-1-2m11.8 0l1 2-1-2z"/>
  <path fill="#9cf" d="M154.5 205.2l3 3-3-3z"/>
  <path fill="#69c" d="M130.8 208l3 3-3-3m23.7 0l3 3-3-3z"/>
  <path fill="#fcc" d="M136.7 211l3 3-3-3m12 0l2.8 3-3-3z"/>
  <path fill="#9cf" d="M133.8 214l3 3-3-3zm17.7 0l3 3-3-3z"/>
  <path fill="#6cc" d="M133.8 217l3 3-3-3m17.7 0l3 3-3-3z"/>
  <path fill="#fcc" d="M139.7 220l3 3-3-3m6 0l2.8 3-3-3z"/>
  <path fill="#ccf" d="M136.7 223l3 3-3-3m12 0l2.8 3-3-3z"/>
  <path fill="#6cc" d="M136.7 226l3 2.8-3-3z"/>
  <path fill="#c66" d="M142.6 226l3 2.8-3-3z"/>
  <path fill="#6cc" d="M148.6 226l3 2.8-3-3z"/>
  <path fill="#ccf" d="M139.7 231.8l3 3-3-3m6 0l2.8 3-3-3z"/>
  <path fill="#9cc" d="M139.7 234.7l3 3-3-3m6 0l2.8 3-3-3m-3 6l3 3-3-3z"/>
</svg>
