<svg xmlns="http://www.w3.org/2000/svg" xmlns:xlink="http://www.w3.org/1999/xlink" height="480" width="640" viewBox="0 0 640 480">
  <path fill="#f7e017" d="M0 0h640v480H0z"/>
  <path d="M0 33.3v213.4l640 100V233.3z" fill="#fff"/>
  <path d="M0 146.7v100l640 200v-100z"/>
  <g transform="translate(-160) scale(.67)" fill="#cf1126">
    <path d="M695.7 569.7c-19.3-2.6-37-8.7-49.4-17.2-2.4-1.6-4.6-3-5-3-.4 0-.6 2-.6 4 0 6.5-2.6 9.7-9 11.4-6.2 1-15.6-2-23.2-8-8-7-17-12-24.7-14-6.4-2-14.8-2-21 0-2.7 1-6 2-7 3-1.2 0-2.4 1-2.8 1-1 0-1-7 .2-9 1.5-3 5-6 9.4-8 2.2-1 4-2 4-3s-.8-2-1.7-4c-3-5-2-10 3-14s14-5 21-2l4 1c1 0 0-2-3-6-3-5-4-7-4-13 0-7 6-13 13-14 6 0 9 2 18 10 25 24 53 38 86 41 8 1 25 0 34-1 29-5 59-19 82-41 6-6 9-8 14-8 4 0 7 1 11 5 3 3 4 6 3 12-1 3-1 5-3 8-3 4-3 5 3 3 7-3 17-2 22 3 4 4 4 8 1 14l-2 4 5 1c6 1 10 5 10 12 0 2 0 4-1 4s-3-1-5-2c-7-3-11-4-20-4-6 0-8 0-13 1-7 2-14 6-20 11-7 6-11 8-17 8s-10-2-12-5c-1-2-1-3-1-7v-5l-5 3c-7 4-11 7-19 10-23 9-56 13-82 9z"/>
    <path d="M706.3 525.2c-38.5-3.7-75.5-23.8-98-55.7-24.3-33.2-32-77-24.5-117.2 4-18.3 12-36.6 25.5-49.6-10.8 23-14.5 49.4-8.7 74.3 9 49.8 51 92 101.3 99.2 19 5.7 40-.4 59-6.5 42-14.8 74-54.6 78-99 3-24.2-1-49.2-11-71 6 3.2 14 16 18 24.7 16 31 16 68 7 101.2-13 42-45 79-88 92.4-20 6.3-40 8.2-60 7.2z"/>
    <g id="a">
      <path d="M512 470c-2.5-.5-5.3 2-4.3 4.6 1.8 2.6 5 4 7.8 5.2 6.7 2.7 14 3.8 21.4 3.6h1c6 0 11-1 17-3 3-1 7-2 8-5.4 1-2-1-4.3-3-4-3 .8-6 2.2-9 3-7 1.8-14 2.6-21 2-5-.6-10-2.2-15-4-2-1-3-2-5-2z"/>
      <path d="M514.8 459.5c-2.5-.4-4.7 2.6-3.7 5 2 2.8 6 4.3 9 5.6 6 3 11 4 17 3h2a37.6 37.6 0 0 0 15-2c3-1 6-2 8-5 1-1 1-4-2-4-1 0-3 2-5 2-6 3-13 4-20 4-4 0-8-2-12-4-2-1-3-2-5-2z"/>
      <path d="M518.3 449.6c-2.2-.3-3.7 2.2-3.3 4.2.3 1.7 1.8 2.8 3 4 5.4 3.8 12.2 5.5 18.7 5.3h1.6c4.2 0 8.3-1 12-2 2.5-1 5.4-2 6.3-5 .4-1 .6-3-1-4-1.4 0-3 1-4.4 1-4.8 3-10 4-15.5 4-4.7 0-9-2-13-4-1.6 0-2.8-2-4.4-2z"/>
      <path d="M481.5 302.7c-3.2 3.3-.7 9.3-1 13.5 1.8 13.2 4 26.5 8.8 39 6 12 18.8 18.5 26.5 29.2 2.8 5 1.8 11.3 2.4 17 .4 15.3.3 30.7 0 46 7 3.6 14.5 7 22.5 5.7 4.7-1 13.5-1 14.5-6l-1-79c-2.7-8-11-12-17-17a155.5 155.5 0 0 1-14.3-16c-3-4-13-6-10 2 2 7 7 12 9 19 0 4 5 11 1 14-3-4-6-8-11-10-5-3-12-5-14-10-1-8-6-15-11-22 1-7 0-16-7-21h-1z"/>
      <path d="M491.4 304.2c-3 .5-2.8 4.2-1.5 6.2 1 4.3 1 9 1 13.4 5 6.2 9 13.6 10 21.7 0 3 3 4 5 5.5 5 3 10 5.4 14 9.3 1 1 1 2 1 0-1-2.5-1-5.4-3-7.3-3-3-6-5.5-10-6.4-1-4.2-3-8-4-11.6-2-3.5-4-7.2-8-9.4 0-6 0-12.5-3-18.2-1-1.4-2-3-4-3.2z"/>
      <path d="M499.7 306.6c-2 .6-1.6 3.2-1 4.7 1 4.4 1.2 8.8 1 13.2 4 3 6.2 7.4 8.4 11.6 2 3 3 6 4 9 3 1 6 3 8 5-1-2-3-5-4-7s-3-5-3-8c-3-3-4-7-4-12 0-4-1-9-4-13 0 0-1-1-3-1z"/>
      <path d="M509.2 308c-1.2.2-1.8 1.2-2.4 2-.3 1 .8 2 1 3a21.8 21.8 0 0 1 1.4 10.3c0 2.5.8 5 2 7 .4-1.5 2-2.6 3.4-2.8.6 0 1.5.2 1-.7-.3-4.8-1-9.6-2.7-14-1-1.7-2-3.4-3-4.5 0-.2-1-.4-1-.3z"/>
    </g>
    <use height="100%" width="100%" xlink:href="#a" transform="matrix(-1 0 0 1 1440 0)"/>
    <path d="M715.7 476c-13.5-1.3-25.7-11-30-24 .4-2.2 3 1.2 4.4 1.5 3 1.3 6 2.4 8 2.6 4 2 6 5 10 7 2 2 7 4 6 0-1-2-2-4-1-7 2-4 5-7 8-11 2 0 4 4 5 5 3 4 5 8 4 12-1 2-2 6 1 5 4-1 8-4 11-7 3-2 7-2 10-4 2 0 5-3 5-2-1 5-4 9-7 13-5 6-11 10-19 11-4 1-9 1-13 1z"/>
    <path d="M731.5 460.2c.3-2.7-.3-5.5-1.7-8-2-4.2-5-8-8-12-2.8-1.5-4.3 3.8-6 5.3-3 4.3-6.6 8.7-6.8 14-1.6 2.5-4.6-2-6-3.5-2.3-3.5-4.2-7.6-4-12-.2-7 1.2-14 3.7-20.6 2-5.6 5-11 4.8-17 .2-4.7-.7-9.7-4.4-12.8-3-2.8 3-3.4 5-2 3 .3 5 5.5 8 4.2 1-2.7 2-6 4-8 3-3.3 5 1.2 6 3.4 2 1.8 0 6.5 3 6.6 3-2.3 6-6 10-7 2-.8 5 0 3 2-3 2.8-5 6.3-6 10.6-1 5.3 1 10.6 3 15.4 4 9.4 8 20 6 30.5-1 4.6-4 8.6-8 11.3 0 .3-1 .3-1-.4z"/>
    <path d="M726.7 389.6c-1.4-2.6-3.2-5.2-5.6-7-2 0-3 3-5 4.6-1 2-2 5.6-5 3-4-2.7-5-8.4-5-13 0-7.7 3-14.7 6-21.7 2-4.3 2-9.2 0-13.6-1-6-5-9-8-13 0-2 4-1 6-1 4 1 6 3 8 6 2-1 1-4 2-6 0-3 4-6 5-2 2 2 0 6 3 7 3-1 4-4 6-5 3-2 6-2 8-1 1 2-2 4-3 6-4 5-5 12-3 18 2 5 4 9 5 14s1 11-1 17c-1 3-4 5-7 7-1-1-1-2-1-3z"/>
    <path d="M711.6 327c-3.4-2.6-4.5-5-4.5-9.6 0-2.3 1-3.6 2-5.8 3-3.2 2-4.2-1-3.3-5 1.5-8 .2-8-4.3 0-2.2 1-3 4-6.7 3-2.8 4-4.3 3-4.8 0-.4-3 2-9 7.8-4 4.7-10 9.4-11 10.6-10 6-19 7-23 2-2-3-2-4 1-6l5-4c3-3 12-10 16-12s5-3 3-3c-3 0-12 6-20 13-2 2-5 4-7 5-3 1-11 2-14 1-2-1-6-5-6-6s1-1 2-2l5-3c6-5 17-11 26-12 3-1 2-2-1-2-6 0-18 6-25 12-8 7-21 6-25-1l-1-3 6-2c3-1 9-4 15-7 9-5 12-6 18-7 3-1 3-2 1-3-3-1-9 1-18 6-12 6-16 7-22 6s-9-2-14-7c-3-3-7-11-7-12h3c2 0 7 1 13 1 8 0 11-1 15-2 7-2 17-7 24-12 13-10 23-14 37-14 13 0 20 3 27 10 3 2 5 4 5 3 0 0 1-4 1-9 0 0 4-1 5 0 0 8 0 8 2 8l2-2c1-3 5-6 9-8 9-5 25-5 37-1 5 2 11 5 16 10s17 10 24 12 19 2 25 1l5-1c3 0-1 8-6 12-8 8-19 8-34 0-9-5-21-8-21-5 0 0 1 1 2 1 4 0 10 2 19 6 10 4 15 6 18 6 2 0 2 1 0 5-3 3-6 5-12 5s-8-1-13-5c-8-7-28-14-27-10 0 1 1 1 3 2 7 1 15 5 23 11l6 4c1 1 1 1 1 3-1.5 2-5 5-9 5-5 0-10-1-15-5-10-8-20-14-23-14-2 0-1 1 3 4 6 3 12 7 16 11 2 2 4.8 3 5 4 2 1 2 2 0 5s-5 4-9.3 3c-9-1-16-5-26-16l-8-8c-1 0 0 2 2 5 3 4 4 6 2.4 9-1 3-3 3-7 2s-4 0-2 3c4 5 3.7 11-1 15-1 1-3 2-3 2-.5 0-1.5-1-2.4-2-3-4-5.6-4-8.6 0l-2 3-3-2z"/>
    <path d="M726.7 233l-5.2 4-4.6-3.4v27.8h9z"/>
    <path d="M695 204.3c-1 13-4.5 22.2-9 32.3l11-10.3 7.7 9.2 8.4-9.4 9 8 8-8 9 10 8-8 13 9c-4-10-10-18-10-33-12 9-41 11-53 1z"/>
    <path d="M717 197.6c-4.5 0-9.2 0-13.4 1-3 .5-5.6 1.5-7.8 3 .3 8.6 41 12 52 .2-2.4-1.7-5.2-2.7-8.3-3.3-4-.8-8.6-.8-13-1l.2 7H717v-7z"/>
    <path d="M725 154h-6.4v49.4h6.4z"/>
    <path d="M725 155.2l-2.5 23.7 24.3 11-12.3-17 16.8-6zm-2.8-6c-3.7 0-6.4 1.3-6.4 3 0 1.5 2.7 3 6.4 3s6.4-1.5 6.4-3-2.7-3-6.4-3z"/>
  </g>
  <g fill="#f7e017">
    <path d="M314 376c2.7-1 4.2-2.6 5.3-5.7.5-1.6 1-3.2.8-3.6 0-1-1-1-2 0-1 .8-1 1.2-1 2.7 1 3.7 0 4.7-7 5.4 0 0-2 0-4-.3-3-.4-4 0-3 1l2 1c2 .4 9 0 11-.6zm14.7-.7c.4-.4 1.8-1 3-1.5 1.7-.5 2.6-1 3.3-2.2 2-3 1.7-5.7-1.3-9.3-1.7-2-2.4-2-3.7.3-1.2 1.8-1 2 .5 2.4 1 .2 1.7.8 2 1.6 2 3 1.4 5-1.2 5-2.4 0-3 .4-3.8 2-.3.8-.6 1.6-.6 2 0 .5 0 .4 1-.3zm-4.8-3.5v-8c0-3.4 0-6.3-1-6.4-1-.4-3 .8-3 1.7v10c0 6 0 7 1 4z"/>
    <path d="M312.6 369l.7-5c0-1.7.5-3.8.7-4.7.7-2.3 0-3-1.8-1.6l-1.4 1 .3 3.3c1 3 0 8.5 0 10.7 0 .6 0 .4 1-.5 1-.7 1-2 2-3.2zm-10 1.6c2.4-2 2-5.6 2.7-8.4 0-2 1.2-4 .4-5.8-2.3.4-3.7 2.6-2.5 4.7 0 3 0 6-1.3 8-2 2-5 1-5-1 1-3-3-1-5-1-1 1-4 1-3-1-1-2-4-1-6-1s0-3-3-3c-5 0-10 0-14-2-3-1-2-4-1-5 1-2 1-5 4-7 2-2-2-1-3 0-3 1-1 5-2 6-1 2-3 4-5 4-4-1-6-4-8-6-2 0-1 4 0 4 2 2 4 3 7 4 2 0 2 3 5 4 4 2 8 3 13 3 2 0 1 4 3 3 1 1 4 0 4 1-2 3 2 3 3 2 2 0 4-1 5 2 1 2 4 2 6 1z"/>
    <path d="M262.7 350.4c.8-1 2-3 2.5-4.2.6-1.4 1.5-3 2-3.6 1.2-1.2.5-2-1.3-1.6-1 .2-2 .6-2 1.5-1 2.8-2 5.7-3 7-2 2.5-2 2.6-1 2.6 0 0 1 0 2-1zm-25-15.7c-1.8 0-2 1.2 0 1.8.8.3 1.6 1 2.2 2.3 1 3.5 2 4 7 4.6l3 .2v3.7l2-1c2-1.2 4-3.8 4-5.4 0-2-2-3-4-3-1 0-2 0-3 1-4 2-7 2-9-2-2-3-4-4-5-4zm16.4 6.5c1 0 2 .7 1 2 0 .8-1 .8-1 0 0-1 0-2 1-2zm127-4c-1 0-1 .2-2 1.4-1 2-1 6 0 7.4 1 1 1 1 3 .3 2-1 3-1 3 .2 0 3-4 8.7-9 11.7l-2 2c0 .8 2 .7 4-.4 3-1.4 7-5 8-8 1-2.3 2-3 2-7v-6.2c-1-1.3-1-1.5-3-1.5zm0 2.5c1 0 1 .2 2 1.6v2.3c-1 .7-1 .7-1-.4-1-1.6 0-3.5 1-3.5zm-20 28.5c4-2 6-4 8-7.2l2-3.2c0-.5-2-1.4-3-1.4s-1-.8-1-3c1-2 0-4.8-1-4.8 0 0-1 .5-1 1v2.8c1 2 0 3.6-2 5-1 .5-1 1.2-1 2v1l2-1.2 2-1 2 .8c1 .5 1 1.3 1 1.8 0 2.4-7 6.4-11 6.8-2 .2-3 0-4-.8 0-.7-1-1.3 0-2v-2.6c1-2 0-1.8-2 .6-1 2-1 4-1 5.2 1 1 5 1.8 8 1.6 2 0 4-.5 6-1.4zm26-14.5c3-2.5 4-5.5 4-10V340l2-1c3-1.2 6-3.7 6-5 0-1.6 0-1.5-2 0-1 1.2-2 2-6 3.8-1 .4-1 .7-1 5 0 5-1 6.8-3 10.2-2 2-2 2.3 0 2.3 1 0 2-.8 3-1.8zm-27-2.7c0-1-1-1.4-1-1v1c1 .7 2 .5 2-.2zm37-9.8c1-.7-1-1.2-1-.6v1c1 .6 2 .4 2-.4zm-44-25.8c-1 .5-1 1.5-2 2.3v1c2 1.7 3 4.2 4 6.5 1 2.7 2 5.5 1 8.4 0 1-1 2-2 1.8-2 0-4-.7-6-.7s-3 1.8-5 1.6c-1 0-1-2.4-2-1.7v4c0 .3 1 0 1 .2h4c0 1 0 2.5 1 3.5 2 .5 3 0 4-.4 2-1 2-2 2-4 1-2 2-1 3-2 3-1 4-3 4-6 0-4-1-8-3-11l-1-5zm-6 21.8c2 0 2 1.6 2 2.7 0 1-2 0-2-1s0-3 1-2z"/>
    <path d="M296 324.8c-.6 0-1.3.2-2 .7-3.5 2.5-4.4 5.4-2 6.6 1.7 1 1.3 2-1.5 4-4 2-7.5 2-14.2-1-1.6 0-2 0-1.7 1 .4 2 1.8 3 5 3 3.7 1 8 1 11 0 1.2 0 2.8-2 4.2-3l2.2-2 2.5 1c3 1 3.2 1 3.2 2s0 1 3 2l4.6 1c1.3 0 2 1 2.4 1 .5 1 1 1 5.6 1h7.2c1.4 1 3 1 4 1 3.5 0 8-3 8.8-5 0 0 1.3-1 2.7-1 3.4-1 3.5-1 .4-2-1.4 0-3.5 0-4.6-1-1.2 0-2.7-1-3.5-1-1.7 0-3.3 1-3.3 3 0 1 .2 1 2.3 0 2 0 2.4 0 3.4 1 .7 1 1 1 1 2-.5 1-4.4 3-6.2 3h-3c-1.6-1-3.8-1-4.3 0-.2 0-.6 0-1.3-1l-1-1-3 1c-3 1-4 1-4 0h-4c-4 1-5 0-5 0-1-1-1-1-1-2v-2h-3c-4 1-5 0-5-3 0-2-1-3-3-3zm-1 2.8c.2 0 .4 0 .6.4.4.3.6 1 .4 1.3-.3 1-2 1-2.3 0-.2-.5 0-1 .5-1.3l.8-.4z"/>
    <path d="M288 330.4c2.4-1.5 2.4-1.4 2.7-5.5.2-3 .2-4-.6-4-1 0-1 1-1 3 0 1 0 2-1 3-2 2-7 1-7-2 0-1 0-2 1-3 3-3 2-4-1-2-1 1-2 1-1 0 1-2 0-2-2-2-1 0-1 0-1 1s0 1-1 1-3-1-3-2 3-5 7-9l3-3s-1-1-2-1-1 0-1 1c0 0-2 3-4 5-5 5-5 6-3 8 2 1 5 1 7 0l2-1v2c0 2 1 3 3 4s6 1 8-1zm104.4-34.6c-1.8 1-.4 3.4 0 5-.8 2-3.5 2.6-5.5 3-3 .5-5 2.8-6 5.3-1 2-2 5-4 2-2-1-4-2-5-1s-2 3-2 4c-1-1-1-2-3-3-3 1-2 4-1 5 1 2 2 4 1 5-1 2-4 4-6 2-2 0-1-4-3-4-1 1-1 4-2 2-1-1-1-3-2-5-2 1-3 3-2 4 1 3 2 6 3 8 0 2 0 4 1 4v-6c1 0 3 1 5 0 3 0 5-2 6-5v-5c2 1 4 1 6 1 1 2 0 4-1 6-1 4-4 6-6 8-1 1-2 3 0 2 3-1 6-4 7-8 1-2 0-5 1-8 1-2 4-1 5-1 2 0 3-2 3-4-1-2 1-3 3-4s4-3 3-5c0-1 0-4-2-4zm-7.3 12.5c3 .6 0 4.8-1 2 0-1 1-2 2-2zm-10 3c3 0 2 4 0 2.2-1-.7-1-2.2 1-2.2zm-105 16.4v-.8c-1 0-1 0-1 1 1 0 2 0 2-1zm34-3.8v-1c-1 0-1 1 0 1s1-1 1-1zm-42-21c-1-1-2 1-2 2-1 1-2 3-4 4-1 0-3 0-4-1s-1-3-1-4c-1-1-2 0-2 1s2 2 3 3c1 0 3 1 3 2s0 2 2 2 2 1 1 2c0 1-1 2-1 4 1 0 2-1 2-2l1-2h8c2 0 4-1 5-3 2-2 3-4 5-6 2 0 1-3-1-2-1 0-1 2-2 3-1 2-3 3-5 5-1 1-3 0-4 0-1-1 1-1 1-2 1 0 2-1 3-2 0-1-2-1-3-1-2 0-4 2-6 2s-1-2 0-3c1-2 3-4 5-6 0-1 2-1 1-2h-2zm2 10c2 0-1 1-1 1-1 0-1-1 0-1l2-1zm-4 2c1 0 2 0 1 1s-2-1-1-1z"/>
    <path d="M289.4 317.8c0-1-1.7-.8-1.8.2-.2.6 0 .7.8.6.6 0 1-.4 1-.8zm74.7-6.6c1-1-1-1.5-1-.8 0 .6 0 2 1 1.7h1zm-116-9c1-1 1-1.2 1-3.4-1-3 0-3.5 1-3.8 2-.3 6 1.7 6 3.3 1 1.3 1 1.4 0 2.4s-1 2.4 0 2.4 4-2 4-3-3-4-5-5c-1 0-3-1-4-1-3 0-3 1-2 5s0 5-4 2c-2-2-3-4-3-8s2-6 5-7c3 0 3-1 0-1s-6 2-7 6c-1 5 1 11 7 13 3 2 4 2 5 1zm139-5.3c1-1 1-1 1-2s1-2 1-3c1-1 1-2 1-2 0-1-1-1-2 0s-2 1-2 0l1-1c2-1 2-2 1-2-1-1-3 0-3 3 0 1 0 1 1 2s2 1 1 2c0 1 1 2 2 1zm14-2l2-2c0-1 1-1 2-2 3-2 4-4 2-8 0-2-2-3-5-6-2-3-5-5-5-5s0 3 1 3c2 0 3 1 5 3 3 2 5 5 4 7 0 1-1 1-4-2l-3-3s-1 0-1 1 1 2 2 4c2 2 3 4 1 5-1 0-1 1-1 1l-1-2c-1-2-7-9-8-9v1s0 1 1 2c1 0 4 3 7 7l2 2 2-2zm6-17c0-1-8-10-9-10v2c0 1 1 2 2 2s3 2 5 3l4 3v-1zm-48 93a1.2 1 0 1 1-2 0 1.2 1 0 1 1 3 0zm5-2a1.2 1 0 1 1-2 0 1.2 1 0 1 1 3 0z"/>
  </g>
</svg>
