<svg xmlns="http://www.w3.org/2000/svg" height="480" width="640" viewBox="0 0 640 480">
  <g stroke-width="1pt">
    <path fill-rule="evenodd" fill="#229e45" d="M0 0h640v480H0z"/>
    <path d="M321.4 435.94l301.5-195.67-303.32-196.2L17.1 240.73l304.3 195.2z" fill-rule="evenodd" fill="#f8e509"/>
    <path d="M452.77 240c0 70.33-57.1 127.34-127.54 127.34-70.45 0-127.55-57-127.55-127.33s57.1-127.3 127.55-127.3c70.44 0 127.54 57 127.54 127.4z" fill-rule="evenodd" fill="#2b49a3"/>
    <path fill="#ffffef" fill-rule="evenodd" d="M283.3 316.27l-3.94-2.27-4.1 2.02.92-4.55-3.16-3.33 4.52-.53 2.12-4 1.9 4.2 4.46.8-3.35 3.2m86.1 26.3l-3.94-2.3-4.1 2.1.92-4.5-3.16-3.3 4.5-.5 2.1-4.1 1.9 4.2 4.4.8-3.4 3.2m-36.2-30l-3.4-1.9-3.6 1.7.8-3.9-2.8-2.9 3.9-.4 1.8-3.5 1.6 3.7 3.8.7-2.9 2.7m87-8.7l-3.3-1.9-3.5 1.8.8-3.85-2.7-2.8 3.8-.45 1.8-3.45 1.6 3.6 3.8.67-2.9 2.7m-87.4-22l-4-2.2-4.1 2 .9-4.5-3.1-3.3 4.5-.5 2.1-4.06 1.9 4.2 4.4.8-3.4 3.1m-104.6-35l-4-2.3-4.1 2 .9-4.54-3.1-3.4 4.6-.55 2.1-4.1 1.9 4.2 4.5.8-3.4 3.13m13.43 57l-3.94-2.3-4.1 2 .9-4.54-3.17-3.3 4.5-.5 2.1-4.1 1.9 4.2 4.4.8-3.4 3.2m132-67.2l-3.5-2-3.4 1.7.8-4-2.8-2.9 4-.43 1.8-3.6 1.65 3.7 3.9.7-3 2.7m-6.65 38.2l-2.8-1.6-2.8 1.4.6-3.13-2.2-2.3 3.2-.4 1.5-2.83 1.4 2.95 3.1.55-2.3 2.2M219 287.87l-2.64-1.5-2.7 1.4.6-3.06-2.1-2.2 3.02-.4 1.4-2.7 1.2 2.9 3 .5-2.3 2.1m200.4 15.1l-2.13-1.1-2.23 1 .5-2.24-1.7-1.7 2.44-.2 1.17-2 1.06 2.1 2.4.4-1.8 1.58"/>
    <path fill="#ffffef" fill-rule="evenodd" d="M219.26 287.6l-2.63-1.52-2.73 1.36.6-3.04-2.1-2.22 3.02-.36 1.42-2.72 1.26 2.82 2.98.54-2.24 2.1"/>
    <path fill="#ffffef" fill-rule="evenodd" d="M219.26 287.6l-2.63-1.52-2.73 1.36.6-3.04-2.1-2.22 3.02-.36 1.42-2.72 1.26 2.82 2.98.54-2.24 2.1m42.3 3.03l-2.64-1.6-2.7 1.3.6-3.1-2.1-2.3 3-.4 1.47-2.7 1.26 2.8 2.98.5-2.2 2.1m-4.8 17l-2.6-1.6-2.7 1.3.6-3.1-2.1-2.3 3-.3 1.5-2.7 1.3 2.8 3 .5-2.2 2.1m87.4-22.3l-2.6-1.56-2.7 1.4.6-3-2.1-2.27 3.1-.3 1.4-2.7 1.3 2.8 3 .5-2.2 2.1m-25.1 3.04l-2.6-1.5-2.7 1.3.6-3.1-2.1-2.2 3-.36 1.4-2.7 1.3 2.8 3 .5-2.2 2.1m-68.8-5.9l-1.63-1-1.75.85.4-1.9-1.36-1.4 1.9-.2.87-1.78.8 1.73 1.88.3-1.4 1.3M416 310.4l-2.6-1.5-2.7 1.36.6-3.02-2.1-2.2 3-.34 1.4-2.7 1.3 2.8 2.97.5-2.22 2.1m-20.85 5.8l-2.2-1.26-2.23 1.1.5-2.5-1.75-1.86 2.5-.3 1.2-2.28 1.04 2.3 2.46.45-1.86 1.7m10.4 2.3l-2-1.18-2.1 1.06.45-2.3-1.6-1.7 2.3-.24 1.1-2.1 1 2.1 2.3.4-1.7 1.6m29-22.5l-1.9-1-2 1 .5-2.3-1.6-1.7 2.3-.3 1.1-2 .9 2.1 2.2.4-1.6 1.6m-38.8 41.8l-2.6-1.4-2.7 1.3.6-2.8-2.04-2 2.9-.3 1.4-2.5 1.2 2.6 2.9.5-2.1 1.9m.5 14.3l-2.4-1.4-2.4 1.2.56-2.8-1.9-2 2.7-.3 1.23-2.5 1.13 2.6 2.6.5-2 1.9m-18.9-23.06l-1.9-1.1-2 1 .4-2.28-1.6-1.7 2.26-.28 1.1-2 .9 2.1 2.2.4-1.6 1.6m-18 2.14l-1.93-1.12-2.06 1 .5-2.27-1.6-1.7 2.2-.2 1.05-2 .9 2.1 2.2.4-1.7 1.57m-30.4-24.6l-1.97-1.1-2 1 .4-2.24-1.55-1.6 2.25-.3 1.1-2 1 2.1 2.2.4-1.6 1.57m3.8 57.06l-1.7-.96-1.7.8.4-1.9-1.36-1.4 1.9-.3.9-1.7.8 1.77 1.9.3-1.4 1.3m-46.1-86.6l-3.9-2.26-4.1 2 .9-4.53-3.2-3.3 4.5-.56 2.1-4.1 1.9 4.2 4.4.8-3.3 3.1"/>
    <path d="M444.37 285.82c1.94-5.1 4.45-12.75 5.78-19.8-67.74-59.5-143.26-89.98-238.68-83.7-3.42 6.55-6.16 13.4-8.47 20.84 113.06-10.78 195.94 39.27 241.37 82.66z" fill-rule="evenodd" fill="#fff"/>
    <path d="M413.9 252.36l2.43 1.32c-.38.86-.48 1.6-.3 2.25.17.65.62 1.2 1.33 1.7.75.5 1.42.73 2 .67.6-.06 1.06-.3 1.35-.73a1.27 1.27 0 0 0 .3-.87c0-.3-.2-.66-.5-1.07-.2-.28-.7-.87-1.5-1.78-1-1.16-1.6-2.14-1.8-2.93-.3-1.13-.1-2.14.5-3.06.4-.6 1-1.03 1.6-1.32.7-.3 1.5-.36 2.3-.2.8.16 1.7.54 2.6 1.14 1.5 1 2.3 2.05 2.6 3.2.3 1.13.1 2.24-.5 3.33l-2.4-1.4c.3-.6.4-1.2.2-1.7-.1-.5-.5-.9-1.2-1.4-.6-.4-1.3-.6-1.8-.6a1 1 0 0 0-.8.5c-.1.3-.2.6-.1 1 .1.5.7 1.2 1.6 2.3 1 1 1.6 1.9 2 2.5.4.7.5 1.4.5 2.1 0 .7-.3 1.4-.8 2.2a4.1 4.1 0 0 1-1.8 1.5c-.7.3-1.6.4-2.4.3-.8-.2-1.8-.6-2.8-1.3-1.4-1-2.3-2.1-2.7-3.3-.3-1.2-.1-2.5.6-3.9zm-11.46-7.53l2.47 1.22c-.3.87-.4 1.63-.2 2.26.2.7.7 1.2 1.4 1.7.8.5 1.5.7 2.1.6.6-.1 1.1-.3 1.3-.8a1.25 1.25 0 0 0 .2-.8c0-.3-.2-.6-.5-1-.2-.2-.7-.8-1.6-1.7-1.1-1.1-1.7-2.1-2-2.8-.3-1.1-.1-2.1.4-3.1a3.62 3.62 0 0 1 1.6-1.4c.7-.3 1.4-.4 2.3-.3.8.2 1.7.5 2.6 1.1 1.5.9 2.4 2 2.8 3.1.4 1.1.2 2.3-.4 3.4l-2.4-1.4c.3-.6.4-1.2.2-1.7s-.6-.9-1.3-1.3c-.7-.4-1.3-.6-1.9-.6-.3 0-.6.2-.8.5-.2.3-.2.6-.1 1 .2.5.7 1.2 1.7 2.2s1.7 1.8 2.1 2.4c.4.7.6 1.4.6 2.1 0 .7-.2 1.5-.7 2.2a4.16 4.16 0 0 1-1.7 1.6c-.8.4-1.6.5-2.4.3-.9-.1-1.8-.5-2.84-1.2-1.5-.9-2.45-2-2.8-3.2-.4-1.2-.25-2.5.4-3.9zm-14.2-3.8l7.27-11.98 8.9 5.42-1.2 2.03-6.4-3.95-1.6 2.66 6 3.7-1.2 2-6-3.6-2 3.3 6.7 4.1-1.2 2.1-9-5.6zm-20.7-17l1.08-2.1 5.4 2.8-2.55 4.96c-.8.2-1.78.2-2.98.1a9.36 9.36 0 0 1-3.4-1c-1.3-.7-2.3-1.5-3-2.6a5.9 5.9 0 0 1-1-3.5 8.6 8.6 0 0 1 1-3.7c.6-1.3 1.5-2.4 2.6-3.1 1-.7 2.2-1.1 3.5-1.1 1 0 2.1.3 3.3.9 1.5.8 2.5 1.7 3.1 2.8.5 1.1.6 2.3.3 3.5l-2.8-.8c.1-.7 0-1.4-.3-2-.3-.6-.8-1.1-1.5-1.5-1.1-.6-2.2-.7-3.2-.3-1 .3-1.9 1.2-2.6 2.6-.8 1.5-1 2.7-.8 3.8s.9 1.9 2 2.4c.5.3 1.1.4 1.7.5.6.1 1.2.1 1.7 0l.8-1.6-2.9-1.5zm-90.24-22.38l2.03-13.87 4.17.62 1.12 9.83 3.86-9.1 4.2.62-2.04 13.87-2.6-.38 1.6-10.92-4.33 10.5-2.6-.38-1.1-11.32-1.6 10.9-2.6-.37zM263.2 200l1.3-13.95 10.3.97-.22 2.36-7.5-.7-.3 3.1 7 .65-.23 2.35-6.98-.66-.36 3.8 7.8.73-.2 2.36-10.5-1z" fill="#309e3a"/>
    <g stroke-opacity=".5">
      <path d="M216.5 191.28c.04-1.43.28-2.62.74-3.58a6.65 6.65 0 0 1 1.34-1.88c.57-.56 1.18-.96 1.85-1.2.88-.36 1.88-.52 3.02-.5 2.05.07 3.68.75 4.88 2.07 1.2 1.3 1.77 3.1 1.7 5.3-.05 2.2-.7 4-1.97 5.2-1.26 1.2-2.92 1.8-4.97 1.7-2.1-.1-3.7-.8-4.9-2.1-1.2-1.3-1.8-3.1-1.7-5.3z" fill="#309e3a"/>
      <path d="M219.4 191.25c-.03 1.6.3 2.8 1 3.65.72.83 1.64 1.27 2.76 1.3 1.12.03 2.05-.35 2.8-1.14.74-.8 1.13-2 1.18-3.64.04-1.6-.28-2.8-.96-3.62-.68-.8-1.6-1.23-2.76-1.26-1.16-.03-2.1.35-2.84 1.13-.74.78-1.12 1.97-1.17 3.58z" fill="#f7ffff"/>
    </g>
    <g stroke-opacity=".5">
      <path d="M233.05 198.5l.16-14 6 .06c1.5.02 2.6.16 3.3.42.7.26 1.2.7 1.6 1.36s.6 1.4.6 2.22c0 1.05-.3 1.92-.9 2.6-.6.67-1.5 1.1-2.7 1.26.6.36 1.1.76 1.5 1.2.4.42.9 1.18 1.6 2.28l1.7 2.76-3.3-.04-2-3.08c-.7-1.1-1.2-1.8-1.5-2.07-.2-.3-.5-.5-.8-.6-.3-.1-.7-.16-1.4-.17h-.6l-.1 5.84-2.8-.03z" fill="#309e3a"/>
      <path d="M235.98 190.46l2.08.02c1.36.02 2.2-.03 2.54-.14.34-.1.6-.3.8-.6s.3-.6.3-1.03c0-.4-.12-.8-.38-1.1-.24-.3-.6-.5-1.05-.5h-4.25l-.04 3.6z" fill="#fff"/>
    </g>
    <g stroke-opacity=".5">
      <path d="M249 185.2l5.15.25c1.16.06 2.04.2 2.64.4a4.68 4.68 0 0 1 2 1.4c.5.64.9 1.42 1.2 2.34.2.9.3 2 .3 3.3-.1 1.1-.3 2.1-.6 2.9-.4 1-1 1.8-1.6 2.4-.5.4-1.2.8-2.1 1-.7.1-1.5.2-2.5.1l-5.3-.3.7-14z" fill="#309e3a"/>
      <path d="M251.7 187.7l-.46 9.26 2.1.1c.8.05 1.36.03 1.7-.04.47-.1.86-.27 1.17-.53.4-.3.6-.7.9-1.4.2-.6.4-1.5.4-2.6s0-1.9-.1-2.5c-.1-.6-.4-1.1-.7-1.4-.3-.4-.7-.6-1.2-.8-.4-.1-1.2-.2-2.3-.3l-1.3-.1z" fill="#fff"/>
    </g>
    <g stroke-opacity=".5">
      <path d="M317.63 210.22l3.26-13.63 4.4 1c1.6.4 2.7.7 3.2 1 .7.4 1.2 1 1.6 1.8.3.8.4 1.7.1 2.8-.2.8-.6 1.5-1 2-.5.5-1 .8-1.5 1-.6.2-1.1.3-1.6.3-.7-.1-1.7-.2-2.9-.5l-1.8-.4-1.2 5.1-2.8-.7z" fill="#309e3a"/>
      <path d="M323.1 199.55l-.94 3.87 1.5.36c1.08.26 1.82.37 2.22.3a1.85 1.85 0 0 0 1.58-1.44c.12-.5.07-.94-.14-1.33a1.94 1.94 0 0 0-.96-.8c-.3-.1-.96-.3-1.95-.5l-1.3-.3z" fill="#fff"/>
    </g>
    <g stroke-opacity=".5">
      <path d="M330.6 214.1l4.65-13.2 5.6 1.97c1.4.5 2.38.98 2.93 1.44.56.5.92 1.1 1.1 1.9s.1 1.5-.16 2.3c-.35 1-.93 1.7-1.74 2.2-.8.5-1.8.6-3.03.3.46.6.8 1.1 1.03 1.6.24.6.5 1.5.77 2.7l.7 3.2-3.18-1.1-.9-3.5c-.34-1.2-.58-2.1-.73-2.4-.16-.3-.36-.6-.6-.8-.26-.2-.68-.4-1.3-.6l-.53-.2-1.9 5.6-2.6-1z" fill="#309e3a"/>
      <path d="M335.94 207.43l1.96.7c1.28.44 2.1.67 2.45.67.35 0 .67-.1.94-.3.2-.2.4-.5.6-.9.1-.43.1-.83 0-1.2-.2-.35-.4-.64-.8-.86-.2-.1-.9-.35-1.9-.73l-2.1-.7-1.2 3.4z" fill="#fff"/>
    </g>
    <g stroke-opacity=".5">
      <path d="M347 213.6c.43-1.36 1-2.44 1.68-3.24a6.58 6.58 0 0 1 1.8-1.45c.7-.3 1.4-.6 2.1-.6.95-.1 1.97.1 3.05.4 1.97.7 3.34 1.8 4.14 3.3.8 1.6.87 3.5.2 5.7-.68 2.2-1.8 3.7-3.34 4.6-1.55.9-3.3 1-5.26.4-1.98-.6-3.37-1.7-4.16-3.3-.8-1.5-.8-3.4-.2-5.5z" fill="#309e3a"/>
      <path d="M349.83 214.38c-.47 1.52-.48 2.78-.03 3.78.46 1 1.22 1.67 2.3 2 1.07.34 2.06.23 3-.33.92-.57 1.63-1.62 2.1-3.18.5-1.53.5-2.78.07-3.75-.43-.96-1.2-1.6-2.32-1.96-1.1-.35-2.12-.24-3.04.3-.9.56-1.6 1.6-2 3.15z" fill="#fff"/>
    </g>
    <g stroke-opacity=".5">
      <path d="M374.3 233.12l6.42-12.45 5.27 2.74c1.3.7 2.2 1.3 2.7 1.9.5.6.7 1.2.8 2s-.1 1.5-.5 2.3c-.5 1-1.2 1.6-2 1.9-.9.3-1.9.3-3.1-.1.3.6.6 1.2.8 1.7.1.6.3 1.5.4 2.8l.2 3.2-3-1.5-.4-3.6c-.2-1.3-.3-2.1-.4-2.5-.1-.4-.3-.7-.5-.9-.2-.2-.6-.5-1.2-.8l-.5-.3-2.7 5.2-2.5-1.3z" fill="#309e3a"/>
      <path d="M380.5 227.23l1.86.96c1.2.6 1.97.9 2.33 1 .3 0 .6 0 .9-.2.3-.2.5-.5.7-.8.2-.4.2-.8.2-1.2-.1-.4-.3-.7-.7-1-.2-.2-.8-.5-1.8-1l-2-1-1.7 3.1z" fill="#fff"/>
    </g>
    <g stroke-opacity=".5">
      <path d="M426.1 258.7c.8-1.18 1.65-2.05 2.54-2.62a6.6 6.6 0 0 1 2.15-.86 5.45 5.45 0 0 1 2.2-.03c.9.1 1.8.6 2.8 1.2 1.7 1.1 2.7 2.6 3 4.3.3 1.7-.2 3.5-1.5 5.4-1.3 1.8-2.8 3-4.5 3.3-1.7.3-3.5-.1-5.2-1.2-1.7-1.2-2.8-2.7-3.1-4.4-.3-1.8.1-3.6 1.4-5.4z" fill="#309e3a"/>
      <path d="M428.58 260.25c-.9 1.32-1.26 2.52-1.1 3.6.14 1.1.68 1.96 1.6 2.6.94.62 1.93.8 2.97.54 1.06-.3 2.04-1.1 2.95-2.5.9-1.4 1.27-2.5 1.13-3.6-.14-1.1-.7-1.9-1.65-2.6s-1.97-.9-3-.6c-1.04.2-2 1-2.9 2.4z" fill="#fff"/>
    </g>
    <path d="M301.82 204.52l2.25-9.84 7.27 1.68-.38 1.66-5.28-1.22-.5 2.18 4.92 1.14-.4 1.65-4.9-1.13-.62 2.68 5.48 1.26-.38 1.66-7.46-1.72z" fill="#309e3a"/>
  </g>
</svg>
