<svg xmlns="http://www.w3.org/2000/svg" height="480" width="640" viewBox="0 0 640 480">
  <path fill="#ffd520" d="M.1 0h640.1v480H.1z"/>
  <path d="M.1 480h640.1V0z" fill="#ff4e12"/>
  <g stroke="#000" stroke-width=".52">
    <g fill="#fff" stroke-width=".42">
      <path d="M345.4 150.07c-4-1.4-6.57.65-6.44 5.8.12 5.15 2.83 8.1 6.82 6.18l-.4-11.98z"/>
      <path d="M348.9 140.42c-3.33-2.62-6.43-1.5-7.96 3.42-1.53 4.92.08 8.6 4.48 8.05l3.48-11.5z"/>
      <path d="M354.43 131.1c-2.86-3.14-6.1-2.52-8.4 2.1-2.3 4.6-1.3 8.48 3.13 8.65l5.27-10.76zm-3.63 45.37c-4.9 1.8-5.4 8.5-2.32 12.62 3.1 4.1 8.76 4.9 11.85 0l-9.53-12.7z"/>
      <path d="M345.14 162.3c-4.64-1.54-8.82 4.7-9.53 10.3-.9 7.1-10.9 9.4-5.4 20.1 1.2-6.83 5.7-10.56 9.3-10.82 3.6-.26 9-1.03 11.4-5.4l-5.6-14.18zm14.68 27.56c-5.4 1.3-6.2 8.5-2.32 13.65 3.3 4.5 13.65 3.4 13.4-1l-11.08-12.6zm15.32 43.4c.26-4.63-7.2-6.43-10.8-5.53-3.62.9-10.5-.13-12.12-4-1.3 3.1.58 6.44 5.8 8.12 3.94 1.27 3.86 4.12 2.7 5.4 2.96.52 11.72.52 14.42-4z"/>
      <path d="M370.9 203.65c-5.28-2.32-8.4 1.2-10.43 4.63-2.97 5.03-12.1-1.4-15.2 5.28 4.2-1.8 8.45 2.05 10.43 3.35 5.67 3.8 16.6 2.6 18.16-6.1l-2.96-7.1z"/>
      <path d="M373.98 209.82c-5.28 4-7.34 8.76-7.2 11.98.12 3.22 4.63 10.3 9.52 10.7 2.84-5.8 4.25-18.04-2.32-22.68zm-21.88 24.86c0-1.93 2.83-2.7 4.76-2.06 1.93.64 4.9 2.58 3.86 4.64l-8.62-2.58zm-29.12-10.56c-.5-2.32 3.22-6.3 8.25-4.12 5.02 2.2 5.66 6.44 3.6 8.1l-11.85-3.98z"/>
      <path d="M335.22 228.37c-.4-1.3 3.23-3.86 9.4-2.32 6.18 1.54 7.7 5.52 7.47 8.63l-16.9-6.3zm-12.88-4.25c3.22-2.45 2-7.08-.9-8.5-5.28-2.58-3.35-9.27-6.7-10.56-3.34-1.3-6.56-3.6-6.7-5.92-1.67 3.22-.64 6.18 1.68 8.24 2.32 2.06-1.8 10.43 1.16 12.62l11.46 4.12zm-69.03-1.8c-2.7-4.25-9.1-3.48-11.8-.52-2.7 2.97-2.3 7.34.3 9.28l11.6-8.76zm15.5-6.3c-1-5.68-7.8-6.32-11.6-4.9-3.7 1.4-6.3 7.08-3.8 11.2l15.5-6.3z"/>
      <path d="M279.07 215.23c2.45-4.76-2.32-11.85-7.72-12.88-4.52-.86-9.86-.83-11.6-5.28-1.1 3.87 1.8 6.3 5.16 8.5 3.4 2.2-.6 7.86 4.8 11.08l9.4-1.42z"/>
      <path d="M278.56 215.4c-1.13-3.4 1.16-7.96 5.8-7.64 4.6.32 7.25 3.68 5.2 7.9l-11-.26z"/>
      <path d="M288.86 215.66c-.64-3.54 2.26-7.72 6.8-6.75 4.53 1 6.67 4.7 4.06 8.6l-10.86-1.8z"/>
      <path d="M299.1 217.28c-.47-3.57 2.63-7.6 7.12-6.4 4.48 1.2 6.43 5 3.63 8.73l-10.76-2.3zm-77.72 59c-8.63 0-10.74 2.05-11.98 10.95-1.55 11.07 13.52 12.36 11.98-10.95z"/>
      <path d="M225.24 264.7c-13.27-5.04-20.48 15.96-33.6 12.22 4.7 7.47 16.08.02 20.34.77 7.2 1.2 22.8-1.5 13.26-13zm-8.63 28.7c-6.5-2.95-13.6 7.1-12.3 11.47 1.7 5.56 16.6 1.03 12.4-11.46zM186 336.68c3.6 1.03 7.98 3.1 7.2 10.04-.76 6.96-13.9 21.12-25.74 21.9-11.85.77-16.1 15.06-26.28 11.07 9.53-1.8 9.53-12.7 17-16-5.4-2-8.24 10.3-15.2 10.3-6.95 0-10.3 11.1-18.8 10.3-8.5-.8-9.4 13.5-26.4 13.6-13 .1-29.1 15.3-34.9 8.7 12.62-1.8 17.72-8.8 25.25-16.5 12.1-12.4 25.75-6.8 30.4-17.8a31.65 31.65 0 0 1-18.3 5.4c-7.9-.2-16.6 12.6-25.5 6.9 5.15-.6 8.5-2.8 13.9-8.5 5.55-5.8 13.68-2.1 20.1-8 10.05-9.3 18.68-1.6 28.33-13.1-2.7-1.3-8.5-.4-13.9 2.4s-12.37-2-18.55 1.4c.8-7.6 15.2-3.3 24.2-8.5 10.2-6 18.7-4.2 26.7-3.5-11.2-.1-15.6-10.7-31-7.6-6.7 1.3-12.1-9.3-18.8-3.9.2-4 7.2-7.2 14.5-3.4 7.2 3.8 10.1-3.4 24.5 5.7 6 3.7 16.1-2.3 22.6 1.7-.8-2.5-4.5-4-8.8-3.7 2.7-5.6 20.2-4.9 27.8.7z"/>
      <path d="M197.42 328.3c-5.66-4.38-13.52.9-18.93-1.16 0 3.6 1.8 9.02 7.7 11.08 1.8-1.3 9.9-8.37 11.2-9.92z"/>
      <path d="M206.3 315.82c-8.87-4.5-10.42 6.7-17.37 4.37.25 3.2 2.83 7.2 8.5 8.1l8.88-12.5z"/>
      <path d="M211.6 305.64c-13.14-5.15-14.82 7.47-22.54 5.02 1.8 4.38 12.87 6.7 18.54 5.15l4-10.1zm18.02-55.25c-3.48-4.9-10.82-.9-11.98 4.9-1.16 5.7 1.67 13.9 6.57 12.1l5.5-17z"/>
      <path d="M238.5 234.94c-6.05-1.42-13-.78-12.23 5.15-2.32 1-2.96 8.6 3.35 10.3l8.88-15.5z"/>
      <path d="M242.5 230.94c-5.93-6.95-12.53-6.8-16.23-3.86-6.83 5.4-13.46 2.32-13.65 7.73 4.12-3.1 7.73.7 11.07-.5 3.3-1.1 5.8 5.3 15 2.6l3.7-5.9zm-14.3 103.94c.9 1.67 6.44 2.45 9.14-.4 3.6-3.74-.38-14.15-6.05-14.93-5.7-.77-6.2 11.72-3.1 15.33z"/>
      <path d="M221.76 335.14c8.1 2.96 11.6-3.74 7.2-8-1.15 1.43-5.4 6.58-7.2 8z"/>
      <path d="M191.37 346.2c-1.55 4.65-9.53 5.42-18.55 19.84-9 14.43-17.64 8.37-19.83 18.3 10.8-8.77 19.3-2.95 25.7-11.6 9.8-13.14 17.8-11.25 21.6-20.1 5.4-12.6 29.1-12.36 30.4-32.2-8-1.53-33.3 19.84-39.4 25.77zM394.6 151.5c10.3 3.34 10.55 16.73 22.4 21.1 11.85 4.4 13 14.95 22.66 12.37-9-2.45-8.37-12.88-17.77-15.45-11.1-3.02-15.2-19.84-24-22.4m43.9 74.3c1.8 4.12 1.5 11.46-4.9 13.4 3.5 2.18 8.6.12 11.4-4.65-4.3 9.4-1.4 17.9 5.3 19.58-3.3-6.57 4-9.66 1.6-13.9 4.2 1.8 8 7.6 7.8 11.2 5.5-6.2-4.1-14.43-2.3-20.22l-19.1-5.4zm-66.7 66.2c-6.3-5.55-9 1.44-12.1-.98-2.9-2.25-6.8-2.57-8.3-.32 5.4.2 2.7 4.38 13.2 5.4-10.5.72-8.6 12.44-15.6 11.86 7.4 7.08 11.3-6.3 17.3-4.12-1.8.5 2.8 4.76-.4 10.43 5.2-.2 7.3-7.4 8-11.1l-2.3-11.2zm-139 60.13c-2.3-1.93-9-2.83-11.6-1.28-2.6 1.54-1.7 1.93 1.4 2.2 3.1.24 7.1 5.24.4 5.52-3.1.1-2.1 7.6-8.5 8.1 2.6 3.2 10.1 1.1 12.8-2.5-.5 2.9 3.3 5.5 1.8 9 4.7.5 2-9.7 9.5-9.2-3.1.4-1.8 7.3 3.6 5.5-3.2 1.5-1.5 5.3 2.1 4.4-2.3.7-3.1 3.7.1 5.4 3.1-4.3-.4-19.5-11.7-27.3zm280.5-142.1c9.8 0 17.8-8 17.8-17.84s-8-17.8-17.9-17.8c-9.9 0-17.9 8-17.9 17.9s8 17.9 17.9 17.9z"/>
      <path d="M423.44 227.22c5.4-5.15 13.65-7.73 19.32-3.87 5.66 3.87 24.47 8.5 33.74 2.06 9.27-6.4 13.65-9.7 17.77-9 3.1 4.7 6.83 6.9 11.46 7.2 1.42 1.6 6.44 2.9 9.28 2.5 4.2 1.1 9.2-.2 13.2-4.6 6.2.9 12-3.7 14.2-10.7 6.6-.7 7-8.1 2.9-13-3.8-.7-.9-13.8-14.9-11.2 6 3.6 1.4 10.8 6.3 14.2-3.3 0-7.6 1.4-8.7 6.5 1.3-3.5-.2-5.8-1.1-6.5.2-2.9-6.4-10.2-12.6-7.6 4.5 1 2 8.1 5.2 10.8-2.3.2-4.7 1.3-6.2 3.4-1.6-2.9-7.6-6-11.2-6.3 0-1-.2-3.1-.6-4.1-1.6-3.1-2.9-6.7-2.3-11.4-3 3.4-5.6 8-7.2 11.4-4.9-3.3-17 1.6-22.6 2.9-5.6 1.3-24.7-1.8-29.1-6.4-4.4-4.6-12.9-7.4-20.8-9.8-11-3.1-11.1-15.1-23.2-23.4-.2 15 22.4 62.3 27.6 67.5zm-126.2 113.84c9.52 0 17.25-7.73 17.25-17.26 0-9.53-7.8-17.26-17.3-17.26s-17.3 7.73-17.3 17.26c0 9.53 7.7 17.26 17.2 17.26z"/>
      <path d="M256.02 327.8c3.47 4.5 9.4 4.24 11.84 3.86 2.06 5.4 8.63 5.28 11.47 8.24 2.83 2.96 12.5 2.7 15.32 1.03-2.57-.26-5.92-1.8-9.14-4.5-3.8-3.27-2-9.8-5.1-12.12 2.3-2.5 2.7-6.8 2.2-8.5 2.5-1.4 4.3-3.7 4.5-4.8 4.3-.2 8-2.4 9.5-4.1 2.2 2.1 7.8-.6 10.7 2.9.7-8.5-7.5-13-12.9-10.1-2.2-1.1-7.9-.4-9 1.2-1.8-.7-6.8 1.8-9.1 3.5 2.6-1.4 3-5.6 2-7.2 2.2-.9 4.7-3.8 4.9-6 3.1.6 7.7-1.5 9.8-1-3.3-4.3-8.9-5.9-14.5-5.5-5.8.4-8.3 4.5-9.1 8.9-3.5 2.1-4.6 9-3.3 11.5-2 0-3.8 1.9-4.6 3-2.7-1.2-6.5-2-9.3-2m1.3-7c-1.1-3.4.4-6.4 1.2-9 2-6.7.8-8.5-5.3-7.6-.5 3.3 2.6 13.8 4.1 16.6z"/>
      <path d="M248.62 282.33c1.54 1.54 7.02 2.25 7.6-2.64.66-5.7-1.62-7.8-6.5-5.6-.4 1.2-.85 6.5-1.1 8.2z"/>
      <path d="M249.78 273.9c2.06.83 6.5 2.5 8.95-2.26 2.05-4-.65-7.08-4.9-6.82-1.03 1.16-3.1 5.28-4.05 9.08z"/>
      <path d="M253.58 264.43c.5 1.55 5.8 6.7 9.65 2.96 3.87-3.8 3.87-9.3-1.93-11.4-1.54.2-6.18 5.6-7.72 8.3z"/>
      <path d="M261.3 256.06c1.15 3.22 4.76 8.76 11.46 6.2 6.7-2.6 3.86-10.96.77-12.63-1.8.12-9.14 3.47-12.23 6.43z"/>
      <path d="M273.54 249.62c-.52 2.84 0 10.56 9.14 10.43 9.14-.12 6.57-10.8 4.25-12.36-3.74 0-10.05.1-13.4 1.9z"/>
      <path d="M287.3 248.07c-1.02 2.2-3.34 16.6 14.57 12.62 2.3-.6 8.37-13.8-14.56-12.7z"/>
      <path d="M297.1 249.36c-1.8 1.8 2.83 16.36 14.94 13.9 12.1-2.44 1.93-16.22-14.94-13.9z"/>
      <path d="M307.4 251.55c-1.93 4 .97 15.84 15.9 15.84 13.54 0-.7-15.6-15.9-15.9z"/>
      <path d="M319.12 255.03c-.97 2.22-2.16 14.78 15.45 15.84 12.75.78 9.66-17.25-15.45-15.84z"/>
      <path d="M338.06 260.3c-2.2 3.88-4.5 13.53 14.8 14.3 12.38.5 4.77-14.03-14.8-14.3z"/>
      <path d="M354.15 263.27c-2.83 3.87-.74 11.44 6.44 12.88 9 1.8 10.3-6.7 4.1-10.82-6.2-4.12-10.6-2.06-10.6-2.06z"/>
      <path d="M362.9 265.07c-2.05 3.6-.77 12.37 12.9 12.37 2.82 0 13.64-11.08-12.9-12.37zM257.2 433.02c11.07 0 20.04-8.97 20.04-20.04 0-11.06-8.97-20.03-20.04-20.03-11.06 0-20.03 8.97-20.03 20.03 0 11.07 8.97 20.04 20.03 20.04z"/>
      <path d="M404.12 141.7c-1.55 1.55-4.76 6.2-5.4 8-6.7 20.08 11.17 35.1 21.63 56.65 8.24 17 7.2 43.8-5.67 60.8-4.4 5.8-3.1 7.46-8.76 13.38-2.17 2.27-4.63 5.15-3.86 13.4 3.6-1.3 8.76 2.06 9.8 4.9 2.56-1.3 6.17-.78 7.46.76 4.37-2.1 7.98-1.1 11.84 3 3.35-.5 6.96 0 10.3 3.6 1.8-3.6 5.42-4.9 8-4.1-.27-4.7 4.37-8 8.5-6.2-1.3-6.2 4.37-10.8 9.78-9 4.63-3.6 13.9-3.9 18.54 1.5-8.24-2.3-7.98 6.4-14.94 5.6 1.8 5.1-2.83 8.1-7.46 9.8 2.96-1.5 6.18-3.1 7.2-1.3 2.58-2.3 7.73-1.4 9.02-.3 3.4-1.1 6.7-.3 8.24 3.8 4.64 2.8 7.73 10 4.38 15.4-1.03-5.7-4.9-5.4-6.44-7.7-3.6 1.3-7.2 1.3-8.24-1-2.06 2-9 3.8-12.1.7-1.16 4.6-5.16 8.5-9.8 8.5 1.3 3.6-2.3 9.8-5.14 12.8 4.38 2.3 3.1 7.5 2.06 10.6 6.7 1 1.03 6.9 12.62 10.8-5.67 1.8-16.74 0-18.3-7-5.66-.3-9.52-5.9-9.26-11.9-4.38-4.1-5.02-10.1 1.03-14.2-5.15 1.5-8-6.7-15.46-3.3-3.8 1.6-13.6-1.2-13.4-4.7-1.6 2.5-11 1.5-12.3-2.9-3.1 1.6-10.3-1.2-10.2-5.4-4 1.8-9.4-1.5-9.2-5.6-3.8-.5-4.1-3.9-3.9-6.7-3.4-1.6-2.5-4.8-1.2-8.6-2.4-2.6-1.3-6.2.5-9.6-2.6-2.6-2.1-5.6-1.3-9.3-12.4-1-27.9-4-63.4-14.9-53.6-16.5-68 22.2-56.2 46.4 13.6 27.9-1.6 34 3.1 54.8 4.9 1 7.4 5.1 7.2 9.5 2.9.1 4.9 2.8 3.9 8 2.4-.5 5.6.2 7.6 2.3 1.8-3.4 7.7-4.1 10.8-.3 6.7-.5 10 4.9 9.8 11.6 3.6 6.4 2.3 14.3-1.6 19.3.4-2.7 0-6.6-.1-8.9-.3-4.3-6.2-5.2-5.6-8.7-3.1.2-6.1-1.4-7.1-3.8-1.8 1.5-4.4 2-6.6 1.3 3.5 1.5 6.2 7.7 5.1 11.8 1.8 3.1 1.4 8.8-.8 11.2-1 5-4.9 6.8-9.9 4.6 2.8-1.8 3.9-5 3.7-7.7-1.8-1.5-2.7-4.5-2.9-6.3-5 .8-12-3.5-13.3-5.2-11.1 0-20.1 9-20.1 20-.5-4.1-5.7-8.2-5.1-11.6-3.1-9.5 1.3-18.4 13.9-20.2-1.6-3.6 3.8-7.3 1.8-11.46-2.7-5.26-7.5-12.1-14.7-20.1 4.4-7.46 3.1-17.5.5-23.7-3.7-8.86-7.2-6.7-20.3 7.74-21.4 23.5-50 17-75.2 32.4-6.7 4.1-13.4 5.7-6.2-1.53 7.2-7.2 26.2-14.4 38.6-20.6 23.1-11.5 42.7-30.9 50.5-68.5 18.1-88.3 85-59.2 127.2-42.7 39.6 15.5 32.4-19.58 12.3-40.7-24.2-25.38-19.3-45.3-8-61.3 20.3-2.8 59.3 4.25 51.5 11.1z"/>
      <path d="M475.86 358.78c12.17 0 22.04-9.86 22.04-22.04s-9.87-22.04-22.04-22.04c-12.18 0-22.05 9.87-22.05 22.04s9.9 22.04 22.1 22.04z"/>
    </g>
    <g fill="none" stroke-width=".42">
      <path d="M391.76 142.73c-4.9 21.63-.77 31.42 6.44 40.95 14.9 19.7 26.8 64.65 9.8 94"/>
      <g stroke-linecap="round">
        <path d="M417.5 252.33c2.07-.78 5.94-3.22 6.84-7.47m-5.28-1.93c.64-3.74 6.43-5.35 6.56-9.34m-6.44-5.3c-.38-3.9 5.8-7.4 4.9-11.2m-8.24-2.7c-.52-2.2 5.15-6.3 3.6-9.8m-7.85-3.8c-1.2-2.5 2.7-5.3 1-7.9m-7.2-3c-.4-1.7 2-5.4.7-7.6m-6.9-5.2c.5-.7 2.6-2.2 1.7-4.1m-6-5.3c.8-.5 3.3-1.2 3-3.1"/>
        <path d="M266.06 410.86c-5.15-1.8-11.6.77-12.87 5.15m3.8 4c.6-4.3 7.3-6.3 9.4-4.2-4.3-2.3-6.3 5.9-2.6 6.2m34.6-103.8c-3.1 1.6-4 7.2 0 11.5m4.6-10.1c-2.2 1.8-2.1 7.2 1.1 8.5-2.7-1.9 0-5.3 1.9-5.4 1.9-.1 3.2 2.2.9 4.5m177 5.2c-7.2-1.9-13 6.5-6.5 13.9-.2-7.2 5-11.9 11.3-10.6m-2.9 5c-1.8 0-2.8 1.4-2.8 2.8s1.2 2.8 3.2 2.8c1.3 0 2.3-1.5 2.3-2.6m22.7-161c1.1 4.4 7.2 6.2 12 5.2m0-2.8c-3.8.1-6.9-3.3-6.6-6.3 0 2.2 5 3.2 6.5 1.8" stroke-linejoin="round"/>
        <path d="M267.86 331.66c-1.03-2.58 3.1-5.16 3.22-7.6.13-2.45 4.64-4.38 9.28.25m-2.2-27.4c-.9.4-1.67.9-2.44 1.2m11.34 12.9c-1.1.1-3.35 0-4.58-.9m.07 5.8c-.9.5-2.9 1.3-4.05 1.5m-40.12 76.3c-.13 2.4 2.2 5.7 3.47 6.7m6.57-12.2c-1.28 2-2.06 5.3-1.28 7.6m20.47.2c-2.3-1.5-.7-5.5-1-8.1-.2-2.5 2.7-6.7 8.5-3.2m-29.1-3.4c2.3-.3 4.8-.2 6.3.4m23.1-7.7c-1 1.4-1.3 3-1.4 4m12.3-4.2c-1.8 0-3.3 1.3-4.1 2.6m-20.8-68.5c2.1.7 7.4 4 7.6 7.4m14.2-24.3c-6.3-.1-8.7-6.5-4-6.5m15.4 15.2c-2.4 1.1-1.3 5.3 2.2 7.4m-17.3 33c-1.2-1.6.4-6.1 4.4-4.7m5.1 51.7c.2-4 5.2-6.3 7.2-1.8m-25.5 13c-.3-4.3 1.8-5.8 3.8-6 1.9-.3 4.7 1.3 6 4.2m-48.2 5c.2-2.6 2.4-5.3 4.7-4.9M467.7 287c-1.7 1.2-2.8 6.7 3.6 7.2m-13.4 1.8c0 .65.88 1.55 1.4 1.94m29.04 8.37c-1.67-1.3-6 4-2.06 7.7m-38.9 35.6c-.9-3.6 2.5-4.6 5.7-3.8m-13.9-22.1c1.9-1.3 3.9-2.7 6.3-3.3m-7.3 17.5c0-3.1 1.55-5.6 2.97-6.4m8.38-29.1c-.25 3.8 1.3 7.4 2.46 9.3m28.2-9c-1.9.6-3.6 1.3-4.3 2.9m2.2 7.7c.9-.8 1.9-1.7 2.4-2.3m46.3-110.1c0 3.6-4.5 5.6-7.5 3.3m17.2-3.1c2 1.6 8.9.1 7.3-3.9m-15.6 24.6c-1.4-.2-3.9-1.8-4.9-3.1m19-7.6c-2.3.6-3.9 0-5-.5M505.7 224c1.2 0 4.3-.5 6.5-1.6M502 200.9c-1.67-.2-2.9.12-3.86.76m29.83 5.52c-.45 1.6-1.6 4.12-3.03 5.22"/>
        <path d="M497.5 212.8c3.2-1.43 7.2 9.52 14.93 5.66m.64-11.34c-1.03 1.42-1.67 3.6-1.8 5.54" stroke-linejoin="round"/>
      </g>
      <path d="M359.05 190.38c1.03-.13 2.83-.5 3.22-1.8m-135.74 121.7c3.86 2.2 6.57 5.92 4.9 11.46m172.17-143.2c1.16.77 5.54.77 8-.13m3.08 2.7c-.13 1.9.4 8.7-3.1 10.1m1.3-.9c3.22 1.1 9.66.7 11.72-5.3m-4.5 5c1.66 2.6 2.17 7.6-2.85 10.3m4.13-6c3.73 1.3 12.36 1.4 11.46-5.9m-2.96 6c2.58 3.6 13.9 7.9 12.1.4m-22.53 10.1c4.37 1.1 10.56-1.9 7.98-9.6m12.37 3.8c.6 3 15 6.1 13.1-.6m-2.7 3.9c2.7 6.2 17 5.7 12.5-2.5m-2.4 6.5c2.82 3.4 15.45 1.4 10.42-7m-.14 6.8c7.84 5.9 17-2.6 7.07-8.8m4.5 6.9c6.97 5.6 15.47-4.5 9.4-7.3m-64.38 5c2.2.7 6.8.4 7.83-3.6m-1.74 2.7c-.26 5.9 9.6 8.1 12.1 1.4m-3.28 3.7c1.8 3.9 10.42 5.4 11.84-.1m-1.44 2.6c1.43 3.9 8.9 3.5 10.96-.5m-2.7 2.6c2.3 5.1 11.82 5.1 14-2.3m-1.67 3.2c3.74 2.4 11.73 1.5 11.08-5.8m-1.54 5.2c5.6 4.5 13.4.2 9.6-7.4m-.4 13.4c3-.5 4.5-6.4 1.4-8m-70 9c6.2-3.3 7.4-9 3.1-14.6m2.2 8.9c3.9 2.3 11.2-.1 12.5-5.8m-7.2 6.5c2.2 2.9 2.6 6.3-.3 9.6m2.1-5.9c6.9-4.2 15.4 3.6 9 8.4m-1.2-8.8c1.6-.3 4.3-3.2 4.5-6.4m-1.4 9.4c2.9-2.9 22.2 3.1 9.9 9.3m-.9-17.4c3.8 1.5 5.7 6.7 0 8.5m4.9 4.4c4.2-4.2 17-1.5 12.4 3.9m-3.1-5.5c2.3-7.8 16.1-2.9 11.6.3m-14.4-8.2c.4 1.6.5 5.4-2.1 7.5m13.7-9c.5 1.3.4 3.8-.7 5.3m9.5-5.1c.8 1.4 2.1 4.1-.7 6.3m-109.6-66c.2 7.4 2.7 12.2 12.6 7.6m-9.5 1.2c-4.9 6.5.7 13.6 10.3 6.5m-25.4-3.3c6.7 7.2 18.7 1.9 11-9m8.1 15.2c-1.3 7.1 4.5 8.5 9.3 5.3m-34.2-10.3c1.2 7.1 8.5 12.8 15.6 8.4m-6.8 1.4c0 10.2 14.1 11.4 17.3.8m-5.1 6.5c4.5 9.3 14.3 5.6 17.5-.1m-27.6-15c1.8 4.5 5.4 9.6 13.8 5.8m-39.6-8c1.1 3.8 7.8 8.3 15.5 3.1m-10.8 1.6c-4.1 6.1 4.1 11.8 14 2.7m-9.1 4.8c1.7 8.5 5 15.3 17.2 4.4m-6.1 4.4c4.3 5.4 11 8.7 17.4-.4"/>
      <path d="M387.25 188.83c-.4 6.44.9 9.66 5.92 9.4 3.96-.2 7.73-3.35 9.92-6.7m-10.9 6.7c-.2 7.35 5.6 13.15 16.5 5.68m-12 3c-2.1 5.6 4.1 14.6 16.2 9.9M371 192.2c-.77 7.1 5.8 11.9 16.36 2.7m-11.2 5.2c.4 5.8 6.96 12.8 16.62 2.7m-12 4.7c-.78 9.9 8.37 12.73 16.1 5.13M367 200.13c2.06.14 3.73-1.66 4.76-2.95m-.4 10.16c1.8.38 4.9-1.3 5.95-3.35m-1.4 15c2.1 2.2 9 .6 9.9-2.3m-2.1 2.2c3.9 9 14.2 8.6 18.4-1.6m-1.9 3.6c2 5.3 6.9 8.6 14.8 6.8m-10.9-1.5c-4.5 7.3 1.4 16 11.5 7.5m-9 3.4c-.5 4.6 3.7 9.9 9.5 10.6m-28.6-24.1c-1.5 10.4 6 15.4 15.4 9.9m-26.2-4.9c2.5 1.9 6.9 2.2 11 .6m5.1 6.1c-2.3 8.7 6.7 15 14.4 5.3m-27-10.5c.2 4.5 4.5 9.4 12.1 7.9m21.3 9c-5.1 3.4-6.2 9.6 1 13.6M401 245.1c.27 5.2 2.7 8.2 8.5 8.7m-16.1-11.5c-7.7 7.1-.1 15.3 9.03 8.3m-3.63 2.2c-2.6 8.1 7.1 13 12.2 4.7m-28.2-22c-2.9 7.9.8 13.2 7.3 12.7M372.4 234c.4 4.8 4.5 6.45 9.1 5.4m-6.2-.36c-3.5 6.7 1.8 10.3 8.7 7.73m21.2 15c-1.2 4.26-.6 7.35 5.8 8.77m-5.5-2.7c-7.6 3.48-8.2 10.8-2.3 15.6m-3.8-23.74c-4 3.6-3.2 9.86 1.2 12.3m-35-35.8c-4.4 4.3-.2 16.2 9.42 9.7m15.66 5.37c-5.9 4.9-3.2 13.8 6.56 11.35m-16.3-15c-3.1 8.7-.1 11.8 6.84 11.9"/>
      <path d="M359.3 236.1c-5.28 4-3.86 9.65-1.54 12.23s6.7 1.42 8.1-1.93m-17.64-13.78c-5.92 7.6 0 16.62 8.38 13.9m23.3 8.64c-6.04 2.2-10.66 7.7-6.94 12.5 2.2 2.82 11.72 3.2 14.42-7.74m-18.42-11.85c-3.48 5.03-2.32 9.8 4.12 12.24m-4.5-2.8c-3.74 2.1-6.2 4.5-5.28 9m-3.1-16.8c-1.4 6.1.27 9.8 4 11.6m-4.12-4.4c-5.8-.3-8.76 2.1-6.83 7.8m.52-6.3c-5.67-2-6.57-6.9-4.13-12.1m-.77 7.6c-6.18.3-8.88 3.4-8.88 7.6"/>
      <path d="M340.5 229.66c-4.5 1.93-5.93 7.98-4.25 11.33 1.67 3.3 6.95 3.6 10.17 1.4m-18.54-17.5c-4.12 4.6.64 13.6 8 11.4m-18.58-15c-3.86 5.4.4 14.4 10.3 11.8m.52 25.1c-1.03-6.5 5.66-10.7 13.9-2.3m-3.98-13c-2.45 2.2-3.6 5.6-3.22 8.5m-28.08-33.3c-4.25 7.2.9 13.7 10.05 11.2m13.7 6.7c-6.1 6-4 12.1.5 15.5m-4.4-8.5c-9.2.1-9.7 10.7-2.2 14m-4.8-24.6c-3.8 2.6-4.9 9.6 1.5 12.5m-1.8 3.3c-3.9-1.8-8.5.4-8.1 4.9m2.3-4.8c-3.5-8.3-13.7-6.9-12.8 1.6m15.5-11.9c-2.2.4-6.6 1.6-8.3 5m.6-14.3c-4.1 4.6-.9 10.1 2.4 11.3m-14.4-24c-.8 5.5 1.4 8.2 8.3 7.7m-6-.7c-2.7 6.7.9 9.7 7.8 9.3m-6.3-1.1c-4.1 4.9-1.2 10.1 2.7 12.3m-4.6-6.2c-7.3-.9-8.5 7.6-6 11.6"/>
      <path d="M292.85 215.5c-4.5 1.93-7.08 7.6-4.64 11.07 2.5 3.48 7.4 2.32 10.1.52m-8.5 1c-3.7 5.6-.4 9.9 3.6 11.6"/>
      <path d="M275.34 214.85c-2.97 3.1-1.16 9.4 6.05 9.53 5.8.1 8.7-5.4 6.9-9.27m-8 9.3c-2.3 5.2-.9 10.7 7.8 9.8m3.7 8.1c-5.4-2.4-12.6 0-9.6 6.5m-.8-15.6c-2.2 3.1-1.5 7.5 1 10.2m-1.5-1.9c-3.6.7-7.1 2.6-4.9 8.3m-.5-4.6c-4.7-1.4-10.6 2-7 6.7m-.8-4.5c-4-.6-8.8 3.6-4.9 7.9m-1.5-3.5c-3.7.9-7.9 5.1-4.2 8.3m22.3-28.4c-5.2 2.3-5.7 8.1-3.2 12.4m-2.1-23.1c-7.7 3-7.6 13.3.9 16.5m-3.6-2.3c-4.7 2.7-5.6 7.9-2.5 11.2m-5.4-29.4c-3.1 1.1-2.9 10.6 5.4 10.3m-13.9-7.1c-6.2 4.1 1.3 14.6 11.3 7.1m-5.6 2.6c-.9 4.3.2 8.9 7.1 9.4m-6.7-3.7c-4.9 1.8-5.8 11.9 3.1 12.6m-18.7-21.8c-6.3 5.8 5.1 10.9 9.4 2.5m-18.2 7.2c-3.1 3.8 7.7 13.6 12.5-2.8m1.1-.2c.2 3.9 2.5 6.2 7.3 6.5m-.2 3.8c-7.6 1.2-10.1 10.7-1.6 12.8m-12.5-14c-.3 3.6 3.5 6.6 7.7 5.9m3.8 7.9c-7 1.5-7.9 10.6-1.7 10m-3.2 8.4c-5.8-1.7-5.9-8.6-.8-11.2"/>
      <path d="M245.72 267.78c-4.9 2.96-2.96 10.04-.4 11.07 2.6 1.03 4.65-.26 4.9-2.45m-.38 9.92c.52 3.35-11.9 2.06-5.54-8.37m-.07 8.95c-4.18 6.57 2.64 11.92 6.96 6.3m-6.4 1.62c-1.7 5.28 4.7 9.08 8.8 4.96m-22.8-54.4c-2.3 4.75 9.2 6.56 10-3.23m-13.3 10.3c-2.4 9.28 15.2 7.35 10.7-4.63m.3 6.18c2.4 1.42 9.8 1.54 11.6-6.3m-5.3 6.56c.5 2.44 2.7 5.4 4.8 6.3m-13.2-3.86c-.8 5.03 4.2 9.15 10 8.76m-9.1-3.86c-2.9 3.86-3.8 11.33 5.1 11.85M224 262.9c-1.4 3.9 6.96 8.1 11.86 1.5m-14.4 8.6c-.7 3 6.8 7.05 11.06-5.8m-3.35 6.54c1.8 3.22 7.88 5.8 11.6-.5m-6.04 3.85c-1.55 4.5 2.7 8.7 7.85 7.4m-17.5-8.5c-1.03 6.4 6.44 10.1 11.08 6.8m-16-4c-2.2 8.2 8.3 11.3 12.3 5.1m-2.7 2.4c.4 4.6 7.6 8.6 13.27 4.7m-26.14-.9c-.5 2 8.1 4.1 9.4-3.1m-4.4 4.9c2 5.3 9 6.5 13 .1m-2.3 2.5c.9 4.9 7.2 7.6 12.7 4.2m2.3 1.9c-1.4 6.5 5.4 11.8 9.6 8.2m-20.6-9.4c-2.1 7.2 6.9 11.3 12 7.3M225.9 296c-.5 6.7 4.7 10.7 10.8 7.77m-22.3-7.1c-1.8 4.3 7.7 7.9 12.2 4.2m-18.2 7.8c2.4 2.8 10.9 0 11.7-6.36m-2.3 4.7c3 3.7 10.4 5.6 13.4-2.1m-2.6 4c-.2 5.5 9.8 9.5 13-.7m11.6 2c-.9 2.7 1.2 7 5.6 7.5m-13.9-9.2c-.6 3.1 3.9 7.4 8.7 5.7m.9 1.3c-1.3 3.4-.2 8.2 4.3 8.1m-3.9-1.9c-3.3 2.9-1.9 7.9 2.9 8.1m-4.6-3.3c-4.7 3.2-3.1 10.3 3.2 9.9M239.1 313c0 7 8.67 8 10.3 1.6m-3.3 4.1c-1.27 4.1 2.07 8.1 7.35 7m-6.3 42.75c1.16 1.68 5.9-1.15 4.63-4-1.3-2.82-6.35-1.3-5.8 1.7m4.62-2.8c.7-5.7-6-6.6-7.7-1.7m2.46-2.83c1.64-2.82-4-6.7-6.3-2.56m2.02-1.7c1.5-4.14-4.9-5.94-5.4-2.2m-1.45-5.4c.8-2.07 8-.8 4.9 3.46m5.55 5.2c2.82-2.56-1.94-7.84-4.9-5.9m23.94 13.77c-2.26.2-4.58 1.7-2.9 6.5 1.16 3.3 6.1 3.5 6.82 1.5"/>
      <path d="M260.46 365.85c-2.2-1.42-6.95.96-4.76 5.6 1.65 3.5 5.8 2.06 6.44.26m-13.98.8c1.1 2 6.57 1.1 7.53-1m-3.8-5.3c1.1-.7 3.2.2 3.7 1.2m-4.1-32.9c-3.8 2.5-1.4 9.9 4.4 8m-5.6-1.9c-3 2.3-.3 9.5 5.3 6.8m-4.4 0c-2.1 2.1-.1 7.8 5.3 6.7m-6.1-3.8c-1.2-.5-4.2-.1-5.5 1.8m2.1-27.8c-2.9 2.7-1.5 8.3 3.8 8.7m-4.8-3.1c-4.1 2-4.1 10.1 4 10.4m-4.4-1.2c-2.3 1.8-1.2 8.7 4.6 7.8m-2.8-.2c-.8.8-1 3-.3 3.9m-2.3-6.5c-2.1.1-4.8 1.6-5.5 3.7m-3.8-7.4c.7-2.1 7.1-2 7.6 4.1m.6-7.2c-.9.2-2.7 1-3.1 2.7m.3-21.6c-2.8 2.5-4.1 10.5 4.3 12m-9.9 4.4c0-2.1 5.7-3.9 7.7-.8m-11.2-11c.8 1.6 4.8 3.8 7.2 2m-28-14.6c-.2 3.8 2.9 7.1 7.2 6.6 4.2-.5 5.1-4.2 3.8-6.7m-3.3 6.9c-2.8 3.5.7 8.4 3.9 7m-.6-9.4c1.7-.6 7.3-1.4 8.9 1.2m-26.8-.1c-1.2 2 6.7 3.9 9.4.2m-2.7 2c-.2 2.6 1.1 7 7.6 5.2"/>
      <path d="M219.83 326.63c1.03-2.2-3.86-5.8-7.6-1.8-3.73 4 .52 8.5 2.84 6.95M202.7 318c-1.93 3.36 5.54 9.47 9.8 3.8"/>
      <path d="M197.74 323.8c-2.7 2.77.65 7.86 4.7 6.3 4.06-1.54 3.67-5.8 2.7-6.88"/>
      <path d="M192.53 328.95c-2.2 2-.07 6.7 2.96 6.7 3 0 4.8-2.38 4.3-5.4m5-1.68c-.4 2.96 4 5.02 6.8 2.25m.1-5.4c.4-.66 0-1.75-.6-2.27m-23.4 9.8c-2.5 2 2.9 7.53 6.3 2.44m13-3.6c-1.6 1.5.9 5.6 3.5 4.3m-12.4-1.6c.3 2.7 5.8 4.8 9.2.6m-6.3 2.2c-.8 1.7.8 4.5 2.9 4.1m48.3 11.8c-2 3.9 4.4 8.5 9 3.7M257 359c-.95 2.1.2 5.1 1.94 6.2m-8-1.77c.44-1.96 3.2-3.76 5.7-2.86m-9.06-2.24c.4-1.75 2.7-3.5 4.47-3.04m147.2-77.3c-9.1.1-5.26 14.8 2.6 11.8m-5.5-1.1c-1.8 2.9 1.7 7.7 5.53 4.9m-1.04.6c-2.7 4.5 6.98 11.4 10.8 4.3m-3.1 2.7c.18 4.3 12.5 7 10.7-1.5m-1.12 4.6c2.93 5 14 5.5 12.85-1.9m-2.48 5.1c2.3 3.3 13.1 5.4 12.7-1.5m-56.7-40.9c1.5 4 6.8 5.4 12.6 3.1m-16-.3c3.6 2.3-1.7 12.8-7.2 8.6m7.2-2.1c4 1.9 8.9.5 10.3-5.1m-2.5 4.4c.4 2.9 4.6 5.3 10.2 4.1m-20.1-1c5.1 4.4-2.4 13.4-5.7 9.3m7.6-6c2.4 1.8 8.7.7 9.4-4m-2.8 4c.5 3.1 2.9 4.2 6.4 4.4m-14.4-.1c2.6 3.6 9 4.6 11.8-.2m-2.8 2.7c-.3 3.4 3.6 6.3 7.6 5.5m-21.5 2.2c3.3 1.7 6.9-4.6 4.1-9m-.3 15.7c4 .3 4.5-5.8.8-9.1m8.4 14.7c3.3-.8 2.3-8.1-5.8-8.8m15.9 14.2c3.2-.9.6-9.1-8.3-8.5m20.5 11.3c2.2-3.4-5.1-9-11-6.1m17 10.7c3.9 1.1 6.7-9.4-6-7.8m13.2 7.7c3.5-.9 5.9-7.2-4.3-5.2m11.9 5.6c3.1 1.5 4.5-7.5-4.9-5m-47-23.1c3.8 2.2 9.9-.4 9.4-5.3m-1.5 4.3c1.3 2.3.8 6.8-1.7 8m2-2.6c2.6 1 6 .1 8.1-4m-3.6 4c.8 1.8 1 5.4-.6 7.2m1.3-4.1c2.8 1.5 6.1-.5 7.6-3.5m-1.8 2.5c2 1.3 3.8 7.3.4 9.8m1.9-2.9c2.4.1 6 .1 8.3-3m-1.7 1.6c2.2.6 4.7 4.2 3.8 7.5m.1-1.2c2.4-.2 6.7-1.9 7.8-4.9m-1.2 2c2 1.1 3.5 3.6 3.2 6.4m0-2.1c2.4-.2 4.6-1.5 5.3-4.2m-.7 1.9c1.8.7 4 2.7 4.1 5.2m-.3-1.5c1.8-.3 3.1-1.4 4.2-3.2m4.8-.3c2.3 2.3-.7 10.1-5.5 8.7M389.2 154c-4.72 2.83-18.3 1.93-11.6-9.27m12.9 1.65c-9.4 3.7-21-3.5-8.9-11.32m-3.2-2.6c-7.83 0-13.1 12.6-2.6 17M348.4 138c-2.08 4 5.26 8.37 10.3 4.38 3.87-3.1 3.6-11.46 1.27-14.7m-15.57 19.85c-2.58 8.5 16.35 9.02 13.4-4.5m-14.44 17.13c.65 6.45 18.16 4.4 12.5-8.62m2.06-3.6c1.4 1.92 5.27 5.27 11.83 4.62m-8.77-13.78c.58 2.32 4.5 4.12 9.53 2.4m-185.2 193.6c-4.4 3.16 2.4 8.12 4.9 2.65m-8.3-.2c-4.4 3.16 2.4 8.12 4.9 2.64m-8.6-.3c-4.4 3.12 2.4 8.1 4.9 2.6m-8.7-.45c-4.2 2.26.7 7.8 5 2.9m-9.2-.77c-4.2 2.25.7 7.8 5.1 2.9m16.6-9.54c-.1 3.3 6.2 4.7 8.4-.2m-4.5 3.3c-1.9 2.5 1.6 5.5 3.5 4.4m-11.8-4.8c-.2 2.8 5.2 4.4 7.9 1.3m-4.9 1.6c-1.7 2.3 1.7 5.3 3.9 4.4m-10.4-4.7c.2 2.2 3.3 4.7 6.7 3.3m-4.6-.3c-1.3 1.2-.6 3.9 1.2 4.7m-7.8-4.9c-.5 2 2.9 5.6 6.4 3.3m-5.6-.9c-2.1 1.6-1.8 4.1.8 4.4m-5.7-4.6c-.3 1.4 1.5 3.6 3.7 3.3m-14.7-3.4c-2 1.1 3.3 6.7 6.5 1.5m-11.6.8c-2.6 1.3 3.8 7.4 6.7 1.1m10-1.3c-2 .5-3.3 3.4-1.6 4.5m-4.9-3.4c-.3 1.2 2.2 3.1 4.2 2.4m-5.9-1.8c-1.9 1.3-.9 4.7 1.4 4.2m-8.2-1.9c-1.8 1.4-.6 4.1 1.9 3.4m1.4-3.6c.1.7 1.7 1.8 3 1.4m-12.5-2.5c-2.2 1-2.1 6.6 5.5 3.5m-10.6-1.4c-3.12 1.6-2.1 5.8 4.8 1.8m.6.4c-.83.6-1.73 3.4 1.4 2.4m-7.2-1.1c-1.3 1.2-.44 3.5 2.4 2.6m-9-2.3c-2.33 1.4 2.76 3.2 6.17-.5m-4.62 2.1c-1 1.1-1 4.1 1.7 3m-8.2-1.7c-1.6 1.2 1.1 2.7 5.9.6m-4 1.1c-1.8 1.5-1.6 3.4 1.1 2.8m-6.4-1.9c-2 1.8.9 3.1 4.4 1.6m-4.3.5c-3.4 1.6-1.9 4.4.2 3.3m113.8 6.6c-.8 1.7 1.8 3.1 4.26 2.7 2.3-.3 4.6-2.3 2.8-5m.1 3.4c2.3 1.8 6.5-.2 6.5-2.9"/>
    </g>
    <g fill="#fff" stroke-width=".42">
      <path d="M396.78 103.06c-10.3-5.15-31.68-14.68-37.74-6.95 5.54-2.3 21.77.2 35.16 12.5l2.58-5.5z"/>
      <path d="M403.02 102.52c-11.9-13.88-18.93-10.77-27.5-15.55-8.04-4.5-20.86-5.4-23.34 1.73 11.76-5.72 22.55 3.08 29.18 4.15 9.1 1.46 14.25 8.5 16.9 11.74l4.77-2.1zm44.88-1.78c-6.18-14.16-19.4-10.46-25.24-16.48-8.5-8.76-30-16.87-38.9-10.82 19.58-1.03 27.92 13.5 38.4 18.55 7.46 3.6 15.44 11.3 25.74 8.7z"/>
      <path d="M424.73 99.2c-10.56-13.14-26.8-24.73-34.26-20.35 9.8.52 12.88 7.34 19.83 11.72 6.96 4.38 3.87 10.7 14.43 8.63zm-50.23 23.18c-11.08-4.12-32.7-6.18-42.76 6.44 16.74 2.84 41.98 1.3 42.76-6.44z"/>
      <path d="M372.44 127.28c-11.08-5.15-19.73 2.04-30.14 1.03-19.83-1.9-34-.7-35.8 8.8 11.34-10.2 30.4-1.8 38.12-3.8 7.73-2 36.32-.2 45.33 3.6-4.63-5.6-11.84-7.2-17.5-9.5zm34.77-29.5c-2.5-8.5-2.4-17.5 10.3-16.87-3.2-3.9-15-6-17 8.9-14-10.3-29.3-12.1-32.1-3.2 7.2-6.2 18.4-1.6 31.8 13.5 1.2-.6 4.3-1.9 7.1-2.3z"/>
      <path d="M387.9 109.5c-8-5.15-18.8-13.52.13-16.87-8.12-4.37-19.97-2.44-18.68 12.5-21.63-8.76-37.17-5.8-40.44 2.83-3.6 9.53 9.8 14.8 12.2 8.76-2.4 1.03-10.8-1.8-6.4-7.22 4.4-5.4 26.8-1.34 48.2 9.8 5.9 3.08 26.3 2.57 5.2-9.8z"/>
      <path d="M382.22 123.67c-6.16-12.58-26.14-1.16-30.17-13.34-5.5 17.85 28.42 7.97 30.17 13.34zm127.12 13.65c4.2 2.08 7.8-1.2 1.4-3.76 4.2 2.08 7.85-1.1 1.44-3.68 4.2 2.08 7.85-1.1 1.44-3.68-1.7 1.72-4.16 8.03-4.28 11.12zm2.18-24.2c9.27-9.8-.77-13.14 10.56-23.2 9.27-8.2 1.77-13.7 10.56-20.08 2.84-2.06 9.02-6.18 9.53-10.3 3.74 9.27-11.6 10.56-10.56 25.5.7 9.5-5.7 8.68-8.2 24.72-.5 3.35-2.8 10.82-11.8 3.35z"/>
      <path d="M515.65 117.5c5.15-11.1 11.06-10.87 13.9-15.2 5.4-8.25 16.87 1.4 26.53-5.93-1.67 10.43-14.68 6.7-20.34 13.4-5.67 6.7-10.3 9.78-20.1 7.72z"/>
      <path d="M516.94 121.1c9-7.22 15.66-2.4 21.9-6.2 15.7-9.52 22 1.95 36.05-2.56-3.8 9-24.5 1.3-33.5 7.98-9 6.7-40.7 13.14-24.5.78zm-26.28 51.38c-.13-4.12-4-9.4-9.4-10.04-5.4-.65-7.73-6.3-11.85-6.57-4.1-.26-6.8-8.5-12.4-8.37-5.6.12-8 7.47 5.3 14.16 13.3 6.7 28 14.43 28.5 10.82zm-16.74 3.48c-5.67.26-6.44 8.5-11.85 8.76 7.47 4 12.88-1.8 16.74-6.96l-4.8-1.8z"/>
      <path d="M478.56 176.98c-4.9 4.13-6.3 12.75.77 15.2-4.25-5.86 7.47-8.5 3.87-13.9l-4.64-1.3z"/>
      <path d="M483.45 177.25c-3.87 7.47 6.05 8.37 3.47 14.04 5.67-1.3 6.57-12 1.42-14.9l-4.9.7z"/>
      <path d="M445.58 161.27c9.28-.5 17.76 4.5 23.44 12.62 3.6 5.1 15.7 7.2 19.84 3 4.12-4.1 1.8-12.9-8.5-10.1-2.58-4.4-10.05-2.9-13.65-6.5-3.6-3.6-17.5-13.9-21.1.7z"/>
      <path d="M480.36 166.94c-2.45.52-3.22 4.77-1.68 6.96m6.96-4.38c.77 1.3.26 3.1-.13 4m-25.2-11.86c4.8.26 5.7 3.74 10.8 5.03" stroke-linecap="round"/>
      <path d="M457.12 149.94c16.46 4.12 29.5 7.73 37.6 12.37 8.1 4.7 20.64 6 31.6 2.9 10.98-3.1 32.14-5.9 31.1 7.8 5.74-6.8-1.57-14.1-16.2-15.4.26-6.7-6.9-12.7-12.06-8.7 4.77-.6 8.88 8.2-.52 11.8 1.83-6.7-4.83-12.7-11.75-9.7 4.4 1.3 8.9 8.7-1 11.6-6.3 1.8-15.5-.5-22.2-4.6-6.8-4.1-45-19.1-36.6-7.7z"/>
      <path d="M498.65 143.25c-5.15 2.32-1.8 7.72-9.8 10.82-7.97 3.1-13.5 10.17-11.7 16.22 5.4-11.9 14.93-11.4 18.28-16 3.35-4.7 8.24-11.5 3.22-11.1z"/>
      <path d="M500.06 144.02c-.25 9.4-7.65 5.97-4.76 19.18.9 4.12 2.57 10.82-.26 17.52 8.3-6.05 2.96-18.77 6.7-23.57 1.8-2.32 4.12-5.92 5.02-9-1.93 5.4-1.8 15.44 3.48 18.02-4.25-10.05 11.46-18.3.64-29.88-1.54 2.8-6.44 7.8-10.82 7.7zm-26.27-9.4c1.2 1.93 2.5 6.82 1.4 9.53 2.5-1.55 6.3-5.54 7.4-8.25 5.3.78 7.3 7.34 2.3 10.18 3.1 0 8.3 0 11.3-3.48-3.6-4-14.8-10.17-22.6-7.98z"/>
      <path d="M393.7 116.14c-.85-.76-2.25-1.48-4.78-2-7.8-1.6-3.77-8.62 2.87-8.56 14.1-15.45 22.1-3.54 39.3-8.43 6-1.72 10.2-1.2 13.5.2 7.7-5.14 16.8-3.7 23.3 2.35.7-1.16 1.7-2.04 3.1-2.43 6-1.68 10.9 3.48 12.6 10.18 4.7-.88 10.1 1.46 13.6 4.68 4.9-2.52 8.3-2.63 9.5-.04 4.4-2.1 10-3.4 12.9 3.6 2.8 6.9-6.7 4.8-8.3 19.5-1 9-11.1 12.6-19.1 7.2-12.8-8.7-25.3-10.1-31.5 3.1-6.2 13.1-11 20.7-26 16.4-5.4-1.6-12.4.5-16.8 6.4s-11.1.4-19.1 1c10-1.6 6.2-4.1 14.9-4.7 8-.5 5.9-8 11.1-9-20.1 5.1-19.3-2.4-35.8 2.8 7.2-9.3 18.5-4.2 24.2-9.6-15-.3-21.6-10-28.3-5.9-10.6 6.4-6 24.7-33.5 23.1-13.4-.8-21.9 1-29.9 9 13.9-28.9 32.8-13 42-22.2 5.4-5.4 9.5-9.6 12.4-14.7 1-1.8 2.3-2.9 4-3.3-22.9-7.2-9.1-18.4 13.3-19.2z"/>
      <path d="M506.87 112.1c.35.7.53 1.65.53 2.8 0 5.68-8.5 5.94-9 14.3-.28 4.4-.8 6.83-3.75 6.32-2.96-.52-5.53-5.15-2.7-10.56" stroke-linecap="round"/>
      <path d="M397.94 107.7c-2.14-1.5-4.27-2.1-6.18-2.12m52.83-8.26c6.8 2.95 10.1 10.04 20 10.38 9.5.34 15.4 14.17 31.4 5.15l1.2-.68M468 99.7c-1.42 2.27-1.75 5.43-1.36 8.2m-29.8 20.92c-12.1 0-15.2 6.2-15.2 12.1 0 5.93 5.66 13.66 15.7 13.66 10.05 0 15.46-6.18 15.46-12.88 0-6.7-6.18-12.88-15.97-12.88z"/>
      <path d="M439.02 154.32c-.26-3.35-6.3-2.83-6.06-5.4.26-2.58 3.35-3.6 3.35-7.22s5.5-3.86 7.3-1.03c1.8 2.83 7.2 8.37 8.4 5.54m-8.3-5.5c-2.8 2.9-4.1 8.7-.4 13.2m4.3-8.7c-.9 2-1.1 4.9-.1 6.7"/>
      <path d="M495.5 135.58c9.45.78 11.06-9.66 3.98-10.3m-15.64-17.83c-3.28-4.2-10.82-5.6-10.95 3.28" fill="none"/>
      <path d="M472 120.84c-3.23-8-11.47-9.14-15.85-5.15-3.64 3.3-3.73 11.9 4.12 13.7 2.7-3.2 8-7.5 11.72-8.7zm-3.55-5.02c-4.64-4.12-11.47 3.67-5.28 10.8m-82.92 8.7c3.1-.73 7.64.8 14.6 4.06 4.37 2.06 17.5 6.44 25.75 2.06-8.5 3.1-14.94-9.78-21.38-8.24-6.44 1.55-18.22 3.93-23.18-.77 12.1.77 18.62-8.82 32.45-.52 3.8 2.4 8.7 3.9 13.1 3.7-11.4-13.6-26.3-4.9-27.8-15.9 6.8 7.4 23.5-1.6 32 12.1m-29.6-10c-1.6-1.9-.9-3.9-2.6-5.5"/>
    </g>
    <path d="M483.84 107.45c-2.83-3.03-9-.65-7.28 5.47 1.36-2.83 4.25-5.2 7.28-5.47zm-17.5 16.5c1.94-1.42 3.95-2.6 5.65-3.1-1-2.3-2.3-4.03-3.9-5.24-1.5-1-5.7 4.7-1.9 8.4z" stroke="none"/>
    <path d="M458.72 113.5c-4.64-3.1-8.9-2.84-10.3-.26-3.35-.13-6.12 2.32-6.25 7.2m7.15 2.07c-5.54-3.8-13.14-2.3-12.62 6.2m-3.35 4.9c2.7-2.2 6.57-3.7 9.53.1m31.82-8.5c-1.03 1.4-1.8 3.6-.13 7-2.06-2.7-7.2-2.7-12.75 4.5m25.1-11.8c-6.7.8-6.56 5.2-1.15 7.1m-46.5-23.4c-5.66-1.1-9.78 2.2-1.92 5.1m12.75-8.9c-8-1.9-11.2.2-7.6 2M427.04 137c-.26 2.8 1.3 6.58 5.92 2.3m-4.37 6.2c0 .78-.2 1.68-.7 2.33M410 107.4c-4.9-1.4-5.8-5.9-.16-5.54m-1.54 15.93c-5.4-1.8-5.4-7.1-.9-6.6m10.96 3.8c-6.3-1.6-6.6-5.9-1.8-5.3m2.54-8.1c-3.33-.3-8.5 3.4.14 5.6m9.3 1.8c-7.87-1.2-7.74 2-3.1 4.1m9-11.6c-6.04-1.2-8.1 2.4-3.98 4m-15.07 18.3c-1.5-1.3-2.7-7.1 4.3-5.4M430 122c-4.8-1.3-9.3 3.4-4.9 6.1m11.2-11.6c-5-.9-9.3.55-6.6 2.35" stroke-width=".42" fill="none" stroke-linecap="round"/>
    <path d="M483.57 107.45c-2.83.52-5.37 2.18-7 5.47" fill="#fff" stroke-width=".42"/>
  </g>
</svg>
