<svg xmlns="http://www.w3.org/2000/svg" xmlns:xlink="http://www.w3.org/1999/xlink" height="480" width="640" viewBox="0 0 640 480">
  <defs>
    <radialGradient id="a">
      <stop offset="0" stop-color="#ffef5d"/>
      <stop offset="1" stop-color="#ea5700"/>
    </radialGradient>
    <radialGradient id="b">
      <stop offset="0" stop-color="#952d1a"/>
      <stop offset="1" stop-color="#570a00"/>
    </radialGradient>
    <radialGradient xlink:href="#a" id="c" gradientTransform="scale(1.23 .82)" cx="247.07" cy="238.33" fx="247.07" fy="238.33" r="35.95" gradientUnits="userSpaceOnUse"/>
    <radialGradient xlink:href="#a" id="d" gradientTransform="scale(.94 1.07)" cx="321.99" cy="152.95" fx="321.99" fy="152.95" r="10.58" gradientUnits="userSpaceOnUse"/>
    <radialGradient xlink:href="#b" id="e" gradientTransform="scale(1.22 .82)" cx="364.21" cy="237.79" fx="364.21" fy="237.79" r="36.03" gradientUnits="userSpaceOnUse"/>
    <radialGradient xlink:href="#b" id="f" gradientTransform="scale(.96 1.05)" cx="468.15" cy="156.13" fx="468.15" fy="156.13" r="10.74" gradientUnits="userSpaceOnUse"/>
  </defs>
  <path fill="#ce1126" d="M0 0h640v480H0z"/>
  <path fill="#003f87" d="M0 34.28h640V445.7H0z"/>
  <circle cx="320" cy="240" r="188.57" fill="#fff"/>
  <circle r="156.3" cy="239.04" cx="320" fill="none" stroke="#552300" stroke-width="3.94"/>
  <path d="M301.94 73.2c14.14-15.18 26.92 2.34 26.58 10.55-.34 8.2-14.6 26.32-27.5 11.75 13.36 3.42 17.36-11.52 24.12-11.67-6.76.15-9.52-14.65-23.2-10.64zM154.8 192.1c-7.43-19.3 14.06-22.9 21.32-18.96 7.27 3.94 17.3 24.65-1.58 29.67 9.02-10.3-2.7-20.5.15-26.6-2.9 6.1-17.5 2-19.9 15.9zM471.95 173c19.36 7.6 7.53 25.76-.3 28.42-7.84 2.66-30-3.98-21-21.2 1.63 13.6 17.12 11.9 19.7 18.1-2.58-6.2 10.32-14.1 1.6-25.3zM218.8 377.43c-20.72-2.07-14.33-22.74-7.52-27.42 6.8-4.6 29.96-4.3 26 14.7-5.3-12.6-19.7-6.8-23.9-12 4.18 5.3-6.05 16.4 5.42 24.8zm209.33-14.97c.3 20.65-21.13 16.7-26.6 10.53-5.44-6.2-7.7-29.1 11.78-27.4-12 6.6-4.5 20.2-9.3 24.9 4.8-4.8 17.1 4.1 24.2-8.2zM169.9 152.86c-1.9-20.56 19.78-18.26 25.7-12.5 5.9 5.73 9.92 28.37-9.63 28.13 11.5-7.6 3-20.6 7.42-25.6-4.5 5-17.4-2.8-23.5 9.9zm22.2 193c-20.54-3.43-12.75-23.63-5.65-27.84 7.1-4.2 30.2-2.28 24.96 16.42-4.4-12.98-19.2-8.12-23-13.65 3.8 5.5-7.1 15.9 3.7 25zm162.2-271.8c18.63-9.2 24.3 11.7 21.05 19.23-3.25 7.5-23.06 19.4-29.9 1.3 11.26 7.9 20.35-4.7 26.72-2.5C365.8 89.9 368.5 75 354.3 74zm39.66 314.26c-9.24 18.52-26.5 5.3-28.5-2.67s6.5-29.34 23.03-18.98c-13.8.47-13.4 15.93-19.9 17.96 6.4-2.02 13.3 11.4 25.3 3.7zm90.52-178.66c15.66 13.62-1.64 26.77-9.92 26.66-8.27-.12-26.9-13.77-12.58-26.96-3.08 13.35 12.08 16.9 12.42 23.6-.34-6.7 14.5-9.84 10.08-23.3zM221.5 100.86c4.68-20.14 24.54-11.24 28.36-3.95 3.8 7.3.5 30.1-18 23.8 13.32-3.6 9.3-18.5 15.1-22-5.8 3.5-15.6-8-25.45 2.2zm-61.56 172.5c-18.24-9.97-4.2-26.5 3.92-28.15 8.1-1.6 29.26 7.7 18.1 23.7.14-13.7-15.44-13.9-17.22-20.4 1.78 6.5-12.02 12.7-4.8 24.9zm263.55-159.6c20.6-2.97 19.4 18.63 13.9 24.8-5.5 6.16-28.1 11.34-28.8-8.05 8.2 11 20.8 1.9 26.1 6-5.4-4.1 1.9-17.3-11.3-22.7zM306.3 408.1c-19 8.42-23.82-12.67-20.25-20.1 3.57-7.4 23.85-18.5 29.94-.05-11-8.36-20.6 3.82-26.8 1.32 6.2 2.5 2.9 17.16 17.1 18.8zm170.53-115.24c8.6 18.82-12.65 23.7-20.14 20.2-7.5-3.5-18.8-23.6-.2-29.72-8.4 10.9 3.9 20.35 1.4 26.6 2.5-6.25 17.3-3.02 18.9-17.08zm-325.16-60.63c-11.94-16.92 8.02-25.6 16.04-23.54 8.1 2.1 22.9 19.7 5.8 29.2 6.2-12.3-7.6-19.3-6.4-25.9-1.3 6.6-16.4 6.1-15.4 20.2zm112.3 163.35c-19.54 7.13-22.9-14.24-18.84-21.4 4.06-7.16 25.05-16.86 29.87 1.95-10.34-9.08-20.74 2.43-26.83-.5 6.1 2.93 1.78 17.35 15.8 19.95zm-5.64-314.06c11.57-17.17 26.96-1.85 27.9 6.3.97 8.17-10.26 28.27-25.3 15.88 13.74 1.3 15.33-14.07 21.98-15.27-6.6 1.2-11.7-13-24.5-6.9zM458.5 333.7c1.25 20.64-20.34 17.67-26.07 11.74-5.74-5.92-9.05-28.67 10.5-27.83-11.75 7.3-3.65 20.5-8.22 25.4 4.6-4.9 17.3 3.3 23.8-9.2zm-5.3-194.42c20.4 4.08 11.97 24.03 4.73 28.02-7.24 3.98-30.24 1.32-24.42-17.2 4.1 13.1 19 8.72 22.6 14.37-3.6-5.65 7.7-15.7-2.9-25.2zm-258.44-14.54c.2-20.66 21.52-16.2 26.83-9.9 5.3 6.3 7 29.23-12.5 27.04 12.2-6.38 5-20.1 9.9-24.73-4.9 4.62-17-4.5-24.4 7.6zm-25.8 186.2c-18.58-9.32-5.1-26.32 2.94-28.25 8.05-2 29.5 6.7 18.92 23-.35-13.7-15.92-13.4-17.92-19.8 2 6.4-11.58 13.1-3.95 25zM392 91.02c19.48-7.28 23.02 14.06 19.02 21.25-4 7.2-24.92 17.07-29.9-1.7 10.42 9 20.73-2.6 26.84.27-6.1-2.87-1.92-17.33-15.96-19.8zm-41.34 314.8c-15.14 14.2-26.7-4.12-25.8-12.3.92-8.16 16.4-25.3 28.26-9.9-13.1-4.3-18.1 10.36-24.87 10.06 6.76.3 8.5 15.24 22.4 12.14zm132.7-158c14.22 15.1-4.32 26.47-12.54 25.54-8.22-.94-25.38-16.37-9.8-28.08-4.4 12.98 10.32 18.03 9.97 24.73.3-6.7 15.4-8.3 12.3-22.2z" fill="#007f00"/>
  <path d="M301.02 95.5c13.36 3.42 16.7-11.34 23.47-11.5-4 4.72-14.3 16.73-23.5 11.5zm.92-22.3c14.14-15.18 26.92 2.34 26.58 10.55-11.47-20-15.06-16.9-26.57-10.56zm-127.4 129.6c9.02-10.38-2.83-19.9.03-25.98 2.5 5.6 8.8 20.08-.03 25.98zm-19.74-10.7c-7.43-19.3 14.06-22.9 21.32-18.96-23.15 1.34-21.95 5.9-21.32 18.96zm295.87-11.87c1.62 13.6 16.7 11.36 19.3 17.56-5.87-2-20.88-7.1-19.3-17.6zm21.28-7.22c19.36 7.6 7.53 25.8-.3 28.4 14.63-17.8 10.43-20 .3-28.4zM237.3 364.7c-5.3-12.63-19.2-6.4-23.4-11.66 6.18.3 22.04 1.2 23.4 11.67zm-18.5 12.7c-20.72-2.04-14.33-22.72-7.52-27.4-9.17 21.14-4.53 22.12 7.52 27.4zm194.5-31.74c-12.05 6.66-4.23 19.65-9.02 24.38-.4-6.1-1.3-21.85 9.02-24.38zm14.83 16.8c.3 20.64-21.13 16.7-26.6 10.52 22.22 6.64 22.68 1.94 26.6-10.53zm-242.16-194c11.5-7.55 2.7-19.9 7.12-25 .8 6.08 2.9 21.7-7.2 25zm-16.08-15.6c-1.9-20.57 19.7-18.27 25.7-12.52-22.7-4.93-22.8-.22-25.7 12.52zm41.5 181.57c-4.5-12.98-18.7-7.68-22.6-13.22 6.1.7 21.9 2.7 22.5 13.2zm-19.3 11.44c-20.6-3.45-12.8-23.65-5.7-27.86-10.6 20.5-6 21.8 5.6 27.9zm153.3-251.3c11.2 7.9 19.6-4.72 26-2.48-5.4 3-19.3 10.6-26.1 2.4zm8.8-20.54c18.6-9.2 24.3 11.7 21 19.24-3.6-22.74-8.1-21.12-21.1-19.24zm34.2 292.6c-13.8.48-12.8 15.58-19.3 17.62 2.4-5.63 8.9-20.04 19.2-17.6zm5.4 21.67c-9.3 18.52-26.5 5.3-28.5-2.67 16.7 15.97 19.2 12 28.5 2.68zm68-178.96c-3.1 13.36 11.9 16.26 12.2 22.96-4.9-3.7-17.3-13.6-12.2-22.9zm22.5.3c15.6 13.62-1.7 26.77-9.9 26.66 19.8-11.93 16.6-15.4 9.9-26.66zm-252.6-89c13.3-3.6 8.8-18.07 14.6-21.53-1.1 6.1-4 21.6-14.6 21.6zm-10.4-19.8c4.7-20.14 24.5-11.24 28.4-3.94-20-11.7-21.6-7.25-28.4 3.94zm-39.6 168c.1-13.7-15.1-13.35-16.9-19.83 5.5 2.7 19.8 9.7 16.9 19.9zm-22 4.5c-18.3-9.96-4.2-26.5 3.9-28.14-16.8 15.87-12.9 18.6-3.9 28.14zM408.6 130.5c8.2 11 20.18 1.62 25.53 5.73-6.06 1.2-21.68 4.1-25.53-5.73zm14.86-16.76c20.6-2.96 19.42 18.64 13.95 24.8 3.8-22.7-1-22.55-13.9-24.8zM316 387.97c-10.94-8.36-19.88 3.9-26.15 1.4 5.5-2.8 19.72-9.8 26.14-1.4zm-9.7 20.14c-19 8.5-23.82-12.6-20.25-20 2.63 22.9 7.15 21.5 20.25 20.1zm150.18-124.7c-8.37 10.9 4.03 19.7 1.54 26-2.84-5.4-10-19.5-1.54-25.9zm20.35 9.6c8.6 18.8-12.65 23.7-20.14 20.2 23-2.7 21.5-7.2 20.1-20.2zm-303.38-55c6.2-12.2-7.63-18.6-6.34-25.2 3.8 4.8 13.5 17.4 6.4 25.2zm-21.78-5.6c-11.94-16.9 8.02-25.6 16.04-23.5-22.1 6.9-19.8 11.1-16 23.6zM275 376.2c-10.34-9.1-20.1 2.53-26.18-.38 5.68-2.45 20.35-8.5 26.18.32zm-11.04 19.42c-19.53 7.1-22.9-14.27-18.83-21.4 1.06 23 5.67 21.83 18.83 21.4zm-3.03-291.9c13.74 1.3 14.73-13.8 21.38-15-3.1 5.3-11.4 18.73-21.3 15zm-2.6-22.2c11.57-17.16 26.96-1.84 27.9 6.3-14.47-17.95-17.53-14.35-27.9-6.3zM442.9 317.6c-11.73 7.2-3.3 19.8-7.88 24.76-.7-6.08-2.3-21.77 7.9-24.76zm15.6 16.1c1.25 20.6-20.34 17.65-26.07 11.7 22.5 5.64 22.73.94 26.07-11.7zm-25-183.62c4.02 13.1 18.47 8.2 22.1 13.9-6.1-.9-21.8-3.4-22.1-13.9zm19.7-10.9c20.4 4.1 11.97 24.02 4.73 28 11.24-20.14 6.72-21.57-4.74-28.02zm-244 2.6c12.2-6.4 4.7-19.57 9.6-24.2.26 6.1.77 21.9-9.6 24.17zm-14.44-17.15c.2-20.66 21.52-16.2 26.83-9.9-22.1-7.16-22.7-2.48-26.9 9.9zm-3.94 181c-.35-13.7-15.57-12.85-17.57-19.26 5.65 2.47 20.1 9 17.57 19.25zm-21.87 5.22c-18.57-9.34-5.1-26.34 2.95-28.27-16.23 16.4-12.26 19-2.95 28.2zm212.17-200.4c10.42 9 20.06-2.73 26.18.13-5.65 2.4-20.28 8.6-26.18-.2zM392 91c19.48-7.28 23.02 14.06 19.02 21.25-1.26-22.98-5.86-21.8-19.02-21.24zm-38.88 292.6c-13.1-4.3-17.45 10.22-24.2 9.92 4.25-4.44 15.35-15.75 24.2-9.9zm-2.46 22.2c-15.14 14.2-26.7-4.12-25.8-12.3 10.1 20.72 13.88 17.88 25.8 12.3zm110.36-160.54c-4.4 12.98 10.18 17.38 9.84 24.08-4.45-4.25-15.77-15.32-9.84-24.08zm22.35 2.55c14.2 15.1-4.33 26.5-12.55 25.6 20.94-9.9 18.1-13.7 12.55-25.5z" fill="#005800"/>
  <g fill="#730000" stroke="#000" stroke-width=".49">
    <path d="M349.05 120.33s.58-1.37 1.66-.6c1 .8 1.3 4.2 1.3 4.2l-1.5.8s.9-1.28-1.3-4.4zM340.17 151s.78-1.08-.3-3.42l1.57-.5s.58 1.86-.2 3.92h-1.07m27.05-5.38l-3.7 2.25 1.85.88 4.5-2.64-2.65-.4m-49.72 14.5c-.97.8-1.07 2.2-1.66 3-.48.8-1.95 1.9-2.05 3.1-.2 1.2-.3 2 .2 3.5s3 8.5 2 13.8c-1.1 5.3-.7 7.6-.3 8.3.4.8 1.5 3 2.2 3 1.5-.2.8-.7 1.4-1.6 1.4-2.5 0-22.2-.7-27.6-.5-4.2-2.5-8-2.6-8.4-.2-.5-.6-1.7-.9-2.5-1.5-3.5-3.2-6.5-3.2-13.8 0 0-4.8 1.1-8.9-8.2-2.2-4.7-5.3-4.2-9-5.8l1.6-1s3.1 1.6 4.7 1.6c1.5 0 1-3.1 1-3.1l1.5-1.6v6.8c0 3.1 4.3 7.4 6.9 8.7 1.5.8 3.6-2.4 3.1-5.6-.5-3.1 0-7.3 0-7.3l2.1 1.3s-.8 1.4-.6 2.2c.3.8 1.4-.8 2.2-1.6 0 0 .2.2 1 .2 0 0-1.6 2.6-2.4 4-.8 1.3-.8 6.3-.8 8.1 0 1.9.7 6.2.7 7.5 0 1 1.9 5 3.3 7.5l1.6 3.5c1.2 1.9 1.2 3.1 1.9 4.7.4.8 1 3 1.5 6.9.2 1 .4 4.7.7 7.1.3 2.3 2.2.5 4.5-1.2s2.3-5.9 2.3-5.9 1.9-1.5 1.6-.6c-.2 1 1 2 1 2-1.5 3.3-.6 2.9.8 2.8 1.4-.2 6.5-4 6.5-4 .7-.2 3.7-.2 3.2 0-.6.3-1.4 1.8-1.4 1.8l3.3-.4c-1.2.9-5.6 3.4-6.6 4-1.1.7-6.4 3.2-8.6 4.1-2.3 1-6.6 3.2-6.8 5.4-.1 2.2.3 8.3 0 10.3-.2 2-1 10.7-1 10.7h-10s2-7.6-.1-9.6c-2.1-2.1-6.8-8.4-10-10.5-3.1-2.1 2.1-.5 2.1-.5V183l4.8 5.8s8.3-7.3 0-17.3c-2.7-3.1-5.3-7.9-7.4-8.4-2.1-.6-3.2-1.1-6.8 0-3.7 1.1-12.6 1.1-16.3-4.8l3.1-.5 2.6-1.08s-1.1 3.7 6.4 3.7c7.3 0 8.4 0 7.8-6.8l2.2-1.1 1.6 1.5s-1 3.7-.5 5.3c.5 1.6 3.2 2.64 5.2 4.2.9.7 1.6.8 2.2.8.9-.1 1.1-.1 2.2-1.3 1.8-1.9 1.4-1.8 3.1-3.4 0 0 .9-1.37 1.1-1.57l1.1 2.8z"/>
    <path d="M319.07 155c.4-.4 1.17-1.85 1.85-3.12 1.18-1.96 2.54-3.13 4.1-5.57 1.47-2.2 2.06-5.5 1.47-7.9l1.3.8.1 3.7s1.8-1.5 2.6-1.9l.7.4s-5.9 6.1-11.4 15.8l-1-2.1zm-51.37-20.3c.78 1.35 1.56 4 3.9 6.04l1.57-.5s-3.6-4.2-3.6-6.04l-1.87.5m9.18-2.36s.48 4.98-.78 6.83l1.56-.77s1.07-3.42.78-5.28l-1.56-.78zm51.47-15.73s-.3 7.1 1.08 11.4l1.85-.6s-.3-1.3 1.27-1.8c1.56-.5 5.27-2 7.13-3.6l-.6-1.5s-2.82 2.3-4.2 2.9c-1.25.5-2.04 1.1-3.1.8-1.1-.3-2.35-2.1-1.57-6.1l-1.8-1.2m20.7 32.9s-.5 5-.2 7.2l1.7.4s-.4-5.9.7-6.4l-2.1-1.1m7.5 3.7s-1.8 3.2-4 3.5l3.4-.7s1-.4 2.5-2l-1.8-.8"/>
  </g>
  <g fill="#289400" stroke="#030" stroke-width=".49">
    <path d="M326.6 138.4l1.26.77 1.37.2s1.46 1.37 3.13 2.63c1.26 1.08 1.26-.2 1.26-.2l.78 3.14h1.08s-.3 2.05-.3 3.12l1.86-1.56 2.15 1.86s1.5-1.37 2.3-1.37 1.1-.8 1.1-.8h.1c-5.2-2.5-7.4-5-5.9-7.6 2.5-4.4 6.7-1.6 8.1-1l18.9 10.1s1.2-.8.4-1.6c-1-.8-1.4-2.8-1.1-3.5.3-.8 2.4 2.4 3.5 2.7 1 .3 3.5.6 3.5.6l-.1-1s3.1 2.1 3.1 3.2c0 0 2.2-1.2 1.4-1.9-.8-.7 3.4 1.6 3.7 2.9l.9-1c-.1 0 .3-3.1 1.3-4.6.9-1.5 2-1.9 2-1.9s1-1.7 1.9-1.7c0 0-1-.7-1.4-1.5-.5-.8-1.7-1.2-1.7-1.2s1.4-1.1 1.8-1.6c.4-.6.8-.7.8-.7s-2.3-1.9-3.8-2.2c0 0-.1-2.6-2.1-2.7h.8s-1.5-2.8-2.9-2.9c0 0 .9-1 1.6-1.1 0 0-1.7-2.2-3.9-1.4l1.5-.6s-1.1-1.2-4.4-.6c0 0 .3-1.4-1.2-2.5 0 0-1.2.1-1.2 1.1 0 0-1.2-1.1-2.7-1.1-1.5 0 .5 1.5.5 1.5s-2-1.3-3.1-.9c0 0 .5-2.3-.8-3.4 0 0-1.5.8-1.8 1.7l-.4-1s-2 2.3-2.4 1.7c-.3-.4-.6-2.1-.6-2.1l-1.2 1.8.2-2.4s-1.4.8-2.4 3.3c0 0-1.4 1.2-1.4 2.4 0 0-1.1-1.2-2.1 0-.9 1.4 0 1.1 0 1.1s-.4.5-1.4.7l.2.8s-1.3-.7-2.3-.4l.5 1.2s-2.6.2-2.7-1.9c0 0-2.1-1.1-2.4.1l-1.6 1s-.5-1-1.4-1.2c-1-.3-.2 1.3-.2 1.3s-.3-1.2-1.5-1.8c-1.1-.5-.1 1-.1 1s-1.6-1.3-.8-2.2c0 0-1.5 1.3-.8 2.6l-1 .7s-.5-.5-.4-.9c.1-.4-1.7 1.2-1.7 1.2s-1.1-2.5 0-2.5c.1 0-1.9-.1-2.2 2.1 0 0-1.3.1-2.5.5-1.3.4.9 1.3.9 1.3s-1.9-.4-3 .2l.7.8s-.7-.7-2.4-.1c-1.8.5.4.8.4.8s-1.8-.4-2.7 0c-.9.4.3 1 .3 1s-3.3-1-3.8-.7c-.5.3 1.1 1.8 1.1 1.8s-2 .5-2.4 1.9l1.7.7s-.8.4-1.2 1.2c-.4.8 1.2.4 1.2.4s-2.1 1.6-2.1 2.8c0 0 1.6.5 2.7-.7s.4-.8.4-.8l.1.8s2.2-1 2.2-1.6c0-.5-.4.8-.4.8l2.3-1.2 1.4 1z"/>
    <path d="M324.73 107.92l-.5-2.15 5 .6.87-2.06s2.35 1.1 3.13 1.9c0 0 4.6-1.1 5.96-.7l-.6 2.2s4.2.3 5.5.8c1.2.5-.6 1.6-.6 1.6s4.8.6 6.8 1.9c2.1 1.3 2.1 2.4 1.1 2.7l2.6 4.2s-4.2.5-5 1.6c-.8 1.1-1.6-1.1-1.6-1.1l-.8 3s-2.7-1.4-3.7-2.4c0 0-1.3 1.6-.5 2.4l-4.8-3.1s-2.1-.3-2.1 1.6c0 0-2.3-2.6-2.9-3.4l-2.7.8s-.8-1.1-1.8-1.4c-1.1-.1-.3 1.4-.3 1.4l-1.6-1.8-1.6-1.9s-1.4 1.9-2.5 1.9c-1 0-1-1.3-.8-2.1.3-.8-3.2-1-3.4 0 0 0-1-3.9 2.6-5l3.7-1zm-18.94 13.4l-1.7 1.55-1-.5-2 2.16-.4-1.17-1.1 1.75-1.7-.5-.8 1.3-1.5-.3s-1.3 1.2-2.1 1.5c-.8.2 0-1.7 0-1.7s-1.2 2-2.1 2c-.8 0-.5-.9-.5-.9s-.5 1.3-1.5 1.5c-.9.1-.5-.9-.5-.9l-1.6 1.2v-1l-.7-.3s.4-1.7 1.1-2.1c.7-.4-.7-1.5-.7-1.5l.7-.7s-2-.5-2-.1c0 0 1-2.6 2.3-3.1l.1-2.9s1.3-1.1 2.6-1.2c1.3-.2-.4-2.3-.4-2.3l3.1-1.8.4-2.2 4.8.4 1-2 3.8 1 3.2-1.6 2.3 2.7 3.5.3s-.1 2.5-.1 3.2c0 0 4.2 1.3 4.7 1.7 0 0-.8 2.5-.8 3 0 0 3-.8 3.9-.6 0 0 .3 2.8.4 3.4 0 0 4.9 1.6 5.2 2.5 0 0-1.1.7-1.7 1.6 0 0 .6 3 .6 4l-.4.6s-1.5-1.4-2.6-1.6l-1 2.1-1.8-1.2-1.1.1s-.9-1-1.6-1l-.1-1-1.4.9s-2.1-1.1-2.1-1.8c0-.5.1-1.5.1-1.5l-2 1.3s-.5-1.2-.4-1.7c.1-.5-.9 1.2-.9 1.2s-1.2-2-1.1-2.4l-.3 1.7s-2.3-.8-2.6-2.3z"/>
    <path d="M274.53 130.88s4.1 2.05 4.1 3.03c0 0 1.08-2.1.5-2.9l1.56 1.1s.4-1.9-.1-2.5c-.5-.5 3.5-2.1 4.3.5 0 0 2.4-2.5-2.3-4.7 0 0-.4-1.5 2.4-1.1 0 0-.2-1-.9-1.3h2.8s-1.7-1.3-4.1-1.7c-2.4-.4-.9-.7-1-1.1-.2-.5 0-2.2 0-2.2s-1.4-.5-2.5.1l.4-.5s-2.6-.6-3.5-.1c0 0-1.5-.5-1.3-2.1 0 0-1.5-.1-2.2 1.5 0 0-1.4 1.6-3.2 1.6-.4 0-1.8-.8-1.8-.8l-1.2 2.8-1.9-.1.6 1.1s-2.9-.8-3.7 0c0 0 1 1.7.7 2.9 0 0-2.3.4-2.8.8-.6.4.7.7.7.7s-2.6.8-3.1 1.6l1 .8-1.1 1.6 1 .2-2.6.8c-.9.3 1.6.5 1.6.5l-1.2 1.1 1.8.3s-1.5 3.9-1.6 5.8c0 0 2.2-2.8 2.8-3l-1.8 3s3.3-1 3.6-1.5l.6-1.1.1 1.7s1.3-1.8 1.4-2.5c.1-.7 2 .7 2 .7v-1s1.7.6 2.3.7c.6.1.7-.3.7-.3l1.6-.2-.3 1.4s1.2-.7 1.5-1.5c.2-.8.8 0 .8 0l.8-3.1h1.6zm-13.38 13.87l1.57 3.22c-1.28.1-3.13 1.56-3.13 1.56.2 5.38-1.1 5.08-1.1 5.08.4 1-.3 2.8-.3 2.8l7.7-4.6.1-.5 9.1-4.3.3.5 2.6-1.4 1.9 4.9-1.9 1.1c.1 1.7 2 4.6 2 4.6l2.4-.6 2.6-.9s.1 1.5.1 1c0-.4 2.8-1.3 2.8-1.3l1.3 1.3c1-.1 2.7-2.4 2.7-2.4l2 .8s.7-1.2.7-2 2.5-.8 2.5-.8l1.7 1.3 2.2-1.9s.6 1.4 1.5 1.6c.9.1 3.4 2 3.4 1.6 0-.4 1-2.5 1-2.5l4.1 1.7c-.6-1.8-1.9-4.1-1.9-4.1s2-1.5 1.6-1.9c-.4-.4-1.6 0-1.6 0l1.1-2.3H309l.5-.5-2.54-1.1 1.4-2.7c-.57-.7-7.3-2-7.3-2l1.55-1.5s-.7-1.2-1.5-1.2-4.9.1-5.1-.3c-.1-.3-1.7-1.8-1.7-1.8l-2.5 1.9-1.2-.4-2.2.9s0 1.2-.3.4c-.3-.8-2.3-2.8-2.3-2.8-.4.7-3 3.8-3 3.8s-.4 1.6-1.2.5c-1-1.2-3-2.5-3.3-1.5-.3 1.1-2.1 2-2.5 1.7-.4-.3-2.6-.1-2.8.5-.1.7-2.4 2.5-2.4 2.5-1.4-.6-3.8-.3-3.8-.3s-.7 1.1-.8 2l-4.7 1.3zm44.15 39.56v-2l2.35 1.6 1.36-1.5 1.8 1.8 1.1-1.7v2.8l2.7-2.3 1.6.7v-2.2s1.9-3.1 1.1-3.7l1.6-.4s-2.6-2.6-3.4-3.1c-.8-.6-1.8-.6-1.8-.6s-2-2-3.4-2.6c-1.2-.5-2 .6-2 .6s-.8-1.5-2.1-1.8c-1.2-.3-1.2 1.1-1.2 1.1s-1-1-2.2-1.4c-1.3-.6-.4 1.2-.4 1.2l-4.5-1.4.6 1.4-4.2-1 .5 1.6-2.9-.5-.2 1.3-4.2.8.8 1.3-2.6-1v1.8l-2.9 1.1 1.1.9s-3.9 1.9-4.7 2.5c-.8.5 1.6 1.6 1.6 1.6l-4.2-.6 1.6 1.3-3.7 3.4 2.6 1.9-1.8 2.3 3.9.8 1.6 2.7 3.2-.6v3l4.7-3.7s3.4 3.1 3.7 2.2c.2-.8.2-3.4.2-3.4h1.7v-3l1.3 1 2.1-3.1 2.8 3.9 2.2-5 3.1.5zm19.14-11.8l-.48-4.5-1.37 1.4.5-4.2-2.2-.4.8-4.1-1.6-.8.4-1.9 1.5-1.1 2.8-2.7 6.5.1.8-2.1 4.7.8c.7.9 3.2-1.7 3.2-1.7h1l1 2.1s3.4-.5 5 .6l-1.9 2.5 3.4.3 2.3.5 2.4-.8 3.1-.2.7 1.3h3l-1 1.2 3.8 1.8-.8.8s2.1.8 3.7.8h.8s.7 1.9-.3 2.6c0 0 1 2.7 3.4 3.2 2.3.5 2.3.5 2.6 1.1.3.5 0 3.2-2.7 3.2v2.6s-2.1 1.9-2.4 2.7L366 176s-1.38 1.55-1.38 2.63c0 0-3.4-4.5-4.7-4.7-1.34-.3-1.05 2.56-1.05 2.56l-3.7-3.2-.5 2.2-3.1-2.7-1.87 1.2-3.3-3.4-3.2.4 1.28-1.7h-3.9L340 166l-.6 2.82-2.33-1.56-3.03 3.32s-.38-.4-.87-1.96c-.48-1.56-1.85 1.86-1.85 1.86L330.2 168l-1.27 2.44s-1.07-1.86-2.15-2.44c-.97-.5-2.05 2.92-2.34 4.5zm.6 10.3l.18-1.5 5.57-2.1 4.6-1.7 2.3-1.1 1.1 1.9 1.3-2.6 2.1 2.8 1.2-1.5 1.8 1.4h1.6l.3 2s3.9.3 4.2-.4c.3-.8.7 2.7.7 2.7l3.7.5.8 4.2s1.8 3.9 1.2 5.5c-.5 1.7-2.1-2-2.1-2s-.3 2.9-.6 3.7c-.2.8-5-.8-5-.8l-2.1 3.9s-2.1-3.1-3.1-3.1c-1.1 0-1.1 3.1-1.1 3.1l-4.5-5.3c-1.3-1.5-1.6 1.6-1.6 1.6s-2-3.4-2-4.4c0-1.1-1.9-2.2-1.9-2.2s-3.2 3.7-5.6 4.7c0 0 .3-2.3-.5-3.1-.8-.8-3.2 1.6-3.2 1.6s-1.6-3.6 0-7.3z"/>
  </g>
  <g fill="none" stroke="#004b00" stroke-width=".49">
    <path d="M350.82 124.52l.48 1.96s1.76-.4 2.93-.3c0 0-.3 1.56-.68 2.25 0 0 2.34-.4 3.42.3l-.5 1.16 2.75 1.1-2.54 2s4.1 1.4 4.88 2.6c0 0-2.64 1.8-3.03 1.7-.4-.2-.1.8.6 1.7l-2.26-.1s.88 2 .78 2.8c-.1.8-3.7.6-3.7.6M368 137s.68-3.9-.4-4.9c0 0 2.55 2.16 4.2 2.25 1.77.1-.1-3.24-.1-3.24s2.45 1.3 3.63 1.6c1.17.2-.88-2.4-.88-2.4s.68-1.2 2.63-.1m-45.4-15.5s.1-.8-.3-1.3c-2.34-3.2 2.44 2.5 3.42 2.7m4.5 0s1.55 1.2 2.33 1.2-.5-3.1-.88-3.5c-.4-.4 2.83 1.3 4 1.5 1.18.3 1.37-1.9 1.37-1.9s3.62.6 4.4 1.1m-25.1-.7s-.3-2-.4-2.9m-24.2 12.7c-.2-.4.97-2.1.48-2.9 0 0 .68.6 1.36.7.6.1.4-2.3.4-2.3l.77.3s2.06-.9 1.66-1.7c-.4-.8 1.3 1.2 1.3 1.2s1.2-1.1 1.2-1.6 1.3 1.2 1.3 1.2 1.4-.3 1.4-1.1 1.8.3 1.8.3.8-1 .7-1.7m-19.8 9.8s.8-2-.1-3.4m-23.7 9.9c.1-1 .6-3.6.1-4-.5-.4 1 .4 2.1.6m9.2-.4c-1.2-1.1-1.9-1.7-3.7-1.7m-16.1 8.3c.3-.6.8-2.3.5-3.3m25 51.8l1.2-2.6 1.6 3.7 1.1-2.3.4.8 2.3-2.5 2.5 3.8m40.7-16.5l1.7-3.3 2.2 1.1 1.1-3.2 2.3 1.5 1.4-3 2.6.7.2-2.1s1.8 1.1 2.3 1.9c.6.8 0-2.6 0-2.6l2.1 1s1.5-1.6-.6-2.4"/>
    <path d="M343.6 163.1l2.33 3.43 1.95-2.24 1.76 3.8 2.25-1.4 3.2 1.8 1.4-1.2 3.5 2.5 1.4-3 3.1.9 2-3.5m-84.4-9.2s1.4-2.4.9-3.5c-.6-1.1 2.8 1.8 2.8 1.8s.7-2.4.3-3.5c-.6-1.1 3.9 3.1 3.9 3.1s.7-3.6 0-4.4c-.8-.8 4.3 1.1 4.3 1.1s2-.6 1.2-1.7 3.4 1.6 3.4 1.6 1-2.7 0-3.7c-1.1-1.1 3.1 1.3 3.1 1.3l-1.6-2.9 3.4.2-.3-3.2m30.4 45.2l2.2-1.1 1.9 1.9 2.2-3.4 2.6 2.5.4-2.6 2.9 1.2.6-1.6 3.1 1.7.3-2.4 1.5.5.3-1.6"/>
  </g>
  <path d="M283.13 298.1a69.84 69.84 0 0 1-5.96-12.98l42.3-37.22 42.28 37.12c-1.47 4.3-3.42 8.9-6.15 13.3l-.34.53-3.18-1.23s-1.37 1.27-2.44 1.37c-1.46.1-2.73-1.3-2.73-1.3s-1.8 1.5-3.7 1.2c-1.8-.2-2.6-1.4-2.6-1.4s-1.9 1.5-3.3 1.2c-1.2-.3-2.1-1.2-2.1-1.2s-1.1 1.4-2.8 1.1c-1.5-.3-3-1.2-3-1.2s-2.4 1.1-4 1.3c-1.5.3-2.9-1.4-2.9-1.4s-2 1.3-2.8 1.3c-.8 0-3.7-1.4-3.7-1.4s-3 1-4.1 1c-1 0-4-1.3-4-1.3s-2.8.8-4.1.8c-1.4 0-3.3-.8-3.3-.8s-2.3 1-3.6.8c-1.3-.3-2.4-.8-2.4-.8s-2.5 1.1-4.2.8c-1.5-.3-3.4-1.4-3.4-1.4s-.3.7-3.3 1.3h-.1" fill="#9dd7ff"/>
  <path d="M319.46 205.1v42.8l-42.3 37.4c-4.1-11.9-4.38-22.55-4.38-27.14V205.1h46.68" fill="#fff" stroke="#000" stroke-width=".68"/>
  <path d="M319.46 205.1v42.8l42.2 37.4c4.1-11.9 4.4-22.55 4.4-27.14V205.1h-46.6" fill="#ffd83c" stroke="#000" stroke-width=".68"/>
  <g stroke="#000" stroke-width=".49">
    <path d="M292.18 289.22c3.18 1.72 2.1 1.18 8.7 3.5 5.37 1.87 11.6 2.75 20.7 2.75 7.94 0 12.42-.63 14.93-1.33 2.7-.75 3.3-1.8 3.3-1.8l-6.5 6.64s-26.3 1.42-31-1.66c-1.8-.97-5.8-4.2-9.9-8.1z" fill="#730000"/>
    <path d="M330.76 276.82s8.4 4.78 0 13.96m-37.8-1.07l12.12-11.5-1.37 15.5m6.4 1.4v-25.8m20.7 25.8v-27.4m-10.4 27.9v-29.4" fill="none"/>
    <path d="M310.05 270.57l-5.47 1.76 5.47.58v-2.3m10.26-4l-5.7 2.2 5.8.2v-2.3m10.5 1.6l-5.7 2.2 5.8.3v-2.4zm3.4 12.4c-.3-1.1 3.5-1 3.5-1s1.1 3.9 0 6.4l-3.1-.5s.3-2.6-.3-4.7z" fill="#ff0018"/>
    <g fill="#fff">
      <path d="M294.82 288.14l10.26-9.96-.5 5.96s-5.27 3.42-5.27 5.86l-4.4-1.86m5.5 2.06s1.1-3.13 4-4.7l-.3 6.26-3.7-1.56zm14.8-17.3s4.2-.58 7.3 0c0 0-.5 4.2 0 5 0 0-5.7-1.38-8.1.77 0 0-.8-3.9.8-5.76zm-8.9 1.08s4.2-.58 7.4 0c0 0-.8 4.7-.3 5.47 0 0-4.7-2.63-7-.5 0 0-1.5-3.2 0-4.97z"/>
      <path d="M305.85 279.45s4.2-.5 7.33 0c0 0-.5 4.2 0 4.98 0 0-5.47-1.27-7.82.78 0 0-1.07-3.9.5-5.7zm8.4-.78s6.05-.78 9.18-.3c0 0-1.27 3.43.3 5.77 0 0-6.55-1.76-9 .3 0 0-2.04-3.92-.48-5.77zm-8.88 6.55l8.1.58s-.78 5.96-.3 6.74c0 0-6.53-1.56-7.8.58 0 0-2.15-5.46 0-7.9zm9.18 0s7.03-.5 10.25 0c0 0-1.86 4.5.2 8.4 0 0-9.18-2.64-10.46-.5 0 0-2.14-5.46 0-7.9zm10.74-12.3s4.2-.6 7.3 0c0 0-.5 4.2 0 4.97 0 0-5.8-1.4-8.1.7 0 0-.8-3.9.8-5.8zm0 5.75s4.2-.5 7.3 0c0 0-.5 4.2 0 4.98 0 0-5.8-1.27-8.1.78 0 0-.8-3.9.8-5.76zm.4 6.06s4.2-.6 7.4 0c0 0-1.1 6.54-.6 7.32 0 0-4.8-2.24-7-.3 0 0-1.4-5.16.2-7.02z"/>
      <path d="M334.47 285.22s1.36 4.98 3.12 5.56l-2.4 2.84s-2.9-2.06-3.2-4.4c0 0 1.8-2.15 2.3-4z"/>
    </g>
  </g>
  <g stroke="#000" stroke-width=".61">
    <path d="M355.4 298.7c-6.73 11.23-17.77 21.78-35.94 28.32-18.46-6.64-29.7-17.68-36.33-28.8l.1-.1c3.03-.6 3.32-1.38 3.32-1.38s1.86 1.07 3.42 1.37c1.66.3 4.2-.7 4.2-.7s1.07.5 2.44.8c1.3.3 3.7-.7 3.7-.7s2 .8 3.3.8c1.3 0 4.1-.7 4.1-.7s3.1 1.3 4 1.3c1.1 0 4.1-1 4.1-1s3 1.4 3.7 1.4c.8 0 2.9-1.3 2.9-1.3s1.4 1.7 3 1.4c1.6-.2 4-1.2 4-1.2s1.5.9 3.1 1.2c1.7.3 2.9-1.1 2.9-1.1s.9.9 2.1 1.2c1.4.3 3.4-1.2 3.4-1.2s.8 1.2 2.6 1.4c1.9.3 3.7-1.3 3.7-1.3s1.3 1.5 2.8 1.3c1.1-.1 2.5-1.4 2.5-1.4l3.3 1.1" fill="#006ac8" stroke="none"/>
    <path d="M353.74 301.24c-1.46.1-1.66-.88-1.66-.88s-1.95 1.66-3.8 1.37c-1.96-.3-2.84-1.57-2.84-1.57s-2.05 1.66-3.42 1.37c-1.36-.2-2.34-1.17-2.34-1.17s-1.27 1.47-2.93 1.17c-1.66-.2-3.12-1.17-3.12-1.17s-2.64 1.08-4.3 1.37c-1.66.3-3.03-1.57-3.03-1.57s-3.8 1.28-4.6 1.28c-.87 0-3.6-1.27-3.6-1.27s-1.86 1.17-2.93 1.17c-1.17 0-4.3-1.37-4.3-1.37s-2.93.78-4.3.78c-1.37 0-3.42-.78-3.42-.78s-2.54 1.07-3.9.78c-1.37-.3-2.45-.78-2.45-.78s-2.73 1.07-4.4.78c-1.65-.3-3.6-1.36-3.6-1.36s-.3.6-3.52 1.3h-.1" fill="none" stroke-width=".49"/>
    <path d="M293.1 305.22s-.28.64-2.83 1.2c-.05 0-.7.15-.7.15.25-.04.44-.07.64-.12 0 .04-.2.1-.7.24 2.9 4.1 7.2 7.9 11.7 10.9 4.5 3 9.7 6.6 18.5 9.2 9.3-3.6 11.7-5 17.8-9.1 6.1-4.4 9.2-7.2 12.6-11.7-2.6 1.5-2.2 1.5-3.6 1.3-1.3-.3-2.3-1.3-2.3-1.3s-1.2 1.5-2.9 1.3c-1.6-.3-3.1-1.3-3.1-1.3s-2.1 1.5-4.3 1.4c-1.6-.1-3-1.6-3-1.6s-3.8 1.2-4.6 1.2c-.8 0-3.6-1.3-3.6-1.3s-1.8 1.1-2.9 1.1c-1.2 0-4.3-1.4-4.3-1.4s-2.9.7-4.3.7c-1.3 0-3.4-.8-3.4-.8s-2.4 1-3.9.8c-1.4-.3-2.4-.8-2.4-.8s-2.7 1-4.4.8c-1.7-.3-3.6-1.4-3.6-1.4z" fill="#5ac800" stroke-width=".59"/>
    <path d="M319.64 326.9c9.56-4 11.28-5.07 17.06-8.6-1 .02-3.94-.92-2.88-1.22 0 0-1.17 1.05-2.34 1.05-1.08 0-4.2-1.36-4.2-1.36s-2.93.78-4.3.78c-1.37 0-3.42-.78-3.42-.78s-2.54 1.07-3.9.78c-1.37-.3-2.45-.78-2.45-.78s-2.8 1.07-4.3.78c-1.6-.3-3.6-1.37-3.6-1.37s-2.4 1.28-3.9 1.42c4.6 3.4 9.5 6.7 18.4 9.3z" fill="#ffd800" stroke-width=".59"/>
  </g>
  <g stroke="#000" stroke-width=".51">
    <path d="M313.17 248.97c1.9-1.55 2.98-3.04 2.35-4.2-.7-.98-1.83.63-3.1.25 0 0-1.88-1.17-2.4-2-1.1-1.24-2.53-2.35-3.35-3.4-.87-1-4.14-5.3-9.1-10.28-1.44-.94-1.12-4.47-2.14-5.56-.1-.77-9.95-10.53-13.46-14.06-1.43-1.04-2.18-1.72-4.67.54-1.98 1.78-2.7 3.62-.1 5.84l12.82 11.66c1.88 1.82 4.5 2.15 5.6 3.1l13.02 13.32c1.64 1.42 2.43 2.42 1.5 3.63-1.03 2 .08 2.3.3 2.4.16.1 1.08.1 1.7-.4l1.03-.7z" fill="#b34b00" stroke-width=".49"/>
    <path d="M280.66 214l13.4 13.24" fill="none" stroke-width=".48"/>
    <path d="M298.8 220.05c.2-.4.66-1.4 1.14-2.52.2-.44 3.8-6.2 5.6-6.36 0 0 11.2 8.16 11.2 8.27.05.44-4.85 7.77-5.28 7.2 0 0-13.13-5.5-12.66-6.6z" fill="#fff" stroke-width=".55"/>
    <path d="M305.95 221.97c-1.54-1.2-4.08-2.35-6.12-3.72l-.92 1.92c.8.83 10.1 5.17 11.6 6 0 0-1.7-2.04-4.5-4.2z" fill="#ccb8c8" stroke="none"/>
    <path d="M299.82 218c1.2.85 3.48 2.3 4.92 3.13 2.76 1.92 4.5 4.03 6.48 5.16" fill="none" stroke-width=".38"/>
    <path d="M277.1 252.94l25.53-31.6c.48-.42 2.85-.45 3.17 2l-24.18 32.94s-2.75-.27-4.5-3.34z" fill="#782121" stroke-width=".49"/>
    <path d="M362.66 253.3c-.88.67-2.37.85-2.37.85-1.7-1.95-3.1-4-5.4-6.54l-25.5-31.3 2.6-2.5 23 26.8c.7.7 4.7 4.9 8.5 9.9 0 0 .3 2-.9 2.9z" fill="#730000" stroke-width=".49"/>
    <path d="M338.1 220.25l-4.1-4.88s-3.1.4-3.7 2.05c0 0-2.24 3.7-8.2 4.1 0 0 1.66 6.94 8.6 10.65 0 0 2.53-7.13 4.97-8.4 0 0 2.54-1.86 2.44-3.52z" fill="#fff" stroke-width=".49"/>
    <path d="M327.86 241.94c-.58-.2-1.17 0-2.05.5-.7.48-1.7.28-1.6-.7.1-.88 0-.78 1.1-1.46 1.6-.88 3.6-.98 4.9-.5l-2.2 2.16m27.9-27.75c-.2-.7-.4-1.4.3-2.3.7-.8.7-2.2-1-1.5-1.6.6-2.2 2.5-.8 5.3l1.6-1.7z" fill="#730000" stroke-width=".49"/>
    <path d="M327.28 242.53l28.9-28.72 7.13 7.7s-1.4-.6-2-.2c-.5.4.6 1.9.6 1.9s-1.4-.5-1.9-.1c-.7.4 0 2.1 0 2.1s-1.1-.9-1.7-.5c-.5.4 0 2.3 0 2.3s-1.5-.5-1.9-.1c-.4.4 0 2.1 0 2.1s-1.6-.8-2.3 0c-.8.8.4 1.9.4 1.9s-1.9-.8-2.7.4c-.8 1.2.1 2.3.1 2.3s-1.6-.7-2-.4c-.4.4 0 2.3 0 2.3s-1.3-.8-2.2.2c-.9 1.1.1 2 .1 2s-1.2-.8-1.9-.4.2 2.3.2 2.3-1.3-.9-2.1 0c-.9 1 0 2 0 2s-1.1-1-2.2 0c-1 1.1 0 2.2 0 2.2s-1.5-.7-2.1 0c-.7.8.2 1.9.2 1.9s-1.2-.7-1.9-.3c-.8.4 0 2.2 0 2.2s-1.1-1.2-1.6-.6c-.6.7.1 2.4.1 2.4s-1.1-1.2-1.7-.6c-.6.6.4 2.1.4 2.1s-1.9-.9-1.4-.9z" fill="#fff" stroke-width=".49"/>
    <path d="M354.52 216.15l-2.24 2.25.48 7.72s.5-2.25 1.17-.7c0 0 .2-1.84.7-1.55-.4-.2-.1-7.72-.1-7.72m-4.2 4.2l-1.66 1.56.58 7.8s.5-2.9 1.17-.6c0 0-.1-1.9-.1-2.6v-6m-17.47 17.3l-1.57 1.7.4 4.7s.48-3 1.16-.7c0 0-.2-1.9-.2-2.6 0 .5.2-3 .2-3" fill="#7e4b7e" stroke="none"/>
    <g fill="none" stroke="#7e4b7e" stroke-width=".88">
      <path d="M330.9 218.3c1.06 1.08 4.1 4.98 4.1 4.98m-2.74-2.83c-.2.6-.58 2.25-1.46 3.13m1.94-2.74c-.1.4-.1 1.66-1.46 2.93m1.95-2.34c-.2.68-.3 1.17-.78 1.66m1.08-1.1c0 .5-.3.6-.4.9m-3.2-2.8c-.4.4-3.24 2.2-4.8 2.8m4-1.8c-.4.4-2.15 1.7-3.13 2.1m2.84-1c-.58.4-1.56 1.3-2.34 1.6m1.76-.5c-.4.5-.98.9-1.47 1.2"/>
      <path d="M311.3 224.65c.32-.6.88-1.74 1.6-2.8.92-1.34 1.32-1.57 1.8-2.04" stroke-linecap="square"/>
    </g>
  </g>
  <path d="M217 303.4c1.48.67 0-4.8.5-6.85.58-2.15 4.78 5.27 6.84 6.25 2.14 1.08 15.23-5.18 15.23-5.18l3.13-5.86 1.66 4.8s3.6-4.2 4.68-5.77c1.08-1.6 0 3.1-1.07 4.6-1.08 1.5 3.13 2.1 2.64 5.2-.4 3.1 4.2-2.2 4.2-2.2l12.2 1s2.1-7.4 5.3-11.6l1 4.7 5-5.1c5.6 14.6 17.3 30.6 41.3 39.3 22.6-8.2 34.2-22.8 40.3-36.7l6.8 6.9s5.3-1.6 6.3-2.2c1.1-.5 12.4 4 12.4 4s2 .7 3.1 1.5.3-3.4.3-3.4 5.8 1 5.3 4.2c0 0 1.3-3 2.4-3.4 1.1-.5 3.6 2.6 4.2 3.7.5 1 12.9 2.5 14.7 3.6 0 0 1.4 1.5 1.4 2.6 0 0 2.7-.3 4.7-.3 0 0-1.5.8-1.5 2.4 0 1.6-.8 2.8-2.3 3.6-1.5.8 0 1.3 2.1 1.5 2.1.3 0 2.9-4.2 4.5 0 0-1 2.3.8 3.1 0 0-3.6.3-4.2-.8 0 0-1.2 2.4-1.2 3.7 0 0-3.9-1.3-5-1.8 0 0-1.5 1.5-.5 2.3 0 0-7.1-.8-8.5-3.4 0 0-2.5.8-2 1.6 0 0-5-3.5-6.5-3.5l-1 1.8s-3.4-2.1-4.5-2.1c-1 0-.2 1.5-.2 1.5l-4.8-3-1.8 2.9s-3.9-1.9-5-2.7c-1-.8-1.3 1.5-2.1 1.8 0 0-1.5-2.2-3.7-1.9 0 0-.8 2.6-.5 3.4 0 0-6-1.3-7.1-1.6-1-.3-.5 1.3 0 2.3 0 0-4.5-1.3-5.4-2l-.3 2.1s-3.7-.3-4.5-1l-2.3 3.2h-4l-.8 2.8s-6.5-1.9-7.1-.8c-.5 1 .3 2.6.3 2.6l-5.8-.8-.4 2.3s-6.6-2.1-8.2-1.1c0 0-2 2.2-3.4 2.7-1.2.6 0-.8 0-.8l-2-2.9s-2.3 1.3-3.7.8c-1.2-.6-5.4 2-6.8 1.2 0 0 0-1.8-1.1-2.3-1-.4-2.8-.4-3.6.8 0 0-.8-1.1-2.1-3.1-1.2-2.1-3.1.2-3.1.2l-.3-2.5-3.6-.3c-2.1-.3-2.6-2.2-2.6-2.2s-5.5.6-6.3.3l1.4-1.3s-7.6 1.6-9.2 1c-1.6-.4 1.8-2.6 1.8-2.6s-7-1.8-8.4-2c-1.3-.3-8.9 1.3-10 1.3-1.1 0-1.6-1.8-1.6-1.8s-1.8 1.6-3.4 2.1c0 0-1.2-3.1-.5-3.4 0 0-4.9 1.3-5.2 2.6 0 0-1.3-2.1-1.1-3 0 0-2.3 3.7-3.4 4.4-1 .7-.2-1.9-.2-1.9s-2.9 3.7-4 4v-2s-8.4 4.5-10.7 3.9c0 0 0-1.9.8-2.4l-5.3-.3c-1.3-.2-2.8-.8-4.2-1.1-1.3-.2 1.9-1.5 4-1 0 0-5.8-2.1-7.6-1 0 0-.8-2.1 2.3-2.9 0 0-4-3.9-6.3-3.6 0 0 2.7-1.5 4.8-.8 0 0-2.4-6.6-4-7.4 0 0 5.6-.9 7.2-.2z" fill="#289400" stroke="#060" stroke-width=".49"/>
  <path d="M208.9 188.8l71.1-36.82c.34-1.9-.74-3.4-1.85-4.9-20.34 9.98-38.84 22.08-61.44 29.4-1.2.5-12.5 5.18-18.2 12.1-1.8 1.85-1.9 4.55-1.9 4.55s.2 3.1.8 3.94c0 0 .2.86 1.2 1.54 0 0 .7.4 1.2.2.5.1 1.4.1 2.6-1.9 1.2-1.9 5-6.4 6.8-8z" fill="#730000" stroke="#000" stroke-width=".49"/>
  <path d="M266.13 152.37l9.18-4.4s3.2 2.35 2.9 5c0 0 .7 6.04 8.2 10.24 0 0-6.3 8-17.5 8.6 0 0 1.3-10.4-1-13.4 0 0-.4.4-.2-.1.4-1-.2-4.5-1.6-5.2-.1-.1.1-.4.2-.5z" fill="#fff" stroke="#000" stroke-width=".49"/>
  <path d="M276.88 153.64c-1.96.78-8.3 4.1-8.3 4.1m5.27-2.15c-.1.9-.68 3.3 0 4.9m-.88-4.7c0 .5-.78 2.2.1 4.6m-1.07-4.1c-.2 1-.4 1.5 0 2.6m-.8-2.1c-.18.6 0 .9 0 1.2m5.77-1.6c.3.7 2.93 4.9 4.5 6.5m-4.1-4.7c.3.8 1.76 3.6 2.83 4.7m-3.03-3c.4.9 1.18 2.7 1.96 3.7m-1.96-1.8c.2.8.6 1.7 1.18 2.4" stroke-width=".78" fill="none" stroke="#7e4b7e"/>
  <g stroke="#000" stroke-width=".49">
    <path d="M342.3 148.28l26.1 12.8c5.24 2.53 7.12.18 10.08 1.47l51.54 26.25c4.43 1.94 6.9 2.55 6.27 4.84-.2 3.64 1.7 3.7 2.2 3.73.3.1 2.1-.16 2.8-1.13.5-.63.5-.7.5-.7.5-.57.4-.63.6-.9 2.1-3.1 3.3-5.8 1.1-7.57-2.6-1.22-2.9 1.54-5.6 1.25 0 0-4.9-1.86-6.7-3.13-3.3-1.8-7.8-3.9-8.8-5-3.3-.7-28.1-14.6-42.1-21.6-1.5-1.3-2.3-5.9-5.3-7.5-.9-1.3-19.9-10-29.8-14.9-3.7-1.4-5.7-2.3-8.4 2.2-2.3 4.4-1.8 6.8 5.2 9.8z" fill="#b34b00"/>
    <path d="M344.5 142.8l29.24 14.6" fill="none"/>
  </g>
  <g fill="#ffa54b" stroke="#000" stroke-width=".51">
    <path d="M309.73 165.12c-.2.6-.7.2-.7.4-.42 2.14-.32 3.26-.82 4.48-.7 1.43-3.2 2.75-3.1 2.65-2 .6-4.4 3.05-8.4.8-.2-.1-.4-.3-.6-.5 0 0 1.1 4.17-2.9 6.2-1.4.72-15.7 8.25-15.7 8.25s-1.5 2.75-.5 6.5c.1.62.3 1.13-.3 1.54-.9.7-2.6 2.75-3.6 6 0 0-3-1.32-3-3.25 0-2 1.3-3 1.6-4.4.3-1.3 1.1-4.7.7-5.7-.4-1.1-2.2-1.5-2.9-2-.6-.4-1.4.4-1.3 1.3.1 1 .8.8 1.6 1 0 0-.9 1.9-.8 3.3l-9.2 4.8s1.2 1.6 1.6 2.3c.4.7 1.3 10.1 4.1 14.6s3.7 3.2 4.3 3.8c.5.5 1.3 1.3 2.1 1.9.7.5 3.9.8 4.5-.9.8-1.7 1.3-2.7 3.2-4.2 2-1.5 5.9-5.4 5.9-7.1 0 0 2.4 6.7 2.1 12.3 0 0 8.6 1.7 16.2 1.9 7.7.1 11.5-1.6 11.5-1.6s1-6.4.6-7.6c0 0 1.3 4.1 2.2 5.6 1 1.7 2.2 5.2 4.4 5.5 2.2.1 4-2.2 4.2-3.1v-6.7h8.7c0-.1 3.9 1.4 5.1 1.2 1.2-.1 1.9-1.3.8-1.7l-.4-.3c1.1 0 2.6.7 2.6.7h4.2c.1-.1 0-.4-.1-.5-.3-1.2-2.5-2.3-4.2-3-1.6-.6-3.4-1.3-4.7-1.4-1.9-.2-3.2-.1-6.2.4-.8.1-3.8.4-5.8 1.3-.5.3-1 .4-.8-.9.3-1.4.2-7.8-1.3-10.6-1.1-1.9-1-3.6-.8-5.2.1-1.6.2-7.2 0-8.8-.3-1.6-2.5-3.8-6.6-4.3-3.8-.5-7.1-3.7-7.3-6.2-.3-2.6.4-7.3.8-9.3" fill="url(#c)" transform="translate(-40) scale(.96)"/>
    <g fill="none">
      <path d="M292.44 153.63c-.7 3.25-.7 6.1-.6 9.26.1 2.1 1.1 4.5 2.03 6.7.6 1.4 1.42 3 2.74 3.8 3.6 2.3 7-.2 8.9-1 .9-.3 2.4-1.6 2.8-2.5.5-1.2.3-2.2.8-4.5-.1.1.8-.4.7-.4 1-1.6.8-2.1 1.3-3.1s-.6-2.2-1.8-2c.6-2 1-4.1.4-5.9-.2-.6.5-2.3-.6-1.9-4.6 1.8-10 1.4-14.8 1.4-.4 0-.7-.8-1.3-.7-.1 0-.2.3-.3.5" fill="url(#d)" transform="translate(-40) scale(.96)"/>
      <path d="M240.35 149.14c-.5-.4-.6-1.27 0-3.13.68-1.8 0-1.9 1.07-3 1.08-1 .78-1.5 1.47-1.8.6-.2 2.7-.2 3.4-.5.6-.3 1.4-.6 2.8-.8 1.4-.3 4.4-.2 5.7.6 1.4.8 2.4 2.7 3.3 3.4 1 .7 1.6 3.5 1.4 7.6-.3 4.1-1.1 3.3-1.1 3.3s-1.2-1.9-2.2-.3c0 0 0-1.5.2-2.7.1-1.1-.6-3.3.1-4.8 0 0-5.6 1.8-8.4 1.7-3-.2-7.1-.9-7.3-1.5l-.7 2.2" fill="#000" stroke-width=".49"/>
      <path d="M243.18 145.73c-.3-.6-1.76-2.74-.58-3.42 1.07-.5.4 2.7 1.85 3.4 0 0-.48 1.5-1.26.1h-.1z" fill="#fff" stroke="#fff" stroke-width=".49"/>
      <path d="M246.4 153.73c-.48 1.67-.68 2.06-.87 3.03m10.16 1.56c.2.6.3.3.8.4m.4-3.8c.5-.6 1.1-.3.7 1.16" stroke-width=".49"/>
      <path d="M240.74 151.4c.88.28 1.76.58 2.64.97 1.47.6.6 2.73.2 4.1-.2.7-.98 1.86-.6 2.45.5.77 1.1.3 1.97.38 0-.3.58-.5.78-.5.68-.08 1.07.5 1.56.3.5-.3.4-1.16.2-1.65m-.1-4.3c.1-.4 1-.78 1.4-.88 2-.4 3.5-.68 5.1.5m-5.5 10.63c-1.7.4-3.4.68-5-.2m0-.77c.8-.4 1.1-.78 2-.3 0-.1 1.1-.38 1.1-.38.7 0 1.2.3 2 .78m-5.3.3c.9-.3 3.2-.3 5.2.08" stroke-width=".49"/>
      <path d="M240.65 153.73c.68-.1 1.46-.87 3.02.3 1.08.68-1.75 1.37-1.26 1.27-1.2.2-1.6-.5-1.7-1.08 0-.2-.2-.5 0-.5zm8 .78c.7-1.3 1.76-1 2.74-.7.9.3.6.1 1.5.6-1.1.2-.8.3-1.6.7-.9.4-1.7.6-2.3.2-.2-.2-.7-.5-.7-.8 0 .1.1.2.2.2z" fill="#fff" stroke-width=".29"/>
      <path d="M242 154.9c.4 0 .7-.38.7-.78 0-.48-.3-.88-.7-.88-.48 0-.77.4-.77.88 0 .4.3.8.78.8zm8.3.2c.4 0 .7-.4.7-.88 0-.5-.4-.78-.78-.78-.4 0-.7.3-.7.78 0 .5.4.88.8.88z" fill="#000" stroke-width=".29"/>
    </g>
    <g id="g">
      <g fill="none" stroke-width=".49">
        <path d="M292.02 205.1c-.6-.67-.98-.97-1.76-1.26l-1.96-.97c-.68-.4-1.66-.5-2.24-.88m.4 2.5c-.3-.2-.5-.3-.8-.5-.3-.1-.68-.1-.97-.2-.1 0-.1-.2-.2-.2-.9-.1-1.8-.5-2.4-1.3m-60.3-9c.8.7 3 2.1 3.2 5 .2 1.4 1 2.9 1 2.9m-12.6-7.5c.5 1.6.5 7.1 5.7 12.8m-4.8-20.5c-.4 1.1-.9 2 .2 2.8m13.8 10.2c1.1-2.5 4.4-2.3 4.4-4.6"/>
        <path d="M233.42 198.96c-.3-2.74-.88-4.3-.4-8.3.2-1.18.4-5.67 0-7.82 0 0 1.57 7.52-3.5 9m33 12c0-3.8.88-5.95.88-5.95 1.18-5.4-1.07-7.5-.2-8.8.8-1.2 1.96-3.7.4-8.5 0 0 2.73 10-4.3 10-7.13 0-6.84-2.7-6.84-2.7"/>
        <path d="M233.02 182.84c0 2.05 0 8.1 8.7 8.1 2.63 0 5.47-1.84 7.03-3.12m2.15-2.64c-.3-1.85-.3-4.2-.3-6.64m-13.08-3.3c2.34-.3 4.2-.6 8.6-.6m.3-6.06c.48 2.15-.3 5.56 3.7 6.05m4.2-6.83c-.6 1.56-.6 3.12-.78 4.2m.2 2.64c1.65 0 4.78-1.07 8.68-.3m1.37 21.88c.7 1.57.9 3.62 3.4 5.96m-30.5-10.94c.2 1.27-1.7 5.47-.3 8.9 1.2 3.4 1.1 7.32-1.1 10.64m6.3-18.26c-.8 1.56-2.2 3.12-2.5 4.5m6.3-1.57c0 .97-2.6 8.4-4.5 10.45 0 0 3.4 1.36 2.9 6.35m7-20.22c0 1.27-.2 1.56.8 2.34m2.3 0c1.2 1.56 5.3 6.25 4.4 8.9m-7-6.27c.3 1 .3 6.1-.6 8.6m-2.1-.2c-1.1 0-2.7.8-3 2.7m8.4-2.9c1-.3 3.2 1.58 3.2 6.86m15-9.86c-2.1.6-2.9 1.65-2.3 1.06-1.1.88-2.1 1.47-2.1 1.47"/>
      </g>
      <path d="M238.2 190.07c.58 0 1.07-.4 1.07-.88 0-.4-.5-.8-1.07-.8-.5 0-.98.4-.98.8s.5.8.98.8zm22.17.3c.5 0 .98-.4.98-.88 0-.5-.48-.8-.98-.8-.58 0-1.07.3-1.07.8 0 .4.5.8 1.07.8z" fill="#000" stroke-width=".29"/>
      <path d="M229.32 230.22c1.17-7.62 4.78-13.97 4.88-14.56 0 0 3.7.8 10.16 1.37 6.35.68 8.1.4 11.03.2 2.8-.3 6.5-.8 6.5-.8s1.1 2.36 1.2 4.7c.3 4.98 2.1 26.57 2.3 32.33 0 0 .8 3.42.8 11.82 0 9.2 2.5 27.84 2.5 37.8l-2.6.5s-13.9 1.07-13.9-.78c0-2.05-.8-26 1.3-40.44 0 0-.5-2.84-1.3-5.28-.8-2.34-4.2-9.67-4.2-11.23 0 0-5.5 15.43-5.8 18.07-.3 2.44-1.1 36.82-1.6 39.66 0 0-8 6.06-9 6.64-1.1.5-8.7-3.22-8.9-4.2-.3-1.07.8-12.7 4.4-31.84 1.3-6.84.6-8.1.6-9.96 0-1.86.1-26.38 1.2-34z" fill="#fff" stroke-width=".49"/>
      <path d="M242.5 263.92c-.6 2.15-1.56 4.2-3.42 5.57m-2.64-51.5c-.3 1.2-2.15 7-6.84 10.4m13.68-9.4c-1.08 3.4-5.28 21.8-6.06 43.5m-.3 6.8c-.18 2-1.26 17.3-1.55 19.9m-.78 2.9c-.5 1-2.7 9.9-2.7 17.8m30.9-34.5c-.2 1.8-1 15 3.4 26.8M248.5 220c-.3 2.15-.8 16.02-.8 17.1 0 1.07 1.58 2.63 2.36 2.93 0 0-1.58.48-1.88 5.75m-3.9-12.4c-.3 1.66-1.8 8.2-2.9 10.85M254 219.8s4.7.98 5 0c0 0 1.55 28.33 3.7 44.05m-10.74-40.44c0 1.9-.58 15.9-.58 15.9m2.32 2.1s1.85 2.7 1.37 3.9m-17.07-27c1.57.5 2.94.8 2.94.8m4.98 1.6c-.3.8-.6 4.4-.6 4.4m8.4 37.3c.6.8 1.38 1.9.8 4.2" fill="none" stroke-width=".49"/>
      <path d="M233.5 215.47s0-3.12 1.18-4.7c0 0 3.32.7 8 1.18 4.8.5 8.6.88 12.12.5 3.52-.4 7.13-1.28 7.13-1.28s.98 4.6.5 5.28c0 0-3.82.78-8.02.97-4.3.3-11.4-.4-13.8-.77-3.2-.4-6-.98-7-1.18z" fill="#9b5f00" stroke-width=".49"/>
      <path d="M236.54 215.86l.58-4.7.98.1-.2 4.9-1.36-.3m21.2-3.9l.1 5.26 1.17-.2-.1-5.37-1.1.3m-15 0l-.4 5.08h.7l.7-5.08h-.9" fill="#fff" stroke-width=".49"/>
      <path d="M225.7 307.98c-.3 1.27-.78 3.03-.98 5.27 0 .5-.48 3.13.98 3.23 1.07.1 1.37-2.74 1.37-2.74s-.98 3.13.3 3.52c1.75.38 1.94-3.42 1.94-3.42-.1 1.07-1.3 3.8.3 4.1 1.8.3 2.3-3.7 2.3-3.7s-1.4 4 .3 4.1c1.7.1 1.7-3.92 1.7-3.92s-.8 4.8 1.5 4.4c1.3-.2 1.6-1.86 1.9-2.84.4-1.46 1.3-3.3.2-6.34-.8-2.25-.5-2.84-.5-2.84s-2.7 2.06-4.9 3.42c-1 .6-6.2-2.24-6.2-2.24zm28.52-4.2c-.5-.3-.4 1.75-.58 2.72-.1 1 .2 3.13 3.5 2.94 3.23-.3 6.46-.98 8.5-.5 2.06.6 5.1.7 6.75.7 1.6 0 2.7-.2 3.5-.5.7-.3 2.1.4 2.8.4.7 0 1.7-1.08 1.6-1.76-.1-1.28-1.3-1.28-3-1.37-1.6-.2-3.7-.4-4.8-.8-1.1-.4-3-1.4-5.5-1.9 0 0-4.7.2-5.7.2s-6.8.3-7.4 0z" stroke-width=".49"/>
    </g>
    <g fill="none" stroke-width=".49">
      <path d="M205.48 182.26c-.5.3-1.07-1.96.4-2.84 0 0 .38-1.85 1.94-2.05 0 0 1.27-1.76 3.13-1.56 0 0 2.15-1.4 2.93-1.2.78.1 2.74 2.1 2.83 2.8.2.7 0 1.9-.4 2.4-.6.6-1-.1-1-.9 0 0 .4 1.5-.8 2.1-1.1.7-1.1.2-1.1-.6 0 0-.3 1.6-1 1.8-.8.3-1.2-.4-1.8-.4 0 0 1 .8.3 1.4-.7.5-1.5.3-1.9-.1-.5-.5-1.1-1.7-3.1-.6z" fill="#ffb366"/>
      <path d="M215.05 178.65c-.5-1.57-2.05-2.94-3.9-2.74m2.15 4.2c-.3-.4-.4-.7-.7-1.1-.87-1.4-2.72-1.3-4.3-1.7m2.36 4.4c-.6-.4-.78-1.2-1.37-1.4-1-.4-2-.8-3.2-.6"/>
    </g>
  </g>
  <g transform="translate(-40) scale(.96)" stroke="#000" stroke-width=".51">
    <path d="M439.14 165.12c.7-.3.5.6.6.92.32 1.32.32 2.74.82 3.96.6 1.12.8 1.53 1.83 2.04 1.6.9 6.4 3.56 9.7 1.42a3.1 3.1 0 0 0 .7-.5s-1.2 4.17 2.9 6.2l15.6 8.24s1.5 2.75.6 6.5c-.2.62-.4 1.13.2 1.54 1 .7 2.6 2.75 3.7 6 0 0 2.9-1.32 2.9-3.25 0-2-1.3-3-1.6-4.4-.2-1.3-1-4.7-.6-5.7.4-1.1 2.1-1.5 2.8-2 .7-.4 1.5.4 1.3 1.3-.1 1-.8.8-1.6 1 0 0 1 1.9.8 3.3l9.3 4.8s-1.3 1.6-1.7 2.3c-.5.7-1.4 10.1-4.2 14.6-2.7 4.5-3.6 3.2-4.1 3.8-.6.5-1.5 1.3-2.2 1.9-.6.5-3.8.8-4.5-.9-.7-1.7-1.2-2.7-3.1-4.2-2-1.5-5.9-5.4-5.9-7.1 0 0-2.4 6.7-2.1 12.3 0 0-8.5 1.7-16.2 1.9-7.6.1-11.5-1.6-11.5-1.6s-1-6.4-.6-7.7c0 0-1.2 4.1-2 5.6-1.1 1.7-2.2 5.3-4.4 5.5-2.3.1-4-2.2-4.3-3.1v-6.7H414c0-.1-3.8 1.4-5.1 1.2-1.2-.1-1.85-1.2-.8-1.6l.4-.3c-1.15 0-2.57.7-2.57.7h-4c0-.1.1-.4.1-.5.3-1.2 2.54-2.2 4.26-2.9 1.6-.6 3.3-1.4 4.6-1.5 1.9-.2 3.2-.1 6.2.4.8.1 3.9.4 5.8 1.3.5.3 1.1.4.8-.9-.3-1.5-1.2-5.6.3-8.4 1-1.9.9-3.6.8-5.2-.2-1.7-1.2-5.6-1.2-7.3 0-5.7 4.3-8.1 8.2-9.3 4.2-1.3 7.1-2.8 6.9-5.3-.1-2.6.6-7 .2-9.1" fill="url(#e)"/>
    <g fill="none">
      <path d="M456.34 153.63c.92 3.36 1.12 4.17 1.12 5.3 0 1.2-.5 1.4-.1 2.74.7 2.44-.72 5.1-2.45 7.94-.8 1.4-1.4 3.1-2.7 3.9-3.3 2.2-7.4-.4-9.5-1.3-1.1-.5-1.7-1.3-2-2.1-.4-1.2-.5-2.3-.8-3.9 0-.3.1-1.2-.6-.9-1.2-1.4-1-2-1.5-3s.9-2.1 2-1.9c-.6-1.9-.9-4-.3-5.9.2-.6-.5-2.2.5-1.8 4.6 1.9 10 1.5 14.9 1.5.4 0 .7-.8 1.4-.7.1 0 .2.3.3.5" fill="url(#f)"/>
      <path d="M456.75 155.35c.5-.4.2-2.34-.3-4.38-.2-1-1.02-1.42-2.14-2.54-1.1-1.12-1.5-1.12-2.2-1.42-.6-.2-2-.2-2.7-.5-.6-.3-2.2-.1-3.7.1-2 .3-3.1.2-4.7 1.1-1.5.8-2.7 1.8-3.2 3.3-.4 1.1-1.1 2.6-.8 6.8.3 4.3 1.1 3.5 1.1 3.5s1.1-1.6 1.9-.6c0 0-.1-2.2-.3-3.5-.1-1.2 0-2.7.5-4.6 0 0 4.7 1.8 9.1 1.8 3.1 0 7.1-.3 7.2-1l.7 2.3z" fill="#000"/>
      <path d="M450.44 160.14c.6 1.73.1 1.22.4 2.34m-10.27 2.03c0 .9-.6.7-1.02.7"/>
      <path d="M456.85 158.82c-.92-.7-2.65-.2-3.46.1-1.6.7-.8 2.24-.2 3.67.2.7 1 1.7.5 2.4-.4.8-.8.4-1.7.5.1-.3-.8 0-1.1 0-.6-.1-.9.4-1.4.2-.6-.3-.5-1.2-.3-1.7m.1-4.5c0-.4-1.4-.8-2.8-.9-2.3-.1-2.5.1-4.2 1.3m11.5 8.9c-.4-.7-1.1-1-2.2-.5 0-.2-1.5-.4-1.5-.4-.8 0-1.3.3-2.2.7m5.6.6c-1-.6-3.3-.2-5.6-.2m.2.8c1.7.5 3.4.8 5.2 0"/>
      <path d="M456.44 160.14c-.7-.1-1.02-.92-3.15.3-1.2.62 1.8 1.43 1.4 1.33 1.2.2 1.6-.5 1.7-1.12 0-.2.2-.5 0-.5zm-8.34.8c0-.8-1.83-1.1-2.85-.8-1.02.3-.6.1-1.52.6 1.02.2.7.3 1.52.72.92.4 1.12.8 2.34.2.3-.1.7-.5.8-.9-.1.1-.2.2-.3.2z" fill="#fff" stroke-width=".3"/>
      <path d="M455.12 161.36a.8.8 0 0 1-.8-.8c0-.52.3-.93.8-.93.4 0 .7.4.7.92 0 .4-.3.8-.7.8zm-8.75.2c-.4 0-.7-.4-.7-.92 0-.5.4-.8.8-.8s.7.3.7.8c0 .52-.3.92-.8.92z" fill="#000" stroke-width=".3"/>
    </g>
    <use height="100%" width="100%" xlink:href="#g" transform="matrix(-1 0 0 1 748.82 0)" fill="#730000"/>
    <g fill="none">
      <path d="M491.64 193.5c.5.22 1.93-2.02.5-3.04 0 0-.5-1.93-2.13-2.04 0 0-1.3-1.93-3.2-1.62 0 0-2.1-1.53-2.9-1.43-.9.2-2.9 2.24-3 2.95-.1.6 0 1.84.5 2.45.6.5 1.1-.1 1.2-1.02 0 0-.4 1.52.8 2.24 1.3.7 1.2.1 1.3-.8 0 0 .3 1.6 1.2 1.9.8.3 1.3-.4 1.9-.4 0 0-1 .8-.3 1.3.7.6 1.6.3 2.1-.1.6-.4.3-1.7 2.5-.5z" fill="#730000"/>
      <path d="M482.5 189.75c.5-1.73 2.23-3.15 4.06-2.85m-2.14 4.38c.2-.4.3-.82.6-1.22.93-1.53 2.96-1.53 4.6-1.84m-2.56 4.48c.6-.4.8-1.12 1.43-1.42 1-.5 2.1-.92 3.2-.72"/>
      <path d="M482.3 186.77c-.9.72-1.83 1.8-1.9 2.28-.1.6 0 1.83.5 2.44.56.4.95-.1 1.1-.8-.06.4-.07 1.4.84 2 1.22.7 1.12.1 1.22-.7 0 0 .3 1.6 1.13 1.9.8.3 1.3-.4 1.9-.4 0 0-1.1.8-.3 1.3.7.6 1.5.3 2-.1.6-.4.3-1.7 2.4-.5.2.1.8-.5 1-1.2l-7.7-5.6-2.3-.8z" fill="#730000" stroke="none"/>
      <path d="M480.68 188.2c-1.5 2.57.5 4.12 1.16 2.6-.2 2.4 1.6 2.3 2.3 1.55.65 2.5 1.82 1.4 2.9 1.16-1.23 2.3 1.48 1.7 2.12 1.1.92-1.3 1.35-.3 2.03-.4l1.1-1.2m-8-5.7c-1.7.9-2.5 2.2-2.6 3.7m4.8-2.2c-1.7.9-2.5 2.2-2.6 3.7m5.4-1.7c-1.7.9-1.8 1.7-2.5 2.9"/>
    </g>
  </g>
  <path d="M238.5 310.7l-.2-4.48 1.86 1.56.48-3.4c.8-.2 2.06 1.36 2.06 1.36l-.2-3.43 2.83 3.2s-.2-2.6.78-4.2c0 0 2.2 1.9 2.2 4 0 1.9 1.9-2.6 1.9-2.6l1.6 5 1.3-1.8 1.1 3.9 2.4-3.4 1.9 4 4.2-.3.5 2.4 1.9-2 2.5 1.6s2.1-.6 3.1-.6c1.1 0 2.4 1.4 2.4 1.4s.8-1.4 1.6-1.9 1.9.8 2.2 1.6l1.6-2.8s2.1 2.1 2.4 2.9c0 0 .3-2.3.8-3.1.5-.7 1.3.3 1.9 1.3l1.3-4.2s1.4.3 2.3 1.9c1.1 1.6 1.1-2.3 1.1-2.3s2.4 3.1 3 5.3c0 0-16.1 5.6-27.5 4.1-13.4-1.8-24.5-4.3-24.5-4.3m110.9-.5s.8-2.1 1.9-3.2c0 0 2 2.5 2 3.2 0 0 .6-.3 1.7-1.1l1.6 1.6 1.9-1.2 1.7 1.6 3.3-1.3 1.3 1.4 5-.6 1.9.8 1.8-2.2 1.7 1.8 2.7-2.6s1.3 1.1 1.6 1.9c0 0 2.2-1.1 2.7-1.9 0 0 2.1-.8 2.4.5 0 0 1.3-.9 1.2-2-.1-1.1 1.5-.3 2 1.1 0 0 .6-2.2 2.2-2.4 0 0 1.1 1.3.8 3.6 0 0 2.4-1.8 3.4-2 0 0 .5 2.6-.3 5 0 0 2.4-4 2.9-2.6.2.8.8 3.4.2 5.3l2.1-1.4.8 2.6 2.3-.5s-13.9 2.1-26.9.9c-13.1-1.2-25.3-5.9-25.3-5.9m-9.6 9.7c.6-.4-4.4 10.3-16.5 10.9-16.9.8-31.3-7.6-31.3-7.6s1.7-3 2.8-3.8c0 0 2.3 1.9 3.1 4.2 0 0 .3-1.5 1.1-2.9 0 0 2.9 1.4 3.4 3.3 0 0 1.1-1.9 1.9-2.4.8-.6 1.5 2.1 1.5 3.6 0 0 1.9-1.9 2.9-2 0 0 2.1 1 2.7 4.4 0 0 1.9-1.8 2.6-1.5 0 0 2.4 1.6 1.8 3.7-.3 1.2 2.4-1.4 5.6-2.1l2.8 2.2s2.6-3.5 3.4-4.7c0 0 2.2.8 2.2 2.1 0 0 1-3.7 1.77-4.1.7-.5 1.8 1.2 1.8 2.28 0 0 .3-2.9 1.86-3.4 0 0 1.5 1 1.5 2.1 0 0 1.6-3.2 2.9-4z" fill="#5ac800"/>
  <path d="M238.5 310.7l-.2-4.48 1.86 1.56.48-3.4c.8-.2 2.06 1.36 2.06 1.36l-.2-3.42 2.83 3.12s-.2-2.64.78-4.2c0 0 2.2 1.86 2.2 4 0 1.86 1.9-2.63 1.9-2.63l1.6 5 1.3-1.8 1.1 3.9 2.4-3.4 1.9 4 4.2-.3.5 2.4 1.9-2 2.5 1.6s2.1-.6 3.2-.6 2.4 1.4 2.4 1.4.8-1.3 1.6-1.8 1.8.8 2.1 1.6l1.6-2.8s2.1 2.1 2.4 2.9c0 0 .3-2.3.8-3.1s1.3.3 1.9 1.3l1.3-4.2s1.4.3 2.4 1.9c1.1 1.5 1.1-2.4 1.1-2.4s2.3 3.2 2.9 5.3m58.8-.7s.8-2.1 1.9-3.2c0 0 2 2.5 2 3.2 0 0 .6-.3 1.6-1l1.6 1.6 1.8-1.2 1.8 1.5 3.2-1.4 1.3 1.4 5-.6 1.9.8 1.8-2.2 1.6 1.7 2.6-2.6s1.3 1.1 1.6 1.9c0 0 2.2-1.1 2.6-1.8 0 0 2.1-.7 2.4.5 0 0 1.3-.9 1.2-2-.1-1.1 1.5-.3 2 1.1 0 0 .6-2.2 2.1-2.4 0 0 1.1 1.3.8 3.6 0 0 2.3-1.8 3.4-2 0 0 .5 2.6-.3 5 0 0 2.5-4 2.9-2.7.2.8.8 3.4.2 5.3l2.1-1.3.8 2.6 2.3-.5m-110 7.7s1.8-2.9 2.9-3.7c0 0 2.3 1.9 3.1 4.2 0 0 .3-1.5 1.1-2.9 0 0 3 1.4 3.4 3.2 0 0 1.1-1.8 1.9-2.3.8-.6 1.6 2.1 1.6 3.6 0 0 1.8-1.9 2.9-2 0 0 2 1 2.6 4.4 0 0 1.9-1.8 2.6-1.6 0 0 2.4 1.5 1.8 3.7-.3 1.1 2.4-1.4 5.6-2.2l2.9 2.2s2.6-3.5 3.4-4.7c0 0 2.1.8 2.1 2 0 0 1-3.7 1.8-4.1.8-.5 1.9 1.1 1.9 2.2 0 0 .3-2.8 1.9-3.4 0 0 1.5 1.1 1.5 2.2 0 0 1.7-3.2 2.9-4" stroke-width=".49" fill="none" stroke="#060"/>
  <g fill="#fff">
    <path d="M319.46 361.9c21.98.2 34.97-7.82 42.1-12.6 16.7-11.23 20.22-11.62 22.95-11.43 3.2.3 7.8 1.37 8 4.1.3 4.2-6.5 6.06-10.4 6.06-4 0-14.4-2.64-14.4-2.64l-2.7 1.8c1.9.9 23.3 8 27.4 1.2 4.2-6.9 8.4-17.9 8.4-17.9s-4.7-8.4-15.1-8.4c-10.5 0-20.8 6.6-27.6 11.6-6.8 5-15.4 11.8-38.3 11.8-22.8 0-31.5-6.9-38.4-11.8-6.8-5-17.1-11.6-27.5-11.6-10.5 0-15.2 8.4-15.2 8.4s4.2 11 8.4 17.8c4.1 6.7 25.5-.4 27.4-1.3l-2.6-1.9s-11 2.9-14.9 2.9c-4 0-10.8-1.9-10.5-6.1.2-2.8 4.8-3.8 7.9-4.1 2.8-.2 6.3.2 23 11.4 7.1 4.8 20.1 12.5 42.2 12.6"/>
    <path d="M284.1 336s0-1.85-.3-4.58c-.38-3.52-2.43-4.4-4.1-3.9-1.06.38-3.2 3.02-3.2 3.02v.1a31.07 31.07 0 0 0-3.04-1.86c.78-.88 5.27-3.6 6.35-3.6 1 0 14.5 5.46 18.8 9.17 1.1.98 1.9 7.03 1.3 8.98-7.2-1.85-11.9-4.6-15.7-7.22v-.1m-6.4 13.7s-2.9 3-3 8.3c-.1 6.4 4.5 6.7 7.6 6.6 3.6-.1 6.5-2.1 6.4-8.9 0 0-5.9-2.5-10.9-5.9m77.1-13.7s.1-1.8.4-4.5c.4-3.5 2.4-4.4 4-3.9 1.1.4 3.2 3 3.2 3v.1c1-.7 2-1.2 3.1-1.8-.8-.9-5.3-3.6-6.2-3.6-1.1 0-14.5 5.5-18.8 9.2-1 1-1.8 7.1-1.3 9 7.3-1.8 11.9-4.6 15.7-7.2v-.1m6.5 13.7s3 3 3.1 8.3c.2 6.4-4.5 6.7-7.5 6.6-3.6-.1-6.4-2.1-6.4-8.9 0 0 6-2.5 11-5.9"/>
  </g>
  <path d="M271.3 345.4s-10.44 2.63-14.35 2.63c-4 0-10.84-1.86-10.55-6.06.2-2.74 4.8-3.8 7.9-4.1 2.36-.2 5.4.1 17 7.52m96.22 0s10.45 2.6 14.46 2.6c3.9 0 10.74-1.9 10.45-6.1-.2-2.8-4.8-3.8-7.9-4.1-2.36-.2-5.4.1-17 7.5M284.1 336c-1-.77-2.1-1.55-3.1-2.33-1.4-1.07-2.9-2.05-4.5-3.1 0 0 2.2-2.75 3.3-3.04 1.66-.6 3.7.3 4.1 3.8.3 2.74.3 4.7.3 4.7m-7.16 27.6c1.86 1.06 3.9.97 5.18.87 3.63-.1 6.55-2.14 6.46-8.9 0 0 4.5 2.27 11.8 4 0 0 1.2 1.5 1.38 4.4.3 2.46-1.36 5.1-3.3 4.9 0 0-10.26-1.85-16.5-2.93-3.63-.7-5-2.36-5-2.36m77.75-27.5l3.2-2.3c1.4-1 2.9-2 4.4-3.1 0 0-2.1-2.7-3.2-3-1.6-.5-3.6.3-4 3.9-.3 2.8-.4 4.7-.4 4.7m7.2 27.6c-1.8 1.1-3.9 1-5.1.9-3.6-.1-6.5-2.1-6.5-8.9 0 0-4.5 2.3-11.7 4 0 0-1.2 1.5-1.4 4.4-.2 2.5 1.5 5.1 3.3 4.9l16.5-2.9c3.6-.6 5-2.3 5-2.3" fill="#69f"/>
  <g fill="none" stroke="#000" stroke-width=".68">
    <path d="M319.46 361.9c21.98.2 34.97-7.82 42.1-12.6 16.7-11.23 20.22-11.62 22.95-11.43 3.2.3 7.8 1.37 8 4.1.3 4.2-6.5 6.06-10.4 6.06-4 0-14.4-2.64-14.4-2.64l-2.7 1.8c1.9.9 23.3 8 27.4 1.2 4.2-6.9 8.4-17.9 8.4-17.9s-4.7-8.4-15.1-8.4c-10.5 0-20.8 6.6-27.6 11.6-6.8 4.9-15.4 11.8-38.3 11.8s-31.5-6.9-38.4-11.8c-6.8-5-17.1-11.7-27.5-11.7-10.5 0-15.2 8.4-15.2 8.4s4.2 11 8.4 17.9c4.1 6.7 25.5-.4 27.4-1.3l-2.6-1.9s-11 2.9-14.9 2.9c-4 0-10.8-1.9-10.5-6.1.2-2.8 4.8-3.8 7.9-4.1 2.8-.2 6.3.2 23 11.4 7.2 4.8 20.2 12.5 42.2 12.6z"/>
    <path d="M271.3 345.4s-10.44 2.63-14.35 2.63c-4 0-10.84-1.86-10.55-6.06.2-2.74 4.8-3.8 7.92-4.1 2.34-.2 5.37.1 17 7.52zm96.2 0s10.46 2.63 14.47 2.63c3.9 0 10.74-1.86 10.45-6.06-.2-2.74-4.8-3.8-7.9-4.1-2.36-.2-5.4.1-17 7.52zm-83.4-9.3c-1.07-.78-2.14-1.56-3.12-2.34-1.46-1.07-2.93-2.05-4.5-3.12 0 0 2.15-2.74 3.23-3.03 1.7-.5 3.8.3 4.1 3.9.3 2.8.3 4.7.3 4.7z"/>
    <path d="M284.1 336s0-1.85-.3-4.58c-.38-3.52-2.43-4.4-4.1-3.9-1.07.38-3.2 3.02-3.2 3.02v.1a31.88 31.88 0 0 0-3.04-1.86c.78-.88 5.27-3.6 6.35-3.6 1 0 14.5 5.46 18.8 9.17 1.1.98 1.9 7.03 1.3 9-7.2-1.87-11.9-4.6-15.7-7.24m-6.4 13.6s-2.9 3-3 8.3c-.1 6.4 4.5 6.7 7.6 6.6 3.6-.1 6.5-2.1 6.5-8.9 0 0-5.9-2.5-10.9-5.9z"/>
    <path d="M280.1 351.15s-2.34 2.44-2.73 6.45c-.2 3.12 1.85 4.88 4.5 4.68 3.7-.2 5.17-5.27 3.4-8.1l-5.17-3.03"/>
    <path d="M276.97 363.66c1.86 1.07 3.9.97 5.18.88 3.6-.1 6.54-2.15 6.45-8.9 0 0 4.5 2.25 11.8 4 0 0 1.2 1.48 1.38 4.4.3 2.45-1.37 5.1-3.32 4.9 0 0-10.25-1.86-16.5-2.94-3.62-.68-5-2.34-5-2.34zm77.75-27.55l3.23-2.3c1.36-1 2.83-2 4.4-3.1 0 0-2.16-2.7-3.23-3-1.66-.6-3.62.3-4 3.8-.3 2.8-.4 4.7-.4 4.7z"/>
    <path d="M354.72 336s.1-1.85.4-4.58c.38-3.52 2.34-4.4 4-3.9 1.07.38 3.22 3.02 3.22 3.02v.1a31.88 31.88 0 0 1 3.03-1.86c-.78-.88-5.28-3.6-6.25-3.6-1.08 0-14.55 5.46-18.85 9.17-.98.98-1.76 7.03-1.27 9 7.32-1.87 11.9-4.6 15.72-7.24m6.44 13.6s2.93 3 3.03 8.3c.2 6.4-4.5 6.7-7.6 6.6-3.6-.1-6.5-2.1-6.5-8.9 0 0 5.9-2.5 10.9-5.9z"/>
    <path d="M358.73 351.15s2.34 2.44 2.73 6.45c.3 3.12-1.86 4.88-4.5 4.68-3.7-.2-5.07-5.27-3.4-8.1l5.17-3.03"/>
    <path d="M361.85 363.66c-1.86 1.07-3.9.97-5.18.88-3.6-.1-6.45-2.15-6.45-8.9 0 0-4.5 2.25-11.72 4 0 0-1.27 1.48-1.46 4.4-.2 2.45 1.46 5.1 3.32 4.9 0 0 10.35-1.86 16.5-2.94 3.62-.68 5-2.34 5-2.34z"/>
  </g>
  <path d="M299.64 361.4s3.22 2.36-.7 5.3m-8.97-6.85l9.86 4.3m-8.2-2.06l7.22 3.1m-4.68-5l5.47 2.4m39.65-1.3s-3.4 2.3.5 5.3m9-6.9l-9.9 4.3m8.3-2.1l-7.3 3.1m4.6-5l-5.4 2.4" stroke-width=".68" fill="none" stroke="#fff"/>
  <path d="M261.02 331.36c.14.23.23.47.27.7a2.5 2.5 0 0 1-.1.84 2.35 2.35 0 0 1-1.2 1.64c-.7.38-1.4.48-2.2.32a3.68 3.68 0 0 1-1.1-.38 4.35 4.35 0 0 1-.9-.6c-.1.13-.2.25-.4.38l-.5-.1.4-2.82.5.1c0 .35.1.7.1 1l.3.88c.2.27.4.5.6.68.2.2.5.32.9.38.3.06.5.07.7.03.2 0 .3 0 .5-.2.1-.1.2-.2.3-.4.1-.1.1-.3.2-.5a1.7 1.7 0 0 0-.1-1c-.2-.3-.4-.6-.8-.8a48.25 48.25 0 0 0-.8-.5l-.8-.5c-.4-.3-.7-.6-.9-1-.2-.4-.3-.8-.2-1.4 0-.3.1-.6.3-.8.2-.2.4-.4.7-.6.2-.1.5-.2.9-.3a2.9 2.9 0 0 1 1 0c.4.1.7.2 1 .4l.7.6.3-.3.5.1-.5 2.8-.5-.1-.1-.9a3.56 3.56 0 0 0-.3-.8c-.1-.2-.3-.4-.5-.6s-.5-.3-.9-.4a1.38 1.38 0 0 0-1 .2c-.3.2-.5.5-.6.8-.1.4 0 .7.1.9s.3.5.6.8c.3.2.5.4.8.5l.7.5c.2.2.4.3.6.5.2.2.3.4.5.6m11.9 1.7c-.1 0-.3-.1-.5-.1-.2-.1-.4-.1-.6-.1-.2 0-.4.2-.5.4a5.67 5.67 0 0 0-.6.9L268 338c-.2.4-.5.7-.82.9-.3.2-.7.4-1.1.4-.4.1-.7 0-1.1 0a4.16 4.16 0 0 1-.9-.4c-.5-.2-.8-.5-1.1-.8-.3-.3-.5-.6-.6-.9a2.23 2.23 0 0 1-.2-1c0-.3.1-.6.3-.9l2.4-4.3a.9.9 0 0 0 .1-.3c0-.1-.1-.2-.15-.3a1.5 1.5 0 0 0-.25-.3l-.3-.2.2-.3 3.1 1.7-.2.4-.4-.1a1.93 1.93 0 0 0-.4-.1c-.16 0-.3 0-.4.1a.88.88 0 0 0-.3.3l-2.2 4.1-.3.7a1.8 1.8 0 0 0-.1.7c0 .3.1.5.3.8.2.26.5.5.9.7.4.2.7.3 1.07.38.37 0 .66 0 .9-.14.26-.1.5-.2.6-.4.2-.13.36-.32.47-.53l1.65-3c.2-.4.3-.7.4-1 .1-.3.1-.5 0-.6-.1-.2-.2-.3-.4-.5a3.57 3.57 0 0 0-.4-.4l.2-.3 3.04 1.7a19.2 19.2 0 0 1-.2.4m4.3 7.5c.2.3.2.6.2.9 0 .3 0 .6-.2 1a1.93 1.93 0 0 1-.7.8 2.17 2.17 0 0 1-.9.3c-.4 0-.7 0-1-.1a4.03 4.03 0 0 1-1-.4l-3.4-2 .2-.4.4.1c.2.1.3.1.4.1a.54.54 0 0 0 .4 0 .7.7 0 0 0 .2-.3l3-5.2a.94.94 0 0 0 .1-.3.56.56 0 0 0-.1-.4 1.68 1.68 0 0 0-.3-.3c-.1-.1-.2-.2-.3-.2l.2-.3 3.4 2c.3.1.5.3.7.5l.6.6s.2.5.2.8 0 .6-.2.8a1.8 1.8 0 0 1-.5.6c-.2.2-.4.3-.7.3a2.48 2.48 0 0 1-.7 0 3.33 3.33 0 0 1-.8-.1v.1a5 5 0 0 1 .6.5c.3.2.4.5.5.7zm-.6-1.8l.6-.3c.2-.2.3-.3.5-.6.2-.4.3-.8.2-1.1-.1-.4-.4-.7-.8-1l-.4-.2-.5-.2-1.6 2.8.7.4c.3.2.5.3.8.3.2.1.4.1.6 0zm-.6 2.7c.2-.4.3-.8.2-1.3-.2-.4-.5-.8-1-1.1l-.6-.3-.4-.2-1.5 2.5a.62.62 0 0 0 0 .7c.2.2.4.4.7.6.5.3 1 .4 1.5.3.5-.1.9-.5 1.2-1.1zm18.9 4.3a3.46 3.46 0 0 0-.5-.1 1.43 1.43 0 0 0-.5 0c-.2 0-.3.2-.5.4s-.3.6-.5.9l-1.4 3.4c-.2.5-.4.8-.7 1a2.57 2.57 0 0 1-1 .5c-.4.1-.7.1-1.1 0a4.3 4.3 0 0 1-2.1-1c-.3-.2-.5-.5-.7-.8a2.23 2.23 0 0 1-.3-.9c0-.3.1-.6.2-.9l2-4.6a.9.9 0 0 0 .1-.3.7.7 0 0 0-.2-.3 1.6 1.6 0 0 0-.3-.3l-.3-.2.2-.4 3.3 1.4-.2.3a3.45 3.45 0 0 0-.4-.1 2.3 2.3 0 0 0-.4-.1c-.1 0-.3 0-.3.1a.94.94 0 0 0-.2.3l-1.8 4.1c-.1.2-.2.4-.2.7-.1.3-.1.5 0 .8 0 .3.1.5.3.8s.5.5.9.6c.4.2.8.3 1.1.3.3 0 .6-.1.9-.2.2-.1.4-.3.6-.5.1-.2.25-.4.3-.6l1.3-3.14c.2-.4.3-.7.37-1 .07-.25.06-.44 0-.6-.1-.1-.27-.3-.47-.4a3.72 3.72 0 0 0-.5-.3l.1-.4 3.2 1.4-.2.4m9.2 10.8l-3.6-1 .1-.4.5.1h.4a.8.8 0 0 0 .3-.2.7.7 0 0 0 .13-.3l1.7-5.9a1.38 1.38 0 0 0-.1 0c-1.6 2.07-3.2 4.07-4.8 6.1l-.3-.1-.6-7.8a.7.7 0 0 0-.1-.03c-.4 1.6-.9 3.2-1.4 4.8-.1.45-.2.8-.2 1.1 0 .24.08.44.1.6.1.1.28.2.5.4l.4.2-.1.4c-1.1-.3-2.2-.7-3.3-1l.1-.4c.2 0 .4.05.6.06.2 0 .4 0 .5-.1.2-.1.3-.2.4-.4.1-.2.3-.6.4-1.1l1.2-4.1a1.73 1.73 0 0 0 .1-.6.95.95 0 0 0-.13-.5 1.23 1.23 0 0 0-.33-.4 2.04 2.04 0 0 0-.5-.2l.1-.4 2.76.8.6 6.8c1.1-1.5 2.3-3 3.5-4.5l.4-.5a2.83 2.83 0 0 0 .2-.4l2.7.77-.1.4a3.86 3.86 0 0 0-.4 0 2.4 2.4 0 0 0-.4 0 .44.44 0 0 0-.3.17.94.94 0 0 0-.2.4l-1.7 5.8a.8.8 0 0 0 0 .3c0 .1.1.2.2.3 0 .1.1.1.3.2.1.1.3.2.4.2l-.2.4m8.7-2.6c.2.2.4.4.56.7.1.3.2.6.1 1 0 .4-.2.7-.4 1s-.5.4-.8.6l-.9.3H309l-4-.5.1-.4h.4a1.73 1.73 0 0 0 .4-.1.52.52 0 0 0 .3-.2.72.72 0 0 0 .1-.4l.7-5.94a.97.97 0 0 0 0-.4.57.57 0 0 0-.3-.3 1.66 1.66 0 0 0-.4-.13l-.4-.1v-.4l3.9.5c.3.1.6.1.9.2s.5.2.7.4c.2.2.4.4.5.7.1.2.2.5.1.9 0 .3-.1.5-.2.7a1.74 1.74 0 0 1-.5.5c-.2.1-.5.2-.7.3a3.4 3.4 0 0 1-.8.2v.1l.8.3c.3.1.5.3.7.5zm-1.2-1.5l.4-.5.1-.7c.1-.5 0-.9-.2-1.2-.2-.3-.6-.5-1.14-.6a27.26 27.26 0 0 0-1-.1c-.1 1.1-.3 2.1-.4 3.2l.7.1h.9l.6-.3zm.5 2.7c0-.5-.1-.9-.4-1.3-.3-.4-.7-.6-1.4-.7l-.6-.1h-.4l-.4 2.9a.63.63 0 0 0 .2.6c.2.2.5.3.9.3.6.1 1.1 0 1.4-.3.4-.3.6-.8.7-1.4zm11.4 2.6H321c-.5-.8-.96-1.5-1.37-2.1l-1.32-1.8h-.8v2.7c0 .1.1.2.1.3l.3.3.4.1.5.04v.4h-3.6v-.4h.4l.4-.1a.5.5 0 0 0 .3-.2.74.74 0 0 0 .1-.4v-7c0-.1-.1-.2-.3-.2a2.23 2.23 0 0 0-.4-.1c-.1-.1-.3-.1-.4-.1v-.4h3.9c.4 0 .7 0 1 .1a2.8 2.8 0 0 1 .9.3c.3.15.5.35.6.6.2.3.2.6.2.9 0 .35 0 .6-.1.9s-.2.5-.4.64a2.53 2.53 0 0 1-.6.4l-.8.3 1 1.4 1 1.3a2.53 2.53 0 0 0 .9.8c.1 0 .2.1.4.1h.3v.4zm-3.1-6.3c0-.5-.2-.9-.5-1.2-.3-.3-.7-.4-1.2-.4h-1v3.6h.8c.5 0 1-.2 1.4-.6.3-.3.5-.8.5-1.4zm12.9 5.6l-3.5.3v-.4c.3 0 .5-.1.7-.2.2-.1.3-.2.3-.3v-.3a.46.46 0 0 0 0-.1l-.8-1.8-3 .2a9.56 9.56 0 0 0-.2.7c-.1.2-.1.4-.1.6a3.4 3.4 0 0 0-.1.46v.2c0 .2.14.3.4.4.3.06.54.1.9.1v.4l-3.2.2v-.5c.1 0 .2-.1.4-.1s.3-.1.4-.2l.3-.4c.1-.1.2-.3.2-.5.4-1.1.8-2.3 1.2-3.6.4-1.4.8-2.6 1.1-3.6l.5-.1 3.3 7 .3.3c.1.1.2.2.35.3.1.1.2.1.3.1.1.1.2.1.3.1l.05.4zm-3.6-3.1c-.5-1.1-1.1-2.1-1.6-3.2l-1 3.24 2.6-.2zm15.7-6.6a27.85 27.85 0 0 0-.5.1c-.2-.3-.4-.6-.8-.8-.4-.3-.7-.4-.9-.4l-.4.1-.5.1c-.4.1-.9.2-1.4.4l.9 3.2 1-.27c.3-.03.5-.1.68-.23.2-.1.3-.2.4-.4.05-.1.1-.2.1-.4v-.6l.4-.1c.3 1 .56 2.1.8 3.16l-.4.1a2.87 2.87 0 0 0-.3-.6c-.1-.2-.2-.3-.3-.4a.87.87 0 0 0-.5-.2 2.3 2.3 0 0 0-.62.1l-.9.25.8 2.7c.1.15.1.25.2.3.1.1.2.2.4.2h.4l.5-.1c0 .1.1.3.1.4l-3.5 1c-.1-.2-.1-.3-.1-.4l.4-.2.3-.2c.1-.1.2-.2.2-.3a.8.8 0 0 0 0-.4l-1.6-5.9a1.1 1.1 0 0 0-.16-.3c-.1-.1-.2-.12-.3-.2a2.43 2.43 0 0 0-.5 0 2.36 2.36 0 0 0-.4.1l-.1-.4 6.5-1.9.5 2m9.5-.7l.9 2.3-6 2.9-.2-.4.4-.2a1.45 1.45 0 0 0 .3-.3.5.5 0 0 0 .2-.3.78.78 0 0 0-.1-.3l-2.6-5.4a.94.94 0 0 0-.2-.3.5.5 0 0 0-.4-.1l-.4.07a1.93 1.93 0 0 0-.4.1l-.2-.4 3.2-1.57.2.36a2.8 2.8 0 0 0-.4.2l-.3.3a.4.4 0 0 0-.2.3.8.8 0 0 0 .1.35l2.5 5.1c.1.2.2.4.3.5.1.1.2.2.3.2h.5s.4-.1.7-.3l.4-.2.4-.2.3-.3a.6.6 0 0 0 .2-.2c.1-.2.1-.5.2-1v-1l.4-.1m4.4-8.3a4.18 4.18 0 0 1 1.5.7c.46.4.86.84 1.2 1.4a4.94 4.94 0 0 1 .6 1.74c.1.5.08 1.1-.1 1.6-.1.5-.3 1-.63 1.4-.3.43-.7.8-1.2 1.1-.5.3-1 .5-1.6.5-.5.06-1 .03-1.5-.1a4.05 4.05 0 0 1-1.4-.77 5.03 5.03 0 0 1-1.1-1.3 4.97 4.97 0 0 1-.6-1.7 4.35 4.35 0 0 1 .1-1.7c.1-.6.4-1 .7-1.5.3-.4.7-.8 1.2-1.1a4 4 0 0 1 1.6-.5 3.85 3.85 0 0 1 1.5.1zm2.3 5.53a3.93 3.93 0 0 0-.2-1.3c-.15-.5-.4-.9-.65-1.4a7.2 7.2 0 0 0-1-1.3c-.3-.4-.7-.6-1-.8a2.4 2.4 0 0 0-1.1-.3c-.4 0-.8.1-1.1.4-.5.3-.8.6-.9.9-.2.4-.3.8-.3 1.2 0 .4.1.8.2 1.2.1.5.3.9.6 1.4.3.5.6.9.9 1.2.3.3.7.6 1 .8.3.2.7.3 1.1.3.4 0 .8-.1 1.2-.3.3-.2.6-.5.8-.8.2-.3.3-.7.3-1.1zm10.5-5.7l-1.84 1.3c-.8-.4-1.6-.6-2.3-.9-.6-.24-1.3-.45-2.1-.7l-.7.5 1.6 2 .3.3c.1.1.2.1.4.1l.34-.2c.2 0 .3-.1.4-.2l.3.4-2.94 2.1-.3-.3.3-.3c.2-.2.28-.2.3-.3a.5.5 0 0 0 .1-.37.74.74 0 0 0-.2-.33l-3.5-4.9a1.05 1.05 0 0 0-.3-.24c-.1-.1-.2-.1-.4-.08a3.07 3.07 0 0 0-.8.3l-.22-.3 3.2-2.27a4.56 4.56 0 0 1 .9-.5 2.72 2.72 0 0 1 .9-.2c.3 0 .53.1.8.2.3.16.5.37.7.66.2.3.3.6.4.8.1.3.1.5 0 .8a2.52 2.52 0 0 1-.3.75 4.86 4.86 0 0 1-.5.8l1.7.5 1.6.5a2.5 2.5 0 0 0 1.2.2l.4-.1.4-.2.2.4zM365 336c-.3-.4-.6-.7-1.03-.7-.4-.1-.8 0-1.3.3l-.8.6 2.1 2.9.7-.44c.5-.4.8-.8.8-1.3.1-.5 0-1-.3-1.5zm13.2-2l.7 2.4-6.6 2.4-.15-.4.4-.2c.2-.1.3-.2.4-.23a.6.6 0 0 0 .2-.3.74.74 0 0 0-.03-.4l-2.1-5.65a.97.97 0 0 0-.2-.3c-.1-.1-.2-.1-.4-.16h-.4l-.4.1-.1-.4 6.2-2.3.7 1.9-.42.2c-.2-.3-.44-.5-.8-.7-.4-.2-.7-.3-.9-.3a4.27 4.27 0 0 0-.4.1l-.6.2-1.3.5 1.17 3.1.9-.3c.3-.1.5-.2.6-.3a.88.88 0 0 0 .2-.4c.1-.15.1-.3.1-.5s0-.4-.04-.57l.5-.1 1.1 3.1-.4.2a3.17 3.17 0 0 0-.3-.5c-.17-.2-.3-.3-.4-.4a.87.87 0 0 0-.5-.1c-.1 0-.3 0-.6.1l-.9.4.9 2.4.23.5a.54.54 0 0 0 .3.2h.4l.7-.3.5-.2c.2-.1.4-.2.5-.2l.4-.3c.13-.1.2-.2.25-.3.1-.3.2-.6.2-1 .1-.5.1-.8.1-.9l.4-.2m7.1-5.8c.5.3.8.7 1.1 1.2s.5 1.1.6 1.8c.1.7.1 1.3 0 1.9a4.14 4.14 0 0 1-.7 1.5c-.3.4-.7.8-1.1 1-.4.3-.9.5-1.5.5-.6.1-1.1.1-1.7-.1s-1-.4-1.4-.7a4.1 4.1 0 0 1-1-1.3 4.87 4.87 0 0 1-.5-1.7 4.94 4.94 0 0 1 .1-1.9c.1-.6.4-1.1.7-1.5a3.98 3.98 0 0 1 2.7-1.6 4.06 4.06 0 0 1 1.6.1c.5.1 1 .3 1.4.7zm-.1 6c.2-.4.3-.8.4-1.3 0-.5 0-1-.1-1.5a6.98 6.98 0 0 0-.3-1.6 3.88 3.88 0 0 0-.7-1.2 2.42 2.42 0 0 0-.9-.7 2.25 2.25 0 0 0-1.2-.1c-.4 0-.8.2-1.1.5-.3.3-.5.6-.7 1-.1.3-.2.8-.3 1.2v1.5c.1.6.2 1.1.4 1.5.2.4.4.8.7 1.1.3.3.6.5.9.7.4.1.8.2 1.2.1a2.3 2.3 0 0 0 1.1-.5 2.38 2.38 0 0 0 .7-.9z" stroke-width=".67" stroke="#000"/>
  <path d="M366.05 205.1v53.05c0 10.55-1.46 52.56-46.6 68.87-45.2-16.3-46.67-58.3-46.67-68.87V205.1h93.27" fill="none" stroke="#000" stroke-width=".98"/>
</svg>
