<svg xmlns="http://www.w3.org/2000/svg" height="480" width="640" viewBox="0 0 640 480">
  <path fill="#fff" d="M150.2 0h339.6v480H150.2z"/>
  <path fill="#bf0a30" d="M-19.6 0h169.8v480H-19.6zm509.4 0h169.8v480H489.8zM201 232l-13.2 4.5 61.3 53.8c5 14-1 18-5 25.2L311 307l-1.8 67 13.7-.3-3-66.5 66.7 8c-4-8.8-8-13.4-4-27.4l61.4-51-10.8-4c-9-6.7 3.7-32.5 5.6-48.8 0 0-35.8 12.3-38 6l-9.3-17.7-32.7 35.8c-3.6 1-5 0-6-3l15-75-23.7 13.7c-2 .8-4 0-5.6-2.2l-23-46-23.6 48c-2 1.7-3.8 2-5 .7l-23-13 14 74c-1 3-4 3.8-7 2l-31-35c-4 6.5-6.8 17.2-12.2 19.5-5.4 2.3-23.4-4.5-35.5-7 4.5 14.8 17 39.5 9 47.7z"/>
</svg>
