<svg xmlns="http://www.w3.org/2000/svg" xmlns:xlink="http://www.w3.org/1999/xlink" height="480" width="640" viewBox="0 0 640 480">
  <defs>
    <path d="M0-360l69.42 215.84 212.04-80.3L156-35.6 350.96 80.1 125.1 99.77l31.1 224.6L0 160l-156.2 164.35 31.1-224.6-225.87-19.64L-156-35.6l-125.46-188.86 212.04 80.3z" id="a"/>
    <path d="M0-210L54.86-75.5l144.86 10.6L88.77 28.85l34.67 141.05L0 93.32l-123.44 76.56 34.67-141.06-110.95-93.73 144.86-10.6z" id="b"/>
  </defs>
  <path fill="green" d="M0 0h640v480H0z"/>
  <circle cx="320" cy="240" r="66.67" fill="#ffe000"/>
  <circle cx="340.79" cy="240" r="54.86" fill="green"/>
  <circle cx="109.84" cy="173.33" r="69.84" fill="#ffe000"/>
  <path d="M105.02 226h17.44s.8-1.6-.17-2.4c-1-.8-4.8-.98-3.7-3.8 2-5.82 2.3-4.03 3.6-17.83 1.3-13.8 1.9-35.46 1.9-35.46h-2.6s.5 6.8-1 15.5c-1.5 8.8-1.9 9.6-3.5 16.3-1.6 6.8-1.9 7.3-3.3 11.3-1.5 4-1.6 4.1-3.9 7.8s-1.5 2.3-2.7 4.5c-.7 1.1-1.4.8-1.9 1.6-.4.8-.5 2.7-.5 2.7z" fill="#802000" stroke="#7b3100" stroke-width="1.48"/>
  <path d="M118.33 122.45c.14 2.7-.13 6.3-1.25 9.2-1.14 3.27-2.38 6.5-2.3 9.87-1.8.62-3.7-3.9-5.43-1.25 1.3 3.7 4.33 6.6 6.4 9.92.35 1 3.33 3.7 1.6 4.3-4.35-1.5-5.4-7-8.1-10.4-3.13-5.7-8.98-9.6-15.5-9.9-2.44 0-10.4-.6-8.32 3.6 3.05 2 6.8 3.4 9.8 5.7 2.25.2 6.32 3.9 6.08 5.3-3.9-1.6-5.7-3.6-10-5.2-5.7-2.3-13.7-.9-16.9 4.8-.6 1.5-1.4 5.8.4 6.2 2.2-3.4 5.3-7.3 10-6.2 3.7.3-4 6.7-1.1 5.4 1-.4 3.1-1.8 4.6-2 1.5-.2 2.4.9 3.5 1.1 2.3.3 2.9 1.2 2.7 1.8-.2.6-.9.1-3.2.8-1.1.4-1.7 1.4-3.1 1.9-1.3.5-4.1.5-5.1.1-3.6-1.6-9.6-1.3-10.8 3.22 0 2-1.8-.2-2.6.64-.6 2.2-.8 4.5-4 4.3-1.9 2.1-4 4.2-6.5 5.7 1.5 3.4 7.3-3.4 7.1-.57-2.54 3.5 1.3 4.22 3 1.54 2.88-3 6.4-6.7 10.7-3.6 2 1.9 3.2-1 4.7-.9.95 2.37 2.1.1 3.17-.56 1.7-.2 1.26 2.14 3.3.7 4.1-2.7 9.1-.45 13.1-3.08 4.23-1.96.6 1.53-.6 2.9-1.86 3.6-.25 8.35-4.3 10.6-1.62 4.3 1.93 10-1.7 13.2-.5 2 4.66 1.75 6.1 2.6 2.56.1-.1-5.85 2.4-6.65 3.4 2.1 3.26-3.77 2.56-5.57.3-4.1.54-8.6 2.6-12.3 2.14-4.54 4.15 1.86 1.7 3.66-1.4 4.12-3.4 9.4-.25 13.3.96.2 1.7 2.4 2.86 3 1.1.7 2.7-.13 3-2.12 1.5-6 .74-12.4 2.9-18.27 1.5-1.8 3.6-.3 4.5 1.35 3 3.4 5.1 7.8 8.75 10.7 3.3 1.5 6.2 3.8 7.7 7.2 0 2.6 7.5 3 5.27.1-2.18-2.86-.77-5.7 1.4-7.6 1.1.3.8-1.8-.1-1-1.5-.33-1.6-3 .44-1.73 3.4 1.1-.24-2.5-1.5-2.6-2.9-1.8-6.2-3.88-7.6-7 3.8.04 7.7 2.1 11.5.8 3.1-1.57 6.25.14 7.3 2.86 2.4-.4 1.4-2.8 0-3.6 1.77-.74 2.97-2.2.86-3.54-1.1-1.4 1.5-3.9-1.7-3.8.18-2.4-.8-4.7-3.5-5.5-2.7-2.25-10.5 3.36-10.3-1.75-.8-2.8 3.2-.4 4.3-1.8 1.2-2.9-5.5-2.6-3.3-4.9 1.47-.9 8.18-2.2 2.9-3.2-2.6.7-4.9.2-6.92-1.1-1.88 3.15-7.26-1.7-6.3 3.9-.7 2.1-5.54 7.6-6.84 3.4 1.1-3.3 6.8-4.4 5.04-8.83-.26-2.8-2.56.5-3.64.3-.6-1.7 1.6-3.77 3.2-4.2 3 2.37 3.1-2.94 6-2.5 2.1-.48-.7-1.4-1.28-1.78.52-1.56 3.8-2.36.6-3.7-2.8-2.1-4.9 2.1-7.2 2.3-2.2-2.5 2-3.7 3.2-5.05.03-1-2.5-.3-1.7-1.15.62-1.15 5.12-1.24 3-3.02-3.2-1.1-7.27-.8-10.3.6-1.93.6-2.5 4.94-4.15 4.76-.8-1.96.27-5.77-2.4-6.3zm15 42.36c2.42-.4.05 3.7-1.1 3.7.1-1.4-3.5-1.3-1.27-2.6a7.28 7.28 0 0 1 2.37-1z" fill="green"/>
  <g transform="matrix(.06 0 0 .06 0 80)" fill="#ffe000">
    <use height="100%" width="100%" xlink:href="#a" x="7560" y="4200"/>
    <use height="100%" width="100%" xlink:href="#a" x="6300" y="2205"/>
    <use height="100%" width="100%" xlink:href="#a" x="7560" y="840"/>
    <use height="100%" width="100%" xlink:href="#a" x="8680" y="1869"/>
    <use height="100%" width="100%" xlink:href="#b" x="8064" y="2730"/>
  </g>
</svg>
