<svg xmlns="http://www.w3.org/2000/svg" xmlns:xlink="http://www.w3.org/1999/xlink" height="480" width="640" viewBox="0 0 640 480">
  <path fill="#fff" d="M0 0h640v480H0z"/>
  <path id="a" d="M307.84 398.6a.8.8 0 0 1-.28-.2l-.1-.1c-.26-.23-.7-.65-1.26-1.3-1.07-1.2-2.5-3-3.76-4.55-2.5-3.1-4.55-5.78-4.94-6.3l-.63-.8-6.2-1.93-4.55-2.12 2.43-2.72 8.32 3.56 6.22 1.28 11.4 8.45c-.1.03-1.7 1.4-3.3 2.9-.8.65-1.7 1.5-2.3 2.2-.3.34-.6.66-.8.93-.1.16-.2.3-.2.37l.7-.44.8.6-1.6.15h-.1zm-42.67-12.82c-5.42 0-10.78-1.5-15.92-4.45s.67-1.3 2.3-2.48c1.55-1.14 4.35-2.5 8.88-2.52h.1c5.35 0 11.9 1.82 19.5 5.4-.26.18-6.2 4.06-14.86 4.06zm-23.5-5.2c-1 0-1.9-.38-2.53-1.07-.52-.5-.9-1.3-1.14-2.3-.4-1.6-.3-3.2-.28-3.3a3.48 3.48 0 0 1 1.25-.3h.1c2 0 3.58 1.8 4.26 3.5.38 1 .46 1.8.22 2.5-.24.7-1 1.1-1.88 1.1zm41.35-4.8c-13.9-1.98-19.78-7-22.27-10.86-2.66-4.12-2.1-7.93-2.1-7.97 0 0 .85-.24 2.13-.25 3.7 0 13.15 1.86 22.24 19.08zm-28.47-2.75c-5.93 0-10.45-1.02-13.42-3.04-1.7-1.2-2.55-2.5-2.95-3.3a5.4 5.4 0 0 1-.48-1.7c.16-.1 2.6-1.2 6.2-1.3h.95c4.6 0 11.56 1.5 18.92 8.6-3.36.4-6.47.7-9.23.7zm-28.73-1.1c-6.25 0-14.85-1.9-20.2-7.27.06-.03 5.88-1.5 12.42-1.66l1.18-.02c5.87 0 10.36 1.14 13.35 3.38 1.04.8 1.6 1.52 1.74 2.23.2.6-.2 1.2-.8 1.7-1.3 1-3.7 1.5-7.1 1.6h-.4zm-20.27-10.4a2.56 2.56 0 0 1-1.98-.94c-.4-.5-.7-1.2-.9-2.1-.32-1.5-.22-3-.22-3a2.43 2.43 0 0 1 .97-.2c.93 0 1.64.5 2.08.9a5.57 5.57 0 0 1 1.35 2.1c.3.8.34 1.5.14 2.1-.2.4-.7.9-1.5.9zm46.83-1.06c-1 0-1.9-.38-2.54-1.06-.52-.5-.9-1.3-1.14-2.3-.4-1.6-.3-3.2-.28-3.3a3.48 3.48 0 0 1 1.25-.3h.1c2 0 3.58 1.8 4.26 3.5.4 1 .46 1.8.22 2.5-.24.7-1 1.1-1.87 1.1zm-22.8-.94c-12.6-.44-19.13-4.02-22.4-6.95-1.84-1.64-2.86-3.28-3.4-4.36-.5-1.02-.68-1.8-.72-1.95h.02s1.2-.43 3.1-.47h.3c4.25 0 12.9 1.78 23.08 13.72zm13.66-1.27c-10.13-1.55-15.87-5.9-18.9-9.27-3.17-3.6-4.13-6.9-4.17-7 .02 0 1.26-.4 3.12-.4a14.24 14.24 0 0 1 .8 0c5.1.1 14.3 2.4 19.1 16.6zm-52-4.87c-3.32 0-6.54-.4-9.57-1.2-5.3-1.4-7.58-3.4-8.55-4.8-.56-.9-.76-1.6-.83-2a3.4 3.4 0 0 1-.1-.9s3.5-1 8.3-1.1a35.03 35.03 0 0 1 7.4.6c8.4 1.7 12.8 8 12.8 8.1-.1 0-4.1 1.1-9.7 1.1zm23.5-8.6c-1 0-1.9-.4-2.53-1.1-.5-.6-.8-1.3-1.1-2.4-.4-1.6-.3-3.2-.3-3.4a3.48 3.48 0 0 1 1.3-.3h.1c2 0 3.6 1.7 4.3 3.5.4.9.5 1.7.2 2.4-.2.7-.9 1.1-1.8 1.1zm-17.67-2.5c-.07 0-4.78-1.3-9.57-4.2-4.44-2.8-9.86-7.6-10.52-15.1 0 0 .42-.1 1.03-.2h.3c1.3 0 4.1.4 7.3 2.8 4.2 3.2 8.1 8.7 11.5 16.5zm11.55-.4c-.03 0-3.4-1.4-7.58-4.9-3.9-3.3-9.4-9.2-13.37-18.7 0 0 .9-.5 2.3-.6a3.3 3.3 0 0 1 .25 0h.37c1.9 0 4.8.8 8.1 4.3 3.7 4 7.1 10.7 9.9 19.7zm-29.92-.9c-3.85 0-5.17-2.1-5.56-3-.64-1.5-.45-3-.44-3a8.5 8.5 0 0 1 1.92-.3h.13c3.04 0 5.44 1.5 6.47 3 .2.3.83 1.3.3 2.2-.4.6-1.35 1-2.82 1zm-8.54-10.8c-2.15 0-5.45-.2-8.9-.8s-5.4-3.6-6.42-5.9c-1.12-2.6-1.44-5-1.44-5 10.63.3 15.65 3.4 18 5.9 2.4 2.6 2.55 5.3 2.56 5.5-.03 0-1.52.1-3.8.1zm11.06-11.1a42.73 42.73 0 0 1-2.42-3.4c-1.26-2-2.42-4-2.42-5.7 0-1.6-.38-5-.6-6.9-.3-2.4-.6-4.5-.6-4.6.27.1 6.65 2.5 6.65 8.4 0 6-.6 12-.6 12.1zm-8.26-.6h-.2c-1.88-.3-5.2-1.8-8.86-3.9-4.06-2.3-7.37-4.8-9.3-7-1.75-2-2.8-5.2-3.1-9.4-.2-3 .04-5.5.07-5.7.33-.1.68-.2 1.05-.2 1.4 0 2.92.6 4.95 2 1.6 1.1 3.34 2.6 5.2 4.4 3.2 3.1 5.73 6.3 5.76 6.3h.02c.2.4 2.03 3.6 3.45 6.8.9 2 1.4 3.5 1.62 4.6.12.6.15 1 0 1.4a.72.72 0 0 1-.3.4.87.87 0 0 1-.37.1z" fill="#435125"/>
  <use height="100%" width="100%" xlink:href="#a" transform="matrix(-1 0 0 1 593.74 0)"/>
  <path d="M519.06 76.38l-1.88.75-.74.3-2.28-.13-2.14 1.03-3.8 2.6-.16.1-1.4.38-1.33-.5-.74.4-.3 1.6-.7 1.1-.9.6-3.1.3-2.6 1.3-3.3-.9-1.6.6-3.3 3-1.7.8h-.6l-2.3-.1-1 .3-1.4 1.4-2.7.2-.9.6-1.3 2.7-1.4 1.4-.8.2-.9-.3-.7.1-.3 1.7-.7.7-1.8.6-1.4 1.2-1.3.7-1.67-.1h-.4l-1.64.9-3.1.3-1.3 1.3-.3.3-.6.4-1 .6-.26.1-1.2-.2-1.4.6-.54-.8-1 .6-1.24.1-1.6-.7-1.2-.5-.9.17-.3 1.5v.15l-.9 1.2-1.78 1.1-.3.3-2 2.6-3.8 3.98-3.2 1.68-3.3 1-2.3 1.9-6.1 3-9.6 4.7-1.97.7-2.8.4-5 1.87-4.13 1-.2.1-.85.3-6.3 1.9-2.9-.3-1.7.65-4.5-.5-3.1.04-2 .4-3.7 1.8-6.3 3-2.1 1.9-3.2 1.7-3.75 1.2v-1.6l-1.3.4-1 .3-3.1.5h-1.7l-1.06-.3-.14.1-6.3 2-7 .66-3.5 1.12-2.6-.1-1.6.5-3.2.4-1.1-.3-.3-.1-9.4.4-4.3-.5-2.1.48-3.5-1.13-5.1-.5-1.2-.3-2.65-.7-1.2.7-.9.1-2.1-.8h-.8l-1.73.66-1-.2-.9-.7-2.2-.3-1.34-1.15-7.5 1-2.1-.6-6.8-2-1.1.04-1.3 1-2.06.76-1.74.48-2.4.1-2.8-.72-2.9-1.4-1.1-.2-2.4.3h-.7l-4.4-2.3-5.6-3.5-3.83-1.8-1.4-.2-.2.65.74 2.3.3 2.2v3.3l.35 1.1 1.4 1.5.6 1.54.4 4.2v4.3l-.66 6.8-.2 1-.8 3.57-.7 3.2-2.86 8.6-.8 1-1.9 1.3-4.3 3-3.2 1.88-1 .4-2.6.2-1.6-.1-2-1.1-2-.5-2.6-1.9-2.9-.6-3.15-1.8-.8-1-1.7-.2-2.4-.7-.8-.3-.6-.2-3.1-.1-2.86-1.3-1.5-.36-2.06-.1-2.1 1-1.1.5-1.4-.54-1 .07-1.1 1.7-.2.3-.8.4-.9-.07h-.8l-.8.4-1.1.5-.9.4-.5.2-.3.1-.5.1-.64.1-1.15-.67-.6-.3-1-.2-.6.4-.1 1.87-.5 1.1-1.6 1.4-1.6 1.4-1.1 1.7-3 6.7-1.8 2.7-.6.66-1.9 2.1-1.7 1.3-4 3-3.74 1.4-3.2.65h-1l-2.9-.4-2.7-.8-2.9-1.8-3.2-2.5-4.63-4.6-.66-.4-.1-.1-1.48-.9h-1.08l-.4.7-.2 1-.2.9-.5 5.1.1.3.3 2.1 3.5 4.9 1.1 2.6.2.3.8 1.22.6.9.1.1 1.2 3.6-.8 2 .4 1.33-1 .8-.2 1.16 3.2 4 .7 1.7-.8 2.4-1.2 1.34-.3.4.2 1 1.5 1.3 2.5 2.2 1.3 3.3 1 .9 1.14-.2.6.5 1-.1 1 1 .6.3 1 .5.7 1 .17 3.1 1.4 3.9v2.4l.9 1.55.26 1.25-.5 3.3 1.1 1.08 1.26-.3.8.17 1.3 1.1 1.6 2.4 1.56-.22 1 .46 4.7 4.3 1.06.55v.03l.8.4.96.93 1.5-1h.2l1.63-.15.7.46 1.4.94 1.8-.02 3.86 1.2 1.7.4 3.4 2.1 1.42.9.9.7 1.16.94 2.3 1 1.9.5 1.04.22.8.3v.04l4.2 1.6 2.3.5 2.1.8 1.55.6h1.1l1.6-1.36 1.6-.1 1.3.3 1.2-.2 2-1.3.4-.53 1.4-.68 4.8-.6 1.4.5 3.56-1.6 2.4.6 2.1-.72 4.6 1 1.23.9 1.4 1.6h1.7l-.6 1 2.1 2.16 1.83 2.7.1.3 1.4 3.9 1 1.4.7 1.9v1.3l-1.1.8-.1.48-.03.2.2.5.4-.2.8-.4.9-.1 1.66.2 1.1.1 1.76-.84 1.17-.6 1.8.8h2l.86.34 2.4 1.1 1.2.2.4-.3.3-.7-.14-.8-1-1.1-2-2.3-.8-1.2-.6-1.8-.2-2.28-.1-1.5.3-2 .58-.7.4-1.6.1-.4 1.17-1.5 2.9-1.9 3.2-2.8 2.6-1.66 2.6-1.18.1-.3.3.1 6.6-2.27h.1l3-.5 19.83 1.5.73-.2.64-1.9.4-.33.2-.22 2.2-.97 1-.2 2.9.7 1.15.3 1.9-1.05h1.3l2.7-1.48h1.7l.7-.2 3.3-2.4 3.2-.9.8-.5.3-.13 3.3-1.7 2.04-1.6 1.8-.96 2-.5 5.1-.33 1.04-1.7 2.2-.3 1.38-1.5 1.5-.6 1.1-1.6.9-1.3 1.3-.7 4.04-.27 4.86.6.7-.4 1.1-3.9 1.1-.75 3.1-4.5v-3l.5-1.9-.34-3.5.4-3.58 1.9-4.5 1.7-2 2.7-1.84 1.4-.6 1.9-.3.3-.1.5-.1 6.77-.1c.1-.1 2.45-.06 2.45-.06h2.24l5.7 1 .4.1 1.9.64 2.2 1.7 2.3 2.3.4.4 1.5.68.46.2 1.3-.2 1.8-.9 1.3-1.1 1.85-1 .06-.1 1.1-1.6h.08l.4-.6 3.6-1.4 4.2-.2.5-.3.23-.14 1.1-1.3h1l2.5.9 1.8-.4 1.4.6 1.1-.1 2-.3 2.2 1.5 1.3.17 4.1 2.6.2.06.13.03.23.06.6-.1.8-.2h.1l.1.2.5.7.7.1.9-1.1-.3-.5-.1-.2-1.6-.3-1.4-2.4 1.4-1.5-2.1-2.7-.36-.5-.1-.2-.75-1.14-3.8-5.8-4.9-3.94-1.77-1.4-.6-.5-2.6-2.7-1.9-2.5-.24-.5-.4-.85-1.1-2.5-2-1.5-1.6-1.8-.05-.1-3.3-4.5-.54-.8-.72-.4H403l-.2-.16-.1-.1.05-.1.8-.8.86-.2.4-.9-1.7-4.9v-.15l-.1-1.6 1.4-7.1.2-.9 2.4-4.77 1.5-1.2 1.6-3.1 1.3-2 1.3-1.25.2-.1 2.4-1.4 2-.2 1.9-.3 3.3 1.04 3.2-.1.6-.1 1.4-.2 2.3-.7 1.1-.7.6-.9 1.2-4 .4-1.2.7-1.4 4.3-4.85 3.2-3 7.26-5.3 3.5-2.1 1.8-1.1 16.1-7.14 4.2-4.2 2.2-2.2 3.8-2.6 4.5-1.88 3.9-3.1.85-1 1.04-3.4.9-.2.8-1.8.28-.5 3.1-2.2.36-.2 12.3-6.2 1.8.25.9-1.4 3.55-.6.7-.1.88-.4.76-1.3v-.2l.1-3.4.8-.9.4-2.3.4-.5.4-.5 1-.7-.2-.4z" fill="#d47600"/>
</svg>
