<svg xmlns="http://www.w3.org/2000/svg" xmlns:xlink="http://www.w3.org/1999/xlink" height="480" width="640" viewBox="0 0 640 480">
  <path d="M0 320h640v160H0z"/>
  <path fill="#fff" d="M0 160h640v160H0z"/>
  <path fill="#ce1126" d="M0 0h640v160H0z"/>
  <g transform="matrix(.8 0 0 .8 -40 0)" fill="#fff" stroke="#c09300">
    <path d="M450.8 302.4l68.5 63.58-4.88-115.47c-.7-17.5-15.92-13.4-26.97-7.1-11.2 7.2-23.96 7.2-37.44 2.5-13.4 4.8-26.2 4.8-37.4-2.4-11-6.3-26.2-10.3-26.9 7.2l-5 115.4 70.1-63.6z" stroke-width="1.27" stroke-linejoin="round"/>
    <path d="M393.47 246.5l-4.73 112.3-8.04 7.18 4.88-115.47c2.3-1.5 6.3-4 7.9-4zm9.62 8.03l-4.1 93.95-8 8.22 4.9-108.48c1.6 1.57 6.3 5.45 7.1 6.3zm8.7 7.17l-3.2 78.36-6.5 6.3 4-89.4c1.5 1.58 4.7 3.88 5.6 4.74zm9.4 4.02l-3.2 66.8-6.3 5.1 3.2-74.32c1.5.72 4.7 2.44 6.3 2.44zm8.7 0l-2.3 55.66-6.5 6.3 2.4-61.24c1.5 0 5.6 0 6.3-.72z" id="a" fill="#c09300" stroke="none"/>
    <use height="100%" width="100%" xlink:href="#a" transform="matrix(-1 0 0 1 900 0)"/>
    <path d="M453.16 315.06l9.6 43.76-3.14 3.15-3.3-2.44-5.45-39.02 2.3 39.1-3.17 4-3.15-4 2.3-39-5.46 39.1-3.3 2.5-3.2-3.1 9.6-43.7h6.3z" fill="#c09300" stroke-width="1.07"/>
    <g id="b" fill="none" stroke-width="1.27" stroke-linejoin="round">
      <path d="M428.48 295.84l-19.08 67.7 26.26 4.02 11.18-50.92-18.36-20.8z" fill="#fff" stroke-width="1.19"/>
      <path d="M422.17 318.94l2.3 5.6 12.4-11.86"/>
      <path d="M430.76 304.92l2.6 24.35 7.9-10.33m-3.17 4l4.3 14.9m1.7-5.48l-8.8 13.24m2.7 13.22l-2.8-13.2-2.5-13.42-5.9 7.9-2.6-9.1-8.2 8.37 4.1 15.25 5.7-9.43 3.1 9.6 5.9-9.2"/>
      <path d="M415 361.97l5.3-7.44 3.44 11.45 4.74-8.03 3.15 9.62"/>
    </g>
    <use height="100%" width="100%" xlink:href="#b" transform="matrix(-1 0 0 1 900 0)"/>
    <g stroke-width="1.27" stroke-linecap="round" stroke-linejoin="round">
      <path d="M450 393.8c19.94 0 39.02-1.57 50.2-4.72 4.75-.86 4.75-3.3 4.75-6.46 4.73-1.58 2.3-7.17 5.6-7.17-3.3.86-4.02-5.6-8.04-4.73 0-5.6-5.6-6.3-10.3-4.74-9.4 3.16-26.2 3.88-42.2 3.88-15.9-.72-32.5-.72-42.1-3.88-4.7-1.57-10.3-.86-10.3 4.74-4-.86-4.7 5.6-8 4.73 3.3 0 .9 5.6 5.6 7.17 0 3.16 0 5.6 4.9 6.46 11.1 3.15 30.2 4.73 50.1 4.73z" stroke-width="2.38"/>
      <path d="M422.9 363.54c6.44.86 13.62 1.58 19.22.86 3.15 0 5.45 5.45-.87 6.3-5.6.73-14.34 0-19.08-.85-4-.72-12.77-2.3-18.36-3.87-5.6-2.44-1.5-7.17 1.6-6.46 4.9 1.58 11.2 3.16 17.5 4.02zm54.22 0c-6.46.86-13.63 1.58-19.08.86-3.3 0-5.6 5.45.72 6.3 5.6.73 14.34 0 19.07-.85 4.02-.72 12.77-2.3 18.37-3.87 5.6-2.44 1.58-7.17-1.58-6.46-4.88 1.58-11.2 3.16-17.5 4.02z"/>
      <path d="M403.1 360.4c-4.9-.87-7.18 4.72-5.6 7.88.7-1.58 4-1.58 4.73-3.16.86-2.43-.72-2.43.86-4.73zm19.07 14.66c0-3.15 3.15-2.77 3.15-5.92 0-1.58-.86-4.02-2.43-4.02-1.6 0-3.2 1.58-3.2 3.16-.7 3.15 2.4 3.63 2.4 6.78zm22.7-9.08c4.74 0 4.27 6.3 1.98 9.47 0-2.3-4.02-3.16-4.02-4.73 0-2.44 3.62-2.44 2.05-4.74zm52.04-5.6c4.9-.85 7.2 4.74 5.6 7.9-.7-1.58-4-1.58-4.7-3.16-.8-2.43.7-2.43-.8-4.73zm-19 14.68c0-3.15-3.1-2.76-3.1-5.92 0-1.58.9-4.02 2.5-4.02s3.2 1.58 3.2 3.16c.7 3.15-2.4 3.63-2.4 6.78zm-22.7-9.08c-4.7 0-4.2 6.3-2 9.47 0-2.3 4-3.16 4-4.73 0-2.44-3.6-2.44-2-4.74z"/>
      <path d="M404.67 361.97c1.58 0 4.02.72 4.74 1.58l-4.7-1.58zm7.88 2.44c.86 0 4.02.8 5.6 1.6l-5.6-1.6zm28.7 3.2c-1.58 0-4.73 0-5.6.7l5.6-.7zm-8.75 0c-.86-.8-4.02-.8-5.6 0h5.6zm62.84-5.6c-1.58 0-3.87.8-4.73 1.6l4.8-1.6zm-7.9 2.5c-.85 0-4 .8-5.58 1.6l5.6-1.6zm-28.7 3.2c1.6 0 4.75 0 5.6.7l-5.6-.7zm8.76 0c.86-.8 4.02-.8 5.6 0h-5.6z" stroke-width=".89"/>
      <g fill="#c09300" stroke="none">
        <path d="M403.34 374.58c-.53-.1-.8-.53-.68-1.02.16-.6.65-.96 1.1-.8.3.1.84.65.84.84 0 .22-.28.75-.4.75-.05 0-.13.05-.18.1-.1.13-.4.18-.68.13zm54.93 3.92c-.2-.07-.52-.52-.52-.72 0-.4.58-1.02.93-1.02.18 0 .66.24.84.43.32.3.25.8-.16 1.2-.2.1-.8.2-1.1.1zm.36 2.48c-.42-.14-.57-.35-.6-.8-.04-.5 0-.57.52-.85l.36-.2.4.15c.5.22.7.45.7.77.1.35-.2.7-.6.88-.3.16-.4.16-.7.05z"/>
        <path d="M407.75 370.1c-.35-.02-.82.3-1.1.46-.64.15-1.4.55-2.02.12-.62-.2-1.44-.04-1.54.72.1.65 1 1.03 1.6.6.4-.54 1.5-.86 1.6.06-.5.7-.4 1.6-.8 2.34-.1.46-.3.9-.5 1.28-.5.05-1 0-1.4.28-.7.04-1.3.35-1.7.88-.4.58-.8 1.16-.9 1.87.1.8.9 1 1.5 1l2 .7c1.1.3 2.1.7 3.2.9 1.5.5 3.2.7 4.8 1.2.1.1.3.1.5.2.6.2 1-.6 1-1.1.3-1.1.6-2.3.9-3.5.2-.4.5-1.5-.4-1.2-.5.3-1 .8-1.6.8-.9.1-.4 1 0 1.3 0 .6-.1 1.3-.5 1.8-.6.4-1.2 0-1.8-.2-.6.1-1.7-.2-1.2-1 .2-.6.2-1.2.4-1.8.3-.6.3-1.3.4-1.9-.4-.7-1 .3-1.5.4-.4.2-1.6.3-1 .9.5.5.1 1.2 0 1.8-.1.8-.9 1-1.5.8-.7 0-1.5-.5-1-1.2.1-.5.3-1.1.4-1.7.2-.7.4-1.3.7-2 .1-.6.3-1.2.6-1.7 0-.7.4-1.2.4-1.9-.1-.3-.2-.4-.4-.4zm-3.6 7.24a.35.35 0 0 1 .23.03c.25.1.25.3 0 .53-.12.1-.24.2-.3.2-.45-.05-.6-.12-.6-.3-.03-.14.02-.2.33-.34a1.45 1.45 0 0 1 .4-.12zm-1.03 5.02c-.5-.47-.42-.8.32-1.35.3-.2.5-.2.86.2.55.5.57.8.1 1.3-.25.2-.36.3-.64.3-.3 0-.38 0-.64-.3zm3.05.92a.86.86 0 0 1-.62-1.1c.13-.42.2-.47.84-.47.7 0 .8.2.8.8 0 .4 0 .5-.2.6a1.07 1.07 0 0 1-.9.3zm89.1.08c-.22-.2-.26-.27-.26-.52 0-.4.3-.7.8-.94.7-.3 1-.26 1.2.2.4.6.3.83-.1 1.24-.2.22-.2.24-.7.24-.5 0-.5 0-.8-.22zm-85.05 1.15c-.36-.1-.55-.3-.56-.8 0-.3.02-.3.26-.5.15-.1.4-.2.58-.2.26 0 .36 0 .57.2.55.4.67.8.35 1.2-.34.4-.66.5-1.2.4zm21.92 1c-.08-.1-.26-.1-.28-.3.03-.5.06-1.1.24-1.6.1-.5 0-1 .2-1.6.18-.9.18-1.9.4-2.8 0-.4.05-.9.2-1.4.14-.7 0-1.5.2-2.2 0-.2.3-1 .57-.5.4.6.9 1.1 1.42 1.5.4.3 0 .7-.3.8-.4.2-.5.6-.5 1.1-.1.4-.3.8-.3 1.3-.1.6-.1 1.3-.2 1.9-.2.6-.1 1.3-.2 1.9 0 .4-.2.8-.2 1.2-.1.4-.1.9-.4 1.2-.4.1-.9.1-1.1-.2zm29.7-9.8c-.48.4-.9.8-1.34 1.2-.6.5.48.8.62 1.1.16.6.15 1.2.2 1.8.17.6.25 1.2.2 1.8-.04.7-.85.5-1.2.9-.5.2-.7.7-1.07 1.1-.25.5-.32 1.1-.35 1.7.04.5-.3 1 0 1.4l.13.2c.1.2.34.1.5.1.5 0 1.03.1 1.5-.1 1.2-.2 2.43-.2 3.65-.3.75.1 1.47-.2 2.22-.2.6.2.85-.5.85-.9-.34-.6-.05-1.4-.32-2.1-.23-.6-.14-1.4-.25-2.1 0-.6-.7-.8-1.06-.3-.34.4-.9.4-1.15.9-.3.6.62.6.78 1.1.17.5.12 1 .15 1.5.12.6-.53.6-.93.7-.54.2-1.3.3-1.6-.3-.2-.5-.16-1-.22-1.5 0-.9-.22-1.8-.28-2.7-.05-1.1-.24-2.2-.3-3.3-.02-.4-.08-1.2-.73-1.1zm-.62 8.3l.3.1.04.4.03.4-.5.2a3.28 3.28 0 0 1-.4.1 2.55 2.55 0 0 1-.2-.1c-.2-.1-.2-.4.1-.7.1-.1.2-.2.5-.1zm-29.97-9.3c-.38.2-.86.7-1.25.7-.88.1-.76.9-.12 1.2.08.3 0 .6.03.9.2.8-.3 1.5-.2 2.2 0 .9-.3 1.7-.3 2.6-.2.9-.2 1.8-.4 2.8-.1.9-.7.6-1.2.3v-1c.2-.8-.4-1.1-1.1-1.2-.6.1-1-.5-.8-1.1.3-.4 1.1-.3 1.5-.3 1 .2 1-1.1.5-1.6-.3-.6-1.2-.9-1.4-1.5.1-.8-.4-1.7-1.2-2.1-1-.1-1.9.9-2.3 1.8-.4.1-.9.3-1.3.5-.7.2-1.7 1.4-.7 1.9.6.2 2.2.5 1.5 1.3-.4.7-1.2.8-1.9.6-.7 0-1.5-.3-1.5-1.2-.1-.7-.1-1.5-.4-2.2-.1-.8-1.1-.6-1.2.2-.7.6-.6 1.4-.1 2 .4.8 0 1.6-.3 2.3-.2.9-1.1.9-1.8 1.2-.3.1-1.6-.1-1.2.7.8.3 1.7.5 2.4.3.8-.1 1.6-.6 2-1.3.6-.6 1.5-.3 2.2-.3s1.6.6 2.3.2c.2-.6 1.2-1.5 1.5-.5 0 .9.7 1.4 1.5 1.3.9-.02.6.6.6 1.16.1.96.7 1.4 1.5 1.8.3.1.5.1.8 0 .8-.2 1.6-.53 1.8-1.4.3-.7.3-1.42.5-2.12.2-1.1.4-2.23.5-3.4.3-1.02.2-2.12.4-3.2.2-.8.3-1.53.3-2.3-.1-.4-.3-.5-.5-.4zm-6.78 4.2c.15 0 .23.2.25.6.02.4.2.7.44.7.18.1.16.3-.03.4-.12.1-.33.2-.7.2-.57 0-.93-.2-1.24-.5l-.2-.2.2-.1c.1-.1.4-.3.5-.5.3-.3.5-.4.6-.4zm66.03-7.9a8.37 8.37 0 0 0-1.66.3c-1.04 0-1.56 1.1-.56 1.6.6 1.6 1.54-.3 2.5-.2 1.44.3 1.56 1.9 1.78 3 .08 1.2.42 2.3.75 3.4 1 1.1-.7 1.8-1.4.9-.6-.6-1.9-1.5-2.6-.5-.9.4-.9 1.6-1.7 2-1.2.4-1.3-1.1-2-1.7-.6-.8-1.7-.9-2.6-1.2-.4-.8-.2-2.3-1.1-2.9-.7.3-2.1 1.7-1 2.3 1.1 1-.5 1.4-1 2.1-.7.8-.8 1.9-.9 3-1.2.7-1.5-.7-1.6-1.7-.1-1.1-1-.8-1.7-.4-.9.4-1.4 1.3-2.1 2-.1.7 0 1.4 0 2.1.2.8 1.2.4 1.8.4 1-.4 1.4.6.6 1.2-.5.7-2.2.3-2 1.4.6.1 1.1.1 1.7 0 1.1-.3 2.3-1 2.4-2.3.2-1 1.7-.8 2.5-1.1 1.1-.3 2.3-.3 2.6 1 .7.8 2.2 1.6 3 .6.8-.5 1.2-1.3 1.1-2.2-.1-.8 1.3-.8 1.6-.4.5.9 2.2.6 2.9.1.9-.6 1-1.7 2.2-1.7 1.8-.5 3.7-.8 5.4-1.5 1.4-.3-.2-1.2-.5-1.7-1-.5-2 1.7-3.2.6-.9-.7-.8-2.1-1.2-3.1-.2-1.4-.2-2.9-1.1-4-.7-.7-1.6-.9-2.5-.8zm-6.8 9.5c.1 0 .26.1.5.2.43.3.74.7.74 1 0 .2-.06.2-.38.4-.2.1-.42.2-.5.2-.18 0-.62-.3-.62-.5 0 0-.06-.3-.13-.4-.1-.3-.1-.3.1-.5.1-.1.2-.2.3-.2zm6.52.4c.37 0 .6.1.75.4.18.3.06.6-.4.8-.2.1-.42.2-.45.2-.03 0-.2-.1-.37-.2-.27-.2-.3-.2-.3-.4-.02-.3.34-.6.77-.6zm-8.94.1c.1 0 .2.1.34.2.18.2.24.3.28.6.04.2.03.5 0 .6-.04.3-.05.3-.56.3-.64 0-.7 0-.7-.6.02-.4.03-.5.23-.7.16-.1.3-.2.4-.2zm-5.5 1.4a.57.57 0 0 1 .44.5c.06.3 0 .5-.25.6-.22.1-.74.2-.88.1a.6.6 0 0 1-.2-.2c-.1-.1-.1-.1 0-.2l.1-.1s0-.1.1-.3a.54.54 0 0 1 .5-.2zm9.25 1.2c.18 0 .33.1.44.2.18.2.18.4-.03.6-.14.1-.87.1-1.13 0-.1 0-.1-.1-.1-.2s.1-.2.3-.3c.2-.1.4-.1.6-.1zm-17.17 4.8c-.1 0-.24-.1-.1-.2.18-.3.52-.4.83-.5a3.44 3.44 0 0 0 1.3-1.1c0-.3.4-.5.4-.8 0-.5 0-.9-.1-1.4-.2-.4-.5-.7-.8-.9-.3-.2-.7-.2-.8-.6-.1-.3.2-.6.3-.9l.6-1.3c.2-.3.6 0 .8.3.2.3.3.6.4.9.3.3.5.7.7 1.2.1.3.3.6.3 1s.2.8.2 1.2c0 .6 0 1.2-.2 1.7-.2.3-.4.5-.6.8-.4.3-.7.6-1.1.8-.3.1-.5.5-.8.4-.5 0-1.1.1-1.6 0 0 .1-.2-.1-.2 0zm-6.85.5c-.2-.2-.2-.3-.3-.6 0-.2.1-.3.3-.6.5-.4.7-.4 1.4 0 .8.4 1 .4 1.1.2.1-.2.5-.5.9-.5a.82.82 0 0 1 .6.2c.3.2.3.3.3.7 0 .5 0 .5-.3.7-.2.3-.3.3-.6.3-.4 0-.7-.2-.7-.6 0-.2-.1-.3-.2-.1 0 .1-.1.1-.2.2-.2.1-.5.3-.8.5-.1.1-.2.2-.5.2s-.4 0-.7-.3zm-19.8-8.9c-.6 0-1.4.6-1.4 1.2.2.8.8 1.5.4 2.3.3 1-.7 1.4-1.4.8-.4-.9-.6-2-1.3-2.9-.8-.2-1.1 1.1-1.7 1.5.3.8 1.1 1.5 1.2 2.4.2.9-.4 2-1.2 2.4-.7.7-1.6.5-2.4.6-1 .6.8.8 1.2.9 1.1.1 2.2 0 2.9-.8.8-.3.7-1.7 1.7-1.8 1.6 0 3.2.3 4.8.3.9.2 2.2-.1 2.8.5 0 1.1 1 1.8 1.9 2.2.5.2 1-.4 1.5-.5 1-.3.7-1.5 1.3-2 1.7-.1 3.3-.1 5-.1.3 0 .4-.4.6-.6 0-.6 0-1.2-.1-1.9-.3-.8.1-1.8-.5-2.5-.8-.2-1.6.6-2.4.6-1 .4-1.7 1.3-1.8 2.3-.5.9-1.4-.1-1.1-.9 0-.3.1-.7 0-1-.5-.6-1.4-.4-2.1-.5-1 .1-2-.2-3.1-.1-.9-.1-1.8.1-2.7-.1-1 0-.9-1-1-1.7a1.02 1.02 0 0 0-.6-.2zm2 3.7c.4 0 .7.1 1 .1.5.1.9-.1 1.3 0 1 .2 2 .2 3 .3.3 0 .5.2.7.4v2.1c0 .3.1.6-.1.8a.7.7 0 0 1-.2.1c-.3 0-.6-.2-.7-.5v-1c0-.1.1-.2 0-.3a1.25 1.25 0 0 0-.7-.2l-2.5-.1c-.7 0-1.4.1-2.1-.1-.2-.1-.6-.1-.8-.3-.2-.2.1-.6.4-.7a2.28 2.28 0 0 1 1-.2zm11.3.3c.2 0 .2.1.3.4l.2.5c.1.1 0 .2-.2.2-.5.2-1 .2-1.1 0 0-.1 0-.4.2-.5.3-.3.6-.4.8-.4z"/>
      </g>
    </g>
    <path d="M449.98 327.23c32.64-25.1 29.84-61.88 29.84-61.88-.86.17-1.68.26-2.54.26-6.84 0-23.18-3.9-27-8.9-4.07 4.6-20.76 8.9-27.56 8.9-.86 0-1.72 0-2.54-.2 0 0-2.84 36.8 29.8 61.9z" stroke-width="1.15"/>
    <path d="M477.22 268.04c-.28.02-.56.03-.85.03-6.2 0-20.62-3.2-26.17-7.96-5.82 4.5-20.47 8-26.58 8a4.7 4.7 0 0 1-.85-.1c0 1.4.06 2.9.15 4.2.32 4.9 1.18 9.8 2.48 14.6 4.1 14.9 12.52 27.6 24.58 37.2 12.06-9.6 20.48-22.3 24.6-37.2 1.3-4.7 2.17-9.6 2.5-14.5.08-1.3.15-2.7.14-4z" stroke-width=".92"/>
    <path d="M439.38 265.03c-5.87 1.84-12.23 3.03-15.75 3.03-.3 0-.56-.04-.84-.1-.1 1.4 0 2.85.1 4.16a72.77 72.77 0 0 0 2.4 14.53c2.7 10.03 7.5 19.04 13.9 26.8v-48.42zm20.62-.1v49.26c6.8-8 11.73-17.3 14.6-27.6a72.95 72.95 0 0 0 2.46-14.6c.1-1.3.17-2.7.16-4.1h-.85c-3.73 0-10.42-1.2-16.37-3.2z" fill="#c09300" stroke="none"/>
    <g stroke-width="1.27">
      <path d="M462.3 253.1c.68.03-.9-3.58-.9-3.58 1.77 1.8 8.44 2.24 8.44 2.24-4-1.77-8-15.1-7.53-25.72.5-10.67-1.5-14.86-3.1-16.43-2-2-8.4-3.7-12.6-4-2.4-.1-2 1.8-2 1.8-4.4-1.1-8.8-1.5-10.8-.2-1.9 1.3-2.3 7.5-.9 6.5 3.4-2.6 6.3-.2 8.3 2.7 1.8 2.6 1.7 9.8-.9 18.2-2.6 8.9-9.9 17.7-9.9 17.7 4 0 9.6-3.5 9.6-3.5l-1.3 5.6c4.2-2 7.6-5.1 7.6-5.1l4 4.2c1.3-1.7 4-4.2 4-4.2s3.3 3.6 8.4 4z" stroke-width="1.22"/>
      <path d="M446.12 227.57s-2.23 16.43-6.43 21.1m9.9-21.53s-.9 16.62-3.8 21.96m6.9-21.3s0 18.2 1.1 21.3m2.8-20.4s.9 15.3 4.6 20.83" fill="none"/>
      <path d="M442.08 219.6c-.2-1.44-.55-2.58-1.06-3.32-2-2.9-4.9-5.33-8.23-2.67 0 0 1.1-3.5 3.5-3.6 1.9-.1 6.1 1.4 9.9 7.9 0 0-2.8-.6-3.5 0-1.3 1.1-.8 1.9-.8 1.9z" fill="#c09300" stroke-width=".35"/>
      <path d="M432.44 209.26c.27-.9.7-1.73 1.25-2.08 2-1.33 6.4-.9 10.8.24 0 0-.4-1.92 2-1.8 4.2.23 10.6 2 12.6 4 .4.5 1 1.25 1.5 2.38h-.1c-1-1.37-3.8-1.3-4.4-1.2-1.1.1-1.8.07-3.2.42-.7.16-1.7.35-2.3.78-.5.36-.8 1.65-1.5 1.65-1.1 0-1-.27-1.3-.6-.4-.42-.6-1.05-.9-1-1.1.2-2.9-.67-5.1-2.44-2.2-1.7-3.1-2.1-6-2-2.9.3-3.8 1.9-3.8 1.9l.1-.2z" fill="#c09300" stroke-width=".35"/>
      <circle cx="448.82" cy="210.67" r="1.18" stroke="none"/>
    </g>
  </g>
</svg>
