<svg xmlns="http://www.w3.org/2000/svg" height="480" width="640" viewBox="0 0 640 480">
  <path d="M0 0v480h640V.08H402.44V0H0z" fill="#68bfe5"/>
  <g stroke-miterlimit="4.8">
    <path d="M420.9 193.24V329.6c0 44.6 80.57 71.07 80.57 71.07s80.58-26.48 80.58-71.08V193.2z" fill="#fff"/>
    <path d="M490.3 241.15v61.4h-69.4v22.33h69.4v71.54l11.17 4.25 11.17-4.25v-71.54h69.4v-22.34h-69.4v-61.4z" fill="#d21034"/>
    <path d="M420.9 193.24h161.15v52.65H420.9z" fill="#d21034"/>
    <g stroke-miterlimit="3">
      <g fill="#fff" stroke="#000" stroke-width=".81" transform="matrix(.7 0 0 .7 -96.9 97.5)">
        <ellipse ry="10.96" rx="13.62" cy="192.21" cx="798.23" stroke-width=".8"/>
        <ellipse ry="6.12" rx="12.11" cy="186.53" cx="798.23"/>
        <ellipse ry="6.12" rx="12.11" cy="198.77" cx="798.23"/>
        <ellipse ry="6.12" rx="12.11" cy="192.21" cx="798.23"/>
      </g>
      <path d="M578.06 235.45l-1.32-3.64s-3.6-1.4-3.9-3.3c-.63-5.1-2.46-7-5.2-7.7-2.74-.7-4.56.5-4.56.5-.82 1.2-4.94 1.2-7.22 1.3-2.28.1-2.32-1-2.32-1-1.78 0-2.52-1.3-2.52-1.3-1.16-2.3-2.03-3.2-2.6-3.5 2.96.1 5.2-1.3 8.54-4.8 3.65-3.8 6.26-2.3 6.26-2.3-1.77 3.6.6 3.3.6 3.3 4.83-2.4.63-8.6-.83-8.4-1.5.3-1.9-.7-1.9-.7 0 1.1-1.6 1.6-1.6 1.6 1.2-7.1-3-9-3-9-.7.7-1 2-1 2-1.2 4.3-5.2 3.7-9.5 1.6-4.4-2.1-16.1 2.2-19.8 3.7s-10.4 3.8-16.4.4c-6-3.4-7.5-2.8-9.9-2.1-2.4.6-6.6 1.6-8.2.8-1.6-.8-3.3-.9-3.3-.9.4-.2-.3-1.2-.3-1.2-1.9-2.5.2-4 .2-4s-3.4 1-2.1 6.8l.6.9s.4 1.8 1.4 2.4v.4s.8-.4 1.1.8c.2 1.2 1.5.1 2.1-.9 0 0-1 5.3 5.6 6.6 0 0-.8-.8-.5-1.4.3-.5-.8-1-.7-1.8.1-.8-1.7-1.2-.3-1.8 1.4-.6 2-1.9 4.9-.2 2.9 1.8 5.2 1.4 5.2 1.4s-1.8-3.7-.8-3.7 5.4 5.5 7.6 5.2c2.1-.3 6.3-2.7 8.4-1.8 0 0 .2-1.1 8.2-2.5 8.1-1.3 18-5.4 21.7-1.8 0 0 .4 2.8 2 3.6 0 0-.3 5.8-10.2 2.6l-3.6-.9s-.6-1.7-19.5 3.1c0 0-1.1.4-1.9 1-.7.5-1.7-.3-5.5 1-3.7 1.4-17.7 6-26.3 4.3-1.9-.5-3.7-.2-3.7-.5-.1-.3 1 .1 1 .1-.7-.7-.9-.8-.9-.8-7.2-.8-6-4-6-4l.3 1c1.2-1.5-.5-5.2-.5-5.2a3.78 3.78 0 0 0-.1-.3l.6-.4c3.4-2.9 7.5-3.5 7.5-3.5-2.4-2.9-7.5-1.3-7.5-1.3.1-3.5-1.4-7.7-1.4-7.7-5 .6-7.8 4.7-7.8 4.7-.2-3.6-4.8-5.7-4.8-5.7 1.7 2.1.6 7.1.6 7.1l.2.1h-.4l-.1 1.1-.1-.1s-1.8.6-3.8 5.2c0 0-.2 1.1-1 2.1v-.4s-2.2 2.9-7.4 0c0 0-7.1-4.2-9.5-4-2.5.1-4.1 1.3-4 2 0 0-5.6-.5-7.6 2.8 0 0-4.2 1.5-.6 5 0 0 .5 1.5 1.6 2.3 0 0-.2-3.2.6-2.2 0 0 .2.3.6.5.1.5.4 1.7 1.2 2.4l.5-.2c.1-.8.3-1.8.5-2.2h.2l-.1.1 1 1.6 1.1-.7c.5-.1 1.2.5 1.2.5l1.3-1.1c1.3.3 1.6-2.3 1.6-2.3 1.2.3 2.3 0 3.2-.6.6 2.1 5.2 4.4 5.2 4.4h.2c-.4.3-.6.5-.6.5 2.1 1.4 6 1.1 6 1.1-1.6.6-1.4 3.6-1.4 3.6-1 .4-1.1 1.4-1.1 1.4 3.2 1.3 5.4.2 5.4.2.1 1.1-.1 1.2-.1 1.2-1.3 2.7-1.8 5.4-1.8 5.4h.1l-.1.2s-5.6 2-8.1 4.7c0 0-.2-.8-.9-.8s-2.9-1.8-3.9-2.1c-1-.3-2.5.3-2.9-.1-.4-.4-.2-3.6-.9-4.1l-.7-1.9c-.5 1-2.4.8-2.4.8l-.8.6c-.4 0-.8-.1-.8-.1-.2 0-.4.6-.6 1.1l-.2.2v-.6c-.4.3-1.2-.2-1.5-.2-.2 0-.4.4-.5.9-.8.1-1.9.2-1.9.2-.3.2-.1 2.6-.1 2.6-2.3 1.2-1.2 3.1-1.2 3.1 1.3 6 11.6 3.3 12.3 4.1.8.8 2.6.9 3.5.9.9 0 2.1 2.3 3.4 2.5 1.3.3 0-1.8 6.1-3.2 6.1-1.5 8.2-4 8.2-4 1.9-.3 2.5-2.7 2.6-3.6 0 .4.1.9.2 1.4.3 2.1-1.2 2.9-1.2 2.9l5.3-1.6c2.1-.5 1.8-2.3 1.8-2.3 2 5.78 5.6 6.1 5.6 6.1.7-2.2.6-2.9.6-2.9l1.7-.1c.1-1.2-1-2.1-1.6-2.5l2.6 1.5 1-.2c0 .9 1.4 1.74 1.4 1.74l.2-1.2c1.2 1.6 3.4 1 3.4 1a7.34 7.34 0 0 0-.2-.8c4.7 2.9 12.14-.8 12.14-.8 2 .5 2.3-.7 2.3-.7 2.3.3 2.8-1.3 2.8-1.3 5.4-.4 9.2-4.24 9.2-4.24 2.6-.2 2.7-2.1 2.7-2.1s2.6.5 5.2-2.7c5.9-8.5 14.8-4.1 14.8-4.1l-5.17.33c-13.4-.1-7.83 9-7.83 9l.9-.1c1.3.3 5.7 3.7 4.1 6.3l-.1.1c-2.7 3.8-7.8.2-9.2-3-1.5-3.2-4.4-2.4-4.4-2.4s-7.6 1.3-4.5 7.3h.1c.1 1.5 1 3.2 3.7 4.8 1.5 2.2 6.5 2.4 10.2 1.6 1.7-.3 10.7-4.2 10.7-4.2.7-1.9 2.9-1.5 4.9-4.3 2-2.8-2.8-3.8-3.9-5.4-1.1-1.5.3-1.2.3-1.2 4.4 2.4 4.7-5.2 4.7-5.2.5 4.4 4.3 5.55 4.3 5.55 2.4-2.32.6-7.2.6-7.2 5.7 10.18 9.1 8.5 9.1 8.5-3.03-1.9-1.5-4.4-1.5-4.4 2.7 10.8 13.98 1.4 13.98 1.4-.5 1.56 0 2.47 1 3.48 1 1 2.2 1.46 1.7 3.3-.6 1.8-5.8 1.45-5.8 1.45s-5.1-.3-4.6 4c.28 1 3.66 1.4 4.9 1.1 0 0-.5.1 1.4.3.6.1 1.4.1 2.1.1 2.2-.1 4.5-.4 4.5-.4 2.9-.6 2.5-1.6 2.5-1.6 4.5-.9 4.9-3.9 4.9-3.9z" fill="#ffd100" stroke="#000" stroke-width=".8"/>
      <path d="M429.63 216.74s.24-.56.7-.63c.34 0 .76.3 1.2.8l.25-.2s-1.2-1.7-.73-3c.22-.5.74-.9 1.57-1.1l-.07-.3c-.93.2-1.53.7-1.78 1.3a2.1 2.1 0 0 0-.14.8c0 .6.22 1.2.43 1.7-.27-.1-.53-.2-.78-.2-.46.1-.7.4-.8.6zm140.98 23.93c-3 .48-7.5.75-7.8-.17 0-.17-.1-.83 2.4-2.45l-.3-.45c-2 1.36-2.9 2.34-2.6 3.1.7 1.65 7.2.7 8.5.5zm-58.3 1.76c-.7-1.06-.4-2.52 1-4.34l-.4-.4c-1.4 2-1.8 3.6-.9 4.9z"/>
      <path d="M508.12 237.84c.06 1.84 1.36 3.55 3.85 5.07l.28-.4c-2.33-1.4-3.54-3-3.6-4.6-.1-2.5 2.6-4.5 2.6-4.5l-.3-.4c-.12.1-2.94 2.2-2.83 5zm52.05.68c-.84 1.24-.56 2.73-.55 2.8l.53-.1c0-.02-.25-1.35.47-2.4.43-.63 1.12-1.04 2.06-1.22l-.1-.53c-1.1.2-1.9.7-2.4 1.45zM440.9 215.14l-.15-.04-.02.17c0 .02-.24 1.64-.98 2.08-.2.12-.43.14-.68.04l-1.25-.8c-.25-.2-.46-.4-.82-.3a1.8 1.8 0 0 1-.35-1.3c.1-.8.6-1.5 1.53-2.1l-.18-.3c-1 .7-1.55 1.5-1.65 2.3-.1.9.44 1.6.46 1.6l.1.1.1-.1c.3-.1.4-.1.7.2l1.4.8c.4.1.7.1 1-.1.8-.5 1.1-1.8 1.1-2.2 3.3.7 5.9-3.3 6-3.4l-.2-.2s-2.7 4.1-5.8 3.2z"/>
      <path d="M433.14 214.54c-.16.65-.05 1.3.33 1.9.35.6.7.9 1.07.96.45.06.8-.27 1.13-.57.23-.2.44-.4.62-.4l.2.2.2-.2-.5-.3c-.3-.03-.6.22-.9.48-.3.3-.6.6-.9.5-.3 0-.6-.3-.9-.8-.4-.5-.5-1.1-.3-1.7.3-1.4 2.1-2.5 2.1-2.5l-.2-.2c-.1.1-1.9 1.2-2.3 2.7zm-4.46 20.65c.15-.6.58-1.1 1.27-1.5-.13 0 .68.7 1.38.6l.45-.3c.2.1 1.4 1.2 1.4 2.6 0 .3-.06.6-.2.9l.3.1c.88-2.1-1.34-4-1.36-4l-.1-.1-.12.1-.4.2c-.57 0-1.32-.6-1.32-.6-.94.4-1.42.9-1.6 1.6zm10.32-5.4c-.66 0-2.52.4-3.13 1.3-.22.3-.25.7-.1 1.1l.25.6c.58 1.5 1.18 3.2 1.84 3.5l.15-.3c-.5-.4-1.1-2-1.7-3.4l-.2-.7c-.1-.3-.1-.6.1-.9.5-.8 2.2-1.2 2.9-1.2.5-.1.6 1.5.7 2.5l.3-.1c-.1-1.4-.2-2.9-1-2.8z"/>
      <path d="M433.9 231.37c-.4.35-.3.88-.3.9 0 .15.17 4.04 2.02 4.84l.12-.2c-1.67-.7-1.84-4.5-1.84-4.6 0 0-.05-.4.2-.6.3-.2.85-.2 1.62 0l.08-.3c-.9-.2-1.53-.2-1.9.2z"/>
      <path d="M432.44 231.7c-.8.56-.78 2.18-.78 2.25h.3c0-.02-.03-1.53.66-2 .25-.18.6-.2 1-.03l.1-.28c-.5-.2-.93-.2-1.28.05z"/>
      <g transform="matrix(.7 0 0 .7 -96.9 97.5)">
        <path d="M862.33 169.5c.02.03 1.3 2.94 1.3 5.3 0 .4-.2.7-.28 1.08l-.5-1.37-.4 1c0 .1-.52 1.4.4 2.9 1.2 2 4.18 3.3 8.87 3.8l.07.1c-.2.1-.4.1-.4.2l-.2.2v.4c.1.5.7.5 1.8.6.2 0 .5.1.7.1l.5.2-.1-.1c1 .1 2.2.4 3.5.9l-1 .3 1.1.5c.1 0 8.6 3.5 12.2 6.3-1 .9-5.3 4.1-12.8 2.3l-1.3-.3.8 1c0 .1 4.9 5.6 5.9 9-1.7 0-8.2 0-10.5-2l-.6.6c0 .1 3.1 4.6 3.8 8.1-.9.1-3 .2-4.3-1.4l-.6-.7-.3 2.1c-.6-.5-1.4-1.2-1.4-1.9v-.5l-1.8.3-3.8-2.3a7.97 7.97 0 0 0-.6-.3l-.4.7.6.3c.8.5 2.2 1.7 2.3 3.2l-2.4.1v.5c0 .3-.1 1.3-.9 3.7-1.2-.3-5.4-1.7-7.9-8.8l-.8.2v.2c0 .6-.3 2.2-2.5 2.8l-6.5 1.9c.4-.7.8-1.5.8-2.7v-.9c-.2-1-.3-1.9-.3-2.6 0-1.5.4-2.4 1.4-3l-.4-.7c-.1 0-9.6 3.8-14.3 2.2.2-.9 1-4.1 2.6-7.6l-.2.2c.3-.1.6-.6.3-2.1l-.1-.5-.5.2s-3 1.3-7.4-.3c.1-.4.3-1 1.2-1.4l.3-.1-.1-.3v-.6c0-1.2.2-4 1.9-4.6l-.2-.8c-.1 0-5.2.4-8.3-1.3.8-.6 2.5-1.6 4.5-1.9h.3v-.5c0-.4-.1-1.3-.5-2.1 1.2.4 2.6.6 3.1.3l.2-.2-.2-3.1-.8.1.1 2.5c-.5 0-1.8-.2-3-.6l-1.2-.4.8 1.1c.6.9.7 1.9.7 2.4-2.8.5-5 2.2-5.1 2.3l-.4.4.4.3c2.4 1.6 6.1 1.8 8.1 1.7-1.2 1.3-1.4 3.4-1.4 4.5v.4c-1.4.8-1.6 2.1-1.6 2.2l-.1.3.3.1c4.1 1.7 6.9.9 7.9.5v.9c-2.1 4.2-2.9 8.3-2.9 8.3l-.1.3.3.2c3.8 1.5 10.7-.6 13.8-1.7-.4.7-.6 1.5-.6 2.4 0 .8.1 1.8.2 2.8 0 .3.1.5.1.7 0 2.3-1.6 3.2-1.7 3.2l.3.7 7.9-2.4c1.9-.5 2.6-1.6 2.9-2.5 3.1 7.4 8 8.1 8.2 8.1h.3l.1-.3c.7-2.3.9-3.5 1-4a439.55 439.55 0 0 0 2.5-.2v-.5c0-.6-.2-1.2-.5-1.7l1.3.8 1.3-.2c.4 1.3 2 2.3 2.2 2.5l.5.3.3-1.8c2 1.8 4.8 1.2 4.9 1.2l.3-.1v-.4c-.4-2.7-2.2-5.9-3.2-7.6 3.5 1.6 9.8 1.4 10.2 1.4h.5l-.1-.4c-.6-2.8-4.1-7.3-5.6-9 8.2 1.5 12.6-2.7 12.8-2.9l.3-.3-.3-.3c-2.8-2.4-9.1-5.2-11.7-6.3l.9-.2-.9-.5c-2.1-1.2-4.3-1.4-5.9-1.4v-.1c-1-1.1-1.4-1.3-1.6-1.3-5.5-.6-7.6-2.2-8.3-3.4-.1-.1 0-.2-.1-.3l.3-.3c.5-.7.7-1.6.7-2.6 0-2.5-1.3-5.4-1.4-5.6l-.7.3z"/>
        <path d="M836.8 167.86c-.02.08-.6 3.12-3.2 4.54-1.94 1.07-4.52 1-7.64-.26l-.35-.14.1.37c0 .08.2 1.87 1.9 3.18 1.4 1.1 3.4 1.47 5.9 1.2-.8 1-3.5 4.45-3.5 7.8v.53c.4.24 4.6 1.4 6.6-1.12.1 1.08.4 4.52 1.8 5.87.8.73.9 1.8.9 2.66 0 .7-.1 1.3-.1 1.3l-.1.6.5-.4c.2-.1 4.1-3 5.3-6.7 0 0 .6-1 1.8-1.4v.5c0 1.4.7 4 4.9 5.6l.4.1v-.3a7.13 7.13 0 0 1 0-.8c0-1.1.1-3 1.1-4 .7-.7.9-1.4.9-2.1 0-.5-.1-.9-.2-1.2.9.2 2.9.8 3.7 2.4 1.2 2.2 5.4.4 5.5.3l-.1-.4s-1.7.4-2.8-.4c-.5-.3-.8-.8-.9-1.5l-.2-2.3c-.1-1-.2-1.7-.7-2.3.5-.1 1.6-.1 2.1 1 .7 1.6 3.2 1.7 3.3 1.8h.9l-.7-.5s-2.2-1.5-1.8-3.3l.3-1.4c.6-2.5 1.6-6.6.8-9.2l-.4.2c.2.6.3 1.4.3 2.2 0 2.2-.6 4.9-1.1 6.7l-.3 1.4a2.6 2.6 0 0 0 0 .5c0 1.2.8 2.1 1.4 2.7-.7-.2-1.7-.5-2.1-1.4-.6-1.3-2.2-1.4-3-1.2l-.5.1.4.3c.8.5.8 1 .8 2.3l.2 2.3c.1.8.5 1.5 1.1 1.9.5.3 1.1.4 1.7.4-1.3.3-2.9.5-3.6-.6-1.1-2.1-4.3-2.7-4.4-2.7l-.5-.1.2.4s.4.6.4 1.4c0 .5-.2 1.2-.7 1.7-1.1 1.1-1.3 3.1-1.3 4.3 0 .2.1.2.1.4-3.6-1.5-4.2-3.7-4.2-5 0-.5.1-.9.2-.9l.1-.4-.4.1c-1.7.3-2.4 1.7-2.5 1.7-1 3-3.7 5.3-4.7 6.1a6.88 6.88 0 0 0 .1-.9c0-1-.2-2.1-1-3-1.4-1.4-1.6-6-1.6-6v-.8l-.4.7c-1.6 2.8-6.2 1.5-6.2 1.5-.2-3.6 3.9-8.2 3.9-8.2l.4-.5-.6.1c-2.6.3-4.7 0-6.1-1.1a4.63 4.63 0 0 1-1.7-2.5c3.1 1.2 5.7 1.2 7.7.1 2.8-1.5 3.4-4.6 3.4-4.8 2.9-6.6 5.5-7.6 5.5-7.6l-.2-.5c-.1 0-2.7 1.1-5.7 7.9z"/>
        <path d="M843.45 158.07h-.2l-2.36 3.25.7.07c12.8 1.2 19.6 8.9 19.6 9l.3.3 2.3-2.6-.2-.3c-6.5-10.3-20.2-10-20.3-10zm.22.8c1.6 0 13.27.37 19.2 9.33l-1.3 1.4c-1.38-1.44-7.95-7.58-19.23-8.9a631.23 631.23 0 0 1 1.33-1.83z"/>
        <path d="M841.6 164.84c-1.1 1.5-2.1 3.7-2.1 4.74 0 .2.02.36.1.45l.07.03c-1.34 1.2-2.13 3.2-2.13 5.46 0 1.24.22 2.54.68 3.77l.25.7c1.26 3.4 2.35 6.3 7.8 4.6 5.24-1.7 5.44-2 6.76-4.2l.35-.6c.72-1.2 1.5-1.4 2.34-1.7 1-.3 2.03-.6 2.94-2.4l.88-1.3c.96-1.3 2.15-3 2.3-5.1l-.47-.1c-.13 1.9-1.28 3.5-2.2 4.8l-.92 1.4c-.82 1.6-1.7 1.9-2.66 2.1-.9.2-1.8.5-2.7 1.8l-.4.6c-1.3 2.1-1.5 2.3-6.5 4-5.1 1.6-6-.9-7.3-4.4l-.3-.7c-1.5-3.8-.3-7.7 1.5-9.1l.6-.5-.9.1v-.2c0-.6.6-2.6 2-4.5 1.1-1.6 3.9-3.1 3.9-3.2l-.3-.4c-.1.1-2.8 1.6-4.1 3.3z"/>
        <path d="M839.16 178.65c.9.62 2.17.58 3.7 0 0 .54.12 1.7 1.07 2.54 1.12.9 2.96 1.1 5.5.5l-.1-.5c-2.38.5-4.1.4-5.1-.5-1.07-1-.92-2.5-.9-2.5l.03-.4-.37.1c-1.6.7-2.8.7-3.6.1-1.5-1.1-1.4-3.8-1.4-3.8h-.5c0 .1-.2 3 1.6 4.2z"/>
        <path d="M842.07 175c-.66.15-.83.7-.83 1.12 0 .1 0 .2.03.28.1 1.18 1.4 1.97 2.56 2.3 1.13.33 2.53.36 3.08-.35.3-.28.4-.8-.1-1.6-1.7-3-4.5-1.82-4.7-1.76zm1.9 3.26c-1.03-.3-2.15-.95-2.24-1.93-.03-.1-.14-.75.44-.9h.05c.1-.05 2.6-1.14 4.2 1.54.27.48.32.85.12 1.1-.34.44-1.45.52-2.58.2zM842 175h.05-.05zm1.63 5.98c-.3 2.5-.1 2.57.07 2.63l.16.1.18-.2 1.45-1.9-1.9-.8-.1.3zm.42.38l.74.34-.9 1.1c0-.36 0-.9.1-1.44zm-4.2-2.4l-.1 2.38 2-2.42-1.9-.2v.24zm.44.27l.5.06c-.2.2-.3.3-.6.7v-.8z"/>
        <path d="M838.53 178.2c.02.03 1.48 2.9 1.75 3.95.16.66 1 1.42 2.02 1.8 1 .37 1.96.3 2.66-.18l1.33-1.1c.4-.43.5-.55.9-.48l.1-.5c-.6-.1-.9.2-1.4.6l-1.3 1c-.8.5-1.8.3-2.3.1-1-.4-1.7-1-1.8-1.5-.3-1.1-1.7-3.9-1.8-4.1l-.4.2zm1.9-8.6c-1.6.75-2.3 2.7-2.32 2.8l.5.15c0-.02.7-1.87 2.1-2.53.7-.33 1.5-.3 2.4.02l.2-.42c-1-.4-1.9-.4-2.7-.02zm10.9 5.16c.13.1 3.2 2.4 1.43 5.24l.4.25c1.97-3.2-1.52-5.83-1.56-5.86l-.27.3zm-9.2.45s-.48 1.8 1.96 2.4c0 0-2.3 0-2.5-.6-.2-.6 0-1.9.5-1.7zm7.44 2.1c0 .2-.12.3-.27.3a.28.28 0 0 1-.27-.2c0-.1.12-.2.27-.2.15 0 .27.2.27.3zm.27 1.1c0 .2-.12.3-.27.3a.27.27 0 0 1-.27-.2.27.27 0 0 1 .27-.2c.15 0 .27.1.27.3z"/>
        <circle r=".27" cy="177.82" cx="848.01"/>
        <path d="M848.75 179.45a.27.27 0 1 1-.54 0c0-.15.2-.28.3-.28s.3.13.3.28zm-7.1-7.32a.27.27 0 0 1-.55 0c0-.15.13-.27.27-.27.16 0 .28.12.28.27z"/>
        <circle r=".27" cy="173.22" cx="841.65"/>
        <circle r=".27" cy="172.68" cx="840.09"/>
        <path d="M840.83 174.3a.28.28 0 0 1-.28.27.27.27 0 0 1 0-.54.28.28 0 0 1 .28.27zm4.74-9.55s3.52 2.17.13 6.23c0 0 1.67-1.24 1.84-3.36.18-2.13-1.2-3.82-1.97-2.87zm13.5 5.84c-1.13.5-2.76-.5-3.58-1.6-.9-1-2.5-1.3-3.6.6-1.1 1.8-2.6 2.5-2.6 2.5s1.5-.9 3-2.5 2.4-.3 3.8.4c1.5.8 1.7.9 2.7.5v-.2z"/>
        <path d="M858.78 170.86c-.46.35-1.3.64-2.2-.1-.9-.72-1.67-1.7-2.8-1.12-1.14.58-3.3 2.2-3.3 2.2s3.5-2.4 4.17-1.88c.67.52 2.24 1.8 3.2 1.43.96-.4.93-.6.93-.6z"/>
        <path d="M856.1 172.34c-1.1-.84-2.2 1-3.14.76-.93-.24-1.7-1.78-1.7-1.78s.88 1.63 2.1 1.25c1.23-.37 2.07-1.13 2.83-.55.7.58-.1.32-.1.32z"/>
        <path d="M854.37 172.57c-2.18.23-2.4-1.8-2.4-1.83 0 0 .7 1.78 2.62 1.45l-.3.3z"/>
        <path d="M854.3 171.18c.14.55.1.8-.47.8-.6 0-1-.2-1-.76 0-.57 1.38-.4 1.47-.04zm-7.84-3.03c0 .38-.3.7-.7.7-.4 0-.46-.27-.46-.65s.07-.73.46-.73c.4 0 .7.3.7.68z"/>
        <path d="M844.05 165.7s3.74.05 1.9 4.73c0 0 1.4-2.33.52-4-.9-1.68-2.3-1.26-2.3-1.26s-.35.32-.12.54z"/>
        <path d="M843.94 167.58c0 .94.62 1.9 1.86 2.88l.28-.36c-1.12-.88-1.7-1.72-1.68-2.5 0-.8.6-1.26.62-1.27l-.28-.37c-.03.03-.8.6-.8 1.62z"/>
        <path d="M844.77 168.37c.16.54.58.95 1.24 1.2l.2-.4c-.5-.22-.8-.53-.9-.93-.2-.8.4-1.72.4-1.73l-.3-.2c0 .1-.8 1.1-.5 2.2zm5.13 2.6s.7 1.5-.32 3.14c-1.02 1.7-1 1.6-1 1.6s1.23-2.2.77-3.2c-.47-.9.55-1.5.55-1.5zm14.55 15.8c3.84.7 12.5 7.5 12.6 7.58l.5-.64c-.37-.2-8.92-6.9-12.95-7.7l-.15.8zm3.4 9.58c.27 3.4 3.98 5.53 4.14 5.6l.3-.7c-.1 0-3.5-1.98-3.7-4.96h-.8zm-9.2.7c0 3.83 3.58 8.46 3.74 8.66l.6-.5c-.1 0-3.6-4.6-3.6-8.1h-.8zm-12.15.44c.63 1.2.57 1.9.4 2.2-.2.3-.58.4-.6.4l.1.8c.3-.1.9-.3 1.2-.8.4-.7.26-1.7-.38-3l-.72.3z"/>
      </g>
      <g fill="#fff" stroke="#000" stroke-width=".36">
        <path d="M429.57 216.3s.15 1.7 1.47 2.7c0 0-.15-1.85.23-2.62 0 0-.7-.78-1.7-.08zm2.63 1.08s.3 1.55 1.24 2.25l.54-.16s.23-1.93.54-2.16c.3-.2-1.3.7-2.32.1z" stroke-width=".24"/>
        <path d="M434.52 217.3l1 1.55 1.17-.62-.3-1.85s-.7-.16-2 .92zm4.72.32l-1.3 1.08s-.7-.54-1.25-.46l.2-1.7s.9-.7 2.3 1.08zm-9.36 16.02s-.23-2.4.08-2.56c0 0 .92.3 1.3-.07 0 0 .55 2 .4 2.8-.16.8-1.1.5-1.78-.1zm5.96-2.48s-.08-2 .3-2.25c0 0 1.94.3 2.4-.7l.7 2s-2.16-.2-3.4 1.1z" stroke-width=".24"/>
        <path d="M433.75 231.55s.4-2.1.78-2.17c0 0 1 .3 1.3-.08l-.06 2.56s.07-1.1-2.02-.3zm-2.24.3s.5-1.85.8-1.85 1.1.46 1.5.15v1.4s-1.7-.4-1.9 1.93l-.3-1.62z" stroke-width=".23"/>
      </g>
    </g>
    <g fill="#00a651" stroke="#000" stroke-width=".78">
      <path d="M461.68 270.4s5.26 4.9 3.9 9.15c0 0 3.37-7.27-.26-9.4-3.64-2.13-3.76-.5-3.64.25z" stroke-width=".52"/>
      <path d="M455.04 275.15s-1.38 1.9.13 3.27c0 0-1.63 2.37-.38 4.38 0 0-1 2.13-.8 4.4 0 0-.9 3.5 1 5.13 0 0 2 1 2.9.12 0 0 1.7-2.63.6-5.4 0 0 1.2-2.24-.1-5.13 0 0 .3-1.63-.8-3.5 0 0 .7-1.26.1-2.26 0 0-2.5-2.63-2.8-1z" fill="#964b36" stroke-width=".52"/>
      <path d="M456.54 269.02S450.28 257 445.9 256.5c-4.4-.52-4.64-4.77-4.64-4.77s.5 2 4 2 10.28 4.9 11.03 8.64c.7 3.76 1.5 3.26 1.5 3.26l-1.3 3.4z" stroke-width=".52"/>
      <path d="M456.54 268.14s2.26-15.16 12.16-15.4c9.9-.27 6.64.74 9.02-.9 0 0-6.64 3.52-10.77 4.02-4.14.5-7.52 8.52-7.4 10.02.13 1.5-2.25 4.4-3.38 3.4-1.13-1.02.37-1.14.37-1.14z" stroke-width=".52"/>
      <path d="M458.8 273.78s2.25-6 6.14-4c0 0-3-5.77-8.4-.76 0 0 2.38 3.26 2.26 4.76zm-7.52-6.02s3.26 13.4-1.76 17.54c0 0 .13-6.88-2.88-11.02-3-4.14 3-8.65 4.64-6.52z" stroke-width=".52"/>
      <path d="M451.66 270.15s5.9 5.64 6.26 7.52c.38 1.88 1.76-5.64-1-7.77s-5.76-2.5-5.76-2.5l.5 2.75z" stroke-width=".52"/>
      <path d="M440.8 284.93s.53 2.37 1.98 2.82c0 0 .08 1.76 1.38 2.3 0 0-.7 1.45.46 2.36 0 0-.24 3 .83 3.6 0 0 2.6-.1 3.52-.9 0 0 .53-1.9-.92-3.8 0 0 .23-1.8-1.22-2.8 0 0 .46-2.4-1.38-3.3 0 0-.3-2-1.45-3 0 0-2.2 3.2-3.2 2.9z" fill="#964b36" stroke-width=".52"/>
      <path d="M443.7 282.02s-7.72-2.82-12 1.23c0 0 6.57.9 7.4 2.2.85 1.3 4.9-2.13 4.6-3.43z" stroke-width=".52"/>
      <path d="M441.32 286.84s-.6-.54-1.37-1.07c-.76-.54-7.26-2.3-8.18 3.97 0 0-2.37-6.2 1.07-7.03 3.44-.8 6.2 1.2 8.48 4.2m-5.07-12.8s2.37 5.2 3.25 5.4c.88.3 1.5-.6 1.5-.6s-3.13-4.6-4.76-4.7zm-1.76-7.9s-2.1-6.6-4.4-4.9c-2.4 1.8-1.8 6.6-1.8 6.6s-4.8-4.9-2-8.7c2.7-3.9 8.1.4 8.1 7.2z" stroke-width=".52"/>
      <path d="M439.88 279.8s0 1.25.88 1.62c.88.38 2.5 1 2.5.25s-1.25-3.63-1.75-3.25c-.5.37-1.3.37-1.6 1.38z" fill="#964b36" stroke-width=".52"/>
      <path d="M438.38 272.03s-.25-5.76 3.5-7.9c0 0 .76.13 1.14-1 0 0-3 7.27-2.14 10.9l-.12.5" stroke-width=".52"/>
      <path d="M439.13 265s6.77-14.03 15.04-9.14c0 0-8.65 1.75-11.78 7.9l-3.2 4.63-.2-3.4z" stroke-width=".52"/>
      <path d="M435.5 270.15s-2-9.4-3.26-10.65c-1.26-1.25-3.4-2.63-5.9-.5 0 0 4.4-3.9 9.03-.63 4.63 3.26 3.63 8.4 3.63 8.4l-.5 6.5-3.13-2.87" stroke-width=".52"/>
      <path d="M442.76 281.3s-8.27-15.66-13.66-4.5c0 0-1 2.87.13 4 0 0-3-2.26-1.63-7.77 1.37-5.5 10.52-3 13.16 1.5 2.63 4.5 3.38 6.77 3 7.02-.37.25-1-.25-1-.25zm23.3 4.5s6.03-12.4 9.54-6.76c0 0 1 2.76-.5 3.9 0 0-2.4-2.9-4.52.62-2.13 3.5-1.25 3.25-1.25 3.25s-2.26.7-3.26-1z" stroke-width=".52"/>
      <path d="M475.1 282.93s3.24 1.75 2.12 5.26c0 0 4.38-8.4-1.63-9.2 0 0 1.1 2.6-.5 3.9zm.37-8.52s7.9 2.3 8.14 5.7c0 0 1.4-6.5-3.1-8.5 0 0-5.4.9-5 2.9zm3.5-10.4c3.4-6.6 7.65 2.2 7.65 2.2s1.5-6.9-2.76-8.1c-4.26-1.3-7 14.6-7 14.6l-5.03 1.1s1.38-13.9 8.9-15.1l.88.1" stroke-width=".52"/>
      <path d="M472.96 268s-4.76-9.76-8.02-10.76 1.76-2.5 3.76-.63c2 1.9 5.76 4.3 5.4 9.3l-1.14 2.2zm-4.9 13.42s1.4-6.64 5.15-8.64c3.8-2 7.3-1.25 7.3-1.25s-4.5 1-5.2 3.25c-.7 2.26-2 2.38-2 2.38l-5.1 4.26z" stroke-width=".52"/>
      <path d="M466.07 285.8s-2.13 4.02-1.63 4.65c0 0-2.25 3.26-1.38 4.88 0 0 2.26 1.76 3.26 1 0 0 2.63-3.63 1.88-5.63 0 0 1.75-2.38 1.13-3.88 0 0-2.63.12-3.26-1z" fill="#964b36" stroke-width=".52"/>
      <path d="M455.05 278.65c.14.07 1.4.7 2.26.4l.6-.52-.4-.23c-.3.62-1.7.1-2.1-.12l-.2.47zm-.2 3.9l-.1.52c.1.02 2.64.5 3.85-.57l-.36-.4c-1 .9-3.37.45-3.4.44zm-.65 4.42l-.32.43c.03.02 3 2.13 4.88-.17l-.42-.34c-1.57 1.9-4.04.1-4.14 0zm-11.48.64l.1.3c.12 0 2.62-1 2.78-2.9h-.3c-.15 1.7-2.55 2.6-2.58 2.6zm1.42 2.3l.02.3c.1 0 2.4-.1 2.8-1.8h-.3c-.34 1.4-2.5 1.6-2.52 1.6zm.48 2.4l-.02.3c.1 0 2.7.2 3.58-1.3l-.26-.1c-.8 1.3-3.28 1.2-3.3 1.2zm19.63-1.6c.05.1 1.16 1.2 2.47 1.1.63 0 1.2-.3 1.68-.8l-.4-.3c-.38.5-.82.7-1.3.7-1.07.1-2.06-.9-2.07-.9l-.38.4z" fill="#000" stroke="none"/>
    </g>
    <g fill="#964b36" stroke="#000" stroke-width=".28">
      <path d="M542.07 299.8a1.1 1.1 0 0 0-.4.27l.4-.27zm9.2-2.3c-.08-.24-.14-.14-.26-.24-.1-.14-.2-.58-.4-.75-.1-.1-.2 0-.2 0l-.7-1.4a.4.4 0 0 0 .1-.2 7.6 7.6 0 0 0-.1-.4c0-.1-.2 0-.2-.2v-1c0-.2.1-.4.1-.5 0-.1-.1-.3-.1-.4l-.3-1.1c0-.4.1-.6.1-1 .1-.4-.1-.6-.1-1 0-.3.1-.6.2-.9 0-.3.1-.9 0-1.2s-.1-.6-.1-.9c0-.1.1-.2.1-.3v-1.5c0-.1-.1-.3-.1-.4 0-.2.1-.3.1-.6 0-.2-.1-.2-.1-.4-.1-.3 0-.6-.1-1 0-.1-.1-.2-.1-.4s0-.3.1-.4v-.5c-.1-.2-.2-.3-.1-.5l-.1 2.5-.2-4.2-3.3-1.6s-.3 6.1-.2 7c.1.9.4 6.7.2 7.4l-.5 4.3s-1.6 1.2-2.2 2.4c-.6 1.3-.5 1.7-.7 1.7l1.6-.3-1.2.8a.72.72 0 0 1 .8.1c.1.1.2.2.3.2s.2-.1.2-.2c.3 0 .5.4.7.4.1 0 .3-.2.4-.3.1-.1.2-.3.2-.4.1-.1.3 0 .4 0h.7c.3 0 .6-.4.9-.7.2-.2.4-.3.7-.3.3.1.6.4.9.4.3 0 .4.1.6-.2.2-.2.2-.4.4-.6l.8-.1c.2.1.3.2.5.2h.6c.1 0 .2.2.3.2l.2-.3c0-.1 0-.3-.1-.4z"/>
      <path d="M544.53 299.7c.2 0 .4-.06.56.1v.14a.17.17 0 0 0 .1.03c.1.07.1.12.2.14.1.1.2 0 .3 0l.3.2c.2.1.4 0 .6-.1.2-.2.3 0 .6.2.1.2.1.2.3.1v-.1h.2c.1-.1.2-.1.4-.1.1-.1.2-.2.4-.2.1.1.2.1.3.2a.75.75 0 0 1 .2.1c.1-.3.5-.4.7-.6.2-.1.4.1.7.1.1 0 .2-.1.3-.1h.3c.1 0 .1-.1.2-.1.3 0 .5.4.7.4.1.1.7.2.6-.2-.1-.4-.5-.1-.6-.4 0-.1.1-.4 0-.6 0-.1-.2-.3-.3-.4-.1 0-.2.1-.3 0-.1-.1-.1-.4-.2-.5-.1.1-.2.2-.3.1-.2 0-.2-.1-.3-.3-.3-.3-.5.2-.7.1-.2 0-.4-.5-.6-.7-.1-.1-.3-.4-.4-.3-.2.1 0 .5-.1.7-.1.1-.3 0-.4 0-.2.1-.2.1-.3.3-.2.3-.4.6-.7.6-.2 0-.3-.2-.5-.1s-.3.3-.5.3a.98.98 0 0 1-.4 0c-.1 0-.3-.3-.4-.3a.15.15 0 0 0-.2 0 8.66 8.66 0 0 0-.2-.1c-.2 0-.2 0-.3.2-.1.2-.1.4-.2.5-.1.2-.2.3-.3.4-.2.2-.3.1-.4.2-.2.1-.4.3-.5 0-.1-.4.3-1.1-.2-1-.1 0-.2.1-.3.3-.1.2 0 .4 0 .6-.1.3-.6.8-.5 1.1.1.2.3-.1.4 0 .1.1.1.3.2.4.2.3.7-.4.7 0m-2-2.8v-.2c-.2 0-.3-.1-.4-.1s-.4.3-.5.5c-.3.5-.2 1-.7 1h-.5c-.2.1-.1.5-.1.7 0 .2.1 0 0 .3-.1.1-.2.1-.2.2-.1.4.2.3.3.3h1c.2 0 .3-.1.5-.2.1 0 .4 0 .5-.2a2.2 2.2 0 0 0 .2-.4v-.5c0-.2.2-.1.3-.4.1-.7-.7-.1-.5-.8"/>
    </g>
    <g stroke="#000" stroke-width=".52">
      <path d="M550.8 277.9c0 .9-.6 1.63-1.37 1.63-.76 0-1.38-.73-1.38-1.63 0-.9.62-1.63 1.38-1.63.76 0 1.38.73 1.38 1.63zm-4.5-2c0 .9-.62 1.62-1.38 1.62s-1.38-.73-1.38-1.63c0-.9.62-1.7 1.38-1.7s1.38.7 1.38 1.6z"/>
      <path d="M548.68 276.52c0 .9-.62 1.62-1.38 1.62-.76 0-1.38-.72-1.38-1.62 0-.9.62-1.63 1.38-1.63.76 0 1.38.7 1.38 1.6z"/>
      <path d="M546.37 278c0 .9-.62 1.64-1.38 1.64-.8 0-1.4-.73-1.4-1.63 0-.9.6-1.6 1.3-1.6.7 0 1.3.8 1.3 1.7z"/>
      <path d="M548.5 279.25c0 .9-.6 1.63-1.37 1.63-.76 0-1.38-.73-1.38-1.63 0-.9.62-1.63 1.38-1.63.76 0 1.38.73 1.38 1.63z"/>
    </g>
    <path d="M549.18 261.48s13.9-19.42 28.82.75c0 0 .12 2-1.25 4.14l-.38-1.63-.88.25-.3-1-1.7-.2.5-2.2-1.8 1.4.2-1.5-2 2 .2-4.3-2.2 3.6.2-2.5-.8 1.1-.4-1.5-.7 1.5-1-.8v1l-1.8-1.5-.6 2-.9-2.2-.2 1.5-.9-1.8-.1 1.8-2.9-1.3.6 1.7-1.4-1 .2 1-1.9-.4.1 1.1-2-.4.3 1-2.8-.4 1 1.1-.3.4s15.1-5 16.1 13.8l-2.8 1.4.8-1.5-.8-.5-2.3-1.8.6-2.4-.8.3-.1-1.4-.4.2-.9-1.4-.2.5-.6-1.7-.7 1.1-.4-2.8-1 1.8-.1-1-.4.6-1.3-1.5-.4 1-.5-.8-.4.9-1.4-1.2v1l-.9-.7-.4.5-2.1-1.1-.1 1-1.1-1-.4 1s13.7 7.7 9.4 20.4l-.8 1.6-.3-4.3-1.3 2.2.9-4.9-.9.9-.2-1.9-1.1 1.9-.4-2.2-.5.6-.7-3.3-.6 1.4-1-3.6-.8 1.5-.5-3.1-.5 1.9-1.5-2.8-.3 1.1-.8-2.2-.5.8s-2.5-.2-3.3-.8c-.7-.6-2.8 3.7-2.8 3.7l.3-2.6-.9 1.8V275l-1.6 5.3-.4-3.77-.8 3.3-.4-1-.3 1.4-.5-.5-.45 1.5-.8-.6v2l-.8-1-.6 3-.4-1.27v1.3l-.6-.77-.7 3-.9-1.3-.14 2.2.35 1.6-1-.5.4 2.6s-3.9-7.3.7-14.3c4.7-7 10.9-8.9 10.9-8.9l-.6-.7-.1-.7-3.8 1.8.1-1.1-1 .9-.2-1.3-.6 1.1-.1-.5-.8 1.4-.5-2-.7 2.4-.6-1.7-1.2 3.5v-2l-1 2.8-.3-3-.8 3.5v-3l-1.2 3.1-.8-3-.5 2.9-.8-2.3-.7 3.3-1.1-3-.7 4.5-.7-1.8-.14 3.2-.8-2 .8 4.2-1.2-1.7.4 2.6-1.6-2.9.1 3.4-.9-1.1-.4 1.2s-.4-13.1 8.5-15.6 14.7.8 14.7.8l-3.4-2.8.35-.9h-1l.5-1-2.65.1.7-1-2 .2v-.6l-1.3 1 .5-1.2-1.8 1.1-.1-1.7-.9 1.4-.5-1.5-4 4 1.1-4.2-.8.9-.1-.9-1.1 1.7-.3-1.2-.5 1.5-.4-1.8-.9 1.8-.9-1.6-.4 2.1-.7-1.1-.8 1.6-1-1-.1 1-2-.9.5 1.5-1.5-1.3-.4 2-.9-1-.6 2.5-.7-2.4-.6 1.9s7.8-20.2 27.7-7c0 0 2.1 2.1 2.6 3.6s.1.2.1.2l-.4-13.9.7 6 .5-2.17-.1 3.1 2-4.4s-2.4 7.3-1.5 9.9c0 0 .9-8.3 3.9-9.4L547 256l.9-.1-.7 1.23h.7l-.9 2-.5 1 .5 1 .8-.8z" fill="#00a651" stroke="#000" stroke-width=".52"/>
    <path d="M547.12 269.65l.4.36c.05 0 1.3-1.3 3.37.4l.3-.4c-2.5-2.1-4.1-.3-4.1-.3zm-.6-6.82l-.1.48.98-.4-.67 1.2 1.44-.5-1.78 2.4.4.4 2.8-3.7-1.8.6.7-1.3-1.6.7.3-1.9-.5-.1-.4 2.4z"/>
    <path d="M543.86 262.98l.6 1.36-.97-.4 2.9 5.12.3-.48-.6 1.5.5.2 1.2-3.2-.5-.27-1 1.3c-.3-.5-1.3-2.2-1.8-3.1l.8.4-.8-1.7 1.1.7v-1.9h-.6v1l-1.8-1.1.3.8zm-1.82 6.42l.2.5c.8-.34 1.44-.4 1.93-.16.57.27.75.86.75.87l.5-.1s-.22-.8-1-1.2c-.65-.3-1.44-.2-2.38.2zm2.24 5.42l-.44-2.8.53-.08.44 2.8zm3.85-.46l-.7-2.14.5-.17.7 2.14zm1.4 1.58l-.52-2.14.6-.13.6 2.14z"/>
    <path d="M442.57 340.24s-2.35-1.07-3.42-.3c-1.07.8-.92 1.93-1.85 1.86 0 0 3.56.8 4.34-.14.78-.92.93-1.2.93-1.2m.43.76s-1.55 2.07-1 3.28c.52 1.2 1.67 1.3 1.4 2.2 0 0 1.53-3.3.8-4.27-.74-.96-1-1.16-1-1.16m-2.8-5.77s-2.47.76-2.75 2.05c-.28 1.3.58 2.06-.15 2.62 0 0 3.18-1.78 3.15-3-.03-1.2-.1-1.52-.1-1.52m1.3.7s1.16-2.3.43-3.4c-.74-1.1-1.9-1-1.77-1.93 0 0-.9 3.52 0 4.34.9.82 1.2.98 1.2.98m-2.2-.83s.1-2.5-1.1-3.2c-1.1-.6-2.1-.1-2.4-1 0 0 .7 3.6 1.9 4 1.2.4 1.5.4 1.5.4m4.4 4.2s2.7-.9 3 2c.2 3-.1 2-.1 2s-1.4-3.1-3-3.6l.2-.3z" stroke-width=".52" fill="#00a651" stroke="#000"/>
    <path d="M442.95 341.27l.3 2.27.37-.05-.3-2.3c.02 0 .94-4.9.94-4.9l-.38-.1-.93 4.9z"/>
    <path d="M440.5 340.55l-.13.36c1.3.5 3.1-.9 3.17-1l-.24-.3s-1.7 1.4-2.8 1zm3.38-2.85l-6.05-3.06.24-.48 6.05 3.06z"/>
    <path d="M439.5 337l-.38-.37 1.2-1.2.4.37zm2.1-.58l-1.27-2.78.5-.22 1.27 2.78zm1.8 3.4l.04.54c1.65-.1 2.05.95 2.05.97l.5-.1c-.1-.32-.7-1.53-2.6-1.4z"/>
    <path d="M471.17 341.06c2.02-1.13 2.42-5.1 2.42-5.1-.5 1.46-4.2 2.9-4.2 2.9 2.7-1.7 6-9.35 6-9.35-.9 2.8-8.1 5-12.7 7.6-4.6 2.6-2.2 10-2.2 10-1.3-.8-3.8-4.8-4.3-8.3-.5-3.4-1.9-4.8-5-5.2-3.2-.4-5 3.2-5 3.2l-4.7 2.5 4.8.2s3.4 1.2 3.4 3.8c0 2.7-3 13.3 1.9 19.3 3.4 4.2 16 6.6 16 6.6" fill="#fff" stroke="#000" stroke-width=".67"/>
    <path d="M461.9 349.3s.96-4.78 4.1-4.62c3.15.17 4.04-3.55 5.9-4.1 1.85-.58 11.46-3.16 12.5-7.76 0 0-.88 7.6-9.67 11.38 0 0 7.1-2.34 7.9-3.87 0 0-3.14 6.78-10.8 7.83 0 0 7.17-.57 8.22-2.5 0 0-3.23 4.27-8.55 4.84 0 0 4.92 2.02 6.2.32 0 0-2.65 3.15-5.96 3.4l.9.23s-3.16 3.72-6.63 1.2c-3.4-2.5-3.5.66-3.5.66" fill="#fff" stroke="#000" stroke-width=".67"/>
    <path d="M469.06 356.47s4.05 6.78 4.46 10.4c0 0 7.75 8.57 10.65 9.05 0 0-1.37.56-3.88-1.53 0 0 2.1 2.1 2.5 2.2.4.1-1.7-.2-2.1-.8 0 0 .9 1.3 1.4 1.4l-.6-.2s-1.1-.2-1.6-.6c-.5-.4-.2 1-.2 1s-1.2-.3-1.6-.7c-.5-.4.1.9.1.9l-1-.3-.8.5s-.1.5-.6.1-1.4 0-1.4 0-.7.5-1 .1c-.3-.4-1.6 1.6-1.6 1.6l-5-12.2" fill="#fff" stroke="#000" stroke-width=".67"/>
    <path d="M473.88 378.72l-6.42-12.22.67-.36 6.42 12.23zm5.6-.82l-10.98-12.3.57-.52 11 12.3zm2.52-1.08l-12.54-11.7.52-.55 12.54 11.7z"/>
    <g transform="matrix(.7 0 0 .7 -96.9 97.5)">
      <path d="M823.44 360.84s-1.23-2.2-2.3-1.38c-1.07.83-1.7.98-1.87.92 0 0 1.07.06 1.68-.52.62-.6 1.66-.22 2.5.98zm-6.66-1l.7 1.4c-.08.02-.78 2.27-.78 2.27l.55.2.75-2.4c0-.2-.7-1.6-.7-1.6l-.52.3z"/>
      <path d="M823.16 360.5s-.92 1.07-2.18.77l-1.25-.3 1.78.08c.7.03 1.7-.33 1.7-.55z"/>
      <path d="M822.86 360.72s-1.13-1.2-1.9-.86c0 0 1.35-.43 2.12.73l-.22.1z"/>
      <path d="M822.67 360.5s-1.3.9-2.7-.1l-.1-.06.2-.05s1.78.7 2.6.2z"/>
      <circle r=".38" cy="360.28" cx="821.57"/>
    </g>
    <path d="M450 359.63s-.65 1.2-.3 1.95c.35.73 1.92 1.1 2.13 2.1.2.97.74.97 1.47.83l.87-.1s-3.07-1.6-3.88-4.3l-.3-.4z"/>
    <g fill="#964b36" stroke="#000" stroke-width=".48">
      <path d="M549.4 334.8s5.6-7.4 10.56-5.45c4.96 1.94 8.2 2.87 8.2 2.87s.08 4.97-2.56 4.97c-2.63 0-5.16-5-7.56-3.5-2.4 1.4-4.37 3.5-4.53 4.2-.1.7-6.3.8-4.1-3.1z" stroke-width=".32"/>
      <path d="M528.16 370.38s-1.55 1.62-.85 2c.7.4 2.1-.07 2.1-.6 0-.56-.9-1.56-1.2-1.4z" stroke-width=".52"/>
      <path d="M526.92 371.92s-2.87-1.63-5.12 2.25c-2.25 3.87-4.1 10.16-5.42 11-1.32.86 12.8-6.2 12.94-9.14 0 0 .93-3.8-.54-3.72-1.47.1-1.55.3-1.86-.3z" stroke-width=".52"/>
      <path d="M527.3 372.4s-2.94.68-3.56 4.87c-.62 4.2-4.73 6.36-4.96 6.5m49.37-51.54s-4.48 1.55-3.7 4.66" stroke-width=".32"/>
    </g>
    <path d="M533.74 341.3s.15-10.62 8.83-10.16c1.65.16.86 2.1.86 2.1s1.88-1.32 2.74.77c0 0 2.74-1.2 3.05 1.5 0 0 2.97-.4 2.58 2 0 0 2.03-.4 1.95 1.3 0 0 2.35-.9 2.1 1.5 0 0 2.6-1.7 2.2 1.4 0 0 2.66-1.8 3.6 1.3.93 3.1-2.66 9.7-6.18 11.4" fill="#fff200" stroke="#000" stroke-width=".32"/>
    <path d="M557.86 341.95c0 .08 1.17 8.3-3.5 11.32l.16.26c4.84-3.12 3.65-11.54 3.64-11.63l-.3.05zm-5.62 9l.2.23c2.97-2.88 3.6-10.63 3.62-10.95l-.3-.03c0 .08-.65 7.96-3.52 10.75zm-2.76-1.84l.3.1c.38-4.8 4.12-10.2 4.16-10.3l-.25-.2c-.1.1-3.9 5.6-4.3 10.5zm-2.17-1.3l.3.1c.6-5.7 4.4-10.1 4.4-10.1l-.2-.2c0 .1-3.9 4.5-4.4 10.4zm-3-1.9h.3c.3-6.8 4.8-10.1 4.8-10.2l-.1-.2c0 .1-4.6 3.5-4.9 10.5zm-2.8-1.7h.3c-.2-6.2 4.6-9.9 4.6-9.9l-.2-.2s-4.9 3.8-4.7 10.2zm-5-2.2l.3.1c.9-6.7 6.8-8.4 6.9-8.4l-.1-.3s-6.2 1.8-7 8.7z"/>
    <path d="M528.62 354.17s-1.47-9.85 4.42-12.94c0 0 1.1-.24 1.7 1.16 0 0 3.1-1.4 3.2 1.3 0 0 1.54-1.3 1.92.4 0 0 3.34-.7 2.72 1.8 0 0 2.8-.8 2.56 1.6 0 0 2.8-1 2.32 1.1 0 0 2.95-.7 2.25 1.7 0 0 3.7-.4 2.6 2.2 0 0 2.7-.7 2.1 1.4 0 0 3.6.6 2 2.8-1.6 2.2-5.7 5.6-9.7 7.1" fill="#00a651" stroke="#000" stroke-width=".32"/>
    <path d="M525.44 364.1s-2.4-8.22 2.18-10.32c0 0 .84-.23 1 .62 0 0 1-1.32 1.8-.15 0 0 2.3-1.1 2.86.62 0 0 1.54-1.32 2.32.6 0 0 1.47-.6 1.47.95 0 0 2.02-.86 2.02 1 0 0 1.9-.77 1.5 1.32 0 0 2.9.47 2.1 1.86 0 0 2.6.7 1.6 1.8 0 0 2.8-.32 1.3 1.6 0 0 2.1-.68.9 1.72-1.3 2.4-5.1 5.04-7.9 5.35" fill="#00a651" stroke="#000" stroke-width=".32"/>
    <path d="M528.3 370.6s-5.1-4.96-2.7-6.43c0 0 1.08.3 1.47 1.4 0 0 1.24-1.8 1.94.07 0 0 1.9-.62 1.9.62l1.5 1.1s1.7-.17 1.4.92c0 0 1.9-.24 1.8.77 0 0 1.7.08 1.5 1.16 0 0 2.8.5 1.6 1.9 0 0-4.9 1-8.3-.4 0 0-1.8-.6-1.9-1.1z" fill="#00a651" stroke="#000" stroke-width=".32"/>
    <path d="M545.86 362.4l.1.3c3.03-1.18 8.3-8.37 8.52-8.67l-.24-.18c-.06.07-5.44 7.42-8.38 8.55zm-1.73-1.3l.15.26c2.64-1.47 7.9-8.43 8.1-8.72l-.23-.2c-.05.1-5.44 7.22-8.02 8.65zm-1.5-.62l.2.24c2.8-2.32 6.85-9.95 7.02-10.28l-.27-.14c-.04.08-4.2 7.9-6.94 10.18zm-1.36-1.76l.3.04c.53-3.86 5.95-9.94 6-10l-.22-.2c-.22.25-5.54 6.2-6.08 10.16zm-10.86-4.7l.4-.02c-.4-5.45 4.1-11.46 4.2-11.52l-.2-.2c0 .07-4.7 6.17-4.2 11.75zm2.9.48l.3-.05c-.7-4.37 4.4-10.6 4.5-10.65l-.2-.2c-.2.26-5.3 6.4-4.5 10.9zm4.4 1.6h.3c-.1-5 4.7-10 4.7-10.04l-.2-.2c0 .04-4.9 5.13-4.7 10.25zm-10.5 9.06l.3-.1c-1.7-4.62 1.3-10.53 1.3-10.6l-.2-.13c0 .06-3.1 6.1-1.3 10.83zm2 .3l.3-.1c-1.5-4.7 1.1-11 1.1-11.05l-.3-.1c0 .1-2.6 6.5-1.1 11.3zm8.3 4.7l.1.28c5-1.78 8.2-6.3 8.2-6.34l-.2-.17c0 .04-3.2 4.48-8 6.22zm-1-1.1l.1.3c4-1.8 7.7-6.75 7.7-6.8l-.2-.18c0 .05-3.6 4.94-7.5 6.7zm-.9-.36l.2.25c3.1-2.24 7.1-7.97 7.1-8.03l-.2-.17c0 .06-3.9 5.74-7 7.95zm-4.9-2.88l.3-.04c-.7-4.93 2.5-10.78 2.6-10.84l-.2-.15s-3.2 6-2.6 11zm2.2 1.34l.2.22c3.2-2.87 4.3-10.62 4.3-10.94l-.3-.05s-1.1 7.9-4.2 10.7zm2.2.9l.2.26c4.5-3.25 5.7-9.5 5.7-9.55l-.3-.06c0 .1-1.2 6.2-5.6 9.4zm.5-13.44c0 .3 0 .6.1.88l-3.4 11.03.3.1 3.4-11.1c-.5-5.36 4.2-11.2 4.3-11.27l-.2-.2c0 .07-4.3 5.4-4.3 10.56z"/>
    <path d="M538.97 357.32c-.04.16-1.08 7.73-5.16 10.52l.2.25c4.2-2.9 5.2-10.4 5.3-10.7 1.8-2.2 6-9.7 6.1-9.8l-.2-.2s-4.2 7.6-6 9.8zm-12.05 8.28c.03.15.7 3.92 1.5 5.24l.26-.15c-.76-1.3-1.45-5.2-1.46-5.2h-.3zm1.93.04c.04 1.87.05 4.95-.06 5.22l.2.1c.1-.38.1-4.5.1-5.32h-.3zm.18 5.36l.28.13c1.4-2.85 1.8-4.82 1.8-4.84l-.3-.1s-.4 1.9-1.7 4.8z"/>
    <path d="M529.32 371.1l.15.26c2.44-1.42 3-3.87 3.02-3.98l-.3-.06c-.1.02-.6 2.43-2.9 3.77z"/>
    <path d="M529.77 371.3l.03.3c2.4-.23 4-3.12 4.08-3.25l-.27-.14c0 .1-1.6 2.9-3.8 3.1z"/>
    <path d="M530 371.46l.03.3c3.83-.23 5.55-2.52 5.62-2.6l-.25-.2c-.02.02-1.7 2.27-5.4 2.5z"/>
    <path d="M530.28 371.54l-.06.3c.2.04 5.08 1.08 6.75-1.46l-.26-.17c-1.5 2.4-6.3 1.4-6.4 1.4z"/>
    <path d="M420.9 193.24V329.6c0 44.6 80.57 71.07 80.57 71.07s80.58-26.48 80.58-71.08V193.2z" fill="none" stroke="#000" stroke-width="2.79"/>
  </g>
  <path d="M0 0v240.34h358.04V0H0z" fill="#002868"/>
  <path style="line-height:normal;text-indent:0;text-align:start;text-decoration-line:none;text-decoration-style:solid;text-decoration-color:#000;text-transform:none;block-progression:tb;isolation:auto;mix-blend-mode:normal" d="M0 0v26.87l139 93.3-139 93.3v26.87h40.03l139-93.3L318 240.34h40.04v-26.87l-139-93.3 139-93.3V0H318L179.03 93.3 40.03 0H0z" color="#000" font-weight="400" font-family="sans-serif" white-space="normal" overflow="visible" fill="#fff"/>
  <path d="M0 0v17.9l152.33 102.27L0 222.42v17.92h26.7L179 138.08l152.33 102.26h26.7v-17.92L205.7 120.17 358.04 17.9V0h-26.7l-152.3 102.25L26.7 0H0z" style="line-height:normal;text-indent:0;text-align:start;text-decoration-line:none;text-decoration-style:solid;text-decoration-color:#000;text-transform:none;block-progression:tb;isolation:auto;mix-blend-mode:normal" color="#000" font-weight="400" font-family="sans-serif" white-space="normal" overflow="visible" fill="#ce1126"/>
  <path style="line-height:normal;text-indent:0;text-align:start;text-decoration-line:none;text-decoration-style:solid;text-decoration-color:#000;text-transform:none;block-progression:tb;isolation:auto;mix-blend-mode:normal" d="M149.18 0v80.1H0v80.13h149.18v80.1h59.67v-80.1h149.2V80.1h-149.2V0H149.2z" color="#000" font-weight="400" font-family="sans-serif" white-space="normal" overflow="visible" fill="#fff"/>
  <path style="line-height:normal;text-indent:0;text-align:start;text-decoration-line:none;text-decoration-style:solid;text-decoration-color:#000;text-transform:none;block-progression:tb;isolation:auto;mix-blend-mode:normal" d="M161.12 0v96.14H0v48.06h161.12v96.14h35.8V144.2h161.12V96.14H196.92V0h-35.8z" color="#000" font-weight="400" font-family="sans-serif" white-space="normal" overflow="visible" fill="#ce1126"/>
</svg>
