<svg xmlns="http://www.w3.org/2000/svg" xmlns:xlink="http://www.w3.org/1999/xlink" height="480" width="640" viewBox="0 0 640 480">
  <defs>
    <radialGradient id="a">
      <stop offset=".22" stop-color="#f9f0aa"/>
      <stop offset="1" stop-color="#b07e09"/>
    </radialGradient>
    <radialGradient r="16.53" cy="308.27" cx="447.42" gradientUnits="userSpaceOnUse" xlink:href="#a" id="d"/>
    <radialGradient r="10.91" cy="313" cx="451.56" gradientUnits="userSpaceOnUse" xlink:href="#a" id="e"/>
    <radialGradient r="9.78" cy="308.64" cx="454.11" gradientUnits="userSpaceOnUse" xlink:href="#a" id="f"/>
    <radialGradient r="17.35" cy="307.06" cx="458.39" gradientUnits="userSpaceOnUse" xlink:href="#a" id="g"/>
    <radialGradient r="13.02" cy="252.36" cx="445.98" gradientUnits="userSpaceOnUse" xlink:href="#a" id="j"/>
    <radialGradient r=".34" cy="215.27" cx="477.86" gradientUnits="userSpaceOnUse" id="m">
      <stop offset=".26" stop-color="#a50a0a"/>
      <stop offset="1" stop-color="#4c0505"/>
    </radialGradient>
    <radialGradient id="n" cx="489.07" cy="210.33" fx="489.07" fy="210.33" r=".34" gradientUnits="userSpaceOnUse">
      <stop offset="0" stop-color="#fff"/>
      <stop offset="1" stop-opacity="0" stop-color="#fff"/>
    </radialGradient>
    <linearGradient y2="231.96" x2="472.36" y1="259.17" x1="473.91" gradientUnits="userSpaceOnUse" id="h">
      <stop offset=".22" stop-opacity="0" stop-color="#b07e09"/>
      <stop offset="1" stop-color="#b07e09"/>
    </linearGradient>
    <linearGradient y2="326.58" x2="485.5" y1="296.66" x1="483.13" gradientUnits="userSpaceOnUse" id="i">
      <stop offset=".22" stop-opacity="0" stop-color="#b07e09"/>
      <stop offset="1" stop-color="#b07e09"/>
    </linearGradient>
    <linearGradient y2="240.58" x2="455.37" y1="249.52" x1="451.54" gradientUnits="userSpaceOnUse" id="k">
      <stop offset=".22" stop-color="#f9f0aa"/>
      <stop offset="1" stop-color="#b07e09"/>
    </linearGradient>
    <linearGradient y2="270.45" x2="475.93" y1="237.25" x1="473.31" gradientUnits="userSpaceOnUse" id="l">
      <stop offset=".22" stop-color="#f9f0aa"/>
      <stop offset="1" stop-color="#b07e09"/>
    </linearGradient>
  </defs>
  <path fill="#4997d0" d="M0 0h640v480H0z"/>
  <path fill="#fff" d="M213.33 0h213.34v480H213.33z"/>
  <g transform="matrix(.7 0 0 .7 0 40)">
    <g stroke="#24420e">
      <path d="M452.12 377.48c2.67-.4 4.2-1.14 6.04-1.8m2.2-4.04c1.36 1.43 2.43 2.95 3 4.64m-8.1-5.08c1.4 1.3 2.37 2.7 3.13 4.15m-49.6-136.58c-1.1 1.6-3.1 2.73-4.8 3.43m-.4-.2c0-1.37-.3-3.03 0-4.4m-2 5.03c.1.37.4 1.4.6 2.03m2 .92c-.4.08-1.5.26-2.1.34m-4-.88c0 2.52.3 5.55.5 7.82m-1.8-.96c.4.76.9 1.5 1.5 1.88m-4.6 6.47c.5.94.9 2.12 1.3 3.96m3.7-4.6c-.4.2-1.3 1-2 1.6m1.6 4.4c-1 .9-2.2 1.5-3.5 2.1m-3.8 40.4c1.2 1.9 2.4 3.6 4 4.7m.6 1.7c-1.3-.1-2.2-.5-3-.9m4.4 8.4l1.7 1m-.5 3.5c1.2.9 2.5 2.3 3.7 3.9m-1.4 2.8c1.3.3 2.5.7 3.2 1.1m-1.1 2.4l2.1.1m1.2-5.4c-.1 1.6-.2 3-.4 4.3m1 1.6l.4-1.6m4.7 6l-.2 3.2m39.2 27.9l-1.2 1.6m-2.4-3.9l-.7-1.8" fill="none" stroke-width=".44"/>
      <g stroke-width=".16">
        <path d="M486.1 384.93c-.8-1.26-2.1-2.03-3.27-2.66-7.72-4.05-15.4-5.84-24.1-7.24-2.03-.34-4.04-2.22-6.1-3.2-4.96-2.35-10.5-3.27-15.3-5.68-.34-.15-1.56-.87-2.12-1.55-1.9-2.22-5.3-2.9-7.5-4.97-8.3-7.87-17.2-15.12-21.7-25.55-5.5-12.7-12.5-25.8-11.5-40.23.6-9.12-.7-18.35 1.5-27.04 3.3-12.8 7.6-25.6 15.4-36.3l-1.3.9c-7.9 10.7-12.1 23.4-15.4 36.3-2.2 8.7-.9 18-1.5 27.1-.9 14.5 6 27.6 11.6 40.3 4.6 10.4 13.5 17.7 21.8 25.6 2.2 2.1 5.6 2.7 7.6 5 .6.6 1.9 1.4 2.1 1.6 4.9 2.5 10.4 3.4 15.4 5.7 2.1 1 4.1 2.9 6.1 3.2 8.7 1.4 16.4 3.2 24.1 7.3 1.2.6 2.5 1.4 3.3 2.7l1.4-.8" fill="#406325"/>
        <g fill="#67923d">
          <path d="M406.34 331.62c-2.8-6.3-1.36-21.6-.2-23.53 6.64 13 4.43 23.7.2 23.5zm45.86 45.4c-7.1.35-20.6 9.3-21.86 11.4 15.08.1 24.02-7.33 21.86-11.4zm7.46-4.3c-6.85-5.45-14.2-23.66-14.03-26.5 15.1 10.83 18.93 24.28 14.03 26.5z"/>
          <path d="M454.6 372.78c-6.94-4.24-15.78-20.1-15.93-22.75 15.2 8.2 20.2 20.13 15.94 22.75zM439.06 366c.98-7.82-5.67-24.24-7.6-25.98-2.93 16.47 3 27.57 7.6 25.98zm-27.3-24.28c-2.3-5.65-.62-19.32.46-21 5.53 11.7 3.27 21.22-.46 21zm-13.72-76.83c3.6-6.7 18.38-15.8 21-16-6.78 14.5-18.05 19.8-21 15.9z"/>
          <path d="M398.74 259.33c2.15-7.28 14.87-19.27 17.36-20.03-3.73 15.67-13.68 23.18-17.36 20.03zm27.8 99.15c-4.98-6.18-8-23.86-7.28-26.36 11.27 12.5 12.03 25.23 7.3 26.36zm-28.64-36.46c-6.9 1.1-21.36-4.64-22.92-6.34 14.53-3.15 24.3 2.08 22.92 6.34zm-2.22-9.68c.82-5.58 8.66-15.8 10.36-16.66-1.1 11.96-7.45 18.6-10.36 16.66zM447 370.88c-8.47.44-24.62 11.1-26.12 13.62 18.03.14 28.7-8.74 26.13-13.62z"/>
        </g>
        <g fill="#406325">
          <path d="M406.4 331.47c4.24.2 6.42-10.4-.26-23.38 1.2 12.3 1.2 22.3.27 23.3zm11.2 20c-4.48-5.48-19.4-11.34-21.72-11.15 8.88 12.08 19.88 15.1 21.7 11.14zm-24.43-53c-1.15-8.03-12.33-22.7-14.74-23.96 1.5 17.2 10.55 26.7 14.74 24zm8.4 34.3c-5-3.68-18.98-5.34-20.95-4.72 10.14 8.3 20.2 8.46 20.94 4.72zm-9.37-24.83c-2.88-5.7-14.8-13.48-16.9-13.7 5.52 12.4 14.57 16.94 16.9 13.7zm2.73-47.54c.9-7.57-5.53-23.45-7.34-25.16-2.9 15.93 2.9 26.67 7.3 25.16zm4.47-14.92c2.66-6.5.76-22.43-.52-24.42-6.4 13.5-3.83 24.65.52 24.42z"/>
          <path d="M404.42 237.83c3.14-4.77 4.16-17.68 3.48-19.47-7.23 9.7-6.95 18.94-3.48 19.47zm5.95-6.14c4.4-3.5 9.22-15.5 9.08-17.5-9.74 6.9-12.22 15.8-9.08 17.4zm-16.05 43.2c.1.8-.98-8.2-10.05-18.4.4 14.8 6.25 20.4 10.05 18.3zm32.56 85.7c-6.18-4.6-23.4-6.8-25.77-6 12.6 10.3 24.9 10.5 25.8 5.9zm12.07 5.2c-4.54 1.6-10.44-9.4-7.54-25.9 2.9 13.9 6.2 25 7.6 25.8zm13.3 11.1c2.12 4.1-6.7 11.4-21.8 11.3 11.97-4.9 21.25-9.9 21.8-11.4zm7.4-4.5c4.86-2.3 1.1-15.6-14.02-26.4 8.6 13.2 14.46 24.6 14 26.4z"/>
          <path d="M454.57 372.67c4.28-2.67-.7-14.44-15.9-22.64 9.4 11.18 16.1 20.97 15.9 22.64zm-42.8-31c3.74.23 5.97-9.25.5-20.9.7 10.96.4 19.96-.5 20.9zm-13.75-76.73c2.95 3.9 14.05-1.3 20.84-15.92-10.17 9.33-19.23 16.06-20.84 15.92z"/>
          <path d="M398.86 259.33c3.68 3.15 13.54-4.3 17.27-19.98-8.1 11.25-15.64 19.74-17.27 19.98zm27.72 99.1c4.74-1.14 3.95-13.8-7.25-26.28 5 13.4 8 24.75 7.25 26.27zm-28.87-36.47c1.5-4.24-8.3-9.37-22.8-6.26 12.3 2.2 22.1 5.04 22.8 6.26zm-1.9-9.6c2.9 1.88 9.2-4.67 10.3-16.63-4.7 9.18-9.2 16.27-10.3 16.62zm51.2 58.67c2.6 4.88-7.9 13.67-26 13.52 14.3-5.84 25.4-11.78 26.1-13.52z"/>
          <path d="M399.36 326.3c-2.66-6.26-14.8-15.46-16.98-15.84 4.94 13.64 14.25 19.15 16.98 15.84z"/>
        </g>
        <g fill="#67923d">
          <path d="M392.42 273.92c4.07-4.67 17.47-9.13 19.6-8.87-8.04 10.4-17.94 12.52-19.6 8.87zm25.07 77.6c-1.9 3.9-12.7.9-21.7-11.16 10.9 6.83 20.2 11.5 21.6 11.15zm-24.4-53.06c-4.2 2.73-13.2-6.74-14.7-23.88 6.6 13.2 13 23.38 14.7 23.88zm8.4 34.34c-.8 3.73-10.7 3.6-20.9-4.72 10.7 3.4 19.7 5.33 20.8 4.72zm-9.5-24.95c-2.4 3.24-11.3-1.27-16.8-13.66 8.2 7.9 15.5 13.7 16.8 13.6zm2.7-47.55c-4.5 1.56-10.2-9.08-7.3-25 2.6 13.48 5.9 24.17 7.3 25zm4.4-14.86c-4.3.23-6.9-10.82-.5-24.32-.9 12.8-.5 23.23.4 24.32zm5-7.67c-3.5-.53-3.7-9.66 3.5-19.37-2.8 9.98-4.2 18.37-3.6 19.37zm6-6.08c-3.2-1.7-.7-10.5 9-17.4-5.6 8.6-9.3 16.2-9.1 17.3z"/>
          <path d="M394.25 274.9c-3.8 2.1-9.58-3.5-10-18.32 5.1 11.68 8.62 17.8 10 18.32zm32.57 85.8c-.9 4.63-13.14 4.4-25.68-5.9 13.17 4.28 24.25 6.7 25.68 5.9zm-8.17-9.48c-4.02-4.34-7.16-17.35-6.75-19.24 9 8.74 10.22 18.16 6.75 19.24zm-16.88-25c-3.57-5.78-3.88-20.9-2.92-22.95 8.26 11.8 7.25 22.6 2.92 22.96zm-2.63.1c-2.74 3.3-11.93-2.16-16.87-15.83 8.13 9.1 15.47 15.8 16.87 15.8z"/>
        </g>
        <g fill="#406325">
          <path d="M392.37 274c1.62 3.62 11.45 1.53 19.5-8.88-11.98 6.8-16.72 9.74-19.5 8.88zm9.34 52.07c4.4-.37 5.4-11.04-2.9-22.85 2.7 11.86 3.8 21.68 3 22.85zm17 25.1c3.5-1.06 2.3-10.44-6.7-19.17 4.4 9.73 7.2 18 6.7 19.18z"/>
          <path d="M394.23 291.77c2.06-8.4-1.7-22.6-4.3-25.56-4.72 15.5-.24 26.6 4.3 25.6z"/>
        </g>
        <path d="M393.93 293.77c-5.9 1.34-8.64-12.03-4.08-27.08 1.07 13.5 2.83 26.1 4.08 27z" fill="#67923d"/>
        <path d="M392.73 293.72c-.56-7.53 6.93-23.1 8.9-24.7 2.03 15.8-4.45 26.3-8.9 24.7z" fill="#67923d"/>
        <path d="M392.84 293.6c4.4 1.65 10.85-8.75 8.84-24.55-3.52 13.26-7.45 23.76-8.84 24.56z" fill="#406325"/>
        <path d="M394.13 303.26c0-7.6 8.47-22.23 10.56-23.62.8 16.16-6.4 25.83-10.6 23.62z" fill="#67923d"/>
        <path d="M394.2 303.4c4.24 2.22 11.32-7.35 10.48-23.5-4.4 12.84-9.05 22.9-10.47 23.5z" fill="#406325"/>
      </g>
      <g fill="#ba1f3e" stroke="#511124" stroke-width=".22">
        <circle cx="396.83" cy="251.27" r="1.08" stroke-width=".19"/>
        <circle cx="405.2" cy="245.07" r="1.08" stroke-width=".19"/>
        <circle cx="401.56" cy="241.71" r="1.09" stroke-width=".19"/>
        <circle cx="392.5" cy="313.12" r="1.28"/>
        <circle cx="395.03" cy="297.13" r="1.28"/>
        <circle cx="408.21" cy="334.46" r="1.28"/>
        <circle cx="402.39" cy="336.43" r="1.28"/>
        <circle cx="446.7" cy="367.63" r="1.28"/>
        <circle cx="449.61" cy="374.71" r="1.28"/>
      </g>
    </g>
    <g stroke="#24420e">
      <path d="M561.15 258.97c.62.62 1.17.8 2.3 1.9m-6.63-18.95c-.04-1.37-.63-3.6-.92-4.97m3.45 2.98c.05 1.95-.22 3.8-1.06 5.5m-4.2-.53c1.7 1.58 3.5 3.08 5.2 3.9m3.8 1.22c.1 1.98-.2 3.96-.7 5.94m.3 1.5l1.3-2.25m-1.9 12.3c1.4.3 2.8 2 3.5 3.5m.5-1.3l1.6-2.2m1.7 30.7a23.9 23.9 0 0 1-2.5 3.5m-4 0c.8 1.5 1.5 3 2.6 4.1m2.4 5.9c-1.3 1.8-2.8 3.2-4.5 4m.1 4.5c-1.1.8-2.5 3-3.7 4.7m8.4-20.1l-2.1.9M565 298l1.25 1.14m-9.3 37.4c-.85-.12-1.47 0-2.13.06m-2-1.96l.64 1.6m-7.7 5.1c-.26 1.9-.07 3.74.2 5.6m4.3-9l1.03 2.24m3.8-.2l-2.6.4m-30.9 25.28l-.9 1.74m11.9-3.94c-1.5.2-2.8-.02-4.1-.2m-5.5 5.96a27.28 27.28 0 0 0-3-.95m-14.8 2.67c-.9.75-2 2.42-3.1 4.1m-.6-4.6c-2.4 1.26-3.2 3.7-4.5 5.8m2.8 2.88c-1.6-.45-3.4-1.22-5.4-2.04m16.7-.7c-2.3-1.2-4.8-1.1-7.1-1.47m10.7-.3c-3.7-.7-7-.6-10.3-.1m7.8-2.6l-1.4-.6m-5.6 5.5l-2.3-1.3m58-49.1c-1.3.8-2.5 2.3-3.8 3.9m1.8-79.6l-2.1-.7" fill="none" stroke-width=".44"/>
      <g stroke-width=".16">
        <path d="M474.4 384.85c.8-1.26 2.1-2.03 3.27-2.66 7.72-4.1 15.4-5.9 24.1-7.3 2.03-.4 4.04-2.2 6.1-3.2 4.96-2.4 10.5-3.3 15.3-5.7.34-.2 1.56-.9 2.12-1.6 1.9-2.2 5.3-2.9 7.5-5 8.3-7.9 17.2-15.1 21.7-25.6C560 321.1 567 308 566 293.5c-.6-9.13.72-18.35-1.5-27.05-3.36-12.9-7.6-25.64-15.4-36.3l1.3.8c7.84 10.7 12.1 23.43 15.43 36.32 2.23 8.7.9 17.9 1.5 27 .92 14.44-6 27.5-11.58 40.27-4.6 10.4-13.5 17.6-21.8 25.55-2.16 2-5.6 2.7-7.55 5-.55.6-1.8 1.4-2.1 1.5-4.8 2.4-10.34 3.3-15.3 5.6-2.06 1-4.1 2.8-6.1 3.1-8.7 1.4-16.4 3.2-24.1 7.2-1.2.6-2.5 1.4-3.3 2.6l-1.34-.8" fill="#406325"/>
        <g fill="#406325">
          <path d="M553.65 334.6c2.74-7.42 0-24.84-1.5-26.95-6.64 15.37-3.33 27.5 1.5 26.95z"/>
          <path d="M546.54 341.64c2.3-5.65.6-19.32-.47-21-5.52 11.7-3.27 21.22.47 21zm16.8-74.15c-3.28-6.1-16.86-14.5-19.25-14.7 6.2 13.3 16.5 18.2 19.2 14.6z"/>
          <path d="M561.76 259.47c-1.8-6.07-12.4-16.05-14.47-16.7 3.1 13.07 11.4 19.32 14.4 16.7zm4.74 14.96c-3.54-4.05-15.16-7.93-17-7.7 6.97 9.04 15.56 10.87 17 7.7zm-2.8 46.33c6.13.97 18.96-4.12 20.34-5.63-12.9-2.8-21.55 1.84-20.34 5.63zm-.15-5.64c-.04-5.64-6.4-16.86-7.96-17.93-.6 11.9 4.8 19.4 7.9 17.9z"/>
          <path d="M563.96 301.44c0-7.6-8.47-22.23-10.56-23.62-.84 16.16 6.33 25.83 10.56 23.62zm-52.9 75.27c4.5 5.5 19.66 11.2 22.1 10.9-8.8-12.2-20.07-15-22.1-10.9z"/>
        </g>
        <g fill="#67923d">
          <path d="M553.56 334.43c-4.82.55-8.1-11.44-1.4-26.8-.5 14.2.24 25.64 1.4 26.8zM500.2 378.1c7.08.35 20.6 9.3 21.85 11.4-15.08.1-24.02-7.33-21.86-11.4zm0-7.95c2.1-7.97 15-21.2 17.5-22.15-3.6 17.13-13.74 25.53-17.5 22.15zm21.26-4.23c-1-7.82 5.66-24.24 7.58-25.98 2.95 16.47-3 27.57-7.58 25.98zm21.46-14.54c4.47-5.47 19.38-11.33 21.7-11.14-8.87 12.08-19.87 15.1-21.7 11.14zm25.8-53.26c.9-6.33 9.7-17.88 11.6-18.87-1.2 13.52-8.3 21.02-11.6 18.87z"/>
          <path d="M557.02 336.18c5.82-4.3 22.1-6.23 24.4-5.5-11.8 9.67-23.55 9.85-24.4 5.5zm10.27-24.52c3-5.98 15.5-14.17 17.7-14.4-5.8 13.02-15.3 17.8-17.8 14.4zm-1.5-45.56c-.1-7.63 8-22.73 9.9-24.24 1.1 16.14-5.8 26.2-10 24.24zm-7-25.92c-2.3-5.28-1.1-18.4-.1-20.07 5.5 11 3.7 20.2.1 20.1zm-4.2-2.18c-5.3-4.68-10.7-19.76-10.4-22.1 11.7 9.26 14.4 20.36 10.4 22.1z"/>
          <path d="M566.28 272.54c-.32.8 2.94-7.7 14.22-15.3-4 14.26-11.04 18.27-14.22 15.3zm-34.1 89.9c7-5.17 26.53-7.63 29.23-6.72-14.2 11.74-28.2 11.97-29.2 6.72zm14.33-20.84c-3.7.22-5.9-9.26-.4-20.92-.7 10.97-.4 19.97.5 20.92zm16.9-74.07c-2.7 3.58-12.9-1.2-19.1-14.6 9.4 8.56 17.7 14.73 19.1 14.6zm-1.7-8.06c-3 2.62-11.3-3.58-14.4-16.65 6.8 9.37 13.1 16.45 14.4 16.65zm4.9 15.03c-1.4 3.15-9.9 1.33-16.9-7.7 10.4 5.9 14.5 8.45 16.9 7.7zm-2.7 46.2c-1.2-3.75 7.4-8.3 20.3-5.55-10.8 1.95-19.5 4.48-20.2 5.56zm-.4-5.6c-3.1 1.48-8.4-5.88-7.9-17.87 3.4 9.74 6.9 17.38 7.9 17.88z"/>
          <path d="M563.88 301.6c-4.23 2.2-11.3-7.37-10.47-23.54 4.5 12.86 9.1 22.9 10.5 23.53zm-52.7 75.06c2.03-4.15 13.16-1.38 22 10.9-11-6.76-20.5-11.32-22-10.9z"/>
        </g>
        <g fill="#406325">
          <path d="M521.55 365.83c4.54 1.6 10.44-9.42 7.54-25.88-2.9 13.95-6.2 25.06-7.6 25.88z"/>
          <path d="M531.83 360.6c4.34-6.66 5.55-24.56 4.58-26.98-9.9 13.6-9.4 26.33-4.5 26.97zm-31.7 17.53c-2.1 4.08 6.7 11.44 21.8 11.3-11.95-4.88-21.24-9.85-21.8-11.3zm.17-8.05c3.8 3.34 13.8-4.95 17.4-22.08-8.12 12.42-15.7 21.8-17.4 22.08zm42.7-18.65c1.82 3.92 12.7.92 21.66-11.15-10.9 6.83-20.25 11.5-21.65 11.15zm25.76-53.33c3.3 2.15 10.34-5.3 11.56-18.8-5.2 10.4-10.26 18.4-11.56 18.8zm-11.7 38.1c.9 4.36 12.46 4.2 24.32-5.5-12.5 3.98-23 6.23-24.3 5.5zm10.37-24.63c2.45 3.4 11.87-1.33 17.66-14.35-8.7 8.37-16.3 14.44-17.7 14.35zm-1.5-45.56c4.23 2.1 11.05-7.9 9.9-24-4.1 13.2-8.47 23.4-9.9 24.1zm-6.97-25.8c3.54.1 5.4-9-.13-20 .95 10.5.9 19.1.13 20zm-4.23-2.2c3.97-1.7 1.33-12.7-10.42-21.9 6.5 11 10.9 20.6 10.5 22zm11.6 34.7c3.18 3 10.15-1 14.16-15.3-7.8 10.1-12.7 15.2-14.2 15.4zm-34.08 89.9c1 5.3 14.9 5 29.13-6.6-14.94 4.9-27.5 7.6-29.13 6.7z"/>
          <path d="M539.14 354.75c3.27-4.93 4.27-18.27 3.56-20.08-7.48 10.08-7.16 19.57-3.56 20.08zm19.6-28.6c3.57-5.8 3.88-20.92 2.92-22.97-8.26 11.8-7.25 22.6-2.92 22.96z"/>
        </g>
        <path d="M531.8 360.54c-4.84-.64-5.34-13.3 4.54-26.87-3.62 13.85-5.46 25.44-4.55 26.87zm35.15-68.33c-.94-7.7 3.98-20.1 6.63-22.5 2.57 14.4-2.66 24-6.63 22.5zm-27.84 62.5c-3.6-.5-3.9-9.9 3.6-20-2.8 10.3-4.2 19-3.5 20zm23.4-104.2c-2.1-5.9.1-20 1.3-21.7 5.3 12.3 2.7 22.1-1.2 21.8zm-58.1 120.1c2.5-8 16.2-21 18.8-21.9-4.3 17.5-15 25.6-18.8 21.9zm54.6-41.5c2.7-6.2 14.8-15.4 17-15.8-4.9 13.7-14.2 19.2-16.9 15.9zm-.1-3c-4.3-.4-5.3-11 3-22.9-2.6 11.9-3.8 21.7-2.9 22.9z" fill="#67923d"/>
        <path d="M567 294.04c5.16 1.84 9.08-9.9 6.6-23.9-2.43 12.05-5.38 23.2-6.6 23.9z" fill="#406325"/>
        <path d="M567.77 293.64c.56-7.53-6.93-23.1-8.9-24.7-2.03 15.8 4.45 26.3 8.9 24.7zm-5.22-43.22c3.83.34 6.47-9.44 1.2-21.7.32 11.46-.3 20.76-1.2 21.7zm-58.05 120.1c3.8 3.63 14.37-4.4 18.7-21.83-8.84 12.3-16.96 21.6-18.7 21.8zm54.64-41.48c2.73 3.3 11.93-2.16 16.87-15.83-8.1 9.2-15.4 15.9-16.8 15.9z" fill="#406325"/>
        <path d="M567.66 293.53c-4.4 1.64-10.85-8.76-8.84-24.56 3.5 13.26 7.45 23.76 8.84 24.56z" fill="#67923d"/>
      </g>
      <g fill="#ba1f3e" stroke="#511124" stroke-width=".22">
        <circle cx="564.63" cy="254.9" r="1.08"/>
        <circle cx="568.41" cy="266.82" r="1.08"/>
        <circle cx="569.76" cy="304.3" r="1.28"/>
        <circle cx="564.65" cy="297.29" r="1.28"/>
        <circle cx="549.91" cy="337.17" r="1.28"/>
        <circle cx="556.2" cy="339.9" r="1.28"/>
        <circle cx="513.8" cy="372.26" r="1.28"/>
        <circle cx="506.8" cy="377.29" r="1.28"/>
        <circle cx="557.05" cy="249.25" r="1.08"/>
      </g>
    </g>
    <g id="b" fill="#8c959d" stroke="#485654" stroke-width=".11">
      <path d="M434.25 336.27c-.13 1.07.84 2.34 2.13 2.07.38-.08.62-.58.13-.5-.4.12-.8-.06-1.2-.36a1.68 1.68 0 0 1-.4-1.92l-.6.7z"/>
      <path d="M437.24 338.34c-1.02 1.17-2.57 1.68-3.43.83-.5-.56-.7-1.2-.4-1.9l-1.1 1.22c.1 0 .7 1.3 1.7 1.7 1.3.5 3-.3 4.1-1.6.8-.9 1.6-2.5 1-3.6-.3-.8-1.2-1.5-1.9-1.7l-1 1.1c.5-.3 1.2-.2 1.7.3 1.3 1 .6 2.5-.3 3.5z" stroke="none"/>
      <path d="M437.24 338.34a4 4 0 0 1-1.16.96c-.45.23-.96.4-1.47.3a1.48 1.48 0 0 1-.7-.28 2.36 2.36 0 0 1-.5-.58 1.6 1.6 0 0 1-.2-.74c0-.26.1-.53.2-.77l.1.08-1.1 1.3v-.1c.3.5.7 1 1.1 1.3.2.2.5.4.7.5a2 2 0 0 0 .8.2c.6 0 1.1-.2 1.6-.4a5.1 5.1 0 0 0 1.3-1c.4-.4.7-.8 1-1.3.3-.5.4-1 .4-1.6a1.83 1.83 0 0 0-.2-.7 3.06 3.06 0 0 0-.5-.6 4.18 4.18 0 0 0-1.3-.9h.1l-1 1.1-.1-.1c.3-.1.5-.1.8-.1.3 0 .5.1.7.2.5.3.8.7 1 1.2.2.5 0 1-.2 1.4a5.13 5.13 0 0 1-.8 1.2zm0 0c.3-.38.6-.78.8-1.23.2-.4.3-.9.16-1.4-.13-.4-.5-.8-.9-1-.4-.2-.92-.3-1.34-.1l-.1-.1 1.03-1.1c.5.2 1 .6 1.4 1 .2.2.4.5.5.7.1.3.2.6.2.9 0 .6-.2 1.2-.4 1.7a6.4 6.4 0 0 1-1 1.5c-.4.5-.9.8-1.4 1.1-.5.3-1.1.5-1.7.5a2.2 2.2 0 0 1-.9-.1 2.73 2.73 0 0 1-.8-.5 5 5 0 0 1-1.1-1.3h-.1.1l1.1-1.2.1.1c-.1.2-.2.5-.2.7 0 .3.1.5.2.7.1.2.3.4.4.6.2.2.4.3.7.3.5.1 1 0 1.4-.3.4-.2.8-.5 1.2-.9z" fill="#485654" stroke="none"/>
      <path d="M515.24 249.25l-40.14 39.52c-3.05 3.03-37.96 36.38-41.1 39.38-1.1 1.32-4.24 4.86-4.56 5.35-2.13 2.3-4.44 5.33-7.2 8.03-.5.62-1.14.4-1.73.74-1.8 1.05-3.7 2.87-5 4.37l-12.2 13.5c-.8.86-1 1.38-.4 1.87l6.7 8.9c1.3 1.2 2.7 1.9 3.2.8 3.2-5.4 11-13.7 13.9-20.3 1.8-3.9 4-11 5.6-12.8 1.9-2.1 7.2-7.7 11.8-12.7l.9-1 1-1c23.5-23.9 50.7-53 70.6-73.5-.7-.8-.2-.3-1-1z" fill="#6c301e" stroke="#351710" stroke-width=".22" stroke-linejoin="round"/>
      <path d="M431.9 328.1c-1.23.05-2.03-.7-2.86-1.4 1.17.36 2.35.8 3.45.35l-.6 1.06z"/>
      <path d="M557.05 220.1l-31.8 26.22c-.3.37-.63.27-.93 0l-2.9-2.42.02-.1c0-.17-.04-.33-.1-.47l1.43-1.45c.18-.22.12-.3-.12-.54-.18-.2-.34-.37-.6-.6-.2-.18-.4-.04-.63.17l-1.43 1.5c-.8.1-1.4.7-1.4 1.4-19.3 18.8-35.8 35.5-55 53.9L441 319.2c-.8 1.1-4.3 2.9-6.6 4.4-.83.6-1.53 1-1.83 1.6l-1.83 5.45c-.58 1.2-2.43 4-2.5 4.2 2.35 2.38 2.23 2.2 3.85 3.73 1.8-2.03 6.7-7.12 11.1-11.86.3-.4.4-.42.8-.97-.4-.5-1-1.2-1.4-1.67a34.1 34.1 0 0 0-1.2-1.02l-.6-.53c-.2-.15.2-.43.4-.63 26.4-25.6 54.9-53.7 78.3-76.6a1.4 1.4 0 0 0 1-.1l2.8 3.2c.6.67 1.2.66 1.7.4l31.8-28.6z" fill="#b2b6ba" stroke-width=".22"/>
      <path d="M430.95 330.4c.2.02.4.04.6.02a1.5 1.5 0 0 0 .58-.16l-.02.02a124.9 124.9 0 0 1 1.5-4.75v.03c-.2-.22-.4-.42-.7-.5.3.06.6.25.8.47v.02l-.7 2.38-.7 2.37v.02a1.4 1.4 0 0 1-.6.14 2.87 2.87 0 0 1-.6-.07z" fill="#485654" stroke="none"/>
      <circle cx="438.18" cy="328.13" r=".62" fill="none" stroke-width=".16"/>
      <circle cx="434.44" cy="331.88" r=".62" fill="none" stroke-width=".16"/>
      <path d="M440.97 322.38c-.32-.24-.6-.5-.9-.78a11.58 11.58 0 0 1-.84-.85c.32.24.62.5.9.78.3.27.58.55.84.85z" fill="#485654" stroke="none"/>
      <path d="M502.17 259.06l3.5 3.4.63-.58-3.48-3.4-.65.58z"/>
    </g>
    <use height="100%" width="100%" xlink:href="#b" transform="rotate(-177.2 487.1 -.2)"/>
    <g stroke="#24420e" stroke-width=".16">
      <path d="M433.9 365.36c-7.86-3.32-26.88-.67-29.2.93 16.28 8 29.53 4.5 29.2-1zm89.03 3.32c7.87-3.32 26.9-.67 29.22.93-16.3 8-29.54 4.6-29.22-.9z" fill="#67923d"/>
      <path d="M433.76 365.48c.32 5.5-12.8 8.88-29.07.9 15.2.94 27.7.38 29-.9zm89.32 3.3c-.32 5.5 12.8 8.88 29.07.9-15.3.93-27.8.4-29.07-.9z" fill="#406325"/>
    </g>
    <g id="c">
      <path d="M508.5 360c-20.74-30.13-52-54.62-76.1-68 3.55-.17 11.45 3.88 14.66 5.95 23.94 15.42 44.3 35.8 65.66 59.82-1.26 1.25-2.08 1.98-3.44 3.05l-.8-.83z" fill="#b2b6ba" stroke="#485654" stroke-width=".22"/>
      <path d="M510.55 359.75l-1.45 1.4c-23-29.63-55.1-57.95-76.67-69.14 30.08 13.9 55.4 41.8 78.03 67.7l.1.1z" fill="#8c959d"/>
      <path d="M510.56 359.75l-1.45 1.4c-5.3-6.83-10.9-13.4-16.8-19.73a336.02 336.02 0 0 0-18.3-18.34c-6.3-5.87-12.9-11.5-19.8-16.76a195.86 195.86 0 0 0-10.5-7.57c-3.6-2.4-7.3-4.65-11.1-6.64l.1-.2c7.9 3.7 15.4 8.2 22.4 13.3 7.1 5.1 13.7 10.7 20.1 16.7 6.4 5.9 12.4 12.2 18.3 18.5 5.9 6.4 11.7 12.9 17.4 19.4zm0 0c-5.74-6.5-11.5-13-17.42-19.35-5.92-6.35-12-12.56-18.35-18.47-6.4-5.9-13-11.5-20.1-16.6-7.1-5.06-14.5-9.6-22.4-13.22l.1-.1c3.8 2 7.5 4.3 11.1 6.7 3.6 2.4 7.1 5 10.5 7.6 6.8 5.3 13.4 11 19.8 16.8a336.06 336.06 0 0 1 18.3 18.4c5.8 6.4 11.5 13 16.8 19.8l1.4-1.4z" fill="#485654"/>
      <g fill="#fab81c" stroke="#6c301e" stroke-width=".11">
        <path d="M517.5 355.07c-1.97.5-3.73 1.25-5.26 2.23-.23 1.4-1.95 2.95-3.6 3.3-.28-.37-.35-.48-.58-.76a.13.13 0 0 0-.17-.04c-.2.07-.4.18-.6.34-.6-.1-1.4.2-1.7.97-.4 1 .4 2.3 1.2 3.1.9.8 1.3 1.1 2.4 1 1.1-.2 1.7-1.2 1.9-1.5 3.7 4.5 6.5 7 11.2 10.7 2.1 0 3.2-1.3 2.5-2.8-.3-.5-.9-.8-1.4-.6v-.4c2.4-2.3 3.5-5.1.9-9.9-2.2-4-4.7-5.4-7.1-5.4zm6.25 4.53c.43.74.7 1.38 1.02 2.05 1.48 3 .2 6.6-2.33 7.7-.13 0-.1 0-.22.03.42-.7-.82-2.15-1.46-1.64.3-.76-.67-2.02-1.46-1.7.42-.7-.53-1.9-1.42-1.5.46-.77-.32-1.87-1.24-1.67.28-.82-.42-1.76-1.35-1.6 0-.72-.2-1.12-.6-1.45 1.1-.85 2.3-2.15 3.4-2.74 2.7-1.18 4.4 1.07 5.5 2.52z" stroke-width=".22"/>
        <path d="M524.9 362.77c-.52-.25-.77-.76-.6-1.1.17-.35.7-.44 1.22-.18.52.2.8.7.63 1-.17.3-.74.4-1.26.2z"/>
        <path d="M524.6 361.75c-.52-.25-.77-.76-.6-1.1.17-.35.7-.44 1.22-.18.52.25.8.74.63 1.1-.17.33-.74.44-1.26.18z"/>
        <path d="M523.97 360.62c-.52-.25-.76-.76-.6-1.1.18-.35.7-.44 1.23-.18.52.25.8.74.63 1.1-.17.33-.74.44-1.26.18z"/>
        <path d="M523.2 359.6c-.53-.25-.77-.76-.6-1.1.17-.35.7-.44 1.22-.18.52.25.8.74.63 1.1-.17.33-.74.44-1.26.18z"/>
        <path d="M522.16 358.6c-.52-.24-.76-.75-.6-1.1.04-.04.02-.13.07-.1.2.1.64.18.6-.14-.07-.12-.15-.23-.08-.15l.64.3c.5.3.8.8.6 1.1-.2.4-.8.5-1.3.2z"/>
      </g>
      <path d="M511.27 363.6c.68-1.77 2.05-3.4 3.5-3.8m-3.27 4.05c1.26.26 3.3-1.24 3.8-2.6m-2.6 4.05c1.65.38 3.28-1.22 3.92-2.4m-2.44 3.98c1.96.06 3.16-1.33 3.74-2.4m-2.23 3.93c1.6.1 3.1-1.3 3.6-2.4m-2.2 3.8c1.8 0 3.1-.8 3.6-2m-2 3.5c1.6.1 3-.9 3.4-1.8m-1.7 3.3c1.6.1 2.7-.9 3.1-1.9" fill="#fab81c"/>
      <path d="M511.27 363.6a7.1 7.1 0 0 1 1.3-2.33c.3-.34.62-.65 1-.9.36-.27.77-.48 1.2-.57-.42.14-.8.36-1.16.63-.3.26-.6.57-.9.9-.6.7-1 1.46-1.4 2.27zm.23.25c.4.06.8-.04 1.18-.2a4.88 4.88 0 0 0 1.05-.58c.33-.24.63-.5.9-.8.27-.3.5-.63.68-1-.1.38-.3.73-.6 1.05-.2.3-.5.6-.9.83a4.57 4.57 0 0 1-1.1.6c-.3.12-.8.2-1.2.1zm1.2 1.45c.4.07.8.04 1.2-.1.38-.1.74-.3 1.07-.53.33-.23.63-.5.9-.8.3-.3.54-.63.75-.98a4.68 4.68 0 0 1-.68 1 5.24 5.24 0 0 1-.9.8 3.7 3.7 0 0 1-1.12.5c-.4.1-.83.1-1.23 0zm1.48 1.58a4.2 4.2 0 0 0 1.15-.18 3.83 3.83 0 0 0 1.03-.5 4.72 4.72 0 0 0 .86-.77c.26-.3.5-.6.7-.94a4.55 4.55 0 0 1-1.5 1.7c-.33.2-.7.4-1.07.5-.38.1-.78.1-1.17.1zm1.5 1.53c.78 0 1.5-.3 2.12-.7.32-.2.6-.4.86-.7.26-.2.5-.5.68-.9-.14.4-.36.7-.6 1-.26.3-.56.6-.87.8a4.24 4.24 0 0 1-1.04.5c-.37.1-.76.2-1.14.2zm1.47 1.4a7.1 7.1 0 0 0 1.08-.1 4.63 4.63 0 0 0 1-.4c.33-.1.63-.3.9-.6.25-.2.47-.5.64-.8-.13.4-.34.7-.6 1-.24.3-.55.5-.88.7a4.5 4.5 0 0 1-2.2.5zm1.64 1.5c.3 0 .6 0 1-.1a4 4 0 0 0 .9-.3c.3-.1.6-.3.8-.6.2-.2.4-.5.6-.8a2.52 2.52 0 0 1-.6.9 3.58 3.58 0 0 1-.9.6c-.3.2-.7.3-1 .4-.4.1-.7.1-1.1.1zm1.7 1.5a3.94 3.94 0 0 0 .9-.1 3.3 3.3 0 0 0 1.6-1 4.03 4.03 0 0 0 .5-.7 3.06 3.06 0 0 1-1.3 1.5 2.98 2.98 0 0 1-.9.4 3.02 3.02 0 0 1-1 .1z" fill="#6c301e"/>
    </g>
    <use height="100%" width="100%" xlink:href="#c" transform="rotate(-176.6 490 -.4)"/>
    <g stroke="#24420e" stroke-width=".16">
      <path d="M409.24 240.02c7.2-2.37 18.73-15.45 19.48-17.92-15.6 4.16-22.76 14.35-19.48 17.92zm145.74 4.7c-1.7-7.04-13.28-19-15.57-19.9 2.8 15.15 12 22.75 15.6 19.9z" fill="#406325"/>
      <path d="M409.24 240.02c-3.33-3.57 3.8-13.67 19.34-17.82-10.96 8.4-19.2 16.18-19.34 17.82zm145.74 4.7c-3.66 2.9-12.72-4.65-15.5-19.77 7.18 11.07 13.95 19.5 15.5 19.77z" fill="#67923d"/>
    </g>
    <g stroke="#999270" stroke-width=".16">
      <path d="M452.2 318.1s-6.15.66-7.87-7.83c-1.85-9.1 5.3-10.05 5.3-10.05s8.1-.8 13.15-.92l2.24 17.96-12.8.84z" fill="url(#d)"/>
      <path d="M453.02 315.36s-3.98.76-4.8-5.55c-.6-4.4 2.18-5.1 2.18-5.1l9.23 1.6.05 8.3-6.66.9z" fill="url(#e)"/>
      <path d="M450.4 304.7s5.9-.43 9-.83l1.27 5.7-7.1.46s-.5-5.16-3.17-5.33z" fill="url(#f)"/>
      <path d="M449.16 300.36s7.58-1.86 8.52 6.5c.24 2.17-.94 7.16-4.66 8.5l13.88-1.45-1.26-15-4.67.4s-9.93.4-11.8 1.1z" fill="url(#g)"/>
      <path d="M452.2 318.1c.05 0 51.9-3.5 57.22-3.27 15.74-8.64-.08-42.56-13.35-61.54 1.52-4.3-29.85-13.9-44.04-13.1l-5.16.3c-7.7.8-7.77 10.7-4.63 16.9 3.04 6 30.3 55.1 11.14 60.3l-1.18.2z" fill="#f9f0aa"/>
      <path d="M507.8 273.34c-3.53-7.3-7.74-14.35-11.73-20.05 1.52-4.3-29.86-13.9-44.04-13.1l-5.16.3c-7.7.8-7.77 10.7-4.64 16.9.96 1.9 4.3 8 7.85 15.7" fill="url(#h)"/>
      <path d="M455.04 284.95c5.55 14.65 8.66 30.12-1.64 32.9l-1.18.24c.05 0 51.9-3.5 57.22-3.3 8.54-4.7 7.8-16.8 3.2-30" fill="url(#i)"/>
      <path d="M447.4 243.5c-3.7 0-4.66 3.55-4.6 5.8.13 5.92 4.6 6.2 4.6 6.2l5.96-.33 2.86-12.17-8.82.5z" fill="url(#j)"/>
      <path d="M447.4 243.53l8.82-.5.9 9.1-7.7.34s2.5-7.28-2.02-8.94z" fill="url(#k)"/>
      <path d="M496.12 253.3c6.7-1.08 6.6-10.08 2.03-13.68-15.5-.57-35.9-.15-50.63.96 1.67-.05 6.33.37 6.85 6.5.24 2.87-1.16 5.5-3.06 7-1.8 1.45-3.9 1.45-3.9 1.45.3.1 2.2 0 3.6-.08.8-.05 2.6-.27 3.1-.33 21-2.76 42-1.83 42-1.83h.1z" fill="url(#l)"/>
      <path d="M458.47 267.42c-.14-.33-.32-.75-.73-.8-.25 0-.65-.06-.57-.4.24-.1.54-.04.8-.06.56 0 1.1-.12 1.67-.15.34.1.26.6-.1.5-.42.1-.18.6-.08.8.44 1.1.87 2.1 1.33 3.1.1.3.3.6.7.6.3.1.7.1 1.1-.1.3-.2.2-.6.2-.9-.2-.3.5-.3.5.1.1.5.2.9.4 1.3 0 .2-.3.2-.4.2-1 .1-2 .2-3 .2-.3 0-.8.3-1-.1-.1-.4.5-.1.6-.4 0-.3-.2-.6-.3-.9l-1.2-2.8zm4.83-.34c-.14-.32-.3-.72-.7-.8-.23-.02-.64 0-.6-.37.15-.1.45 0 .67 0 .6 0 1.17-.1 1.76-.1.3 0 .4.5.02.5-.35 0-.38.4-.23.7l1.44 3.4c.1.3.24.6.54.6.25.1.65 0 .7.3-.04.3-.43.1-.63.2-.52 0-1.04 0-1.55.1-.23.1-.55 0-.56-.3.05-.2.58 0 .6-.4-.03-.3-.2-.6-.32-.9l-1.14-2.7zm4.46.7c.1.24.4.07.6.1.25-.04.53-.23.5-.52-.04-.45-.26-.9-.63-1.2-.34-.23-.78-.2-1.17-.15-.02.2.1.4.15.5l.6 1.3zm.67 1.6c.16.36.28.75.56 1.02.2.18.5.1.8.07.3-.02.5-.33.4-.6-.2-.65-.6-1.3-1.3-1.45a2.43 2.43 0 0 0-.9 0c-.1.14.1.3.1.43l.2.53zm-2.04-2.36c-.2-.35-.4-.77-.7-.93-.3-.1-.7 0-.7-.4 0-.3.5-.1.8-.2.8-.1 1.7-.3 2.6 0 .7.1 1.4.8 1.4 1.6 0 .3-.3.6-.6.8-.1-.2.4 0 .5 0 .6.2 1.1.6 1.4 1.1.2.4.3.9 0 1.3-.4.4-1 .4-1.5.4-.8 0-1.5 0-2.3.1-.3 0-.5-.5-.1-.5.3 0 .4-.4.2-.7l-1.2-3zm7.4-1.9c.3-.06.3.3.4.52l.3.83c-.3.28-.5-.14-.7-.36-.2-.2-.4-.4-.7-.4a8.3 8.3 0 0 0-1.2.1c-.2.2 0 .4.1.6l.5 1.4c.2 0 .6 0 .8-.2.1-.2-.3-.7.2-.6.3.2.2.6.4.9.1.4.4.7.5 1.1-.3.3-.5-.1-.6-.3-.2-.3-.7-.3-1-.3-.3 0-.1.2-.1.3l.6 1.5c.2.3.6.3 1 .3.3 0 .7 0 .9-.3.2-.2-.3-.7.1-.8.4 0 .4.4.4.6 0 .3.2.6.3.8-.1.2-.3.1-.5.2-1 .1-2 .1-3 .2-.3 0-.8.3-.9-.2 0-.3.6-.1.5-.5-.1-.3-.3-.6-.4-1l-1.2-2.7c-.2-.3-.4-.6-.8-.6-.2.1-.6-.1-.4-.4.3-.1.7 0 1.1-.1l2.7-.1zm2.3 1.3c-.2-.34-.3-.76-.7-.92-.3-.08-.7 0-.7-.4.2-.18.6-.02.9-.08.8 0 1.6-.24 2.4 0 .8.23 1.5.97 1.6 1.84 0 .4-.3.75-.7.86-.3.02.2.1.3.2.6.3 1.1.87 1.4 1.47.1.2.5.7.6.2-.1-.5.6-.1.5.2 0 .3-.4.6-.7.6-.5 0-.9-.3-1.2-.7-.4-.6-.7-1.2-1.3-1.7-.2-.2-.6-.3-.8-.2-.1.1 0 .3.1.4.2.4.3.8.5 1.2.2.3.6.3.9.3.3.1.2.5-.2.4-.6 0-1.2-.1-1.8 0-.3.1-.9 0-.7-.4.3 0 .7-.2.5-.5-.3-.9-.7-1.7-1.1-2.6l-.3-.6zm1.4.9c.1.33.6.15.8.12.3-.08.3-.5.2-.78-.2-.47-.4-1.03-.9-1.2-.3-.03-.9-.2-.9.16l.6 1.58v.12zm7.2 1.72c.1.26.2.6.5.66.2.06.6-.03.7.33-.1.26-.5.1-.7.14-.6-.05-1.1 0-1.6.08-.3.07-.6-.03-.6-.32.1-.2.6-.04.6-.4-.1-.4-.3-.77-.4-1.15l-1.2-2.88c-.1-.3-.5-.3-.8-.28-.3 0-.7.06-.7.4-.1.24.2.63-.1.75-.3.06-.4-.28-.5-.5-.1-.3-.3-.6-.4-.92 0-.2.3-.17.5-.2 1.3-.05 2.7-.1 4.1-.17.3-.04.5.2.5.48.1.34.2.65.4.98-.1.33-.5.04-.6-.2-.2-.35-.5-.7-1-.7-.3 0-.7-.1-.8.14 0 .24.1.45.2.67l1.2 3.1zm3.7-.9c-.2 0-.1.23-.1.36v.84c.1.3.5.24.8.32.2.13.1.5-.2.4-.4-.03-.9-.08-1.3.02-.3.14-.7-.12-.5-.4.2-.02.4-.1.5-.32v-4.96c.1-.3.5-.06.6.15 1.2 1.52 2.4 3.05 3.6 4.54.2.2.4.4.8.4.2 0 .4.5 0 .4-.5-.1-1-.1-1.6 0-.3 0-.5.1-.7-.1-.3-.2-.1-.5.2-.4.3-.1 0-.5-.2-.7l-.6-.8c-.2-.1-.4 0-.6 0H488zm1.1-.52c.2 0-.1-.16-.1-.24l-1.3-1.66c.1 0 0 .17 0 .25v1.7l1.3-.05zm3-1.85c-.2-.4-.4-.9-.9-.98-.3 0-.7-.2-.5-.5h1.7c.7-.1 1.4-.1 2.1.2 1.4.5 2.7 1.8 2.9 3.3.1.6-.1 1.3-.7 1.6-.8.4-1.7.3-2.5.3-.5-.1-1 0-1.4.1-.3-.1-.4-.6 0-.5.3 0 .3-.5.2-.7l-1.2-3.1zm1.9 2.5c.1.33.2.75.5.97.3.14.6.12.9.08.4-.06.7-.5.7-.9 0-.77-.3-1.5-.6-2.14-.4-.7-1.1-1.23-1.9-1.37-.4 0-.7-.1-1 0-.1.2 0 .3.1.4l1.1 3zm-21.1 12.4c.1.36.4.6.8.64.2.1.7 0 .7.4-.2.3-.6.1-.8.1a8.63 8.63 0 0 0-1.6.1c-.3 0-.6.2-.9.1-.3-.1-.2-.4.1-.4.2 0 .6-.1.6-.4 0-.3-.2-.5-.3-.8l-1.2-2.7c-.1-.3-.5-.3-.7-.3-.3.1-.7.2-.7-.2 0-.3.5-.2.7-.4l.9-.3c.2 0 .3.2.3.4l1.7 4.1zm.7-4.5c.7-.03 1.4.08 2 0 .3-.03.1-.5.3-.47.4.02.3.48.3.74a.52.52 0 0 1-.6.58c-.6.03-1.1-.05-1.6-.02.1.4.3.8.4 1.2 0-.12.4-.14.6-.17 1-.05 2.1.56 2.6 1.55.2.47.3 1.1-.1 1.54-.4.45-1.1.55-1.6.55s-1.1-.1-1.4-.55c-.2-.22-.1-.68.2-.64.3 0 .7.26.6.6.2.22.5.14.8.13.3 0 .6-.2.6-.5 0-.5-.2-.9-.5-1.3s-.8-.7-1.3-.7c-.3 0-.6.2-.8.2-.3 0-.4-.3-.5-.6a23.87 23.87 0 0 1-.7-1.8c-.1-.1 0-.2.1-.2zm6.8 1.02c-.2-.4-.4-.9-.9-1-.3 0-.7-.2-.5-.5.5-.1 1.1 0 1.6-.1.7-.1 1.4-.1 2.1.1 1.5.5 2.7 1.8 2.9 3.4.1.5-.1 1.2-.7 1.5-.7.4-1.6.4-2.4.3-.5 0-.9 0-1.4.1-.3 0-.4-.5 0-.5s.3-.4.2-.7l-1.2-3zm2 2.4c.1.3.2.7.5.9.3.1.6.1.9 0 .4-.1.7-.5.7-1 0-.8-.3-1.5-.7-2.2-.4-.7-1.1-1.2-1.9-1.4-.3-.1-.7-.1-1-.1-.1.1.1.3.1.4l1.2 3zm6.4-4.3c.3-.1.3.3.4.5.1.3.2.5.3.8-.2.3-.5-.1-.6-.3-.2-.3-.4-.5-.7-.5a9.65 9.65 0 0 0-1.3 0c-.2.1 0 .4 0 .5l.5 1.4c.3 0 .6 0 .8-.2.2-.2-.2-.8.3-.7.3.1.2.6.4.8.1.4.3.7.5 1.1-.2.3-.6-.1-.6-.3-.2-.3-.5-.4-.9-.4-.2 0-.4 0-.2.2l.6 1.5c.2.3.6.3 1 .3.3 0 .7 0 .9-.3.2-.3-.2-.7.1-.8.3-.1.4.2.4.5l.3.9c0 .2-.3.1-.4.1-1 0-2.1 0-3.1.1-.3 0-.7.2-.9-.1-.2-.4.5-.2.5-.6 0-.3-.2-.6-.3-.9-.4-.9-.78-1.9-1.17-2.9-.2-.3-.4-.6-.8-.7-.2 0-.6-.2-.4-.4.35-.1.72 0 1.1-.1l2.8-.1zM462 289.5c.13.5.7.7 1.1.8.8.2 1.6.5 2.14 1.1.3.32.5.8.5 1.3-.06.5-.48.85-.9 1a2.5 2.5 0 0 1-1.77-.1c-.3-.1-.2.44-.5.24-.26-.18-.18-.56-.3-.8a9.04 9.04 0 0 0-.4-.98c0-.36.5-.2.5.1.32.6.92 1.1 1.63 1.1.4 0 .8-.2.86-.6 0-.5-.4-.95-.9-1.18-.66-.35-1.4-.46-2-.8-.57-.37-.96-1-.96-1.64 0-.44.37-.78.77-.9a2.63 2.63 0 0 1 1.57-.06c.27.15.37-.25.6-.05.1.2.1.44.2.65.1.3.3.56.36.85-.18.26-.5 0-.54-.2-.2-.35-.5-.76-.97-.8-.4-.02-.8-.02-1.1.3-.1.15-.1.35 0 .5zm6.9-1.5c.32-.1.33.3.4.5.1.2.22.5.3.8-.14.3-.5 0-.54-.2-.1-.3-.34-.6-.67-.6-.4 0-.8 0-1.2.1-.2.1 0 .4.1.52l.5 1.35c.3 0 .6 0 .8-.18.2-.2-.2-.6.2-.7.4-.1.3.4.4.7.1.4.3.8.4 1.2-.2.3-.6 0-.6-.3-.1-.3-.5-.4-.8-.3-.2 0-.4 0-.3.2.1.5.3 1.1.5 1.6.1.3.4.3.7.3.4 0 .8 0 1.1-.3.2-.3 0-.6.1-.9.2-.2.5 0 .5.3s.1.6.2 1c-.1.2-.3.1-.5.1-1 .1-2.1.2-3.1.2-.3 0-.7.3-.9-.1-.2-.4.4-.2.5-.5.1-.3-.1-.6-.2-.9-.3-1-.6-2-1-2.9-.1-.3-.3-.7-.7-.7-.2 0-.6-.2-.4-.4.3-.1.7-.1 1.1-.1l2.8-.2zm4.17 4.1c.1.3.3.6.6.7.27.1.7-.1.75.3 0 .3-.5.1-.7.2a6.28 6.28 0 0 0-1.53.1c-.3 0-.6.1-.6-.2-.1-.4.4-.2.5-.4 0-.3-.1-.5-.2-.8l-1-3c-.2-.3-.3-.7-.7-.7-.3 0-.7-.06-.6-.4.2-.16.5-.05.7-.08.7 0 1.4-.2 2.2-.16.7.03 1.5.5 1.7 1.23.1.4.2.9-.1 1.3-.4.4-1 .5-1.6.6-.2 0-.1.2-.1.3l.3.9zm-.56-1.7c.2.1.5 0 .7 0 .3 0 .5-.4.4-.7-.1-.4-.2-.8-.5-1.1-.3-.3-.7-.3-1.1-.2-.1.1 0 .3 0 .5l.6 1.6zm6.2 1.5c.1.3.2.6.5.7.3.1.7 0 .7.3s-.4.2-.6.2c-.5 0-1.1 0-1.6.1-.2.1-.5 0-.5-.3.2-.2.7 0 .7-.4s-.2-.8-.3-1.1l-.9-2.9c-.1-.3-.4-.3-.7-.3-.2 0-.6 0-.7.3 0 .3.1.55 0 .8-.2.2-.4-.1-.4-.3a6.6 6.6 0 0 0-.3-1c0-.26.3-.24.5-.25l4.2-.26c.3-.1.5.1.5.4.1.3.3.6.4 1 0 .3-.5.1-.5-.1-.1-.4-.4-.7-.8-.8-.3 0-.6 0-.9.1 0 .2.1.4.2.6l1 3.2zm2.1-3.3c-.1-.3-.2-.7-.6-.8-.3 0-.7 0-.7-.3.1-.2.4-.1.6-.1.6 0 1.2-.1 1.8-.1.2-.1.4.4.1.4-.3 0-.6.2-.5.42.2.5.3 1.03.5 1.55l.7 2.2c.1.26.3.46.5.47.3 0 .7 0 .6.35-.2.1-.5 0-.7.1-.5-.1-1.1 0-1.6.1-.2.1-.5-.2-.4-.4.2-.1.7-.1.6-.4l-.3-1.2-.7-2.4zm5.8-1.6c.4 0 .4.3.4.6.1.3.2.5.3.8-.1.3-.5 0-.5-.2-.1-.3-.3-.6-.6-.6a9.66 9.66 0 0 0-1.2.05c-.2.1 0 .4.1.55l.5 1.38c.3 0 .6 0 .8-.15.2-.2-.2-.6.2-.7.4 0 .4.45.4.7.1.45.4.85.5 1.3-.1.3-.5.03-.5-.2-.1-.3-.4-.46-.7-.4-.2 0-.5-.1-.4.14.2.5.3 1.02.6 1.52.1.3.5.4.8.3.4-.1.9 0 1.2-.3.3-.3.1-.6.1-.9.3-.2.6.1.5.4a9.3 9.3 0 0 0 .3 1c0 .2-.3.1-.4.1l-3.1.2c-.3-.1-.7.2-.8-.1-.2-.4.4-.3.5-.5.1-.3 0-.6-.1-.8l-1-3c-.1-.3-.3-.7-.7-.7-.2 0-.6-.2-.4-.4.4-.1.7 0 1.1-.1l2.8-.1zm2 1c0-.3-.3-.6-.7-.6-.4.1-.5-.6-.1-.4.5 0 1-.1 1.5 0l.6.9 2.2 2.9c-.2 0 0-.2 0-.3l.4-3.6c.3-.2.8-.1 1.1-.2.3-.05 1-.1.8.34-.3.06-.7.2-.5.65l1.2 3.5c.1.4.5.5.9.5.3 0 .3.5-.1.4-.6 0-1.2 0-1.8.1-.3.1-.8 0-.6-.4.3 0 .8-.1.6-.6-.3-1.1-.7-2.1-1-3.2.1.1 0 .2 0 .4l-.3 2.9c0 .2.1.5-.1.8-.2.1-.4-.1-.5-.3l-2.8-3.7c.1-.1.1.2.1.3l.9 2.9c.1.4.5.5.9.5.4.2.1.5-.2.4-.5-.1-1 0-1.5.1-.3-.1-.3-.6.1-.5.5 0 .3-.5.2-.8l-1-3.3zm8.8.9c.1.2.4.1.6.1.3 0 .6-.2.7-.5 0-.5-.1-.9-.5-1.2-.3-.3-.7-.2-1.1-.2 0 .1.1.3.1.5l.4 1.3zm.5 1.6c.1.3.2.7.5 1 .2.2.5.1.8.1.2 0 .5-.2.4-.5-.1-.6-.3-1.3-.9-1.5-.4-.1-.8-.1-1.1-.1-.1.1 0 .3 0 .4.1.2.1.4.2.6zm-1.8-2.4c-.1-.4-.2-.8-.5-1-.2-.1-.6.03-.6-.33.1-.26.6-.05.8-.1.9 0 1.8-.23 2.6.06.7.2 1.2.84 1.2 1.6 0 .4-.4.7-.7.86 0-.2.3 0 .5.1.5.2 1 .5 1.2 1.1.2.4.3.9 0 1.3s-.9.4-1.4.4c-.8 0-1.6 0-2.4.1-.3 0-.4-.5 0-.4.3 0 .4-.4.3-.7l-.9-3.1zm5-.2c-.1-.3-.2-.8-.5-.9-.3-.1-.7 0-.7-.4.2-.3.6-.1.9-.1.7 0 1.3-.2 2-.1.8.1 1.5.64 1.7 1.43.2.4.1.96-.3 1.2-.1.1-.5.2-.4.2.6.23 1.2.7 1.5 1.27.2.3.3.6.5.8.3.2.3-.14.4-.3.4-.17.5.3.4.6-.1.4-.7.5-1 .4-.4-.1-.6-.35-.8-.65-.3-.5-.6-1.15-1-1.6-.2-.2-.5-.3-.8-.2 0 .14.1.3.1.44.1.4.2.8.4 1.1.2.3.6.4.9.4.4 0 .4.6 0 .4-.6 0-1.2-.1-1.8 0-.2 0-.5.1-.6-.1-.2-.4.5-.2.6-.5.1-.3 0-.6-.1-.8l-.8-2.7zm1.3.9c.1.3.6.13.9.12.3-.05.4-.34.4-.6-.1-.47-.2-.96-.6-1.27-.3-.23-.8-.23-1.1-.16-.2.1 0 .3 0 .5l.4 1.4zm6.9-2.56c.3-.06.4.3.4.5l.3.83c-.1.26-.5 0-.5-.2-.1-.26-.3-.6-.6-.6a9.5 9.5 0 0 0-1.2 0c-.2.1 0 .4 0 .56l.4 1.35c.3 0 .6 0 .8-.1.3-.17-.1-.6.2-.7.4-.1.4.4.5.6.1.5.3.9.4 1.4-.1.3-.5.04-.5-.2-.1-.3-.4-.47-.6-.45-.1.07-.5-.1-.4.18.2.5.3 1.1.5 1.6.1.3.5.4.7.4.4 0 .9.1 1.2-.2.3-.2.1-.6.2-.8.3-.2.6.1.5.4l.2 1c0 .2-.3.1-.4.1-1 0-2 .1-3.1.1-.2 0-.6.2-.8-.1-.2-.4.3-.3.5-.5s.1-.5 0-.7l-.9-3c-.1-.3-.3-.6-.6-.7-.2 0-.6-.1-.5-.4.3-.1.7 0 1 0l3-.1zm-32.8 13.14c-.1-.4-.2-.88-.6-.98-.2 0-.6-.05-.5-.4.3-.1.7 0 1-.06.9-.05 1.7-.25 2.5-.04 1.2.27 2.3 1.2 2.6 2.36.2.74.3 1.6-.2 2.25-.5.7-1.4.8-2.2.9-.6 0-1.2 0-1.8.1-.2.1-.6-.1-.4-.4.3 0 .7-.1.6-.5l-.3-1.5-.4-1.7zm1.7 2.4c.1.3.2.7.4.95.3.15.6.1.9.06.5-.1.9-.5.9-1 .2-.7-.1-1.5-.4-2.2-.2-.6-.8-1.1-1.4-1.2-.4-.1-.8-.1-1.2-.1-.1.1 0 .2 0 .4l.7 3zm7.1-4.4c.3-.06.3.3.4.5l.3.83c-.1.3-.5.1-.5-.2-.1-.2-.3-.5-.6-.5a9.25 9.25 0 0 0-1.3.1c-.2.1 0 .4 0 .6.1.5.2.9.4 1.4.2 0 .6 0 .8-.1.2-.2-.2-.6.2-.7.4 0 .3.5.3.7 0 .5.2.9.3 1.3-.1.3-.5.1-.5-.2-.1-.3-.4-.5-.7-.4-.2 0-.5-.1-.4.2.1.5.2 1.1.4 1.6.1.3.4.4.7.4.4 0 .9.1 1.2-.3.3-.2 0-.6.2-.8.3-.2.5.1.5.4.1.3.1.7.2 1 0 .2-.3.1-.4.2-1 .1-2.1.1-3.1.2-.2 0-.5.2-.8 0-.3-.2.1-.4.3-.4.3-.1.3-.4.2-.7-.3-1.1-.5-2.1-.8-3.2-.1-.3-.2-.7-.6-.7-.2 0-.6-.1-.5-.4.3-.1.7 0 1-.1l3-.1zm6.5 4.1c.1.3.3.6.6.62.2.1.6-.06.7.22.1.3-.4.2-.6.2-.5 0-1.1 0-1.7.1-.3.04-.5.1-.8.1-.2-.1-.1-.5.2-.4.3-.06.7-.1.7-.44.1-.3 0-.52-.1-.8l-.6-2.74c0-.3-.4-.3-.6-.3-.2 0-.6.2-.6-.1 0-.3.5-.2.7-.4.4-.1.8-.22 1.2-.4.2 0 .3.2.3.4l.9 4.15zm3.7-3.3c0-.37-.3-.8-.7-.85-.3-.07-.6 0-.7.33a.92.92 0 0 0 .4 1c.3.2.6.3.9.44.1-.16.3-.4.3-.6a1.45 1.45 0 0 0-.1-.4zm.9 2.9c-.1-.5-.5-.8-1-.97-.1 0-.4-.2-.5-.1-.3.3-.4.7-.3 1.1.1.5.5 1 1 1 .3.1.8-.1.9-.5a.96.96 0 0 0 .1-.5zm.9-.2c.2.45 0 1-.4 1.3-.6.4-1.3.4-2 .2-.6-.17-1-.66-1.2-1.27-.1-.5.1-1 .6-1.3.1-.1.5-.1.2-.2-.5-.2-1-.6-1.1-1.2-.1-.5.1-1 .6-1.2.9-.4 2.1-.2 2.6.7.2.4.3.9 0 1.2-.1.2-.3.4-.5.5.5.1 1 .4 1.2.8.2.2.3.4.3.7zm3.3.53c.3 0 .5-.1.6-.4.1-.2 0-.6.3-.5.3 0 .3.4.3.6 0 .4 0 .9-.3 1.1-.2.2-.5.1-.8.1-.5 0-1.1-.1-1.7-.1-.2.1-.4.3-.7.1-.2-.2 0-.5 0-.7.2-.6.6-1.1 1.1-1.5.4-.3.7-.6.8-1.1a1.95 1.95 0 0 0-.3-1.2c-.3-.4-.9-.6-1.4-.3-.2.2-.4.5-.2.8.2.2.6 0 .7.4.2.3 0 .6-.3.6-.4.1-.8-.2-.9-.7-.2-.5 0-1.1.5-1.4.5-.3 1.1-.3 1.7-.1.6.2 1.1.6 1.2 1.2.2.4.2.9-.1 1.4-.3.7-1.1 1.1-1.6 1.7-.1.2-.2.4-.2.6.1-.2.4-.1.6-.2.4 0 .7.1 1.1.1zm4-.4c.1.3.3.6.6.7.3.1.6 0 .7.3.2.3-.3.3-.5.3h-1.8c-.3 0-.5.1-.8.1-.3-.1-.1-.5.2-.4.3-.1.6-.1.7-.4.1-.3 0-.5-.1-.8l-.6-2.7c0-.3-.3-.3-.5-.3s-.5.2-.7-.1c-.2-.3.4-.3.6-.4.4-.2.8-.3 1.3-.4.2-.1.3.1.3.3l.9 4.1z" fill="#b07e09" stroke="none"/>
    </g>
    <g fill="#448127" stroke="#34541f" stroke-width=".22">
      <path d="M475.8 219.4l-3.77 4.5c-1.2 5.23 1.78 9.18 7.65 12.6 4.75 2.96 13.55 3.7 16.33 1.32l-13.7-13.07-6.5-5.34z" fill="url(#m)" stroke="#4c0505"/>
      <path d="M503.58 354.27c-.67-.8-1.35-1.62-2.04-2.42-8.55 11.3-19.24 21.43-32.6 28.57 15.06-4.27 24.93-15.26 34.64-26.15zm-15.44 35.7c5.32-10.76 11.73-21.53 18.2-32.3a274.3 274.3 0 0 0-2.14-2.64c-7.35 12.18-15.98 26.68-16.06 34.95zm41.73-114.5c-.98-4.24-2.27-8.83-4.3-13.05-2.67-5.43-6.63-10.83-11.84-16.8-9.38-10.17-18.77-20-31.93-27.25l.07-.14.08.05h.16l-.1-.2h.5l-.2-.26h.5l-.3-.4h.5l-.3-.32h.5l-.3-.37.4.03-.4-.38.6-.1-.4-.3.5-.08-.4-.28.6-.2-.5-.3.7-.28-.6-.46.7-.22-.7-.3.6-.32-.7-.13.5-.5-.7.1.3-.6-.6.1.4-.4-.7.1.3-.6-.7.3.2-.7-.6.5.1-.7-.6.5.1-.7-.5.6v-.7l-.5.6v-.7l-.4.6-.2-.7-.3.7-.1-.7-.3.7-.1-.7-.3.7-.2-.7-.2.7-.1-.6-.2.7-.2-.7-.2.7-.3-.7-.1.9-.3-.7v.8l-.4-.6v.8l-.4-.6v.7l-.44-.3.2.8-.5-.3.2.7-.46-.3.12.7-.4-.1.2.5v.1l-.3-.1.16.4c-.4 1-.4 2.3-.4 3.5 0 .2.6.5.7.6.3.4.2.7.2.7-1.6 2.6-3 4.6-3.2 7.6 1.3-1.7 2.6-3.6 4.5-3.6-.9 1.5-1.32 6.1-.3 6.8l.7-1.3c0 1.1.2 1.8.4 2.3.3-.7.6-1.3 1-1.8.1 1.5.3 2.7.7 3.3.4-.7 1-1.2 1.6-1.6-.2.9-.53 1.7-.4 2.7.64-1.1 1.3-1.7 1.93-2.5-.4 1.6-.04 2.8.4 4.5.4-2 .57-2.3 1.5-3.1.1 1.9-.24 3.6.17 4.7.9-1.7 1.5-1.44 2-2.53-.1 1.6-.4 3.3 0 4.7.3-1.4 1.2-2.12 1.9-2.62.1 2.2.6 1.9-.8 3.7.6.3 2.57-.4 3.6-.8-.5 1.2-.33 2.1-.85 3 1.1-.6 2-1.45 2.9-2.35-.4 1.4-1.5 2.7-.97 4.1.3-1.27 1.3-2.3 2.28-2.5-.12.7-.22 2.2-1.24 2.9 2.4.23 3.4-1.4 4.6-2.7-.14 1.33-.1 2.4 1.6 4.33-.3-2.4.26-1.9 1.36-3.4.54 2.2 1.15 4.47 3.4 6-.9-2.3-1.1-3.4-.6-4.9.3 1.5 1.7 3.3 2 4.7.2-1.5.48-3 1-4.03.66 1.8 1.2 3.6 1.36 5.6.5-1 .9-2 1.2-3.1 19.7 20.7 24.1 46.9 2.42 74.6 7.8-5.2 9.8-13.5 14.1-20.6-4.2 9.3-6.1 19.8-13.5 27.4 7.2-6.2 8.7-11.8 13-17.8-4.6 12.5-11 26.2-19.8 38.74 1.6 1.7 3.17 3.4 4.7 5.2 1.4-2.3 2.8-4.6 4.1-6.9 9.4-15.4 24.7-37.5 16.9-71.1z"/>
    </g>
    <path d="M473.16 215.3c-1 .22-1.4.63-2.1 1.43.9.2 1.68.25 2.5.27.27-.02.35-.35.3-.6l-.13-.94c-.03-.22-.6-.2-.88-.1l.3-.07z" fill="#eac102" stroke="#a08307" stroke-width=".22"/>
    <path d="M471.04 216.73a9.9 9.9 0 0 1 1.05-.3 9.76 9.76 0 0 1 1-.2 9.82 9.82 0 0 1-1.1.3 9.94 9.94 0 0 1-1.1.2z" fill="#a08307"/>
    <ellipse cx="477.68" cy="215.42" rx=".78" ry=".81" stroke="#000" stroke-width=".1"/>
    <ellipse cx="477.86" cy="215.26" rx=".34" ry=".35" fill="url(#n)"/>
    <g fill="#34541f">
      <path d="M488.18 389.7a83.38 83.38 0 0 1 1.53-4.45 96.15 96.15 0 0 1 1.8-4.35c1.3-2.87 2.7-5.67 4.2-8.43a199.58 199.58 0 0 1 4.7-8.16 354.4 354.4 0 0 1 2.5-4l2.5-3.9-2.4 4.1a400.05 400.05 0 0 0-2.4 4.1c-1.6 2.7-3.1 5.4-4.6 8.2a133.67 133.67 0 0 0-4.1 8.4 98.1 98.1 0 0 0-1.8 4.4 82.66 82.66 0 0 0-1.6 4.4zm-18.84-9.47a75.8 75.8 0 0 0 4.88-2.38 72.32 72.32 0 0 0 4.7-2.7 72.04 72.04 0 0 0 8.74-6.4c2.75-2.36 5.32-4.9 7.76-7.58a113.56 113.56 0 0 0 3.55-4.1c1.16-1.4 2.3-2.8 3.4-4.24a153.75 153.75 0 0 1-3.3 4.3 111.9 111.9 0 0 1-3.53 4.15 81.9 81.9 0 0 1-7.74 7.62 69.95 69.95 0 0 1-8.8 6.4 71.28 71.28 0 0 1-4.73 2.65 76.9 76.9 0 0 1-4.93 2.28zm37.28-29.34c.77-1.1 1.5-2.2 2.2-3.3l2.1-3.4c1.37-2.3 2.7-4.6 3.96-6.9a341.82 341.82 0 0 0 3.75-7l3.68-7-1.7 3.5-1.8 3.5a255.98 255.98 0 0 1-3.7 7 160.46 160.46 0 0 1-4 6.8c-1.4 2.2-2.8 4.5-4.4 6.6zm5.9-25.2a58.37 58.37 0 0 0 4.68-6.4 60.2 60.2 0 0 0 3.8-7c2.25-4.8 3.85-9.9 5-15.1l.4-2a61 61 0 0 0 .7-5.9c.17-2.7.17-5.3-.04-8a50.63 50.63 0 0 0-1.24-7.9 53.36 53.36 0 0 0-2.4-7.6 53.48 53.48 0 0 1 2.5 7.5 50.47 50.47 0 0 1 1.3 7.8c.2 2.6.22 5.3.06 7.9a61.25 61.25 0 0 1-.67 6 90.3 90.3 0 0 1-.4 1.9c-1.1 5.2-2.8 10.3-5 15.1a59.88 59.88 0 0 1-3.8 6.9 58.22 58.22 0 0 1-4.8 6.3z"/>
      <path d="M510.87 320.07c1.84-1.76 3.47-3.74 4.9-5.85 1.43-2.1 2.68-4.33 3.8-6.62 1.1-2.3 2.1-4.65 3.02-7.02l1.3-3.57.3-.9.3-.9c.2-.6.3-1.2.6-1.8.5-2.5.7-5.1.8-7.6a45.83 45.83 0 0 0-.6-7.7c-.4-2.5-1-5-1.8-7.5a80.22 80.22 0 0 0-2.6-7.3 80.35 80.35 0 0 1 2.6 7.3 57.4 57.4 0 0 1 1.8 7.6c.4 2.6.6 5.2.6 7.8a41.44 41.44 0 0 1-.8 7.7v.1l-.6 1.8-.3.9-.4.9c-.5 1.2-.9 2.4-1.4 3.6-1 2.4-2 4.8-3.1 7-1.1 2.3-2.4 4.6-3.8 6.7-1.5 2.1-3.1 4.1-5 5.8z"/>
      <path d="M505.05 349.23c1.2-1.66 2.4-3.33 3.57-5l1.78-2.5c.6-.84 1.2-1.66 1.74-2.53 1.06-1.75 2-3.58 2.9-5.4l2.7-5.53c1.78-3.7 3.5-7.4 4.97-11.23a75.28 75.28 0 0 0 3.5-11.76c.9-4 1.4-8.06 1.9-12.13.4-4.07.5-8.18 0-12.25a52.36 52.36 0 0 0-2.7-11.94c-1.3-3.86-3.1-7.57-5.1-11.16 2 3.57 3.8 7.27 5.2 11.13a52.4 52.4 0 0 1 2.8 11.96c.5 4 .4 8.2 0 12.2s-1 8.1-1.8 12.1A75.52 75.52 0 0 1 523 317c-1.48 3.8-3.2 7.52-5 11.2-.9 1.85-1.83 3.7-2.73 5.5-.9 1.83-1.83 3.66-2.9 5.4-.55.9-1.18 1.7-1.77 2.53l-1.8 2.5-3.65 4.95z"/>
      <path d="M507.8 352.25c2.37-3.83 4.72-7.68 6.96-11.58 2.25-3.9 4.5-7.82 6.47-11.86 1.98-4 3.7-8.2 5-12.5.65-2.1 1.2-4.3 1.65-6.5a59.28 59.28 0 0 0 .6-3.3c.16-1.1.32-2.2.46-3.3.58-4.4.93-8.9.92-13.4 0-4.5-.36-9-1.2-13.4-.82-4.4-2.13-8.7-3.97-12.8a54 54 0 0 0-7-11.5 54.08 54.08 0 0 1 7 11.5c1.8 4.1 3.1 8.5 4 12.9.8 4.5 1.2 9 1.2 13.5s-.3 9-.9 13.5a133.98 133.98 0 0 1-.5 3.3 58.8 58.8 0 0 1-.6 3.4 74.25 74.25 0 0 1-1.7 6.6c-1.3 4.3-3.1 8.5-5.1 12.6-2 4.1-4.3 8-6.5 11.9-2.3 3.9-4.7 7.8-7.1 11.6zM480 220.77c.47 0 .95.04 1.42.1l1.4.3c.9.25 1.8.58 2.68.96 1.74.77 3.37 1.78 4.9 2.9a35.8 35.8 0 0 1 4.25 3.8 45.25 45.25 0 0 1 1.9 2.1c.6.74 1.2 1.48 1.76 2.24a60.86 60.86 0 0 0-1.8-2.16c-.6-.7-1.2-1.4-1.9-2-1.3-1.3-2.7-2.6-4.2-3.7a26.78 26.78 0 0 0-4.8-2.9c-.8-.4-1.7-.7-2.6-1-.9-.2-1.8-.4-2.8-.5z"/>
    </g>
    <g fill="#448127">
      <path d="M496.38 231.57s3.06 1.8 4.72 4.44c0 0-4.7-.8-8.07-4.6"/>
      <path d="M496.38 231.57c.48.26.93.57 1.38.88.44.32.87.66 1.28 1.02.4.36.8.76 1.16 1.17.36.4.7.84 1 1.3l.13.23-.24-.05a14.54 14.54 0 0 1-2.3-.72 15.7 15.7 0 0 1-2.2-1.03c-1.4-.8-2.7-1.8-3.7-3a15.17 15.17 0 0 0 3.7 2.85 18.27 18.27 0 0 0 2.1 1 14.4 14.4 0 0 0 2.2.68l-.1.17a11.15 11.15 0 0 0-1-1.3l-1.2-1.17a17.7 17.7 0 0 0-1.3-1.06 18.56 18.56 0 0 0-1.4-.97z" fill="#34541f"/>
      <path d="M489.58 230.7s7.23 4.6 8.27 4.97c0 0-1.6-3.48-5.05-4.97"/>
      <path d="M489.58 230.7l4.14 2.48 2.07 1.24 1 .6c.3.2.7.4 1 .55l-.2.14a10.67 10.67 0 0 0-1-1.5c-.4-.5-.7-.9-1.2-1.4a10.73 10.73 0 0 0-1.4-1.1l-1.5-.9a8.43 8.43 0 0 1 1.6.9c.5.4.9.8 1.4 1.2.4.5.8.9 1.2 1.4.3.5.6 1 .9 1.6l.1.3-.3-.1c-.8-.3-1.5-.7-2.2-1.1l-2.1-1.3a151.55 151.55 0 0 1-4.1-2.6z" fill="#34541f"/>
      <path d="M492.46 228.36s3.76 1.6 4.6 4.38c0 0-6.74-2.84-7.95-4.35"/>
      <path d="M492.46 228.36a10.67 10.67 0 0 1 2.8 1.68 7.17 7.17 0 0 1 1.14 1.2c.33.44.6.93.77 1.47l.07.3-.2-.1a79.6 79.6 0 0 1-2.1-.9 49.78 49.78 0 0 1-2.04-1 33.95 33.95 0 0 1-2-1.1l-.95-.6c-.3-.2-.6-.4-.84-.7.3.3.6.5.9.7.3.2.7.4 1 .6l2 1.1a84.15 84.15 0 0 0 4.2 1.9l-.1.2a4.83 4.83 0 0 0-.7-1.4 7.8 7.8 0 0 0-1.1-1.2c-.4-.3-.8-.7-1.2-1-.5-.3-.9-.6-1.4-.8z" fill="#34541f"/>
      <path d="M486.76 231.25s6.65 4.76 8.6 4.76c0 0-1.94-3.2-5.38-4.7"/>
      <path d="M486.76 231.25l2.08 1.35c.7.45 1.4.88 2.1 1.3.7.42 1.43.83 2.16 1.2.36.18.74.36 1.12.5.37.15.77.3 1.15.3l-.1.16c-.3-.5-.67-1-1.06-1.45-.3-.4-.8-.9-1.2-1.3-.4-.4-.9-.7-1.4-1.1a10.97 10.97 0 0 0-1.6-.9c1.2.5 2.2 1.1 3.1 1.9.5.4.9.9 1.3 1.3.4.5.8 1 1.1 1.5l.1.2h-.2c-.4 0-.8-.1-1.2-.3a13.66 13.66 0 0 1-1.1-.5 33.27 33.27 0 0 1-2.1-1.2 63.9 63.9 0 0 1-2.1-1.3 56.27 56.27 0 0 1-2-1.4z" fill="#34541f"/>
      <path d="M486.76 232.74s3.46 2.92 5.43 2.92c0 0-2-3.26-5.4-4.75"/>
      <path d="M486.76 232.74l1.27.9c.43.3.87.58 1.32.84.44.26.9.5 1.37.7.24.1.48.2.73.26.24.07.5.12.74.12l-.1.15a12.4 12.4 0 0 0-1.1-1.4c-.4-.4-.8-.9-1.3-1.3s-.9-.8-1.4-1.1a11 11 0 0 0-1.6-.9c1.1.5 2.1 1.1 3 1.9l1.3 1.3c.4.5.7 1 1.1 1.5l.1.2h-.2c-.6 0-1.1-.2-1.6-.4a11.45 11.45 0 0 1-1.4-.7l-1.3-.9a17.6 17.6 0 0 1-1.2-1z" fill="#34541f"/>
      <path d="M485.03 226.18s7.2 5.12 8.06 7.9c0 0-6.6-3-7.8-4.5"/>
      <path d="M485.03 226.18a51.63 51.63 0 0 1 2.3 1.68 51.03 51.03 0 0 1 2.2 1.8 25.73 25.73 0 0 1 2.06 2c.3.35.6.7.9 1.1.2.4.5.8.7 1.3v.22l-.2-.1a77 77 0 0 1-2-1 50.3 50.3 0 0 1-2-1.04 34.83 34.83 0 0 1-1.9-1.15 15.42 15.42 0 0 1-1-.7c-.3-.3-.6-.5-.8-.8.2.3.5.5.8.7l.9.6c.6.4 1.3.7 1.9 1.1a87.25 87.25 0 0 0 4 2l-.2.1c-.2-.5-.4-.9-.7-1.2a12.2 12.2 0 0 0-.9-1.1c-.7-.7-1.3-1.4-2-2a51.15 51.15 0 0 0-2.2-1.9 71.2 71.2 0 0 0-2.2-1.8z" fill="#34541f"/>
    </g>
    <g stroke="#24420e" stroke-width=".16">
      <path d="M445.02 370.33c-4.9 3.64-18.55 5.43-20.45 4.8 9.95-8.27 19.73-8.47 20.45-4.8zm69.76 4.44c5.25 4.77 21.1 8.05 23.48 7.46-10.55-10.77-22.1-11.86-23.48-7.46z" fill="#406325"/>
      <path d="M444.98 370.3c-.72-3.67-10.46-3.45-20.38 4.78 10.45-3.45 19.24-5.4 20.38-4.78zm69.9 4.4c1.38-4.4 12.8-3.33 23.37 7.47-11.88-5.02-21.94-8.1-23.36-7.46z" fill="#67923d"/>
    </g>
  </g>
</svg>
