<svg xmlns="http://www.w3.org/2000/svg" xmlns:xlink="http://www.w3.org/1999/xlink" height="480" width="640" viewBox="0 0 640 480">
  <path fill="#d21034" d="M0 0h640v480H0z"/>
  <path fill="#00209f" d="M0 0h640v240H0z"/>
  <g fill="#f1b517" stroke="#000" stroke-width=".18">
    <path fill="#fff" d="M244.3 179.65h151.4V300.2H244.3z" stroke="none"/>
    <path d="M350.48 266.83l-30.9.9-30.77.34s-15.8 5.85-22.2 7.16c-6.4 1.3-5.6 3.42-10.6 4.54-4 .9-4.4 1.17-6.8 1.33-1.4.1-3.1 1.18-4.8 2.38v16.72h151.4v-15.9c-1.6-.9-3.2-1.5-4.8-2.05-2.2-.76-3.7-1.6-7.7-2.48-5-1.1-4.1-3.23-10.6-4.54-6.4-1.3-22.1-8.4-22.1-8.4z" fill="#016a16" stroke="#016a16" stroke-width=".29"/>
    <g transform="translate(-80) scale(1.6)">
      <g id="a">
        <path d="M244.53 143.5l1.4-.02 2.55 10.75-.54 3.38-3.4-14.1z"/>
        <path d="M243.06 136.35l.96 8.28 1.02-.07-1.98-8.2z" fill="#fff"/>
        <path d="M245.72 154.6l-4.3-11.55 1.6-.1 5.02 14.1-2.32-2.46z"/>
        <path d="M239.42 136.48l1.77 8.02h1.4l-3.2-8.02z" fill="#fff"/>
        <path d="M241.9 150.55l-2.5-5.43 1.08-.23 4.6 9-3.17-3.4z"/>
        <path d="M236.08 138.78l2.8 7.62h1.42l-4.22-7.62z" fill="#fff"/>
        <path d="M242.25 151.36l-11.44-12.48c-3.5 2.83-2.9 8.02-2.9 8.02l13 10.17 1.4-5.7z" fill="#0a328c"/>
        <path d="M248.86 158.24l-8.48-8.6c-3.6.13-.74 5.48-.56 6.15l9.04 7.7v-5.3z" fill="#d20014"/>
        <path d="M248.14 156.76l-17.54-18.78-.7.48 18.57 20.62-.33-2.32zm-18.55-20l-.4-.43v-.9l-3.6-2.3 1.6 3.64 1.2.22.4.4.7-.7z"/>
        <path d="M227.74 138.1c.6-.73 1.35-1.48 2.65-2.18l1 1.45-2.2 1.82-1.5-1.1z"/>
        <path d="M225.8 141.28l.6 1.02c.36-.13 4.03-3.45 4.03-3.45l2.63-.08.76-.84c-1.93-2.08-3.75.3-3.75.3l-4.26 3.05z" fill="#0a328c" stroke="#0a328c"/>
        <path d="M227.9 143c.15-.9 1.9-3.2 2.14-3.3 1.3.4 2.5 1.15 3.83-1.82-1.14 1.46-3.47-.03-3.47-.03l-1 .84.02.4-3.05 2.8 1.54 1.1z" fill="#d20014" stroke="#d20014"/>
        <path d="M237.25 154.67l-14.36-11.4c-2.5 2.5-.5 10.22-.5 10.22l14 7.6.7-6.5z" fill="#0a328c"/>
        <path d="M249.17 163.92l-11.82-9.47c-4.04.57-.87 6.5-.63 7.16l12.48 6.8-.04-4.4z" fill="#d20014"/>
        <path d="M248.7 162l-25.56-19.18-.58.6 26.83 20.95-.7-2.37zm-26.77-20.2l-.46-.37-.12-.88-3.98-1.66 2.25 3.3h1.25l.46.4.6-.8z"/>
        <path d="M220.35 143.43c.47-.83 1.06-1.7 2.22-2.6l1.25 1.26-1.8 2.1-1.67-.8z"/>
        <path d="M218.93 146.64l.16 1.06c.3-.2 3.5-3.73 3.5-3.73l2.6-.47.5-.84c-1.8-2.1-3.7.7-3.7.7l-3.2 3.28z" fill="#0a328c" stroke="#0a328c"/>
        <path d="M220.97 148.54c-.12-.98 1.22-3.86 1.46-3.98 1.54.46 2.9 1.16 3.46-2.07-.9 1.6-3.5.3-3.5.3l-.9 1 .1.5-2.6 3.3 1.9.8z" fill="#d20014" stroke="#d20014"/>
        <path d="M236.22 161.65c-.2-.04-18.5-10.44-18.5-10.44-1.35 2.3-.14 5.6.44 6.1.04 1.5-.6 2.3.7 5.5.4 2.1 1.34 3.9 2.7 5 1.68 6.5 8.23 6.9 10.76 1.7l3.9-7.7z" fill="#0a328c"/>
        <path d="M248.35 168.5l-12.55-7.34c-4.03.56.1 8.05.33 8.7l12.12 4.3.1-5.65z" fill="#d20014"/>
        <path d="M246.24 165.85l-28.35-15.1-.5.68 29.9 16.64-1.1-2.23zm-29.7-15.9l-.53-.3-.2-.87-4.2-1.04 2.8 2.94 1.3-.18.5.3.5-.86z"/>
        <path d="M215.23 151.78c.33-.9.78-1.83 1.77-2.9l1.44 1.05-1.43 2.4-1.7-.55z"/>
        <path d="M214.1 155.18l.6 1.17c.3-.23 3-4.58 3-4.58l2.5-.82.46-1c-2-1.86-3.5 1.33-3.5 1.33l-3.06 3.9z" fill="#0a328c" stroke="#0a328c"/>
        <path d="M216.77 156.84c-.2-1 .5-4.2.7-4.35 1.56.4 2.86.6 3.22-2.7-.9 1.5-3.4.9-3.4.9l-.7 1.1.1.3-2.1 3.9 2 .6z" fill="#d20014" stroke="#d20014"/>
      </g>
      <use height="100%" width="100%" xlink:href="#a" transform="matrix(-1 0 0 1 499.86 0)"/>
    </g>
    <g transform="translate(-80) scale(1.6)">
      <path d="M248.76 125.6l-.47 9.07h2.9l-.5-9 3-.4-.4-3.6-7.5.3v3.25l2.7.38z" fill="#016a16" stroke="#016a16"/>
      <g id="b" fill="#016a16">
        <path d="M249.82 121.9c-7.77-7.77-13.88-3.98-15.34-2.9.97.18 1.83-.42 2.28-.48-.28.35-.87 1.23-.87 1.23s2.4-1.14 2.6-1.03c-.4.27-.8.93-.8.93.2.07 1.5-1.06 1.8-1.08-.4.47-.6 1.53-.6 1.53l1.1-.54c.3.2-.1.63.1.6 1.9-.15 4.7 1.78 5 2.38"/>
        <path d="M247.9 123.32c-.8-1.85-15.6-5-18.56.24 1.16.3 2.27-.97 2.27-.97l-.1 1.1 2-1.5-.7 1.5 1.6-1.3v1.2l1.9-2.1-.2 1.2 1.7-.8-.2 1"/>
        <path d="M247.24 123.6c-3.8-2.52-9.66-.82-9.66-.82-3.74 2.1-5.74 1.72-6.22 5.6.35-.13 1.36-1.35 1.36-1.35l.76 1.5.25-2.14.6 1.6.92-2.8.2 1.8 1.42-1.9.66.5.6-1.4.56.9s.9-.6 1.5-.3l1-1.2.2.8.9-1.1.3.8.9-.8-.1.6h3.1"/>
        <path d="M246.38 124.05c-2.64-.05-10.23 2.8-12.2 5.8a13.3 13.3 0 0 1 1.28-.63l.38 1.2.48-1.2.1.93c.3-.72.6-.8 1.16-.05l.2-1.12.3 1.07.5-1.17s.33 1.27.5 1.22c0 0 .85-2.2 1.23-2.3l.1 1.37.5-1.36.5 1.1.1-1.4.5 1.1s.3-1.1.7-1.3l.8.7 3.4-2.4"/>
        <path d="M246.9 124.68c-3.53 1.35-6.68 6.18-6.44 8.22 1.56-1.94 1.23-1.67 1.93.56 0 0 .2-1.95.5-2.18l.4 1.44.1-1.9.4.03-.1-1.18.7.53c-.2-.68-.4-.9.3-1.5 0 0-.9.13-.2-1.52l.7.65s-.1-.72.1-1l2.5-.86"/>
        <path d="M247.23 125.04l-1.33 2.53.68.2-1.53 1.15 1.3-.13s-2 .7-2.23 2.6l2.02-.9s-1.7 1.7-1.95 2.8l1.1-1s-1.1 1.2-1 3l.8-1c-.2 2.2-.2 2.4.9 4.1 0 0-.3-2.7 0-3l2.2 2.3-1.3-3.3s1.4 2.1 2.2 1.9l-1.8-2.7 1.7 1.4-2-3 1.8.6s-1.4-1.7-1.3-2.8l1.3 1.4s-.5-1.6-.4-2l.6.1-1.3-1.5.87-.2-.1-1 .6-.2-.07-1.1m-1.1 0c-2.14 2.9-1 7.5-2.3 9.8"/>
      </g>
      <use height="100%" width="100%" xlink:href="#b" transform="matrix(-1 0 0 1 499.86 0)"/>
      <path d="M250.94 166.53s1.2-9.94 1.2-14.22c0-3.3-.82-10.8-.82-10.8h-3.42s-.52 7.5-.44 10.8c.1 4.3 1.18 14.3 1.18 14.3h2.3z"/>
      <path d="M247.67 141.95h3.96l-.46-2.66h-2.87l-.63 2.6z"/>
      <path d="M247.93 139.82h3.54l-.67-2.67h-2.18l-.7 2.67z"/>
      <path d="M248.16 137.66h2.95l-.5-2.67h-1.8l-.6 2.6z"/>
      <path d="M250.7 134.67h-2.05l-.2.97h2.43l-.17-.97zm.43 29.7h-2.62m2.8-1.95h-2.9m3.3-1.98H248m3.92-2.15H248m3.9-2.2h-4.1m4.26-2h-4.45m4.5-1.8h-4.6m4.7-2.2h-4.6m4.5-2.2h-4.5m4.3-2.2h-4m3.9-2H248"/>
      <path d="M249.9 119.04c-.68-.32-2.24-1.3-1.77-1.9l.7-1.2c1.02-2.3 0-1.4-.12-2.12-.1-.68 3.9-.15 4 1.4 0 .43-.3.18-.2 2.6l-.7 1.47c-.5 0-1.2-.1-1.7-.3z" fill="#0a328c" stroke="#0a328c"/>
      <path d="M250.4 124.93l-1-.83.28-7.1.96.28-.25 7.65z"/>
      <path d="M251.67 119.25c.62-.37 1.03-1.45.65-2.1-1-1.28-1.67-.74-3.38-1.32-.34.36-1.05 1.06-.9 1.58 2.24 1.1 1.37.2 2.12.3.4.1.65.6 1.5 1.6z" fill="#d20014" stroke="#d20014"/>
    </g>
    <g transform="translate(-80) scale(1.6)">
      <use height="100%" width="100%" xlink:href="#c" transform="matrix(1 0 0 -1 -.002 320.37)"/>
      <path d="M238.36 161.75c0 1.3-.82 2.35-1.82 2.35s-1.82-1.05-1.82-2.35v-1.28h3.64v1.28z" fill="#016a16" stroke="#fff" stroke-linecap="round"/>
      <ellipse cx="236.54" cy="160.06" rx="1.81" ry=".9" fill="#fff" stroke="none"/>
      <path d="M236.13 161.07l-.3-3.3h1.37l-.23 3.3h-.84z" fill="#016a16" stroke="#f1b517"/>
      <path id="c" d="M238.54 160.12c-.27.5-1.06.85-2 .85s-1.73-.36-2-.85a.76.76 0 0 0-.1.36c0 .67.94 1.2 2.1 1.2 1.15 0 2.1-.53 2.1-1.2a.75.75 0 0 0-.1-.36z" fill="#016a16" stroke="#fff" stroke-width=".24" stroke-linecap="round"/>
      <g id="d">
        <path d="M246.03 172.8l-7.06-2.2-3.07-5.26-10.9-.53.38 4 9.28 1.8.88 1.6 10.67 3-.1-2.2z"/>
        <path d="M238.66 174.25l-11.15-16.4-.5.42 11.1 16.46.7-.48z" fill="#503200"/>
        <path d="M228.55 158.5l-1.2-2c-.2-.36-.55-.48-1.05-.22-.48.26-.43.76-.24 1.12l1.1 1.85 1.4-.75z" fill="#fff"/>
        <path d="M240 164.13l-22.5-2.3-.56 3.28 22.4 2.3.65-3.2z"/>
        <path d="M217.1 161l-.6 4.54h.95l.66-4.15-1-.4zm3.74.74l-.25 4.08.5.07.5-3.7-.8-.5zm15.24 1.75l-.54 3.8 1.1-.1.43-3.8h-1zm3.36.1l-.78 4.4 1.24.2.35-2.4c.1.4.53.8 1.04.8.5 0 1-.5 1-1.1s-.5-1-1.1-1c-.4 0-.8.2-1 .7l.2-1.7-1.2-.1zm-8.12.7l-3.1 3.5.36.4 3.97-2.7-1.23-1.2zm-7.2 8.7l3.1-3.5-.36-.5-3.97 2.7 1.2 1.2zm8.1-.9l-3.76-2.9-.4.2 2.97 3.7 1.2-1.1zm-9.28-6.7l3.8 2.8.48-.4-3-3.8-1.28 1.3zm4.15-2.3l.3 4.5h.5l1.2-4.5-2.1-.1zm1.2 11.1l-.4-4.6-.6-.1-.7 4.6h1.6zm5-6.2l-4.8.5-.1.4 4.8.6v-1.6zm-11.3 1.6l4.6-.8.1-.4-4.9-.5v1.7z"/>
        <ellipse cx="227.69" cy="168.55" rx="1.27" ry="1.23"/>
        <path d="M234.44 168.55c0 3.6-3.02 6.5-6.75 6.5s-6.8-2.9-6.8-6.5 3-6.5 6.7-6.5 6.7 2.9 6.7 6.5zm-1.35 0c0 2.87-2.5 5.2-5.4 5.2-3 0-5.4-2.33-5.4-5.2 0-2.88 2.4-5.2 5.4-5.2 2.9 0 5.4 2.33 5.4 5.2z" fill-rule="evenodd" stroke-linecap="round"/>
        <path d="M223.48 165.26l-1.06-.8m8.6.03l.92-1m1.03 9.1l-1.1-.9m-8.4 1.8l.96-1.1M246.2 162l1.15 5.9-.94.5-1-6.3.8-.1z"/>
        <path d="M245.6 161.36c-.54-.22-1.24.16-2.38-1.3-1.88 1.74-.1 2 .18 3.7.53.22.86-1.32 2.3-1.48l2.3-.2-.53-.73s-1.48.04-1.88 0z" fill="#fff"/>
        <path d="M246.36 162.52l-.2-1.76c-.25-.62-1-.08-1 .28l.18 1.62 1.02-.14z" fill="#fff"/>
        <path d="M240.76 167.37l.02 1.64c-.53.2-.45.6-.43 1.2l.02 4.8c-.2.3-.78.4-1.06.6-.2.3-.2.8 1.1 1.1l1 .1c1.5-.3 1.8-.8 1.1-1.1-.4-.1-.9-.3-1.1-.5l.1-1.1h1c.3 0 .8-.6.8-1.2v-2.4c0-1.4-1-1.5-1.3-1.5l.1-1.3h-.9zm1.63 2.73c0-.4-.6-.75-.8-.76-.3 0-.8.46-.8.86v1c0 .37.3 1.6.9 1.7.3.05.6-.4.6-.76v-2.04z" fill-rule="evenodd"/>
        <path d="M234.28 172.33c-.64-.26-.63 1.17-.63 1.17h1c.44.2.8.85.5 1.17-.22.26-2.17-.44-2.3-.04.34 1.94 2.92 2.7 3.85 1.84.9-.83 1.14-3.05-1.82-3.63l-.6-.5zm.6.53l-.3.64" fill="#fff"/>
        <path d="M214.94 173.06l-.96-4.05m2.13 3.9l-1.4-3.1m4.1 2.3l-3.3-1.8m4.8 1.5l-6.2-2.7"/>
        <path d="M210.22 166s-2.26-.02-2.66.14c-.16.06.56.82.4 1.1-.55 1.1-4.38.94-4.68.7-.52-.4 3.56-.74 3.6-1.02.02-.32-.6-1.15-.5-1.66.1-.66 1.77-.9 1.77-.9l2.06 1.65z" fill="#d20014" stroke="#d20014"/>
        <path d="M213.23 168.05l-5.1-4.22s-.22-.24-.4-.04c-.2.2.06.4.06.4l5.2 4.3.2-.6z" fill="#503200"/>
        <path d="M218.15 172.22c-.1-.1-4.16-3.6-4.16-3.6l-.3-1.04s-.7.42-.9.64c-.3.22-.6.82-.6.82l1.1.05 3.6 3.3 1.1-.2z"/>
        <ellipse cx="232.53" cy="177.06" rx=".74" ry=".71"/>
        <ellipse cx="230.64" cy="175.72" rx=".74" ry=".71"/>
        <ellipse cx="228.09" cy="176.59" rx=".74" ry=".71"/>
        <ellipse cx="224.15" cy="177.44" rx=".74" ry=".71"/>
        <ellipse cx="222.49" cy="177.64" rx=".74" ry=".71"/>
        <ellipse cx="220.85" cy="177.64" rx=".74" ry=".71"/>
        <ellipse cx="219.18" cy="177.59" rx=".74" ry=".71"/>
        <ellipse cx="219.99" cy="176.32" rx=".74" ry=".71"/>
        <ellipse cx="221.6" cy="176.4" rx=".74" ry=".71"/>
        <ellipse cx="223.14" cy="176.2" rx=".74" ry=".71"/>
        <ellipse cx="222.36" cy="174.96" rx=".74" ry=".71"/>
        <ellipse cx="220.85" cy="174.94" rx=".74" ry=".71"/>
        <path d="M236.47 178c0-.32-.77-.2-.77-.56 0-.4 1.17-.1 1.34.25.66-.6.94-.2 1.34 0 .58-.9 1.3-.8 1.98-.2.4-.5 1.4-.3 1.76.2.67-.7 1.26-.5 1.72-.1.18-.4.46-.3.65-.1.3-.7 1.2-.5 1.6 0 .3-.4.6-.1 1.1.2.3-.3.8-.3.8 0s-.7.2-.7.4.4.1.4.4c0 .2-.7.3-.8-.1-.3.4-1.1.2-1.2-.2-.3.3-.9.4-1.3-.1-.3.2-.7.2-.8 0-.5.5-1.4.4-1.7-.2h-.3c-.5.7-1.3.3-1.5 0-.9.6-1.4.4-1.9 0-.6.7-1.4.6-1.6 0-.4.3-1.2.3-1.2 0s.6-.2.6-.5zm1.66.14c0 .14-.2.26-.44.26-.3 0-.5-.12-.5-.26s.2-.26.4-.26.4.12.4.26zm1.82-.22c0 .18-.24.32-.53.32-.3 0-.52-.14-.52-.32 0-.17.23-.3.52-.3.3 0 .53.13.53.3zm3.57.2c0 .17-.2.32-.47.32s-.48-.14-.48-.32c0-.17.2-.32.48-.32s.47.15.47.32zm-1.9-.08c0 .22-.2.4-.47.4s-.46-.18-.46-.4c0-.22.2-.4.4-.4s.4.18.4.4zm4.06 0c0 .2-.2.37-.42.37-.23 0-.4-.1-.4-.3 0-.2.17-.3.4-.3s.42.2.42.4zm-1.25.1c0 .12-.12.22-.27.22-.14 0-.26-.1-.26-.23s.12-.23.26-.23c.15 0 .27.1.27.23zm2.42.08c0 .2-.13.33-.3.33-.16 0-.3-.14-.3-.33 0-.18.14-.33.3-.33.17 0 .3.1.3.3z" fill-rule="evenodd"/>
      </g>
      <use height="100%" width="100%" xlink:href="#d" transform="matrix(-1 0 0 1 499.86 0)"/>
      <g stroke-width=".23">
        <path d="M249.84 165.72c-2.52 0-4.55.94-4.55 2.1 0 .2 0 .4.1.57.5.6 2.3 1 4.4 1 1.9 0 3.6-.4 4.2-1 .1-.2.2-.5.2-.7 0-1.2-2.1-2.1-4.6-2.1z" fill="#0a328c" stroke="#0a328c"/>
        <path d="M254.43 167.98v7.06c0 .83-2.05 1.5-4.58 1.5s-4.57-.67-4.57-1.5v-7.06c0 .83 2.05 1.5 4.57 1.5 2.53 0 4.58-.67 4.58-1.5z" stroke-width=".19"/>
        <path d="M245.28 167.98v1.08l2.22 6.85 1.77-5.2 1.95 5.5 1.43-5.1 1.78 3.5v-1.9l-1.66-3.3a8.25 8.25 0 0 1-.6.2l-1.02 3.8-1.45-3.6a14.52 14.52 0 0 1-.7 0l-1.47 3.6-1.66-4.3c-.37-.2-.6-.5-.6-.7z" fill="#d20014" stroke="#d20014" stroke-width=".18"/>
        <path d="M254.43 173.72v1.32c0 .83-2.05 1.5-4.58 1.5s-4.57-.67-4.57-1.5v-1.32c0 .83 2.05 1.5 4.57 1.5 2.53 0 4.58-.67 4.58-1.5z" fill="#0a328c" stroke="#0a328c" stroke-width=".19"/>
        <path d="M251.74 175.1c-.38.04-.77.08-1.2.1l.02 1.32c.42-.02.82-.06 1.2-.12l-.02-1.3zm-4.87-.24v1.3c.34.1.74.2 1.17.25v-1.3a8.9 8.9 0 0 1-1.17-.2zm-1.6-1.14v1.32c0 .25.2.47.52.68v-1.3c-.4-.2-.6-.44-.6-.7zm9.16.14h-.03c-.08.27-.38.52-.83.73v1.3c.54-.3.86-.6.86-.9v-1.2z" stroke-width=".19"/>
        <path d="M254.43 168.03v7c0 .84-2.05 1.5-4.58 1.5s-4.57-.66-4.57-1.5v-7" fill="none" stroke-width=".19"/>
        <path d="M253.4 167.52c0 .5-1.6.9-3.55.9-1.95 0-3.53-.4-3.53-.9s1.58-.9 3.53-.9c1.96 0 3.54.4 3.54.9z" fill="#fff" stroke="#fff" stroke-width=".19"/>
        <path d="M248.7 168.2l.16 1.24c.3.02.62.04.95.04l.3-1.3h-1.3zm4.1-.3l-.9.23.05 1.18c.3 0 .6-.1.86-.1V168zm-5.4-1.92c-.26.07-.5.16-.72.26l.12.95.58-.2.02-1.1zm2.44-.37c-.12 0-.24 0-.36.1l.2 1.2h.6l.24-1.1a9.73 9.73 0 0 0-.68 0zm2.67.5l-.1 1.1.7.3.1-1a5.26 5.26 0 0 0-.6-.2z"/>
        <path d="M246 168.8l.18-1.3-.94-.5.03 1.47.72.33zm8.4-.28l.04-1.3-.88.28.84 1.02z" stroke-width=".18"/>
      </g>
      <path d="M263.7 160.03c.82-.12 2.05 1.02 2.12 2.43.06 1.12-1.7 1.06-1.7 1.06-.08.46-1.04.88-1.83.92-.8.03.2-1.43.2-1.43-.5-1.2.1-2.7.1-2.7l1-.2z"/>
      <path d="M262.5 162.95l.8-.03s.06.4.2.43c.17.02.33-.4.33-.4l1.22-.03"/>
      <path d="M264.13 160.86c.68-.5.1-1.48-.4-1.5l-1.1.04c-.5 0-1.37.57-1.26 1.06.1.42.4.62.83.54.2-.03.63-.56.83-.57.28 0 .88.6 1.1.43z" fill="#d20014" stroke="#f1b517"/>
      <path d="M214.24 174.85c-.62.08-.73.8-.5 1.44-2.68.7-5.08 1.7-7.45 2.4-.1-.5 1.1-1.9 1.1-1.9.3.1.6.9.6.9 0-1.6 1.6-2.7 1.6-2.7-1-.1-3.8.9-4.1 1.4 0 0 1.1-.1 1.2 0 0 0-2.2 2.3-2.3 3 .3.7 4 1.3 4 1.3-.1.2-1.1.9-1.1.9 1.4.3 3.7-.7 4.3-1.4 0 0-1.8-.1-3.1-1.2 0 0 .2.6.1 1 0 0-2.1-.6-2.3-1 0 0 4.9-1.3 7.3-2 .1.4.5 1.2 1.1 1 .3-.2.2-.9.1-1.4a.77.77 0 0 0 .5.2c.4 0 .7-.4.7-.8s-.4-.8-.8-.8a.76.76 0 0 0-.8.5c-.1-.5-.3-1.4-.8-1.3zm1.9 1.53c0 .2-.17.35-.37.35a.35.35 0 0 1-.36-.35c0-.2.2-.34.4-.34s.4.15.4.34z" fill-rule="evenodd"/>
      <path d="M293.07 177.88c.18-.36-.16-2.2-.16-2.2-.3.03-.8.67-.8.67.5-1.5-.8-4.03-.8-4.03.9.2 4 3.12 4.1 3.65 0 0-1.3-.47-1.5-.4.2 1.5 1.3 2.2 1.7 2.98 0 0-1.7.38-1.5 1.82l-1.1.02c-.4-.5.2-1.3.2-1.3l-7.7-3.3c-.5-.2-1.6-.7-1.4-1.3.2-.6 2 .2 2.5.4l7 2.9z"/>
      <path d="M285.63 176.54l.9-1.67c.34-.44-.33-.92-.8-.36l-1.03 1.6c-.45.9.5 1.1.94.5z"/>
    </g>
    <g fill="#fff" stroke-width=".29">
      <path d="M290.2 288.6l-.1-2.93-3.55.2-.2 3.17 3.84-.45z"/>
      <path d="M264.38 292.68l-4.72-2.65c19.47 1.78 23.44-5 28.15-5.37 2.9-.23 3.4 3.2-2.2 1.57l1.5 3.6s-13.8 7.76-27.4 4.55l4.8-1.7zm84.82-4.1l.1-2.9 4.32.1.2 3.17-4.62-.36z"/>
      <path d="M375.9 291.96l4.45-2.42c-22.3.66-17.23-3.66-28.4-4.88-2.87-.3-5.04 3.4 2.27 1.57l-1.45 3.6h3.5c7.6 5 17.86 5.44 24.65 3.84l-5.02-1.7z"/>
      <path d="M285.47 286.25v5.05s12.36 4.6 34.43 4.6c22.16 0 34.43-4.6 34.43-4.6v-5.05s-9.36 4.3-34.43 4.3c-24.98 0-34.43-4.3-34.43-4.3z"/>
    </g>
    <path d="M287.32 291.33l1.1-3.7.5.14-.97 3.26 1.9.52-.14.44-2.3-.7zm3.58-1.63l.06-.72.16-.63.54.13-.17.63-.3.7h-.3zm5.32-.25l.5.1-.45 2.18c-.08.38-.18.67-.32.88a1.16 1.16 0 0 1-.6.5c-.26.1-.58.1-.95.1s-.65-.2-.86-.3a1.06 1.06 0 0 1-.4-.6c-.04-.2-.02-.5.06-.9l.46-2.2.52.1-.46 2.2c-.07.3-.1.6-.06.8a.7.7 0 0 0 .25.4l.6.3c.4.1.7.1.9-.1.2-.1.4-.4.5-.9l.5-2.2zm.58 4.02l.64-3.8.53.1 1.56 3.3.5-2.98h.5l-.64 3.8-.6-.1-1.6-3.3-.5 3-.5-.1zm4.06.6l.55-3.8.6.08-.5 3.8-.5-.07zm1.5-1.67c.08-.63.3-1.1.7-1.42.4-.32.88-.45 1.44-.4.36.05.68.17.95.37.28.2.47.46.6.78.1.32.15.67.1 1.05a2.2 2.2 0 0 1-.36 1 1.66 1.66 0 0 1-.8.63 2.05 2.05 0 0 1-1 .2 1.92 1.92 0 0 1-1-.3 1.7 1.7 0 0 1-.6-.8 2.1 2.1 0 0 1-.1-.9zm.54.07c-.05.46.03.84.26 1.13.22.3.53.46.9.5.4.05.75-.05 1.03-.3.2-.23.4-.6.5-1.08 0-.3 0-.6-.1-.84s-.2-.44-.4-.6a1.33 1.33 0 0 0-.7-.26c-.4-.04-.7.05-1 .27-.3.2-.5.6-.6 1.1zm3.7 2.27l.32-3.83.54.1 1.83 3.2.2-3 .5.1-.3 3.9h-.6l-1.9-3.1-.3 3h-.5zm5.58.4l.17-3.85 2.7.1-.03.4-2.16-.1-.06 1.2 1.87.1-.02.4-1.86-.1-.1 1.7-.6-.1zm2.93.1l1.7-3.8h.6l1.6 3.88h-.6l-.4-1.18-1.6-.04-.5 1.16h-.5zm1.2-1.55h1.4l-.4-1.1a9.82 9.82 0 0 1-.2-.8c0 .2-.1.5-.2.7l-.4 1.1zm3.1 1.6v-3.9h.6v3.8h-.5zm2.5 0v-3.4h-1.3v-.5l3.2-.1v.4h-1.3l.1 3.4h-.6zm3.9-.1l-.2-3.9h.6l.2 3.4 2-.1v.4l-2.4.1zm2.7-.1l1.3-4 .6-.1 1.9 3.7h-.6l-.5-1.2-1.6.1-.3 1.2h-.5zm1-1.7l1.4-.1-.5-1.1-.3-.8a4.75 4.75 0 0 1-.1.7l-.3 1.1zm4.7 1.2l-.4-3.8 2.7-.3.1.4-2.1.2.2 1.1 1.9-.2.1.4-1.8.2.2 1.7h-.5zm3-2.2c-.1-.7 0-1.2.3-1.6.3-.4.8-.7 1.3-.8.4-.1.7 0 1 .1.3.1.6.3.8.6.2.3.3.6.4 1 .1.3.1.7-.1 1-.1.3-.3.6-.5.8a2.02 2.02 0 0 1-.9.3c-.3 0-.7 0-1-.1a1.74 1.74 0 0 1-.7-.7 2.12 2.12 0 0 1-.3-.9zm.6-.1c.1.4.3.8.6 1 .3.2.7.3 1.1.2.4-.1.7-.3.9-.6.2-.3.3-.7.2-1.2a1.92 1.92 0 0 0-.3-.8 1.25 1.25 0 0 0-.5-.5 1.35 1.35 0 0 0-.7-.1c-.3 0-.6.2-.9.5-.2.3-.3.7-.2 1.3zm4.2 1.3l-.7-3.8 1.8-.3c.4-.1.7-.1.9-.1.2 0 .4.1.5.3.2.1.3.3.3.5.1.2 0 .5-.1.7-.1.2-.4.4-.8.5a1.4 1.4 0 0 1 .4.1c.2.1.4.2.6.4l.9.9-.6.1-.63-.7a7.44 7.44 0 0 0-.46-.5 1.2 1.2 0 0 0-.3-.2.82.82 0 0 0-.27-.1h-.3l-.6.1.3 1.7h-.5zm.2-2.3l1.1-.2a1.74 1.74 0 0 0 .6-.2.6.6 0 0 0 .3-.7.57.57 0 0 0-.3-.4c-.1-.1-.3-.1-.6-.1l-1.2.2.3 1.2zm6.3-.4h.6c0 .4-.1.8-.3 1-.2.2-.5.4-.9.5-.4.1-.8.1-1.1 0a1.63 1.63 0 0 1-.7-.6 2.57 2.57 0 0 1-.4-1c-.1-.4-.1-.8 0-1.1.1-.3.26-.6.5-.8.26-.2.56-.4.9-.4.4-.1.7-.1 1.05.1.3.1.56.3.75.7l-.5.2c-.15-.3-.3-.5-.5-.5a1.1 1.1 0 0 0-.7-.1c-.3 0-.5.2-.7.4a1.1 1.1 0 0 0-.3.6c0 .2 0 .5.06.7a2.3 2.3 0 0 0 .4.8c.17.2.36.3.6.4.23.1.47.1.7 0a1.14 1.14 0 0 0 .7-.4c.14-.2.22-.5.22-.8zm1.5 1l-1-3.7 2.8-.8.1.4-2.2.6.4 1.1 2.1-.6.18.4-2.1.6.4 1.2 2.37-.6.1.4-2.9.7z" fill="#000" stroke="none"/>
  </g>
</svg>
