<svg xmlns="http://www.w3.org/2000/svg" height="480" width="640" viewBox="0 0 640 480">
  <defs>
    <clipPath id="a">
      <path fill-opacity=".7" d="M-87.6 0H595v512H-87.6z"/>
    </clipPath>
  </defs>
  <g fill-rule="evenodd" clip-path="url(#a)" transform="matrix(.9 0 0 .9 82.1 0)">
    <path fill="#fff" d="M619.4 512H-112V0h731.4z"/>
    <path fill="#00c" d="M619.4 115.2H-112V48h731.4zm0 350.5H-112v-67.2h731.4zm-483-275l110 191.6L359 191.6l-222.6-.8z"/>
    <path d="M225.8 317.8l21 35.5L268 318l-42.3-.2z" fill="#fff"/>
    <path d="M136 320.6L246.2 129l112.4 190.8-222.6.8z" fill="#00c"/>
    <path d="M225.8 191.6l21-35.5 21.3 35.7h-42zM182 271l-21.7 36h41L182 271zm-21.3-66.4l41.2.3-20 36-21.5-36.6zm151.2 67l20.6 35.5-41.7-.2 21-35zm20.2-67l-41.2.3 20 36 21.4-36.7zm-114.3 0L189.7 256l28.8 50.4 52.8 1.2 32-51.5-29.6-51.6-55.6.4z" fill="#fff"/>
  </g>
</svg>
