<svg xmlns="http://www.w3.org/2000/svg" xmlns:xlink="http://www.w3.org/1999/xlink" height="480" width="640" viewBox="0 0 640 480">
  <path fill="#032ea1" d="M0 0h640v480H0z"/>
  <path fill="#e00025" d="M0 120h640v240H0z"/>
  <g transform="matrix(1.2 0 0 1.2 85.6 -521.9)" fill="#fff" stroke="#000" stroke-width=".96">
    <g stroke-linejoin="bevel">
      <path d="M139.02 623.46h113.8v43.8h-113.8z"/>
      <path d="M246.95 647.64h3.6v16.5h-3.6zm-107.93-8.15h113.8v5h-113.8zm0-6.9h113.8v4.4h-113.8z"/>
      <path stroke-width=".94" d="M139.02 625.7h113.8v4.35h-113.8z"/>
      <path d="M168.98 647.64h3.6v16.5h-3.6zm49 0h3.58v16.5h-3.6zm-78.06 0h3.6v16.5h-3.6zm7.03 0h3.6v16.5h-3.6zm7.5 0h3.6v16.5h-3.6zm7.5 0h3.6v16.5h-3.6zm62.82 0h3.6v16.5h-3.6zm7.5 0h3.6v16.5h-3.6zm7.5 0h3.6v16.5h-3.6z"/>
      <path d="M94.5 669.55c1.77-.9 3.78-2.98 4.43-5.32H292c.66 2.34 2.67 4.42 4.43 5.32z" stroke-linejoin="miter"/>
    </g>
    <path d="M193 556.8s-.14-4.1 2.25-4.16c2.4.05 2.25 4.16 2.25 4.16zm-12.5 54.54v-5.54c-.07-2.76-2.75-2.96-2.83-4.98 0 0-.34-3.03.45-4.4 1.1 4.04 3.06 3.3 3.06 1.63 0-1.45-1.12-2.8-3.4-6.33-.74-1.13-.3-4.66.74-5.92.4 3.07.85 4.54 2.17 4.54.8 0 1.4-.53 1.4-2.07 0-1.95-1.3-2.94-2-4.72-.8-2.08-.3-4.2 1-5.38.5 3.03.3 4.24 1.7 4.24 2.7-.8 0-4.7-.6-5.7-.7-1.1.9-3.4.9-3.4.8 2.7 1.1 2.9 2 2.7 1.2-.3 1-2-.4-3.4-.9-.9-.8-2.2.1-3.3.95 1.9 2.2 1.8 2.32.7l-.77-4.4h17.25l-.9 4.26c-.23 1.25 1.4 1.5 2.43-.5.96 1.08 1.06 2.4.15 3.3-1.4 1.4-1.57 3.14-.4 3.46.93.26 1.2.04 2.1-2.65 0 0 1.4 1.53.9 3.4-.6 1-3.3 4.9-.6 5.8 1.32 0 1.15-1.2 1.7-4.2 1.3 1.16 1.8 3.3 1.04 5.36-.63 1.8-1.95 2.8-1.95 4.76 0 1.56.64 2.1 1.45 2.1 1.3 0 1.75-1.5 2.15-4.58 1 1.25 1.46 4.8.73 5.9-2.3 3.54-3.4 4.9-3.4 6.34 0 1.64 1.93 2.4 3-1.66.8 1.4.46 4.44.46 4.44-.1 2-2.8 2.2-2.87 5v5.55zm7.23-46.02l-.4-3.13h15.84l-.4 3.1zm1.06-3.2l-.4-2.56H202l-.33 2.57zm2.1-2.65l-.3-2.57h9l-.3 2.57zm33 110.08c-2.1-.78-5-2.92-5-5.07v-24.3l2.6-3.36h-52.7l2.5 3.36v24.3c0 2.15-2 4.3-4.1 5.07z"/>
    <path stroke-linejoin="bevel" d="M178.24 647.64h3.6v16.5h-3.6zm30.32 0h3.6v16.5h-3.6z"/>
    <path d="M167.9 609.17v27.66h54.03v-5.96l.08-21.7c-2.2.87-2.6 2.87-2.6 2.87v11.78h-48.7v-11.78s-.5-2-2.7-2.87z"/>
    <path d="M214.6 669.55c-1.77-.78-5.6-2.92-5.6-5.07v-27.2c.37-1.5 2.42-2.4 3.75-3.35h-35.82c1.7.9 3.6 1.65 4.28 3.36v27.1c0 2.1-3 4.3-4.8 5z"/>
    <path d="M219.4 634.22v-19.6h-4.9v-1.9h-38.84v1.9h-4.9v19.6zm-12.54 35.33c-1.73-.78-4.25-2.92-4.25-5.07v-23.2l1.5-2.12h-17.7l1.5 2.1v23.22c0 2.15-2.5 4.3-4.2 5.07z"/>
    <path d="M190.7 639.16h8.98v30.38h-8.97z" stroke-width=".98"/>
    <path d="M204.38 632.48c.02-2 5.84-2.1 8.83-3.8h-35.9c3 1.7 8.7 1.85 8.7 3.8l1.2 3.88 14.9.6z" stroke-linejoin="bevel"/>
    <path d="M211.4 611.34c0-4.9.2-6.8 1.72-6.8v15.6c-3.7 1.33-6.33 6.04-6.33 6.04h-23.3s-2.7-4.7-6.4-6.05v-15.58c1.8 0 1.9 1.98 1.9 6.8zm1.72-2c0-5.63 4.85-6.26 4.85-6.26v5c-1.84-.08-2.74 1.58-2.74 4.04 0 2.47 1.5 2.5 1.5 2.5v14.2h-3.6z"/>
    <path d="M177.28 609.33c0-5.62-4.85-6.25-4.85-6.25v5c1.84-.08 2.74 1.58 2.74 4.04 0 2.47-1.5 2.5-1.5 2.5v14.2h3.6z"/>
    <g fill="none" stroke-width=".8">
      <path d="M186.84 570.62h17.13m-19.16 5.35h21m-22.9 6.5h24.9m-27 7.92h29.6m-30.2 9h30.4"/>
      <path d="M170.75 628.92h48.66m-33.2 0h18.1v6.64h-18.1z" stroke-width=".96"/>
    </g>
    <path d="M183.93 614.24c3 3.6 2.7 9.68 2.68 13.27H204c-.03-3.5-.3-9.6 2.68-13.2zm9.75-41.13l-2.38-1.2v-3.5c.97.3 2.07.4 2.17 2 .34-2.2.95-2.1 1.9-2.9.97.9 1.58.8 1.92 3 .1-1.5 1.1-1.6 2.1-1.9v3.5l-2.4 1.2z"/>
    <path d="M193.52 578.85l-3.95-2.7v-3.24c1.4.4 2.94.5 3.1 2.2.47-2.4 1.34-3.6 2.7-4.6 1.37 1 2.24 2.2 2.72 4.6.1-1.7 1.7-1.8 3-2.1v3.3l-4 2.7z"/>
    <path d="M193.24 587.8l-4.54-3.98v-4.74c1.6.47 3.38.66 3.55 3.16.56-3.56 1.56-5.4 3.12-6.8 1.57 1.4 2.57 3.24 3.13 6.8.17-2.5 1.96-2.7 3.55-3.16v4.73l-4.54 4zm8.37 5.3l-4.1 5.67h-4.6l-4.1-5.68zm-15.2 9.52c2.1 1.12 2.8 3.36 3.1 7.55H201c.2-4.2.97-6.43 3.02-7.55z"/>
    <path d="M204.17 593.1v-5.7c-1.95.53-3.2 1.68-3.78 3.25 0-1.9-2.5-6.26-5.2-8.43-2.8 2.43-5.3 6.38-5.3 8.43-.5-1.5-1.8-2.72-3.8-3.26v5.7z" stroke-linejoin="bevel"/>
    <path d="M205.04 602.62v-5.7c-2.14.54-3.52 1.7-4.14 3.26 0-1.9-2.73-6.26-5.7-8.43-3 2.43-5.77 6.38-5.7 8.43-.52-1.5-2.02-2.72-4.15-3.26v5.7z" stroke-linejoin="bevel"/>
    <path d="M207.44 614.32v-6.58c-2.66.7-4.3 2.66-5.15 3.8 0-3.56-4.1-9-7.1-10.76-3.2 1.82-7.1 7.43-7.1 10.76-.9-1.14-2.5-3.1-5.2-3.8v6.58z" stroke-linejoin="bevel"/>
    <path d="M206 628.92v-6.76c-2.35.92-3.05 3.18-3.8 4.72.3-6.86-3.85-14.23-7-16.1-3.17 1.87-7.4 9.4-7.03 16.1-.76-1.53-1.44-3.8-3.8-4.72v6.76z" stroke-linejoin="bevel"/>
    <path d="M204.36 639.16v-6.76c-2.46.58-2.6 1.5-3.4 3 .3-4.1-2.6-8.77-5.76-10.64-3.17 1.87-6.07 6.55-5.78 10.64-.78-1.5-.88-2.42-3.4-3v6.76z"/>
    <g id="a">
      <path d="M98.94 664.23V643.8c-.67-2.6-2.88-4.9-4.54-5.38v-18l3.74 2.03 4.27 18.8v22.98z"/>
      <path d="M98.94 664.3v-20.5c-.67-2.6-2.88-4.9-4.54-5.38v-19.24c2.5 0 3.74 3.27 3.74 3.27l4.27 18.8v22.9z"/>
      <path d="M96.28 669.55c1.73-.78 4.24-2.92 4.24-5.07v-25.55l-1.18-2.1h43.52l-1.7 2.1v25.55c0 2.15 1.73 4.3 3.46 5.07z"/>
      <path d="M135.84 669.55c-1.73-.78-4.25-2.92-4.25-5.07v-24.3l3.6-3.36h-29.6l3.6 3.36v24.3c0 2.15-2.5 4.3-4.3 5.07z"/>
      <path d="M131.7 669.55c-1.74-.78-4.26-2.92-4.26-5.07V642.5l2.37-3.34H111l2.38 3.36v21.96c0 2.15-2.52 4.3-4.25 5.07z"/>
      <path d="M115.92 639.16h8.98v30.4h-8.98z"/>
      <path stroke-linejoin="bevel" d="M103.7 647.64h3.6v16.5h-3.6zm30.75 0h3.6v16.5h-3.6zm-33.8-27.82h4.3v16.9h-4.3zm0-3.18h4.28v3.14h-4.3z"/>
      <path d="M136.17 623.46h6.16v13.05h-6.16z" stroke-width="1.03" stroke-linejoin="bevel"/>
      <path d="M104.9 636.6v-28.94c1.22 0 1.4 4.24 4.24 4.24 1.47 0 1.3-1.76.5-3.2-.74-1.26-1.65-3-.42-6.27.84 2.5 3.1 3.3 2.7 1.73-.73-2.7-2.8-3.13-1.25-7.3.54 3.47 2.78 3.32 2.24 1.3-.6-2.28-1.8-3.22-.3-6.43.9 3.65 2.1 3.43 2.1 1.17 0-3.35-.1-6.96 4.2-8.3 0 0 .3-3.06 1.8-3.06s1.8 3.06 1.8 3.06c4.4 1.34 4.2 4.95 4.2 8.3 0 2.26 1.2 2.48 2.1-1.17 1.6 3.2.3 4.15-.3 6.43-.5 2.02 1.7 2.18 2.2-1.3 1.6 4.17-.5 4.6-1.2 7.3-.4 1.56 1.9.77 2.7-1.73 1.3 3.26.4 5.02-.4 6.28-.8 1.5-1 3.2.5 3.2 2.8 0 3-4.2 4.3-4.2v29zm-6.78-21.86v22.08h2.5v-22.14c-.9-.45-1.74-.52-2.5.06z"/>
      <path d="M98.2 629.03c3.12 1.6 6.2 3.43 6.98 7.8H98.2zm43.17-6.6v14.4h2.04v-14.45c-.6-.3-1.5-.34-2 .04z"/>
      <path d="M143.4 628.92c-3.1 1.6-6.2 3.43-6.97 7.8h6.98zm-20.57-33.65l1.8-1.52v-1.96c-.65 0-1 .3-1.5.9-.42-1.3-1.34-2.3-2.56-3-1.23.6-2.15 1.6-2.57 2.8-.5-.7-.85-.8-1.5-.9v1.9l1.8 1.5z"/>
      <path d="M123.8 600.16l.84-1.82v-2.54c-.66.06-1.02.3-1.5.94-.43-1.3-1.35-2.33-2.58-2.97-1.22.64-2.14 1.62-2.56 2.93-.5-.65-.85-.84-1.5-.9v2.53l.83 1.83z"/>
      <path d="M123.93 606.8l2.7-3.3v-3.24c-1 .1-1.53.5-2.26 1.6-.62-2.22-1.98-2.7-3.8-3.78-1.83 1.08-3.2 1.48-3.8 3.7-.74-1.1-1.28-1.4-2.26-1.52v3.24l2.7 3.3z"/>
      <path d="M124.72 613.3s3.14-2.74 3.33-4.24v-3.47c-1.22.1-2.37.4-3.27 1.8-.77-2.9-1.96-3.7-4.2-5.1-2.27 1.4-3.46 2.2-4.22 5-.9-1.4-2.05-1.8-3.27-1.9v3.5c.4 1.5 3.3 4.2 3.3 4.2z"/>
      <path d="M126.06 625.32s4.3-4.76 4.4-6.62v-5.4c-1.6.22-3.13 1.33-4.32 3.55-1-4.48-2.6-7.6-5.57-9.77-2.98 2.17-4.56 5.3-5.57 9.77-1.2-2.22-2.7-3.33-4.32-3.55v5.4c.3 1.86 4.4 6.62 4.4 6.62z"/>
      <path d="M126.06 632.43s3.68-3.74 4.4-5.37v-5.4c-1.6.22-3.13 1.33-4.32 3.55-1-4.4-2.6-7-5.57-9.2-2.98 2.2-4.56 4.8-5.57 9.2-1.2-2.2-2.7-3.3-4.32-3.5v5.4c.93 1.7 4.4 5.4 4.4 5.4z"/>
      <path d="M127.54 636.56c-1.07-4.67-2-8.13-7.16-11.64-5.17 3.5-6.1 6.97-7.17 11.64z"/>
      <path d="M130.2 639.16v-6.76c-2.35.92-4.47 2.28-5.25 3.8-.87-3.76-2.56-5.42-4.65-7.7-2.1 2.3-3.5 3.94-4.38 7.7-.78-1.52-2.9-2.88-5.25-3.8v6.76z"/>
    </g>
    <use height="100%" width="100%" xlink:href="#a" transform="matrix(-1 0 0 1 390.7 0)"/>
    <path d="M72.7 694.25H318v12.53H72.7z"/>
    <path d="M66.23 706.76H324.5v12.5H66.22zm19.35-31.25h219.56v8.2H85.58z"/>
    <path d="M79.16 683.56h232.4v10.62H79.16zm10.25-14.28h211.9v6.17H89.4z"/>
    <path d="M112.4 669.3h16v49.94h-16z" stroke-width="1.04"/>
    <path d="M115.95 669.3h8.92v49.95h-8.92zm71.13 0h16v49.94h-16z" stroke-width="1.04"/>
    <path d="M190.73 669.3h8.92v49.95h-8.92zm71.47 0h16v49.94h-16z" stroke-width="1.04"/>
    <path d="M265.73 669.3h8.92v49.95h-8.92z" stroke-width="1.04"/>
    <path d="M98.94 664.23H292m-176.2 48.74h9.23m-9.24-6.25h9.2m-9.3-6.25h9.3m-9.3-6.25h9.3m-9.3-6.25h9.3m-9.3-6.25h9.2m-9.26-6.25h9.23m65.74 37.5h8.6m-8.6-6.24h8.6m-8.6-6.26h8.6m-8.6-6.25h8.6m-8.6-6.25h8.6m-8.6-6.26h8.6m-8.6-6.2h8.6m66.2 37.5h9.3m-9.2-6.2h9.3m-9.2-6.2h9.24m-9.2-6.2h9.25m-9.23-6.2h9.3m-9.22-6.22H275m-9.24-6.24H275" fill="none"/>
  </g>
</svg>
