<svg xmlns="http://www.w3.org/2000/svg" height="480" width="640" viewBox="0 0 640 480">
  <g fill-rule="evenodd">
    <path fill="#6fdcff" d="M0 0h640v480H0z"/>
    <g fill="#ffe400">
      <path d="M60.23 467c3.26 3.18 2.2 8.53 11.23 7.85 13.8 0 14.2-8.45 14.2-14.35s-20.57-14.12-21.5-22.8c-.97-8.66 4.73-11.08 9.5-11.08 4.76 0 8.1 2.77 8.1 5.2s-2.38 3.12-5.72 3.12 1.43-1.74-1.42-3.12-4.77 2.07-4.77 4.16c0 2.08 7.14 2.77 11.9 1.2.96 4.7 1.43 5.04-5.24 13 4.8-3.1 5.3-3.8 10.5-2.07-5.2-4.5-1.3-13.7-1.1-16s-1-5.1-3.1-6.5c-3.8-3.4-12.1-3.6-17.1-1.4-7.3 3.3-7.6 12.8-5.7 16l20 20.6c1.5 2.5 2 9.2-6.6 9.6-9 .7-12.1-11.6-13.7-15.7-2.1 4.4-4.5 16.8-13.6 16.1-8.6-.4-10.2-7.1-8.8-9.6L58 440.1c1.9-3.17 1.57-12.7-5.7-16-5-2.2-13.4-2.06-17.2 1.4-2.2 1.4-3.4 4.17-3.2 6.5s4.1 11.53-1.18 16.04c5.26-1.7 5.7-1 10.5 2.1-6.7-7.97-6.2-8.3-5.26-13 4.8 1.56 11.93.87 11.93-1.2 0-2.1-1.9-5.56-4.8-4.2-2.9 1.4 1.9 3.1-1.4 3.1-3.4 0-5.8-.7-5.8-3.14s3.3-5.16 8.1-5.16 10.5 2.4 9.5 11.1c-1 8.63-22.1 18.1-22.1 24 0 5.9 1.4 13.1 15.2 13.1 9 .7 10.1-4.67 13.4-7.86z"/>
      <path d="M59.14 343.3c3.25-3.2 5.92-12.63 14.97-11.94 13.8 0 19.1 7.63 19.1 13.53 0 5.8-28 54-29 62.7-.9 8.6 4.8 11.1 9.5 11.1 4.8 0 8.1-2.8 8.1-5.2s-2.3-3.1-5.7-3.1 1.4 1.7-1.4 3.1-4.7-2.1-4.7-4.2 7.2-2.8 11.9-1.2c1-4.7 1.4-5.1-5.2-13 4.8 3.1 5.3 3.8 10.5 2-5.2 4.5-1.3 13.7-1.1 16s-1 5.1-3.1 6.5c-3.9 3.4-12.2 3.6-17.2 1.4-7.3-3.3-7.6-12.9-5.7-16l27-58.4c1.5-2.4-2.3-10.4-10.9-10.8-9-.7-12.1 8.8-13.7 12.9l12.3-.9s.5 1.9 0 3.1c-6.4.4-12.3 1.5-12.3 1.5l-.4 6.2h6l-.5 2.7s-5.1-.4-5.6 0c-.5.3-.9 6.2-.9 6.2s-.9.3-2 .3c-1 0-2-.3-2-.3s-.4-5.9-.9-6.3c-.4-.3-5.6 0-5.6 0l-.4-2.8h6l-.5-6.3s-6-1.2-12.4-1.6c-.5-1.3 0-3.2 0-3.2l12.3.9c-1.6-4.1-4.7-13.6-13.7-12.9-8.5.3-12.3 8.3-10.9 10.7l27.2 58.8c1.9 3.1 1.6 12.7-5.7 15.9-5 2.2-13.3 2-17.1-1.4-2.1-1.4-3.3-4.2-3.1-6.5s4.1-11.5-1.1-16.1c5.25 1.8 5.7 1.1 10.5-2-6.7 8-6.2 8.3-5.26 13 4.7-1.5 11.9-.9 11.9 1.2s-1.9 5.6-4.8 4.2c-2.8-1.4 1.9-3.1-1.4-3.1s-5.7.7-5.7 3.2 3.3 5.2 8.1 5.2S55 416 54 407.3c-.9-8.7-29-56.8-29-62.7 0-5.9 5.2-13.5 19-13.5 9.1-.7 12.3 8.8 15.5 11.9z"/>
      <path d="M59.14 319.4c3.25 3.2 5.92 12.63 14.97 11.94 13.8 0 19.1-7.63 19.1-13.53 0-5.8-28-54-29-62.7-.9-8.6 4.8-11.1 9.5-11.1 4.8 0 8.1 2.8 8.1 5.2s-2.3 3.2-5.7 3.2 1.4-1.7-1.4-3.1-4.7 2.1-4.7 4.2 7.2 2.8 11.9 1.2c1 4.7 1.4 5.1-5.2 13 4.8-3.1 5.3-3.8 10.5-2-5.2-4.5-1.3-13.7-1.1-16s-1-5.1-3.1-6.5c-3.8-3.4-12.1-3.6-17.1-1.4-7.3 3.3-7.6 12.8-5.7 16l27 58.4c1.5 2.5-2.3 10.4-10.9 10.8-9 .7-12.1-8.8-13.7-12.9l12.3.9s.5-1.9 0-3.1c-6.4-.4-12.3-1.5-12.3-1.5l-.5-6.2h6l-.5-2.8s-5.1.4-5.6 0c-.4-.3-.9-6.2-.9-6.2s-.9-.4-2-.4c-1 0-2 .3-2 .3s-.4 5.9-.9 6.2c-.5.3-5.6 0-5.6 0L50 304h6l-.47 6.2s-5.97 1.13-12.34 1.54c-.5 1.3 0 3.2 0 3.2l12.3-.9c-1.6 4.1-4.7 13.57-13.7 12.9-8.5-.36-12.3-8.34-10.9-10.77L58 257.5c1.9-3.15 1.53-12.7-5.74-15.97-5-2.22-13.3-2.06-17.12 1.4-2.13 1.4-3.33 4.17-3.15 6.5s4.1 11.53-1.2 16.04c5.3-1.7 5.7-1 10.5 2.1-6.7-7.96-6.2-8.3-5.3-13 4.7 1.57 11.9.88 11.9-1.2 0-2.1-1.9-5.55-4.8-4.2-2.8 1.4 1.9 3.16-1.4 3.16-3.4 0-5.7-.7-5.7-3.12s3.3-5.2 8.1-5.2 10.4 2.5 9.5 11.1c-1 8.7-29 56.9-29 62.8 0 5.9 5.2 13.6 19 13.6 9 .7 12.2-8.7 15.5-11.9z"/>
      <path d="M59.14 160.6c3.25-3.17 5.92-12.6 14.97-11.92 13.8 0 19.1 7.63 19.1 13.53 0 5.9-28 54.1-29 62.8-.9 8.7 4.8 11.1 9.5 11.1 4.8 0 8.1-2.8 8.1-5.2s-2.3-3.1-5.7-3.1 1.4 1.8-1.4 3.1-4.7-2-4.7-4.1c0-2.1 7.2-2.7 11.9-1.2 1-4.7 1.4-5-5.2-13 4.8 3.1 5.3 3.8 10.5 2.1-5.2 4.5-1.3 13.7-1.1 16.1s-1 5.1-3.1 6.5c-3.8 3.5-12.1 3.6-17.1 1.4-7.3-3.2-7.6-12.8-5.7-15.9l27.1-58.7c1.5-2.4-2.3-10.4-10.9-10.7-9-.7-12.1 8.7-13.7 12.8l12.3-.9s.5 1.9 0 3.2c-6.4.4-12.3 1.6-12.3 1.6l-.5 6.2h6l-.5 2.8s-5.1-.4-5.6 0c-.5.3-.9 6.2-.9 6.2s-.9.4-2 .4c-1 0-2-.4-2-.4s-.4-5.9-.9-6.2c-.4-.3-5.6 0-5.6 0l-.4-2.8h6l-.4-6.2s-6-1.2-12.3-1.6c-.4-1.2 0-3.1 0-3.1l12.4.9c-1.6-4.1-4.7-13.6-13.7-12.9-8.6.4-12.4 8.4-10.95 10.8l27 58.5c1.9 3.2 1.54 12.7-5.73 16-5 2.2-13.3 2.1-17.12-1.4-2.1-1.4-3.3-4.2-3.12-6.5s4.1-11.5-1.2-16c5.2 1.8 5.7 1.1 10.5-2.1-6.7 8-6.2 8.4-5.3 13 4.7-1.5 11.9-.8 11.9 1.2 0 2.1-2 5.6-4.8 4.2-2.9-1.4 1.9-3.1-1.4-3.1-3.4 0-5.7.7-5.7 3.1s3.3 5.2 8.1 5.2 10.4-2.4 9.5-11.1c-1-8.6-29-56.8-29-62.7 0-5.9 5.2-13.5 19-13.5 9-.7 12.2 8.8 15.5 12z"/>
      <path d="M59.14 136.73c3.25 3.18 5.92 12.62 14.97 11.93 13.8 0 19.1-7.63 19.1-13.53 0-5.9-28-54.1-29-62.75-.9-8.68 4.8-11.1 9.5-11.1 4.8 0 8.1 2.78 8.1 5.2s-2.3 3.12-5.7 3.12 1.4-1.73-1.4-3.12-4.7 2.08-4.7 4.17c0 2.07 7.2 2.76 11.9 1.2 1 4.68 1.4 5.04-5.2 13 4.8-3.12 5.3-3.8 10.5-2.07-5.2-4.5-1.3-13.7-1.1-16.04s-1-5.1-3.1-6.5c-3.8-3.47-12.1-3.62-17.1-1.4-7.3 3.26-7.7 12.83-5.8 15.96l27 58.6c1.5 2.43-2.3 10.4-10.9 10.75-9 .7-12.1-8.8-13.7-12.9l12.3.9s.5-1.9 0-3.13c-6.4-.42-12.3-1.57-12.3-1.57l-.5-6.25h6l-.5-2.76s-5.1.34-5.6 0c-.5-.35-.9-6.26-.9-6.26s-.9-.34-2-.34c-1 0-2 .34-2 .34s-.4 5.9-.9 6.26c-.4.34-5.6 0-5.6 0l-.5 2.76h6l-.4 6.25s-5.9 1.16-12.3 1.57c-.4 1.23 0 3.13 0 3.13l12.4-.9c-1.6 4.1-4.7 13.6-13.7 12.9-8.5-.35-12.3-8.32-10.9-10.75l27-58.6c1.9-3.13 1.6-12.7-5.7-15.95-5-2.23-13.3-2.08-17.1 1.4-2.2 1.38-3.4 4.15-3.2 6.5s4.1 11.52-1.1 16.03c5.3-1.74 5.8-1.05 10.5 2.07-6.6-7.96-6.2-8.32-5.2-13 4.8 1.56 11.9.87 11.9-1.2 0-2.1-1.9-5.56-4.8-4.17-2.8 1.4 1.9 3.12-1.4 3.12s-5.7-.7-5.7-3.12 3.3-5.2 8.1-5.2 10.5 2.43 9.5 11.1c-.9 8.66-29 56.86-29 62.75 0 5.9 5.3 13.53 19.1 13.53 9.1.7 12.3-8.75 15.6-11.93z"/>
      <path d="M60.23 13c3.26-3.18 2.2-8.54 11.23-7.85 13.8 0 14.2 8.45 14.2 14.35 0 5.88-20.57 14.12-21.5 22.78-.97 8.68 4.73 11.1 9.5 11.1 4.76 0 8.1-2.78 8.1-5.2s-2.38-3.12-5.72-3.12 1.43 1.73-1.42 3.12-4.77-2.07-4.77-4.16c0-2.08 7.14-2.77 11.9-1.2.96-4.7 1.43-5.05-5.24-13 4.8 3.1 5.3 3.8 10.5 2.07-5.2 4.5-1.3 13.6-1.1 16s-1 5.1-3.1 6.5C79 57.8 70.7 58 65.7 55.8c-7.26-3.3-7.62-12.88-5.7-16l20-20.6c1.44-2.44 1.93-9.2-6.63-9.54-9.05-.7-12.15 11.64-13.75 15.74-2.16-4.47-4.56-16.83-13.6-16.15-8.58.35-10.23 7.1-8.8 9.53l20.7 21.08c1.9 3.13 1.55 12.7-5.73 15.95-5 2.3-13.4 2.1-17.2-1.3-2.2-1.4-3.4-4.1-3.2-6.5s4.1-11.6-1.1-16.1c5.3 1.8 5.7 1.1 10.5-2.1-6.7 8-6.2 8.4-5.3 13 4.8-1.5 11.9-.8 11.9 1.3s-1.9 5.5-4.8 4.2c-2.9-1.4 1.9-3.1-1.4-3.1-3.4 0-5.8.7-5.8 3.2s3.3 5.2 8.1 5.2 10.7-2.6 9.7-11.2c-1-8.7-22.1-18.1-22.1-24 0-5.9 1.4-13.1 15.3-13.1 9-.7 10.1 4.7 13.4 7.8z"/>
    </g>
    <g fill="#ffe400" transform="translate(-194.73 8.285) scale(1.0673)">
      <rect rx="85.12" ry="80.65" height="161.3" width="170.24" y="104.45" x="425.9"/>
      <path d="M506.94 56.35c-.7 0-4.53 26.85-6 32.88-1.34 13.43 18.06 12.94 14.88-.53l-8.88-32.35zm6.83 259.86c.7.1 6.5-26.4 8.4-32.4 2.3-13.3-17.07-14.1-14.9-.4l6.5 32.9zm-135.6-131.6c-.06.7 27.9 6.3 34.16 8.2 14.03 2.3 14.96-16.1.54-14.1l-34.7 6zm271.72 3.2c0-.6-28.2-5.2-34.5-6.9-14.2-1.7-14.3 16.7.1 14.2l34.4-7.2zM406.8 99.7c-.5.5 17.88 21.25 21.6 26.35 9.58 9.96 22.26-3.96 9.6-10.8L406.8 99.7zm211.15 171c.43-.53-19.77-19.7-23.94-24.47-10.4-9.15-21.8 5.76-8.5 11.54l32.5 12.9zM448.97 70.62c-.64.28 7.97 26.1 9.34 32.17 4.9 12.6 22.2 4.4 13.3-6.5L449 70.6zm123 232.34c.67-.24-6.02-26.57-6.95-32.7-3.9-12.98-21.8-5.87-13.68 5.6l20.64 27.1zm30.2-214.36c-.52-.46-22.72 16.6-28.16 20.05-10.6 8.92 3.8 21.15 11.3 9.28l16.9-29.33zM419.23 282.33c.48.5 23.87-15.08 29.55-18.14 11.3-8.2-2.25-21.4-10.54-10l-19.02 28.1zm-35.1-144.17c-.28.6 24.13 14.7 29.37 18.42 12.46 6.54 19.78-10.48 5.48-13.14l-34.83-5.28zm253.93 98.44c.34-.6-23-16.27-27.94-20.3-11.94-7.36-20.5 9.15-6.42 12.74l34.37 7.56zm-80.7-172.88c-.66-.25-14.57 23.4-18.27 28.52-6.5 12.04 11.8 18.3 14 4.66l4.2-33.18zM463.5 307.97c.65.3 16.26-22.4 20.33-27.25 7.28-11.6-10.46-19.04-13.7-5.58l-6.62 32.83zm-77.47-69.3c.26.64 28-5.98 34.45-6.92 13.64-3.82 5.95-20.7-6.07-12.9L386 238.68zm252.1-102.56c-.22-.6-28.37 4.2-34.88 4.7-13.9 2.9-7.47 20.3 5.1 13.3l29.77-17.9z"/>
      <path d="M534.62 58.12c-.7-.14-10.14 25.43-12.87 31.06-4.15 12.9 14.95 16.12 14.7 2.3l-1.83-33.36zm-48.47 255.85c.68.2 11.98-24.7 15.12-30.14 5.08-12.6-13.74-17.06-14.5-3.28l-.62 33.42zm-9.77-253.33c-.7.14 1.92 27.12 1.9 33.32 1.88 13.37 20.67 8.78 14.4-3.68l-16.3-29.64zm68 251.82c.7-.1.08-27.18.56-33.36-.9-13.46-19.98-10.12-14.63 2.72l14.1 30.64zM428.18 83.1c-.6.38 12.76 24.34 15.25 30.06 7.15 11.66 22.64.6 11.8-8.63L428.16 83.1zm164.85 207.76c.6-.34-10.95-25.13-13.02-31-6.2-12.1-22.5-2.08-12.4 7.83l25.5 23.1zM393 116.64c-.4.56 21.13 18.4 25.62 22.9 11.1 8.44 21.36-7.15 7.75-12.08L393 116.64zm234.2 139.62c.43-.53-19.74-19.74-23.9-24.52-10.44-9.16-21.83 5.72-8.6 11.53l32.5 13zm-249.63-97.73c-.18.65 26.34 10.78 32.14 13.63 13.5 4.53 17.7-13.4 3.2-13.8l-35.2.17zm267.47 57.82c.23-.64-25.48-12.5-31.07-15.7-13.04-5.4-18.63 12.2-4.13 13.56l35.2 2.2zm-268.34-6.4c.1.68 28.7.27 35.2.76 14.22-.7 10.83-18.8-2.76-13.8L376.7 210zm270.2-44.98c-.04-.67-28.6-2.15-35.06-3.07-14.23-.18-12.18 18.1 1.75 14.03l33.3-10.96zm-245.7 98.46c.4.56 25.93-11.64 32.02-13.9 12.43-6.56 1.04-21.44-8.9-11.34l-23.12 25.2zM623.5 111.1c-.35-.58-26.72 9.9-32.96 11.76-12.88 5.73-2.6 21.32 8.04 11.9l24.92-23.66zM442.83 298.77c.6.36 18.87-20.47 23.5-24.85 8.65-10.7-8.07-20.05-12.92-7.03l-10.5 31.8zm139.7-223.7c-.56-.4-20.32 19.18-25.26 23.23-9.4 10.13 6.58 20.54 12.38 7.87l12.9-31.1z"/>
      <g transform="matrix(2.1824 0 0 2.063 -405.01 -272.56)">
        <path d="M360.14 247.9c.62 2.5.78 16.55 14.84 30 14.06 13.43 37.97 16.4 37.97 16.4s.16 1.87-1.56 2.03c-1.8.15-9.9-1.57-14-2.82-4.1-1.2-7.7-3.4-8.1-3.2-.5.2-1.3 1.6-2.5 1.4s-7.1-6.2-9.6-7.8c-2.5-1.5-11-10.8-13.8-15.3-2.8-4.5-3.5-7.5-4.4-7.5s-4.3 2.2-4.3 2.2-3-4.5-5.6-11.7c-2.7-7.1-2.4-11.4-1.8-11.7.6-.3.6 5.3 2.6 10.5s4.8 6.7 4.8 6.7-1.9-2.6-3.3-9.3-1.9-13.1-1-15.1c.9-2 1.8-2.7 2-2.5.1.2-1.8 3.1-.5 10.8s4.8 14.2 5.6 13.9c.8-.3-.5-1.8-1.1-6.4s.6-7.3 1.7-7.6c.4-.4 1.2 5 1.4 7.4zm-9.85 12.8c-2.7-2.5-6.9-11.25-7.9-10.78-1 .47 6.8 12.97 7 14.06.1 1.1 1.9 4.53.6 4.06s-10.7-10.3-9.6-8.43 8.1 10.5 7.6 11-5.8-4.7-6-4c-.2.7 5.3 5.8 5.1 6.4s-3.5-3.2-3.5-2.5 3.4 4.7 3.4 5.3-3-2.8-2-.9c.9 1.9 3.6 3.6 3.4 4.3s-2.2-.8-2.2-.5c0 .4 3.9 1.8 4.8 2.9.9 1.1 7.3 8.5 12.2 12.2s18.6 10.2 19.5 10.2c.9 0 2.3-2 2-2.8-.4-.8-13.8-5.3-17.5-8.7-3.8-3.4-13-11.5-13.8-12-.8-.5-2.8-.3-2.8-.8s2.6.3 2.5 0c-.2-.3-3.8-1.9-3.6-2.2.1-.3 2.5.7 2.5.3 0-.3-4.3-2.6-4.1-3.1.1-.5 3.1 1.4 3.1 1.1 0-.3-4-3.1-3.9-3.6.2-.5 3.1 2.2 3 1.6s-2.4-3.9-2.4-4.4 3.6 3.5 3.9 2.7c.3-.8-1.2-7.2-1.1-7.3s2.7 1.4 3.1.5c.5-.9-1.8-2.2-4-4.1zm46.1 49.2c-1.9.25-2.8-.4-1.7-1.93 1.5-.1 5.4-1.38 6.8-1.96s2.9-1.4 4.1-2.5c1.2-1.2 1.9.8 1.3 1.8-.6.8-2.9 2.1-4.6 2.8-2.5.8-4.6 2-6.1 1.9zm12.5-5.13c-1.3-1.4-.2-2.34 1.7-3.44 2.8-1.56 2-3.6 5.6-5.3 1.5-.95 23.9-10 31.2-14.85s27.8-20.32 33.3-30.94c5.4-10.63 2.8-11.4 3.6-11.88.8-.47 1.5 1.57 1.4 3.9-.2 2.35-1.9 9.38-1.4 10s8.3-5.46 11.4-12.96 5.6-15.3 7.2-15.3c1.5 0-2.7 12.8-5.3 17.8-2.7 5-5.8 7.5-5 8.6.8 1.1 8.6-5.47 11.2-10.32 2.6-4.84 5.1-9.22 5.6-8.28.5.94-2.5 11.25-6.7 16.1-4.3 4.84-9.3 8.28-8.5 9.06.8.78 6.4 1.56 12.3-2.5 5.9-4.07 6.5-10 7.3-9.7.8.32-.8 8.45-6.4 13.45s-13.3 5.5-13 6.6c.3 1.1 16.2-4.5 15.9-3.3-.3 1.3-20.7 9.2-20.8 10 0 .6 3.4.8 8.9-.4 5.5-1.2 10.6-5.4 11.4-4.5.1 1.4-3.9 4.9-10.2 6.4-6.3 1.6-9.4 3.8-9.6 4.2-.2.5 11.1-1.4 11.1-.7s-14.7 3.5-14.9 4.2c-.2.8 14-2.8 13.7-2-.3.8-19.2 6.4-19 6.8.1.3 15.8-3.4 15.4-2.8-.3.6-26.4 8-26.6 8.4-.2.5 22.9-5.1 22.8-4.6s-12 3.4-12 3.7c0 .3 9.5-1.6 9.4-1.1-.2.5-24.1 6.6-24.6 7.5-.5.9 12.3-2.5 12.2-.8s-27.7 11.1-27.9 9.4c-.2-1.7 16.7-6.1 16.6-6.6-.2-.4-9.7 1.1-9.9.2-.1-.9 6.3-2.9 5.8-3.4s-5.3 1.4-4.8.3c.4-1.1 9.5-5.3 9.4-5.6-.2-.4-3.3 1-3 0 .3-1.1 19.6-6.8 19.3-7.4-.3-.6-8.9 1.4-9.7 1.6-.3-.6 12-5.2 11.7-5.9-.3-.7-6.6 2.7-6.9 1.8-.3-.9 10.8-5.3 10.2-5.9s-5.8 1.7-6.4 1.1 10.5-8.4 8.7-8.6c-1.7-.1-3.8 2.4-4.1.8.3-2 8.7-5.3 6.8-6.9-3-.9-13.1.6-17.37 3.1s-18.1 16.4-21.5 18.6c-3.46 2.2-15 7.1-17.2 8-3.4 1.3-4.08 3.2-7.5 4.9-6.27 1.7-6.26 3.6-9.2 4.7-1.1.3-12.38 5.8-12.5 5.3zm-15.8 7.03c-1.9.94-3.6 3.44-2.5 4.37.6 1.25 2.5-2.65 4-2.5 1.5.16 3.7.16 7.9.47 4.2.3 6.4-.94 8.7-.78s7.6-1.25 10.1-1.25 3 .4 3.3-.7c.3-1.1-7.8-.3-11.4-.4-3.6-.1-8.2.8-10.8.8-2.5-.1-6.9-.9-9.5.2z"/>
        <rect rx="1.72" ry="1.48" height="2.97" width="3.44" y="309.14" x="401.7"/>
        <path d="M445.02 307.73c1.72-.3 6.3 1.25 9.48 2.03 5.83 2.2 16.6 1.1 16.6 2.2s-.67 2.5-3.24 2.65-8.76-.9-8.6-.9 4.98 2.2 3.6 2.8-5.47-1.2-6.16-.7 3.77 1.4 3.1 1.8c-.7.3-3.8-.4-4.82-.3-1.03.2.86 1.3-.34 1.7-1.2.5-3.2-.6-4.07-.3-.86.3 1.85 2 .65 2.2-1.2.2-4.1-.7-5.64-.9-1.54-.1 1.52 1.6.5 1.8-1.04.2-3.83-1.2-4.52-1.2s.06 1.9-.97 1.9c-1.1 0-2.3-1.5-2.8-1.5s0 1.9-1 1.9-1.4-2-2.3-1.9c-1 .2 0 2.7-1.4 2.5-1.4-.1-1.6-2.6-2.6-2.5-1.1.2.1 2.5-.9 2.5s-1.2-2.3-2.3-2.5c-1-.1-.5 2.2-1.2 2.2s-1.2-2.2-1.6-2.2c-.4 0 0 2.2-1.2 2.1s-1.2-2.5-1.6-2.3c-.4.2-.4 1.7-1.2 1.7s-.9-1.5-1.2-1.4c-.4.2-1.6 2.2-2.4 1.9-.9-.3.2-1.9-.2-1.9s-1.4 1.1-2.1 1 0-1.4-.2-1.4-1.8.8-2.5.8-2.6 1.1-3.1.2c-.5-.9 1.3-.9 1.7-1.8.3-.9-1-3.6.4-4.5 1.3-.9 5.6 1.3 12-.3 11.6-3.1 20.6-6.7 21.5-6.6z"/>
      </g>
    </g>
  </g>
</svg>
