<svg xmlns="http://www.w3.org/2000/svg" xmlns:xlink="http://www.w3.org/1999/xlink" height="480" width="640" viewBox="0 0 640 480">
  <path fill="#002b7f" d="M0 0h640v240H0z"/>
  <path fill="#ce1126" d="M0 240h640v240H0z"/>
  <g transform="scale(.8)" fill="#ffd83d" stroke="#000" stroke-width="2" stroke-linecap="round" stroke-linejoin="round">
    <g id="a">
      <path d="M216.38 122.3l-1.84 62.5h-63.42c-7.8-15.18-14.25-28.06-14.25-45.5 0-14.6 11.5-26.2 28.04-26.2 17.6 0 36.8 5.9 51.5 9.2z" stroke="none"/>
      <g stroke-width="1.5">
        <path d="M144.46 125.16v36.08m5.1-39.76v48.03m5.08-50.5v57.3m5.1-58.4v44.9m5.1-45.1V163m5.08-46.9V163m5.1-46.9V163m5.1-46.45v46.9M185.2 117v46.9m5.1-43.9v46.87m5.1-46.43v52.86m5.08-52.9v46.9m5.1-46.9v46.9"/>
        <path d="M176.4 117.92c10.76 1.78 34.4 12.84 31.7 27.8-3.8 21.22-16.2 12.7-32.62 9.66l-12.4 4.13c-4.45 4.6-11 8.7-15.4 3.3h-7.36v28.7h81.34v-69.4z" fill="#000"/>
      </g>
      <circle cx="212.81" cy="112.98" r="4.94"/>
      <circle cx="201.71" cy="110.31" r="4.94"/>
      <circle cx="190.45" cy="107.48" r="4.94"/>
      <circle cx="179.14" cy="105.6" r="4.94"/>
      <circle cx="167.84" cy="104.48" r="4.94"/>
      <circle cx="156.75" cy="105.11" r="4.94"/>
      <circle cx="146.18" cy="108.73" r="4.94"/>
      <circle cx="137.28" cy="115.28" r="4.94"/>
      <circle cx="130.96" cy="124.41" r="4.94"/>
      <circle cx="127.91" cy="135.16" r="4.94"/>
      <circle cx="128.03" cy="146.3" r="4.94"/>
      <circle cx="130.15" cy="157.22" r="4.94"/>
      <path d="M215 119.53l-.46 6.43c-12.3-1.88-29.72-8.73-45.96-8.73-15 0-26.65 6-26.65 21.14 0 14.92 6.3 28.5 14.7 42.28l-8.73 4.14c-7.8-15.2-14.25-28.1-14.25-45.5 0-14.6 11.5-29 31.25-29 17.52 0 35.4 5.9 50.1 9.2z"/>
    </g>
    <use height="100%" width="100%" xlink:href="#a" transform="matrix(-1 0 0 1 443.938 0)"/>
    <path d="M221.97 53.13l-5.16 9.65 5.2 9.62 5.2-9.6-5.1-9.66zm0 24.37l-5.16 9.63 5.2 9.65 5.2-9.65-5.2-9.63zm-18.38-2.55l8.1 5.16 8.1-5.1-8.1-5.1-8.2 5.2zm20.5 0l8.1 5.16 8.1-5.1-8.2-5.1-8.1 5.2z"/>
    <circle cx="221.97" cy="75.07" r="3.91"/>
    <circle cx="221.97" cy="100" r="10.46"/>
    <path d="M219.34 89.88c0 3.1-.02 4.92-.03 6.62a62.5 62.5 0 0 0-7.4.78m20.2 0a62.13 62.13 0 0 0-7.4-.78v-6.63m-12.8 12.7a61.4 61.4 0 0 1 10.2-.85c3.5 0 6.9.3 10.1.84" fill="none" stroke-width="1.5"/>
    <path d="M211.75 117.7c-1 17.07-3 34.47-9.66 47.1l10.8-4.36c3.7-14.33 4.5-32.84 5.7-41.6l-6.9-1.15zm20.44 0l-6.9 1.14c1.1 8.75 1.9 27.27 5.7 41.6l10.8 4.37c-6.7-12.6-8.7-30-9.7-47.1z"/>
    <path d="M221.95 154.7c-12.9 0-22.4 6.07-22.97 21.58-3.15-5.55-16.5-23.02-28.96-20.7-7.4 1.4-13.96 11.68-12.85 23.45-6.13-17.63-24.1-20.52-37.22-10.1 11.65 9.58 16.82 37.84 26.63 50.1h150.75c9.8-12.26 15-40.52 26.65-50.1-13.1-10.42-31.08-7.53-37.2 10.1 1.1-11.77-5.48-22.04-12.9-23.43-12.45-2.34-25.77 15.13-28.93 20.68-.57-15.5-10.08-21.6-23-21.6z"/>
    <g stroke-width="1.5">
      <path d="M297.1 219.03c0 5.58-33.65 11.7-75.13 11.7s-75.14-6.12-75.14-11.7c0-5.58 33.66-8.5 75.14-8.5 41.47 0 75.14 2.9 75.14 8.5z" fill="#000"/>
      <circle cx="221.97" cy="114.44" r="3.5"/>
      <circle cx="221.97" cy="122.03" r="3.73"/>
      <circle cx="221.97" cy="130.18" r="4.08"/>
      <circle cx="221.97" cy="139.26" r="4.65"/>
      <circle cx="221.97" cy="149.37" r="5.11"/>
      <path d="M219.94 159.2c-.56 0-1.08.47-.94 1.35.16 1.04.37 3 .56 4.3.22 1.5 1.1 1.14 1.3-.02.23-1.16.15-1.9.2-4.06.03-1.08-.57-1.56-1.12-1.56zm4.06 0c-.55 0-1.15.5-1.13 1.57.06 2.15-.03 2.9.2 4.06.2 1.16 1.08 1.53 1.3.03.2-1.3.4-3.27.57-4.3.14-.9-.4-1.36-.94-1.35zm-7.7.57c-.5.07-1.02.58-1 1.12.07 1 .34 2.1.45 3.6.1 1.5 1.2.9 1.3 0 .12-.9.25-2.2.14-3.9-.1-.7-.4-1-.7-1a.84.84 0 0 0-.2 0zm11.1 0c-.33.04-.6.32-.65.97a20.13 20.13 0 0 0 .12 3.9c.1.9 1.2 1.5 1.32-.06.1-1.5.3-2.7.4-3.7 0-.53-.5-1.04-1-1.1a.84.84 0 0 0-.2 0zm-15.43 1.75c-.47.12-.9.67-.75 1.3.27 1.28.53 2.7.53 3.98 0 1.1.94.7 1-.06a59.76 59.76 0 0 0 .15-3.9c0-1.12-.47-1.44-.93-1.32zm19.68 0c-.33.1-.62.47-.62 1.3 0 1.5.1 3.14.16 3.92 0 .77 1 1.17 1 .06 0-1.3.2-2.7.5-3.97.1-.63-.3-1.2-.8-1.3a.55.55 0 0 0-.3 0zm-59.1.17c-.54-.1-.93.7-.55 1.5.6 1.3 1.25 2.1 1.87 3.6.56 1.2 1.4.4 1.13-.4-.28-.9-.58-1.9-1.4-3.8-.32-.7-.7-1-1.04-1zm98.82 0c-.33 0-.72.2-1.03 1-.83 1.8-1.13 2.8-1.4 3.7-.28.9.57 1.7 1.12.4.62-1.4 1.27-2.3 1.88-3.6.38-.8 0-1.6-.57-1.6zm-94.8 0c-.42.1-.66.6-.42 1.2.5 1.2 1.22 2.4 1.72 3.7.44 1.1 1.43.8 1.1-.2-.34-1.1-.43-1.7-1.1-3.7-.33-1-.9-1.3-1.3-1.2zm90.5 0c-.36.1-.76.4-1 1.1-.67 2-.77 2.6-1.1 3.6-.34 1 .65 1.4 1.1.2.5-1.4 1.2-2.6 1.7-3.8.26-.6 0-1.1-.4-1.3a.6.6 0 0 0-.3 0zm-85.5.9c-.52.1-.92.9-.57 1.8.44 1.2 1.07 2.3 1.62 3.7.56 1.4 1.47 1.1 1.25.2-.22-.9-.5-2.4-1.15-4.6-.3-1-.76-1.3-1.16-1.3zm80.8 0c-.4-.1-.86.3-1.15 1.2-.67 2.2-.94 3.7-1.16 4.5-.22.9.7 1.1 1.25-.2.6-1.4 1.2-2.6 1.7-3.8.4-1 0-1.7-.5-1.8zm-93.18.7c-.6 0-1.1.9-.8 1.6.5 1.1.9 1.5 1.4 2.6.5 1.2 1.1.3.9-.5-.2-.8-.5-1.7-.8-2.8-.2-.8-.6-1.1-.9-1zm105.5 0c-.4-.1-.7.2-.9 1-.3 1.1-.6 2-.8 2.7-.3.8.4 1.7.9.5s.9-1.6 1.4-2.7c.3-.7-.2-1.6-.7-1.7zm-67.1 2.8c-.6 0-1.2.7-1 1.5.3 1.1.8 2.2 1.2 3.6.3 1.3 1.2.6 1.2-.3-.1-.9-.2-2.1-.6-4-.2-.7-.5-1-.9-1zm28.5 0c-.4 0-.7.3-.9 1-.4 1.8-.6 3-.6 3.9-.1.9.9 1.5 1.2.2.3-1.5.9-2.5 1.2-3.7.2-.8-.4-1.5-1-1.5zm-14.3 1.1c-.7 0-.8.9-.9 1.7-.1 2.6-1.2 5-2.1 6.3-.9 1.2-2.3.9-3.5.2-1.3-.7-2-1.2-3.3-2.2-1.4-1-2.4-.4-.8 1.8 4.6 6.6 9.6 12.2 9.6 22.9 0 1.4.3 1.8.9 1.8s.8-.4.8-1.8c0-10.8 5-16.4 9.6-23 1.6-2.3.6-2.9-.8-1.9s-2.1 1.5-3.4 2.1c-1.3.7-2.6 1-3.5-.2-.9-1.3-2-3.8-2.1-6.3-.1-.8-.1-1.8-.9-1.8zm-35.3-1.6a.6.6 0 0 0-.2 0c-.3.1-.5.4-.4.9.2 1 .8 2.9 1.1 3.9.3.9 1.4.7 1.1-.5-.3-1.3-.3-1.7-.6-3.1-.2-.8-.8-1.3-1.2-1.3zm70.5 0c-.5 0-1 .5-1.2 1.3-.4 1.4-.3 1.8-.6 3.1-.3 1.2.9 1.4 1.1.5.3-1 .9-2.9 1.1-3.9.1-.6-.1-.9-.4-1a.6.6 0 0 0-.2 0zm-91.6.4c-.6 0-1 .8-.4 1.8.6 1.2 1.7 2.6 2.2 3.4.5.8 1.3.3.7-.8-.6-1.1-.8-2.3-1.6-3.8-.3-.6-.7-.8-1.1-.8zm112.5 0c-.4 0-.8.2-1.1.7-.8 1.5-1 2.7-1.6 3.7-.6 1 .3 1.6.7.8.5-.9 1.6-2.3 2.2-3.5.6-1.1.2-1.8-.4-1.9zm-144 3.5c-.7-.1-.9 1.1-.3 1.9.9 1.1 1.5 1.7 2.6 2.7.8.7 1-.2.6-1s-1-1.5-1.8-2.8c-.4-.7-.8-1-1.1-1zm175.8 0c-.3 0-.7.2-1.2.9-.9 1.2-1.5 2-1.9 2.7-.4.8-.2 1.7.6 1 1.1-.9 1.7-1.5 2.6-2.7.6-.8.4-2-.3-1.9zm-170.9 1c-.6 0-.9.4-.5 1.3.6 1.3 1.3 2.8 1.8 3.8s2 1.3 1.4-.3c-.6-1.6-.7-2.4-1.3-3.8-.3-.7-1-1.1-1.55-1.1zm165.8 0c-.5 0-1.3.3-1.5 1.1-.6 1.4-.7 2.2-1.3 3.7-.6 1.5.9 1.2 1.4.2.5-1 1.3-2.5 1.9-3.8.4-.9 0-1.3-.5-1.3zm-175.6.3c-.8 0-.9.8-.2 1.3.9.6 2 1.4 3 2.2 1.2 1 1.7 0 1-.8s-1.3-1.6-3-2.5c-.4-.2-.8-.2-1-.2zm185.3 0c-.3 0-.6 0-1 .3-1.7.8-2.3 1.6-3 2.5-.7.8-.2 1.7 1 .7 1-.9 2.1-1.6 3-2.3.7-.5.6-1.2-.2-1.2zm-109.7.7c-.5 0-.8.5-.7 1.2.3 1.1.7 2.4.9 3.6.2 1.1 1.5 1.2 1.3.1-.2-1.1-.4-2.4-.7-4-.2-.6-.5-.9-.8-1a.62.62 0 0 0-.2 0zm33.8 0c-.3 0-.6.3-.8.9-.4 1.6-.5 2.9-.7 3.9-.2 1 1.1 1 1.3-.2.2-1.2.6-2.5.9-3.6.1-.7-.2-1.2-.7-1.2a.62.62 0 0 0-.2 0zm-63.9-2c-.4.1-.6.7-.3 1.6 1.4 5 1.8 7.7 1.6 8.9-.3 1.2-1 1.4-1.9 1a18.84 18.84 0 0 1-2.8-1.6c-.9-.6-1.7.1-.5 1.1 6 4.9 10.2 10.6 11.8 17.5.3 1.4 1.2 1.5 1 0-1.4-8.7-1.7-15.9.4-20.3.8-1.7 0-3.3-1.2-.6-.9 1.8-2.2 2.5-3.3.9s-3.3-5.8-4-7.7c-.3-.7-.6-1.1-.8-1.1a.35.35 0 0 0-.2 0zm94 0c-.3 0-.6.4-.8 1.1-.7 1.9-2.9 6.1-4 7.7-1.1 1.5-2.4.8-3.3-1-1.3-2.8-2.1-1.2-1.3.5 2.1 4.5 1.8 11.6.4 20.3-.3 1.6.6 1.4 1 0 1.6-6.9 5.8-12.6 11.9-17.6 1.2-1 .3-1.7-.5-1.1-.9.6-1.9 1.2-2.8 1.6-1 .4-1.6.2-1.9-1-.2-1.3.2-3.9 1.6-9 .3-.9.1-1.6-.3-1.7a.35.35 0 0 0-.1 0zM144.4 172c-.55 0-1 .4-.75 1.22.38 1.32 1.2 2.76 1.5 3.6.26.82 1.15.43 1-.73-.18-1.2-.26-1.9-.48-3.1-.1-.7-.8-1-1.3-1zm155.06 0c-.57 0-1.2.33-1.3.97l-.47 3.1c-.2 1.17.7 1.56 1 .73.2-.83 1.1-2.27 1.5-3.6.2-.82-.2-1.2-.8-1.2zm-136.3-1.74c-.64-.1-.73 1.53-.2 2.2.73.88 1.73 1.94 2.73 3.15.8 1 1.3.1.8-.7-.5-.8-1.3-1.7-2.6-3.8-.4-.5-.6-.8-.8-.8zm117.5 0c-.2.04-.48.3-.8.8-1.34 2.1-2.08 3-2.58 3.83-.5.8.1 1.7.9.7 1-1.2 2-2.3 2.7-3.2.57-.7.48-2.3-.2-2.2zm-132 3.96c-.4-.03-.73.3-.57 1.1.2 1.1.5 2.03.8 3.08.2 1.05 1 .87 1-.12 0-1-.2-2.1-.4-3.16 0-.52-.5-.88-.9-.9zm146.5 0c-.4.02-.86.38-.94.9-.17 1.05-.34 2.16-.34 3.16s.8 1.17 1 .12c.3-1.05.6-1.97.9-3.1.2-.8-.15-1.1-.54-1.08zm-133.4 1.42c-.63.1-1.17.7-.45 1.62 1.2 1.5 2.5 2.54 2.9 3.1.5.55 1.6.35.9-.82-.7-1.18-1.8-2.6-2.3-3.5-.2-.33-.5-.46-.9-.4zm120.05 0c-.2.03-.5.16-.6.4-.5.9-1.6 2.32-2.3 3.5-.7 1.16.4 1.37.9.82.5-.56 1.7-1.6 2.9-3.1.8-.93.2-1.53-.4-1.62a.87.87 0 0 0-.2 0zm-140.7 4.16c-.4 0-.6.4 0 1.3 1.5 2.1 3.2 5.2 3.3 6.5.1 1.36-.5 1.3-1.1 1.3-1.8 0-2.7-1.3-4.3-1.7-1.6-.4-1.9.5-.7 1.37 6.1 4.4 12.2 9.35 14.7 13.83 1 1.83 2.4 2.5 1.6.75-2.3-5.34-2.8-9.86-2.3-12.6.5-2.73 1.2-4.57 1.1-6.15-.1-1.57-1-1.47-1.3 0-.2 1-.7 2.32-1.1 2.8-.3.5-1.6.8-2.9-.9-1.3-1.7-4.5-5-5.5-5.86-.4-.3-.8-.5-1.1-.54zm161.7 0c-.3.1-.7.3-1.1.6-1 .87-4.2 4.17-5.5 5.9-1.3 1.7-2.6 1.43-2.9.93-.4-.5-.8-1.8-1.1-2.8-.4-1.5-1.3-1.6-1.4 0 0 1.57.6 3.4 1.1 6.15s0 7.24-2.3 12.58c-.7 1.75.6 1.1 1.6-.74 2.5-4.46 8.6-9.4 14.6-13.82 1.2-.86.9-1.73-.7-1.34-1.6.37-2.5 1.7-4.3 1.7-.6 0-1.3 0-1.2-1.3.1-1.33 1.8-4.43 3.3-6.48.7-.9.5-1.3 0-1.26z" fill="#000" stroke="none"/>
      <path d="M150.13 212.65l1.95 6.17m2.06-7.34l1.73 6.24m2.6-6.95l1.2 6.36m2.82-7.17l1.2 6.35m3.9-6.8l1 6.4m4.4-6.4l1.1 6.4m4.2-8.2l.8 6.5m4.2-6.1l.8 6.4m4.1-7l.8 6.4m4.1-6.9l.4 6.5m4.8-6.4l.4 6.5m4.3-6.8l.3 6.5m4.9-6.8l.3 6.5m5.7-6.6l.2 6.5m79 .2l-1.9 6.2m-2.1-7.3l-1.8 6.3m-2.6-7l-1.2 6.4m-2.8-7.14l-1.3 6.34m-3.9-6.88l-1.1 6.4m-4.5-6.4l-1.1 6.4m-4.3-8.2l-.8 6.4m-4.3-6.1l-.8 6.4m-4.1-7.1l-.8 6.43m-4.1-7l-.48 6.5m-4.8-6.44l-.4 6.47m-4.3-6.8l-.3 6.5m-4.9-6.8l-.3 6.42m-5.7-6.7l-.28 6.44m-7.2-6.9v7.1"/>
    </g>
  </g>
</svg>
