<svg xmlns="http://www.w3.org/2000/svg" xmlns:xlink="http://www.w3.org/1999/xlink" height="480" width="640" viewBox="0 0 640 480">
  <path fill="#ffb700" d="M0 0h640v480H0z"/>
  <path d="M26.67 240l88-213.33h88v426.66h-88z" fill="#ff5b00"/>
  <path fill="#005641" d="M26.67 26.67h88v426.66h-88z"/>
  <path fill="#8d2029" d="M229.33 26.67H616v426.66H229.33z"/>
  <path id="a" d="M579.25 408.56s3.63 7.4 7.64 10.4c5.9 4.45 18.1 4.13 23.2 9.33 6.2 6.1-.5 14.2-.5 14.9l.3 4.3s-4.2 0-6 .3c-2.7.4-3.7 2.5-8.6 2.2-12.4-.8-11.9-12-12.6-21.5-.6-3.7-2.1-8.4-2.9-12-.7-3.1-.9-8.1-.9-8.1z" fill="#ffb700" stroke="#000" stroke-width="1.13"/>
  <use height="100%" width="100%" xlink:href="#a" transform="matrix(-1 0 0 1 845.3 0)"/>
  <use height="100%" width="100%" xlink:href="#a" transform="matrix(1 0 0 -1 0 480)"/>
  <use height="100%" width="100%" xlink:href="#a" transform="rotate(180 422.7 240)"/>
  <g transform="translate(0 -76)">
    <use xlink:href="#b" width="100%" height="100%" stroke="#000" stroke-width="5.56"/>
    <g id="b" fill="#ffb700">
      <path d="M363.5 415.76l2.3-1.34 1 1.35c1.33 1.8 5 1.77 7.43-.04l1.86-1.4 1.5 1.4c2 1.82 5.8 1.82 8.3 0 1.7-1.27 1.9-1.3 3.1-.33.6.58 2.6 1.24 4.4 1.46 3.1.4 3.1.4 5-2.36 1.5-2.3 1.8-3.24 1.4-5.48a59.4 59.4 0 0 1-.6-5.3c-.2-2.6-.2-2.62 3.6-3.93 2.1-.8 4.5-1.8 5.4-2.2 1.5-.8 5.6-5.7 5.6-6.7 0-.3-1.7-.7-3.6-.9-7.9-.9-9.3-5.2-4.1-13.1 8.3-12.9 13.4-25.4 13.4-33.4 0-3.6.2-4.8.7-4 1.8 3.1-1.5 16.4-6.6 26l-2.1 3.8 1.9-.5c1-.3 7.4-3 14-6 18.2-8.3 24.4-9.9 36.2-9.4 9.8.4 14 2.4 21 9.7 3.7 3.9 7.2 6.6 13.7 10.7 13.8 8.7 14.4 9.4 15.1 19.6.6 10.3.3 10.9-7.5 12.6-6.7 1.5-10.9 4.6-12 8.9-.6 2.3.6 2.3 4 .2l2.5-1.6 1.1 1.6c1.4 2 4.5 2.1 7 0l2-1.5 1.9 1.6c3 2.4 7.1 1.8 8.2-1.2.2-.6.8-.4 2 .6 2.2 1.9 8 2.7 8.6 1.2.2-.6-.2-2-1-3.2-3.4-5-4.4-7.4-4.4-10.1-.1-3.8 1-5.6 5.3-8.7 5.2-3.8 6.8-8.6 2.8-8.6-2.5 0-4.9-2.2-6.5-5.7-3.2-7.2-2.6-15.2 2.2-28.6 4.8-13.6 5.4-16.1 5.4-25.2 0-7.4-.2-8.6-1.9-12.7-1.1-2.5-3.1-6.1-4.6-8.2l-2.8-3.7 3.5-2.9c10.8-9 8.6-23.6-4.4-29.2-4-1.8-5-1.9-11.9-1.9-4.2 0-10.6.6-14.2 1.2-3.7.6-9.9 1.2-14.2 1.2-6.8 0-7.9-.2-10.6-1.6-2.8-1.5-3.2-2.2-3.8-5.5-.1-.7-.6-1.4-1.1-1.5-.9-.3-5.2 3.4-5.8 5.1-.3.8-.6.7-1.5-.4-.6-.7-1.4-2.4-1.9-3.7-1.1-3.2.2-5.7 4.1-7.5l2.9-1.4-1.7-1.1c-3.7-2.2-9.8-.7-12.1 3-.6 1.1-1.3 2-1.5 2-.2 0-1.4-1-2.6-2.3-4.7-4.6-3.1-11.4 3.2-13.4 3.3-1.1 6.3-.3 6.9 1.9.9 3.4 3.82-1.04 3.3-5.1-.34-2.7-.3-2.8 1.6-2.8 2.54 0 8.1 3.4 9.8 6.1 1.93 3.1 1.8 7.9-.4 11.5l-1.56 3 2.2-.4c3.3-.6 6.46-2.7 8.1-5.1 1.7-2.6 1.9-7.7.3-10.4-1.44-2.7-1.3-3.1.9-2.2 3.7 1.5 5.7 3.2 7.15 6.1 1.3 2.6 1.4 3.22.7 5.92-.5 1.7-1.48 3.9-2.2 4.9-1.2 1.6-1.28 1.84-.3 1.84 1.8 0 5.42-1.7 6.72-3.1.7-.7 1.64-2.46 2.15-3.87l.9-2.6 1 2c1.6 2.76 4.5 5.25 8.1 6.8 3.9 1.67 5.5 1.76 3.5.2-1.4-1.05-3.9-8.5-3.1-9.2.4-.44 5.7 3.6 11.7 9 5.7 5.1 9.3 6.8 14.5 6.8 6.7 0 10.6-5.8 7.6-11.3-1.75-3.2-5.66-3.7-7.94-.9-1.1 1.3-1.38 2.3-1.07 3.6.4 1.6.23 1.8-1.26 1.8-1.9 0-5.8-2.5-12.6-8.2-10.33-8.7-23-16-32.1-18.7-5.8-1.7-18.3-2.4-24.3-1.3-6.4 1.2-14 4.8-18.13 8.8-7.4 7-7.5 16.3-.3 24.7l2.3 2.7-1.4 2.12c-2 3.14-1.84 7.4.43 10.5 1 1.4 2 2.5 2.2 2.5.24 0 .5-.9.6-1.97.2-2.75 1.34-4.57 3.34-5.3 1.8-.7 3-.4 11.23 2.9 8.7 3.4 23 3.7 38.1.6 7.44-1.5 16.23-1.4 20.1.2 7.07 3 8.7 10.7 3.5 16.5-2.25 2.5-4.42 3.5-11.72 5.5-5.56 1.5-6.88 1.6-19.5 1.5-10.78-.1-14.66.1-19.06 1-4.7 1-7.7 1.1-21.7.7l-16.2-.4 1.8 1.45c1 .8 2.4 1.8 3.1 2.2 1.3.7 1.2.8-.6 1.5-1 .4-3.4.7-5.2.7H432l-.4 2.8c-.2 1.6-.2 3.4.05 4.1.4 1 .25 1.1-.8.77-.7-.2-2.64-.7-4.3-1.1-1.7-.3-4-1.1-5.1-1.6-1.8-.9-2-.83-2.7.36-.6 1-6.24 5.2-7.07 5.2-.1 0-.3-.8-.4-1.8-.1-1-.9-3.6-1.8-5.73-.9-2.1-1.9-4.5-2.15-5.2-.38-1.1-.5-1.13-1-.3-.3.5-.76 2-1 3.26s-1.1 3.3-1.9 4.56l-1.4 2.3-.9-1.9c-1-2-2.68-4.2-3.28-4.2-.2 0-.55.7-.77 1.5-.42 1.7-4.33 6.4-5.3 6.4-.33 0-.62-1.3-.62-2.9 0-1.6-.4-3-.7-3-.4 0-.7.4-.7.9 0 1.3-3.4 5-4.5 5-.5 0-1.3.5-1.8 1-1.3 1.5-2.3 1.3-1.8-.3.3-.7.1-2.4-.3-3.7l-1-3.2c-.1-.5-1.3-.4-3.9.4-4.1 1.3-5.4 1.1-3.3-.6.75-.6 1.93-2.7 2.6-4.6.65-1.9 1.63-3.63 2.2-3.8.7-.2.7.1-.2 1.27-.7.85-1.2 2-1.2 2.54s-.46 1.8-1 2.9c-.56 1-.9 2-.8 2.1s1.7-.5 3.5-1.3l3.2-1.57v1.4c0 .8.4 2.8.9 4.5l.9 3.1 2.2-1c2.2-1.1 4.4-4.7 4.4-7.6 0-1.4.8-1.2 1.1.3.1.5.6 2.1 1.1 3.7l1 2.9 1.5-1.8c.8-1 1.84-3 2.3-4.4.74-2.4 1.94-3.48 1.94-1.7 0 1.3 3.4 5.8 4.1 5.4.3-.2.9-1.9 1.4-3.8.97-3.9 2.5-6.6 3.5-6 .37.2.5.6.3.9-.2.3.6 2.9 1.78 5.7a2557.7 2557.7 0 0 1 2.6 6.3c.4 1.1.8.9 3.3-1.3 1.57-1.4 3-2.9 3.15-3.4.26-.8.6-.7 2.06.2 2.1 1.2 8.9 3.3 9.4 2.8.2-.2.4-2 .5-4l.1-3.7 2 .4c1.1.25 3.4.24 5.1 0l3.1-.4-2.8-1.85c-1.5-1.1-3-2.4-3.4-3-.3-.7-1.7-1.2-3.2-1.3-4.1-.4-11.4-4.5-11.4-6.4 0-.4 1 .2 2.23 1.36 2.8 2.5 6.6 4.1 9.9 4.1h2.5l-1.6-2c-.9-1.2-1.62-3.4-1.8-5.27-.3-2.9-.6-3.4-3.7-5.5-1.8-1.3-4.1-3.2-5.06-4.3l-1.7-1.9-.9 2.3c-.5 1.27-1.1 2.3-1.3 2.3-.3 0-1.2-.7-2.1-1.6-.9-.9-1.8-1.6-2-1.6-.2 0-1 1.2-1.8 2.7l-1.4 2.7-1.02-1.5c-.6-.9-1.9-2.4-3-3.4s-1.63-1.8-1.24-1.8c.4 0 1.7 1 3 2.3l2.3 2.3.9-1.7c.6-1 .8-2.53.5-3.8-.3-1.8-.3-1.9.4-.8.4.78 1.8 2.1 3 3.1l2.2 1.8 1.5-2.74c1.5-2.7 1.5-2.7 2.2-1.1.9 2.2 7.5 7.54 13.03 10.7.82.5.5-1.2-1.1-5-.4-1-.8-2.85-.8-4.07 0-1.8-.5-2.6-2.83-4.4-3.36-2.57-4.4-4.38-5.06-8.48-.2-1.7-.8-3.5-1.3-4.1-.64-.9-.8-.4-.6 2.7.1 2.05-.1 4.63-.6 5.7l-.8 2-.6-1.6c-.4-.9-1.9-2.5-3.5-3.5-1.5-1-2.6-2-2.4-2.2.2-.2 1.8.7 3.5 2.03 2.68 2 3.2 2.2 3.6 1.3.47-1.08 0-5.66-.8-8.86-.4-1.6-.34-1.6 1.6.4 1.48 1.46 2.3 3.2 2.9 6.2.8 3.9 1.2 4.5 4.7 7.6 2.2 1.86 4 3.3 4.18 3.16.2-.1.4-4.97.6-10.76.4-11.1 0-13.75-2.7-17.2l-1.4-1.75 2.2-2.3c2.8-3.1 4.1-5.5 4.7-8.8l.5-2.73-2.46 2.3c-2 1.9-3 2.3-5.3 2.3s-3.2-.4-4.8-2.05c-1.9-2-5.2-3.9-8.3-4.8-1.2-.32-1.6-.2-1.6.6 0 .6-.65 2.27-1.44 3.7l-1.4 2.7-3-3c-1.8-1.8-4-3.22-5.6-3.7-4.1-1.1-4.3-1-4.3 2.1 0 4.7-2 5.6-5.6 2.5-2.75-2.33-5-2.9-10.2-2.3l-4.05.5.7 1.8c.6 1.5.46 2.1-.8 3.84-2.1 2.8-4.9 4-9.1 4-1.96 0-4.38.4-5.4.9-1 .5-3.58 1.08-5.67 1.28-2.1.2-4.3.5-4.98.8-1 .3-1.1 0-.78-2.2.5-3.5-1.9-6-5.7-6-4.9 0-7.1 4.3-5.2 10.1a44.63 44.63 0 0 1 1.1 3.8c.2 1 2.4 3.9 5.1 6.6 2.6 2.5 5 5.2 5.4 5.9.4.7 1.7 1.8 2.9 2.5l2.23 1.2-.3-2.3c-.3-2.6.3-3 1.7-1.2.5.7 1.7 1.74 2.8 2.4 1.6 1 1.9 1.04 1.9.16 0-.6.3-1.83.7-2.9l.7-1.9 1.3 2.5c.7 1.4 3 4.5 5.2 7 4.1 4.73 6.6 10.04 5.38 11.26-.56.5-1.97.5-4.9-.1-2.28-.4-5.1-.7-6.26-.5-2.4.3-2.6 0-1.1-1.8 1.5-1.9 1.3-2.23-1.8-2.23-3.5 0-12.2-1.63-15.6-3-3.2-1.3-4-.92-4.9 2.1l-1.8 5.6-1 3.08 3.5-.3c1.95-.2 4.4-.6 5.55-.9 1.1-.34 2.1-.5 2.22-.4.12.1-.3 1.3-1.1 2.66l-1.3 2.47 2.2-.46c1.2-.24 3-.85 4-1.33 1.8-.9 1.9-.8 3.3 1.4 1.7 2.7 3.1 2.6 3.4-.3.3-3 1.3-2.6 3.2 1.4 1.8 3.8 3.6 5.2 4 2.9.1-.8 1.1-2 2.1-2.8 2.1-1.5 3.8-1.1 4.7 1.3.9 2.4-1.2 5-7.4 8.7-12.4 7.6-19.7 17.9-21.7 31-1.9 11.9 3.9 24.1 15.6 32.9 5.6 4.2 14.5 8.7 13.9 7-2.4-7.2-2.3-20.9.1-23.2.4-.3.3 1.1-.3 3.2-1.9 7.8-1.1 14.02 3.9 28.7 4.5 13.2 3.9 18.9-2.5 22.6-2 1.2-3.3 1.4-8.8 1.3-6-.1-6.7.05-8.6 1.6-1.85 1.45-4.26 6.32-4.26 8.6 0 1.2 1.4 1.04 4.06-.5z"/>
      <path d="M460.5 415.5l2.5-1.6 1.7 1.6c2.24 2.1 4.86 2.06 7-.13.93-.95 1.77-1.62 1.86-1.47l.93 1.57c.5.9 1.6 1.37 3.5 1.5 2.3.18 3-.05 3.9-1.4l1.1-1.63 2.4 1.58c6.7 4.35 10.3-.2 7.3-9.28-1.5-4.62-.7-7.2 4.2-13.08 2.1-2.48 3.8-5.12 3.8-5.87 0-1.3-.4-1.4-3.2-1.4-2.7 0-3.5-.3-4.9-1.8-2.3-2.5-2.1-5.4.4-8.6l2-2.6-3.6-2.5c-2-1.4-5.6-4.6-8-7.1-5.4-5.7-10.6-8.4-17.6-9.1l-4.7-.4v3.5c0 4.5 2.1 8.9 7.9 16.3 6.6 8.4 7.1 9.7 7.3 20.7l.2 9.3-1.9 1.8c-1.8 1.6-2.5 1.8-8.1 2.1-5.3.3-6.5.6-8 2-2.1 1.8-2.7 2.8-3.4 5.3-.3 1.5-.2 1.8.9 1.8.7 0 2.4-.7 3.8-1.6zm-142.2-24.04c.6-.8 1.08-2.1 1.08-2.87 0-1.2.52-1.5 3.1-1.9l3.12-.5-2.08-1.7c-2.46-2-2.7-3.5-.52-3.5 2.17 0 5.83-2.3 6.4-3.9.25-.8.08-1.8-.38-2.4-1.2-1.4-3.5-1.2-3.92.3-.45 1.6-1.2 1.6-2.94 0-2.6-2.5-2.66-7.6-.12-10.6 1.2-1.4 1.18-1.5-.34-2.9-1.64-1.6-2.8-4.7-2.04-5.4.24-.3 1.54-.1 2.88.4 1.9.6 2.65.6 3.43 0 2.37-1.9-.2-4.3-4-3.8-1.53.2-2.17 0-2.4-.8-.15-.6-1.5-1.4-3-1.8-2.7-.7-2.72-.7-2.72 1.2 0 2-1.16 2.4-3.37 1.1-1.8-1.1-3.53-.2-3.53 1.7 0 1.7 1.8 2.6 5 2.4 2.47-.2 2.56 1.7.22 4.3l-1.7 1.9 1.35 1.9c1.97 2.8 1.8 7.5-.35 9.9l-1.7 1.8-1.1-1.5c-1.54-2-3.65-1.9-4.23.3-.38 1.4-.07 2.1 1.72 3.6 1.2 1 2.96 1.8 3.9 1.8 2.34 0 2.25 1.8-.18 3.7l-1.9 1.4 2.94.5c1.6.2 2.93.7 2.93 1 0 1.2 2.03 5.1 2.7 5.1.37 0 1.16-.6 1.75-1.4zm38.22-16.56c2.67-1.06 8.44-5.95 8.44-7.15 0-.38-1.6-2.14-3.54-3.9-4.1-3.7-8.55-9.95-9.7-13.6-.6-1.9-3.52-5.16-11.7-13.1l-10.92-10.6-3.14.8c-1.73.45-3.84.82-4.7.83-1.46.02-1.43.1.52 1.6l2.05 1.6 2.88-1.6c2.8-1.55 2.9-1.56 3.3-.3.2.72-.2 1.98-1 2.9-.7.9-1.2 1.93-.9 2.28.3.35-.5 1.08-1.6 1.62-2 1-3.4 4.3-1.8 4.3 1.5 0 4.7-3.95 4.3-5.3-.2-.68-.1-1.38.2-1.56 1.3-.73 1.2 2.38-.1 3.9-.7.9-1.2 1.92-.9 2.27.2.3-.5 1-1.6 1.6-2 1-3.5 4.3-1.9 4.3s4.8-3.8 4.4-5.2c-.2-.8-.1-1.5.2-1.7.8-.5 1.3 1.9.6 3.1-.4.6-.4 1.5 0 2.2.7 1.2 0 3.7-1.3 4.4-.5.3-.2.9 1.2 1.9 2 1.4 2 1.6 2 8.1 0 5.4.2 6.8 1.2 7.7 1.1 1 1.2 1 1.2 0 0-1.1 2-2.5 3.5-2.5.5 0 3.4 2.4 6.5 5.5 3.1 3 6.4 5.6 7.3 5.8l2.2.3c.3.1 1.7-.4 3.2-.9zm-33.34-26.1c0-1.74-3.6-3.6-7.88-4.08-3.46-.4-3.52-.36-3.52 1.37 0 1.4.55 1.9 2.94 3 3.84 1.7 8.46 1.5 8.46-.3z"/>
      <path d="M327.1 348.64c1.76-1.6 2.6-3.48 1.53-3.48-1.2 0-4.42 2.9-4.42 3.97 0 1.7.6 1.6 2.9-.5zm-3.72-5.14c.15-.98-.46-1.64-2.28-2.46-3.92-1.77-8.6-2.6-9.74-1.7-2.08 1.63-.7 3.83 2.67 4.22 1.35.16 3.2.57 4.08.92 2.6 1 5.1.55 5.3-.98zm0-5.25c.2-1.4-.68-1.9-8-4.47-5.44-1.92-7.86-1.02-6.1 2.3.6 1.14 1.6 1.67 3.9 2 1.7.27 4.02.77 5.16 1.12 3.05.94 4.8.6 5.04-.95zm3.66-4.93c1.1-1.12 2-2.43 2-2.93 0-1.6-4.35 1.2-4.9 3.2-.67 2.3.4 2.2 2.9-.3zm-3.66-.33c.24-1.6-2.4-3.1-7.62-4.2-3.83-.8-5.5-.4-5.23 1.4.16.9 1.43 1.7 5.05 2.8 5.78 1.8 7.52 1.8 7.8-.1zm5.1-7.5c6.68-3 7.26-10.5.96-12.5-2.62-.8-4.3-.4-5.3 1.4-.75 1.3-.24 3.8.8 3.8.36 0 .65.4.65 1 0 2.6-10.2 3.8-14.4 1.6-1.5-.8-2.1-2.7-.9-2.7.9 0 1.5-2 1.1-3.4-.7-1.9-2.6-2.6-5.4-1.9-6.3 1.6-6.1 9 .3 12.1 5.2 2.6 16.6 2.7 22.1.3z"/>
      <path d="M324.32 319.8c.4-.36.22-.92-.43-1.43-1.5-1.12-1.4-2.78.2-4.68 1.1-1.5 1.3-3.6 1.7-25.1.7-37.2 3.4-65.1 7.1-71.8 1.4-2.7 1.2-2.7-2.5-.2-4.9 3.3-8.5 7.5-11.8 13.6-6.2 11.5-8.3 27.1-8.3 60.2 0 18.8.1 21.3 1.2 23 1 1.7 1 2.3.3 4.1-.5 1.2-.7 2.3-.5 2.5 1.3 1.3 11.3.9 12.8-.5zm56.13-35.4c.2-.32-.26-1.94-1.03-3.6-1.2-2.58-1.7-3-3.4-3-5.4 0-14.06-2.4-23-6.4-5.14-2.3-6.93-2.82-7.54-2.23-1.58 1.5 1.04 5.04 5.1 6.9 3.6 1.65 13.67 3.7 18.27 3.7 2.66 0 2.72.1 1.2 2.3l-1.1 1.6 3 .1c1.66.03 3.95.3 5.1.56 2.95.72 2.98.72 3.4.08z"/>
      <path d="M411.92 301.14c0-.96-2.82-3.56-5.67-5.24-2.25-1.32-2.62-1.36-2.62-.28 0 1.63-1.46 5.72-2.03 5.72-.32 0-.8-.8-1.05-1.78-.26-.97-1.35-2.9-2.42-4.28l-1.94-2.5-1.6 2.32c-1.4 2.16-3.9 4.28-5 4.28-.3 0-.3-1.14-.1-2.53.2-1.5 0-2.7-.4-2.98-.5-.25-.8-.16-.8.2 0 .8-3.4 4.66-4.2 4.66-.3 0-.7-1.1-.9-2.46-.2-1.35-.6-3.48-.8-4.74-.2-1.26.2-.4 1.1 1.9l1.5 4.2 1.6-2.57c.9-1.4 1.6-2.93 1.6-3.4 0-.47.3-.68.6-.47.4.2.9 1.9 1.2 3.7l.4 3.3 1.8-2c1-1.1 2.1-2.6 2.5-3.3.7-1.2.8-1.2 2.3 0 .8.7 2.1 2.4 2.9 3.8.7 1.3 1.4 2.4 1.6 2.2.1-.1.4-1.6.6-3.2l.4-3.1c.1-.4 5.4 3 7.4 4.8 1.2 1.1 2.4 1.8 2.6 1.6.2-.2.4-1.8.4-3.7 0-2.9-.3-3.6-2.1-5.2-2-1.8-2.1-1.8-2.8-.5-1 1.7-2.1 1.7-2.1 0 0-1.2-3.7-5.9-4.7-5.9-.3 0-1.1 1-1.8 2.3s-1.5 2.3-1.7 2.3c-1 0-6.3-5.9-6.3-7 0-.9.3-.6 1.3.8.7 1.1 2.1 2.7 3.1 3.6 2 1.8 2.8 1.4 3.6-2.1.2-1 .6-1.8.9-1.8.8 0 5.5 4.9 6.1 6.5l.6 1.6.5-1.8c.6-2.2 1.2-2.3 2.2-.3.4.8 2.4 2.5 4.4 3.8l3.7 2.3.7-2.4c.4-1.3 1-2.1 1.2-1.7.4.6-.6 4.5-1.3 5.4-.1.15-1.3-.55-2.7-1.5l-2.4-1.7-.1 3.2c0 1.7-.2 3.8-.4 4.6-.5 1.6-1.6 2-1.6.6zm-18.42-25.4c-4.4-3.66-5.05-4.5-4.96-6.23l.1-1.8.3 1.8c.16 1.1 1.33 2.6 2.8 3.8l2.53 2 1.55-1.8c.85-.9 1.56-2.1 1.58-2.6.03-1.1.24-1 3.2 1.5 2.65 2.3 2.7 2.3 3.1.9.2-.8.13-2.4-.18-3.4-.87-2.9-.7-3.4.6-1.6.66.9 1.7 2.2 2.34 2.8 1.1 1.2 1.16 1.1 1.57-.3.23-.8.43-2.3.43-3.3v-1.8l2.4 2.7c2.2 2.5 2.42 2.6 3.1 1.4.4-.7.73-2.4.74-3.7 0-1.7.2-2.2.64-1.5.75 1.1.23 4.2-1.16 6.8l-1 1.9-1.3-2c-1.68-2.6-2.24-2.5-3.32.3-1 2.7-1.67 2.9-2.66.9-.64-1.3-.77-1.1-1.22 1.7l-.5 3.1-3.04-2.4-3.02-2.3-1.37 1.5c-.75.9-1.37 1.9-1.38 2.4-.03 1-.76 1-1.87.1zm39.06-13.64c-1.6-1.44-2.7-2.82-2.45-3.06.3-.24.6-.3.7-.15.1.1 1.4 1.5 2.9 3 3.5 3.5 2.8 3.6-1.1.1zm-52.02-5.38c-1.46-1.97-1.35-3.27.4-5.4 1.3-1.54 1.88-1.75 4.1-1.46 1.44.18 4.52 1.45 6.86 2.8 2.7 1.6 5.48 2.64 7.64 2.9 1.87.23 3.4.32 3.4.2 0-.13-.77-1.4-1.72-2.82-2.26-3.38-2.18-3.74.36-1.72 2.6 2.08 5.74 2.7 12.72 2.48l3.4-.1-1.97-1.96c-2.77-2.74-1.92-2.98 1.14-.33 2.86 2.5 2.68 2.7-3.35 3.3-2.56.3-5.3.1-7.6-.5-3.43-.9-3.57-.8-2.92.3.38.7.98 1.2 1.35 1.2.37 0 .67.4.67.8 0 1.3-7.4.2-10.94-1.6-8.08-4.1-9.1-4.4-11.02-3.8-1.07.4-2.14 1.4-2.5 2.3-1.25 3.3 3.43 5.9 5.36 3 .56-.8.43-1.4-.55-2.4-1.35-1.4-1.22-1.6.6-.9 1.3.5 1.46 3.6.26 4.7-1.37 1.3-4.5 1-5.7-.6z" fill="#000"/>
      <path d="M412.37 248.57c-1-.96-.22-1.2 4.3-1.27 5.6-.1 9.02-1.05 13.03-3.58 3.22-2.03 4.1-1.63 1.04.48-2.8 1.92-7.13 3.4-11.33 3.85-2 .22-4.3.52-5.1.67-.8.15-1.6.08-1.9-.15z" fill="#000"/>
    </g>
  </g>
</svg>
