<svg xmlns="http://www.w3.org/2000/svg" height="480" width="640" viewBox="0 0 640 480">
  <path fill="#d3ae3b" d="M0 0h640v480H0z"/>
  <path fill="#c40308" d="M24 24h592v432H24z"/>
  <path d="M424.46 236.1c2.8-.8 12.6-3.65 19.47-9.24 6.9-5.6 8.23-10.06 8.8-12.48.54-2.42.78-4.32-1-2.93-1.78 1.38-7.13 5.58-10.77 7.6-3.64 2.03-7 2.98-8.98 3.54-1.98.5-3.57.9-1.66.1 1.9-.8 8.1-3 12.9-7.8 4.8-4.8 8.57-12 8.65-16.4.08-4.4-.23-4.1-1.65-3-1.42 1.1-6.46 7.3-9.3 9.7-2.84 2.3-7.4 5.5-9.7 6.8-2.28 1.3-5.5 2.8-1.02-.3 4.5-3.1 13-10.4 16.47-19.7 3.47-9.4 2.84-14.9 2.76-15.9-.08-1-.87-2.9-1.65-1.1-.8 1.7-6.47 13-11.04 17.9-4.57 4.9-3.46 3.9-4.5 4.7-1 .7-2.75 2.2-.54-.6 2.2-2.8 6.78-9.1 9.14-15.4 2.36-6.3 3-12.6 3.07-16.3.1-3.6-1.4-8.7-2.2-10.2-.7-1.5-1.4-2.6-1.6-.9-.2 1.7-3.8 12.9-5.8 18.3-1.9 5.4-5.9 11.5-6.7 12.7-.8 1.2-2.8 3.6-.6-.5s6.5-16.2 7-27.6c.6-11.4-1-17.7-2.6-20.9-1.5-3.1-2.9-4.3-2.9-4.3s.3 7.8-2 19-5.7 17.1-5.7 17.1-1.4 1.6-.4-1.1c.7-1.8 2.1-5.8 2.7-12.6.7-7.1.7-15.1-1.3-22-2.2-7.5-6.1-11.3-6.1-11.3-1.1 10.7-.9 24.5-4.8 35.7-.7-.7-1.7-1.9-2.1.6-.7 3.6-2.1 10.5-7 19.3-4.8 8.8-6.8 9.9-6.8 9.9s-.9-2.2-1.5-3.3c-.6-1.2-1-1.8-1.8-.2s-3.5 7.8-9.4 14.6-9.2 10.1-9 15.2c.2 5.1 2.9 7.7 6.5 10.1 3.6 2.3 4.2 3.6 3.7 6.4-.5 2.8-3.7 3.7-6.5 3.8-2.7.1-6.2-.2-7.5.5s-1.3 2.5-2.6 3.7-1.8 2-2.9 2.2c-.4 0-.7.1-1 .1-.2-13.5 5-19.5 5-19.5l-14.7-17c-.7.4-1.5.7-2.2 1.1a4.08 4.08 0 0 0-.4-.7c-1.9-2.5-2.5-4.6-2.5-7.8.7.1 2.1.6 3.5.3 1.3-.3.3-1.6-.1-2.9-.4-1.3-.8-5.7-.5-7.3.2-1.7.4-2.3.4-2.3s2.1 2.4 3.4 2.4 1.2-1.4 1.4-2.8c.3-2.2 1.3-5 3.1-6.5 0 0 2.3 1.6 5 1.6s6.2-.8 9.1-3.5c2.8-2.7 2.7-3.4 2.7-3.4s5.3 1.8 9.4 2c4 .2 8.3-.4 10.4-4.7 2.1-4.2-.6-8.1-1-8.8-.4-.7-1.8-1.2-1.8 0s.1 4.4-2.3 6c-2.4 1.6-4.3 1.5-6.6.8-2.3-.8-5.6-1.7-9.3-1.2-3.3.5-3.8.7-3.8.8.2-.2 3.2-3.3 6.1-4.2 3.1-.9 4.9.3 5.8 1.5 1 1.2 1.9 3.1 2.7.3.8-2.8.4-6-1-8.1-1.3-2-4.1-3.4-7.1-3-2.9.3-4 .8-4 .8s-1.5-4.3-5.4-5.1c-4.7-1-9.8.8-13.9 3 0 0-3.1.7-6.4-.2-2.1-.6-4.2-1.9-5.4-2.7l1.1-3.5 1.9-.7c1-.4.8-.7.9-1.5s-1.8-2.2-1.8-2.2-.3-2.4 2.9-4.1c3.2-1.7 2.8-1.4 2.8-1.4s1.9.3 2.7-.3c.8-.5.8-.9.8-.9s1.4-.5 1.9-1.3c.5-.9.6-2.1.2-3.1-.4-1-.9-1.2-.3-1.7s1-1.6 1-2.4v-1s1.1-.4 1-2c0-1.7-.9-2.4-1.5-2.5-.5-.1-.8-.1-.8-.1s-.1-1-.9-2.3c-.8-1.4-1.4-1.9-1.4-1.9s.6-.5.3-1.6-1.1-1.7-1.8-2c-.7-.2-1.5 0-1.5 0s-2.5-1.5-3.7-2.1l-1.5-.7s0-1.1-.4-1.6c-.4-.6-1.4-.8-2-.8-.5 0-1.1.3-1.1.3s-4.2-1.1-5.9-1.4c-1.7-.3-1.8-.5-1.8-.5s-3.8-1.8-5.2-2.1c-1.5-.3-1.9-.4-1.9-.4s1.5-1.9 1.6-4c.1-2.2-1.3-4.2-2.8-5.1-.9-.5-1.3-.6-1.6-.7v-1l2.8.3.2-4.6-2.8.3.4-2.8-5.8-.1.5 2.7-2.8-.2.2 4.5 2.9-.4-.3 1.7s-1.1.2-2 .8c-1.5.9-2.8 2.6-2.7 4.8.1 2.1 1.4 4 1.4 4s-.4.1-1.8.4c-1.5.2-5.3 2-5.3 2s-.1.2-1.8.4c-1.8.3-6 1.35-6 1.35s-.6-.3-1.1-.3c-.5 0-1.5.2-1.9.8-.5.55-.5 1.6-.5 1.6l-1.5.75c-1.2.6-3.7 2.1-3.7 2.1s-.8-.2-1.5 0c-.8.2-1.5.9-1.9 2-.4 1.1.2 1.5.2 1.5s-.6.6-1.4 1.9c-.9 1.3-1 2.3-1 2.3s-.3 0-.8.2-1.4.8-1.5 2.4c0 1.7 1.1 2 1.1 2l.1 1c0 .8.5 1.9 1 2.4s0 .6-.3 1.6c-.4.9-.3 2.2.2 3 .5.9 1.9 1.3 1.9 1.3s0 .4.8.9 2.6.2 2.6.2-.32-.2 2.87 1.4c3.2 1.7 2.9 4.1 2.9 4.1s-1.9 1.4-1.8 2.2c.1.8-.1 1.1.9 1.5.9.4 1.9.6 1.9.6l1.1 3.6c-1.3.8-3.4 2.1-5.5 2.7-3.3.9-6.4.2-6.4.2-4.1-2.3-9.3-4.1-13.9-3.1-3.9.8-5.4 5.1-5.4 5.1s-1.1-.5-4-.8c-3-.3-5.8 1-7.2 3-1.3 2-1.8 5.2-1 8s1.7.8 2.66-.4c1-1.2 2.8-2.5 5.8-1.6 2.9.9 5.9 4 6.1 4.2 0-.04-.5-.3-3.8-.8-3.7-.5-6.9.4-9.3 1.2-2.3.7-4.2.8-6.7-.8s-2.3-4.8-2.3-6c0-1.2-1.3-.7-1.8 0-.5.6-3.1 4.58-1.1 8.8 2.1 4.27 6.4 4.9 10.4 4.7 4.1-.2 9.4-2.03 9.4-2.03s0 .7 2.8 3.4c2.9 2.7 6.4 3.45 9.1 3.45s5-1.6 5-1.6c1.7 1.5 2.7 4.3 3 6.5.2 1.5.1 2.8 1.4 2.8 1.3 0 3.4-2.3 3.4-2.3l.4 2.3c.2 1.7-.2 6.1-.6 7.3-.4 1.3-1.4 2.6 0 2.9 1.3.25 2.7-.3 3.5-.35 0 3.2-.7 5.3-2.6 7.8a4.4 4.4 0 0 0-.4.6 53.88 53.88 0 0 1-2.2-1l-15 17.5s5.3 6.1 5 19.6v-.1l-1.1-.1c-1.2-.2-1.7-.9-2.9-2.2-1.3-1.3-1.4-3.1-2.6-3.8-1.3-.7-4.8-.46-7.5-.5-2.8-.1-6-1.1-6.6-3.9-.5-2.76.1-4 3.7-6.34s6.3-4.9 6.4-10.1c.2-5.1-3.1-8.4-9-15.2-5.9-6.8-8.6-13-9.4-14.6-.8-1.6-1.2-1-1.8.2-.6 1.1-1.5 3.3-1.5 3.3s-2-1.2-6.8-10c-4.9-8.8-6.3-15.7-7-19.4-.4-2.4-1.4-1.2-2.1-.6-3.9-11.2-3.7-25-4.8-35.7 0 0-3.9 3.8-6.2 11.3-2 6.9-2 14.9-1.3 22 .6 6.8 2 10.8 2.7 12.6 1 2.7-.45 1.1-.45 1.1s-3.4-5.9-5.7-17.1c-2.3-11.2-2.07-19-2.07-19s-1.4 1.1-2.92 4.3c-1.6 3.1-3.1 9.4-2.6 20.9.6 11.4 4.8 23.5 7 27.6 2.2 4.1.2 1.6-.6.4-.8-1.2-4.7-7.4-6.7-12.8s-5.6-16.6-5.8-18.4c-.26-1.7-.97-.6-1.68.9-.7 1.5-2.2 6.5-2.2 10.1.1 3.6.7 9.9 3.1 16.2 2.4 6.3 7 12.7 9.2 15.4 2.2 2.8.5 1.3-.57.6-1-.8.1.1-4.5-4.8-4.54-4.9-10.2-16.3-11-18-.8-1.7-1.6.1-1.7 1.1 0 .9-.7 6.5 2.8 15.8s12 16.6 16.5 19.7c4.5 3 1.3 1.5-1 .2-2.3-1.4-6.86-4.5-9.7-6.9-2.8-2.4-7.9-8.6-9.3-9.7-1.4-1.1-1.7-1.4-1.65 3 .1 4.4 3.8 11.6 8.6 16.4 4.8 4.8 11 7 12.9 7.7 1.9.8.3.4-1.7-.1s-5.3-1.5-9-3.5c-3.6-2-9-6.2-10.8-7.6-1.8-1.4-1.5.5-1 3 .6 2.4 1.9 6.9 8.8 12.5s16.7 8.4 19.5 9.2c2.8.8.8.8.8.8s-1.1-.2-6.8-1.5c-5.7-1.3-14.3-5.8-16.7-7.2-2.3-1.5-2.7-2-2.4 1.1.3 3.1 3.6 9.7 8.9 12.8 5.2 3.1 14.7 4.6 17.2 4.8 2.4.1 1.8.4.7.5-1.1.1-3.9.1-8.3-.45-3.7-.4-9.1-2.2-11-2.9l-.5-2.03c-.2-1.15-.8-1-1.2-.7-.4.25-.6.5-1.9 1.1-1.3.67-1.3-.1-1.4-.5 0-.4-.3-2.1-.3-3 0-.9-.5-.9-1.1-.7-.6.3-3.5 1.5-4.6 2-1.1.5 0 1.37.5 2.4a147.27 147.27 0 0 0 1.5 2.6l-3.6.9c-.9.2-.6.86-.4 1.5.2.6 1.6 3.64 1.9 4.5.3.8 1.1.3 1.1.3l2.8-1.7 1 3.7s-1.3.3-2.7 1.2c-1.4 1-1.1 2.27.6 2.7 1.6.5 3.6 1.4 5.7 5.3s2.7 10.9 4 21.93c1.3 11.1 8.4 16.7 9.3 17.4 1 .7.5 1.3.5 1.3s-.9 1.4-.5 3.5 2.3 3.4 3.3 3.7c1 .3.7 1.3.7 1.3s-.5 2.38 0 6.7c.5 4.3 4 9.1 5 10 1 .8 1 1.2.9 1.6-.1.3-.8 0-1.9.9s-2.5 2.1-3.4 3.7c-.8 1.5-.5 2.4-.3 4.5.3 2.1 3.3 3.9 3.3 3.9s-.5.2-.7 1.7c-.1 1.5 1 3.3 2.4 4.4 1.4 1.1 4.1 1.7 4.1 1.7l.4 2.3c.2.9 1.9 1.8 3 2.5s3.3.3 4.2-.1c.9-.4 1.6.1 2.1 1 .6.9.4 4.4.4 5.8 0 1.4-.82 2.9-.34 3.54.5.7 1.8.2 3.1-.52 1.3-.8 1.64-.2 2.8.5 1.2.7 3.06 1.4 3.55 1.4.5-.1.3-1.4.3-2.4s.2-3.4.7-3.8c.2-.2 2.3-.3 3.8-1 .8-.3 1.7-.6 1.8-1.3.1-.7-.96-.7-3.2-1.9-2.3-1.2-2.7-1.9-4.17-2.83-1.5-1-.8-1.4-.8-1.8 0-.5.7-.9.9-1.5s.1-1.8.1-1.8l1.7-1.8c.6-.6 1.24-1.6 2-2.2.8-.6 2-3.6 2.7-4.6.8-1 2.5-2 3.54-3.3 1.1-1.4 3.9-3.5 5.4-4.6 1.6-1.1 5.9-3.1 5.9-3.1s0 2.6 1.1 3.9c1.1 1.2 2.5-1 7.5-4.5 4.9-3.5 8.6-4.8 8.6-4.8s1.1 1.6 2.4 3.3c1.3 1.7 2.5 0 8.5-8.4 4.7-6.6 11-12.6 13.4-14.8l1.3.6-.4 1.1c-.5 1.7-1.4 2.8-2.6 5.2-1.1 2.4-2.9 3-5 6.2-2.1 3.3-2.34 5.5-2.55 8.8-.2 3.4 1.7 4 1.7 4s-3 3-3.9 5.2c-.9 2.2-1.34 6.7-1.34 6.7s-.5.2-1.6 2.5-3.1 2.7-6 5.6-6.2 4.2-7.7 5.1c-1.5.9-1.1 1.8-.7 3 .4 1.2 2.5 2.4 4.9 3.3 2.4.9 3.2.6 4.9.5 1.63-.1.3 1.2-.37 1.9-.7.7-1.6 3.1-1.4 5.8.2 2.7 2.2 2.1 4.7 1.6 2.5-.4 5.4-1.6 5.4-1.6l-.3.8c-.2.7-.4 1.3-.4 3.4s.4 3.2 1 3.8 1.9-.6 2.8-.9c.8-.3 2.4-1.1 4.6-1.6 2.2-.5 3-1.4 3-1.4s-.6.7-.7 2.2c-.1 1.5-.1 3.8.3 5.1.3 1.3 1.3 2.9 2.8 4.3s1.9.8 3-1 3.4-3.9 3.4-3.9l1.7 5.5c1.5 4.9 6.5 8.9 6.5 8.9s5-4.1 6.5-9l1.7-5.5s2.2 2.2 3.3 4c1.1 1.7 1.4 2.3 2.9 1 1.5-1.4 2.5-2.9 2.8-4.2.34-1.4.4-3.6.3-5.2-.2-1.5-.7-2.2-.7-2.2s.8 1 3 1.4c2.2.5 3.77 1.4 4.67 1.7.9.3 2.1 1.4 2.7.9.6-.6.9-1.6.9-3.8s-.1-2.7-.4-3.4l-.3-.8s2.9 1.3 5.4 1.7c2.5.4 4.5 1.05 4.6-1.65.2-2.7-.7-5.1-1.4-5.8-.7-.7-2-2-.3-1.9 1.65.1 2.5.4 4.9-.5 2.4-.9 4.5-2.1 4.9-3.2.4-1.17.84-2.07-.7-2.97-1.5-.9-4.8-2.1-7.7-5-2.9-2.9-4.9-3.2-6-5.5-1.1-2.3-1.6-2.5-1.6-2.5s-.5-4.5-1.4-6.7c-.9-2.2-3.9-5.16-3.9-5.16s1.9-.7 1.6-4c-.2-3.3-.5-5.6-2.5-8.8-2.1-3.3-3.9-3.8-5.07-6.2-1.2-2.5-2.1-3.6-2.6-5.3l-.4-1.1 1.8-.8c2.4 2.2 8.7 8.3 13.5 14.9 6.1 8.4 7.2 10.1 8.6 8.4 1.3-1.6 2.3-3.2 2.3-3.2s3.7 1.2 8.6 4.7 6.4 5.7 7.5 4.4c.6-.7.7-1.76.8-2.6 0 0 2.8.8 6.1 2 1.9.7 4.1 1.6 5.7 2.2 4.3 1.8 4.7 2.8 8.1 5.5 3.4 2.7 8.2 2.4 12.8 1.03 4.5-1.4 16.7-5.4 21.6-7.6 4.9-2.1 8.4-4 8.9-5s1.1-3.7 1.1-4.7-1.1-2.4-1.5-2.7c-.3-.2-.2-1-.1-1.6.1-.6-.2-2.5-.9-3.3-.8-.8-.7-1.1-.6-3.5.2-5-3.4-11.4-8.4-13.4 0 0-.2-.6-.6-.9-.4-.3-1.1-.6-1.1-.6s.1-2.9.1-3.5c0-.66.2-.6.6-.4.3.2.9.84 1.7 1.1.8.2 1.3-.4 1.5-1.3.2-1 .9-2.8 1.2-3.8.3-.9-.1-1-.5-1.14-.3-.1-1.6-.2-2.2-.4-.5-.1-.5-.1-.4-.5.17-.3.37-.8 1.1-1.9.78-1.2.1-1.2-.63-1.4-.7-.3-3.9-1.3-4.8-1.4-.9-.1-1.1.6-1.1 1v2.7c.1.6-.5.4-.8.3-.4-.2-1.2-.7-1.8-1.2-.6-.5-1.1 0-1.3.7-.3.7-1 3.5-1.3 4.3-.2.8-.2 1.5.2 1.6.3.2 1.93 0 2.9 0s.4.6.4.6l-1.4 2.3c-.3.62-.9.72-1.7.72H420s-5.3.2-9.2 3.1-4.9 5.22-5.5 6.6c-.6 1.4-1.3 1.1-1.9 1.6-.6.5-2.3 2.3-2.3 3.3 0 1.1.4 1.7-1.3 2.8-1.7 1.1-3.1 5.9-.8 8.35 2.3 2.5 3.2 5 3.9 6.2.7 1.2 0 1.7-.6 1.7s-1.86-1-2.9-1.8c-1.05-.7-6.3-4.8-8.56-6.5-2.3-1.7-.6-1.5-.6-1.5s.5.1 1.9-.5c1.3-.5 1.5-1.2.2-1.6-1.38-.4-3.9-1.9-4.6-2.6-.7-.7-1.1-1.47.23-2.17 1.3-.7 4.3-2.6 2-3.2-2.3-.66-5-1.1-7.2-1.77-2.2-.64-2.4-1.26-2.4-1.26l1.4-2.1s1.2-1.7-.2-1.9c-1.4-.2-4.7-.6-7.8-1.9-6.1-2.7-9.9-7.17-11.3-12.6l.1-.17c1.2 2.2 3.8 6.4 7.8 6.6 5.5.1 6.1-1.6 4.85-3.4-1.26-1.8-2.7-3.4-3.05-3.9-.4-.6-.5-1.3.95.1 1.5 1.3 4.2 5.9 12.4 5.4 8.3-.6 8.2-2.2 8.2-2.6 0-1.6-1.7-1.9-2.6-2.9-.5-.5-.8-1.3.8-.6s5.8 1.4 11.3.2c2.2-.5 8-3 8.6-6 0 0-3.67-.2-6.25-1.3s-4.1-2-1.4-1.5c2.8.5 8.1 1.7 12.7.1 2.8-1 6.3-3.2 6.3-7.2 0 0-5.1-1.1-6.9-1.7-1.9-.7-2.5-1.2-2.5-1.2s7.26 2.3 13.8-1c6.6-3.4 6.87-7.9 6.87-9s-.14-1.4-.14-1.4-6 1.4-10.5 1.4c-4.5-.1-5.9-.5-5.9-.5s12.5-.3 18.8-4.2c6.3-3.8 6.65-11.4 6.65-11.4s-7.1 2.6-11.6 3.1c-4.43.5-7.2.5-8.3.5-1.1-.1-1.7-.4.7-.58 2.5-.1 12-1.7 17.2-4.8 5.3-3.1 8.6-9.7 8.9-12.8.3-3.1 0-2.5-2.4-1.1-2.3 1.5-10.9 6-16.6 7.3-5.7 1.2-6.8 1.4-6.8 1.4s-2.2-.1.6-.9zM199.3 250.47l-2.52 1.44s-1-2-1.26-2.6c-.26-.6-.13-.9.22-.9s1.4-.3 2.22-.4h.32c.28.8.64 1.7 1.12 2.5l-.1.1zm76.78 44.95c-1.53 2.86-5.68 5.85-8.73 7.17-3.05 1.3-6.38 1.7-7.77 1.9-1.38.2-.2 1.9-.2 1.9l1.45 2.1s-.2.6-2.43 1.2c-2.2.6-4.92 1.1-7.2 1.7-2.3.6.62 2.5 1.94 3.2 1.3.6.97 1.4.27 2.1-.6.7-3.2 2.1-4.5 2.5-1.3.4-1.1 1.1.2 1.7s5 1.2 5 1.2 0 .1-2.3 1.8c-2.2 1.7-6.1 2.8-8.6 2.9-2.5.1-6.6.3-11.7.1-5.1-.3-5.7-.4-5.7-.4l-.5-4.3c-.3-2.6-1.9-6.2-3-7.8-1.2-1.7-3.7-5-3.7-5s.1-.7.3-1.5c.2-.9.1-1.7-.5-3.3-.6-1.6-3.6-3.9-3.6-3.9s-.1-1.7-.1-3.2c0-1.6-1.1-7.7-2-10.6-.9-2.9-5.6-10.5-7.8-14.1-2.2-3.6-3.4-9-4.1-13.1-.6-4.2-.4-5.5-.2-6.6.1-.5.3-.9.5-1.3a12.9 12.9 0 0 0 3.5 3.1c6.3 3.8 18.8 4.2 18.8 4.2s-1.4.4-5.8.4c-4.5 0-10.4-1.4-10.4-1.4s-.2.3-.2 1.4c0 1 .3 5.6 6.9 8.9s13.8 1 13.8 1-.6.5-2.4 1.2c-1.8.6-6.9 1.7-6.9 1.7 0 4 3.5 6.2 6.2 7.1 4.7 1.5 10 .4 12.7-.1 2.8-.6 1.2.3-1.4 1.4-2.5 1.1-6.2 1.3-6.2 1.3.6 2.9 6.4 5.5 8.6 5.9 5.5 1.2 9.6.4 11.3-.2 1.6-.6 1.3.1.8.6-1 1-2.6 1.3-2.6 2.8 0 .4 0 2 8.2 2.6 8.3.5 11-4.1 12.4-5.4 1.5-1.4 1.4-.6 1-.1-.3.5-1.8 2.2-3 3.9-1.2 1.8-.6 3.5 4.9 3.3 4-.2 6.7-4.4 7.8-6.7l.1.1.2.3c-.5 1.3-1.4 3.4-2.4 5.3zM342.5 117.3c-.74-1.43-1.14-2.1-1.14-2.1s3.1 1.46 4.95 3.54c1.9 2.1 1.8 3.2 2.1 4.22.3 1.02 0 2.9-.2 4.68-.3 1.78-.3 2.84.1 3.47.4.7.7 1 .7 1s-1.3.4-2.6.9-3 1-3.9.2c-.9-.8-1.2-1.3-.6-1.8s2.8-1.1 3.1-4.9c.3-3.8-1.5-7.6-2.2-9zm-16.92 10.27c.7-1.8 1-3.5.46-7.2-.46-3.08-1.06-5.73-1.2-9.06 0 0 2.28.6 5.58 3.6 3.28 3 4.04 6.1 4.04 7.6s-.8 3.4-.92 4.8c-.13 1.5.4 2.8.4 2.8s-1.2.5-2.28 1.3c-1.08.8-1.83 1.2-3.5 1.2-1.66-.1-2.66-.8-3.62-1.3s-1.58-.6-1.58-.6 1.9-1.1 2.6-2.9zm-16.05-12.75c3.3-3 5.58-3.5 5.58-3.5-.1 3.32-.7 5.97-1.2 9.06-.5 3.68-.2 5.4.5 7.2.7 1.8 2.7 2.88 2.7 2.88s-.6.08-1.6.58c-.9.5-1.9 1.25-3.6 1.34-1.7.08-2.4-.38-3.5-1.13A13.96 13.96 0 0 0 306 130s.54-1.3.4-2.76c-.1-1.46-.9-3.3-.9-4.8s.76-4.6 4.05-7.62zm-11.87 18.3c-.94.8-2.63.32-3.92-.2-1.3-.5-2.67-.86-2.67-.86s.3-.32.66-.95c.36-.6.36-1.6.08-3.4-.2-1.7-.5-3.6-.2-4.7.3-1 .3-2.1 2.1-4.2 1.9-2.1 5-3.5 5-3.5s-.4.7-1.1 2.1c-.7 1.4-2.5 5.3-2.2 9.1.3 3.8 2.5 4.4 3.1 4.9.6.5.4 1.1-.6 1.9zm43.86 31.62c-3.24 1.8-5.1 1.4-4.96 2.72.14 1.32 3.04 2.32 3.04 2.32s-2.97 3.18-5.3 4.65c-2.3 1.45-5.02 2.38-5.02 2.38s-.92.2-.4 1.6c.54 1.5 1.46 2.5 2.2 2.9.72.4 1.12.6 1.12.6s-4.04 4.3-5.83 5.7c-1.78 1.4-2.78 1.9-4.23 2.5-1.46.6-.73 3-.4 4.1.33 1.1 1.6 2.6 2.32 2.8.72.2 1 .8.06 2.2-.7 1.1-3 4-4.1 5.6l-.07.1c-1.1-1.6-3.43-4.5-4.13-5.6-.92-1.4-.66-2 .07-2.2.7-.2 1.9-1.6 2.3-2.7.3-1 1-3.4-.4-4-1.5-.6-2.5-1-4.3-2.4-1.8-1.4-5.8-5.7-5.8-5.7s.4-.1 1.1-.5c.7-.4 1.6-1.4 2.2-2.8.5-1.4-.4-1.6-.4-1.6s-2.7-.9-5-2.3c-2.3-1.5-5.3-4.6-5.3-4.6s2.9-1 3-2.3c.1-1.3-1.8-.9-5-2.7-3.3-1.8-4.3-4-4.3-4s3.7-1.3 5.6-5.1c.6-1.3.8-2.6.7-3.6l.1.1c6 2 13 2.8 19.3 2.8 6.3 0 13.3-.7 19.3-2.7h.1c-.1 1 .1 2.2.7 3.6 1.8 3.8 5.6 5 5.6 5s-1.1 2.3-4.3 4.1z" fill="#b96b29"/>
  <path d="M361.2 237.75c0-10.18 4.7-16.6 4.7-16.6l-12.75-14.6c-12.14 4.68-23.25 4.97-33.15-.07-9.9 5.04-21 4.75-33.14.06l-12.75 14.6s4.7 6.43 4.7 16.6c0 10.2-1.9 17.74-3.1 22.66-1.1 4.93-2.1 14.12.5 20.7 2.6 6.55 5.4 12.3 16.8 17.06 11.3 4.76 17.3 7.22 21.2 10.5 4 3.3 5.9 5.9 5.9 5.9s2-2.6 5.9-5.9c4-3.28 9.9-5.74 21.2-10.5 11.3-4.76 14.1-10.5 16.8-17.07 2.7-6.6 1.7-15.8.5-20.7-1.1-4.9-3.1-12.5-3.1-22.7z" fill="#d4af3a"/>
  <path d="M357.2 241.95c-1.6-9.72 4-18.28 4-18.28l-10.9-12.75c-8.4 4.72-20.1 4.08-30.26-.6-10.16 4.68-21.86 5.3-30.26.6l-10.9 12.75s5.6 8.56 4 18.28c-1.6 9.72-5.05 25.1-4.2 31.38.87 6.27 5.3 13.53 9.86 17.35 4.55 3.8 11.32 7 16.1 8.74 4.82 1.72 9.5 5.04 11.7 6.76 2.22 1.73 3.7 3.2 3.7 3.2s1.47-1.47 3.7-3.2c2.2-1.72 6.88-5.04 11.68-6.76 4.8-1.73 11.57-4.93 16.12-8.74 4.55-3.82 8.98-11.08 9.84-17.35.86-6.3-2.6-21.68-4.2-31.4z" fill="#b96b29"/>
  <path d="M356.15 243.1c-1.58-10.5 3.16-18.95 3.16-18.95l-9.8-10.96c-8.3 4.2-18.4 3.1-29.4-.7-11 3.8-21.1 4.9-29.4.6l-9.8 10.9s4.8 8.4 3.2 18.9-4 22.4-3.5 29.3c0 .5.1.9.2 1.4h9s.5-.6 1.5-1.1c1-.5 1.3-.8 1.3-.8s.2-1.8 1.3-2.2c1.1-.4 1.6-.4 2-.4.4 0 .8-.1 1.3-.6.5-.6 2-1.8 2.6-3.7.7-1.8 1-2.5 1-3.7 0-1.2.5-3.1.5-3.1s-.2-.6-1.1-.2c-.9.3-1-.6-1.1-1.5-.1-.9 0-2.7.5-3.6l.7-1.1-.4-1.4s-5.7 1.1-6.7-3.3-1.2-6.6-1.3-7.1c-.2-.5-.3-.7-1.1-.7-.7 0-2.4-.5-3.5-2.8s-1.2-3.3-.9-4.2c.4-.9 1-.6 1.2-.3.2.3 1.7 2.5 2.3 1.9.6-.7.3-.7-.5-2.4s-.5-2.3-.5-3.2c.1-.8-.2-2-.2-2.5 0-.4.5-.8 1-.6.5.3 1 .7 1.2.9.2.3.3.8.8.5.5-.3.2-1.8.2-2.4 0-.5.6-.9 1.4-.5.7.4 1.1 1.3 1.1 1.8 0 .6.1 1.1.4 1.1.3 0 .7-.8.7-1.4.1-.5.4-1.4.9-.7.6.7.7 1.8.6 2.9-.2 1.1.2.6-.2 2.5s-.6 2.7-.5 4.2c0 1.4.1 2.2.8 4 .7 1.7 1.3 3.8 2.6 3.8h1.7s1.5-2.9 2.6-3.5c1.2-.7 2.8-.8 3.9-.9 1.2-.1 1.6-.5 1.6-.8 0-.3-.4-.4-1.8-.6-1.4-.2-2.5-.6-2.5-1.6 0-1.1.3-2-.6-2-.9-.1-3.1-.8-3.9-2.3-.8-1.5-.6-1.8-.5-2.6.1-.8 1.2-2.5 1.8-.9.7 1.5 1.1 1.7 1.7 2 .5.3 1.3.4.9-.7s-.6-1.7-.5-2.5c.1-.8.6-1.1 1.2-1.2.6-.1 2.5-.7 3.4-.9 1-.2 1-.3 1-.3s.1-.7 1.4-1c1.3-.4 2.1-.4 3-.4.9 0 1.6.1 2.8-.5 1.2-.6 2.2-.7 2.9-.6.8 0 1.4.3 1.9.7.6.4.4.9.4 1.4 0 .5.1.8.9.8s1.6 0 2.3.3c.8.2 1.8.7 1.2 1.5-.6.8-.7 1.7-1.1 1.6-.4 0-.4.4-.6.7-.2.3-.3.5.2.8.5.3.6.6 1.2 1.2.7.6 1.7 1.3.7 2.3-1 1-2.7 1.8-2.7 1.8s-1 .5.2 1.2c1.1.7 1.7 2 2.1 2.3.4.2.8.6 1.1.7.3.1.3 1.1.3 1.1s-.6.4-1.4.7c-.8.4-1.7.7-2.5.7s-1.3 0-.9.8c.3.7.9 1.5 1 2 .2.4.3 1.2.3 1.2s1.3.2 2.5.2 1.7 0 4.3-.2c2.6-.3 3.4-.3 5.9-.1 2.5.3 2.9.2 3.5.5.7.2 1.3.5 1.3.5s3.6 0 5.5-.5c2-.5 2.5-1.7 2.2-2.4-.3-.7-.2-1.7-3.6-2.2-3.4-.4-4.8-.3-7.5-.8s-6.9-1.9-7.7-5.3c-.7-3.3 2-4.8 3.4-5.4 1.4-.7 4.4-1.7 5.8-2.3 1.4-.6 3.9-1.1 6.58-.8 2.6.4 4.1 1.1 5.2.5 1-.6 1.9-.1 1.7.8-.2 1-1.3 2.9-4.2 3.8-3 .9-6.6 1-8.6.4-1.96-.6-3.4-1.3-4.6-.9-1.2.4-2.5 1.9-1.26 3.7 1.3 1.7 7.8 2.3 9.6 2.4 1.7.2 8.2-.3 10.1 3 1.8 3.2.4 6.8-1.8 7.7-2.2.8-4 1.3-5.7 1.5l-1.7.2s.8 1.7.8 2.5-.1 2 .7 2.6c.8.5 2 .9 3.38.7s3 .8 3.1 2c.1 1.2.5 2.9.6 5.4.1 2.5 0 4.5 0 4.5s-.1 1-.4 1.9c-.3.9-2 4.4-2 4.4h9.5c.06-.5.1-1 .1-1.5.4-7.1-2-18.9-3.6-29.4z" fill="#1d5e91"/>
  <path d="M281.63 278.58c1.88 5.36 5.74 10.78 11.62 14.32 8.18 4.93 11.7 4.28 19.42 9.3 7.7 5 7.24 5.85 7.34 5.85.1 0-.3-.84 7.4-5.86 7.7-5.1 11.3-4.4 19.4-9.3 5.9-3.6 9.8-9 11.7-14.4h-76.8z" fill="#6d8c3e"/>
  <path d="M288.32 237.2c.88.92 1.53 1.2 2.87 1.06 1.3-.14 1.6.83 1.8 1.9.2 1.06.2 3.55 1.2 5.86.9 2.3 4.2 2.45 4.2 2.45.1-1.1.5-2.6 1-3.83.1-.22.5-1.25-.7-1.25s-1.1-.5-1.8-1.6-2.1-4.1-2.4-6c-.3-1.9.3-4.7.6-5.7s.3-1.7 0-1.9c-.4-.2-1.1 0-1.1 0s.2.9-.1 1c-.4.1-.6-.5-.9-1.1-.3-.7-.5-.6-1-.5-.5 0-.5.4-.2.9.3.4.1 1.3.1 1.3s-1.1-.8-1.5-1c-.4-.2-1.4.2-1.5.7-.1.5.3 2 1.2 2.7s.9 2.2.6 2.9c-.2.7-1.5.6-1.8.2a.8.8 0 0 0-1.2 0c-.4.4-.8.7.1 1.6zm-.5-2.45s-.52-.4-.7-.65a35.12 35.12 0 0 1-.56-.74s-.1.23-.1.8.6 1.14.6 1.14l.74-.55zm1.93-6.42c.4-.18.74-.28.4-.74-.3-.5-.6-1-.9-1.1-.34-.1-.6-.1-.6-.1s.35.8.45 1.3c.1.5.24.7.64.5zm2.4-1.95c-.04.4.06.6.43.4.37-.17.5-.68.32-1.05-.2-.37-.6-.64-.6-.64l-.28-.2c-.03 0 .17 1 .12 1.4zm3.46.56c.1-.47-.1-.97-.1-.97s0 .55-.2.88c-.2.32-.2.23.1.5.2.3.3.05.3-.42zm5.5 23.5c.7 1.56 2.4-.9 4-2.9s1.5-.47 1.3 1.15c-.2 1.6.4 3.3 1.1 4.4.7 1.1 1.2.4 1.4-.3.3-.8.5-2.4 1-3.2.6-.8 1.1-.1 1.1.5.1.7.9 2.2 1.7 3.1.8.9 1.2-.3 1.4-1.4.3-1.1.6-2.8.8-3.5.2-.7 1-.1 1-.1l1.6 1.5s1.2-.6 1.3-1.4c.1-.8-.1-2.6.2-2.8.3-.3 1.2.3 2.6 1s1.3-.6 1.2-1.4c-.1-.7-.9-2.4-2-3.4-1.1-.9-1.3-2-.9-2.5s1.7-.1 2.5-.2 1.3-.2 1.9-.3c.6-.1.6-.8.6-.8s-.5-.8-1.4-1.6c-.8-.8-1.4-1.4-2.5-1.7-1.1-.3-2.6 0-2.6 0l-.1-.3c-.1-.3-.4-.3-.7 0-.2.3-.7.7-1.1 1.1-.4.3-.7.6-.9.4-.3-.2.2-.5.2-.5s.6-.4 1.1-1.5c.5-1.1.7-2.1.2-2.5-.4-.5-1.5 0-2.2 0-.6 0-1 .1-1-.2 0-.3.7-.2 1.4-.3.8-.1 1.3-1.1 1.6-1.9.2-.8.5-.7.9-.2.5.5.9.4 1 0 .1-.3.5-1.1 1-1.9.5-.8.8-1.9.3-2.6-.6-.8-2-.7-2.6-.2-.6.4-.9.9-1.1 2.1-.2 1.1-.5.5-.5.1s-.4-1-.2-1.4c.2-.5 0-1 0-1s-.1-1-1.2-1.2c-1.1-.2-2.3.1-3.4.3-1.1.3-.9 1.2-.9 1.2s-.9 0-1.8.1-1.9.5-2.8.7c-.8.2-1.1.3-1.1.7s.2 1.1.2 1.1.7 0 1.1.2c.4.2.2.6-.2.7-.4.1-.6.2-.6.7s.2.6.7.6c.4 0 1.3 0 2.3.5 1.1.4 1.3 1.4 1.2 1.9-.1.5-1.5 1.2-2.3 1.2s-.9.2-.9.7.9.4.9.4.9 0 2.6.2c1.8.2 2 .5 2.8 1.2.8.7.2.8-.2 1-.4.2-.9.6-1.5.8-.5.2-.9.7-1.4.8-.5.1-1.8.1-4.2 1-2.4.9-3.2 4.1-3.2 4.1s.4-.1 1.4-.7c1.1-.6 2.5-1.2 3.8-2 1.3-.8 1.3.4.6 1.5-.6 1.1.6.9.9.6.4-.3.9-.7 2.1-1.3 1.2-.6.8.4.8.4s-.4.7-.5 2.5c-.1 1.7 1.8.1 2.6-1 .9-1.1 1.2 0 .6 1.2s-1.8 2.3-2.5 2.3-1.2-.8-1.2-1.2c0-.4.2-1.7-.2-2-.4-.3-1.6.1-2.5.6-.9.5-1.1.1-1.3-.4-.2-.5.3-.7.1-1-.2-.3-.7 0-1.1.1l-2.8 1.5c-1.6.8-1.5 1.3-1.5 2.5s.3 1.4 1 3z" fill="#d4af3a"/>
  <path d="M316.73 224.16c.34-.22.96-.46.96-.46s.7-.2 1.4-.28c.7-.1.6-.5.4-.83-.2-.4-.5-.5-1.4-.5-1 0-1.5.4-2.1.7-.5.2-1.2.3-1.2.3s.1.1.4.6c.3.5.8.6 1.2.3zm3.78 3.75c.4 0 .8-.2.8-.2s.7-.3 1.3-.5c.6-.2.9-.3 1.3-1s-.4-.7-1.4-1c-1.1-.2-1.6.1-1.7.5-.1.4-.1.9-.5 1.7-.4.8.1.7.5.7zm-.3 1c-1 0-2.2 1.6-2.6 1.9-.4.3-.2.6-.2.6s.3.7.5 1.3.2 1.7.2 1.7.2.1.8.1c.7 0 1-.3 1.6-.7.6-.4 1.1-.6 1.9-.7.9-.1 1.3-.3 2.2-.8.9-.5-.5-1.3-1.5-2.1-1-.7-1.6-.9-2.6-.9zm-13.9 3.7c.9-.1 1.2-.5 1.2-.9s-.4-.9-1.4-.9c-2.6.3-5.1-.7-5.6-3.3 0 0-.8 1.6.8 3.4 1.7 1.8 4.3 1.8 5.2 1.7zm-8.8 41c.2.3.3.4.5.5h4c.7-.2.7-.8.8-1.2.1-.5.5-1.9 1-4.6.6-2.6 1.5-4.5 1.9-5.6.4-1.1-.4-1.4-.6-2.1-.2-.7-.7-1.8-.8-2.4-.1-.6-1.1-.5-1.6-.5-.5.1-.6.9-.6 1.7 0 .8-.4 3.1-.8 5.2-.4 2-2.6 4.7-3.3 5.3-.6.6-1.1.9-1.5.9-.4 0-1.3 0-1.8.3s-.9 1.1-.9 1.7c0 .6.9.9.9.9s.8-.4 1.1-.7c.3-.4.9-.4 1.6-.5.6-.1.7.1.5.5-.2.3-.2.3.3 1.2zm-6.1-.2c-.3.1-.5.4-.6.7h2.6c0-.2-.1-.4-.2-.6-.3-.4-1.1-.2-1.7 0z" fill="#d4af3a"/>
  <path d="M294.77 273.18c-.32.17-.7.46-.9.73h2.8c.1-.2.14-.6-.2-.8-.64-.5-1.27-.1-1.7.2zm24.33-1.16c-.3 0-.58.28-1.02.58-.44.3-.57.78-.64 1.16a.25.25 0 0 0 .02.16h1.2a.22.22 0 0 0 .07-.16c0-.34.13-.65.64-1.1.53-.44.05-.64-.25-.64zm2.34 1.3c0-.38-.14-.72-.4-.68-.28.03-.72.5-1.1.78a2.37 2.37 0 0 0-.47.5h1.77c.1-.2.2-.43.2-.6zm10.83-12.95c.84-.6.7-.78.74-1.43.1-.64.1-.85-.3-1.08-.3-.24-1.5-.78-2.7-.78-1.2 0-3.4.27-4.2.84-.8.58-1.2 2.65-1.2 3.74 0 1.08.2 1.26.5 1.26s.8-.8.8-.8 1.1 1.48 1.8 2.5c.7 1 .4 1.42.1 2.2-.3.78-1.4 2.85-2.3 3.3-.9.44-1.5.03-2.6-.14s-1.6.14-2.2.75 0 1.1.4 1.1.9-.05 1.3.46c.3.3.1 1.1-.1 1.6h5.2c.9-.4 1.5-1.6 1.7-2.3.3-.8 1.4-1.8 2-2.3.6-.5.6-.9.6-2s-.3-1.8-.7-2.6c-.4-.8-.7-1.9-.6-2.6.1-.7 1.3-1.4 2.1-2z" fill="#d4af3a"/>
  <path d="M323.74 247.43c.5.84.26 1-.5 1.16a8.54 8.54 0 0 1-2.7.1c-1.17-.1-1.14 0-1.17.6-.03.6-.13 1.8-.8 2.7-.7.9-1.53.5-2.05.2-.5-.4-.8-.3-1 .3-.2.6-.55 1.1-1.1 2.1-.55.9-.9 1-1.3.9-.38-.1-.74-.7-1.13-.7-.4-.1-1-.8-1.6-1.8-.6-1-.9.1-1.3.9s-.8 1.4-1.5 1.3c-.8-.1-1.6-1.5-2-2.3-.5-.9-.7-1.7-1.4-1.6-.7 0-1.8 1.4-2.5 1.7-.7.3-.9.2-1.3-.2-.3-.5-.8.1-1.2 1.2-.5 1 0 1.9.6 2.2.6.3 1.7-.6 2.5-1.1.7-.5 1.1-.4 1.9-.4.8 0 .7 1.3 1.1 3.3.3 1.9 1.5 2.2 1.5 2.2s.3.3 1.2-1.2c.8-1.5.9-3 1.8-3 .8 0 .9.2 1.7 1.3.9 1.2 1.6 2 2.1 1.2.5-.9.9-2.2 1.4-2.7.5-.5 1-.6.4.2s-.8 1.7.4 1.4c1.2-.4 5.7-2.2 7.6-2.6 0 0 2.1-.3 4.6-.5s3.1-.3 4-.3c1 0 1-.1 1.1-.8 0-.6-.5-.5-2.3-.5-1.8 0-3.1.2-4.3.4-1.3.2-1.9.2-1.7-.2.3-.4.6-.6 2.1-.8 1.4-.3 4.4-.4 6-.5 1.5 0 1 .4.9 1.5-.2 1 .1 2.5.2 3.5s.1 1.3.9 2.6c.8 1.4 3.7 2.2 4.6 2.7.8.4.7 0 .6-.8 0-.8.7-.8 1.4-.4.8.4 2 .8 2.9 1 .9.2 1 .4 1 .9s.1 1.5.2 2.4 0 1.2-.3 1.8c-.4.6-2.1 2.3-2.1 2.3s-.8 0-2.4.4c-1.6.4-2.1 1.1-2.2 1.7-.2.7.3.9.4 1.1v.8h.3c.1-.2.3-.5.5-.9.6-.7 2-.9 2.9-.5.6.3.6.9.6 1.3h3.6c.5-.9 1.7-3.2 2-3.9.3-.9.6-1.5.6-2.7 0-1.2.2-5.8-.1-6.1-.2-.3.1-1.1 0-2.4 0-1.3 0-2.3-2.4-2.5-2.4-.2-3.1-1.2-3.9-2-.8-.8-.6-2.7-1.3-4.9s-2.2-2.6-5-3.2c-2.8-.6-4.8-.6-6.9-.5-2.1.2-4.8.5-6.2.3-1.4-.2-1.2.3-.7 1.1z" fill="#d4af3a"/>
  <path d="M337.32 273.4c-.24.16-.4.35-.5.52h2.43a.95.95 0 0 0-.24-.7c-.3-.46-1-.2-1.6.18zm4.38-.16a2.22 2.22 0 0 0-.8.68h2.47a.97.97 0 0 0 0-.3c-.1-.38-.84-.8-1.66-.38zm-61.07 1.55c.13.7.3 1.5.54 2.3h77.67c.23-.8.4-1.6.54-2.4h-78.75zm52.35-37.2c2.45 1.6 10.24 1.7 13.9 2.4s3.4 3.5 2.28 5c-1.12 1.4-6.27 1.6-7.2 1.7.5.3 1.26 1.4 1.26 1.4l2.1-.2c1.56-.1 4.27-.5 6.12-2.1 1.85-1.6 1.72-4.1.1-5.7-1.65-1.7-4.36-1.9-7.1-2.2-2.77-.3-4.92-.6-8.02-1.1-3.1-.6-4.6-1.8-4.6-3.6s1.67-2.8 2.88-3.1c1.2-.4 3.14-.9 4.86-.2 1.72.6 3.75.7 7.15.3 3.4-.5 4.2-2.8 4.2-2.8s-.4.2-2.1.2c-1.7 0-2.9-.8-6.1-.8-3.1-.1-4.2 1.1-5.7 1.6-1.4.5-5.4.9-6.5 3.4-1.1 2.5.2 3.7 2.7 5.3z" fill="#d4af3a"/>
  <ellipse rx="1.47" ry="1.44" cy="225.96" cx="312.56" fill="#b96b29"/>
  <path d="M344.03 228.42c-1.94-.17-4.48.34-4.48.34s.47.4 1.12.35c.65 0 1.8 0 3.7.3 1.9.4 3.27-.5 3.27-.5s-1.68-.2-3.6-.4z" fill="#b96b29"/>
  <path d="M325.6 264.57c-.46-.75-.6-.68-1.15-.2-.54.47-1.08-1.16-1.15-2.18-.07-1.1.4-4.2.4-4.2s-2.64.5-4.06 1c-1.43.5-2.78.6-3.94.9-1.15.2-1.76.5-2.37.4-.6-.2-1.9-.2-2.92-.2-1 0-.9.2-1.9 1.2s-1.3 1.5-2.1 3.4-1.1 3.6-1.3 5.9c-.2 1.5-.4 2.5-.6 3.1h12.2l.5-1.3c.3-.7 1-1.2 1.5-1.4.5-.3.9-.3 1.1-.8.3-.6.9-1 1.5-1.3.7-.3 1.8-.1 2.8.1 1.1.3 1.4-.4 1.7-.8.3-.4.5-1 1-1.7s.2-1.4.2-1.4-.5-.4-1-1.1zm19.52.33c-.15-.7-.1-.8-.5-.9-.42-.1-1.12-.22-1.72-.47-.6-.26-.54 1.37-.54 1.37s-1.44.16-3.06-.03c-1.63-.2-3.54-1.66-4.2-2.14-.68-.48-1.4-1.56-1.4-1.56s-.52.48-1.03.77c-.5.28-.8 1.3-.9 2.32-.1 1.02 1.2 2.26 1.28 3.28.1 1.03-1.1 3.06-1.72 3.9-.4.56-.95 1.77-1.24 2.48h5.8c.1-.3.3-.7.6-1 .6-.6 1.6-.72 1.6-.72s0-.26.2-.8.8-1.18 2.3-1.75c1.4-.57 3.2-.67 3.2-.67s.7-.57 1.2-1.37c.5-.8.1-2-.1-2.7z" fill="#1d5e91"/>
  <path d="M296.23 329.65c1.1.37 3.13-.43 4.15-1.67 1.02-1.24 1.4-3.14 2.12-4.23l1.26-1.9s-.16 1.8-1.13 4.2c-.92 2.3-1.08 5.46-.86 6.8.44 2.7 2.2 3.15 3.2 2.78.8-.27 1.96-1.47 3.04-3.26.4-.57.6-1.36 1-2 .7-1.3 1.3-3.45 1.6-3.4.7.14.3 1.66 0 2.68-.5 2.04-1.5 5.04-1.6 6.86 0 1.9.2 5.2 2 5.3 1.9.2 2.8-1.4 3.8-5.2 1-3.7 1.3-4.9 1.7-4.9.5 0 .5 2.6.5 3.7 0 .4 0 1.4.2 2.5.3 2 .9 4.4 1.5 4.9.9.8 1.6.7 1.6.7s.8.2 1.6-.6c.9-.8 1.7-6.2 1.7-7.3 0-1.1 0-3.6.5-3.6s.7 1.2 1.7 4.9 2 5.3 3.8 5.2c1.8-.1 2.1-3.4 2-5.2-.1-1.8-1.1-4.8-1.6-6.8s.2-1.9 1.6.7c.4.8.9 1.8 1.3 2.5 1 1.6 1.9 2.5 2.6 2.8 1 .4 2.8-.1 3.2-2.8.5-2.7-1.6-10.4-1.6-10.4l.9 1.3c.7 1.1 1.1 3 2.1 4.3 1 1.3 3.1 2.1 4.2 1.7 1.1-.4 1.2-2.4.4-6s-4.1-5.7-6.4-8.6c-2.1-2.7-3.8-7.4-4-8.1-2.9 1.5-5.5 3.1-7.8 5.5-4.8 5.1-5.8 6.3-5.8 6.3s-1-1.2-5.9-6.3c-2.3-2.4-4.9-4.1-7.9-5.5-.3.6-2.3 5.2-4.4 7.9-1.1 1.4-2.5 2.4-3.6 3.7-1.2 1.5-2 3.3-2.4 5.3-.8 3.6-.6 5.7.5 6z" fill="#d4af3a"/>
  <path d="M296.1 342c1.4-1.23 2.13-1.9 2.13-1.9s1.03-.87.77.76c-.26 1.62-.8 4.96-.47 6.42.34 1.46.5 2.7 2.3 1.62 1.8-1.06 2.24-1.7 3.1-2.6.85-.9 1.75-1.3 1.53.12-.2 1.4-.85 3.56-.55 6.42.3 2.87 1.8 3.3 3.6.86a32.26 32.26 0 0 0 3.5-5.86c.6-1.2 1.7-2.23 1.7 0 0 4.78 1.1 11.75 6.4 13.6 5.3-1.85 6.4-8.82 6.4-13.6 0-2.23 1.1-1.2 1.7 0 .6 1.2 1.7 3.42 3.5 5.86 1.9 2.44 3.3 2 3.6-.86.3-2.86-.3-5-.5-6.42-.2-1.4.7-1.03 1.6-.13s1.3 1.5 3.1 2.6c1.8 1 2-.2 2.3-1.7.4-1.5-.2-4.8-.4-6.4-.2-1.7.8-.8.8-.8l2.2 1.9c1.4 1.2 3.4 1.3 3.4 1.3s.9-5.1-1.2-8.1l-2.8-4s-1.2-.1-2.1-.4c-.9-.4-1.8-1.1-1.8-1.1v2.8s2.6 2.4 3.2 3.2c.6.7 1.8 1.9 0 .7a50.52 50.52 0 0 1-3.2-2.4s-.3 2.5-1 3.1c-.7.6-1.8.7-2.2.5l-.4-.2-.1 1s1.6 3 1.8 4.2c.2 1.2-.1 1-.9-.5s-2.1-3.5-2.8-4.6c-.6-1.1-1.6-1.8-1.5-.5.1 1.4-.4 3.8-.9 4.7-.5.9-.8 1.2-.8 1.2s1 3.5 1.1 4.1c.1.6.1 1.4-.5.6s-2.1-4.3-2.1-4.3-2.1-.1-2.7-.7c-.6-.6-1.5-2.9-1.5-2.9s-.8 3-1.5 3.9c-.7 1-2.4 1.9-2.4 1.9s-.1 5.1-.2 6c-.1.9-.2 1.3-.6 1.3s-.4-.4-.5-1.3c-.1-.9-.2-6-.2-6s-1.6-1-2.3-1.9-1.5-3.9-1.5-3.9-.9 2.3-1.5 2.9c-.6.6-2.7.7-2.7.7s-1.6 3.4-2.1 4.2c-.6.8-.7.1-.5-.6l1.1-4.1s-.3-.3-.8-1.2c-.4-.9-1-3.4-.9-4.8.1-1.4-.9-.6-1.5.4s-2.1 3-2.8 4.5-1.1 1.7-.9.5c.2-1.2 1.8-4.1 1.8-4.1l-.1-1-.4.1c-.4.2-1.4.1-2.2-.5-.7-.7-1-3.2-1-3.2s-1.5 1.2-3.2 2.4c-1.8 1.2-.6 0 0-.8.6-.7 3.2-3.2 3.2-3.2V329s-.9.63-1.8 1c-.9.3-2.1.4-2.1.4s-.8 1-2.9 4c-2.1 3-1.2 8-1.2 8s2-.04 3.4-1.3zm25.75 33.48c-1.36-1.58-1.8-2.37-1.8-2.37s-.46.8-1.8 2.4c-1.37 1.6-4.53 4.1-4.53 4.1s.3 4.2 1.8 6.5c1.3 1.9 2.52 3.7 4.52 5 2-1.3 3.23-3 4.5-4.9 1.54-2.2 1.82-6.4 1.82-6.4s-3.17-2.5-4.5-4z" fill="#d4af3a"/>
  <path d="M319.36 380.6c.12.96.04 3.4.63 3.4.5 0 .5-2.44.6-3.4.1-.97.1-3.3.1-3.3h-1.6s0 2.3.2 3.3z" fill="#b96b29"/>
  <path d="M319.97 151.3c-5.65.1-12.28-.68-15.92-2.04-1.3.3-2.6.58-3.9.86 6.02 2.26 11.04 3.14 19.82 3.23 8.78-.1 13.8-.97 19.8-3.23l-3.88-.86c-3.7 1.36-10.3 2.14-16 2.05zm20.55-4.7c-.45-.38-3.02-2.22-3.7-2.55-.66-.34-.14-1.23-.03-1.6.1-.38 3-1.2 4.6-1.6 1.6-.43 1.3-.76 1.3-.76s-1-1.1-6.8-1.8-16-.5-16-.5-10.3-.2-16.1.5c-5.8.6-6.8 1.7-6.8 1.7s-.3.3 1.3.7c1.6.4 4.5 1.2 4.6 1.6.1.4.6 1.2-.1 1.6-.7.3-3.3 2.2-3.7 2.5-.5.3-.5.9.2 1 .7 0 .7 0 2.7-.4 6-1.2 11.6-1.6 17.6-1.6 6 0 11.6.4 17.6 1.6 2 .4 2 .4 2.7.3.7-.1.6-.7.2-1z" fill="#d4af3a"/>
  <path d="M333.9 149.06c-3.98-.47-6.52-1-13.9-.92-7.38.06-9.9.45-13.9.92 2.5 1 6.57 1.5 13.9 1.5s11.4-.5 13.9-1.5zM318.95 91.5l-.18 2.83 3.04-.24-.2-2.7 3.3.4.2-2.6-3.4.3.6-2.9-3.7-.1.7 2.8-3.3-.3v2.6zm6.47 7.14h-4.1v-3.5a6.03 6.03 0 0 0-1.2-.1c-.37 0-.72.03-1.07.1v3.5h-4.23a4.57 4.57 0 0 0-.18 2h10.95v-.6a5.4 5.4 0 0 0-.3-1.4z" fill="#d4af3a"/>
  <path d="M320.12 105.05c2.43 0 4.5-1.43 5.23-3.42H314.9c.73 2 2.8 3.42 5.23 3.42zm2.25-9.58v2.4h2.7c-.54-1.06-1.5-1.9-2.7-2.4zm-4.5 0c-1.2.5-2.17 1.34-2.73 2.4h2.72v-2.4z" fill="#1d5e91"/>
  <path d="M323.25 139.97c-1.03-.5-3.28-1.45-3.28-1.45l-3.3 1.64c-1.16.58-1 .4-1.37 1.26-.35.84.04 1.14.55 1.37.5.2 4.18 2.1 4.18 2.1l4.52-2.1c.88-.5.72-.9.47-1.5-.24-.7-.73-.9-1.75-1.4z" fill="#b96b29"/>
  <path fill="#d4af3a" d="M319.97 139.33l-3.5 1.7 3.6 1.84 3.55-1.83zm0-12.36s-.3 1.27-.7 1.8c-.42.55-.72 1.03-.6 1.7.1.65.86 1.08 1.3 1.08.44 0 1.2-.44 1.3-1.1.12-.65-.18-1.13-.6-1.67-.38-.54-.7-1.8-.7-1.8z"/>
  <circle cy="132.84" cx="320" r=".68" fill="#d4af3a"/>
  <path d="M317.58 129.36s1.17-1.3 1.6-2.12c.44-.82.8-1.56.8-1.56s.34.74.78 1.56c.43.82 1.6 2.12 1.6 2.12s1.64-.87 2.6-4.03c.95-3.16-.22-6.5-.66-10.08-.43-3.6-.78-9.78-.78-9.78-1.24.7-2.42 1-3.55 1.03-1.13-.02-2.3-.32-3.56-1.03 0 0-.3 6.2-.7 9.78-.4 3.6-1.6 6.92-.6 10.08s2.6 4.03 2.6 4.03z" fill="#d4af3a"/>
  <ellipse rx="2.84" ry="2.74" cy="122.26" cx="319.97" fill="#b96b29"/>
  <ellipse rx="2.73" ry="2.64" cy="115.83" cx="319.97" fill="#b96b29"/>
  <ellipse rx="2.61" ry="2.52" cy="109.68" cx="319.97" fill="#b96b29"/>
  <ellipse rx="1.51" ry="1.45" cy="121.77" cx="319.97" fill="#d4af3a"/>
  <ellipse rx="1.45" ry="1.4" cy="115.36" cx="319.97" fill="#d4af3a"/>
  <ellipse rx="1.27" ry="1.23" cy="109.23" cx="319.97" fill="#d4af3a"/>
  <path d="M319.9 336.06c.17.04.2-.4.24-1.25.03-.8.14-2.8.35-4 .2-1.2-.4-1.1-.7-1-.3.1-.5 1-.5 1.5s.1 3.5.1 4.2c0 .6.2.7.4.7z" fill="#b96b29"/>
  <path d="M290.42 359.1c1.26-.8 2.36-1.67 5.22-3.57s3.9-4 3.9-4h-1c-.55 0-1-.77-1.05-1.53-.1-.76 0-2.32.2-4.14.2-1.8-.3-3.3-.3-3.3s-1.3 1.15-3.1 2.12c-1.9.97-2.6.5-2.6.5l-.5-1.85s-.8 1.7-2 3.67c-1.2 1.98-4.2 4.18-6.4 5.82-2.2 1.65-4.6 3.38-6.4 4-1.8.65-.8 1.5-.8 1.5s1.8 1.8 6.5 2.65c4.6.84 6.9-1.05 8.1-1.86z" fill="#d4af3a"/>
  <path d="M306.75 357.3c-1.66-.17-2.66-.8-2.98-2.62-.2-1.18.08-5.7.08-5.7s-.55.47-1.18 1.23c-.63.8-2.06 1-2.06 1s-.2.7-.8 1.7c-.6 1-1.4 2.3-3 3.3s-3.4 2.2-4.6 3.2c-1.2 1.1-2.6 2.2-4.2 3.1-1.6.9-3 2.3-3.6 4.7-.5 2.4-.1 3.2 1.8 3 1.9-.1 2.1.1 5.1-.7 3-.7 7.3-4.1 10.4-6 3.1-2 5.4-5.9 5.4-5.9z" fill="#d4af3a"/>
  <path d="M315.04 360.03s-1.27-1.6-1.73-3.42l-1.3-5.4s-.4 1.2-1.4 3.3c-1 2.2-2.7 2.7-2.7 2.7s-.1 1-1.5 2.8c-1.4 1.9-3.5 3.5-5.7 4.8-2.1 1.3-4.9 3-6.4 5.2s-1.6 4.4-.9 5.4c.8 1 1.8-.1 3.2-.8 1.5-.7 5.5-1.3 11.2-4.4 5.6-3 7.5-9.9 7.5-9.9z" fill="#d4af3a"/>
  <path d="M317.48 372.66c1.56-2.32 1.8-7.97 1.8-7.97s-.54-.4-1.3-1.1c-.75-.7-2.22-2.9-2.22-2.9s-.93 1.9-1.94 3.7c-1 1.8-1.5 2.4-3.62 4.4-2.1 1.9-4.96 3.8-6.18 5.9-1.22 2-.55 6.2.25 7.6.8 1.4 1.94.9 3.1-.2 1.2-1.2 1.57-1.5 3.63-3.2s4.93-4.1 6.48-6.4z" fill="#d4af3a"/>
  <path d="M298.97 325.33c.83-1.7 1.76-3.74 2.52-4.78a14.9 14.9 0 0 0 1.2-2.23s-2 1.83-2.8 3.13c-.8 1.3-1.3 2.55-1.7 3.96-.4 1.4-.2 1.7.6 0zm8 1.44c.32-1.1.5-1.86.5-1.86s.33-1 .15-1.1c-.18 0-1 .7-1.6 2.5-.57 1.9-1.43 4.5-1.25 4.6.18.1 1.87-2.9 2.2-4.1zm6.3 5.08c.36-.8.36-.83.36-.83s.64-2.1.64-2.52c0-.43-.2-.94-.75.14-.54 1.08-.58 2.13-.7 2.6-.1.46-.7 2.08-.53 2.23.1.14.6-.83.9-1.62zm-19.56 19.2l-.8-.5s-.5.66-1.2 1.42c-.7.76-1.5 1.06-2 1.78a7.95 7.95 0 0 1-2.7 2.28c-1.3.67-1.8.88-1.5 1.1.3.2 1.2-.3 1.2-.3s.4-.05 2-.97c1.6-.93 2-1.44 3-2.32 1-.9 2.3-2.5 2.3-2.5zm6.9 8.06c.6-.6 1.2-1 .9-1.3-.3-.3-.7-.3-1.3.2s-2.1 2-2.8 2.6c-.7.7-1.3 1-2 1.6-.7.6-2.2 1.4-3 1.8-.7.5 0 .5 0 .5s.6-.3 1.2-.5c.7-.2 2.5-1 2.5-1s.7-.3 1.7-1 2.4-2 3-2.6zm7.9 5.5c.5-1 0-.7-.9-.4-.8.4-2.7 2.4-3.8 3.2-1.1.8-2 1.1-2.9 1.5-.9.5-.9.7-.9.9.1.2.4.2.8.1s1.7-.9 1.7-.9l1.1-.2c.5 0 1.2-.6 2.4-1.5s2.2-1.5 2.7-2.5zm3.7 7.2c-1.4.9-3.8 2.8-4.4 4-.6 1.3-1 2.2-.8 2.4.2.2.9-.2 1.2-.7.3-.5.9-1.2.9-1.2s2.4-2.3 3.3-2.9c.9-.5 2.3-2.1 2.7-3 .4-.9.1-1.4.1-1.4s-1.4 2.2-2.8 3z" fill="#b96b29"/>
  <path d="M275 169.92c-1.3-.75-4.7-2.2-8.35-2.52-3.64-.3-6.45.24-9.47 1.06-2.17.58-3.92.67-5.65.2-2.6-.7-4.63-3.04-5.32-5.92 0 0-2.4 3.08.1 6.42 1.2 1.6 2.7 2.62 4.3 2.93 5.1 1 10.1-2.1 14.4-2.4 4.1-.3 7.3 2.3 7.3 2.3s1 .8 2.3 0c1.4-.8 1.8-1.4.5-2.2z" fill="#c52126"/>
  <path d="M260.3 317.5l-1.2-.16s-2.2-.6-2.66-.8c-.45-.2-1.15-.26-1.6.24-.46.5-4.12 2.67-4.12 2.67h6.07c2.1 0 3.5-1.96 3.5-1.96z" fill="#d4af3a"/>
  <path d="M277.4 316.45v-.6l-.82-1.74s-.95.6-1.87 1.6c-1.1 1.3-2.4 3-3 3.7-1 1.3-2.4 2.5-1.2.5s1.6-2.9 2.6-4.3 1.7-2 1.6-2c-.1-.1-.9-.2-3.4-.5s-4.1-1.3-5.3-2c-1.1-.7-3.2-1.8-3.2-1.8s-4.3 1.8-5.9 2.2c-1.6.4-2.6.7-1 1.4 1.6.8 2.9 1 3.7 1.5s3.2 1.3 4.6 1.3c1.5 0 4 0 3 1.1-1 1-2.1 3-3.1 5.9-1.1 3-1.1 5.6-1.1 6.9 0 1.3.2 2.6.2 2.6s1.8-2 6.6-5 6.6-4 7.5-4.4c.9-.4 1.4-.4 1.2-1.5-.1-1.1-.6-3.9-.6-4.5z" fill="#d4af3a"/>
  <path d="M295.6 301.96a68.5 68.5 0 0 1-.9-.4l-.2.08c-.57.28-3.48 2.24-4.65 4.14-1.18 1.9-2.35 2.07-1.06 0 1.2-2.07 2.2-3.24 3.2-4.14l1-.85c-2.4-1.2-4.9-2.5-7.4-4.3-.3.6-1 1.7-1.6 2.5-1.1 1-3.3 1.9-3.3 1.9s1.8-1.9 2.4-3.3c.4-.9.6-1.9.8-2.5-1.7-1.4-3.4-2.9-4.9-4.6-.3 1.2-1.3 4.1-4.1 7.3-3.8 4.2-11.3 6.3-11.3 6.3s-2.7.2-.5.8c2.1.5 3.6 1.5 7.7.8s4.4-.9 5-1.1c.5-.2 2-.1 0 .7-2.1.8-6.9 1.5-8.8 1.3-1.9-.2-4.4-.6-1.8.8 2.6 1.4 3.7 1.9 5.3 1.9s2.3.5 3.8.5 2-.3 3.1-.5 1.8.2 1.8.6c0 .5-1.5 1.7-1.5 4.8 0 3 .2 5.1.5 6 .3.9.9 2.3 1.4 3.2.4.8.6 1.6 1-.1.5-1.8 1.5-4.4 1.9-6.1.4-1.8.6-1.8.8-2.7.2-.9 1.2-1.6.7 0a133.43 133.43 0 0 0-1.2 5.1c-.4 1.5-1.1 4.1.2 2 1.3-2.1 6.4-7.8 7.2-8.8.8-1 1.5-2 2.1-2.8.6-.8 2.3-2 3.2-3.2.7-1.1 2.9-3.3 3.9-4.1-1.4-.6-2.9-1.2-4.5-1.9zm-69.55-129.1c.14 3.07 3.55 8.96 5.5 12.1 1.93 3.17 2.47 4.44 2.13 4.64-.33.2-1.14-1.4-2.2-2.8-1.08-1.42-3.15-4.7-4.9-7.18-1.73-2.48-4.27-8.38-4.6-8.92-.34-.53-.48-.87-1.34-.2-.87.67-2.55 7.17-.54 11.6 2 4.42 5.02 7.63 6.3 9.17 1.26 1.55 2.93 3.96 2.67 4.16-.27.2-.74-.4-2.28-2-1.6-1.62-4.1-4.37-5.8-6.38-1.4-1.63-3.2-4.94-3.9-6.13-.3-.45-.6-.33-.8-.1-.6.56-1.5 1.85-1.1 5.36.5 4.9 3.1 7.7 5.3 10.2 2.3 2.47 4.5 4.54 4.2 4.88-.4.34-2.7-1.74-4.3-3.28-1.6-1.54-5.6-5.36-6.5-6.44-.9-1.07-2.1-.53-2.1 3.7 0 4.2 4.7 8.5 6.7 10.85 1.9 2.3 4.3 3.7 4.1 4.2-.2.4-2.2-.8-3.4-1.6-1.3-.9-6.1-4-7-4.7-.9-.7-1.4.6-.2 4.6 1.2 4 4.7 7.2 6.8 8.7 2 1.4 5.4 3.3 5.2 3.7-.2.4-1.6-.2-3.6-1.1-1.9-1-4.3-1.8-6-2.3-1.7-.5-1.7.7-1.7.7s-.3 3.4 2.2 6.1 5.3 3.8 8 4.3 3.1.6 3 1c-.1.4-.3.5-.9.5-.6 0-3.1.2-5.4.2s-3.5.5-3.5 1.5 0 2.3 3.4 4.6 7.3 2.6 8.9 2.9c1.6.3 1.6.4 1.3.9-.4.4-1.1.4-3.6.6-2.6.2-4.1 1.2-4.5 1.9-.4.7.2 2.7 2.2 4.1 2.1 1.4 4.7 1.8 8.8 1.6 4-.3 5-.4 5.1.3.1.7-1.2.9-3.2 1.2-2.1.3-3.6.3-4.7 1.3-1.2 1-.3 2.9 1.6 4.3s6.8 1.4 8.8 1.3c2-.1 5-.9 5.2-.3.2.5-1.5 1.3-3.6 2.1-2 .8-2.6 1.2-3 2.1-.4.9-.1 1.7 2.4 2.6 2.4.9 6.1.9 7.9.1 1.8-.9 2.9-1.2 3.2-.9.3.3 0 .7-.4 1.1-.4.5-2 1.7-4.1 2.3-2.1.5-2.3.5-3 2.2-.7 1.7 1.1 3 4.9 3.1 3.8.1 8.8-1.4 10.4-2.3 1.6-.9 2.2-1.1 2.5-.8.2.3.2.5-.6 1.1-.8.6-3.4 2.4-4.6 2.7-1.3.4-1.4 1.3-1.4 2.2 0 .9-.3 2.6 3 3.5 3.3.8 7.3.2 10.9-2.3 1.2-.8 1.8-1.5 2.2-2.1-.3-3.4-.1-5.8.3-8-.7-.1-2-.3-3.4-.8-2-.8-2.8-2.7-3.3-3.7s-1.1-1-1.9-.7c-.8.3-1.6.6-2.8.6-1.2-.1-3.6-.7-5.3-2.8-1.8-2.1-1.4-4.1-1.5-5.1-.1-1-1.7-.3-2.5-.3s-3.2-.3-5.3-1.8c-2.1-1.5-2.1-3.5-2.3-4.3-.2-.8-1.1-1.3-1.8-1.6-.7-.3-1.7-.5-3.2-1.8-1.5-1.2-2-3.5-2.1-4.3 0-.8-.9-.9-3.9-2.4-3-1.6-2.8-4.8-2.6-6.1.1-1.2 1.5-2.3 1.5-2.8 0-.4-1-.6-2-1.2s-3.6-1.6-3.7-5.3c-.1-3.8 2.4-4.2 2.4-4.2s-.5-.2-1.5-.8c-1-.6-3.8-2.5-3.8-4.7s1-3.2 1.8-3.8 2.7-1.1 2.7-1.1-1.3-.8-1.8-2.6c-.6-1.7-.8-3.8.5-5.4s3.4-1.5 4.5-1.5 2.1.6 2.5.3c.4-.3.4-.6 0-1.4s-.5-3-.2-3.8c.4-.7.4-2.2 3.3-3.1 2.9-.9 5.9 1 6.9 1.5.9.5.5-.8.5-1.7 0-.9-2-3.3-4.2-6.6-2.2-3.4-3.2-5.1-5.7-10.2-2.4-5.1-4-11.7-4.4-13.4-.3-1.7-1-.9-1-.9s-.7.3-2.2 4.1c-1.5 3.9-1.8 7.4-1.7 10.5z" fill="#d4af3a"/>
  <path d="M276.53 241.38c-1.73-.1-3.96-1.03-5.7-3.54-1.7-2.5-4.3-3.1-8.78-3.02-4.48.1-6.55-2.07-7.67-5.18-1.12-3.1.17-6.65 4.74-8.9 4.57-2.24 6.64-4.74 6.8-8.62.18-3.9-4.56-8.72-9.3-14.16-4.74-5.44-8.45-13.12-8.45-13.12s-1.38 1.8-1.38 3.63c0 1.8.6 3.7 0 4.22-.7.5-1-.8-3.7-2-2.8-1.2-5-1.4-6.8.6-1.8 2 0 5.4 1.5 7.1 1.5 1.6 2.8 2.8 2.4 3.4-.4.6-2.8-1-3.5-1.5-.8-.5-2.6-2.5-5.3-2.3s-3.7 1-3.9 3.3c-.3 2.2 2.4 4.2 4.1 5.1 1.7.8 2.4 1.6 1.9 1.9-.5.3-.9 0-1.7-.3-.8-.3-3-.5-4.3 0-1.4.5-3.7 2.4-1.6 4.7s6.4 3.2 7.2 3.3c.8.1 1.3-.1 1.4.6.1.7-1.8.7-4.2.7-2.3.1-3 2.3-2.7 4.1.3 1.7 4.2 3.6 6.4 3.9 2.1.4 2.9 0 3.1.6.2.6-.3.9-1.5 1.2-1.2.4-3.5.6-4 2.5s-.6 2.8 1.3 4.4c1.8 1.6 4.7 1.4 5.6 1.2.8-.2 1.9-1.1 2.7-.3.9.8-.8 1.5-2.3 2.6-1.5 1-1.4 3 1.1 4.4s5 .8 6 .5c1-.4 2.4-2 3.1-1 .7 1-2.2 1.3-3.4 2.8-1.2 1.5-.8 3.9 1.6 5.3 2.4 1.4 6.4.4 7-.2.7-.6 1.5-.9 2-.3.6.5-.2 1.9-.7 3.1-.5 1.2-1.5 4.7 2.1 6.1s6.9-1.7 7.5-2.4c.6-.6 1.2-.7 1.7-.4.5.2.2.8-.2 1.4-.5.6-1.4 3.2 1.2 5 1.7 1.3 3.7 1.2 4.7 1 .5-2 1.2-4.2 1.9-7.2h-.5c-.3 0-.4.5-.4.7 0 .2.1.4-.2.4-.3 0-.3.1-.8.5-.4.3-.8.7-1.1.5-.2-.2 1-.8 1.3-1.2.3-.4.9-1 .9-1.4 0-.4.2-.7.8-1.2.2-.2.3-.4.4-.6.4-2 .8-4.4 1.2-7.3.3-1.9.4-3.8.5-5.5l-1.1-.1zm-73.66-53.8c3.85 7.78 9.28 12.17 9.28 12.17s-.7-1.94-1.03-3.27c-.3-1.33-.07-2.83-.07-2.83s-1.36-1.75-3.88-5.64c-2.52-3.8-3.85-9.6-3.85-9.6s2.34 5.8 4.16 8.8c1.83 3.1 3.93 5.5 3.93 5.5s.8-2.7 1.3-2.8c.5-.1.9.3 1.4.9.5.6.9.6.9.6s-.6-1.3-1.6-2.8c-.4-.7-1-1.4-1.5-2.1-1.4-2.2-4.5-6.6-6.1-10.9-1.6-4.3-5-15.1-5.6-18.3-.6-3.1-1.2-1.4-1.8.9-.6 2.4-1.4 5.7-.9 10.7.6 5 1.8 11.2 5.6 18.9zm4.97 21.02a135.86 135.86 0 0 0 3.55 2.5s-.4-.78-.6-1.72c-.2-.94-.3-2.87-.3-2.87l-2.9-2.5c-1.2-1-2.7-2.3-5.6-5.9s-.6-1.4 1.8 1.2 6.9 6.4 6.9 6.4v-.8a3.12 3.12 0 0 1 .7-1.9c.4-.5.2-.6-2.4-2.6-2.6-1.9-9.2-9.4-12-13.9-2.7-4.4-5.7-10.5-5.7-10.5s-1.5 8.9 4 18.8c5.4 9.9 10.8 13 12.2 14.1zm28.53 56.3c2.98-1.16 2.17-4.1 2.17-4.14 0-.05-1.83.58-3.5 1.2-1.7.63-5.82 1.83-7.46 1.88-1.63.05-1.63-.2-1.68-.43-.05-.2 1.25 0 3.6-.4 2.36-.4 6.5-2.6 7.2-3.1.73-.5.63-.6-.42-.6-1.06-.1-1.97-.6-2.36-.9-.38-.3-1.48.2-4.17.8-2.7.6-8.27 1.6-12.55 1.6-4.27 0-8.26-.7-8.93-.8-.68-.1-1.4.3.67 3.7 2.06 3.5 9.32 5.4 14.37 5.3 5.1 0 10.1-2.7 13.1-3.9zm-13.4-7.15c5.2.04 7.14-1.5 7.14-1.5s0-.27-.7-1.33-.5-2.87-.5-2.87-1.2.22-3.4.53c-2.1.3-4.6.62-7.4.13-2.8-.4-1.6-.7.6-.5s6.5-.5 7.8-1c1.4-.5.8-.9-.1-1.2-.9-.3-3.4-1.9-3.4-1.9s-6.3.8-12.1.2c-5.8-.6-9.5-2.1-10.7-2.3-1.2-.2-1.1.3-1.1.3s-.3.6 1.7 3.7c2.1 3.2 6 5.3 9.4 6.3 3.4 1 8 1.7 13.2 1.7zm-1.34-12.2s-.22-.3-.53-1.37c-.3-1.06.57-1.86.57-1.86s-1.2-.35-5.07-.84c-3.88-.48-4.1-.8-6.48-1.32-2.4-.53-3.97-1.24-3.93-1.5 0-.27.7.13 2.2.66 1.4.53 7.3 1.15 9.8 1.5 2.5.35 3.9.62 4.3.35.4-.26 2-.66 2-.66s-1.1-.3-2.4-.5c-1.3-.2-2.5-.8-3.2-1.3-.7-.5-1-.6-4.1-.9-3.2-.3-5.8-1.3-11.4-3.4-5.7-2-10-4.5-11.2-5.4-1.2-.9-1.1-.2-.8 1 .3 1.2.3 2.7 3.1 6.1 2.9 3.4 4.3 4.9 11.5 7.5 7.2 2.7 15.3 2.3 15.3 2.3zm-21.4-17.63c6.4 4.5 13.9 6.17 15.5 6.37.35-.5-.4-2-.05-2.9.4-1.1 1.1-1.1 2.64-1.2 1.55-.1.53-.4.18-.4-.35 0-.44-.1-3-.7-2.56-.7-5.16-1.1-8.7-2.4-3.52-1.3-4.57-2.3-4.5-2.6.1-.3 1.65.8 4.9 2.1 3.28 1.2 7.07 1.7 9.14 2.1 2.07.4.27-.5-.7-1-.98-.6-2.34-2.7-2.34-2.7s-2.3-.4-6.05-1.6-6.88-2.5-10-4.2c-1.08-.6-2.12-1.4-3.25-2.2l-5.14-3.8c-1.28-1-.88-.2-.75.4s1.1 3.2 3.1 6.1c2.1 2.9 2.7 3.8 9.1 8.3zm-1.04-12.67c6.3 5 11.7 6.54 12.6 6.93.9.4.8-.13.6-.66-.2-.53-.3-2.25-.3-2.25s-2.3-1.28-4.8-2.74c-2.5-1.46-5.3-3.44-7.2-4.72-1.9-1.2-.8-1.2-.2-.7.6.5 3.1 2 5.7 3.6 2.5 1.6 6.4 3.9 6.4 3.9s.1-.8.6-1.3 1.8-.4 1.8-.4-.7-.6-1.1-1.2-2.5-1.3-4.8-2.4c-2.4-1.1-6.6-4.2-9.6-6.8-3.1-2.6-9.1-9.1-9.5-9.6-.4-.5-.7-.4-.7.2-.1.7-.3 1.1.4 4.1.6 3.1 3.4 9.3 9.7 14.3zm22.3-47.2c.7 1.48 1.5 2.6 2 3.57l1.3 2.4s.1-.5 0-1.4c-.2-.86-.3-2.08-.1-3.53.1-.8.3-1.6.2-2.3-.1-.8-.3-1.5-.4-1.9-.2-.9-1.1-4.6-1.6-7.2-.5-2.6-.9-6.3-.9-9.6s.5-1.6.5 0 .2 4 .7 7.7 2.1 9.4 2.1 9.4.1-.9.6-2.1c.4-1.3 1.2-2.7 1.8-4.3.6-1.6.4-1.8.4-1.8s-2.2-10.6-2.8-15.6c-.6-5-1.5-18.2-1.5-18.2-3.3 3.2-5.7 11.8-6.1 19.9-.3 6.1.6 11.7.9 14 .5 4.5 1.3 8 2.5 10.5zm-7.2 16.72c.1-2.4.6-4.22 2.2-4.75 0 0-1.4-2.4-2.6-5.82-.8-2.35-1.5-5.35-1.9-7.66-.9-5.68-1.5-11.53.1-1.95 1.7 9.5 3.7 12.9 3.7 12.9l2.4 4c-.4-1.8-.4-3-.4-4.9.1-1.9.3-4.5.9-6.6 0 0-3-6-4.9-13.1-1.9-7.1-2.9-13.6-3-17.5l-.2-5.2s-3.1 2.3-4.1 13.9c-1.1 11.6 2 22.7 3.5 26.9 1.5 4.2 3.8 9.5 3.8 9.5zm33.2 88.6s-.5-.35-2-1.26c-1.5-.9-1-3.6-1-3.6s-.4.3-1.5 1c-1.1.8-2.3 1.6-3.7 2.2-1.5.6-2.2 1-3.1 1.3-.9.3-.7-.1.1-.5.7-.4 1-.6 2.9-1.4 1.9-.7 5.7-4.1 5.7-4.1s-.9-.1-2.5-.1-3.6-.8-3.6-.8-1.6 1.5-8 4.2c-6.4 2.8-11.9 3.5-11.9 3.5s.7 3.3 3.8 4.4c2.5 1.1 6 1.8 12.9.2 6.8-1.6 11.5-4.5 11.5-4.5zm8.4 6.55c.5-2.7-1-4.58-1-4.58s-.4.2-1.3 1.06c-1 .87-2.4 2.5-5.1 3.85-2.7 1.34-3.7 1.25-1.1-.15s6.4-5.34 6.4-5.34l-1-.38c-1.1-.4-2.8.28-10 4.6-7.2 4.35-11.5 4.5-11.5 4.5s3.2 3.9 11.9 3.6c8.7-.28 11.9-4.47 12.4-7.16zm16.5-3.14s-1 1.34-2.3 2.2c-1.3.88-4.8 1.4-4.8 1.4s-.2.4-.9 1.26c-.7.87-2.2 2.94-3.7 4.04-1.6 1.1-4 1.83-4.1 1.54-.2-.3 1.4-.86 2.9-1.78 1.5-.9 2.8-2.6 3.8-3.75 1-1.2-.5-1-.5-1s-1.9 0-3.5-.1c-1.7-.2-1.4 0-1.8.8s-1.2 1.5-2.4 3c-1.6 1.7-3 3.3-4.5 5.1-1 1.1-.3 1.5-.3 1.5s.4.7 4.3 1.1c2.4.2 5-.1 7.7-1.6 1.7-1 3.4-2.6 5.2-4.5 4.6-5.1 4.4-9.3 4.4-9.3zm2 10.53c-1 1.3-1.5 1.8-1.5 1.8s.7-2 1.2-3c.3-.5.6-1 .9-1.3-.7-1.4-1.2-3-1.6-4.7-.5 1.4-1.8 5.5-3.4 8.1-2.1 3.2-3.8 4.4-2.7 5.3 1.1.9 3.4 1.1 6-.2 2.4-1.2 3.1-3.3 3.5-5a24.77 24.77 0 0 1-1.2-2.1c-.3.2-.8.6-1.3 1.3z" fill="#d4af3a"/>
  <ellipse rx="1.79" ry="1.64" cy="158.63" cx="274.01" fill="#d4af3a"/>
  <path d="M270.25 155.53c1.63-.03 2.5-.8 4.3-.63 2.13.2 5 1.44 8.5 3.3 2.74 1.24 6.35 1.86 9.83.86.98-.28 1.94-.82 2.87-1.34 4.25-2.4 3.22-7.16 3.22-7.16-3.14 2.27-7 3.48-10.63 3.24 0 0 .28.2.9.82.6.62 1.74 1.34 1.37 1.66-.3.3-1.9-1.18-3.2-2.14-1.3-.96-3.2-2.27-6.5-3.23-3.3-.9-7-1-9.5.4-2.4 1.4-2.6 3.1-2.3 3.8.2.4.7.5 1.2.5zm46.2 34.67c-.74-.2-2.05-.4-3.76-2-1.8-1.58-5.9-6.12-6.4-6.94-.5-.83-.3-1.6.9-2.07 1.1-.5 2-2 2-2s-2.6-1-4.3-2.2c-1.7-1.3-5.7-4.9-6.3-5.8-.6-.9-.3-1.1.5-1.3.8-.3 1-.9 1-.9s-1.9-1.2-3.6-2.6c-1.7-1.4-4.1-3.7-4.1-3.7-2.6 1-6.6.6-8.8.2-3.8-.7-6.7-2.3-6.7-2.3l-.6 1.8c-.5 1.1-2.3 1.8-4.1.6-1.8-1.2-1.4-3.7-1.4-3.7s-1.4-.9-4.4-2c-2.9-1.1-5.3-1.2-7.7-.1-2.4 1.1-3.6 4.4-3.6 6.8 0 2.5 1.3 1.5 1.6 1.1.3-.3.8-2.1 3.8-2.6s5.8 1 9.2 3.8c3.4 2.8 4.2 3 5.9 4.8 1.7 1.8.3 2.7-2.6 3.7s-6.7-1-6.9-.9c-.5.3 1.3 2.9 3.8 3.9 2.6 1 5.8.4 8.4-.7 1.7-.7 2 0 2.6.5 2.8 2.9 3.5 5.6 3.9 9 1.4-.5 2.4-1.9 2.6-3.1.1-.6.3-1.8 1.2-.9.9.9 1.7 5.9 1.7 8.1s-.7 5.3-.7 5.3l.7-.1c.4-.1 1.2-.6 2.3-1.2 1.1-.7 1.2 0 1.2 1.3s.4 3.5 2.1 7.7c1.6 4.2 4 5.6 4 5.6s.5-.9.9-2.5.8-4.9.8-7.7-.8-8.9-.8-8.9 3.4 4.2 7 5.2 7.1.4 8.6-1.3c1.5-1.8.1-2.5-.6-2.7z" fill="#d4af3a"/>
  <path d="M293 201.06s-1.08 2.4-1.67 3.25c-.6.9-.86 1-.86 1s1.1.9 2.66 1.4c1.58.5 3 .8 3 .8s-1.78-2.4-2.4-4.1c-.63-1.7-.73-2.3-.73-2.3zm21.42-1.4a71.58 71.58 0 0 0-.85-2.1c-2.2.43-6.34-.6-8.15-1.7 0 0 1.65 3.36 3.3 4.5 1.63 1.16 1.86 1.23 1.86 1.23s-1.64.2-3.84-2-3.2-4.7-3.2-4.7.5 5.8-.38 9.3c-.9 3.5-1.1 4-1.1 4s4.67.8 9.86-.6c5.2-1.5 5.58-2 5.58-2s.63-.2-.2-1.3c-.8-1.1-2.36-3.6-2.88-4.9z" fill="#d4af3a"/>
  <path d="M305 186.96c-1.6-1.83-1.75-2.27-1.75-2.27s-.56.5-.1 1.3c.5.8 2.77 2.8 4.32 3.6a11.1 11.1 0 0 0 3.1 1.1l-.07-.3s-3.9-1.8-5.5-3.6zM298.67 199s-.4-7.26-.4-8.33-.68-.8-.68-.8l-.8.36 1.5 10.6c.1 1.16.7 1.06 1 1-.6-.3-.7-2.5-.7-2.83zm-9.8-31.42c-.6-.6-1.92-1.03-.64.4 1.3 1.43 2.97 3.2 3.46 4.7.4 1.47.7 3.3-.1 2.9-.9-.4-1.5-.4-2.3-1.14-.9-.74-2.6-1.97-3.3-2.17-.7-.2-1.9 0-1 1.1 1 1.07 2 2.1 3.9 3.5 1.8 1.38 2.9 1.97 3.9 2.66a36.88 36.88 0 0 0 2 1.28s-.9-5.9-2.6-8.5c-1.7-2.6-3-4.1-3.6-4.7zm-32 99.22c-1.2.92-2.78 1.3-2.78 1.3s-.8-.05-.8.24.8 0 1.8-.16c.9-.17 2.1-1.08 2.6-1.42.4-.33 1.1-.74.9-1.33-.2-.58-.6.46-1.8 1.37zm10.33 5.54c-.25.3-2.24 1.78-2.24 1.78s-.62.42-1.3.67c-.65.2-.82.6-.82.6s.13.1.83-.1 2.78-1.7 3.45-2.3c.66-.6.95-.8.7-1s-.37-.1-.62.2zm-41.9-74.44c.38.45.83 1.07 1.04.86.2-.2-.04-.4-.54-1-.5-.57-.78-.86-.78-.86s-.7-1.1-1.12-1.53c-.4-.4-1.03-.62-.24.33.78.96 1.28 1.74 1.65 2.2zm-3.18 6.97c.46.4.87.78 1.36 1.32.5.5.87 1.1 1.16.8.3-.3-.74-.9-1.2-1.5a7.5 7.5 0 0 0-1.4-1.4 9.96 9.96 0 0 0-1.28-.8s.9 1.1 1.37 1.5zm1.2 11.26c.78.83 1.94 1.08 2.1.75.17-.33-.08-.6-.74-.93-.66-.33-1.73-1.03-2.27-1.4-.5-.37-1-.8-1.4-1.16-.3-.4-.8-.7-.9-.6-.1.1 1.1 1.4 1.5 1.6.4.2 1.1.8 1.9 1.6zm2.27 9.02c0-.33 0-.5-.6-.54a26.86 26.86 0 0 1-1.6-.1s-1.3-.5-1.4-.2c-.1.3 1.1.8 1.6.9.5.1 1.1.3 1.4.4.3.2.5.1.5-.3zm.9 9.8c-1.4 0-2.6-.34-2.7-.13-.1.2.6.54 1.3.8.7.24 2 .32 2.9.36.9.04 1-.16 1-.62-.1-.46-1.3-.42-2.7-.42zm11 10.72c-.2-.2-.7-.04-1.5.12-.8.1-2.1.4-2.8.3l-2.4-.1-.9.2c0 .2 1.2.1 2.9.3 1.7.2 2.9-.2 3.7-.3.8-.1 1.1-.5.9-.7zm4.5 7.64c-.9.4-1.5.5-2.2.5-.7 0-2.2.3-2.2.3s-.8.1-.7.4c.1.3.4 0 1-.1h2.3l2.5-.4c.7-.1 1.5-.5 1.1-.9-.4-.4-1.2.1-2 .5zm8.9 5.8c-.5.5-2.4 1.8-2.4 1.8s-.4.3-1.2.7c-.8.4-.7.6-.6.8.1.2.5-.3 1-.4.4-.1 1.7-1.1 2.5-1.6.7-.5 1.6-1 1.4-1.4-.2-.4-.4-.1-.9.4zm-14.8-74.7s.1.4 1.7 2.3.7.1.3-.3c-.4-.5-2.7-3.6-3.4-4.5-.8-.8-.9-.4-.5.1l1.8 2.6zm-3.2 9.8c.2-.2-.3-.4-1.2-1.5l-2.7-3.3s-.5-1-.7-.9c-.2.1.6 1.8 1.3 2.5.7.7 1.6 2.1 2.1 2.7.5.6.8.8 1 .6zm4.2 18.5c0-.5-1.8-.4-2.5-.6l-2.2-.4s-1.7-.3-1.7-.1c-.1.2.3.4 1.2.6.9.2 2.2.6 3.3.8 1 .2 1.8.4 1.8-.1zm-4.2-10c1.2 1 1.9 1.4 2.5 1.7.6.4 1.1.8 1.4.5.3-.4-.3-.6-1.3-1.1-1-.4-1.5-.8-1.5-.8l-1-.5s-1.3-.6-.2.4zm9.9-6.5c-.7-.6-1.3-.9-1.3-.9s-.9-.8-1-.5c-.2.3 1 1.1 1.5 1.6s1.5 1.9 2 1.7-.5-1.1-1.2-1.7zm-6.5 25.7l-1.6.4c-.6.2-.7.5.4.5s1.6-.3 2.7-.5 1.5-.4 1.3-.7c-.2-.4-.8-.3-1.2-.1l-1.7.5zm1.7 9.3c-.1.2.7 0 1.3-.2.5-.2 1.8-.8 2.5-1 .7-.2.7-.4.7-.8s-.8-.1-1.7.2c-.9.3-2.1 1.2-2.1 1.2s-.8.4-.9.6zm11.9 5.7c.8-.5 1-.8.7-1.1-.3-.2-.5-.2-1.2.4l-2 1.4-1.1.5c-.5.3-1.1.7-1 .9.2.3 1.2 0 1.7-.4.5-.5 2-1.1 2.8-1.6zm5.7 7.5c.3-.3 1.3-.6 1.8-.9.4-.3.7-1.3.3-1.4-.4-.1-.6.4-1.4 1-.8.6-3.5 2.4-3.5 2.4l-.7.3c-.7.3-.4.5.2.4.6-.1 1-.1 1.8-.7.7-.5 1.1-.7 1.4-.9zm8.4 7.1c.7-.2 1.7-1.2 2.2-1.6.5-.4 1.1-1 .7-1.3-.4-.3-.8.1-1.4.6-.6.5-2.1 2.1-2.1 2.1s-.2.1-1.1.7c-.9.7 0 .6.3.3s.5-.4 1.2-.7z" fill="#b96b29"/>
  <path fill="#d4af3a" d="M295.22 143.5l3.15 1.38 3.38-2.4-3.98-1z"/>
  <ellipse rx="3.22" ry="3.1" cy="142.07" cx="309.17" fill="#b96b29"/>
  <ellipse cx="309.17" rx="1.94" cy="141.42" ry="1.85" fill="#d4af3a"/>
  <path d="M302.45 131.4c.83.32 1.9.18 1.9.18s.33-1.42-.46-2.12c-.8-.7-1.5-1.2-2-1.66-.5-.46-.6-.62-.6-.62s0 1.24-.1 2c-.1.78.3 1.92 1.1 2.23z" fill="#d4af3a"/>
  <ellipse cx="304.16" rx=".59" cy="132.97" ry=".56" fill="#d4af3a"/>
  <path d="M299.76 132.38c-.25.34-.78.9-.78.9s.65.02 1.2.4c.53.4 1.22.72 1.86.64.63-.08.9-.67.77-1.1-.1-.42-.4-.86-1.4-1.25-1-.38-1.3.06-1.5.4z" fill="#d4af3a"/>
  <path d="M302 136.13c-2 .18-4.68-2.05-4.68-2.05-.25 1.8-1.36 2.73-3.06 3.07l.16.08s1.58.8 3.45 1.1c.84.12 1.6-.03 2.5-.2 1.1-.23 2.33-.54 3-.95 1.2-.76.85-2.7.85-2.7s-.18 1.47-2.2 1.65zm-7.86-2.02c-.83-.3-2.08-.9-2.6-.9-.5 0-1.27-.1-1.14.8.13 1 1.12 1.5 2.08 1.5.96.1 1.45-.3 2.02-.6.57-.3.47-.4-.36-.7zm-6.33-3.4c-.9-.6-1.7-.8-1.7-.8s-.6 1.6-.2 2.5c.4 1 1.1 1.2 1.9 1.2.9 0 2.1-.4 1.8-1.1-.3-.6-.7-1.1-1.7-1.7z" fill="#d4af3a"/>
  <ellipse cx="288.63" rx=".7" cy="135.06" ry=".5" fill="#d4af3a"/>
  <path d="M290.57 127.3c-.56-2.66-.47-5.56 2.06-9.25 2.52-3.7 6.9-5.18 6.9-5.18s.15-.28 1.55-1.77c1.4-1.5 4.25-3.36 4.25-3.36s-3.3.8-5.2 1.4v.1c0 1.3-1 2.32-2.25 2.32-.48 0-.92-.15-1.3-.4-1 .2-4.4 2.22-5.28 2.94.22.36.35.77.35 1.22 0 1.28-1.02 2.3-2.27 2.3-.38 0-.73-.08-1.04-.25a9.6 9.6 0 0 0-.3.5 23.36 23.36 0 0 0-1.6 3.7c.57.4.95 1.16.95 2.02 0 1.2-.9 2.3-2 2.3-.1.7-.1 1.2-.1 1.5.1.7.4 1.2 1.7 1.5 1.3.3 3.1 2.6 3.1 2.6.1 0 1-1.7.3-4.4z" fill="#d4af3a"/>
  <path d="M298.6 110.26c.5-.4.57-.98.2-1.32-.38-.34-1.08-.3-1.55.1-.48.38-.56.97-.18 1.3.37.35 1.07.3 1.54-.08zm-8.45 5.7c.54-.47.63-1.2.2-1.64-.42-.43-1.2-.38-1.74.1-.5.5-.6 1.24-.2 1.67.5.4 1.2.3 1.8-.2z" fill="#d4af3a"/>
  <ellipse cx="285.11" rx="1.31" cy="123.16" ry="1.28" fill="#d4af3a"/>
  <path d="M313.3 105.03c-.67.14-1.92.55-3.8 1.54h.04c1.3 0 2.3.83 2.3 1.9.02 1.1-1.17 2.27-2.47 2.27-1.3 0-2.2-1.14-2.2-2.22 0-.25.06-.5.17-.72-.56.34-1.15.72-1.78 1.15-4.16 2.8-5.14 4.16-7.2 7.98-2.05 3.83-2.8 8.03-1.9 10.5.88 2.48 4.15 3 4.2 3 .04 0-.38-.38-.43-.84-.04-.5.1-.7.24-1.7.14-1 .04-2.1.04-2.1s.8-.1 1.2.4c.4.5 1.1 1.1 1.5 1.6.4.5 1.6 1.5 1.6 1.5s.7-1 .7-2.1-.7-2.4-.9-4.3c-.1-2 .9-5.5 2.8-8.1 1.9-2.6 5.5-4.9 6.6-5.4 1.1-.5 1.3-1.3 1.3-1.8.1-.5.2-.8.3-2 .1-1.2-1-1.1-2-.9z" fill="#d4af3a"/>
  <path d="M309.2 109.46c.72 0 1.4-.66 1.4-1.27 0-.7-.58-1.1-1.32-1.1-.73 0-1.33.5-1.33 1.1 0 .6.5 1.2 1.24 1.2zm6.17 24.4c1 .42 2.13.2 2.66-.16.53-.36.7-1.27.08-1.8-.6-.5-1.5-.5-2.1-.16-.6.32-1.9 1.24-1.9 1.24s.3.5 1.3.9z" fill="#d4af3a"/>
  <path d="M318.57 135c-.36.56-.62.9-1.74.94-1.1.05-2.32-.02-3.04-.75-.8-.8-1.3-1.8-1.3-1.8l-1.3-.1s-.4 1.7-1 2.2c-.6.5-2.5.5-3.4-.1-.9-.7-1.7-1.4-1.8-1.3-.2.1 0 .7.8 1.4s1.5 1.2 2.9 1.2h8s1.6.1 2.1-.9c.4-1 .5-1.6.3-1.9-.2-.2-.4.2-.8.7z" fill="#d4af3a"/>
  <path d="M306.44 133.65c1.2.66 1.86.26 2.3-.28.43-.53.5-.78.5-.78s-1.12-.4-1.67-.8c-.55-.3-.92-.7-1.47-.6-.55 0-.63.1-.63.1s-.23 1.5.97 2.2z" fill="#d4af3a"/>
  <ellipse cx="300.67" rx="2.66" cy="121.86" ry="2.64" fill="#b96b29"/>
  <path d="M305.3 112.72c-1.08-.72-2.64-.43-3.5.63-.88 1.08-.7 2.53.36 3.24 1.06.7 2.63.4 3.5-.7.86-1.1.7-2.5-.38-3.3z" fill="#b96b29"/>
  <ellipse cx="300.56" rx="1.55" cy="121.52" ry="1.47" fill="#d4af3a"/>
  <path d="M304.18 113c-.7-.18-1.54.16-1.9.76-.35.6.03 1.25.94 1.43 1.68.3 2.48-1.8.96-2.2zM263.5 319s-4.1 1.97-5.4 2.32c-1.3.36-1.6.36-1.6.36s-2.82 2.56-4.88 3.77c-2.16 1.27-4.64 2.2-7.12 2.46-3.2.4-12.04.3-16 .1-3.96-.1-6.42.9-8.13 2.8-1.7 1.9-2.1 4.7.06 6.8 2.15 2.1 4.56 1.1 5.36-.2.8-1.3.4-2.9 0-3.7s.7-1 1.8-1 2.9.1 4.6.4c1.7.3 4.7 1.3 6 2 1.3.7.5.8-.4.7s-1.9-.5-3.5-1.1c-1.6-.6-3-.9-4-.9s-.7.5-.5.9c.2.4.7 1.2.9 1.6.1.4-.3 1.9-.3 1.9l.5 1s.6-.9.8-1.4c.2-.5-.1-1.4.1-1.9.2-.4 1-.4 1.7.3.6.8 1.4 1.7 1.7 3.6.3 1.9-.3 3.3-.3 3.3s.8.7.9 1.1c.1.5-.2 2.3-.2 2.3s.5.4 1-.7c.5-1 1.1-2.9 1.2-3.5.1-.7.6-1.9 1.4-1 .8.9 1.3 2 1.5 2.6.1.6.1 1 .1 1s1.8-1.7 2.4-2.8c.6-1 1.8-2.5 3.6-3.9 1.7-1.4 4.6-4.2 6.1-5.1 1.4-1 5.1-3 6.3-3.7 1.1-.7 1.3-.8 1.5-2.7.2-2 1.1-3.7 1.6-5.1.4-1.4.5-1.9.5-1.9zm-65.76-73.72c-.04-.34-.7-1.5-.87-2.1-.17-.6-.77-.25-.77-.25s-1.3.74-2.28 1c-.97.28-1.1-.1-1.2-.6-.1-.5-.34-2.07-.5-3.18-.17-1.1-.4-1.04-.8-.87-.4.17-1.6.6-2.44.97-.84.37-.57.77-.3 1.24.26.4 1.23 2.4 1.66 3.1.44.7.04 1-.47 1.2-.5.2-1.23.3-2.24.6-1 .3-.93.5-.83.9.1.3.77 1.7 1.14 2.3.36.6.7.2.7.2s1.07-1 1.97-1.4c.9-.5 1-.3 1.2.3.3.6 1.3 4.2 1.5 4.8.2.6.6.6 1 .4.5-.2 1.1-.3 1.7-.5.6-.2.8-1.3.8-1.3s-1.9-3.6-2.5-4.5c-.5-.9 0-1.1.4-1.2.4-.1 1.6-.3 2.6-.5 1-.3.7-.8.7-1.2zm22.28 96.57c-.15-.86 0-1.7-.65-2.37-.65-.65-1.45-1.96-1.75-3-.3-1.07.25-1.57.15-2.18-.1-.6-.9-.6-1.7.06-.8.65-1.86 1.25-1.86 3.16 0 1.9.7 4.18 3.4 4.98 2.7.8 2.6.2 2.5-.64zm2.7-.92s-.55-.35-.8.16c-.25.5-.2.7.5 1.8s1.16 1.3 1.96 1.8.25-.5.15-.8c-.1-.3 0-.7-.2-1s-.3-.6-.3-1.4-1.3-.8-1.3-.8z" fill="#d4af3a"/>
  <path d="M225.98 350c.5-.76.95-.96 2.16-1.5 1.2-.57 3.4-.87 4.16-.92.75-.05 2.46-1.5 2.2-3.02-.25-1.5-1.35-2.1-2.3-2.3-.95-.22-1.8-.22-2.1.24-.3.45-.86 1.05-1.9 1.4s-1.22.7-1.87.9c-.65.2-.15.62-.7 1.07-.55.45-1.3 0-2.16-.25-.85-.26-.9-.4-1.85-.46l-3.46-.2s-.1-.05-.66-.05c-.55 0-.6.1-.85.8-.25.6.05 2.1.65 2.9.6.8 2.56 1.1 3.86 1.5 1.3.4 1.96.6 3.07.8 1.14.2 1.3 0 1.78-.7zm12.2 1.2c1.05-.7.45-1.92.2-2.67-.25-.76-1.7-.9-2.46-.9-.75 0-1.16 0-1.56.34-.4.35-.95.86-2.05 1.2-1.1.36-1.9.77-3.4 1.37-1.5.6-1.9 1.6-2.6 2-.6.42-1.9 0-1.9 0s-.9-.24-1.2 0c-.3.26 0 .77.6 1.42.6.66 1.8.6 3.1 1s1.6.1 2.1-.24c.5-.35.9-1.1 1.8-1.66.9-.56 2.9-.66 3.8-.76 1-.1 2.7-.4 3.8-1.1zm0-4.58c.45.4.95.96 1.35.3.4-.65 1.05-2 .6-2.8-.45-.82-1-1.52-1-1.52s-.75 2.3-1.1 2.9c-.34.63-.3.72.16 1.12zm-4.07-6.94c0-1.3-.9-2.92-.9-2.92s-.3 1.2-.8 2.26c-.5 1.06-1.1 1.6-1.1 1.6s1.3.36 1.8.36 1.1.02 1.1-1.3zm-7.5 2.77c1.4-.3 2.2-.85 2.8-1.36.6-.5 1-1.9.6-2.6-.4-.7-1.4-1.5-1.8-1.5h-.7s-.4 1.3-.9 1.9c-.5.6-1.2 1.1-1.1 1.9.1.8 0 1.7 1.4 1.4zm2.9-6.4c.1-.64-.2-1.35-.6-1.8l-.7-.75s-.1 1-.2 1.56l-.1.65s.4.4.8.6c.4.2 1 .5 1-.2zm-17.3-35.68l1-5.92c-.7-5.93-3.8-11.54-6.2-15.4-2.4-3.9-4.9-9.97-6.1-13.2-1.1-3.25-1.8-7.7-1.8-10 0-2.34 1-3.53 1-3.53s.5-.63.1-1.03-1-.1-1.7.5c-.6.6-1.3 1.8-1.5 2.6l-.2 1.1s-1.2-.3-3.2-.2c-2 .1-3 .3-3.1.7 0 .4.3.7 1.8 1.4 1.5.6 2.4.9 3.1 1.7.8.9 2.6 5.2 3.2 7.3.6 2.1 1.8 7.8 2.3 12.2.5 4.5 2 9.9 4.1 14.4.7 1.4 4.5 8.5 7.7 7.1zm3.7 10.44c-1.4.8-1.3 6.4-.7 9.3.6 2.9 3.5 6.6 4.3 7.5.9 1 1.1 1 1.6.7.5-.2.7-.2.7-.2s1.2-.4 2.2-1.1c1-.7.6-2.5.4-4.1-.1-1.6-1.3-4.7-3.6-8.4s-3.3-4.4-4.7-3.6zm1.5-4.5c0-1.8-1.6-3.2-3.4-3.2-.8 0-1.6.2-2.1.7-1.8 1.7-.7 5.9 2 5.9 1 0 2.1-.1 2.8-.8.7-.5.8-1.5.8-2.4zm26.5 52.7c-.7-.1-1.1-.4-2.2-1.1-1.1-.7-2.8-2.2-3.1-2.9-.3-.7-.3-.8-1.3-.4-1 .3-2.5.3-3.6.3-1.1.1.1 1.3.9 2.5s.5 5.1.5 5.1 0 .4-.1.9 0 1 .3 1.1c.3.2.5-.1 1.3-1s2.2-3.3 2.2-3.3l1.5.4c1.2.3 3.2.2 4.2-.1 1-.3.6-1.1-.2-1.2z" fill="#d4af3a"/>
  <path d="M239.2 362c-.5-.08-.72-.12-.98.22-.26.35-.47 1-.6 1.34-.13.34-.1.65.2.9.32.26.75.56.75.56s.43.48.86.7c.43.2.5-.44.5-.9 0-.5.27-1.35.27-1.9s-.45-.83-.97-.9z" fill="#d4af3a"/>
  <path d="M434.93 324.17c-1.26-.3-1.8-.78-1.8-.78s-.53-.1-.95.7c-.42.7-2.03 1.8-2.03 1.8s-2.28.6-2.58 2.1c-.3 1.5.78 2.1 1.86 1.9 1.08-.2 3.7-.7 4.84-2.1 1.14-1.4 1.32-2.2 1.56-2.7.2-.5.34-.7-.92-1zm3.52-12.4c-.8-3.45-3.05-7.73-7.35-9.87 0 0-1.62 5.7-2.1 7.48-.48 1.8-.48 1.74.9 2.1 1.37.35 5.8 1.3 6.7 1.55.9.24 2.4 1 1.86-1.27zm-20.5-3.22c1 .18.88-.24 1.24-1.6.3-1.4 2.1-8.2 2.1-8.2s-4.6-.2-8.5 1.72-5.7 5.45-5.7 5.45 1 .42 3.7 1.02c2.7.58 6 1.42 7 1.6zm-10.55 9.4c-1.6-.3-2.2-.5-2.2-.5s1 3.9 2.68 6.05c1.68 2.16 3.53 3.24 7 3.3 3.47.05 6.1-1.86 6.52-3.36.42-1.5 1.14-2.63 1.14-2.63s-6.28-.8-8.85-1.4c-2.7-.6-4.7-1.1-6.4-1.4z" fill="#1d5e91"/>
  <path d="M406.32 315.48c1.56.36 14.36 2.8 15.44 3.05 1.08.24 1.97.48 2.27.18.3-.3.48-.4 1.62-.9 1.14-.4 1.08-1.5 1.08-1.5s.3-1.1.4-2.1c.14-1 .73-1.4 2-.1 1.25 1.3 1.5 3.2 1.72 5.1.24 1.9 3.17 2.3 4.3 2.5 1.15.2 1.68-.2 2.34-1.2.6-1 1-3.2 1.2-4.6.1-1.4 0-1.2-1.4-1.6-1.5-.3-8.1-1.8-9.3-2.1-1.2-.3-1-1.1-.8-1.9.2-.8 2.8-9.3 2.8-9.3-1.9-1.1-4.5-1.8-7.7-2.2 0 0-1.9 8.6-2.3 10-.4 1.3-1.2 1.3-2.6 1.1-1.4-.2-11.3-2.5-11.3-2.5l-.8 1.8c-.8 1.9-1.2 4.1-1.2 5.2 0 1.2.4 1.1 1.9 1.5z" fill="#d4af3a"/>
  <path d="M440.3 323.26c-1.32-.86-2.3-1.1-2.98.52-.7 1.6-.74 3.96-2.46 5.62-1.72 1.67-4.13 3.4-6.53 3.22-2.4-.18-3.78-.75-3.2-3.5.56-2.76 4.23-3.62 5.1-5.05.85-1.43.62-3.1-.64-4.2-1.3-1.08-3.1-1.3-3.7-.96-.5.4-2 1.6-2.8 3.7-.8 2.1-1.2 3.8-2.8 5.1-1.6 1.3-5.8 2.7-9 1.9-3.2-.7-4.4-1.7-5.6-4.9-1.2-3.1-2.6-8.3-3.3-8.9-.7-.5-1.5-1-2.8 0-1.4 1-1.5 2.4-1.7 3.6-.2 1.2 0 2.5 1.3 4.1 1.4 1.7 2.8 3.3 3.3 5.1.5 1.7 2 4.4-.1 4.5-2.2.2-3.2.2-4.8-1.4-1.7-1.6-8.2-6-9.9-7.4-1.8-1.4-2.6-1.9-2.6-1.9-3 0-6-1.3-9-3.3 0 0 1.7 4.4 2 6.1.3 1.7.3 2.6.3 2.6s6.5 3.4 9.1 4.6c2.6 1.3 7.8 4.3 10.3 5.8 2.5 1.6 4.6 4 9.1 3.1 4.4-.9 13.5-3.6 16.4-4.5 2.9-.9 11-2.9 14-4.9 3-2 3.2-1.9 3.8-4 .5-2 0-3.2-1.3-4zm-17.24-30.88c.5-.07.7-.13 2.22-.33 1.53-.2.96 1.26.7 1.82-.27.57-.73 1.7-1.36 2.75-.63 1.07.2 1.23.63 1.4.43.17 1.06.23 2.28.56 1.23.33 1-.56 1.03-1.03.04-.46.1-2.88.23-3.74.1-.8.9-.6 1.2-.4.3.2 1 .6 1.7 1 .6.4.9 0 1-.4.1-.3.4-1 .7-2 .2-.9-.4-.7-1-.7h-2.5l-.4-1 1.3-2.1c.5-.9.3-1-.2-1.2-.6-.1-2.4-.5-2.9-.7-.5-.1-.8 0-.8.3s-.1 2.1-.1 2.7c0 .7 0 1.1-.9 1.1-.8.1-1.4-.4-2.1-1.2-.7-.7-1-.4-1-.1-.1.3-.6 2.5-.8 3.1-.2.6.1.6.6.5zm4.8 21.74s-.06 1.73-.24 2.33c-.18.6-.6 1.5.12 1.73.72.24 1.38.54 1.8.42.42-.12.24-.96 0-1.67-.24-.72-.6-1.62-1.14-2.22l-.52-.5zm10.53 6.93c.2.53.7.65 1 .77.3.12.8.12.8-.53s.1-1.5-.4-2.3c-.6-.7-.9-1.3-1.2-.2-.3 1-.6 1.6-.4 2.1zm-36.7-7c.3.06 1.4.42 1.4.42s0-1.67.2-2.8c.2-1.14.7-1.92.3-1.92-.4 0-.7.36-1 .83-.3.48-1.2.6-1.5 1.98-.3 1.36.1 1.42.4 1.48z" fill="#d4af3a"/>
  <circle cy="311.18" cx="408.9" r="2.33" fill="#b96b29"/>
  <circle cy="312.8" cx="415.48" r="2.39" fill="#b96b29"/>
  <circle cy="316.86" cx="434.63" r="2.39" fill="#b96b29"/>
  <circle cy="314.36" cx="422.06" r="2.39" fill="#b96b29"/>
  <circle cy="308.61" cx="423.8" r="2.39" fill="#b96b29"/>
  <circle cy="302.87" cx="425.48" r="2.39" fill="#b96b29"/>
  <circle cy="310.95" cx="409.07" r="1.17" fill="#d4af3a"/>
  <circle cy="312.56" cx="415.65" r="1.2" fill="#d4af3a"/>
  <circle cy="316.62" cx="434.81" r="1.2" fill="#d4af3a"/>
  <circle cy="314.12" cx="422.24" r="1.2" fill="#d4af3a"/>
  <circle cy="308.37" cx="423.98" r="1.2" fill="#d4af3a"/>
  <circle cy="302.63" cx="425.66" r="1.2" fill="#d4af3a"/>
  <path d="M349.53 359.1c-1.26-.8-2.36-1.67-5.22-3.57-2.8-1.9-3.9-4-3.9-4h1c.6 0 1.1-.77 1.1-1.53.1-.76 0-2.32-.2-4.14-.2-1.8.3-3.3.3-3.3s1.2 1.15 3.1 2.12c1.9.97 2.6.5 2.6.5l.5-1.85s.8 1.7 2 3.67c1.2 1.98 4.2 4.18 6.4 5.82 2.2 1.65 4.6 3.38 6.4 4 1.8.65.8 1.5.8 1.5s-1.8 1.8-6.4 2.65c-4.7.84-6.9-1.05-8.1-1.86z" fill="#d4af3a"/>
  <path d="M333.2 357.3c1.66-.17 2.66-.8 2.98-2.62.2-1.18-.08-5.7-.08-5.7s.54.47 1.17 1.23c.64.8 2.07 1 2.07 1s.2.7.84 1.7c.63 1 1.43 2.3 3.03 3.3 1.6 1 3.5 2.2 4.7 3.2 1.2 1.1 2.7 2.2 4.3 3.1 1.6.9 3.1 2.3 3.6 4.7.6 2.4.2 3.2-1.7 3-1.8-.1-2 .1-5-.7-3-.7-7.2-4.1-10.3-6-3.1-2-5.4-5.9-5.4-5.9z" fill="#d4af3a"/>
  <path d="M324.9 360.03s1.28-1.6 1.74-3.42c.46-1.8 1.34-5.4 1.34-5.4s.43 1.2 1.44 3.3c1 2.2 2.73 2.7 2.73 2.7s.1 1 1.5 2.8c1.45 1.9 3.55 3.5 5.7 4.8 2.14 1.3 4.92 3 6.43 5.2 1.52 2.2 1.64 4.4.93 5.4-.7 1-1.7-.1-3.1-.8-1.4-.7-5.5-1.3-11.1-4.4s-7.5-9.9-7.5-9.9zm-2.43 12.63c-1.56-2.32-1.8-7.97-1.8-7.97s.53-.4 1.3-1.1c.75-.7 2.22-2.9 2.22-2.9s.9 1.9 1.9 3.7c1 1.8 1.5 2.4 3.6 4.4 2.1 1.9 4.9 3.8 6.2 5.9 1.2 2 .5 6.2-.3 7.6-.8 1.4-2 .9-3.1-.2-1.2-1.2-1.6-1.5-3.7-3.2-2.1-1.8-5-4.1-6.5-6.4z" fill="#d4af3a"/>
  <path d="M340.98 325.33c-.83-1.7-1.77-3.74-2.52-4.78a14.9 14.9 0 0 1-1.3-2.23s2.02 1.83 2.8 3.13c.8 1.3 1.3 2.55 1.67 3.96.36 1.4.18 1.7-.65 0zm-8 1.44c-.32-1.1-.5-1.86-.5-1.86s-.33-1-.15-1.1c.18 0 1 .7 1.6 2.5.56 1.9 1.43 4.5 1.25 4.6-.18.1-1.87-2.9-2.2-4.1zm-6.3 5.08c-.36-.8-.36-.83-.36-.83s-.65-2.1-.65-2.52c0-.43.22-.94.76.14s.58 2.13.68 2.6c.2.46.8 2.08.6 2.23-.2.14-.6-.83-.9-1.62zm19.56 19.2l.85-.5s.5.66 1.2 1.42c.7.76 1.5 1.06 2 1.78a7.95 7.95 0 0 0 2.7 2.28c1.3.67 1.8.88 1.5 1.1-.3.2-1.2-.3-1.2-.3s-.4-.05-2-.97c-1.6-.93-2-1.44-3-2.32-1-.9-2.4-2.5-2.4-2.5zm-6.82 8.06c-.6-.6-1.22-1-.9-1.3.35-.3.77-.3 1.32.2s2.1 2 2.82 2.6c.7.7 1.3 1 2.02 1.6.7.6 2.27 1.4 3.03 1.8.8.5.1.5.1.5s-.6-.3-1.2-.5-2.4-1-2.4-1-.7-.3-1.7-1c-.9-.7-2.4-2-2.9-2.6zm-7.86 5.5c-.5-1 .04-.7.88-.4.84.4 2.74 2.4 3.83 3.2 1.1.8 2.02 1.1 2.94 1.5 1 .5 1 .7.9.9 0 .2-.4.2-.8.1l-1.7-.9-1-.2c-.5 0-1.2-.6-2.3-1.5-1.1-.9-2.1-1.5-2.6-2.5zm-3.66 7.2c1.4.9 3.78 2.8 4.42 4 .63 1.3 1.05 2.2.84 2.4-.2.2-.88-.2-1.18-.7-.3-.5-.93-1.2-.93-1.2s-2.4-2.3-3.28-2.9c-.88-.5-2.3-2.1-2.65-3-.33-.9-.08-1.4-.08-1.4s1.47 2.2 2.86 3z" fill="#b96b29"/>
  <path d="M364.96 169.92c1.28-.75 4.7-2.2 8.34-2.52 3.64-.3 6.45.24 9.47 1.06 2.17.58 3.92.67 5.65.2 2.6-.7 4.63-3.04 5.32-5.92 0 0 2.4 3.08-.06 6.42-1.18 1.6-2.72 2.62-4.28 2.93-5.1 1-10.1-2.1-14.35-2.4-4.08-.3-7.28 2.3-7.28 2.3s-.96.8-2.32 0c-1.36-.8-1.76-1.4-.5-2.2z" fill="#c52126"/>
  <path d="M379.65 317.5l1.2-.16s2.2-.6 2.66-.8c.5-.2 1.2-.26 1.6.24.5.5 4.2 2.67 4.2 2.67h-6c-2.1 0-3.5-1.96-3.5-1.96z" fill="#d4af3a"/>
  <path d="M362.56 316.45v-.6l.8-1.74s.96.6 1.88 1.6c1.18 1.3 2.45 3 3.02 3.7 1 1.3 2.42 2.5 1.2.5-1.2-2-1.6-2.9-2.57-4.3-1-1.3-1.7-2-1.6-2 .1-.1.9-.2 3.4-.5s4.1-1.3 5.3-2c1.1-.7 3.2-1.8 3.2-1.8s4.3 1.8 5.9 2.2c1.6.4 2.6.7 1 1.4-1.6.8-2.9 1-3.7 1.5-.8.5-3.2 1.3-4.7 1.3s-3.9 0-3 1.1c.9 1 2 3 3.1 5.9 1 3 1.1 5.6 1.1 6.9 0 1.3-.2 2.6-.2 2.6s-1.8-2-6.6-5-6.6-4-7.5-4.4c-.9-.4-1.4-.4-1.2-1.5.2-1.1.6-3.9.6-4.5z" fill="#d4af3a"/>
  <path d="M344.35 301.96a68.5 68.5 0 0 0 .9-.4l.2.08c.57.28 3.48 2.24 4.65 4.14 1.17 1.9 2.35 2.07 1.06 0-1.28-2.07-2.24-3.24-3.24-4.14a23.4 23.4 0 0 0-1.02-.85c2.34-1.2 4.88-2.5 7.34-4.3.32.6.93 1.7 1.62 2.5 1 1 3.25 1.9 3.25 1.9s-1.7-1.9-2.4-3.3c-.4-.9-.6-1.9-.7-2.5 1.7-1.4 3.4-2.9 4.8-4.6.3 1.2 1.3 4.1 4.2 7.3 3.8 4.2 11.3 6.3 11.3 6.3s2.7.2.5.8c-2.1.5-3.6 1.5-7.7.8s-4.4-.9-4.9-1.1c-.6-.2-2.1-.1 0 .7 2.1.8 6.9 1.5 8.7 1.3 1.9-.2 4.4-.6 1.8.8s-3.7 1.9-5.3 1.9-2.3.5-3.9.5-2-.3-3.1-.5-1.8.2-1.8.6c0 .5 1.6 1.7 1.5 4.8 0 3-.3 5.1-.5 6-.3.9-.9 2.3-1.4 3.2-.4.8-.6 1.6-1-.1-.4-1.8-1.4-4.4-1.8-6.1-.4-1.8-.6-1.8-.7-2.7-.2-.9-1.2-1.6-.7 0a133.43 133.43 0 0 1 1.3 5.1c.3 1.5 1.1 4.1-.2 2-1.4-2.1-6.4-7.8-7.2-8.8-.9-1-1.5-2-2.2-2.8-.6-.8-2.3-2-3.2-3.2-.7-1.1-2.9-3.3-3.9-4.1 1.5-.6 3-1.2 4.5-1.9zm69.54-129.1c-.2 3.07-3.6 8.96-5.5 12.1-2 3.17-2.5 4.44-2.2 4.64.3.2 1.1-1.4 2.2-2.8 1.1-1.42 3.1-4.7 4.9-7.18 1.7-2.48 4.3-8.38 4.6-8.92.3-.53.5-.87 1.3-.2.8.67 2.5 7.17.5 11.6-2 4.42-5 7.63-6.3 9.17-1.3 1.55-3 3.96-2.7 4.16.2.2.7-.4 2.3-2 1.5-1.62 4.1-4.37 5.7-6.38 1.4-1.63 3.2-4.94 3.8-6.13.2-.45.5-.33.8-.1.5.56 1.4 1.85 1 5.36-.6 4.9-3.1 7.7-5.4 10.2-2.3 2.47-4.5 4.54-4.2 4.88.3.34 2.7-1.74 4.3-3.28 1.6-1.54 5.5-5.36 6.4-6.44.9-1.07 2.1-.53 2.1 3.7-.1 4.2-4.8 8.5-6.7 10.85-2 2.3-4.4 3.7-4.2 4.2.2.4 2.1-.8 3.4-1.6 1.3-.9 6-4 6.9-4.7.9-.7 1.4.6.2 4.6-1.2 4-4.7 7.2-6.8 8.7-2.1 1.4-5.4 3.3-5.2 3.7.2.4 1.6-.2 3.5-1.1 1.9-1 4.3-1.8 5.9-2.3 1.7-.5 1.7.7 1.7.7s.3 3.4-2.2 6.1-5.3 3.8-8 4.3-3.1.6-3 1c.1.4.3.5.9.5s3.1.2 5.4.2 3.4.5 3.4 1.5 0 2.3-3.4 4.6-7.2 2.6-8.8 2.9c-1.6.3-1.7.4-1.3.9.3.4 1 .4 3.6.6 2.5.2 4.1 1.2 4.4 1.9.3.7-.2 2.7-2.3 4.1-2.1 1.4-4.7 1.8-8.8 1.6-4-.3-5-.4-5.1.3-.2.7 1.2.9 3.2 1.2 2 .3 3.5.3 4.7 1.3 1.1 1 .2 2.9-1.7 4.3s-6.8 1.4-8.8 1.3c-2-.1-5.1-.9-5.3-.3-.2.5 1.5 1.3 3.5 2.1 2.1.8 2.7 1.2 3.1 2.1.4.9.1 1.7-2.4 2.6-2.5.9-6.1.9-8 .1-1.9-.9-2.9-1.2-3.2-.9-.3.3 0 .7.4 1.1.4.5 2 1.7 4.1 2.3 2.1.5 2.3.5 3 2.2.7 1.7-1.2 3-4.9 3.1-3.8.1-8.8-1.4-10.4-2.3-1.6-.9-2.2-1.1-2.5-.8-.3.3-.2.5.6 1.1.8.6 3.3 2.4 4.6 2.7 1.3.4 1.4 1.3 1.4 2.2 0 .9.3 2.6-3 3.5-3.3.8-7.3.2-10.9-2.3-1.2-.8-1.8-1.5-2.2-2.1.3-3.4.1-5.8-.3-8 .7-.1 2.1-.3 3.4-.8 2-.8 2.8-2.7 3.3-3.7s1.2-1 2-.7 1.6.6 2.7.6c1.2-.1 3.6-.7 5.3-2.8 1.8-2.1 1.4-4.1 1.5-5.1.1-1 1.7-.3 2.5-.3s3.2-.3 5.3-1.8c2.2-1.5 2.2-3.5 2.4-4.3.2-.8 1.1-1.3 1.7-1.6.7-.3 1.8-.5 3.2-1.8 1.5-1.2 2.1-3.5 2.1-4.3.1-.8 1-.9 4-2.4 3-1.6 2.7-4.8 2.6-6.1-.1-1.2-1.5-2.3-1.5-2.8 0-.4 1-.6 2-1.2s3.5-1.6 3.6-5.3c0-3.8-2.4-4.2-2.4-4.2s.4-.2 1.4-.8c1-.6 3.8-2.5 3.8-4.7s-1-3.2-1.7-3.8c-.8-.6-2.8-1.1-2.8-1.1s1.3-.8 1.8-2.6c.6-1.7.8-3.8-.5-5.4-1.3-1.5-3.4-1.5-4.5-1.5s-2.1.6-2.5.3c-.4-.3-.5-.6-.1-1.4.4-.9.5-3 .1-3.8-.3-.7-.4-2.2-3.3-3.1-2.9-.9-5.9 1-6.8 1.5-.9.5-.5-.8-.5-1.7 0-.9 2-3.3 4.2-6.6 2.2-3.4 3.2-5.1 5.7-10.2 2.4-5.1 4-11.7 4.4-13.4.3-1.7 1-.9 1-.9s.6.3 2.2 4.1c1.5 3.9 1.8 7.4 1.6 10.5z" fill="#d4af3a"/>
  <path d="M363.42 241.38c1.72-.1 3.96-1.03 5.7-3.54 1.7-2.5 4.3-3.1 8.78-3.02 4.48.1 6.55-2.07 7.67-5.18 1.12-3.1-.17-6.65-4.74-8.9-4.57-2.24-6.64-4.74-6.8-8.62-.18-3.9 4.56-8.72 9.3-14.16 4.74-5.44 8.44-13.12 8.44-13.12s1.38 1.8 1.38 3.63c0 1.8-.7 3.7 0 4.22.7.5.95-.8 3.7-2 2.77-1.2 5-1.4 6.73.6 1.72 2 0 5.4-1.55 7.1-1.55 1.6-2.84 2.8-2.4 3.4.42.6 2.74-1 3.52-1.5.78-.5 2.6-2.5 5.26-2.3 2.7.2 3.7 1 3.9 3.3.3 2.2-2.4 4.2-4.1 5.1-1.7.8-2.4 1.6-2 1.9.5.3.9 0 1.7-.3.8-.3 3-.5 4.3 0 1.4.5 3.7 2.4 1.6 4.7-2 2.3-6.4 3.2-7.2 3.3-.8.1-1.3-.1-1.4.6-.1.7 1.8.7 4.2.7 2.4.1 3.1 2.3 2.7 4.1-.3 1.7-4.2 3.6-6.4 3.9-2.1.4-2.9 0-3.1.6-.1.6.3.9 1.5 1.2 1.2.4 3.6.6 4 2.5.5 1.9.5 2.8-1.3 4.4-1.8 1.6-4.7 1.4-5.6 1.2-.8-.2-1.9-1.1-2.7-.3-.8.8.8 1.5 2.3 2.6s1.4 3-1.1 4.4-5 .8-6.1.5c-1-.4-2.4-2-3.1-1-.7 1 2.2 1.3 3.4 2.8 1.2 1.5.8 3.9-1.6 5.3-2.4 1.4-6.4.4-7-.2-.7-.6-1.5-.9-2-.3-.5.5.3 1.9.8 3.1.6 1.2 1.5 4.7-2.1 6.1s-6.9-1.7-7.5-2.4c-.6-.6-1.2-.7-1.7-.4-.5.2-.2.8.2 1.4.5.6 1.4 3.2-1.2 5-1.7 1.3-3.7 1.2-4.7 1-.5-2-1.2-4.2-1.9-7.2h.6c.3 0 .4.5.4.7 0 .2-.1.4.2.4.3 0 .3.1.8.5.4.3.9.7 1.1.5.2-.2-.9-.8-1.2-1.2-.3-.4-.9-1-1-1.4 0-.4-.2-.7-.8-1.2a2.35 2.35 0 0 1-.4-.6 97.9 97.9 0 0 1-1.2-7.3 57.12 57.12 0 0 1-.4-5.5l1.1-.1zm73.66-53.8c-3.85 7.78-9.28 12.17-9.28 12.17s.7-1.94 1.03-3.27c.3-1.33.07-2.83.07-2.83s1.36-1.75 3.88-5.64c2.52-3.8 3.85-9.6 3.85-9.6s-2.34 5.8-4.16 8.8c-1.83 3.1-3.93 5.5-3.93 5.5s-.73-2.7-1.26-2.8c-.52-.1-.9.3-1.36.9-.46.6-.85.6-.85.6s.63-1.3 1.58-2.8c.44-.7 1.07-1.4 1.52-2.1 1.44-2.2 4.53-6.6 6.12-10.9 1.5-4.3 5-15.1 5.6-18.3.6-3.1 1.2-1.4 1.8.9.6 2.4 1.4 5.7.9 10.7-.6 5-1.8 11.2-5.6 18.9zm-4.98 21.02a135.86 135.86 0 0 1-3.55 2.5s.34-.78.55-1.72c.2-.94.3-2.87.3-2.87l2.87-2.5c1.17-1 2.65-2.3 5.58-5.9 2.92-3.6.57-1.4-1.8 1.2-2.4 2.6-6.95 6.4-6.95 6.4l-.03-.8a3.12 3.12 0 0 0-.7-1.9c-.42-.5-.2-.6 2.37-2.6 2.57-1.9 9.22-9.4 11.94-13.9 2.72-4.4 5.66-10.5 5.66-10.5s1.43 8.9-4 18.8c-5.44 9.9-10.8 13-12.24 14.1zm-28.53 56.3c-2.98-1.16-2.16-4.1-2.16-4.14 0-.05 1.9.58 3.6 1.2 1.7.63 5.8 1.83 7.5 1.88 1.7.05 1.7-.2 1.7-.43.1-.2-1.2 0-3.6-.4-2.3-.4-6.5-2.6-7.2-3.1-.7-.5-.6-.6.5-.6 1.1-.1 2-.6 2.4-.9.4-.3 1.5.2 4.2.8 2.7.6 8.3 1.6 12.6 1.6s8.3-.7 9-.8c.7-.1 1.4.3-.7 3.7-2 3.5-9.3 5.4-14.3 5.3-5 0-10.1-2.7-13.1-3.9zm13.4-7.15c-5.2.04-7.13-1.5-7.13-1.5s0-.27.7-1.33.57-2.87.57-2.87 1.3.22 3.4.53c2.2.3 4.7.62 7.5.13 2.8-.4 1.6-.7-.6-.5s-6.4-.5-7.8-1c-1.3-.5-.8-.9.1-1.2 1-.3 3.5-1.9 3.5-1.9s6.3.8 12.2.2c5.9-.6 9.6-2.1 10.8-2.3 1.2-.2 1.2.3 1.2.3s.3.6-1.7 3.7c-2 3.2-6 5.3-9.3 6.3-3.3 1-7.9 1.7-13.1 1.7zm1.35-12.2s.22-.3.53-1.37c.3-1.06-.58-1.86-.58-1.86s1.2-.35 5.08-.84c3.88-.48 4.1-.8 6.48-1.32 2.38-.53 3.97-1.24 3.93-1.5-.05-.27-.8.13-2.2.66-1.42.53-7.37 1.15-9.9 1.5-2.5.35-3.9.62-4.35.35-.4-.26-1.9-.66-1.9-.66s1.1-.3 2.4-.5c1.4-.2 2.6-.8 3.3-1.3.7-.5 1-.6 4.1-.9 3.2-.3 5.8-1.3 11.5-3.4 5.7-2 10-4.5 11.1-5.4 1.2-.9 1.1-.2.8 1-.3 1.2-.2 2.7-3.1 6.1-2.8 3.4-4.2 4.9-11.5 7.5-7.2 2.7-15.3 2.3-15.3 2.3zm21.4-17.63c-6.4 4.5-13.9 6.17-15.5 6.37-.35-.5.4-2 .05-2.9-.4-1.1-1.1-1.1-2.65-1.2-1.54-.1-.52-.4-.17-.4s.44-.1 3-.7c2.56-.7 5.16-1.1 8.7-2.4 3.52-1.3 4.57-2.3 4.5-2.6-.1-.3-1.65.8-4.9 2.1-3.28 1.2-7.07 1.7-9.14 2.1-2 .4-.2-.5.7-1 1-.6 2.4-2.7 2.4-2.7s2.3-.4 6.1-1.6c3.8-1.2 6.9-2.5 10-4.2 1.1-.6 2.2-1.4 3.3-2.2l5.2-3.8c1.3-1 .9-.2.8.4s-1 3.2-3 6.1c-2 2.9-2.7 3.8-9.1 8.3zm1.04-12.67c-6.3 5-11.73 6.54-12.66 6.93-.93.4-.84-.13-.66-.66.17-.53.3-2.25.3-2.25s2.26-1.28 4.77-2.74c2.6-1.46 5.3-3.44 7.2-4.72 1.9-1.2.8-1.2.2-.7-.5.5-3.1 2-5.7 3.6s-6.4 3.9-6.4 3.9-.1-.8-.6-1.3-1.8-.4-1.8-.4.7-.6 1.1-1.2c.4-.6 2.5-1.3 4.8-2.4 2.4-1.1 6.6-4.2 9.7-6.8 3.1-2.6 9.1-9.1 9.5-9.6.4-.5.7-.4.7.2.1.7.3 1.1-.4 4.1-.6 3.1-3.4 9.3-9.7 14.3zm-22.32-47.2c-.72 1.48-1.5 2.6-2.06 3.57-.86 1.46-1.34 2.4-1.34 2.4s-.17-.5-.03-1.4c.2-.86.3-2.08.1-3.53-.1-.8-.3-1.6-.2-2.3.1-.8.3-1.5.4-1.9.2-.9 1.2-4.6 1.6-7.2.5-2.6.9-6.3.9-9.6s-.5-1.6-.5 0-.1 4-.6 7.7-2.1 9.4-2.1 9.4-.1-.9-.6-2.1c-.5-1.3-1.2-2.7-1.8-4.3-.6-1.6-.4-1.8-.4-1.8s2.2-10.6 2.8-15.6c.6-5 1.5-18.2 1.5-18.2 3.3 3.2 5.7 11.8 6.1 19.9.3 6.1-.7 11.7-.9 14-.5 4.5-1.3 8-2.5 10.5zm7.18 16.72c-.1-2.4-.65-4.22-2.2-4.75 0 0 1.37-2.4 2.57-5.82.8-2.35 1.4-5.35 1.8-7.66.8-5.68 1.5-11.53-.2-1.95-1.7 9.5-3.8 12.9-3.8 12.9l-2.5 4c.3-1.8.4-3 .3-4.9-.1-1.9-.4-4.5-1-6.6 0 0 2.9-6 4.8-13.1 1.8-7.1 2.9-13.6 2.9-17.5l.3-5.2s3 2.3 4 13.9c1 11.6-2.1 22.7-3.6 26.9-1.5 4.2-3.8 9.5-3.8 9.5zm-33.24 88.6s.48-.35 1.92-1.26c1.45-.9 1-3.6 1-3.6s.4.3 1.46 1c1.05.8 2.25 1.6 3.7 2.2 1.44.6 2.16 1 3.07 1.3.9.3.67-.1-.1-.5-.76-.4-1-.6-2.93-1.4-1.92-.7-5.76-4.1-5.76-4.1s.9-.1 2.5-.1c1.58 0 3.6-.8 3.6-.8s1.58 1.5 7.98 4.2c6.4 2.8 11.82 3.5 11.82 3.5s-.68 3.3-3.75 4.4c-2.6 1.1-6.1 1.8-13 .2s-11.6-4.5-11.6-4.5zm-8.4 6.55c-.54-2.7 1-4.58 1-4.58s.33.2 1.3 1.06c.96.87 2.35 2.5 5.04 3.85 2.7 1.34 3.65 1.25 1.06-.15-2.6-1.4-6.4-5.34-6.4-5.34l1-.38c1.02-.4 2.75.28 9.96 4.6 7.2 4.35 11.44 4.5 11.44 4.5s-3.22 3.9-11.97 3.6c-8.7-.28-11.9-4.47-12.4-7.16zm-16.54-3.14s.96 1.34 2.26 2.2c1.3.88 4.75 1.4 4.75 1.4s.15.4.82 1.26c.67.87 2.16 2.94 3.7 4.04s3.94 1.83 4.08 1.54c.15-.3-1.4-.86-2.88-1.78-1.5-.9-2.83-2.6-3.84-3.75-1-1.2.43-1 .43-1s1.82 0 3.5-.1c1.7-.2 1.35 0 1.83.8s1.1 1.5 2.4 3c1.5 1.7 2.9 3.3 4.4 5.1.9 1.1.2 1.5.2 1.5s-.5.7-4.4 1.1c-2.4.2-5-.1-7.8-1.6-1.7-1-3.5-2.6-5.3-4.5-4.7-5.1-4.5-9.3-4.5-9.3zm-2.07 10.53c.96 1.3 1.5 1.8 1.5 1.8s-.68-2-1.26-3c-.3-.5-.6-1-.8-1.3.7-1.4 1.2-3 1.6-4.7.5 1.4 1.8 5.5 3.4 8.1 2.1 3.2 3.8 4.4 2.7 5.3-1.1.9-3.4 1.1-5.9-.2-2.5-1.2-3.2-3.3-3.5-5a24.77 24.77 0 0 0 1.2-2.1c.3.2.8.6 1.3 1.3z" fill="#d4af3a"/>
  <ellipse cx="-365.94" cy="158.63" ry="1.64" rx="1.79" transform="scale(-1 1)" fill="#d4af3a"/>
  <path d="M369.7 155.53c-1.63-.03-2.5-.8-4.3-.63-2.13.2-5 1.44-8.5 3.3-2.75 1.24-6.36 1.86-9.83.86-.98-.28-1.94-.82-2.87-1.34-4.25-2.4-3.23-7.16-3.23-7.16 3.14 2.27 7.02 3.48 10.64 3.24l-.9.82c-.6.62-1.7 1.34-1.3 1.66.4.3 1.9-1.18 3.3-2.14 1.3-.96 3.2-2.27 6.5-3.23 3.3-.9 7-1 9.5.4s2.7 3.1 2.4 3.8c-.2.4-.6.5-1.2.5zm-46.2 34.67c.74-.2 2.04-.4 3.76-2 1.72-1.58 5.83-6.12 6.3-6.94.5-.83.3-1.6-.88-2.07-1.17-.5-2-2-2-2s2.55-1 4.26-2.2c1.72-1.3 5.7-4.9 6.24-5.8.55-.9.28-1.1-.54-1.3-.83-.3-1.03-.9-1.03-.9s1.9-1.2 3.6-2.6c1.7-1.4 4.1-3.7 4.1-3.7 2.6 1 6.6.6 8.8.2 3.9-.7 6.7-2.3 6.7-2.3l.6 1.8c.5 1.1 2.3 1.8 4.1.6 1.8-1.2 1.4-3.7 1.4-3.7s1.5-.9 4.4-2 5.4-1.2 7.8-.1c2.4 1.1 3.6 4.4 3.6 6.8 0 2.5-1.3 1.5-1.5 1.1-.3-.3-.8-2.1-3.8-2.6s-5.7 1-9.2 3.8c-3.4 2.8-4.1 3-5.8 4.8-1.7 1.8-.3 2.7 2.6 3.7 3 1 6.7-1 6.9-.9.6.3-1.2 2.9-3.8 3.9-2.5 1-5.8.4-8.3-.7-1.7-.7-2 0-2.5.5-2.8 2.9-3.5 5.6-4 9-1.4-.5-2.4-1.9-2.6-3.1-.1-.6-.3-1.8-1.2-.9s-1.7 5.9-1.7 8.1.7 5.3.7 5.3l-.7-.1c-.4-.1-1.2-.6-2.3-1.2-1.1-.7-1.1 0-1.1 1.3s-.4 3.5-2 7.7-4.1 5.6-4.1 5.6-.5-.9-.9-2.5-.8-4.9-.8-7.7.8-8.9.8-8.9-3.4 4.2-7 5.2c-3.5 1-7.1.4-8.6-1.3-1.5-1.8-.1-2.5.6-2.7z" fill="#d4af3a"/>
  <path d="M346.95 201.06s1.08 2.4 1.67 3.25c.6.9.86 1 .86 1s-1.1.9-2.66 1.4a35.45 35.45 0 0 1-3 .8s1.78-2.4 2.4-4.1c.63-1.7.73-2.3.73-2.3zm-21.42-1.4a71.58 71.58 0 0 1 .85-2.1c2.2.43 6.34-.6 8.15-1.7 0 0-1.65 3.36-3.3 4.5-1.63 1.16-1.86 1.23-1.86 1.23s1.64.2 3.84-2 3.2-4.7 3.2-4.7-.5 5.8.4 9.3c.9 3.5 1.1 4 1.1 4s-4.6.8-9.8-.6c-5.2-1.5-5.6-2-5.6-2s-.6-.2.2-1.3 2.4-3.6 2.9-4.9z" fill="#d4af3a"/>
  <path d="M334.95 186.96c1.6-1.83 1.75-2.27 1.75-2.27s.56.5.08 1.3c-.47.8-2.75 2.8-4.3 3.6-1.56.9-3.1 1.1-3.1 1.1l.06-.3s3.9-1.8 5.5-3.6zm6.33 12.04s.4-7.26.4-8.33.67-.8.67-.8l.8.36-1.56 10.6c-.2 1.16-.8 1.06-1.1 1 .5-.3.7-2.5.7-2.83zm9.8-31.42c.6-.6 1.92-1.03.63.4-1.2 1.43-2.9 3.2-3.4 4.7-.5 1.47-.8 3.3.1 2.9.9-.4 1.5-.4 2.4-1.14.9-.74 2.6-1.97 3.3-2.17.7-.2 1.9 0 1 1.1-1 1.07-2 2.1-3.9 3.5-1.8 1.38-2.9 1.97-3.9 2.66a36.88 36.88 0 0 1-2 1.28s.9-5.9 2.5-8.5c1.7-2.6 3-4.1 3.6-4.7zm32 99.22c1.2.92 2.78 1.3 2.78 1.3s.75-.05.75.24-.8 0-1.7-.16c-.9-.17-2.1-1.08-2.6-1.42-.4-.33-1.1-.74-.9-1.33.2-.58.6.46 1.8 1.37zm-10.33 5.54c.25.3 2.24 1.78 2.24 1.78s.6.42 1.2.67c.6.2.8.6.8.6s-.2.1-.9-.1-2.8-1.7-3.5-2.3c-.7-.6-1-.8-.7-1 .2-.3.3-.1.6.2zm41.9-74.44c-.38.45-.83 1.07-1.04.86-.2-.2.1-.4.6-1l.8-.86s.7-1.1 1.1-1.53c.4-.4 1.1-.62.3.33-.8.96-1.3 1.74-1.6 2.2zm3.17 6.97c-.45.4-.86.78-1.36 1.32-.5.5-.86 1.1-1.15.8-.2-.3.8-.9 1.2-1.5.5-.6.9-1 1.4-1.4a9.96 9.96 0 0 1 1.3-.8s-.9 1.1-1.3 1.5zm-1.18 11.26c-.8.83-1.95 1.08-2.12.75-.16-.33.1-.6.75-.93.66-.33 1.73-1.03 2.27-1.4.53-.37 1.07-.8 1.44-1.16.37-.4.8-.7.95-.6.14.1-1.1 1.4-1.47 1.6-.37.2-1.03.8-1.82 1.6zm-2.28 9.02c0-.33-.08-.5.58-.54.66 0 1.58-.1 1.58-.1s1.28-.5 1.37-.2c0 .3-1.1.8-1.6.9-.5.1-1.1.3-1.4.4-.3.2-.6.1-.6-.3zm-1 9.8c1.42 0 2.62-.34 2.7-.13.1.2-.66.54-1.37.8-.7.24-2.1.32-3 .36-.9.04-1.1-.16-1.1-.62 0-.46 1.2-.42 2.6-.42zm-11.03 10.72c.2-.2.7-.04 1.5.12.78.1 2.07.4 2.8.3l2.37-.1 1 .2c0 .2-1.2.1-2.96.3-1.74.2-2.9-.2-3.73-.3-.8-.1-1.1-.5-.9-.7zm-4.56 7.64c.87.4 1.5.5 2.15.5.67 0 2.24.3 2.24.3s.75.1.63.4c-.2.3-.4 0-1.1-.1h-2.3l-2.6-.4c-.7-.1-1.5-.5-1.2-.9.3-.4 1.1.1 2 .5zm-8.88 5.8c.5.5 2.4 1.8 2.4 1.8s.3.3 1.1.7c.7.4.7.6.6.8-.2.2-.6-.3-1-.4-.4-.1-1.8-1.1-2.5-1.6s-1.6-1-1.5-1.4c.1-.4.3-.1.8.4zm14.7-74.7s-.2.4-1.7 2.3c-1.6 1.9-.7.1-.3-.4.4-.5 2.6-3.6 3.4-4.5.7-.8.8-.4.5.1-.4.6-1.9 2.6-1.9 2.6zm3.2 9.9c-.3-.2.2-.4 1.1-1.5l2.6-3.3s.5-1 .6-.9c.1.1-.6 1.8-1.3 2.5-.8.7-1.7 2.1-2.2 2.7-.5.6-.8.9-1 .7zm-4.3 18.5c0-.5 1.7-.4 2.5-.6l2.2-.4s1.6-.3 1.6-.1c0 .2-.3.4-1.2.6-.9.2-2.3.6-3.3.8-1.1.2-1.9.4-1.9-.1zm4.2-9.9c-1.2 1-2 1.4-2.6 1.7-.6.4-1.1.8-1.5.5-.3-.4.3-.6 1.3-1.1 1-.4 1.4-.8 1.4-.8s.5-.2 1-.5c.5-.2 1.3-.6.1.4zm-9.9-6.5c.7-.6 1.3-.9 1.3-.9s.9-.8 1-.5c.1.3-1 1.1-1.6 1.6s-1.5 1.9-2 1.7.5-1.1 1.2-1.7zm6.4 25.7l1.6.4c.6.2.6.5-.5.5s-1.6-.3-2.7-.5-1.5-.3-1.3-.7c.1-.4.7-.2 1.2-.1l1.7.5zm-1.7 9.3c.1.2-.8 0-1.4-.2-.6-.2-1.8-.8-2.5-1-.7-.2-.7-.3-.7-.7 0-.4.7-.1 1.6.2.9.3 2 1.2 2 1.2s.7.4.8.6zm-12 5.7c-.8-.5-1-.8-.7-1.1.3-.2.5-.2 1.2.4l1.9 1.5 1.1.5c.5.3 1.1.7.9.9-.2.3-1.2 0-1.8-.4-.6-.4-2-1.1-2.9-1.6zm-5.7 7.5c-.4-.3-1.4-.6-1.8-.9-.5-.3-.8-1.3-.4-1.4.3-.1.5.4 1.3 1l3.5 2.4.7.3c.7.3.4.5-.2.4-.7-.1-1.1-.1-1.8-.7-.8-.5-1.1-.7-1.4-.9zm-8.4 7.1c-.7-.3-1.8-1.2-2.3-1.6-.5-.4-1.1-1-.8-1.3.4-.3.8.1 1.3.7.6.5 2.1 2.2 2.1 2.2s.2.1 1 .7c.8.7 0 .6-.3.3s-.5-.5-1.2-.7z" fill="#b96b29"/>
  <path fill="#d4af3a" d="M338.2 142.5l3.98-1.03 2.55 2.03-3.15 1.38z"/>
  <ellipse cx="-330.78" cy="142.07" transform="scale(-1 1)" ry="3.1" rx="3.22" fill="#b96b29"/>
  <ellipse ry="1.85" cy="141.42" rx="1.94" cx="-330.78" transform="scale(-1 1)" fill="#d4af3a"/>
  <path d="M337.5 131.4c-.83.32-1.9.18-1.9.18s-.33-1.42.45-2.12c.8-.7 1.5-1.2 1.97-1.66.46-.46.57-.62.57-.62v2c0 .78-.3 1.92-1.2 2.23z" fill="#d4af3a"/>
  <ellipse ry=".56" cy="132.97" rx=".59" cx="-335.79" transform="scale(-1 1)" fill="#d4af3a"/>
  <path d="M340.18 132.38c.25.34.8.9.8.9s-.66.02-1.2.4c-.54.4-1.23.72-1.87.64-.6-.08-.9-.67-.7-1.1.2-.42.5-.86 1.5-1.25 1.1-.38 1.3.06 1.6.4z" fill="#d4af3a"/>
  <path d="M337.93 136.13c2.02.18 4.7-2.05 4.7-2.05.25 1.8 1.36 2.73 3.06 3.07l-.2.08s-1.6.8-3.5 1.1c-.9.12-1.6-.03-2.5-.2-1.1-.23-2.4-.54-3-.95-1.2-.76-.9-2.7-.9-2.7s.2 1.47 2.2 1.65zm7.88-2.02c.9-.3 2.1-.9 2.6-.9.6 0 1.3-.1 1.2.8-.1 1-1.1 1.5-2 1.5-.9.1-1.4-.3-2-.6-.5-.3-.4-.4.4-.7zm6.4-3.4c.9-.6 1.7-.8 1.7-.8s.6 1.6.3 2.5c-.3 1-1 1.2-1.9 1.2-.8 0-2.1-.4-1.7-1.1.4-.6.8-1.1 1.7-1.7z" fill="#d4af3a"/>
  <ellipse ry=".5" cy="135.06" rx=".7" cx="-351.31" transform="scale(-1 1)" fill="#d4af3a"/>
  <path d="M349.38 127.3c.56-2.66.46-5.56-2.06-9.25-2.52-3.7-6.9-5.18-6.9-5.18s-.15-.28-1.55-1.77c-1.4-1.5-4.25-3.36-4.25-3.36s3.3.8 5.2 1.4v.1c0 1.3 1 2.32 2.25 2.32.48 0 .92-.15 1.3-.4 1 .2 4.4 2.22 5.27 2.94a2.33 2.33 0 0 0-.34 1.22c0 1.28 1.02 2.3 2.27 2.3.37 0 .73-.08 1.04-.25l.3.5a23.36 23.36 0 0 1 1.7 3.7c-.6.4-.9 1.16-.9 2.02 0 1.2.9 2.3 1.9 2.3.1.7.1 1.2.1 1.5-.1.7-.3 1.2-1.6 1.5-1.3.3-3 2.6-3 2.6-.1 0-1.1-1.7-.4-4.4z" fill="#d4af3a"/>
  <path d="M341.34 110.26c-.48-.4-.56-.98-.18-1.32.37-.34 1.06-.3 1.54.1.48.38.56.97.18 1.3-.37.35-1.07.3-1.54-.08zm8.46 5.7c-.54-.47-.63-1.2-.2-1.64.42-.43 1.2-.38 1.74.1.53.5.63 1.24.2 1.67-.42.4-1.2.3-1.74-.2z" fill="#d4af3a"/>
  <ellipse ry="1.28" cy="123.16" rx="1.31" cx="-354.84" transform="scale(-1 1)" fill="#d4af3a"/>
  <path d="M326.64 105.03c.68.14 1.93.55 3.8 1.54h-.03c-1.3 0-2.3.83-2.3 1.9 0 1.1 1.2 2.27 2.5 2.27s2.2-1.14 2.2-2.22c0-.25 0-.5-.1-.72.6.34 1.2.72 1.8 1.15 4.2 2.8 5.2 4.16 7.2 7.98 2.1 3.83 2.8 8.03 2 10.5-.9 2.48-4.1 3-4.2 3 0 0 .4-.38.4-.84.1-.5-.1-.7-.2-1.7s0-2.1 0-2.1-.7-.1-1.1.4c-.4.5-1 1.1-1.4 1.6-.4.5-1.5 1.5-1.5 1.5s-.6-1-.6-2.1.8-2.4.9-4.3c.2-2-.9-5.5-2.8-8.1-1.9-2.6-5.5-4.9-6.6-5.4-1-.5-1.2-1.3-1.3-1.8 0-.5-.1-.8-.2-2s1-1.1 2.1-.9z" fill="#d4af3a"/>
  <path d="M330.76 109.46c-.73 0-1.4-.66-1.4-1.27 0-.7.57-1.1 1.3-1.1.74 0 1.34.5 1.34 1.1 0 .6-.5 1.2-1.24 1.2zm-6.18 24.4c-1 .42-2.13.2-2.66-.16-.54-.36-.72-1.27-.08-1.8.63-.5 1.56-.5 2.15-.16.5.32 1.8 1.24 1.8 1.24s-.3.5-1.3.9z" fill="#d4af3a"/>
  <path d="M321.37 135c.36.56.63.9 1.74.94 1.2.05 2.4-.02 3.1-.75s1.3-1.8 1.3-1.8l1.3-.1s.4 1.7 1 2.2c.6.5 2.5.5 3.4-.1.9-.7 1.6-1.4 1.8-1.3.1.1 0 .7-.9 1.4s-1.4 1.2-2.9 1.2h-8s-1.6.1-2-.9c-.5-1-.5-1.6-.3-1.9.2-.2.4.2.7.7z" fill="#d4af3a"/>
  <path d="M333.5 133.65c-1.2.66-1.85.26-2.3-.28-.42-.53-.5-.78-.5-.78s1.13-.4 1.68-.8c.55-.3.92-.7 1.47-.6.55 0 .63.1.63.1s.22 1.5-.97 2.2z" fill="#d4af3a"/>
  <ellipse ry="2.64" cy="121.86" rx="2.66" cx="-339.28" transform="scale(-1 1)" fill="#b96b29"/>
  <path d="M334.66 112.72c1.07-.72 2.63-.43 3.5.63.86 1.08.7 2.53-.37 3.24-1.1.7-2.7.4-3.5-.7-.9-1.1-.7-2.5.3-3.3z" fill="#b96b29"/>
  <ellipse ry="1.47" cy="121.52" rx="1.55" cx="-339.39" transform="scale(-1 1)" fill="#d4af3a"/>
  <path d="M335.77 113c.7-.18 1.54.16 1.9.76.35.6-.03 1.25-.94 1.43-1.68.3-2.48-1.8-.96-2.2z" fill="#d4af3a"/>
</svg>
