<svg xmlns="http://www.w3.org/2000/svg" height="480" width="640" viewBox="0 0 640 480">
  <defs>
    <clipPath id="a">
      <path fill-opacity=".67" d="M0 0h640v480H0z"/>
    </clipPath>
  </defs>
  <g clip-path="url(#a)">
    <path fill-rule="evenodd" fill="#0071bc" d="M-160 0h960v480h-960z"/>
    <path d="M369.93 365.66s15.22-16.1 29.86-13.03c4.3-16.98 20.9-18.3 20.9-18.3s-1.6-18.73 19.6-22.83c.6-12.73 13.5-23.27 13.5-23.27s-2.7-19.76 10.8-24.3c-8.2-15.66 2.8-27.08 2.6-27.37-.2-.3-13.9-24.74-1.6-31.77-13.1-11-8.8-23.5-8.8-23.5s-14.2-3.7-9.1-20.7c-11.7-2.1-14.1-21-14.1-21s-18 3.6-20.2-12c-11.9 1.9-13.2-9.8-13.3-9.8-.2 0-23.6 6.3-28.3-11.5-9.1 4.7-13.1-3.7-13.1-3.7s-13 6.4-20.8-6c-15.5 9.6-24.1-.5-24.1-.5s-20.4 13.4-27.1 3c-12 12.1-22.7 6.9-22.7 6.9s-9.1 16.1-23.7 12c-3.4 14.9-20.2 15.2-20.2 15.2s1.8 13.2-18.4 16.7c-2.7 15.5-13.2 18.1-13.2 18.1s1 15.1-8.5 19.9c3.3 8.5-5.4 18.9-5.4 18.9s9.3 11.7-3.4 24.9c12.3 3.2 3.4 24.4 3.4 24.4s17 7.6 6.3 21.7c12.1 3.9 8.3 13.6 8.5 19.3 7.7 3.5 14.6 1.7 11.2 17.4 23.8 2.6 12.6 15.8 12.6 15.8s11.1.4 6.7 9.2c20.3-.5 23.2 15.2 23.2 15.2s18.9-5 21.4 2.3-8.2 56.62-8.2 56.62-16 0-27.8-12.77c-27.8-.75-21.7-19.04-22.1-19.04-.5 0-9.3 3.38-13.8-11.9-18.6 3.8-18-11.8-18.2-12-.1-.1-8.3-3.8-5.3-11.52-19.2 1.8-17.7-16.96-17.7-16.96-4.2-1.7-5.8-5.67-5.1-9.57-2.5-.83-19.5-1.12-10.7-23.52-16.2-9.8-6.1-21.1-6.1-21.1s-22.4-11.6-5.2-24.9c-12.8-19.1 1.1-28.6 1.1-28.6s-17.9-18.1.3-31c-3-27.5 13.4-34.1 13.4-34.1s-8.7-22.4 14.8-31.8c1.5-22.4 17.9-23 17.9-23s.4-18 26.2-16.2c5-16 22.55-12.8 22.55-12.8s5.4-19.47 29.27-10.1C262 39.1 280 51.28 280 51.28s11.4-7.47 17.1-5.1c7.3-12.48 22.7-.5 32.7 1.9 3.7-1.4 16.6-11.14 26.5 1.15 13.4-8.5 24.6 7 24.6 7s18.17-9.2 26.66 11.87c38.55-3.5 32.95 21.7 32.95 21.7s30.3-6.9 23.7 23.3c27.6 1.9 24.8 20.04 24.8 20.04s17.5 13.2 9.8 25.04c15.6.73 9.8 15.66 9.8 15.66s11.9 4.6 2.1 23c22.7 18.2 4.4 36.2 4.3 36-.1-.1 12.2 14.7 1 31.7 3.4 27-10.2 33.8-10.2 33.8s3.5 17.5-11.7 22.4c-.3 20.5-19.6 23-19.6 23s5.1 8.9-14 18.3c-.8 13.7-20.8 14.8-20.8 14.8s-1.9 25.2-27.4 18.5c-6.1 20.2-36 14.2-36.6 13.9-.5-.3-5.7-43.3-5.7-43.4z" fill-rule="evenodd" stroke="#000" stroke-width="1.86" fill="#fff"/>
    <path stroke-linejoin="round" d="M184.94 124.08c.07 0 6.46 5.54 5.26 13.88-1.2 8.34-6 19.93-5.04 28.57.6 3.46.37 9.67.37 9.67s-5.78-8.22-5.86-17 6.27-17.14 6.27-23.62-1.15-11.65-1-11.5zm-3.17 2.5s-8.37 8-9.45 15.75c-.8 4-1.1 22.66-1.2 30.95-.2 2.54-1.24 12.57-1.46 16.2-.23 3.66 6.16-6.2 6.52-14.26-.2-8.32-.2-25.86.65-28.5.75-3.38.6-7.12 1.75-10.52 1.54-4.72 3.27-9.55 3.2-9.63z" fill-rule="evenodd" stroke="#000" stroke-width="1.86" fill="#217900"/>
    <g fill-rule="evenodd" stroke="#ef8a10" fill="#ffd200">
      <path d="M365.96 100.45s10.86-5 13.96-14.33-9.4-9.42-11.04-6.45c-1.65 2.96 1.4 10.34.62 12.3-.8 1.94-5.2 6.65-3.54 8.48z" stroke-width="1.86"/>
      <path d="M269.75 103.86s7.04-9.66 5.22-19.32c-1.83-9.66-12.8-3.66-12.8-.26 0 3.4 6.27 8.35 6.53 10.44.26 2.1-1.3 8.35 1.05 9.13zm-19.06 5.74s7-9.66 5.2-19.32c-1.9-9.65-12.8-3.65-12.8-.26 0 3.4 6.2 8.35 6.5 10.44.2 2.1-1.3 8.36 1 9.14zm-21.2 6.52s7-9.65 5.2-19.3c-1.9-9.67-12.8-3.67-12.8-.27s6.2 8.35 6.5 10.44c.2 2-1.3 8.3 1 9.1zM214.6 131s7.05-9.66 5.22-19.3c-1.9-9.67-12.8-3.67-12.8-.28 0 3.4 6.22 8.36 6.5 10.44.24 2.1-1.3 8.36 1.02 9.14zM199 145.36s7.06-9.66 5.23-19.32c-1.83-9.66-12.8-3.65-12.8-.26 0 3.4 6.27 8.35 6.54 10.44.26 2.1-1.3 8.35 1.04 9.14z" stroke-width="2.48"/>
      <path d="M235.02 61.73s-9.4 7.4-10.22 17.2c-.84 9.8 11.33 6.96 12.24 3.7.92-3.28-3.78-9.74-3.47-11.82.3-2 3.5-7.7 1.45-9zm31.32-9.66s-9.38 7.4-10.22 17.2c-.84 9.8 11.33 6.96 12.25 3.7.9-3.28-3.8-9.74-3.48-11.82.3-2.08 3.5-7.7 1.4-9.08zm-116.72 84.55s1.98 11.8 10.16 17.24c8.2 5.44 11.56-6.6 9.13-8.97s-10.3-1.4-12-2.7c-1.6-1.3-5-6.8-7.2-5.7zm-15.65 40.04s.1 11.95 7.32 18.62c7.2 6.66 12.4-4.7 10.4-7.42s-10-2.97-11.5-4.5c-1.5-1.5-4-7.47-6.3-6.7zm36.1 44.72s-4.27-11.17-13.37-14.9c-9.1-3.7-10.03 8.75-7.18 10.6 2.85 1.84 10.42-.7 12.3.2 1.9.92 6.3 5.64 8.24 4.1zm-7.5-19.33s7.23-9.52 5.6-19.2c-1.65-9.7-12.72-3.9-12.8-.52-.06 3.4 6.1 8.47 6.33 10.57.22 2.1-1.47 8.32.87 9.15zm225.58-91.94s10.86-5 13.96-14.3-9.4-9.4-11-6.4c-1.6 3 1.4 10.4.6 12.3-.8 2-5.2 6.7-3.5 8.5zm32.83 16.4s6.38-10.1 3.9-19.6c-2.46-9.5-13-2.8-12.77.6.3 3.4 6.9 7.9 7.3 10 .4 2.1-.7 8.4 1.7 9.1zm89.6 93.1s-4.28-11.1-13.38-14.8c-9.1-3.7-10.02 8.8-7.17 10.6 2.85 1.9 10.42-.7 12.3.2 1.9.9 6.32 5.6 8.25 4.1zm-43.82 7s.25-11.9 7.56-18.5c7.3-6.5 12.4 4.9 10.33 7.6-2.06 2.7-10.04 2.9-11.52 4.4-1.47 1.5-4.02 7.5-6.37 6.7zM459.7 99.7s-11.16-4.24-20 .07c-8.83 4.32-.14 13.3 3.13 12.4 3.28-.9 6.4-8.24 8.35-9.05 1.95-.8 8.4-.93 8.54-3.4zm-25.56-21.4s-11.18-4.25-20 .07c-8.84 4.3-.15 13.3 3.12 12.4 3.27-.9 6.4-8.25 8.34-9.05 1.95-.8 8.4-.94 8.54-3.4zM396 57.87s-9.47 7.3-10.43 17.07c-.96 9.78 11.25 7.1 12.2 3.84.95-3.27-3.67-9.8-3.33-11.87.33-2 3.6-7.6 1.56-9zm-24.84-6s-4.32 11.17-.07 20.03 13.3.26 12.4-3.02c-.9-3.28-8.2-6.46-9-8.4-.8-1.96-.9-8.42-3.4-8.57zm-70.46 43s7.74-9.13 6.62-18.9c-1.12-9.76-12.5-4.57-12.74-1.2-.24 3.4 5.65 8.8 5.75 10.9.1 2.1-1.9 8.24.38 9.2z" stroke-width="1.86"/>
    </g>
    <path d="M342.77 114.43s18.53 1.17 19.44 11.8-4.4 17.1-4.4 17.1 2.4 22.92-15.8 29.67c-19.4 2.3-49.8.5-49.8.5s-8.9 2.2-12.5-16.37c-3.6-18.52-4.6-31.6-4.6-31.6s1.8-10.37 14.9-11.02c13.1-.6 52.9.2 53-.1z" fill-rule="evenodd" stroke="#000" stroke-width="1.86" fill="#8c8a8c"/>
    <path d="M357.67 143.2s-9.97 12.43-8.94 17.48" stroke="#000" stroke-linecap="round" stroke-width="1.86" fill="none"/>
    <path d="M344.33 172.34c2.47 2.07 4.8 4.4 5.32 12.05l1.03 15.2 12.96 116.6 11.4 84.3.77 13.1s-2.7 9.5-10.3 10.3c-5.5 11.6-35.7 15-38.7 14.9-2.7-.2-12.3-4.2-18.1-3.7-5.8.5-15.9 4.4-20.4 3.7-4.5-.7-14.7-4.2-16.5-11.6-12.7-4-14.7-13.8-14.7-13.8l13.7-97.6 13.2-123s1.6-16.5 8.2-18.9c6.9-.7 42.4.6 52.4-1.7z" fill-rule="evenodd" stroke="#000" stroke-width="1.86" fill="#8c8a8c"/>
    <path d="M274.38 341.15l-2.73 86.28m86.55-74.88l7.64 71.12" stroke="#000" stroke-width="1.86" fill="none"/>
    <path d="M136.57 296.3l-.28 1m358.6-4.1l.3.98" stroke="#000" stroke-width=".97" fill="none"/>
    <path stroke-linejoin="round" d="M126.97 179.83s5.67 7.86 6.7 12.37c1 4.5 2.9 13.4 5.37 17.03 2.48 3.64 16.6 23.87 17.32 32.3.15 5.54-5.82 15-14.7 15.14-5.53-.14-19.8-3.78-20.37-16-.6-12.23 4.3-12.52 4.9-19.94.6-7.43.7-40.75.7-40.9z" stroke="#6b18b5" stroke-width="1.86" fill="none"/>
    <path stroke-linejoin="round" d="M224.47 72.8s-5.88.43-10.4 2.9c-3.5 2.15-9.45 5.26-13.6 11-10.55 8.24-26.43 12.08-31.43 18.9-3 4.66-2.82 15.84 4.7 20.58 4.8 2.75 18.87 7.05 25.72-3.1 6.85-10.14 2.77-12.96 6.13-19.6 5.5-15.23 18.8-30.54 18.8-30.67zM367 57.98s-4.38-3.93-9.3-5.48c-3.98-1.02-10.62-.58-17.5-1.25-13.25-1.86-26.92-11.45-35.3-10.3-5.43 1.1-13.34 9-11.52 17.7 1.37 5.35 7.36 16.2 19.4 14.06 12.07-2.1 11.96-4.7 19.07-6.9C349.2 56 366.87 58 367 58zm141.37 137.4c1-2.27-.83-6.52-2.12-11.5-1.26-3.92-3.14-10-7.72-15.42-5.46-12.22-4.52-28.97-9.95-35.48-3.8-4.02-14.7-6.53-21.1-.38-3.82 4-11.38 16.62-3.17 25.7 8.2 9.1 11.8 5.67 17.5 10.53 13.5 9.03 20.1 24.88 26.7 26.53zm-4.82 106.75c1.84-2.55 5.13-7.45 4.74-11.53-.4-3.25 1.4-13.05 1.6-17.33 1.2-13.32 9.5-24.14 7.3-35.72-1.4-5.36-9.2-13.02-17.8-10.78-5.3 1.62-17.1 8.1-14.4 20.03 2.7 11.94 6.5 11.74 9.1 18.73 7.3 14.46 2.6 31.64 9.3 36.6z" stroke="#6b18b5" stroke-width=".97" fill="none"/>
    <path d="M405.5 386.83s-2.27 4.35 6.76 8.17m11.3-18.42s10.08-2.43 16.86 0m13.2-25.37c0 .2-1.4 4.6 6.6 10.8m-.87-22s5.9 4.4 15.8 4.2m-75.4 8.5s.35 11.5-5.56 16.9m25.3-34.6s9.7 2.5 17.7-1.5m44.6-15.2s2.1 3 12.8 2.5m-54.9-9.2c.3.2 12.6 4.2 20.5.5m4.1-47.8s.5-.7 4.3 12.7m5.2-50.4s-.6 7.1-6.3 10.3m42.9-39.5s-8.4 6.8-6.8 9.6M469 192.4s4.36 7.3-2.76 12.34M448.2 161s7.46-.35 10.76 6.08m-24.84-27.28h5.73m23.96-26.07c0 .16 1.6 1.55-1.4 4.5m-51.9-3.83s4 6.26 3.3 13.9m19.9-35.1c1.8-.17 7.7-2.78 7.7-2.78M407.9 68.3c-.16 0-2.25 7.8 1.58 10.6m-11.15 25c0 8.35 6.6 6.27 2.08 14.26M382.2 97c-.18 0-10.43 8-10.43 9.38m-16.33-13.73s4.34 4.34 3.3 10.25m-15.98-13.73s-2.26 6.6-5.22 8.34m-17.9-10c-.17.4-3.64 7.8-6.08 9.2m-25.54-9c.17 0 3.48 7-.87 12m-6.43-47.9c.17.2.7 5.4-2.6 9.9m-28.68 1.9c0 .2 1.4 5.9-7.82 7.8m-9.9 45.2c.18.4 8.87 1.8 8.87 1.8M210 136.6c.18-.16 10.6-3.3 10.6-3.3m-27.45 16.34c.34 0 7.3 1.22 9.03.35m-13.9 6s2.26 1.2.35 12.8m-34.23-43.4l4.17 6.2m-18.42 25.9c0-.2 4.17 6.2 9.73 7.4m23.1 25.2c.2 0 6.8-1.4 7.83-2.1m-10.7 25.7c.2 0-.1-4.4 5.2-7.3m-12.4 18c0 .2 5.1 6.4 8.6 7.3m-11.4 4.7c.5-.2 5.9-4.9 12.2-4.5m-13.9 20.7s.2 5.4 16.2 4M160 271.5c0-.18 4.7-10.78 14.25-14.77m-1.4 28.3s1.4-4.5 9.4-7.63m-.5 25.6s5.75-4.7 7.83-5.4m-.7 19.3s3.48 3.6 12.17-2.6m-54.1 5.5c1.02-.16 13.7-3.1 18.1 3.5m-13.07 6.94s13.36-1.7 15.1-.33m32.67 3.2s-1.75 3.7 14.76-2.4m5.8 9.1c-2.9 5.1.7 9.1-3.1 11.3m-47.1-4.3c.6-.3 6.1-2.2 5.3-10.2m-.2 22.3c.7-.2 9.9-4.1 11.8-2.1m6.3 13.8s1.3-8.2 3.9-9.02m10 21.43s7.7-.2 11-2.6m3.8-25.04c.2.2 7.2 3.83 21.9.2m-16.3 33s2.1 10.6 1.9 13.04" stroke="#000" stroke-width="1.86" fill="none"/>
    <g fill-rule="evenodd" stroke="#000" stroke-width="1.48" fill="#de2010">
      <path d="M232.84 119.03c0-2.1-.8-4.06-2.1-5.1-1.28-1.07-2.87-1.07-4.17 0s-2.1 3-2.08 5.1c-.1 2.1.7 4.06 2 5.1 1.3 1.07 2.9 1.07 4.2 0s2.1-3 2.1-5.1z" transform="matrix(1.6 -.2 .2 1.66 94.8 74.93)"/>
      <path d="M232.84 119.03c0-2.1-.8-4.06-2.1-5.1-1.28-1.07-2.87-1.07-4.17 0s-2.1 3-2.08 5.1c-.1 2.1.7 4.06 2 5.1 1.3 1.07 2.9 1.07 4.2 0s2.1-3 2.1-5.1z" transform="matrix(1.6 -.2 .2 1.66 93.36 57.27)"/>
      <path d="M232.84 119.03c0-2.1-.8-4.06-2.1-5.1-1.28-1.07-2.87-1.07-4.17 0s-2.1 3-2.08 5.1c-.1 2.1.7 4.06 2 5.1 1.3 1.07 2.9 1.07 4.2 0s2.1-3 2.1-5.1z" transform="matrix(1.58 -.34 .35 1.63 78.09 74.09)"/>
      <path d="M232.84 119.03c0-2.1-.8-4.06-2.1-5.1-1.28-1.07-2.87-1.07-4.17 0s-2.1 3-2.08 5.1c-.1 2.1.7 4.06 2 5.1 1.3 1.07 2.9 1.07 4.2 0s2.1-3 2.1-5.1z" transform="matrix(1.45 -.73 .76 1.5 55.86 162.94)"/>
      <path d="M232.84 119.03c0-2.1-.8-4.06-2.1-5.1-1.28-1.07-2.87-1.07-4.17 0s-2.1 3-2.08 5.1c-.1 2.1.7 4.06 2 5.1 1.3 1.07 2.9 1.07 4.2 0s2.1-3 2.1-5.1z" transform="matrix(1.45 -.73 .76 1.5 48.88 147.13)"/>
      <path d="M232.84 119.03c0-2.1-.8-4.06-2.1-5.1-1.28-1.07-2.87-1.07-4.17 0s-2.1 3-2.08 5.1c-.1 2.1.7 4.06 2 5.1 1.3 1.07 2.9 1.07 4.2 0s2.1-3 2.1-5.1z" transform="matrix(1.38 -.85 .88 1.42 39.96 167.39)"/>
      <path d="M232.84 119.03c0-2.1-.8-4.06-2.1-5.1-1.28-1.07-2.87-1.07-4.17 0s-2.1 3-2.08 5.1c-.1 2.1.7 4.06 2 5.1 1.3 1.07 2.9 1.07 4.2 0s2.1-3 2.1-5.1z" transform="matrix(1.3 -.98 1 1.33 33.8 193.08)"/>
      <path d="M232.84 119.03c0-2.1-.8-4.06-2.1-5.1-1.28-1.07-2.87-1.07-4.17 0s-2.1 3-2.08 5.1c-.1 2.1.7 4.06 2 5.1 1.3 1.07 2.9 1.07 4.2 0s2.1-3 2.1-5.1z" transform="matrix(1.13 -1.16 1.2 1.17 35.34 239.04)"/>
      <path d="M232.84 119.03c0-2.1-.8-4.06-2.1-5.1-1.28-1.07-2.87-1.07-4.17 0s-2.1 3-2.08 5.1c-.1 2.1.7 4.06 2 5.1 1.3 1.07 2.9 1.07 4.2 0s2.1-3 2.1-5.1z" transform="matrix(1.02 -1.26 1.3 1.05 34.3 262.7)"/>
      <path d="M232.84 119.03c0-2.1-.8-4.06-2.1-5.1-1.28-1.07-2.87-1.07-4.17 0s-2.1 3-2.08 5.1c-.1 2.1.7 4.06 2 5.1 1.3 1.07 2.9 1.07 4.2 0s2.1-3 2.1-5.1z" transform="matrix(.8 -1.4 1.45 .82 51.91 315)"/>
      <path d="M232.84 119.03c0-2.1-.8-4.06-2.1-5.1-1.28-1.07-2.87-1.07-4.17 0s-2.1 3-2.08 5.1c-.1 2.1.7 4.06 2 5.1 1.3 1.07 2.9 1.07 4.2 0s2.1-3 2.1-5.1z" transform="matrix(.67 -1.48 1.52 .7 56.81 337.39)"/>
      <path d="M232.84 119.03c0-2.1-.8-4.06-2.1-5.1-1.28-1.07-2.87-1.07-4.17 0s-2.1 3-2.08 5.1c-.1 2.1.7 4.06 2 5.1 1.3 1.07 2.9 1.07 4.2 0s2.1-3 2.1-5.1z" transform="matrix(.57 -1.52 1.57 .58 57.91 352.4)"/>
      <path d="M232.84 119.03c0-2.1-.8-4.06-2.1-5.1-1.28-1.07-2.87-1.07-4.17 0s-2.1 3-2.08 5.1c-.1 2.1.7 4.06 2 5.1 1.3 1.07 2.9 1.07 4.2 0s2.1-3 2.1-5.1z" transform="matrix(.45 -1.56 1.6 .46 63.01 370.36)"/>
      <path d="M232.84 119.03c0-2.1-.8-4.06-2.1-5.1-1.28-1.07-2.87-1.07-4.17 0s-2.1 3-2.08 5.1c-.1 2.1.7 4.06 2 5.1 1.3 1.07 2.9 1.07 4.2 0s2.1-3 2.1-5.1z" transform="matrix(.2 -1.6 1.66 .2 94.66 408.9)"/>
      <path d="M232.84 119.03c0-2.1-.8-4.06-2.1-5.1-1.28-1.07-2.87-1.07-4.17 0s-2.1 3-2.08 5.1c-.1 2.1.7 4.06 2 5.1 1.3 1.07 2.9 1.07 4.2 0s2.1-3 2.1-5.1z" transform="matrix(.07 -1.62 1.67 .07 106.3 427.39)"/>
      <path d="M232.84 119.03c0-2.1-.8-4.06-2.1-5.1-1.28-1.07-2.87-1.07-4.17 0s-2.1 3-2.08 5.1c-.1 2.1.7 4.06 2 5.1 1.3 1.07 2.9 1.07 4.2 0s2.1-3 2.1-5.1z" transform="matrix(.07 -1.62 1.67 .07 88.85 428.01)"/>
      <path d="M232.84 119.03c0-2.1-.8-4.06-2.1-5.1-1.28-1.07-2.87-1.07-4.17 0s-2.1 3-2.08 5.1c-.1 2.1.7 4.06 2 5.1 1.3 1.07 2.9 1.07 4.2 0s2.1-3 2.1-5.1z" transform="matrix(-.36 -1.58 1.63 -.37 172.5 473.53)"/>
      <path d="M232.84 119.03c0-2.1-.8-4.06-2.1-5.1-1.28-1.07-2.87-1.07-4.17 0s-2.1 3-2.08 5.1c-.1 2.1.7 4.06 2 5.1 1.3 1.07 2.9 1.07 4.2 0s2.1-3 2.1-5.1z" transform="matrix(-.5 -1.55 1.6 -.5 188.29 485.83)"/>
      <path d="M232.84 119.03c0-2.1-.8-4.06-2.1-5.1-1.28-1.07-2.87-1.07-4.17 0s-2.1 3-2.08 5.1c-.1 2.1.7 4.06 2 5.1 1.3 1.07 2.9 1.07 4.2 0s2.1-3 2.1-5.1z" transform="matrix(-.67 -1.48 1.52 -.7 221.88 499.09)"/>
      <path d="M232.84 119.03c0-2.1-.8-4.06-2.1-5.1-1.28-1.07-2.87-1.07-4.17 0s-2.1 3-2.08 5.1c-.1 2.1.7 4.06 2 5.1 1.3 1.07 2.9 1.07 4.2 0s2.1-3 2.1-5.1z" transform="matrix(-.8 -1.4 1.46 -.82 241.37 508.33)"/>
      <path d="M232.84 119.03c0-2.1-.8-4.06-2.1-5.1-1.28-1.07-2.87-1.07-4.17 0s-2.1 3-2.08 5.1c-.1 2.1.7 4.06 2 5.1 1.3 1.07 2.9 1.07 4.2 0s2.1-3 2.1-5.1z" transform="matrix(-.94 -1.32 1.36 -.97 271.64 515.4)"/>
      <path d="M232.84 119.03c0-2.1-.8-4.06-2.1-5.1-1.28-1.07-2.87-1.07-4.17 0s-2.1 3-2.08 5.1c-.1 2.1.7 4.06 2 5.1 1.3 1.07 2.9 1.07 4.2 0s2.1-3 2.1-5.1z" transform="matrix(-1.05 -1.23 1.27 -1.08 292.38 520.21)"/>
      <path d="M232.84 119.03c0-2.1-.8-4.06-2.1-5.1-1.28-1.07-2.87-1.07-4.17 0s-2.1 3-2.08 5.1c-.1 2.1.7 4.06 2 5.1 1.3 1.07 2.9 1.07 4.2 0s2.1-3 2.1-5.1z" transform="matrix(-1.14 -1.16 1.2 -1.17 308.9 526.1)"/>
      <path d="M232.84 119.03c0-2.1-.8-4.06-2.1-5.1-1.28-1.07-2.87-1.07-4.17 0s-2.1 3-2.08 5.1c-.1 2.1.7 4.06 2 5.1 1.3 1.07 2.9 1.07 4.2 0s2.1-3 2.1-5.1z" transform="matrix(-1.23 -1.06 1.1 -1.27 331.4 529.56)"/>
      <path d="M232.84 119.03c0-2.1-.8-4.06-2.1-5.1-1.28-1.07-2.87-1.07-4.17 0s-2.1 3-2.08 5.1c-.1 2.1.7 4.06 2 5.1 1.3 1.07 2.9 1.07 4.2 0s2.1-3 2.1-5.1z" transform="matrix(-1.34 -.92 .95 -1.38 362.52 526.12)"/>
      <path d="M232.84 119.03c0-2.1-.8-4.06-2.1-5.1-1.28-1.07-2.87-1.07-4.17 0s-2.1 3-2.08 5.1c-.1 2.1.7 4.06 2 5.1 1.3 1.07 2.9 1.07 4.2 0s2.1-3 2.1-5.1z" transform="matrix(-1.47 -.68 .7 -1.52 415.9 504.09)"/>
      <path d="M232.84 119.03c0-2.1-.8-4.06-2.1-5.1-1.28-1.07-2.87-1.07-4.17 0s-2.1 3-2.08 5.1c-.1 2.1.7 4.06 2 5.1 1.3 1.07 2.9 1.07 4.2 0s2.1-3 2.1-5.1z" transform="matrix(-1.53 -.54 .56 -1.58 438.68 497.52)"/>
      <path d="M232.84 119.03c0-2.1-.8-4.06-2.1-5.1-1.28-1.07-2.87-1.07-4.17 0s-2.1 3-2.08 5.1c-.1 2.1.7 4.06 2 5.1 1.3 1.07 2.9 1.07 4.2 0s2.1-3 2.1-5.1z" transform="matrix(-1.6 -.12 .15 -1.33 500.49 405.96)"/>
      <path d="M232.84 119.03c0-2.1-.8-4.06-2.1-5.1-1.28-1.07-2.87-1.07-4.17 0s-2.1 3-2.08 5.1c-.1 2.1.7 4.06 2 5.1 1.3 1.07 2.9 1.07 4.2 0s2.1-3 2.1-5.1z" transform="matrix(-1.58 -.36 .37 -1.63 468.42 480.77)"/>
    </g>
    <path d="M480 194.65c2.16-2.3 4.16-2.95 6.68-2.1-.9-6.07-2.8-8.13-5.14-7.4-2.34.73-3.4 3.85-1.53 9.5zm3.3 18.28c2.3-2.13 4.35-2.62 6.8-1.6-.43-6.1-2.2-8.3-4.57-7.75-2.4.55-3.67 3.58-2.24 9.35zm-7.77-34.98c1.5-2.77 3.26-3.9 5.9-3.73-2.4-5.64-4.76-7.14-6.84-5.84-2.1 1.3-2.3 4.58.9 9.57zm-8.14-16.64c1.5-2.7 3.2-3.9 5.9-3.7-2.4-5.6-4.8-7.1-6.9-5.8-2.1 1.3-2.3 4.6.9 9.6zm-19.6-30.4c1-2.9 2.6-4.4 5.2-4.6-3.3-5.1-5.9-6.2-7.7-4.6s-1.6 4.9 2.4 9.3zM435 117.6c.9-3 2.42-4.44 5.06-4.8-3.47-5.04-6.1-6.04-7.88-4.36-1.8 1.7-1.37 4.95 2.8 9.2zm-26.7-22.7c-.07-3.15.9-5 3.3-6.16-4.84-3.73-7.65-3.88-8.82-1.73-1.17 2.2.23 5.2 5.5 7.9zm13.95 10.46c.5-3.1 1.77-4.76 4.34-5.48-4.2-4.52-6.9-5.15-8.4-3.24-1.6 1.92-.7 5.1 4 8.72zm-29.9-19.25c-.37-3.1.42-5 2.68-6.4-5.2-3.2-8.02-3-8.96-.8-.94 2.3.76 5.1 6.3 7.3zM376.1 79c-.83-3.03-.34-5.07 1.7-6.78-5.6-2.43-8.37-1.9-8.98.48-.6 2.37 1.48 4.9 7.27 6.3zm-17.55-5.43c-1.07-2.95-.75-5.03 1.14-6.9-5.8-1.95-8.6-1.17-9 1.24-.4 2.5 1.9 4.8 7.7 5.7zm-17.22-3.34c-1.3-2.86-1.1-4.96.64-6.96-5.93-1.53-8.57-.56-8.8 1.88-.24 2.44 2.23 4.62 8.16 5.08zm-18.24-1.4c-1.6-2.7-1.7-4.8-.1-7-6.1-.9-8.6.35-8.6 2.8 0 2.45 2.7 4.36 8.6 4.2zm-35.8 2.7c-2.2-2.26-2.8-4.3-1.8-6.77-6.1.58-8.3 2.4-7.7 4.77.6 2.37 3.6 3.58 9.4 2zm17.5-2.32c-1.9-2.5-2.2-4.6-.9-6.9-6.1-.2-8.5 1.3-8.2 3.7.3 2.4 3.1 4.1 9 3.3zM270 75.3c-2.5-1.9-3.3-3.8-2.72-6.4-5.96 1.5-7.8 3.6-6.88 5.8.94 2.3 4.14 3 9.6.7zm-33 15.2c-2.8-1.4-4-3.1-3.9-5.8-5.56 2.6-7 5-5.64 7 1.35 2.1 4.64 2.2 9.53-1.2zm16-8.2c-2.62-1.73-3.58-3.6-3.17-6.22-5.83 1.86-7.55 4.1-6.45 6.27 1.1 2.2 4.36 2.73 9.63-.04zm-45.55 28.77c-3.04-.8-4.56-2.24-5.02-4.86-4.9 3.7-5.8 6.4-4.06 8.1 1.74 1.7 5 1.2 9.07-3.1zM221.6 99.5c-2.96-1.04-4.36-2.6-4.6-5.25-5.2 3.27-6.3 5.85-4.7 7.7 1.62 1.83 4.9 1.54 9.3-2.46zm-26.68 23.93c-3.1-.52-4.74-1.82-5.44-4.4-4.56 4.1-5.2 6.84-3.3 8.38 1.9 1.6 5.07.7 8.74-3.9zm-11.25 14.6c-3.13-.23-4.9-1.38-5.82-3.88-4.17 4.5-4.57 7.28-2.54 8.64 2.1 1.3 5.2.2 8.4-4.8zm-9.42 14.94c-3.13.25-5.04-.62-6.34-2.94-3.4 5.07-3.4 7.88-1.1 8.92 2.2 1.04 5.1-.55 7.6-5.98zM166 168.92c-3.1.65-5.1.04-6.7-2.1-2.73 5.48-2.34 8.27 0 9 2.33.75 4.98-1.2 6.7-6.9zm-6.63 16.37c-2.93 1.1-5 .8-6.92-1.1-1.84 5.8-1 8.5 1.4 8.9 2.43.3 4.74-2 5.52-7.9zm-4.43 18.2c-2.85 1.3-4.94 1.2-6.97-.6-1.44 5.9-.44 8.5 2 8.7 2.44.2 4.6-2.3 4.97-8.3zm-1.8 15.2c-2.68 1.4-4.77 1.6-6.97.5-.8 4.8.48 6.7 2.92 6.6 2.4-.2 4.3-2.4 4-7.1zm307-72.3c1.06-3 2.64-4.4 5.3-4.6-3.2-5.3-5.77-6.4-7.64-4.8-1.86 1.6-1.6 4.8 2.33 9.3zm25.16 85c2.3-2.2 4.35-2.7 6.8-1.6-.43-6.1-2.2-8.3-4.57-7.8-2.38.5-3.67 3.6-2.23 9.3z" fill-rule="evenodd" fill="#ffe300"/>
    <path stroke-linejoin="round" d="M461.32 132c-.07 0-6.93 6.86-5.74 15.2 1.2 8.34 6.48 18.62 5.52 27.26-.97 8.64-2.54 14.37-2.54 14.37s8.05-9.16 8.12-17.95c.08-8.78-5.5-20.33-5.5-26.8s.3-12.22.14-12.07zm12.73 28s-5.36 3.95-4.84 13.04c.6 9.08 10 25.77 10 25.77s6.9 14.1 6.6 17.8c-.2 3.7 1.3-3.5.6-11.5s-11-25.7-11-25.7-2.2-3.6-2-9.7c.2-6 .8-9.4.8-9.5z" fill-rule="evenodd" stroke="#000" stroke-width="1.86" fill="#217900"/>
    <path d="M312.93 47.43c0-1.88-2.12-3.4-4.73-3.4s-4.72 1.52-4.72 3.4 2.1 3.4 4.72 3.4 4.73-1.52 4.73-3.4zm2 7.92c0-1.8-2.16-3.27-4.85-3.27-2.68 0-4.86 1.47-4.86 3.27s2.18 3.26 4.86 3.26c2.7 0 4.87-1.4 4.87-3.2zm6.06-9.38s-5.6 4.17-3.3 5.84c2.3 1.7 8.6-3.6 8.6-3.6L321 46zm163.3 95.43c0-1.18-.6-2.28-1.5-2.87a2.62 2.62 0 0 0-2.9 0c-.9.6-1.5 1.7-1.5 2.87 0 1.2.5 2.28 1.4 2.87a2.62 2.62 0 0 0 2.9 0c.9-.6 1.4-1.7 1.4-2.87zm-2.2-7.94c0-1.98-1.4-3.58-3.1-3.58s-3.1 1.6-3.1 3.58 1.3 3.57 3 3.57 3-1.6 3-3.57zm1.4 16.16c0-1.03-.6-1.86-1.2-1.86s-1.2.83-1.2 1.86.5 1.85 1.2 1.85 1.2-.83 1.2-1.85zm4.9-14.45c0-1.17-.6-2.12-1.2-2.12-.7 0-1.2.95-1.2 2.12s.5 2.12 1.2 2.12c.6 0 1.2-1 1.2-2.2zm-13.4 1.46c0-.95-.5-1.72-1.2-1.72s-1.2.8-1.2 1.8.5 1.7 1.2 1.7 1.2-.7 1.2-1.7zm2.1 11.4c0-1.54-1.2-2.78-2.5-2.78s-2.6 1.24-2.6 2.78c0 1.54 1.1 2.8 2.5 2.8s2.5-1.26 2.5-2.8zm-6.6-5.03c0-1.38-1-2.4-2.1-2.4-1.2 0-2.1 1.02-2.1 2.4s.9 2.32 2.1 2.32c1.1 0 2.1-1.07 2.1-2.4zm-1.1-6.8c0-.7-.4-1.4-.9-1.7a1.75 1.75 0 0 0-1.9 0c-.6.3-1 1-1 1.7s.3 1.35.9 1.7a1.75 1.75 0 0 0 1.8 0c.6-.35.9-1 .9-1.72zm30.2 34.34c-2.8-3.63-7.1-5.15-9.8-3.4-2.7 1.72-2.6 6.06.1 9.67 2.7 3.6 7.1 5.2 9.8 3.4 2.6-1.7 2.6-6-.1-9.6zm7.8 66.64c.5-4.43-1.7-8.34-4.9-8.7-3.2-.4-6.2 2.9-6.7 7.3-.6 4.45 1.6 8.35 4.8 8.73 3.2.4 6.2-2.9 6.7-7.3zm1.6 38.8c.9-4.38-.9-8.45-4.1-9.1-3.2-.67-6.5 2.34-7.4 6.7-.9 4.4.9 8.46 4 9.12 3.1.65 6.4-2.36 7.3-6.73zm7.5-36.3c0-1.78-1.2-3.2-2.7-3.2s-2.6 1.42-2.6 3.2c0 1.74 1.2 3.16 2.6 3.16s2.7-1.4 2.7-3.17zm-6.5 7.3l-5.5 6.13s-5.1.2-4.9 1.8c.2 1.7 7 6.7 6.9 8.6-.1 2 4.5-.4 4.5-.4l3.7-11.1c0-.1-.2-7.7-2.2-7.6-2 .1-2.6 2.5-2.7 2.6zm-357.4-2.46a2.6 2.6 0 1 0-5.2 0 2.6 2.6 0 0 0 5.1 0zm2.4-7.92c0-1.5-1.1-2.73-2.6-2.73s-2.6 1.23-2.6 2.73 1.1 2.73 2.6 2.73c1.4 0 2.5-1.2 2.5-2.73zm-21-37.54c-1-2.18-3-3.4-4.5-2.7-1.6.67-2 3-1 5.15.9 2.2 3 3.4 4.5 2.7 1.5-.6 1.9-2.9 1-5.1zm6.4 23.4c-1.3-2.8-4.1-4.4-6.2-3.5s-2.7 3.87-1.4 6.7 4.1 4.4 6.2 3.5 2.7-3.88 1.3-6.7zm6.9 17.17c.4-3.5-1.1-6.75-3.3-7.22-2.3-.4-4.4 2-4.8 5.6-.5 3.5 1 6.8 3.2 7.2 2.2.5 4.4-2 4.8-5.5zm-11 2.5c1.3-3.25.8-6.76-1.2-7.82s-4.8.8-6.2 4-.9 6.8 1.1 7.9 4.7-.7 6.1-4z" fill-rule="evenodd" fill="#6b18b5"/>
    <path d="M131.28 234.8c0-1.65-1.28-3-2.87-3s-2.8 1.35-2.8 3 1.3 3.03 2.9 3.03 2.9-1.35 2.9-3.02zm-2.3-7.46c0-1.5-1.15-2.73-2.58-2.73-1.43.1-2.6 1.3-2.6 2.8 0 1.5 1.17 2.8 2.6 2.8s2.58-1.2 2.58-2.7zm2.45-14.36c0-2.54-1.13-4.6-2.52-4.6-1.3 0-2.5 2.06-2.5 4.6 0 2.54 1.2 4.6 2.5 4.6s2.6-2.06 2.6-4.6zm7.73-1.1c.34-2.52-.5-4.7-1.88-4.9-1.38-.18-2.76 1.7-3.1 4.23-.33 2.6.5 4.8 1.9 4.9 1.36.2 2.75-1.7 3.08-4.2zm55.13-110c1-3.55-.1-7.13-2.4-8-2.4-.84-5.1 1.36-6.1 4.92-1 3.56 0 7.15 2.3 8 2.3.86 5-1.34 6.1-4.9zm-10.5 15.88c3-2.62 4.4-6.23 2.9-8.08-1.5-1.84-5.1-1.22-8.2 1.4s-4.4 6.22-2.9 8.07c1.4 1.84 5.1 1.22 8.2-1.4zm-6.1-8.8c3-2.25 4.3-5.35 2.9-6.94s-5.1-1.05-8.1 1.2c-3.1 2.24-4.4 5.34-2.9 6.93s5 1.04 8.1-1.2zm23.5-15.5c2-1.56 2.9-3.72 1.9-4.83-1-1.1-3.4-.73-5.5.84s-2.9 3.73-2 4.83 3.4.73 5.4-.83z" fill-rule="evenodd" fill="#6b18b5"/>
    <path d="M188.98 108.47c1.4-2.16 1.5-4.5.2-5.2-1.28-.72-3.45.45-4.85 2.62s-1.5 4.4-.2 5.2c1.27.7 3.45-.5 4.85-2.7zm17.72-9.27c2.2-1.86 3.06-4.32 1.9-5.5-1.13-1.17-3.84-.62-6.05 1.24s-3.06 4.3-1.9 5.5c1.13 1.16 3.84.6 6.05-1.24zm-32.02 21.63c2.06-.1 3.6-1.13 3.47-2.3-.14-1.16-1.93-2-3.98-1.9-2.06.1-3.62 1.12-3.47 2.28.14 1.2 1.92 2.1 3.98 2zm38.76-33.13c1.4-2.16 1.5-4.5.2-5.2-1.27-.72-3.45.46-4.85 2.62s-1.5 4.5-.3 5.2c1.3.72 3.4-.45 4.8-2.62z" fill-rule="evenodd" fill="#6b18b5"/>
    <path d="M446.83 153.38s6.4-10.1 3.92-19.63c-2.47-9.5-13-2.8-12.78.6.22 3.38 6.8 7.9 7.2 9.98.4 2.07-.74 8.42 1.66 9.04z" fill-rule="evenodd" stroke="#ef8a10" stroke-width=".97" fill="#ffd200"/>
    <path stroke-linejoin="round" d="M324.88 69.3s23 .9 23.16 15.8c-.07 2.3 0 5.05-.82 11.68 4.55-2.46 7.6-9.3 7-13.7.08-15.12-20.55-25.47-29.34-13.78z" fill-rule="evenodd" stroke="#000" stroke-width="2.32" fill="#217900"/>
    <path stroke-linejoin="round" d="M310.3 68.63s18.53-3.87 18.68 11.02c.15 14.9-5.88 17.28-5.88 17.28s14.22-3.05 14.3-18.17c.07-15.12-18.32-21.82-27.1-10.13z" fill-rule="evenodd" stroke="#000" stroke-width="2.32" fill="#217900"/>
    <path stroke-linejoin="round" d="M373.28 389.95s86.8-24.52 113-131.04C471.1 368.3 376.1 403 376.1 403l-2.82-13z" fill-rule="evenodd" stroke="#000" stroke-width="2.48" fill="#f7df73"/>
    <path d="M382.2 396.58c2.67 0 9.3-7.34 13.12-8.2 3.8-.83 4.23-4.65-.14-4.8-4.38-.13-8.2 4.96-8.2 4.96s-3.8 3.24-7.76 3.67c-3.95.5-1.4 5.4 2.97 4.4z" fill-rule="evenodd" fill="#8c1800"/>
    <path d="M432.17 359.3s-9.04 5.22-7.77 6.5c1.27 1.26 9.32-4.95 9.46-5.1.14-.13 3.4-4.08-1.7-1.4z" fill-rule="evenodd" stroke="#8c1800" stroke-width="2.48" fill="#8c1800"/>
    <path d="M400.68 383.04s-2.7-1 4.23-3.67c7-2.7 6.5-5.8 8.8-7.07 2.3-1.27 7.1-4.66 8.1-2.68s-5.1 5.93-6.5 6.36c-1.4.42-8.3 6.77-10.3 7.34-2 .56-3.4.28-4.2-.28z" fill-rule="evenodd" fill="#8c1800"/>
    <path d="M445.58 346.04c-5.93 6.63-5.93 6.5-5.93 6.5" stroke="#8c1800" stroke-linecap="round" stroke-width="3.02" fill="none"/>
    <path d="M454.5 335.16l-5.66 6.92" stroke="#8c1800" stroke-linecap="round" stroke-width="2.79" fill="none"/>
    <path d="M463.37 321.04l-6.35 10.17" stroke="#8c1800" stroke-linecap="round" stroke-width="2.55" fill="none"/>
    <path d="M470.86 306.64l-5.23 10.45m8.62-18.1l-1.7 3.6" stroke="#8c1800" stroke-linecap="round" stroke-width="2.32" fill="none"/>
    <path d="M478.06 289l-1.42 4.36" stroke="#8c1800" stroke-linecap="round" stroke-width="1.39" fill="none"/>
    <path stroke-linejoin="round" d="M160.26 215.97s51.96-14.68 67.65-78.44c-9.1 65.45-65.9 86.2-65.9 86.2l-1.7-7.76z" fill-rule="evenodd" stroke="#000" stroke-width="1.48" fill="#f7df73" transform="matrix(-1.66 0 0 1.7 524.79 20.38)"/>
    <path d="M250.7 394.42c-2.66 0-9.24-7.48-13-8.34-3.8-.86-4.2-4.74.13-4.9 4.33-.13 8.1 5.04 8.1 5.04s3.8 3.3 7.7 3.74c3.92.43 1.4 5.46-2.93 4.46z" fill-rule="evenodd" fill="#8c1800"/>
    <path d="M195.5 197.62s-5.4 3.13-4.64 3.9c.76.75 5.58-2.97 5.66-3.06.1-.08 2.03-2.45-1-.84z" fill-rule="evenodd" stroke="#8c1800" stroke-width="1.48" fill="#8c1800" transform="matrix(-1.66 0 0 1.7 524.79 20.38)"/>
    <path d="M232.37 380.62s2.66-1-4.2-3.73-6.43-5.9-8.67-7.2c-2.24-1.3-7-4.8-7.97-2.8s5.03 6 6.43 6.4c1.4.4 8.26 6.9 10.22 7.4 1.95.6 3.35.3 4.2-.3z" fill-rule="evenodd" fill="#8c1800"/>
    <path d="M203.54 189.68c-3.55 3.97-3.55 3.9-3.55 3.9" stroke="#8c1800" stroke-linecap="round" stroke-width="1.81" fill="none" transform="matrix(-1.66 0 0 1.7 524.79 20.38)"/>
    <path d="M208.87 183.17l-3.38 4.14" stroke="#8c1800" stroke-linecap="round" stroke-width="1.67" fill="none" transform="matrix(-1.66 0 0 1.7 524.79 20.38)"/>
    <path d="M214.2 174.72l-3.8 6.1" stroke="#8c1800" stroke-linecap="round" stroke-width="1.53" fill="none" transform="matrix(-1.66 0 0 1.7 524.79 20.38)"/>
    <path d="M218.67 166.1l-3.13 6.25m5.16-10.82l-1 2.2" stroke="#8c1800" stroke-linecap="round" stroke-width="1.39" fill="none" transform="matrix(-1.66 0 0 1.7 524.79 20.38)"/>
    <path d="M222.98 155.53l-.84 2.62" stroke="#8c1800" stroke-linecap="round" stroke-width=".83" fill="none" transform="matrix(-1.66 0 0 1.7 524.79 20.38)"/>
    <path stroke-linejoin="round" d="M490.42 239.3c.43 6.68 6.97 13.08 4.4 24.74-3.26 13.22-14.78 44.64-12.8 50.2-3.4-4.7-2.83-9.1-3.1-15.65-.3-6.6 9.5-30.9 10.36-39.1 0-7.4.7-17.5 1.14-20.2z" fill-rule="evenodd" stroke="#000" stroke-width="2.32" fill="#217900"/>
    <path stroke-linejoin="round" d="M490.42 239.44s10.66 13.5 10.1 24.17c-.57 10.7-6.55 23.2-4.56 28.8-3.4-4.7-4.26-7.7-4.54-14.2-.3-6.5 5.26-13.8 4.12-20.9-1.14-7.1-5.26-17.7-5.12-17.7zm-349.3 3c-.42 6.67-5.4 12.64-2.84 24.3 3.27 13.22 14.93 30 13.08 49.2 3.4-4.7 4.4-9.96 4.7-16.5.28-6.54-12.95-28.58-13.8-36.83 0-7.3-.7-17.4-1.14-20.1z" fill-rule="evenodd" stroke="#000" stroke-width="2.32" fill="#217900"/>
    <path stroke-linejoin="round" d="M141.12 242.57s-10.38 13.08-9.8 23.75c.13 7.1 13.2 36.82 11.22 42.36 3.42-4.7 4.4-4.12 4.27-11.23-3.8-18.2-10.6-29.85-9.5-36.96 1.2-7.2 4-18 3.9-18z" fill-rule="evenodd" stroke="#000" stroke-width="2.32" fill="#217900"/>
    <path stroke-linejoin="round" fill="#fff" stroke-dashoffset="1" stroke="#000" stroke-linecap="square" stroke-width="1.94" d="M318.92 123.54l25.94 79.82h83.94l-67.9 49.37 25.93 79.8-67.9-49.32-67.9 49.4 25.9-79.8-67.9-49.3H293z"/>
  </g>
</svg>
