<svg xmlns="http://www.w3.org/2000/svg" height="480" width="640" viewBox="0 0 640 480">
  <g fill-rule="evenodd" stroke-width="1pt">
    <path fill="#ce0000" d="M320 0h320v480H320z"/>
    <path fill="#fff" d="M0 0h320v480H0z"/>
  </g>
  <g transform="matrix(1.6 0 0 1.6 -12.4 -30.8)">
    <path d="M104.82 108.07c0 .8-.9 1.46-2.04 1.46-1.14 0-2.05-.65-2.05-1.46 0-.8.9-1.47 2.04-1.47 1.14 0 2.05.66 2.05 1.47z" fill-rule="evenodd" fill="#f1eeee"/>
    <path d="M40.73 100.98v37.2h37.2c0 6.2 6.2 12.4 12.4 12.4v37.22h37.22v-37.2c6.2 0 12.4-6.2 12.4-12.4h37.2v-37.22h-37.2c0-6.2-6.2-12.4-12.4-12.4v-37.2h-37.2v37.2c-6.2 0-12.4 6.2-12.4 12.4H40.72z" fill-rule="evenodd" fill="#c00"/>
    <path d="M41.97 102.22v34.73h37.2c0 6.2 6.2 12.4 12.4 12.4v37.2h34.74v-37.2c6.2 0 12.4-6.2 12.4-12.4H176v-34.73h-37.3c0-6.2-6.2-12.4-12.4-12.4v-37.2H91.6v37.2c-6.2 0-12.4 6.2-12.4 12.4H42z" fill-rule="evenodd" fill="#ffe600"/>
    <path d="M43.2 103.46v32.25h37.22c0 6.2 6.2 12.4 12.4 12.4v37.3h32.25v-37.2c6.2 0 12.4-6.2 12.4-12.4h37.2v-32.3h-37.2c0-6.2-6.2-12.4-12.4-12.4V53.9H92.82v37.2c-6.2 0-12.4 6.2-12.4 12.4h-37.2z" fill-rule="evenodd" fill="#707070"/>
    <path d="M44.45 104.7v29.77h37.2c0 6.2 6.2 12.4 12.4 12.4v37.2h29.78v-37.2c6.2 0 12.4-6.2 12.4-12.4h37.2V104.7h-37.2c0-6.2-6.2-12.4-12.4-12.4V55.1H94.06v37.2c-6.2 0-12.4 6.2-12.4 12.4h-37.2z" fill-rule="evenodd" fill="#a0a0a0"/>
    <g fill-rule="evenodd">
      <path d="M94.37 89.22c2.18 2.18.4 7.48-3.95 11.84s-9.66 6.13-11.84 3.95c-2.18-2.1-.4-7.4 3.95-11.8s9.66-6.1 11.84-3.9z" fill="#d0d0d0"/>
      <path d="M91.74 91.85c2.18 2.18 1.6 6.3-1.32 9.2s-7.03 3.5-9.2 1.33c-2.2-2.18-1.6-6.3 1.3-9.2s7.04-3.5 9.22-1.33z" fill="gray"/>
      <path d="M80.77 98.43l.88-.88 3.5 1.76-1.75-3.5.88-.8 3.5 7-7-3.5zm5.27-5.26l.87-.88 5.3 5.2-.9.9z" fill="#d0d0d0"/>
    </g>
    <g fill-rule="evenodd">
      <path d="M139.3 105c-2.17 2.2-7.47.42-11.83-3.94s-6.13-9.66-3.95-11.84c2.18-2.18 7.48-.4 11.84 3.95s6.13 9.66 3.95 11.84z" fill="#d0d0d0"/>
      <path d="M136.68 102.38c-2.18 2.18-6.3 1.6-9.2-1.32s-3.5-7.03-1.33-9.2c2.18-2.2 6.3-1.6 9.2 1.3s3.5 7.04 1.33 9.22z" fill="gray"/>
      <path d="M130.1 91.4l.88.9-1.76 3.5 3.5-1.76.9.88-7.03 3.5 3.5-7zm5.26 5.28l.88.87-5.26 5.27-.88-.88z" fill="#d0d0d0"/>
    </g>
    <g fill-rule="evenodd">
      <path d="M123.52 149.95c-2.18-2.18-.4-7.48 3.95-11.84s9.66-6.1 11.84-3.9c2.2 2.2.5 7.5-3.9 11.9s-9.6 6.2-11.8 4z" fill="#d0d0d0"/>
      <path d="M126.15 147.32c-2.18-2.18-1.6-6.3 1.32-9.2s7.03-3.5 9.2-1.33c2.2 2.1 1.6 6.3-1.3 9.2s-7.04 3.5-9.22 1.3z" fill="gray"/>
      <path d="M137.12 140.74l-.88.88-3.5-1.76 1.74 3.5-.87.9-3.5-7.03 7.1 3.5zm-5.27 5.26l-.87.88-5.27-5.26.9-.88z" fill="#d0d0d0"/>
    </g>
    <g fill-rule="evenodd">
      <path d="M78.58 134.16c2.18-2.18 7.5-.4 11.84 3.94s6.13 9.66 3.95 11.84c-2.18 2.18-7.48.42-11.84-3.94s-6.12-9.66-3.95-11.84z" fill="#d0d0d0"/>
      <path d="M81.22 136.8c2.18-2.2 6.3-1.6 9.2 1.3s3.5 7.03 1.32 9.2c-2.18 2.2-6.3 1.6-9.2-1.3s-3.5-7.03-1.33-9.2z" fill="gray"/>
      <path d="M87.8 147.75l-.88-.87 1.75-3.5-3.5 1.74-.9-.88 7.03-3.5-3.5 7zm-5.27-5.26l-.88-.9 5.26-5.3.9.9z" fill="#d0d0d0"/>
    </g>
    <path d="M269.3 414.57c0 41.1-34.12 74.4-76.2 74.4s-76.17-33.3-76.17-74.4 34.1-74.4 76.18-74.4 76.2 33.3 76.2 74.4z" transform="matrix(.3 0 0 .4 42.9 -25.5)" stroke="#707070" stroke-width="1pt" fill="none"/>
    <path d="M139.4 133.37c0 12.33-10.25 22.32-22.87 22.32s-22.85-10-22.85-22.4S103.9 111 116.53 111s22.86 10 22.86 22.33z" stroke="#707070" stroke-width=".4" fill="none"/>
    <path d="M100.27 140.67a1.24 1.24 0 1 1-2.5 0 1.24 1.24 0 0 1 2.5 0zm19.84 0a1.24 1.24 0 1 1-2.4 0 1.24 1.24 0 0 1 2.5 0zm-11.9 0v1.3h-1.6c-1.6 0-1.6 1.3 0 1.3h1.7v1.28c0 1.34 1.5 1.5 1.6.1l.1-1.4h1.7c1.7 0 1.7-1.3 0-1.3H110v-1.28c0-1.3-1.65-1.3-1.65 0z" fill-rule="evenodd" fill="#d0d0d0"/>
    <path d="M102.77 122.35v.73s-.4.56-2.87.74c-2.48.17-2.87 0-2.87 0 .07.64.55 1.85.4 3.3.1 1.68-.46 3.2-.46 3.2.06.1-.23.14-.75.1.4-.37.36-1.43.4-2.94.05-1.5-1.56-3.77-1.23-4.4.3-.62 7.3-.73 7.3-.73zm9.84-2.66c2.5-.2 6.5-.1 6.5-.1s1 1.9.9 2.9c0 1-.3 1.9-.8 1.5-.4-.5.2-.4.3-1.5.1-1.2-.8-2.3-.8-2.3s-1.7.7-4.3.6c-2.6-.2-1.4-1.1-1.7-1.2z" fill-rule="evenodd" stroke="#707070" stroke-width=".15" fill="#d0d0d0"/>
    <path d="M113.43 121.58c2.4-.1 4 .26 4 .26s.95 1.9.9 2.97c-.03 1.1-.36 2-.8 1.6-.46-.4.2-.3.28-1.5.1-1.1-.7-2.3-.7-2.3s-1.7.8-4.3.6c-2.6-.1-1.8-.3-2.1-.3-.3 0-.3.7-4.3.9-3.9.1-5.9-.8-5.9-.8s-.4.6-2.8.8c-2.5.2-2.9 0-2.9 0 .1.7.6 1.9.4 3.3.1 1.7-.4 3.2-.4 3.2.1.1-.2.2-.7.1.4-.3.4-1.4.4-2.9.1-1.5-1.5-3.7-1.2-4.4.4-.6 2.1 0 2.5-.3.3-.3-1.6-2.6-1.2-4.8.4-2.1 2.4-1.5 5-1.4 2.5.1 8 .8 9.4 0 1.3-.7.8-3.4 2-5.1.8-1.1 2.1-1.4 3.3-1.4.8 0 2.1 2.9 2.1 3.7l-.4.4h-.4v.4c-.9.1-1-.8-1.6-1.4-.2 1 .8 4.4.8 6.6 0 1.8-.7 2.6-.8 2.5z" fill-rule="evenodd" stroke="#707070" stroke-width=".15" fill="#d0d0d0"/>
    <path d="M105.54 118.4c.03.73-3.17 2.37-3.43 3.02-.2.65.9 1 .5 1.37-.3.3-.6.2-.6.3l-1.2-2.6s3-1.4 2.9-2c-.1-.6-2.2-1-2.6-2.4s-.1-4.4-.4-4.9c-.3-.6-4-1.2-4-2.1 0-.9 3.8-3.4 4.2-3.8.4-.4.8.3.4.7-.4.3-3.3 2.6-3.3 3 0 .3 2.5.7 3.3.7.8 0 1.2-.4 1.2-.8 0-.3-.8-.4-.8-1.1s.4-1.1 1.3-1.1c.4 0 1.2.5 1.2 1.1s-.7.7-.8 1.1c-.1.4.8.7 1.7.7s3.7 2.1 4.1 2.5c.4.3.8.3.4.7s-.1.8-.5.4c-.3-.4-.4-.8-.4-.8 0-.3-3-1.8-3.4-1.5-.4.3 0 4.7 0 5.1 0 .7.8.7.8 1.8z" fill-rule="evenodd" stroke="#707070" stroke-width=".15" fill="#d0d0d0"/>
    <path fill-rule="evenodd" fill="#a7a7a7" d="M100.32 109.9h4.92v5.13h-4.92z"/>
    <rect transform="matrix(.6 .8 -.9 .5 0 0)" fill-rule="evenodd" rx=".45" ry=".2" height=".4" width="30.65" y="-25.67" x="138.6" fill="gray"/>
    <path d="M98.77 105.75a.7.7 0 1 1-1.42 0 .7.7 0 0 1 1.42 0z" fill-rule="evenodd" stroke="#707070" stroke-width=".1pt" fill="#d0d0d0"/>
    <path d="M115.88 112.54c0 .3-1.9.66-4.1.66-2.2 0-4.1-.36-4.1-.66 0-.3 1.9.44 4.1.44 2.2 0 4.1-.74 4.1-.44z" fill-rule="evenodd" fill="gray"/>
    <path fill-rule="evenodd" fill="#a7a7a7" d="M100.73 115.03h4.1v1.47h-4.1z"/>
    <path d="M114.05 111.42c-.4.74-.78 1.27-.84 1.18 0-.1.2-.76.6-1.5.4-.75.8-1.28.9-1.2.1.1-.2.77-.6 1.52zm1.03 1.92c-.45.4-.83.66-.84.58 0-.08.35-.47.8-.87.45-.4.83-.65.84-.57 0 .08-.34.47-.8.86z" fill-rule="evenodd" fill="gray"/>
    <path d="M114.56 112.4c.34.62.56 1.13.5 1.16-.07.03-.4-.44-.72-1.05-.34-.6-.56-1.1-.5-1.1.07 0 .4.5.72 1.1zm-.32 3.18c0 .1-1.28.2-2.86.2s-2.87-.1-2.87-.2 1.3-.18 2.9-.18c1.6 0 2.9.08 2.9.18zm-9.42-.36c0 .1-.9.18-2.04.18-1.14 0-2.05-.08-2.05-.2 0-.08.9-.17 2.04-.17 1.14 0 2.05.08 2.05.18z" fill-rule="evenodd" fill="gray"/>
    <path d="M95.8 127.96s.7 1.64 3.57 1.67c2.88.02 3.87-.5 2.7-1.37s-3.33-.6-3.05.15c.28.8-.8 1.1-1.07.5-.25-.5-1.3-2.1.57-2.2 1.85-.1 5.78-.6 6.77.4.9 1.1-1.2 2.1.4 2.4 1.6.3 1.8-.2 4.5-.4 2.7-.1 3.7.5 4.7.5.9-.1.8-1.7 0-2.1-.8-.4-2.2-.5-2.5-.9-.4-.4-1.4-.1-1.3-.6.1-.5 1.4.4 1.4.1l.2-.2c-.2 0-.3 0-.4.1.1-.1.1-.1.1-.2 0 0-.2.2-.2.1l.1-.1c-.1.1-.3.2-.3.1l.1-.1c-.1 0-.3 0-.3.1.1-.1.1-.1 0-.2s-.2-.1-.4.1c.1-.2.1-.3-.1-.3-.2-.1-.2-.2-.3.2 0-.4-.1-.4-.1-.6 0-.15.2-.2.6-.2.7 0 1 .8 1.2.8.2 0 .5-.85 1.4-.5.92.35 1.1.4 1.52.6s-.35.5-.07.95c.3.4 2.14 1.76 1.6 3.17-.5 1.4-1.9 1.6-2 2.24-.13.6 4.3.37 5.44.57 1.15.2 1.86 1.08 1.9 1.2.06.17-1.97.16-1.97.16s-1-.5-3.5-.6c-2.5 0-3.43-1-4.4-1.14-.9-.1-2.9.2-4 .1s-2.2-.2-2.9-.3c-.8-.1-4.3 1.6-4.3 2-.8 0-2.5-.1-2.5-.02.1.1.38-.73 1.7-.9 1.4-.12 2.7-.8 2.7-1.2-.03-.47.3-1.9.4-2.6.1-.6.6-.9.5-1.22-.13-.34-1.7-.7-3.2-.7-1.5 0-3.14.1-3.4.5-.23.3-.04 1.4.27 1.3.3-.2-.03-.8.3-1 .3-.15 1.15-.3 1.9-.3.8 0 2.2.7 2.2.9 0 .2.45.94-.2 1.2s-1.9.4-3.13.34-2.5-.5-2.9-.74c-.47-.3-.7-1.1-.7-1.13z" fill-rule="evenodd" stroke="gray" stroke-width=".08" fill="#d0d0d0"/>
    <path d="M114.05 125.53a.33.33 0 1 1-.65 0 .33.33 0 0 1 .65 0z" fill-rule="evenodd"/>
    <path d="M129.5 120.77l1.6.34 2.67-1.8-.2 1-1.4.9c-.25.2-.5.4-.76.5.2.2.4.5.6.8l.9 1.4-.2.9-1.6-2.8-1.6-.3.2-.8zm-2.7-11.73l3.08-1.42-.84-1.82.4-.2 2.03 4.4-.4.18-.86-1.83-3 1.42-.3-.73zm-4.8-5.8l2.85-2.6.56.6v4.4l2.3-2.05.5.5-2.8 2.6-.5-.6.1-4.4-2.2 2-.5-.6zm-12.4-5.03l.46-3.8.8.1-.42 3.4 2.98.4-.06.5-3.77-.4zm-6.12.6l-.7-3.8.8-.1.6 3.4 2.96-.5.08.5-3.74.7zm-11.28 5.6l-.3-.3 2.02-1.6.9 1.2a5.7 5.7 0 0 1-.67 1.1c-.27.4-.58.7-.92 1-.47.4-.94.7-1.43.9-.48.2-.9.2-1.3.2a1.6 1.6 0 0 1-.93-.5 1.7 1.7 0 0 1-.37-1.1c0-.4.12-.8.38-1.2.27-.4.64-.8 1.1-1.2a4.8 4.8 0 0 1 1.02-.6c.34-.1.64-.2.9-.2.25 0 .5.07.75.2l-.5.56a1.3 1.3 0 0 0-.54-.14c-.1 0-.3.05-.6.16a3.2 3.2 0 0 0-.7.47c-.3.28-.5.5-.7.7l-.3.67v.5c.1.3.2.55.3.76.2.26.5.4.8.5.3.06.6 0 1-.1.4-.15.7-.35 1-.6.3-.2.6-.46.8-.7.2-.3.4-.5.4-.7l-.4-.6-1.4 1.1zm-.13 27.7l-3.14 2.3-2.38-3.3.37-.2 1.9 2.7.98-.7-1.65-2.3.37-.3 1.65 2.3 1.43-1 .47.7zm-4.63-5c.45-.1.75-.4.9-.8.15-.4.14-.9-.02-1.5-.17-.6-.43-1-.8-1.3-.36-.3-.78-.4-1.26-.2a1.36 1.36 0 0 0-.72.5c-.18.3-.3.5-.33.9 0 .4 0 .7.2 1.1.2.6.4 1 .8 1.3.4.4.8.4 1.4.3zm.22.8c-.62.2-1.17.1-1.67-.4-.5-.4-.9-1-1.1-1.8-.2-.5-.2-1-.2-1.5s.2-.8.4-1.2a1.63 1.63 0 0 1 .9-.6c.4-.1.7 0 1.1.1.3.2.7.5.9.9.3.4.5.9.6 1.4.1.6.2 1.1.1 1.6s-.2.9-.4 1.2c-.3.3-.6.5-.9.6zm.32-7.8l-3.85-.1.06-2.6c0-.5 0-.9.1-1.2.1-.3.2-.5.4-.6a.82.82 0 0 1 .6-.2c.2 0 .5.2.6.5.2.3.3.7.3 1.3l.2-.5c.1-.2.3-.4.5-.6L88 115l-.1 1-.8.8c-.3.23-.4.4-.6.57l-.3.4c-.1.16-.1.28-.1.4-.1.1-.1.25-.1.45v.9h1.7v.8zm-2.13-.8l.04-1.7a4.07 4.07 0 0 0-.1-.8c-.1-.2-.1-.4-.2-.5a.48.48 0 0 0-.4-.1c-.2 0-.4.1-.5.3-.2.2-.2.6-.2 1l-.1 2h1.3zm10.7-16.9l.03-4.5.74-.4 4.12 2.1-.8.5-1.2-.6-2.18 1.3.02 1.4-.73.4zm.7-2.2L99 98.9l-1.08-.6a8.26 8.26 0 0 1-.78-.46c.06.25.1.52.1.8v1.3zm18.6-1.2l4.15-2 .7.5-.25 4.6-.74-.5.2-1.3-2-1.5-1.2.5-.7-.5zm2.35-.2l1.67 1.2.1-1.2a8.44 8.44 0 0 1 .13-.9 3.7 3.7 0 0 1-.7.4l-1.2.6zm10.3 14.3l3.75-.9.63 2.7c.12.5.18.9.18 1.2 0 .3-.07.5-.2.7a.82.82 0 0 1-.5.4c-.27.1-.53 0-.77-.2-.3-.2-.5-.6-.7-1.1a2.46 2.46 0 0 1-.1.5c-.1.3-.2.6-.4.8l-.8 1.3-.3-1 .6-.9.4-.7.1-.5v-.4a3.72 3.72 0 0 0-.1-.4l-.2-.9-1.7.4-.2-.8zm2.28.3l.4 1.7c.1.4.18.7.27.9.1.2.2.4.34.4.1.1.2.1.3.1.2 0 .3-.2.3-.4s0-.5-.1-1l-.5-1.9-1.3.3z" fill="#d0d0d0"/>
  </g>
</svg>
