<svg xmlns="http://www.w3.org/2000/svg" xmlns:xlink="http://www.w3.org/1999/xlink" height="480" width="640" viewBox="0 0 640 480">
  <defs>
    <linearGradient y2="283.42" x2="500.63" y1="289.06" x1="498.74" gradientUnits="userSpaceOnUse" id="f">
      <stop offset="0" stop-color="#510000"/>
      <stop offset=".3" stop-color="#8a0000"/>
      <stop offset="1" stop-color="#a00"/>
    </linearGradient>
    <linearGradient y2="287.45" x2="502.93" y1="291.37" x1="501.44" gradientUnits="userSpaceOnUse" id="g">
      <stop offset="0" stop-color="#ff2a2a"/>
      <stop offset="1" stop-color="red"/>
    </linearGradient>
    <linearGradient y2="317.65" x2="484.76" y1="311.71" x1="484.76" gradientUnits="userSpaceOnUse" id="b">
      <stop offset="0" stop-color="#F5F549"/>
      <stop offset="1" stop-color="#97C924"/>
    </linearGradient>
    <linearGradient id="a">
      <stop offset="0" stop-color="#025"/>
      <stop offset=".5" stop-color="#04a"/>
      <stop offset="1" stop-color="#025"/>
    </linearGradient>
    <linearGradient y2="317.49" x2="634.41" y1="317.49" x1="444.51" gradientUnits="userSpaceOnUse" xlink:href="#a" id="h"/>
    <clipPath id="c">
      <path d="M500 226.38L436.3 336.7h127.4z"/>
    </clipPath>
    <linearGradient xlink:href="#a" id="o" gradientUnits="userSpaceOnUse" x1="444.51" y1="317.49" x2="634.41" y2="317.49"/>
    <linearGradient xlink:href="#a" id="p" gradientUnits="userSpaceOnUse" x1="444.51" y1="317.49" x2="634.41" y2="317.49"/>
    <linearGradient xlink:href="#a" id="q" gradientUnits="userSpaceOnUse" x1="444.51" y1="317.49" x2="634.41" y2="317.49"/>
    <linearGradient xlink:href="#a" id="r" gradientUnits="userSpaceOnUse" x1="444.51" y1="317.49" x2="634.41" y2="317.49"/>
    <linearGradient xlink:href="#b" id="u" gradientUnits="userSpaceOnUse" x1="484.76" y1="311.71" x2="484.76" y2="317.65"/>
    <linearGradient xlink:href="#a" id="x" gradientTransform="scale(4.5 .2)" x1="98.9" y1="1440.15" x2="124.97" y2="1440.15" gradientUnits="userSpaceOnUse"/>
    <linearGradient xlink:href="#a" id="j" gradientUnits="userSpaceOnUse" x1="444.51" y1="317.49" x2="634.41" y2="317.49"/>
    <linearGradient xlink:href="#a" id="l" gradientUnits="userSpaceOnUse" x1="444.51" y1="317.49" x2="634.41" y2="317.49"/>
    <linearGradient xlink:href="#a" id="m" gradientUnits="userSpaceOnUse" x1="444.51" y1="317.49" x2="634.41" y2="317.49"/>
    <linearGradient xlink:href="#a" id="i" gradientUnits="userSpaceOnUse" x1="444.51" y1="317.49" x2="634.41" y2="317.49"/>
    <linearGradient xlink:href="#b" id="s" gradientUnits="userSpaceOnUse" x1="484.76" y1="311.71" x2="484.76" y2="317.65"/>
    <linearGradient xlink:href="#b" id="v" gradientUnits="userSpaceOnUse" x1="484.76" y1="311.71" x2="484.76" y2="317.65"/>
    <linearGradient xlink:href="#a" id="y" gradientUnits="userSpaceOnUse" gradientTransform="scale(9.1 .1)" x1="47.85" y1="3054.21" x2="61.74" y2="3054.21"/>
  </defs>
  <path fill="#0067c6" d="M0 0h640v480H0z"/>
  <path fill="#fff" d="M0 160h640v160H0z"/>
  <path d="M248 239.46l7.98.54.08-1.17-3.14-.2c.08-1.3.2-2.57.25-3.86l3.33-2.4.1-1.5-3.52 2.56c-.12-.83-.57-1.7-1.4-1.98-.74-.26-1.63-.3-2.27.22-.8.6-.9 1.64-1 2.56l-.3 5.23zm1.22-1.1c.1-1.3.15-2.6.28-3.92.1-.64.2-1.4.78-1.8.5-.34 1.27-.1 1.48.5.4 1 .23 2.1.18 3.13l-.15 2.27-2.6-.17zm-.18-11.16l7.8 1.82 1.76-7.58-1.1-.26-1.5 6.45-2.38-.55 1.35-5.8-1.1-.27-1.36 5.9-2-.5 1.5-6.2-1.1-.2-1.7 7.4zm2.8-10.46l7.56 2.63.4-1.1-3-1.04c.4-1.14.83-2.27 1.18-3.42.26-.9.46-2-.1-2.9-.45-.6-1.25-1-2.04-1-.87.1-1.58.7-1.96 1.4-.57 1.1-.9 2.3-1.3 3.4l-.73 2.1zm1.47-.73c.4-1.1.8-2.2 1.2-3.4.3-.6.7-1.3 1.3-1.5.6-.1 1.2.4 1.3.9.2 1.1-.3 2.1-.6 3.1l-.6 1.8-2.4-.8zm2.8-8.9c1.4.8 2.9 1.7 4.3 2.5.8.5 1.9.7 2.7.2 1.2-.6 1.9-1.8 2.5-2.9.5-.9.8-2.1.2-3.1-.6-1-1.7-1.4-2.6-2l-2.7-1.6-.6 1 4.1 2.4c.7.4 1.2 1.1 1.1 1.9-.1 1-.6 1.8-1.2 2.6-.4.6-1.2 1.1-2 1-.8-.2-1.5-.7-2.2-1.1l-2.7-1.6-.5 1zm5.8-9.4l6.4 4.9c1-1.3 2-2.5 3-3.8.6-.8 1.1-1.9.7-2.9-.3-.8-1.1-1.4-2-1.4-.4 0-.9.3-1.1.4.2-.8-.5-1.6-1.3-1.9-.9-.3-1.9.3-2.5 1-.7.8-1.3 1.7-2 2.6l-1 1.4zm1.6-.2c.8-.9 1.5-1.9 2.3-2.8.4-.4 1-.8 1.5-.5.5.2.7.9.4 1.4-.4.9-1 1.5-1.5 2.3l-.8 1.2-1.7-1.3zm2.6 2c.8-1 1.5-2 2.3-2.9.5-.4 1-1 1.6-.8.6.2 1 .8.8 1.3-.3 1.1-1.1 1.9-1.7 2.8l-1 1.3-1.9-1.5zm3-10.2l5.5 5.8 4.7-4.4-.8-.8-3.7 3.6-.1.1v-.1l-4.6-4.9zm7.1-6.1l4.9 6.4 1-.7-4.8-6.3zm7.2-4.8c-.8.5-1.4 1.1-1.9 1.8s-.7 1.4-.8 2.1c0 .8.2 1.5.6 2.2a4.12 4.12 0 0 0 1.6 1.5 3.6 3.6 0 0 0 2.2.4c.8-.1 1.6-.4 2.6-1 .9-.6 1.6-1.2 2-2 .4-.7.5-1.5.3-2.3l-1.1.5c.3 1.6-.7 2.4-1.9 3.1-1.8 1.1-3.5 1-4.6-.6-1.1-1.9.1-3.4 1.7-4.4 1.1-.7 2.2-1.1 3.2-.5l.8-.8a3.2 3.2 0 0 0-2-.6c-.8.1-1.6.4-2.5.9zm9.5-4.7l-.8 9 1.3-.5.3-2.7 4.1-1.6 2.1 1.8 1.3-.5-6.8-5.9-1.2.5zm1.1.9l2.7 2.3-2.9 1.2.3-3.5zm16.5-5.8l.5 8 4.3-.3c1.2-.1 2.4-.4 3.2-1.3 1-1.1 1.2-2.7.7-4.1-.3-1.2-1.4-2.1-2.7-2.3-1.2-.2-2.4 0-3.7 0l-2.2.2zm1.2 1.1c1.2 0 2.3-.2 3.5-.2a2.94 2.94 0 0 1 1.8.6c.8.6 1.3 1.6 1.2 2.5 0 1.2-.9 2.2-1.9 2.5-.6.2-1.2.2-1.9.3l-2.2.2-.3-5.7zm10-1.5l-.4 8 7.8.4.1-1.1-6.6-.4.2-2.4c2 .1 4 .2 6 .4l.1-1.1-5.9-.3c0-.7.1-1.4.1-2.2l6.4.4.1-1.1-7.53-.4zm20.9 3.3l-2.9 7.5 1 .4 2.3-5.9.1-.3.2.4 2.8 8 1.4.5 2.9-7.4-1-.4-2.3 5.9-.1.3-.1-.3-2.8-8zM353 176l-3.64 7.14-1.08-.54 3.63-7.13zm6.03 3.55c-.77-.5-1.56-.84-2.37-1-.8-.17-1.57-.12-2.25.15-.7.27-1.2.74-1.7 1.42a4.12 4.12 0 0 0-.6 2.05c0 .75.2 1.45.6 2.1.4.68 1.1 1.33 2.1 1.96.9.6 1.8.93 2.7.98a3.45 3.45 0 0 0 2.3-.6l-.8-.8c-1.3 1-2.4.3-3.6-.4-1.7-1.2-2.4-2.8-1.4-4.5 1.2-1.8 3.1-1.3 4.7-.3 1.1.7 2 1.5 1.8 2.7l1.1.5c.1-.7 0-1.4-.3-2.1-.4-.7-1-1.3-1.9-1.9zm7.63 5.76l-8.38 3.4 1 .9 2.6-1 3.3 2.9-.67 2.7 1 .9 2.2-8.7-1-.9zm-.33 1.4l-.83 3.4-2.42-2.1 3.27-1.3zm6.37 4.2l-6.16 5.1.73.9 2.43-2c.8 1 1.6 2 2.45 3l-.77 4.1.93 1.2.8-4.2c.7.6 1.7.9 2.6.4.7-.3 1.4-.9 1.4-1.8.1-1.1-.7-2-1.3-2.8l-3-3.6zm-.13 1.7c.87 1.1 1.77 2.1 2.6 3.2.4.6.86 1.4.42 2.1-.4.6-1.2.5-1.7.2-1-.7-1.7-1.7-2.4-2.5l-1-1.2 2-1.6zm9.5 11.1l-9 .4.67 1.2 2.78-.1 2.2 3.8-1.53 2.4.6 1.2 4.9-7.6-.7-1.1zm-.76 1.2l-1.9 3-1.6-2.8 3.5-.1zm5.9 9.4c-.5-1.3-1.3-2.7-2.6-3.4-1.5-.7-3.4-.4-4.5 1-.9 1.1-.9 2.7-.7 4 .3 1.5 1 3 2.1 4.2l-.6.2.4 1.1 3.7-1.3-1.4-4-.8.3 1.1 3-1.3.5c-1.1-1-1.7-2.4-2.1-3.8-.2-1.1-.2-2.3.6-3.2.9-1 2.6-1.3 3.7-.4 1.1.8 1.8 2.1 2.1 3.4.2.8.2 1.8-.4 2.5-.1.1.1.3.2.5l.3.5a2.82 2.82 0 0 0 1-2.3c.1-.8-.1-1.7-.4-2.5zm2.3 6.3l-4.5.9c-.8.2-1.4.5-1.8.8-.4.4-.6.9-.8 1.5-.1.7-.1 1.5.1 2.4a.2.2 0 0 1 0 .1c.2 1 .5 1.7.8 2.3.4.6.8.9 1.3 1.1.5.2 1.2.2 2 0l4.5-.8-.2-1.1-4.3.9c-1.9.4-2.6-.7-2.9-2.4v-.1c-.3-1.8-.1-3 1.9-3.4l4.4-.9-.2-1.1zM392 234l-8.27-3.53.1 1.34 2.57 1.1.3 4.4-2.38 1.5.1 1.4 7.68-4.7-.1-1.3zm-1.2.77l-3 1.83-.23-3.2 3.24 1.36zM254.3 254.7l-1.15.3 1.27 4.9 1.16-.3zm131.64 0l1.15.3-1.3 4.9-1.2-.3zm-119.3 20.53l-8.96 1.02.75 1.12 2.76-.33 2.4 3.66-1.4 2.43.7 1.1 4.3-7.88-.8-1.1zm-.7 1.25l-1.7 3.08-1.8-2.67 3.5-.4zm4.1 3.63l-5.7 5.4.77.9 4.8-4.5-2.5 7 .9.9 6.9-2.1-4.7 4.5.8.8 5.7-5.3-1.1-1.2-7 2.1 2.6-6.8zm8.3 8.5l-4.8 6.4 6.2 4.7.7-.9-5.3-4 1.48-1.9 4.77 3.6.6-.9-4.8-3.6 1.3-1.7 5.1 3.9.6-.9-6-4.5zm7.84 5.8l-3.77 7.1 1.1.6 1.5-2.8c1.2.6 2.3 1.3 3.4 1.8l.9 4.1 1.3.7-.9-4.2c.9.3 1.9.2 2.5-.6.5-.5.9-1.3.6-2.1-.3-1-1.3-1.6-2.2-2.1l-4.3-2.3zm.5 1.6c1.2.7 2.43 1.3 3.6 2 .56.4 1.26.9 1.2 1.7-.07.7-.78 1-1.38.9-1.16-.2-2.15-.9-3.2-1.4l-1.44-.8 1.24-2.2zm8.54 3.2l-3.03 7.4 1.1.5 3-7.4zm7.2 2.5c-.87-.3-1.72-.4-2.55-.3-.83.1-1.54.3-2.12.8-.6.5-1 1.1-1.25 1.8a4.12 4.12 0 0 0-.13 2.2c.18.8.5 1.4 1.1 1.9.55.6 1.37 1 2.46 1.4 1.04.4 1.98.5 2.83.3a3.44 3.44 0 0 0 2.03-1.2l-1.1-.5c-1.1 1.3-2.3 1-3.6.6-2-.7-3.1-2.1-2.5-4 .7-2 2.7-2.1 4.4-1.5 1.2.4 2.2.9 2.4 2.1l1.1.2a3.2 3.2 0 0 0-.9-1.9c-.6-.6-1.3-1.02-2.3-1.4zm8.05 1.8l-5.23 7.3 1.3.2 1.62-2.2 4.32.6.9 2.7 1.33.2-2.9-8.5-1.3-.2zm.5 1.4l1.13 3.3-3.18-.4 2.04-2.8zm18.26-1.3c-.93.2-1.73.5-2.43 1-.7.5-1.2 1-1.5 1.7-.28.7-.36 1.4-.2 2.2.14.7.46 1.4.95 2 .5.6 1.1 1 1.88 1.2.75.2 1.7.2 2.8 0 1.1-.2 1.95-.5 2.6-1.1a3.44 3.44 0 0 0 1.16-2.1h-1.2c-.3 1.6-1.6 2-2.9 2.3-2.1.4-3.7-.3-4.1-2.2-.4-2.12 1.3-3.12 3.1-3.5 1.2-.2 2.4-.26 3.1.7l1.1-.4a3.18 3.18 0 0 0-1.7-1.25c-.8-.2-1.7-.3-2.7-.1zm5.33-.9c.76 2.6 1.5 5.2 2.27 7.7l7.44-2.2-.33-1.1-6.33 1.9-.7-2.3 5.8-1.7-.3-1.1-5.7 1.7-.6-2 6.1-1.8-.3-1.1-7.2 2.2zm8.65-2.7l3.4 7.3 1-.4-2.8-6 7.8 3.6c.2.2.4.1.5 0l1-.4-3.3-7.3-1 .5 2.8 6-7.9-3.6-1.3.6zm8.8-4.1l.6 1 2.9-1.9h.1l.1.1 3.8 5.7 1-.6-3.7-5.6v-.1l.1-.1 2.9-1.9-.6-.9zm8.1-5.5l5.5 5.9.9-.8-2.1-2.3c1-.8 1.9-1.7 2.8-2.6l4.1.6 1.1-1-4.3-.6c.5-.7.8-1.7.3-2.5-.4-.7-1-1.3-1.9-1.3-1.1 0-1.9.8-2.7 1.5l-3.5 3.2zm1.7.1c1.1-.9 2-1.9 3.1-2.7.6-.4 1.3-.9 2-.5.6.4.6 1.2.3 1.7-.6 1-1.6 1.7-2.4 2.6l-1.1 1-1.7-1.9zm7.7-9.3l3.6 8.3.9-1-1.1-2.5 2.8-3.3 2.8.6.9-1-8.8-1.9-.8 1.1zm1.5.3l3.5.8-2 2.5-1.4-3.2zm2.1-4.8l6.7 4.4 3.6-5.4-.9-.6-2.8 4.3-.1.1h-.1l-5.6-3.6z" fill="#c8a400"/>
  <g clip-path="url(#c)" transform="matrix(.8 0 0 .8 -80 0)">
    <path d="M500 226.4l-31.48 54.54-15.42 26.7h93.8l-14.7-25.48L500 226.4z" fill="#fff"/>
    <g id="e">
      <g id="d">
        <path d="M500 226.4l-2.36 4.1 2.36 54.97 2.36-54.98z" opacity=".62" fill="#17c0eb" stroke="#17c0eb" stroke-width=".13"/>
        <path d="M500 277.48h-.13l.13 3.1.14-3.1H500z" fill="#fff"/>
      </g>
      <use height="100%" width="100%" xlink:href="#d" transform="rotate(72 500 285.5)"/>
      <use height="100%" width="100%" xlink:href="#d" transform="rotate(144 500 285.5)"/>
      <use height="100%" width="100%" xlink:href="#d" transform="rotate(-144 500 285.5)"/>
      <use height="100%" width="100%" xlink:href="#d" transform="rotate(-72 500 285.5)"/>
    </g>
    <use height="100%" width="100%" xlink:href="#e" transform="rotate(8 500 285.5)"/>
    <use height="100%" width="100%" xlink:href="#e" transform="rotate(16 500 285.5)"/>
    <use height="100%" width="100%" xlink:href="#e" transform="rotate(24 500 285.5)"/>
    <use height="100%" width="100%" xlink:href="#e" transform="rotate(32 500 285.5)"/>
    <use height="100%" width="100%" xlink:href="#e" transform="rotate(40 500 285.5)"/>
    <use height="100%" width="100%" xlink:href="#e" transform="rotate(48 500 285.5)"/>
    <use height="100%" width="100%" xlink:href="#e" transform="rotate(56 500 285.5)"/>
    <use height="100%" width="100%" xlink:href="#e" transform="rotate(64 500 285.5)"/>
    <path d="M500 265.84a44.24 44.24 0 0 0-28.97 10.75L456.38 302c-.5 2.67-.75 5.43-.75 8.25h5.03c0-21.73 17.62-39.34 39.34-39.34 21.73 0 39.34 17.7 39.34 39.4h5.03c0-2.8-.24-5.6-.75-8.2l-14.65-25.4A44.25 44.25 0 0 0 500 265.9z" fill="red"/>
    <path d="M500 266.66c-11.76 0-22.44 4.67-30.28 12.25l-12.02 20.9a43.6 43.6 0 0 0-1.3 10.5h4.23c0-21.7 17.6-39.3 39.34-39.3 21.72 0 39.33 17.6 39.33 39.4h4.26a43.86 43.86 0 0 0-1.3-10.5L530.24 279c-7.84-7.6-18.52-12.27-30.28-12.27z" fill="#f60"/>
    <path d="M500 267.47c-12.7 0-24.1 5.52-31.94 14.3l-8.72 15.1a42.73 42.73 0 0 0-2.12 13.38h3.43c0-21.73 17.62-39.34 39.35-39.34 21.72 0 39.34 17.7 39.34 39.4h3.44c0-4.6-.74-9.1-2.12-13.3l-8.72-15.1c-7.84-8.8-19.24-14.3-31.94-14.3z" fill="#ff0"/>
    <path d="M500 268.25c-14.55 0-27.37 7.4-34.9 18.66l-2.82 4.9a41.82 41.82 0 0 0-4.28 18.5h2.66c0-21.7 17.6-39.3 39.34-39.3 21.73 0 39.34 17.7 39.34 39.4H542a41.82 41.82 0 0 0-4.28-18.4l-2.85-4.9c-7.53-11.2-20.33-18.6-34.87-18.6z" fill="#0f0"/>
    <path d="M500 269.06c-22.75 0-41.2 18.44-41.2 41.2h1.86c0-21.74 17.6-39.35 39.34-39.35 21.73 0 39.34 17.7 39.34 39.4h1.85c0-22.7-18.5-41.2-41.2-41.2z" fill="#0cf"/>
    <path d="M500 269.84c-22.3 0-40.38 18.1-40.38 40.4h1.35c0-21.55 17.47-39.02 39.03-39.02 21.56 0 39.03 17.47 39.03 39.03h1.38c0-22.3-18.1-40.4-40.4-40.4z" fill="#00f"/>
    <path d="M500 270.66c-21.86 0-39.6 17.72-39.6 39.6l.02.72h.8v-.74c0-21.42 17.36-38.78 38.78-38.78s38.8 17.36 38.8 38.8c0 .23 0 .48-.02.72h.8v-.74c0-21.86-17.72-39.6-39.58-39.6z" fill="purple"/>
    <path d="M500.4 288.13c-.65-.12-1.23-.48-1.78-.6-.76.72-.83 1.45-.73 2.07.2.14.3.36.8.86s.5.78.4 1.97c0 .5 0 1.58.6 1.68.5.2.9-.3 1.1-1.1.1-.8.4-1.2.7-1.7.3-1.8-.2-2.5-1.2-3.1z" fill="#510000"/>
    <path d="M497.17 283.52c-.6.02-1.53 1.02-1.95.48-.24-.3-.28-.9-.03-1.4.5-1.15 1.1-1.72 2.1-2.33 2.3-1.4 3.9-.95 5 1.06 1.1 1.77 2.1 3.73 2.2 5.37 0 .5.3 1.4-.2 1.86-1.4 1.4-4.6-1.43-6.5-1-.7.16-1.4.63-2 .23-.5-.4-.1-1 .2-1.3.6-.6 1.5-2.4 1.4-3.2-.1-.5-.1.2-.6.2z" fill="red"/>
    <path d="M496.93 282.55c-1.1.44-.97 1.07-1.5 1.6.14.05.75.3 1.35-.3.26-.23.55-.3.68-.38-.3.22-.52.56-.68.7-.4.32-1.04 1.07-1.34 1.83-.3.77-.43 1.68-.38 1.8.06.1.43.77 1.57 1.22 2.03.8 2.4 2.44 4.47 2.44 1.62 0 1.36-1.06 2.65-.84 1.12.2 1.7-.7.63-1.23-1.37-.5-4.1-.2-5.37 0-.4-4.1 0-2.7-.1-4.4-.1-1.8-.6-1.9.1-3.3-.5.9-1.2.7-2 .8z" fill="url(#f)"/>
    <path d="M500.94 279.8c-.04.22-.08.5-.06.6.1.34.18.7.28 1 .1.32.16.57.24.92.08.36.4.5.7.72.36.28.08 1.03.3 1.07.2.1.5-1 .5-1.2 0-.2 0-.4-.04-.6a15.3 15.3 0 0 0-.42-.8 3.65 3.65 0 0 0-.2-.3 4.2 4.2 0 0 0-.8-.8h-.05a3.94 3.94 0 0 0-.3-.2l-.2-.1z" fill="#ff2a2a"/>
    <path d="M501.25 287.4c-.72-.2-1.43-.54-2.04-.73-1.2-.36-2.4-1.13-3.3-.8-.3.13-.3.44-.4.9 0 .53-.6 1.32-.1 1.06.7-.38 2.5.73 3.1 1.1.3.18.9.53 1.1 1.03.2.5.1 1.75.1 2.3 0 .56.1 1.83.7 1.98.6.16 1.1-.32 1.4-1.23.2-.8.4-1.3.8-1.9s.8-.7 1.4-.8c.6-.1 1.4.5 1.4-.2 0-.4-.4-.8-.2-1.4.1-.5-.4-.4-.9-.6-1-.3-2-.4-2.7-.6z" fill="url(#g)"/>
    <path d="M498.36 288.9c-.32-.18-2.3-1.48-3.04-1.07-.23.13-.32 0-.32-.26 0-.24.1-.6.18-.86.08-.2.2-.7.52-1 .7-.6 2.27.6 3.1.9-.06.5-.46 2.4-.44 2.4z" fill="#910000"/>
    <path d="M501.76 291.36c.92-1.6 1.5-1.4 2.62-1.37.37 0 .47-.4.4-.7-.3.6-1.67-.1-2.43.2-1.57.7-1.28 3.7-2.02 4 .77.6 1.12-1.8 1.43-2.3z" fill="#ff3a3a"/>
    <g fill="url(#h)">
      <path d="M453.1 307.64l-9.95 17.24h113.7l-9.95-17.23h-93.8z" fill="#fff"/>
      <g id="n" fill="url(#i)">
        <path id="k" d="M449.7 321.36c-1.65 0-3.2.17-4.7.36l-.5.84c2.44-.2 4.7-.65 7.15-.7 3.3.07 6.28.82 9.78.82 1.52.02 3.03-.03 4.53 0 3.5 0 6.5-.75 9.78-.83 3.3.08 6.3.83 9.8.83 1.53 0 3.2-.02 4.54 0 3.5 0 6.47-.75 9.76-.83 3.3.08 6.27.83 9.77.83 1.6.02 3.1-.03 4.6 0 3.5 0 6.5-.75 9.8-.83 3.3.08 6.3.83 9.8.83 1.5.02 3.1-.03 4.6 0 3.5 0 6.5-.75 9.8-.83 2.6.07 4.9.52 7.5.73l-.5-.9c-1.4-.16-2.8-.3-4.3-.3-1.5-.04-3 .02-4.5 0-3.5 0-6.4.73-9.7.8-3.3-.07-6.2-.82-9.8-.82-1.5-.02-3 .04-4.5 0-3.5 0-6.5.75-9.8.83-3.2-.1-6.2-.9-9.7-.9H498c-3.5 0-6.5.7-9.78.8-3.3-.1-6.27-.9-9.77-.9h-4.52c-3.5 0-6.5.7-9.77.8-3.3-.1-6.3-.9-9.8-.9h-4.55z" fill="url(#j)"/>
        <use height="100%" width="100%" xlink:href="#k" y="-1.11" fill="url(#l)"/>
        <use height="100%" width="100%" xlink:href="#k" y="-2.23" fill="url(#m)"/>
      </g>
      <use height="100%" width="100%" xlink:href="#n" y="-3.34" fill="url(#o)"/>
      <use height="100%" width="100%" xlink:href="#n" y="-6.69" fill="url(#p)"/>
      <path d="M453.23 307.46l-.12.2h93.8l-.1-.2h-93.5zm-.22.38l-.1.22h94.3l-.1-.22h-94zm-.2.34l-.2.36h94.8l-.2-.36h-94.4zm-.3.55l-.2.44h95.5l-.2-.44h-95zm-.4.7l-.2.43h96.3l-.2-.44h-95.8zm-.4.7l-.2.42h97.1l-.2-.43h-96.6zm-.4.68l-.2.5H549l-.25-.4h-97.4zm-.4.8l-.3.6h98.9l-.3-.5h-98.3z" fill="url(#q)"/>
      <path d="M457.36 312.3c3.45.65 3.78 0 3.78 0zm81.5 0s.33.65 3.78 0z" fill="url(#r)"/>
    </g>
    <g fill="#ccd11e">
      <g id="t">
        <path d="M530.63 297.04c-1.7 0-2.23.86-2.23.86-2.74 10.58-11.8 21.34-22.6 21.34h-8.08V330h61.5l-6.17-10.95c-9.7-1.45-17.64-11.37-20.17-21.14 0 0-.54-.8-2.25-.8z" fill="url(#s)"/>
        <path d="M530.63 297.46c-.78 0-1.26.18-1.54.36-.3.17-.4.28-.4.3-1.4 5.33-4.4 10.67-8.4 14.7-4 4.08-9.1 6.84-14.6 6.84H498v9.92h61l-5.68-10.05c-4.7-.62-8.98-3.17-12.46-6.7-4-4.03-6.93-9.38-8.33-14.7l-.02-.02s0-.1-.3-.2c-.3-.2-.7-.3-1.5-.3z" fill="#97c924"/>
        <path d="M530.63 297.46c.15 0 .28.02.4.04.03 3 0 8.1 0 10.8-.02 2.34-.82 4.22-2 6.44-.55 1.55-1 .96-2.36 2.86-1.83.65-3.18.9-5.13 1.2-2.52.4-8.12.76-10.9.15 3.65-1.07 6.97-3.27 9.78-6.12a30.57 30.57 0 0 0 2.13-2.4 33.66 33.66 0 0 0 3-4.48c.36-.63.7-1.25 1-1.9a33.86 33.86 0 0 0 1.26-2.93c.2-.33.3-.67.4-1l.6-2c0-.03.1-.14.4-.3.2-.1.4-.17.6-.24.3-.07.6-.12 1-.12z" fill="#ede71f"/>
        <path d="M529.94 298.9c-.4 6.04-2.28 13.2-6.65 17.8-1.6 1.35-3.7 2.56-5.7 2.27 6.7-5.5 10.9-13.95 12.3-20.07z" fill="#c6cb24"/>
        <path d="M524.5 309.28c-1 2.72-4.8 6.75-8.85 10.05-1.15.03-1.76.1-2.8.03 2.47-.22 8.22-5.08 11.64-10.08z" fill="#9ecb34"/>
      </g>
      <use height="100%" width="100%" xlink:href="#t" x="-15.34"/>
      <g fill="#c6cb24">
        <path d="M502.22 297.9c2.73 10.6 11.8 21.34 22.58 21.34h8.1V330c0 .02-.02 0-.03 0h-65.8s0 .02 0 0v-10.76h8.07c10.8 0 19.86-10.75 22.6-21.33 0 0 .53-.8 2.24-.8 1.7 0 2.24.9 2.24.9z" fill="url(#u)"/>
        <path d="M499.98 297.46c.78 0 1.25.2 1.53.38.3.16.4.26.4.27v.1c1.4 5.4 4.4 10.7 8.4 14.7 4.1 4.1 9.1 6.9 14.7 6.9h7.7v9.9h-65v-9.9h7.7c5.6 0 10.6-2.7 14.6-6.8 4-4 7-9.4 8.4-14.7.1 0 .1-.1.4-.2.3-.2.7-.3 1.5-.3z" fill="#97c924"/>
        <path d="M499.26 297.53a3.4 3.4 0 0 0-.24.06H499c-.24 0-.43.1-.57.2-.26.1-.3.3-.32.3a28.88 28.88 0 0 1-.9 3 34.22 34.22 0 0 1-1.2 2.9 34.2 34.2 0 0 1-1 1.9 33.63 33.63 0 0 1-3 4.4 30.73 30.73 0 0 1-2.1 2.4c-2.8 2.8-6.1 5-9.7 6.1 2.8.6 4.1-.1 6.6-.5 2-.3 4.2-.6 6.1-1.2 1.4-1.9.9-1.3 1.5-2.9 1.2-2.2 2.9-4.3 3.3-6.7 1.6-3 1.9-8.6 1.9-10.2z" fill="#ede71f"/>
        <path d="M499.27 298.9c-.4 6.04-2.27 13.2-6.64 17.8-1.6 1.35-3.66 2.56-5.64 2.27 6.7-5.5 10.8-13.95 12.2-20.07z"/>
        <path d="M493.83 309.28c-1 2.72-4.8 6.75-8.84 10.05-1.2.03-1.8.1-2.8.03 2.4-.22 8.2-5.08 11.6-10.08z" fill="#9ecb34"/>
        <path d="M500.95 297.58h.02c.24.07.43.15.57.24.26.17.3.27.32.3h.02c.17.67.37 1.34.6 2 .1.33.22.66.35 1a33.6 33.6 0 0 0 1.25 2.94c.3.64.64 1.26 1 1.9a33.63 33.63 0 0 0 3 4.47 30.73 30.73 0 0 0 2.13 2.4c2.9 2.85 6.2 5.44 9.8 6.5-7.2.04-10.4-.62-13-4-2.6-3.4-3.6-4.87-4.1-6.94-.5-2.1-2-6.6-1.8-10.9z" fill="#ede71f"/>
        <path d="M501.48 298.9c.4 6.04 2.22 12 6.58 16.63 1.6 1.33 3.66 2.55 5.65 2.25-7.3-5-10.8-12.76-12.2-18.88z"/>
      </g>
      <g id="w">
        <path d="M484.75 297.04c-1.7 0-2.25.86-2.25.86-2.52 9.75-11.82 22.32-21.5 23.82l-4.8 8.3h49.03v-11.36c-8.83-2.37-15.9-11.63-18.25-20.75 0 0-.52-.8-2.23-.8z" fill="url(#v)"/>
        <path d="M484.75 297.46c-.8 0-1.26.2-1.54.38-.2.16-.3.26-.3.27v.1c-1.4 5.4-4.7 10.7-8.1 15-3.4 4.3-9.7 8.6-14 9.1l-4.3 7.4h48.1V319c-3.5-1.1-6.8-3.28-9.5-6.07-4-4.04-6.9-9.4-8.3-14.7v-.02s0-.1-.3-.2-.8-.3-1.5-.3z" fill="#97c924"/>
        <path d="M483.44 298.9c-.6 9.05-5.65 20.46-11.34 22.42-1.85.64-5.1.87-6.22 1 9.95-4.72 15.83-15.84 17.57-23.42z" fill="#93bc30"/>
        <path d="M484.75 297.46c-.15 0-.28.02-.4.04-.03 3 0 8.1 0 10.8.02 2.34.82 4.22 2 6.44l.2.5c.4 1.08.72 1.45 2.3 2.64 4.97 3.8 11.16 4.36 14.8 4.04-1.15-.9-2.36-1.7-3.44-2.46 1.8-.06 3.4-.25 4.6-.5-3.6-1.08-6.9-3.28-9.7-6.13a30.52 30.52 0 0 1-1.4-1.55l-.6-.82c-1.1-1.4-2.2-2.94-3.1-4.5a34.16 34.16 0 0 1-1-1.9 34.02 34.02 0 0 1-1.6-3.94 31.68 31.68 0 0 1-.6-2c0-.03 0-.14-.3-.3a2.2 2.2 0 0 0-.5-.24 3.6 3.6 0 0 0-1-.12z" fill="#ede71f"/>
        <path d="M485.45 298.9c.4 6.04 2.27 13.2 6.64 17.8 1.6 1.35 3.6 2.56 5.6 2.27-6.8-5.5-10.9-13.95-12.3-20.07z"/>
        <path d="M489.6 307.25c2.38 5.83 8.38 11.3 14.56 14.95 1.15.04 1.5 0 2.53-.06-4.5-2.37-11.6-5.75-17.1-14.9z" fill="#9ecb34"/>
      </g>
      <use height="100%" width="100%" xlink:href="#w" x="-15.43" fill="#c6cb24"/>
    </g>
    <path d="M556.5 324.7c-.57.2-4.42-.2-6.43-.05l-1.28.33c-1.2 0-2.3.03-3.4 0-3.6 0-6.7.95-10.1.95-3.5 0-6.5-.95-10.1-.95-1.1 0-2.3.03-3.4 0-3.6 0-6.7.95-10.1.95-3.5 0-6.5-.95-10.1-.95-1.2 0-2.3.03-3.4 0-3.6 0-6.7.95-10.1.95-3.4 0-6.5-.95-10.1-.95-.3 0-.5 0-.8.02h-.5c-.2 0-.3-.02-.4 0-.2-.02-.3 0-.4 0h-1c-3.6 0-6.7.94-10.1.93-3.5 0-6.5-.94-10.1-.94h-1.3c-.1 0-.3-.1-.4 0-.1-.1-.3 0-.4 0h-1.3c-2.9 0-6.2.6-9 .8l-6.3 10.8h127.4z" fill="#fff"/>
    <path d="M548 323.1c-.2 0-.4 0-.6.02-3.24.1-5.57 1.1-11.2 1.1-5.64 0-6.22-1-12.6-.87-5.93.13-8.43 1.27-11.66 1.22-3.22-.04-8.47-.7-12.5-.27-4.04.42-8.83 1.28-11.98 1.3-3.9-.03-7.82-.74-11.9-.34-4.1.4-6 1.5-11.07 1.5-4.4-.02-9.1-.7-12.8-.7-3.5 0-7.3.95-10.1 1.44l-.9 1.46c2.2-.26 8.5-1.22 10.8-1.28 2.3-.06 10.7.5 15.3.33 4.6-.1 5.1-1.1 10.6-1.1 3.8 0 6.6.4 10.5.4 2.4 0 4.6-1.2 8.3-1.2l2.8-.1c3.1-.5 8.3.1 12 .3 3.3.2 5.4-.6 8.9-.7 1.5 0 3 0 4.5-.1 3.5-.1 6.4.7 9.7.7 3.2-.2 6.4-.9 9.8-1 1.5 0 3 0 4.5-.1 2.3 0 5.8.1 8.3.5l-.8-1.4c-2.4-.1-5.3-.6-8.2-.6z" fill="url(#x)"/>
    <g id="A">
      <path id="z" d="M450.3 334.75c-3.44 0-6.4.85-9.64.94-1.2-.1-2.37-.2-3.54-.4l-.5.8h1.5c1.5 0 3-.1 4.48 0 3.45 0 6.38-.9 9.63-1 3.26.1 6.2.9 9.67.9h4.47c3.46 0 6.4-.9 9.67-.9 3.25.1 6.23.9 9.7.9 1.48 0 2.98-.1 4.46 0 3.45 0 6.4-.9 9.65-1 3.25.1 6.2.9 9.65.9 1.5 0 3-.1 4.5 0 3.44 0 6.4-.9 9.65-1 3.26.1 6.2.9 9.67.9 1.5 0 3-.1 4.47 0 3.4 0 6.4-.9 9.6-1 3.2.1 6.2 1 9.6 1 1.5 0 3-.1 4.4 0 .6 0 1.2-.1 1.8-.1l-.5-.8c-1.1.1-2.2.3-3.3.3-3.3-.1-6.2-.9-9.7-.9h-4.5c-3.5 0-6.4.8-9.7.9-3.3-.1-6.2-1-9.7-1-1.5 0-3 .1-4.5 0-3.5 0-6.4.9-9.7 1-3.3-.1-6.2-1-9.7-1h-4.5c-3.5 0-6.4.9-9.6.9-3.3-.1-6.2-.96-9.7-.96-1.5-.03-3 0-4.5 0-3.5 0-6.4.85-9.7.94-3.3-.1-6.2-.95-9.7-.95-1.5 0-3 .1-4.5 0z" fill="url(#y)"/>
      <use height="100%" width="100%" xlink:href="#z" y="-1.29"/>
      <use height="100%" width="100%" xlink:href="#z" y="-2.58"/>
    </g>
    <use height="100%" width="100%" xlink:href="#A" y="-3.87"/>
    <use height="100%" width="100%" xlink:href="#A" y="-7.73"/>
    <path d="M443.85 324.7l-2.43 4.2c2.84-.47 7.1-1.7 10.63-1.7 3.66 0 8.08.9 12.44.9 5 .02 6.9-1.07 11-1.48 4.1-.4 8 .53 11.9.55 3.1 0 7.9-1.1 12-1.52 4-.42 7.7.3 12.6.37 4.8.08 5.6-1.18 11.6-1.3 6.3-.15 6.9.87 12.6.87 4.2.2 7.8-.9 11.6-1.2 3.8-.3 5.5 0 8.3.1l-1.9-3.3h-.1l-101.2 2.3z" fill="#97c924"/>
    <path d="M550.07 324.65s2.7.15 3.84.27a91.4 91.4 0 0 0 3 .26l-.3-.5c-.5.22-4.4-.18-6.4-.03z" fill="#fff"/>
  </g>
  <path d="M320 179.9l-25.7 44.55-26.3 45.52h104l-25.72-44.55L320 179.9zm0 2.4l25.24 43.72 24.68 42.75h-99.84l25.24-43.72z" fill="#c8a400"/>
</svg>
