<svg xmlns="http://www.w3.org/2000/svg" height="480" width="640" viewBox="0 0 640 480">
  <defs>
    <clipPath id="a">
      <path fill-opacity=".7" d="M-52.3 0h682.6v512H-52.3z"/>
    </clipPath>
  </defs>
  <g fill-rule="evenodd" clip-path="url(#a)" transform="matrix(.9 0 0 .9 49.1 0)" stroke-width="1pt">
    <path fill="#0c590b" d="M-95 0h768v512H-95z"/>
    <path fill="#fff" d="M-95 0H97.5v512H-95z"/>
    <g fill="#fff">
      <path d="M403.7 225.4l-31.2-6.6L356 246l-3.2-31.5-31-7.2 29-13-2.8-31.7 21.4 23.6 29.3-12.4-16 27.6 21 24z"/>
      <path d="M415.5 306c-27.7 61-100.3 87.7-161.5 59.4-61-28.4-87.7-101-59.4-162 14.4-31.3 38-52.7 71.5-64.4-3.7 3.2-7.5 6.6-11.6 11-43.2 44.4-42 115.5 2.5 158.6 44.3 43 115.4 42 158.6-2.5z"/>
    </g>
  </g>
</svg>
