<svg xmlns="http://www.w3.org/2000/svg" xmlns:xlink="http://www.w3.org/1999/xlink" height="480" width="640" viewBox="0 0 640 480">
  <path fill="red" d="M256 0h384v480H256z"/>
  <path fill="#060" d="M0 0h256v480H0z"/>
  <g fill="#ff0" fill-rule="evenodd" stroke="#000" stroke-width=".57" stroke-linecap="round" stroke-linejoin="round">
    <path d="M339.46 306.18c-32.23-.97-180-93.2-181-107.9l8.15-13.6c14.7 21.3 165.8 111 180.6 107.8l-7.7 13.7" stroke-width=".61"/>
    <path d="M164.9 182.83c-2.9 7.78 38.56 33.4 88.43 63.73 49.87 30.33 92.87 49.08 96.05 46.4.2-.36 1.57-2.72 1.45-2.7-.6.9-2.06 1.18-4.32.53-13.4-3.9-48.6-20.1-92.1-46.5-43.5-26.4-81.4-50.7-87.2-61.1-.4-.7-.7-2-.6-3.1h-.1l-1.2 2.2-.2.3zM340.2 306.6c-.53 1-1.55 1.03-3.5.8-12.04-1.32-48.62-19.1-91.9-45-50.35-30.16-91.94-57.62-87.43-64.8l1.23-2.17.24.07c-4.06 12.17 82.08 61.42 87.15 64.56 49.8 30.88 91.8 48.9 95.5 44.22l-1.4 2.33z" stroke-width=".61"/>
    <path d="M256.18 207.18c32.25-.26 72.06-4.4 94.96-13.54l-4.94-8c-13.53 7.48-53.55 12.4-90.3 13.14-43.44-.4-74.12-4.44-89.48-14.75l-4.66 8.53c28.25 11.96 57.2 14.5 94.42 14.62" stroke-width=".61"/>
    <path d="M352.47 193.82c-.8 1.26-15.73 6.42-37.73 10.22-14.92 2.27-34.38 4.22-58.67 4.24-23.08.02-41.93-1.62-56.2-3.56-23.1-3.62-35.02-8.66-39.43-10.44l1.1-2.2c12.7 5.05 24.67 8.1 38.7 10.25 14.18 1.92 32.8 3.6 55.76 3.57 24.18-.03 43.42-2.12 58.26-4.33 22.56-3.64 34.9-8.32 36.62-10.5l1.6 2.75zm-4.33-8.13c-2.45 1.9-14.63 6.2-36.07 9.7-14.3 2-32.5 3.9-55.75 3.9-22.1 0-40.13-1.5-53.85-3.5-21.78-2.9-33.37-8-37.55-9.5l1.28-2.2c3.25 1.6 14.43 6.2 36.5 9.3 13.57 1.9 31.64 3.3 53.62 3.3 23.13-.1 41.12-1.9 55.34-4 21.55-3 33.15-8.5 34.9-9.9l1.58 2.6zM150.27 246c19.84 10.67 63.9 16.04 105.6 16.4 37.96.07 87.42-5.85 105.9-15.66l-.5-10.67c-5.78 9.04-58.78 17.7-105.82 17.36-47.03-.36-90.7-7.62-105.26-17.03v9.6" stroke-width=".61"/>
    <path d="M362.8 244.5v2.55c-2.78 3.32-20.2 8.34-42.07 11.88-16.64 2.55-38.32 4.48-65.35 4.48-25.67 0-46.14-1.8-62.02-4.2-25.1-3.6-41.15-10-44.38-11.9l.02-2.9c9.68 6.5 35.9 11.2 44.7 12.6 15.78 2.4 36.14 4.3 61.68 4.3 26.9 0 48.46-1.9 65-4.4 15.67-2.26 38-8.15 42.4-12.1zm0-9.06V238c-2.77 3.3-20.2 8.34-42.06 11.87-16.64 2.55-38.32 4.48-65.35 4.48-25.7 0-46.2-1.83-62.1-4.27-25.1-3.66-41.2-10.06-44.4-11.97v-2.9c9.7 6.5 35.9 11.2 44.7 12.6 15.7 2.4 36.1 4.3 61.6 4.3 26.9 0 48.4-1.9 65-4.4 15.6-2.2 38-8.1 42.4-12.1zm-107.02 68.9c-45.63-.27-84.72-12.44-92.97-14.45l6.1 9.4c14.6 6.1 52.7 15.2 87.4 14.2s65-3.7 86.4-14.1l6.2-9.8c-14.5 6.8-64 14.5-92.9 14.6" stroke-width=".61"/>
    <path d="M344.85 297.3a143.02 143.02 0 0 1-2.77 4.1c-10.07 3.54-25.94 7.27-32.63 8.35-13.68 2.82-34.85 4.9-53.63 4.9-40.4-.58-73.5-8.5-89.06-15.24l-1.26-2.1.2-.3 2.14.8c27.68 9.9 58.76 13.9 88.2 14.6 18.72.1 37.44-2.1 52.6-4.8 23.2-4.6 32.6-8.1 35.48-9.7l.73-.4zm5.35-8.83l.07.1a287.23 287.23 0 0 1-2.1 3.47c-5.36 1.92-19.94 6.18-41.23 9.16-14.02 1.9-22.74 3.76-50.64 4.3-52.28-1.33-86.13-11.55-94.17-14.07l-1.2-2.3c30.3 7.92 61.25 13.44 95.37 14 25.53-.54 36.4-2.42 50.3-4.3 24.82-3.87 37.33-7.96 41.08-9.14a2.85 2.85 0 0 0-.16-.3l2.7-1z" stroke-width=".59"/>
    <path d="M350.75 237.6c.15 30.02-15.2 56.96-27.58 68.84-17.5 16.8-40.7 27.62-67.8 28.12-30.27.55-58.8-19.17-66.45-27.84-14.97-16.95-27.15-38.46-27.54-67.46 1.85-32.76 14.7-55.57 33.35-71.22 18.64-15.65 43.46-23.27 64.13-22.72 23.85.63 51.7 12.33 70.96 35.55 12.6 15.22 18.07 31.73 20.93 56.74zm-95.13-102.75c58.12 0 105.92 47.3 105.92 105.28 0 58-47.8 105.28-105.92 105.28-58.12 0-105.52-47.2-105.52-105.2s47.4-105.3 105.52-105.3" stroke-width=".61"/>
    <path d="M255.9 134.5c58.17 0 105.62 47.44 105.62 105.6 0 58.18-47.45 105.63-105.62 105.63S150.3 298.28 150.3 240.1s47.42-105.6 105.6-105.6zM152.62 240.1c0 56.82 46.65 103.3 103.28 103.3 56.64 0 103.3-46.48 103.3-103.3 0-56.8-46.66-103.3-103.3-103.3s-103.28 46.5-103.28 103.3z" stroke-width=".61"/>
    <path d="M256 143.26c53.04 0 96.73 43.55 96.73 96.75 0 53.3-43.7 96.8-96.74 96.8-53.1 0-96.8-43.5-96.8-96.7s43.7-96.7 96.7-96.7zM161.56 240c0 51.94 42.65 94.44 94.42 94.44 51.76 0 94.4-42.5 94.4-94.43 0-51.9-42.64-94.4-94.4-94.4-51.78 0-94.43 42.5-94.43 94.4z" stroke-width=".61"/>
    <path d="M260.25 134.06h-9.05v212.22h9.1z" stroke-width=".61"/>
    <path d="M259.34 132.85h2.3l.02 214.67h-2.3l-.02-214.67zm-8.98 0h2.32v214.67h-2.32V132.85z" stroke-width=".61"/>
    <path d="M361.6 244.2v-7.85l-6.4-5.95-36.27-9.6-52.26-5.33-62.94 3.2-44.8 10.66-9.04 6.7v7.85l22.9-10.28 54.4-8.53h52.2l38.4 4.26 26.6 6.4z" stroke-width=".61"/>
    <path d="M255.95 223.75c24.94-.04 49.14 2.37 68.33 6.1 19.8 3.96 33.75 8.92 38.52 14.48v2.76c-5.76-7-24.52-12-38.96-14.9-19.05-3.8-43.1-6.1-67.9-6.1-26.17 0-50.54 2.5-69.3 6.2-15.07 2.9-35.16 8.9-37.67 14.7v-2.9c1.38-4.1 16.34-10.1 37.32-14.3 18.9-3.7 43.3-6.2 69.6-6.2zm0-9.06c24.95-.1 49.15 2.3 68.34 6.1 19.8 3.9 33.7 8.9 38.5 14.4v2.8c-5.8-6.9-24.5-12-39-14.9-19.1-3.7-43.1-6.1-67.9-6.1-26.2 0-50.4 2.5-69.2 6.2-14.6 2.7-35.5 8.9-37.8 14.7V235c1.3-4 16.6-10.28 37.3-14.3 18.9-3.7 43.3-6.13 69.6-6.18zm-.5-46.2c39.3-.2 73.6 5.5 89.27 13.5l5.72 9.9c-13.63-7.4-50.62-15-94.94-13.9-36.1.2-74.7 3.9-94.05 14.3l6.83-11.4c15.9-8.3 53.36-12.4 87.17-12.5" stroke-width=".61"/>
    <path d="M255.97 176.66c22.42-.06 44.08 1.2 61.3 4.32 16.05 2.98 31.35 7.46 33.54 9.87l1.7 3c-5.3-3.48-18.5-7.34-35.5-10.57-17-3.2-38.7-4.27-61-4.2-25.3-.1-44.9 1.24-61.8 4.18-17.8 3.34-30.2 8.1-33.2 10.38l1.7-3.17c6-3.03 15.4-6.68 31.2-9.53 17.5-3.2 37.3-4.14 62.3-4.28zm0-9.05c21.44 0 42.63 1.2 59.14 4.2 13.1 2.6 25.9 6.5 30.7 10l2.5 4c-4.2-4.7-20-9.1-34.1-11.6-16.4-2.8-36.7-3.9-58.1-4.1-22.5.1-43.3 1.5-59.4 4.4-15.4 3-25.3 6.4-29.5 9.1l2.2-3.3c5.8-3 15.2-5.8 27-8.1 16.3-3 37.2-4.3 59.9-4.4zM308.42 284c-19.44-3.62-38.9-4.14-52.5-3.98-65.5.76-86.66 13.45-89.24 17.3l-4.9-8c16.67-12.08 52.34-18.86 94.48-18.17 21.9.36 40.78 1.8 56.66 4.9L308.4 284" stroke-width=".61"/>
    <path d="M255.55 278.9c18.22.26 36.1 1.02 53.37 4.23l-1.25 2.2c-16.03-2.95-33.13-4.08-52.06-4-24.1-.18-48.6 2.08-69.9 8.2-6.7 1.86-17.8 6.18-18.9 9.75l-1.2-2.05c.4-2.1 7.1-6.5 19.7-10.02 24.4-6.9 47.2-8.1 70.4-8.3zm.83-9.18c18.88.35 38.37 1.23 57.32 4.98l-1.3 2.3c-17.1-3.4-33.46-4.53-55.9-4.88-24.26.05-49.98 1.78-73.37 8.58-7.55 2.2-20.6 6.95-21.02 10.72l-1.2-2.2c.3-3.42 11.6-7.88 21.7-10.84 23.6-6.85 49.4-8.6 73.8-8.66z" stroke-width=".59"/>
    <path d="M349.42 290.54l-7.87 12.2-22.62-20.07-58.66-39.47-66.14-36.27-34.33-11.74 7.3-13.6 2.5-1.4 21.33 5.3 70.4 36.2 40.54 25.6L336 272l13.87 16z" stroke-width=".61"/>
    <path d="M158.56 195.5c6.02-4.08 50.28 15.64 96.6 43.57 46.18 28 90.3 59.65 86.33 65.57l-1.4 2.06-.6.47c.1-.1.8-.9-.1-3.1-2-6.47-33.3-31.46-85.2-62.82-50.7-30.2-92.9-48.4-97.1-43.2l1.3-2.54zm192.47 94.86c3.8-7.52-37.24-38.44-88.14-68.55-52.1-29.5-89.6-46.8-96.5-41.7l-1.5 2.8c0 .2 0-.2.4-.4 1.2-1.1 3.3-1 4.2-1 11.8.2 45.5 15.7 92.8 42.8 20.7 12.1 87.5 55 87.3 67 0 1 .1 1.3-.3 1.8l1.7-2.6z" stroke-width=".61"/>
  </g>
  <g transform="matrix(1.1 0 0 1.1 0 26.7)">
    <path d="M180.6 211c0 16.28 6.66 31 17.46 41.75 10.8 10.78 25.5 17.58 41.8 17.58 16.4 0 31.25-6.65 42.02-17.4 10.77-10.72 17.45-25.54 17.45-41.87v-79.2l-118.74-.13V211z" fill="#fff" stroke="#000" stroke-width=".67"/>
    <path d="M182.82 211.12v.04c0 15.56 6.44 29.73 16.77 40 10.3 10.32 24.6 16.72 40.2 16.72 15.7 0 29.9-6.36 40.2-16.62 10.3-10.27 16.7-24.43 16.7-40.04V134.4l-113.9-.03-.1 76.75m91-53.75v48.9l-.1 5.16c0 1.36-.1 2.92-.3 4.24-.9 7.73-4.5 14.47-9.8 19.7-6.2 6.14-14.7 9.95-24.08 9.95-9.3 0-17.6-3.94-23.8-10.1-6.35-6.32-10.03-15-10.03-23.95v-54.02l67.96.12z" fill="red" stroke="#000" stroke-width=".51"/>
    <g id="e">
      <g id="d" fill="#ff0" stroke="#000" stroke-width=".5">
        <path d="M190.2 154.43c.13-5.52 4.04-6.83 4.07-6.85.03-.02 4.23 1.4 4.22 6.9l-8.3-.05" stroke="none"/>
        <path d="M186.8 147.7l-.67 6.34h4.14c.04-5.25 3.97-6.12 4.07-6.1.1 0 4 1.16 4.1 6.1h4.14l-.75-6.4-15.02.05zm-.95 6.36h16.95c.35 0 .65.35.65.78 0 .43-.3.78-.65.78h-16.95c-.36 0-.65-.35-.65-.78 0-.43.3-.78.65-.78z"/>
        <path d="M192 154.03c.03-3.3 2.27-4.25 2.28-4.25 0 0 2.35.97 2.36 4.25H192m-5.8-8.98h16.25c.35 0 .63.32.63.7 0 .4-.28.7-.63.7H186.2c-.33 0-.6-.3-.6-.7 0-.38.27-.7.6-.7zm.35 1.42h15.54c.3 0 .5.32.5.7 0 .4-.3.7-.6.7h-15.5c-.4 0-.6-.3-.6-.7 0-.38.2-.7.6-.7zm5.02-10.6h1.23v.88h.9v-.9l1.25.02v.88h.9v-.9h1.25v2.02c0 .32-.25.52-.55.52h-4.4c-.3 0-.58-.3-.58-.6v-2zm4.62 2.7l.2 6.45-4.3-.02.3-6.45 3.7.02"/>
        <path id="a" d="M190.94 141.56l.13 3.48h-4.12l.1-3.48h3.9z"/>
        <use height="100%" width="100%" xlink:href="#a" x="10.61"/>
        <path id="b" d="M186.3 139.04h1.2v.87h.88v-.8h1.23v.9h.9v-.9h1.3v2c0 .3-.2.5-.5.5H187c-.3 0-.55-.2-.55-.5v-2z"/>
        <use height="100%" width="100%" xlink:href="#b" x="10.61"/>
        <path d="M193.9 140.6c-.03-.62.88-.62.87 0v1.55h-.87v-1.54" fill="#000" stroke="none"/>
        <path id="c" d="M188.57 142.84c0-.6.84-.62.83 0v1.2h-.83v-1.2" fill="#000" stroke="none"/>
        <use height="100%" width="100%" xlink:href="#c" x="10.64"/>
      </g>
      <use height="100%" width="100%" xlink:href="#d" y="46.32"/>
      <use height="100%" width="100%" xlink:href="#d" transform="rotate(-45.2 312.8 180)"/>
    </g>
    <use height="100%" width="100%" xlink:href="#d" x="45.71"/>
    <use height="100%" width="100%" xlink:href="#e" transform="matrix(-1 0 0 1 479.8 0)"/>
    <g id="f" fill="#fff">
      <path d="M232.64 202.4a8.34 8.34 0 0 0 2.2 5.7c1.37 1.47 3.25 2.38 5.3 2.38 2.08 0 3.95-.9 5.3-2.37 1.37-1.4 2.2-3.4 2.2-5.6v-10.8h-14.98l-.03 10.8" fill="#039"/>
      <circle cx="236.07" cy="195.74" r="1.49"/>
      <circle cx="244.39" cy="195.74" r="1.49"/>
      <circle cx="240.22" cy="199.74" r="1.49"/>
      <circle cx="236.07" cy="203.92" r="1.49"/>
      <circle cx="244.38" cy="203.91" r="1.49"/>
    </g>
    <use height="100%" width="100%" xlink:href="#f" y="-26.02"/>
    <use height="100%" width="100%" xlink:href="#f" x="-20.8"/>
    <use height="100%" width="100%" xlink:href="#f" x="20.75"/>
    <use height="100%" width="100%" xlink:href="#f" y="25.78"/>
  </g>
</svg>
