<svg xmlns="http://www.w3.org/2000/svg" xmlns:xlink="http://www.w3.org/1999/xlink" width="350" height="233.3" version="1"><defs><use height="2940" width="4200" transform="scale(10.5)" xlink:href="#a" id="s"/><use height="2940" width="4200" transform="scale(15)" xlink:href="#a" id="q"/><use height="2940" width="4200" transform="scale(21)" xlink:href="#a" id="p"/><use height="2940" width="4200" transform="scale(26.25)" xlink:href="#a" id="r"/><use height="2940" width="4200" transform="scale(31.5)" xlink:href="#a" id="o"/><g id="a"><g id="c"><path transform="rotate(18 3.2 -.5)" id="b" d="M0 0v1h.5L0 0z"/><use height="2940" width="4200" transform="scale(-1 1)" xlink:href="#b"/></g><use height="2940" width="4200" transform="rotate(72)" xlink:href="#c"/><use height="2940" width="4200" transform="rotate(-72)" xlink:href="#c"/><use height="2940" width="4200" transform="rotate(144)" xlink:href="#c"/><use height="2940" width="4200" transform="rotate(-144)" xlink:href="#c"/></g><path d="M-15.8-22c0 7 6.8 10.5 16.8 10.5s14.7-3.3 14.8-7.8c0-14.2-46.8-5.2-46.5-30.2C-30.6-71-6-70 3-70c9 0 26 4 25.8 21.3H13.4c0-7.5-7-10.3-15-10.3-7.8 0-13.3 1.3-13.3 8.5-.2 11.8 46.3 4 46.3 28.8C31.5-3.6 13.5 0 0 0c-11.5 0-31.6-4.5-31.5-22h15.8z" id="n"/><g id="m"><clipPath id="d"><path d="M-31.5 0v-70h63V0h-63zM0-47v12h31.5v-12H0z"/></clipPath><use height="2940" width="4200" clip-path="url(#d)" xlink:href="#e"/><path d="M5-35h26.5v10H5z"/><path d="M21.5-35h10V0h-10z"/></g><path d="M-31.5 0h13v-26h28a22 22 0 0 0 0-44h-40l-1 70zm13-39h27a9 9 0 1 0 0-18h-27v18z" id="f" fill-rule="evenodd"/><path d="M-26.3 0h52.5v-12h-40.5v-16h33v-12h-33v-11H25v-12h-51.3V0z" id="l"/><path d="M-31.5 0h12v-48l14 48h11l14-48V0h12v-70H14L0-22l-14-48h-17.5V0z" id="k"/><path transform="translate(-31.5)" d="M0 0h63v-13H12v-18h40v-12H12v-14h48v-13H0V0z" id="j"/><path d="M-31.5 0h33a30 30 0 0 0 30-30v-10a30 30 0 0 0-30-30h-33V0zm13-13h19a19 19 0 0 0 19-19v-6a19 19 0 0 0-19-19h-19v44z" id="i" fill-rule="evenodd"/><g id="h"><use height="2940" width="4200" xlink:href="#f"/><path d="M28 0c0-10 0-32-15-32H-6c22 0 22 22 22 32"/></g><path d="M0 0c17.4 0 31.5-15.7 31.5-35S17.4-70 0-70s-31.5 15.7-31.5 35S-17.4 0 0 0m0-13c10.2 0 18.5-9.8 18.5-22S10.2-57 0-57s-18.5 9.8-18.5 22S-10.2-13 0-13" id="e" fill-rule="evenodd"/><clipPath id="t"><path d="M0 0h600L0 400V0z" fill="#fff"/></clipPath><clipPath id="g"><path d="M194 251v233.3h-350L194 251z" fill="#fff"/></clipPath></defs><g transform="translate(156 -251)" clip-path="url(#g)"><path fill="#00923f" d="M-156.1 251h350v233.3h-350z"/><path d="M-126.3 367.6L18.9 456l145.3-88.4-145.3-88.3-145.2 88.3z" fill="#f8c300"/><g transform="matrix(.08333 0 0 .07936 18.6 369.1)"><circle r="735" fill="#28166f"/><path clip-path="url(#clipcircle)" d="M-674.5-291.9C-590.4-304-507.5-315-420-315c437.4 0 838 157.3 1148.5 418.5 2.4 8.8-23 107.1-27.6 115.1A1673.8 1673.8 0 0 0-420-210a1818 1818 0 0 0-291.1 25.5c-1.3.2 6.3-25.7 11.9-43.3 3-9.3 12.8-35.5 12.2-35.4" fill="#fff"/></g><use xlink:href="#e" transform="matrix(.08271 -.00967 .01016 .07877 -34.1 352)" width="4200" height="2940" fill="#00923f"/><use xlink:href="#h" transform="matrix(.08313 -.00554 .00581 .07917 -26.8 351.4)" width="4200" height="2940" fill="#00923f"/><use xlink:href="#i" transform="matrix(.08332 -.00139 .00145 .07935 -19.4 351)" width="4200" height="2940" fill="#00923f"/><use xlink:href="#j" transform="matrix(.08328 .00277 -.0029 .07932 -12 351.1)" width="4200" height="2940" fill="#00923f"/><use xlink:href="#k" transform="matrix(.08302 .00692 -.00726 .07906 -4.6 351.6)" width="4200" height="2940" fill="#00923f"/><use height="2940" width="4200" transform="matrix(.08213 .01344 -.01411 .07822 7 353)" xlink:href="#l" fill="#00923f"/><use xlink:href="#f" transform="matrix(.08068 .01987 -.02087 .07684 18.5 355.3)" width="4200" height="2940" fill="#00923f"/><use xlink:href="#h" transform="matrix(.07948 .02387 -.02506 .0757 25.6 357.3)" width="4200" height="2940" fill="#00923f"/><use xlink:href="#e" transform="matrix(.07806 .0278 -.02918 .07434 32.6 359.6)" width="4200" height="2940" fill="#00923f"/><use xlink:href="#m" transform="matrix(.07642 .03165 -.03323 .07278 39.5 362.2)" width="4200" height="2940" fill="#00923f"/><use xlink:href="#h" transform="matrix(.07458 .03541 -.03718 .07103 46.2 365.2)" width="4200" height="2940" fill="#00923f"/><use xlink:href="#j" transform="matrix(.07253 .03908 -.04104 .06908 52.8 368.5)" width="4200" height="2940" fill="#00923f"/><use xlink:href="#n" transform="matrix(.07028 .04264 -.04477 .06694 59.1 372.1)" width="4200" height="2940" fill="#00923f"/><use xlink:href="#n" transform="matrix(.06784 .04609 -.0484 .06461 65.2 376)" width="4200" height="2940" fill="#00923f"/><use xlink:href="#e" transform="matrix(.06522 .0494 -.05188 .06211 71.2 380.3)" width="4200" height="2940" fill="#00923f"/><use height="2940" width="4200" transform="matrix(.08333 0 0 .07936 -31.9 358.6)" xlink:href="#o" fill="#fff"/><use xlink:href="#o" transform="matrix(.08333 0 0 .07936 -26.5 383.1)" width="4200" height="2940" fill="#fff"/><use xlink:href="#p" transform="matrix(.08333 0 0 .07936 -34 388.4)" width="4200" height="2940" fill="#fff"/><use xlink:href="#q" transform="matrix(.08333 0 0 .07936 -20.5 379.6)" width="4200" height="2940" fill="#fff"/><use xlink:href="#r" transform="matrix(.08333 0 0 .07936 -13.7 389)" width="4200" height="2940" fill="#fff"/><use xlink:href="#r" transform="matrix(.08333 0 0 .07936 -15.6 394.7)" width="4200" height="2940" fill="#fff"/><use height="2940" width="4200" transform="matrix(.08333 0 0 .07936 37.1 351)" xlink:href="#o" fill="#fff"/><use xlink:href="#o" transform="matrix(.08333 0 0 .07936 61 389.6)" width="4200" height="2940" fill="#fff"/><use xlink:href="#p" transform="matrix(.08333 0 0 .07936 69.5 390.1)" width="4200" height="2940" fill="#fff"/><use xlink:href="#r" transform="matrix(.08333 0 0 .07936 63.5 394.7)" width="4200" height="2940" fill="#fff"/><use xlink:href="#r" transform="matrix(.08333 0 0 .07936 48.8 407)" width="4200" height="2940" fill="#fff"/><use xlink:href="#p" transform="matrix(.08333 0 0 .07936 48.7 412.8)" width="4200" height="2940" fill="#fff"/><use xlink:href="#p" transform="matrix(.08333 0 0 .07936 54.8 402.4)" width="4200" height="2940" fill="#fff"/><use xlink:href="#r" transform="matrix(.08333 0 0 .07936 59.8 399.4)" width="4200" height="2940" fill="#fff"/><use xlink:href="#p" transform="matrix(.08333 0 0 .07936 48.5 401.2)" width="4200" height="2940" fill="#fff"/><use xlink:href="#r" transform="matrix(.08333 0 0 .07936 -5.2 371.5)" width="4200" height="2940" fill="#fff"/><use xlink:href="#p" transform="matrix(.08333 0 0 .07936 34.8 366.2)" width="4200" height="2940" fill="#fff"/><use xlink:href="#o" transform="matrix(.08333 0 0 .07936 18.1 395.3)" width="4200" height="2940" fill="#fff"/><use xlink:href="#r" transform="matrix(.08333 0 0 .07936 25.2 383.7)" width="4200" height="2940" fill="#fff"/><use xlink:href="#r" transform="matrix(.08333 0 0 .07936 18.1 378.5)" width="4200" height="2940" fill="#fff"/><use xlink:href="#p" transform="matrix(.08333 0 0 .07936 12 383.7)" width="4200" height="2940" fill="#fff"/><use xlink:href="#q" transform="matrix(.08333 0 0 .07936 15 387.8)" width="4200" height="2940" fill="#fff"/><use xlink:href="#r" transform="matrix(.08333 0 0 .07936 36.4 408.4)" width="4200" height="2940" fill="#fff"/><use xlink:href="#p" transform="matrix(.08333 0 0 .07936 41.7 403.2)" width="4200" height="2940" fill="#fff"/><use xlink:href="#p" transform="matrix(.08333 0 0 .07936 31.6 401.8)" width="4200" height="2940" fill="#fff"/><use height="2940" width="4200" transform="matrix(.08333 0 0 .07936 -6.5 400)" xlink:href="#o" fill="#fff"/><use height="2940" width="4200" transform="matrix(.08333 0 0 .07936 18.1 414.7)" xlink:href="#s" fill="#fff"/></g><g clip-path="url(#t)" transform="matrix(.58333 0 0 .58333 0 0)"><path d="M-68 457" fill-rule="evenodd"/><path d="M240 400h360V0H240v400z" fill="#dc241f" fill-rule="evenodd"/><path d="M0 400h240V0H0v400z" fill="#006233" fill-rule="evenodd"/><path d="M318.2 262c-30.2-.9-168.7-87.3-169.7-101.1l7.7-12.8c13.7 20 155.4 104 169.3 101.1l-7.3 12.8" fill="#ffe805" fill-rule="evenodd"/><path d="M154.6 146.4c-2.7 7.3 36.1 31.3 82.9 59.8 46.7 28.4 87 46 90 43.4l1.4-2.5c-.6.9-2 1.1-4 .5-12.7-3.6-45.6-18.7-86.4-43.5-40.8-24.7-76.3-47.5-81.8-57.2-.4-.7-.7-2-.6-2.9h-.2l-1.1 2-.2.4zm164.4 116c-.6 1-1.5 1-3.3.8-11.3-1.2-45.6-18-86.2-42.2-47.2-28.3-86.2-54-82-60.8l1.2-2h.2c-3.8 11.5 77 57.7 81.7 60.6 46.7 29 86.1 45.9 89.6 41.5l-1.2 2.1" fill="#ffe805" fill-rule="evenodd"/><path d="M154.6 146.4c-2.7 7.3 36.1 31.3 82.9 59.8 46.7 28.4 87 46 90 43.4l1.4-2.5c-.6.9-2 1.1-4 .5-12.7-3.6-45.6-18.7-86.4-43.5-40.8-24.7-76.3-47.5-81.8-57.2-.4-.7-.7-2-.6-2.9h-.2l-1.1 2-.2.4zm164.4 116c-.6 1-1.5 1-3.3.8-11.3-1.2-45.6-18-86.2-42.2-47.2-28.3-86.2-54-82-60.8l1.2-2h.2c-3.8 11.5 77 57.7 81.7 60.6 46.7 29 86.1 45.9 89.6 41.5l-1.2 2.1z" fill="none" stroke="#000" stroke-width=".6" stroke-linecap="round" stroke-linejoin="round"/><path d="M240.2 169.2c30.2-.2 67.5-4.1 89-12.7l-4.6-7.5c-12.7 7-50.2 11.7-84.7 12.4-40.7-.4-69.5-4.2-83.9-13.9l-4.4 8c26.5 11.2 53.7 13.6 88.6 13.7" fill="#ffe805" fill-rule="evenodd"/><path d="M330.4 156.7c-.7 1.2-14.7 6-35.3 9.6a390.3 390.3 0 0 1-107.7.6c-21.7-3.4-32.9-8-37-9.8l1-2a160 160 0 0 0 36.3 9.6 385.5 385.5 0 0 0 107-.7c21-3.4 32.6-7.8 34.2-9.9l1.5 2.6zm-4-7.6c-2.3 1.8-13.7 5.9-33.8 9-13.5 2-30.5 3.7-52.3 3.8-20.7 0-37.6-1.4-50.5-3.3-20.4-2.7-31.3-7.5-35.2-8.9l1.2-2c3 1.6 13.5 5.8 34.2 8.7 12.8 1.8 29.7 3.2 50.3 3.2 21.7 0 38.5-1.8 51.9-3.7 20.2-2.8 31-8 32.7-9.3l1.5 2.5" fill="#ffe805" fill-rule="evenodd"/><path d="M330.4 156.7c-.7 1.2-14.7 6-35.3 9.6a390.3 390.3 0 0 1-107.7.6c-21.7-3.4-32.9-8-37-9.8l1-2a160 160 0 0 0 36.3 9.6 385.7 385.7 0 0 0 107-.7c21-3.4 32.6-7.8 34.2-9.9l1.5 2.6zm-4-7.6c-2.3 1.8-13.7 5.9-33.8 9a364 364 0 0 1-52.3 3.8c-20.7 0-37.6-1.4-50.5-3.3-20.4-2.7-31.3-7.5-35.2-8.9l1.2-2c3 1.6 13.5 5.8 34.2 8.7 12.8 1.8 29.7 3.2 50.3 3.2 21.7 0 38.6-1.8 51.9-3.7 20.2-2.8 31-8 32.7-9.3l1.5 2.5z" fill="none" stroke="#000" stroke-width=".6" stroke-linecap="round" stroke-linejoin="round"/><path d="M140.9 205.7c18.6 10 59.9 15 99 15.3 35.6.1 82-5.5 99.3-14.6l-.5-10c-5.4 8.4-55.1 16.6-99.2 16.2-44.1-.3-85-7.1-98.7-16v9" fill="#ffe805" fill-rule="evenodd"/><path d="M340.1 204.2v2.4c-2.6 3.1-19 7.8-39.4 11.1a407 407 0 0 1-61.3 4.2c-24 0-43.2-1.7-58.1-4a145 145 0 0 1-41.6-11.2V204c9 6 33.7 10.5 42 11.8a382 382 0 0 0 57.7 4 405 405 0 0 0 61-4.2c14.7-2 35.6-7.6 39.7-11.3zm0-8.5v2.4c-2.6 3.1-19 7.8-39.4 11.2a407 407 0 0 1-61.3 4.1c-24 0-43.2-1.7-58.1-4a145 145 0 0 1-41.6-11.2v-2.8c9 6 33.7 10.5 42 11.8a382 382 0 0 0 57.7 4c25.2 0 45.5-1.8 61-4.2 14.7-2 35.6-7.6 39.7-11.3" fill="#ffe805" fill-rule="evenodd"/><path d="M340.1 204.2v2.4c-2.6 3.1-19 7.8-39.4 11.1a407 407 0 0 1-61.3 4.2c-24 0-43.2-1.7-58.1-4a145 145 0 0 1-41.6-11.2V204c9 6 33.7 10.5 42 11.8 14.7 2.3 33.8 4 57.7 4a405 405 0 0 0 61-4.2c14.7-2 35.6-7.6 39.7-11.3zm0-8.5v2.4c-2.6 3.1-19 7.8-39.4 11.2a407 407 0 0 1-61.3 4.1c-24 0-43.2-1.7-58.1-4a145 145 0 0 1-41.6-11.2v-2.8c9 6 33.7 10.5 42 11.8a382 382 0 0 0 57.7 4c25.2 0 45.5-1.8 61-4.2 14.7-2 35.6-7.6 39.7-11.3z" fill="none" stroke="#000" stroke-width=".6" stroke-linecap="round" stroke-linejoin="round"/><path d="M239.8 260.3c-42.8-.2-79.4-11.6-87.2-13.5l5.7 8.8a234 234 0 0 0 81.9 13.4c32.5-1 61-3.5 81-13.2l5.7-9.2c-13.6 6.4-60 13.7-87.1 13.7" fill="#ffe805" fill-rule="evenodd"/><path d="M323.3 253.7l-2.6 3.8c-9.4 3.4-24.3 6.9-30.6 7.9a276.9 276.9 0 0 1-50.3 4.6c-37.9-.6-68.9-8-83.5-14.3l-1.1-2 .2-.3 2 .7c25.9 9.3 55 13 82.6 13.7 17.6 0 35.1-2 49.3-4.6 21.8-4.3 30.6-7.6 33.3-9.1l.7-.4zm5-8.3v.1l-1.9 3.3c-5 1.8-18.7 5.8-38.6 8.6-13.2 1.8-21.4 3.5-47.5 4-49-1.2-80.8-10.8-88.3-13.2l-1.1-2.1a372.4 372.4 0 0 0 89.4 13c24-.4 34-2.2 47.1-4 23.3-3.6 35-7.4 38.6-8.5l-.2-.2 2.5-1" fill="#ffe805" fill-rule="evenodd"/><path d="M323.3 253.7a134 134 0 0 1-2.6 3.8c-9.4 3.4-24.3 6.9-30.6 7.9a277 277 0 0 1-50.3 4.6c-37.9-.6-68.9-8-83.5-14.3l-1.1-2 .2-.3 2 .7c25.9 9.3 55 13 82.6 13.7 17.6 0 35.1-2 49.3-4.6 21.8-4.3 30.6-7.6 33.3-9.1l.7-.4zm5-8.3v.1l-1.9 3.3c-5 1.8-18.7 5.8-38.6 8.6-13.2 1.8-21.4 3.5-47.5 4-49-1.2-80.8-10.8-88.3-13.2l-1.1-2.1a372.4 372.4 0 0 0 89.4 13c24-.4 34.1-2.2 47.1-4 23.3-3.6 35-7.4 38.6-8.5l-.2-.2 2.5-1z" fill="none" stroke="#000" stroke-width=".5" stroke-linecap="round" stroke-linejoin="round"/><path d="M239.8 111a88.9 88.9 0 1 1-.2 177.9 88.9 88.9 0 0 1 .2-177.8zm0-8.7a98 98 0 0 1 97.7 97.7 98 98 0 0 1-97.7 97.7 98 98 0 0 1-97.7-97.7 98 98 0 0 1 97.7-97.7" fill="#ffe805" fill-rule="evenodd"/><path d="M240 101c54.4 0 99 44.6 99 99.1 0 54.5-44.6 99-99 99-54.6 0-99.1-44.5-99.1-99s44.5-99 99-99zm0 2.3a97.2 97.2 0 0 1 96.7 96.8 97.2 97.2 0 0 1-96.8 96.8 97.2 97.2 0 0 1-96.8-96.8 97.2 97.2 0 0 1 96.8-96.8" fill="#ffe805" fill-rule="evenodd"/><path d="M240 101c54.4 0 99 44.6 99 99.1 0 54.5-44.6 99-99 99-54.6 0-99.1-44.5-99.1-99s44.5-99 99-99zm0 2.3a97.2 97.2 0 0 1 96.7 96.8 97.2 97.2 0 0 1-96.8 96.8 97.2 97.2 0 0 1-96.8-96.8 97.2 97.2 0 0 1 96.8-96.8z" fill="none" stroke="#000" stroke-width=".6" stroke-linecap="round" stroke-linejoin="round"/><path d="M240 109.3a91 91 0 0 1 90.7 90.7 91 91 0 0 1-90.7 90.7 91 91 0 0 1-90.7-90.7 91 91 0 0 1 90.7-90.7zm0 2.2a88.9 88.9 0 0 1 88.5 88.5c0 48.7-40 88.5-88.5 88.5a88.9 88.9 0 0 1-88.5-88.5c0-48.7 40-88.5 88.5-88.5" fill="#ffe805" fill-rule="evenodd"/><path d="M240 109.3a91 91 0 0 1 90.7 90.7 91 91 0 0 1-90.7 90.7 91 91 0 0 1-90.7-90.7 91 91 0 0 1 90.7-90.7zm0 2.2a88.9 88.9 0 0 1 88.5 88.5c0 48.7-40 88.5-88.5 88.5a88.9 88.9 0 0 1-88.5-88.5c0-48.7 40-88.5 88.5-88.5z" fill="none" stroke="#000" stroke-width=".6" stroke-linecap="round" stroke-linejoin="round"/><path d="M235.9 299.9h8.6V100.6H236V300z" fill="#ffe805" fill-rule="evenodd"/><path d="M237 100.7h6M237 299.6h6" fill="none" stroke="#000" stroke-width=".6" stroke-linecap="round" stroke-linejoin="round"/><path d="M243.1 99.5h2.2v201.3h-2.2V99.5zm-8.4 0h2.2v201.3h-2.2V99.5" fill="#ffe805" fill-rule="evenodd"/><path d="M243.1 99.5h2.2v201.3h-2.2V99.5zm-8.4 0h2.2v201.3h-2.2V99.5z" fill="none" stroke="#000" stroke-width=".6" stroke-linecap="round" stroke-linejoin="round"/><path d="M140.5 195.9c12.5-11.4 58.3-18.9 99-18.7 40.6.2 88.7 8.6 99.2 18.4v8.6c-8.7-8.3-46.1-18.1-99.2-18.2-53.1-.1-91.7 10-99 18.4v-8.5" fill="#ffe805" fill-rule="evenodd"/><path d="M140.5 196.3v7.3M339 196.6v7.3" fill="none" stroke="#000" stroke-width=".6" stroke-linecap="round" stroke-linejoin="round"/><path d="M240 184.8c23.3 0 46 2.2 64 5.7 18.6 3.7 31.7 8.3 36.1 13.6v2.5c-5.4-6.4-23-11.2-36.5-14A341 341 0 0 0 240 187c-24.6 0-47.4 2.4-65 5.8-14.2 2.8-33 8.4-35.3 13.9V204c1.3-3.8 15.3-9.5 35-13.4 17.7-3.5 40.6-5.8 65.3-5.8zm0-8.5c23.3 0 46 2.2 64 5.7 18.6 3.7 31.7 8.4 36.1 13.6v2.5c-5.4-6.4-23-11.2-36.5-14a341 341 0 0 0-63.6-5.6 353 353 0 0 0-65 5.8c-13.5 2.6-33.1 8.4-35.3 13.9v-2.7c1.3-3.8 15.6-9.7 35-13.4 17.7-3.5 40.6-5.8 65.3-5.8" fill="#ffe805" fill-rule="evenodd"/><path d="M240 184.8c23.3 0 46 2.2 64 5.7 18.6 3.7 31.7 8.3 36.1 13.6v2.5c-5.4-6.4-23-11.2-36.5-14A341.3 341.3 0 0 0 240 187c-24.6 0-47.4 2.4-65 5.8-14.1 2.8-33 8.4-35.3 13.9V204c1.3-3.8 15.3-9.5 35-13.4 17.7-3.5 40.6-5.8 65.3-5.8zm0-8.5c23.3 0 46 2.2 64 5.7 18.6 3.7 31.7 8.4 36.1 13.6v2.5c-5.4-6.4-23-11.2-36.5-14a341 341 0 0 0-63.6-5.6 353 353 0 0 0-65 5.8c-13.5 2.6-33.1 8.4-35.3 13.9v-2.7c1.3-3.8 15.6-9.7 35-13.4 17.7-3.5 40.6-5.8 65.3-5.8z" fill="none" stroke="#000" stroke-width=".6" stroke-linecap="round" stroke-linejoin="round"/><path d="M239.5 133c36.8-.2 69 5.1 83.7 12.6l5.3 9.3c-12.7-6.9-47.4-14-89-13-33.8.3-70 3.8-88.1 13.5l6.4-10.8c14.9-7.7 50-11.6 81.7-11.6" fill="#ffe805" fill-rule="evenodd"/><path d="M324.1 147.1l3.7 6" fill="none" stroke="#000" stroke-width=".6" stroke-linecap="round" stroke-linejoin="round"/><path d="M240 140.6c21 0 41.3 1.2 57.4 4 15 2.9 29.4 7 31.5 9.3l1.6 2.8c-5-3.2-17.4-6.8-33.4-9.9-16-3-36.3-4-57.2-4-23.7 0-42.1 1.3-58 4a102.3 102.3 0 0 0-31.1 9.7l1.5-3a104 104 0 0 1 29.2-8.9c16.4-3 35-3.8 58.5-4zm0-8.5c20 0 40 1.1 55.4 3.9 12.2 2.4 24.3 6 28.7 9.4l2.3 3.7c-4-4.4-18.8-8.6-32-11a353.2 353.2 0 0 0-54.4-3.8c-21.2 0-40.7 1.4-55.8 4.1a90.8 90.8 0 0 0-27.7 8.6l2-3.1a99 99 0 0 1 25.3-7.7c15.3-2.7 35-4 56.2-4" fill="#ffe805" fill-rule="evenodd"/><path d="M240 140.6c21 0 41.3 1.2 57.4 4 15 2.9 29.4 7 31.5 9.3l1.6 2.8c-5-3.2-17.4-6.8-33.4-9.9-16-3-36.3-4-57.2-4-23.7 0-42.1 1.3-58 4a102.3 102.3 0 0 0-31.1 9.7l1.5-3a104 104 0 0 1 29.2-8.9c16.4-3 35-3.8 58.5-4zm0-8.5c20 0 40 1.1 55.4 3.9 12.2 2.4 24.3 6 28.7 9.4l2.3 3.7c-4-4.4-18.8-8.6-32-11a353.1 353.1 0 0 0-54.4-3.8c-21.2 0-40.7 1.4-55.8 4.1a90.8 90.8 0 0 0-27.7 8.6l2-3.1a99 99 0 0 1 25.3-7.7 334 334 0 0 1 56.2-4z" fill="none" stroke="#000" stroke-width=".6" stroke-linecap="round" stroke-linejoin="round"/><path d="M289.1 241.3a258.5 258.5 0 0 0-49.2-3.8c-61.4.7-81.2 12.6-83.6 16.2l-4.6-7.5c15.6-11.3 49-17.6 88.6-17 20.5.3 38.2 1.7 53 4.6l-4.2 7.5" fill="#ffe805" fill-rule="evenodd"/><path d="M152.7 247.3l3 5.2" fill="none" stroke="#000" stroke-width=".6" stroke-linecap="round" stroke-linejoin="round"/><path d="M239.6 236.5c17 .2 33.8 1 50 4l-1.2 2c-15-2.8-31-3.8-48.8-3.7a236 236 0 0 0-65.5 7.6c-6.3 1.8-16.7 5.8-17.8 9.2l-1.2-2c.4-2 6.7-6 18.5-9.3 22.8-6.6 44.2-7.7 66-7.8zm.8-8.6c17.7.3 36 1.1 53.7 4.6l-1.2 2.2c-16-3.2-31.4-4.3-52.4-4.6-22.8 0-46.9 1.7-68.8 8-7.1 2.1-19.3 6.6-19.7 10.1l-1.2-2c.3-3.3 10.9-7.4 20.4-10.2 22-6.4 46.2-8 69.2-8.1" fill="#ffe805" fill-rule="evenodd"/><path d="M239.6 236.5c17 .2 33.8 1 50 4l-1.2 2c-15-2.8-31-3.8-48.8-3.7a236 236 0 0 0-65.5 7.6c-6.3 1.8-16.7 5.8-17.8 9.2l-1.2-2c.4-2 6.7-6 18.5-9.3 22.8-6.6 44.2-7.7 66-7.8zm.8-8.6c17.7.3 36 1.1 53.7 4.6l-1.2 2.2c-16-3.2-31.4-4.3-52.4-4.6-22.8 0-46.9 1.7-68.8 8-7.1 2.1-19.3 6.6-19.7 10.1l-1.2-2c.3-3.3 10.9-7.4 20.4-10.2 22-6.4 46.2-8 69.2-8.1z" fill="none" stroke="#000" stroke-width=".5" stroke-linecap="round" stroke-linejoin="round"/><path d="M222 233.9c0-.3.1-.6.3-.8.2-.2.4-.3.7-.3h.4l.3.4v.5l-.1.5c0 .2-.2.3-.3.4a1 1 0 0 1-.5.1h-.4a.6.6 0 0 1-.3-.4v-.4zm.3 0l.1.4c.1.2.2.2.4.2s.4 0 .5-.2l.2-.6v-.4l-.2-.2h-.4l-.4.1-.2.6zm2.3.2h.2l.1.2h.5v-.2-.1h-.2c-.2 0-.3-.1-.3-.2h-.2v-.2-.2a.5.5 0 0 1 .3-.2h.7v.3h-.2v-.1h-.3-.2v.2l.2.1h.3l.2.2v.2l-.1.2-.2.2h-.7l-.1-.4zm2.3-.1h.2l-.3.3-.3.2c-.2 0-.4 0-.5-.2v-.5l.1-.5c.2-.2.3-.2.5-.2l.4.1.1.5-1 .1.1.4h.5l.2-.2zm-.7-.4h.7v-.2l-.3-.2c-.1 0-.2 0-.3.2l-.1.2zm1 .9h.3v.1h.5l.1-.2v-.3c0 .2-.2.2-.3.2-.2 0-.3 0-.4-.2 0 0-.1-.2 0-.4v-.4l.2-.2.4-.1.3.1v-.1h.2l-.1 1.1-.1.5-.2.2h-.7c-.1 0-.2-.2-.1-.3zm.3-.8l.1.3.2.1.3-.1.2-.4-.1-.3-.2-.2-.3.2-.2.4zm1.2.6l.2-1.4h.2v.2l.1-.1.3-.1h.2l.1.2.4-.2h.3c0 .1.1.3 0 .4v1h-.3l.1-1v-.1-.1h-.4l-.1.4-.1.7h-.2v-.8c.1-.1 0-.2 0-.2l-.1-.1h-.2l-.1.2v.3l-.2.7h-.2zm3-.6h.3c0 .2-.2.3-.3.4h-.4c-.2.1-.3 0-.4 0v-.6l.1-.5.5-.2c.2 0 .3 0 .4.2l.1.5h-1l.1.4.3.1h.2l.1-.3zm-.6-.3h.7v-.3l-.3-.1-.3.1-.1.3zm1 .7l.3-1.3h.2v.2c0-.2.2-.2.4-.2h.2l.1.1V234.1h-.3l.1-.8v-.2-.1h-.2-.2l-.2.4v.7h-.3zm2-.2v.2h-.2-.1l-.1-.1v-.3l.1-.8h-.2v-.1h.2v-.4l.3-.1v.5h.2v.1h-.3l-.1.8v.1h.2zm.2-.5l.3-.6.4-.1c.2 0 .3 0 .4.2.1 0 .2.3.1.5l-.1.4-.3.2h-.7v-.6zm.2 0v.4l.3.1.3-.1.2-.4v-.4l-.3-.1-.3.1-.2.4zm2.8.2h.2c0 .2 0 .3-.2.4h-.4l-.4-.1-.1-.5.2-.5c.2-.2.3-.2.5-.2s.3 0 .4.2l.1.5h-1v.4h.6l.1-.2zm-.6-.3h.7v-.3l-.3-.1h-.3l-.1.4zm1 .7l.3-1.8h.3l-.3 1.8h-.3m.9-1.6v-.2h.2v.2h-.2zm-.3 1.6l.2-1.3h.2l-.2 1.3h-.2m.6 0l.2-1.3h.2v.1l.1-.1h.5l.1.2c.1-.2.3-.3.4-.3l.3.1v1.3h-.3l.1-.8v-.2-.1h-.4l-.1.3-.2.8h-.2l.2-.9v-.2h-.2-.2l-.1.1-.1.3-.1.7h-.2zm2.3-1.6v-.2h.3v.2h-.3m-.3 1.6l.3-1.3h.2l-.2 1.3h-.3m.6 0l.2-1.4h.2v.2a.5.5 0 0 1 .7-.1l.1.3v.2l-.2.8h-.2l.2-.8v-.2-.1h-.5l-.2.4v.7h-.3m2.2-.1l-.2.1h-.6v-.3-.2l.2-.2h.4l.4-.1v-.3h-.5l-.2.2h-.2l.2-.3.2-.1a1 1 0 0 1 .5 0l.2.1v.7l-.1.4v.1h-.2v-.1zm.1-.5h-.4-.1a.2.2 0 0 0-.2.3v.1h.2a.5.5 0 0 0 .4-.1l.1-.3m1.3.6v-.1l-.4.2-.2-.1-.2-.3v-.4l.1-.3.3-.3h.5l.1.1.1-.6h.2l-.3 1.8h-.2zm-.6-.7v.4l.3.2s.2 0 .3-.2l.1-.3v-.4l-.2-.2c-.1 0-.2 0-.3.2l-.2.3zm1.2 0c0-.2.1-.4.3-.5l.4-.1c.2 0 .3 0 .4.2l.1.5-.1.4-.3.2h-.3l-.4-.1-.1-.6zm.2 0v.4l.3.2c.1 0 .2 0 .3-.2l.2-.3v-.4l-.3-.2c-.1 0-.2 0-.3.2l-.2.4zm1.8.8l.3-1.4h.2v.2l.1-.1h.4l-.2.2h-.1-.1l-.1.1-.1.3-.2.7h-.2zm1.8-.4h.2c0 .2-.1.3-.2.3l-.4.1c-.2 0-.3 0-.4-.2v-.5c0-.2 0-.4.2-.5l.4-.2.4.2v.6h-.9v.3l.3.2.2-.1.2-.2zm-.6-.4h.7v-.2l-.3-.2-.3.1-.1.3zm1 .4h.2l.1.2h.5v-.1-.1l-.2-.1-.3-.2h-.1v-.3-.1l.2-.2h.1a.7.7 0 0 1 .5 0l.1.2v.2h-.2v-.2h-.2-.2l-.1.1v.1l.3.1.3.1v.2c.1 0 .1 0 0 .2v.2l-.2.1h-.7v-.4zm1.2 1l.3-1.9h.2v.2l.2-.1h.5l.1.3v.3l-.1.4-.3.2-.3.1h-.2v-.2l-.2.7h-.2zm.4-1.2v.4l.2.1h.3l.2-.5v-.4l-.2-.1-.3.1-.2.4zm2 .3h.2l-.2.4h-.4l-.4-.1v-.5c0-.3 0-.4.2-.6l.4-.1c.2 0 .3 0 .4.2v.5h-.9v.4h.5c.1 0 .2 0 .2-.2zm-.6-.4h.7v-.2l-.3-.1h-.3l-.1.3zm1.3-.7v-.3h.3v.3h-.3m-.3 1.6l.3-1.4h.2l-.3 1.4h-.2zm1-.2v.2h-.3v-.1-.3l.1-.8h-.1v-.1h.2v-.4h.3l-.1.4h.2v.2h-.2l-.2.7v.2h.2zm1.1 0a1 1 0 0 1-.3.2h-.5v-.3a.4.4 0 0 1 .1-.3l.2-.1H256.1v-.1-.2l-.2-.1h-.3l-.1.2h-.2l.1-.3h.2a1 1 0 0 1 .6 0h.1v1.3h-.3v-.2zm0-.4h-.3l-.2.1-.1.2v.1h.2c0 .1.1 0 .2 0l.2-.1V233.7zm1.2 0c0-.2.2-.4.3-.5l.5-.1c.2 0 .3 0 .4.2v.5l-.1.4a.7.7 0 0 1-.6.3c-.2 0-.3 0-.4-.2v-.5zm.3 0v.5l.2.1.3-.1.2-.4v-.4l-.3-.1-.3.1-.1.4zm1.6 1.3l.4-1.8h.2v.2l.2-.2h.2l.3.1.1.3v.3l-.1.4-.3.2h-.3a.3.3 0 0 1-.3-.1l-.1.6h-.3zm.5-1.1v.4l.2.1.3-.1.2-.4v-.4l-.2-.1h-.3l-.2.5zm1 .7l.3-1.3h.2v.2l.1-.2h.4l-.1.3-.2-.1h-.1l-.1.2-.1.2-.2.7h-.2zm1-.6c0-.3 0-.4.2-.5l.5-.2.3.2c.1.2.2.3.1.5 0 .2 0 .3-.2.4a.7.7 0 0 1-.5.3c-.2 0-.4 0-.4-.2l-.1-.5zm.1 0v.4l.3.1h.3l.2-.5v-.3l-.3-.2-.3.1-.2.4zm1.5-.8v-.3h.2v.3h-.2m-.8 2l.1-.1h.2v-.3l.4-1.4h.2l-.3 1.5-.1.3-.3.1h-.2zm2-.8h.1l-.2.4h-.4c-.2 0-.3 0-.4-.2v-.5c0-.2 0-.4.2-.5l.5-.1c.2 0 .3 0 .4.2v.5h-1v.3l.3.2h.2l.2-.3zm-.7-.4h.7v-.2l-.3-.2-.2.1-.2.3M265.7 234.5h.2c0 .2-.2.3-.3.4h-.4l-.3-.1-.1-.6c0-.1 0-.2.2-.3l.2-.3h.3l.4.1v.3h-.2v-.2h-.5l-.2.4v.4l.3.2h.2l.2-.3zm.8.3v.2h-.2-.2v-.1-.3l.2-.7h-.2v-.2h.2v-.4h.3v.4h.1v.2h-.2l-.2.7v.2h.2zm.2-.4c0-.3.2-.4.3-.5l.5-.2.4.3v.5c0 .1 0 .3-.2.4a.7.7 0 0 1-.6.2c-.1 0-.3 0-.3-.2v-.5zm.2 0v.4l.3.1h.3l.2-.4v-.4l-.3-.2-.3.1-.2.4zm2.6 1v-.3c0 .2-.2.2-.4.2l-.2-.1-.2-.3v-.3l.2-.4.3-.2h.5v.1l.2-.6h.2l-.4 1.8h-.2zm-.5-.8v.4l.2.1h.3l.2-.4v-.4l-.3-.2-.2.1-.2.4zm2 .4h.2l-.2.4h-.4c-.2 0-.3 0-.4-.2v-.5c0-.2 0-.4.2-.5l.5-.2c.2 0 .3.1.4.3v.5h-1v.3l.3.2h.2l.2-.3zm-.6-.4h.7v-.2l-.2-.2-.3.1-.2.3zm3.1.4l.2.1a1 1 0 0 1-.3.5h-1a.6.6 0 0 1-.2-.5v-.5l.3-.5a1 1 0 0 1 .8-.3c.2 0 .4 0 .4.2l.2.4h-.2l-.1-.3-.3-.1a.6.6 0 0 0-.6.3 1.3 1.3 0 0 0-.2.8l.1.3h.7l.2-.4zm.4 0l.4-.4.4-.2c.2 0 .3.1.4.3v.5l-.1.4a.7.7 0 0 1-.6.2c-.2 0-.3 0-.4-.2v-.5zm.3.1v.4l.2.2.3-.1.2-.4v-.4l-.2-.2-.3.1-.2.4zm1 .8l.5-1.8h.2l-.5 1.8h-.2m1.4.2v-.2l-.4.2-.2-.1-.1-.1v-.2-.2l.2-.8h.2l-.2.7v.4h.2a.4.4 0 0 0 .3 0l.1-.3.2-.8h.2l-.3 1.4h-.2zm.5 0l.3-1.3h.2v.2l.2-.1h.4l.1.2.5-.2.2.2v.3l-.2 1h-.2l.2-1v-.1-.1h-.4l-.1.3-.3.7h-.2l.3-.8v-.3h-.2-.2l-.1.1-.1.3-.2.7h-.2zm2.2.3h-.2l.5-1.8h.2l-.1.7.3-.2.3.1v.2l.1.2v.3c0 .2-.2.4-.3.5l-.5.1a.3.3 0 0 1-.3-.2v.1m.2-.6v.3c0 .1 0 .2.2.2h.3l.2-.4v-.4l-.2-.2-.3.1-.2.4zm1.8.7a1 1 0 0 1-.2.2h-.3l-.3-.2v-.3-.1a.5.5 0 0 1 .4-.2H281.5v-.1-.2l-.2-.1h-.2l-.2.2h-.2l.1-.3h.8l.1.1v.7l-.2.4v.1h-.2v-.2zm.1-.5h-.5l-.1.2c-.1.1-.1.2 0 .2l.1.1h.2l.2-.2.1-.2m.4.7l.4-1.3h.2v.2a.5.5 0 0 1 .6 0h.1v.4l-.3.9h-.2l.2-.9v-.2-.1h-.1-.3l-.2.3-.2.7h-.2zm1.4-.5l.4-.5h.4c.2 0 .3 0 .4.2v.5l-.2.4a.7.7 0 0 1-.6.2.5.5 0 0 1-.4-.2v-.6zm.3 0v.5l.2.1h.3l.2-.4v-.4l-.2-.2-.3.1-.2.4" fill-rule="evenodd"/><path d="M294 232.8l-5.4 9.5" fill="none" stroke="#dc241f" stroke-width=".9" stroke-linecap="round" stroke-linejoin="round"/><path d="M156.9 144.5c30.4-.4 171 85.9 171.3 101.7l-8.7 13.4c-4-18.4-146.5-102.4-170-100.8l7.4-14.3" fill="#ffe805" fill-rule="evenodd"/><path d="M327.6 247.4l-7.4 11.4M156.7 145.3l-6.9 12.7" fill="none" stroke="#000" stroke-width=".6" stroke-linecap="round" stroke-linejoin="round"/><path d="M148.6 158.3c5.7-3.8 47.2 14.6 90.6 40.8 43.3 26.3 84.7 56 81 61.5l-1.3 2-.5.4c0-.1.7-.9-.1-3-1.9-6-31.2-29.4-79.9-58.8-47.5-28.3-87-45.4-91-40.5l1.3-2.4zm180.5 89c3.6-7.1-35-36.1-82.6-64.4-48.9-27.6-84-43.9-90.5-39l-1.4 2.6c0 .1 0-.2.4-.5 1.1-1 3-1 4-1 11 .2 42.6 14.8 87 40.2 19.4 11.3 82 51.5 81.8 62.8 0 1 0 1.2-.3 1.6l1.6-2.4" fill="#ffe805" fill-rule="evenodd"/><path d="M148.6 158.3c5.7-3.8 47.2 14.6 90.6 40.8 43.3 26.3 84.7 56 81 61.5l-1.3 2-.5.4c0-.1.7-.9-.1-3-1.9-6-31.2-29.4-79.9-58.8-47.5-28.3-87-45.4-91-40.5l1.3-2.4zm180.5 89c3.6-7.1-35-36.1-82.6-64.4-48.9-27.6-84-43.9-90.5-39l-1.4 2.6c0 .1 0-.2.4-.5 1.1-1 3-1 4-1 11 .2 42.6 14.8 87 40.2 19.4 11.3 82 51.5 81.8 62.8 0 1 0 1.2-.3 1.6l1.6-2.4z" fill="none" stroke="#000" stroke-width=".6" stroke-linecap="round" stroke-linejoin="round"/><path d="M180.6 211c0 16.3 6.7 31 17.5 41.7a59.1 59.1 0 0 0 101.2-41.6v-79.2l-118.7-.2V211" fill="#fff" fill-rule="evenodd"/><path d="M180.6 211c0 16.3 6.7 31 17.5 41.7a59.1 59.1 0 0 0 101.2-41.6v-79.2l-118.7-.2V211z" fill="none" stroke="#000" stroke-width=".7"/><path d="M182.8 211.1a57 57 0 0 0 114 0v.1-76.8h-114V211m91-53.7v54c0 1.4 0 3-.2 4.3a34 34 0 0 1-33.8 29.6 34 34 0 0 1-33.9-34v-54h68" fill="#dc241f" fill-rule="evenodd"/><path d="M182.8 211.1a57 57 0 0 0 114 0v.1-76.8h-114V211m91-53.7v54c0 1.4 0 3-.2 4.3a34 34 0 0 1-33.8 29.6 34 34 0 0 1-33.9-34v-54h68z" fill="none" stroke="#000" stroke-width=".5"/><path d="M232.6 202.4c0 2.2.9 4.2 2.2 5.7a7.2 7.2 0 0 0 5.4 2.4c2 0 3.9-1 5.3-2.4a8.3 8.3 0 0 0 2.2-5.7v-10.8h-15v10.8" fill="#003082" fill-rule="evenodd"/><path d="M244.4 194.3c-.8 0-1.5.6-1.5 1.4a1.5 1.5 0 1 0 1.5-1.4M240.2 198.2c-.8 0-1.5.7-1.5 1.5a1.5 1.5 0 0 0 3 0c0-.8-.7-1.5-1.5-1.5M244.4 202.4c-.8 0-1.5.7-1.5 1.5a1.5 1.5 0 0 0 3 0c0-.8-.7-1.5-1.5-1.5M236.3 202.4c-.9 0-1.5.7-1.5 1.5a1.5 1.5 0 0 0 3 0c0-.8-.7-1.5-1.5-1.5M236.2 194.2a1.5 1.5 0 1 0 0 3 1.5 1.5 0 0 0 0-3" fill="#fff" fill-rule="evenodd"/><path d="M232.6 228.2c0 2.2.8 4.2 2.2 5.7a7.2 7.2 0 0 0 5.3 2.4c2 0 4-1 5.3-2.4a8.4 8.4 0 0 0 2.2-5.7v-10.8h-15v10.8" fill="#003082" fill-rule="evenodd"/><path d="M244.3 220a1.5 1.5 0 1 0 0 3 1.5 1.5 0 0 0 0-3M240.1 224c-.8 0-1.4.7-1.4 1.5a1.5 1.5 0 0 0 3 0c0-.8-.7-1.5-1.6-1.5M244.3 228.2a1.5 1.5 0 0 0 0 3c.8 0 1.5-.7 1.5-1.5s-.7-1.5-1.5-1.5M236.2 228.2c-.8 0-1.5.7-1.5 1.5a1.5 1.5 0 0 0 3 0c0-.8-.7-1.5-1.5-1.5M236.2 220c-.8 0-1.5.7-1.5 1.5a1.5 1.5 0 0 0 3 0c0-.8-.7-1.5-1.5-1.5" fill="#fff" fill-rule="evenodd"/><path d="M211.8 202.5c0 2.2.9 4.2 2.2 5.6a7.2 7.2 0 0 0 5.4 2.4c2 0 3.9-.9 5.3-2.3a8.3 8.3 0 0 0 2.2-5.7v-10.8h-15v10.8" fill="#003082" fill-rule="evenodd"/><path d="M223.6 194.3c-.8 0-1.5.7-1.5 1.5a1.5 1.5 0 0 0 3 0c0-.8-.7-1.5-1.5-1.5M219.4 198.3a1.5 1.5 0 0 0 0 3 1.5 1.5 0 0 0 0-3M223.6 202.5a1.5 1.5 0 1 0 0 3 1.5 1.5 0 0 0 0-3M215.5 202.5a1.5 1.5 0 0 0 0 3c.8 0 1.5-.7 1.5-1.5 0-.9-.7-1.5-1.5-1.5M215.5 194.3c-.9 0-1.5.7-1.5 1.5a1.5 1.5 0 0 0 3 0c0-.8-.7-1.5-1.5-1.5" fill="#fff" fill-rule="evenodd"/><path d="M253.4 202.4c0 2.3.8 4.3 2.2 5.7a7.2 7.2 0 0 0 5.3 2.4c2 0 4-.9 5.3-2.4a8.3 8.3 0 0 0 2.2-5.6v-10.8h-15v10.7" fill="#003082" fill-rule="evenodd"/><path d="M265.1 194.3a1.5 1.5 0 0 0 0 3 1.5 1.5 0 0 0 0-3M261 198.3a1.5 1.5 0 1 0 0 3 1.5 1.5 0 0 0 0-3M265.1 202.5c-.8 0-1.5.6-1.5 1.4a1.5 1.5 0 0 0 3 0c0-.8-.7-1.4-1.5-1.4M257 202.5a1.5 1.5 0 1 0 0 3 1.5 1.5 0 0 0 0-3M257 194.3a1.5 1.5 0 0 0 0 3 1.5 1.5 0 0 0 0-3" fill="#fff" fill-rule="evenodd"/><path d="M232.6 176.4c0 2.2.9 4.2 2.2 5.7a7.2 7.2 0 0 0 5.3 2.4c2.1 0 4-1 5.3-2.4a8.3 8.3 0 0 0 2.2-5.7v-10.8h-15v10.8" fill="#003082" fill-rule="evenodd"/><path d="M244.4 168.2a1.5 1.5 0 0 0 0 3 1.5 1.5 0 0 0 0-3M240.2 172.2a1.5 1.5 0 1 0 0 3 1.5 1.5 0 0 0 0-3M244.4 176.4a1.5 1.5 0 0 0 0 3 1.5 1.5 0 0 0 0-3M236.3 176.4c-.9 0-1.5.7-1.5 1.5a1.5 1.5 0 0 0 3 0c0-.8-.7-1.5-1.5-1.5M236.2 168.2a1.5 1.5 0 0 0 0 3 1.5 1.5 0 0 0 0-3" fill="#fff" fill-rule="evenodd"/><path d="M190.2 154.4c.1-5.5 4-6.8 4-6.8.1 0 4.3 1.4 4.3 6.9h-8.3" fill="#ffe805" fill-rule="evenodd"/><path d="M186.8 147.7l-.7 6.3h4.2c0-5.2 4-6 4-6 .1 0 4 1.1 4.1 6h4.2l-.8-6.4h-15" fill="#ffe805" fill-rule="evenodd"/><path d="M186.8 147.7l-.7 6.3h4.2c0-5.2 4-6 4-6 .1 0 4 1.1 4.1 6h4.2l-.8-6.4h-15z" fill="none" stroke="#000" stroke-width=".5"/><path d="M185.9 154h16.9c.4 0 .6.4.6.8 0 .5-.2.8-.6.8h-17c-.3 0-.6-.3-.6-.8 0-.4.3-.7.7-.7" fill="#ffe805" fill-rule="evenodd"/><path d="M185.9 154h16.9c.4 0 .6.4.6.8 0 .5-.2.8-.6.8h-17c-.3 0-.6-.3-.6-.8 0-.4.3-.7.7-.7z" fill="none" stroke="#000" stroke-width=".5"/><path d="M192 154c0-3.3 2.3-4.2 2.3-4.2s2.3 1 2.3 4.2H192" fill="#ffe805" fill-rule="evenodd"/><path d="M192 154c0-3.3 2.3-4.2 2.3-4.2s2.3 1 2.3 4.2H192" fill="none" stroke="#000" stroke-width=".5"/><path d="M186.2 145h16.3c.3 0 .6.4.6.8 0 .3-.3.7-.6.7h-16.3c-.3 0-.6-.4-.6-.7 0-.4.3-.7.6-.7" fill="#ffe805" fill-rule="evenodd"/><path d="M186.2 145h16.3c.3 0 .6.4.6.8 0 .3-.3.7-.6.7h-16.3c-.3 0-.6-.4-.6-.7 0-.4.3-.7.6-.7z" fill="none" stroke="#000" stroke-width=".5"/><path d="M186.6 146.5H202c.3 0 .6.3.6.7 0 .4-.3.7-.6.7h-15.5c-.4 0-.6-.3-.6-.7 0-.4.2-.7.6-.7" fill="#ffe805" fill-rule="evenodd"/><path d="M186.6 146.5H202c.3 0 .6.3.6.7 0 .4-.3.7-.6.7h-15.5c-.4 0-.6-.3-.6-.7 0-.4.2-.7.6-.7z" fill="none" stroke="#000" stroke-width=".5"/><path d="M191.6 135.9h1.2v.9h.9v-1h1.3v1h.8v-1h1.3v2c0 .4-.2.6-.5.6H192c-.3 0-.5-.2-.5-.5v-2" fill="#ffe805" fill-rule="evenodd"/><path d="M191.6 135.9h1.2v.9h.9v-1h1.3v1h.8v-1h1.3v2c0 .4-.3.6-.5.6H192c-.3 0-.5-.2-.5-.5v-2z" fill="none" stroke="#000" stroke-width=".5"/><path d="M196.2 138.6l.3 6.4h-4.3l.3-6.4h3.7" fill="#ffe805" fill-rule="evenodd"/><path d="M196.2 138.6l.3 6.4h-4.3l.3-6.4h3.7" fill="none" stroke="#000" stroke-width=".5"/><path d="M197 139h1.1v1h.9v-1h1.2v1h.9v-1h1.2v2c0 .3-.2.5-.5.5h-4.3c-.3 0-.6-.2-.6-.5v-2" fill="#ffe805" fill-rule="evenodd"/><path d="M197 139h1.1v1h.9v-1h1.2v1h.9v-1h1.2v2c0 .3-.2.5-.5.5h-4.3c-.3 0-.6-.2-.6-.5v-2" fill="none" stroke="#000" stroke-width=".5"/><path d="M201.5 141.6l.2 3.4h-4.1v-3.5h4" fill="#ffe805" fill-rule="evenodd"/><path d="M201.5 141.6l.2 3.4h-4.1v-3.5h4" fill="none" stroke="#000" stroke-width=".5"/><path d="M186.3 139h1.2v1h.9v-1h1.2v1h.9v-1h1.2v2c0 .4-.2.6-.5.6h-4.3c-.3 0-.6-.3-.6-.6v-2" fill="#ffe805" fill-rule="evenodd"/><path d="M186.3 139h1.2v1h.9v-1h1.2v1h.9v-1h1.2v2c0 .4-.2.6-.5.6h-4.3c-.3 0-.6-.3-.6-.6v-2z" fill="none" stroke="#000" stroke-width=".5"/><path d="M191 141.6v3.4h-4v-3.4h4" fill="#ffe805" fill-rule="evenodd"/><path d="M191 141.6v3.4h-4v-3.4h4z" fill="none" stroke="#000" stroke-width=".5"/><path d="M193.9 140.6c0-.6.9-.6.9 0v1.5h-.9v-1.5M199.2 142.8c0-.6.8-.6.8 0v1.2h-.8v-1.2M188.6 142.8c0-.6.8-.6.8 0v1.2h-.8v-1.2" fill-rule="evenodd"/><path d="M237.3 135.9h1.2v.9h1v-1h1.2v1h.9v-1h1.2v2c0 .4-.2.6-.5.6h-4.4c-.3 0-.6-.2-.6-.5v-2" fill="#ffe805" fill-rule="evenodd"/><path d="M237.3 135.9h1.2v.9h1v-1h1.2v1h.9v-1h1.2v2c0 .4-.2.6-.5.6h-4.4c-.3 0-.6-.2-.6-.5v-2z" fill="none" stroke="#000" stroke-width=".5"/><path d="M242 138.6l.2 6.4h-4.3l.3-6.4h3.7" fill="#ffe805" fill-rule="evenodd"/><path d="M242 138.6l.2 6.4h-4.3l.3-6.4h3.7" fill="none" stroke="#000" stroke-width=".5"/><path d="M242.6 139h1.2v1h.9v-1h1.2v1h1v-1h1.1v2c0 .4-.2.6-.5.6h-4.3c-.3 0-.6-.3-.6-.6v-2" fill="#ffe805" fill-rule="evenodd"/><path d="M242.6 139h1.2v1h.9v-1h1.2v1h1v-1h1.1v2c0 .4-.2.6-.5.6h-4.3c-.3 0-.6-.3-.6-.6v-2z" fill="none" stroke="#000" stroke-width=".5"/><path d="M247.3 141.6v3.4h-4v-3.4h4" fill="#ffe805" fill-rule="evenodd"/><path d="M247.3 141.6v3.4h-4v-3.4h4z" fill="none" stroke="#000" stroke-width=".5"/><path d="M232 139h1.2v1h.9v-1h1.2v1h.9v-1h1.2v2c0 .4-.2.6-.5.6h-4.3c-.3 0-.6-.3-.6-.6v-2" fill="#ffe805" fill-rule="evenodd"/><path d="M232 139h1.2v1h.9v-1h1.2v1h.9v-1h1.2v2c0 .4-.2.6-.5.6h-4.3c-.3 0-.6-.3-.6-.6v-2z" fill="none" stroke="#000" stroke-width=".5"/><path d="M236.7 141.6v3.4h-4v-3.4h4" fill="#ffe805" fill-rule="evenodd"/><path d="M236.7 141.6v3.4h-4v-3.4h4" fill="none" stroke="#000" stroke-width=".5"/><path d="M236 154.4c0-5.5 4-6.8 4-6.8s4.2 1.4 4.2 6.9h-8.3" fill="#ffe805" fill-rule="evenodd"/><path d="M232.5 147.7l-.7 6.3h4.2c0-5.2 4-6 4-6 .1 0 4 1.1 4.1 6h4.2l-.8-6.3h-15" fill="#ffe805" fill-rule="evenodd"/><path d="M232.5 147.7l-.7 6.3h4.2c0-5.2 4-6 4-6 .1 0 4 1.1 4.1 6h4.2l-.8-6.3h-15z" fill="none" stroke="#000" stroke-width=".5"/><path d="M231.6 154h17c.3 0 .6.4.6.9 0 .4-.3.7-.7.7h-17c-.3 0-.6-.3-.6-.7 0-.5.3-.8.7-.8" fill="#ffe805" fill-rule="evenodd"/><path d="M231.6 154h17c.3 0 .6.4.6.9 0 .4-.3.7-.7.7h-17c-.3 0-.6-.3-.6-.7 0-.5.3-.8.7-.8z" fill="none" stroke="#000" stroke-width=".5"/><path d="M237.7 154c0-3.3 2.3-4.2 2.3-4.2s2.3 1 2.4 4.2h-4.7" fill="#ffe805" fill-rule="evenodd"/><path d="M237.7 154c0-3.3 2.3-4.2 2.3-4.2s2.3 1 2.4 4.2h-4.7" fill="none" stroke="#000" stroke-width=".5"/><path d="M232 145h16.2c.3 0 .6.4.6.8s-.3.7-.6.7h-16.3c-.3 0-.6-.3-.6-.7 0-.4.3-.7.6-.7" fill="#ffe805" fill-rule="evenodd"/><path d="M232 145h16.2c.3 0 .6.4.6.8s-.3.7-.6.7h-16.3c-.3 0-.6-.3-.6-.7 0-.4.3-.7.6-.7z" fill="none" stroke="#000" stroke-width=".5"/><path d="M232.3 146.5h15.5c.3 0 .6.3.6.7 0 .4-.3.7-.6.7h-15.5c-.4 0-.6-.3-.6-.7 0-.4.2-.7.6-.7" fill="#ffe805" fill-rule="evenodd"/><path d="M232.3 146.5h15.5c.3 0 .6.3.6.7 0 .4-.3.7-.6.7h-15.5c-.4 0-.6-.3-.6-.7 0-.4.2-.7.6-.7z" fill="none" stroke="#000" stroke-width=".5"/><path d="M239.6 140.6c0-.6.9-.6.9 0v1.6h-.9v-1.6M245 142.8c0-.6.8-.6.7 0v1.2h-.8v-1.2M234.3 142.9c0-.7.8-.7.8 0v1.1h-.8V143" fill-rule="evenodd"/><path d="M282.5 136h1.2v.8h1v-.9h1.2v.9h.9v-.9h1.2v2c0 .3-.2.5-.5.5H283c-.3 0-.6-.2-.6-.5v-2" fill="#ffe805" fill-rule="evenodd"/><path d="M282.5 136h1.2v.8h1v-.9h1.2v.9h.9v-.9h1.2v2c0 .3-.2.5-.5.5H283c-.3 0-.6-.2-.6-.5v-2" fill="none" stroke="#000" stroke-width=".5"/><path d="M287.1 138.6l.3 6.5H283l.3-6.5h3.7" fill="#ffe805" fill-rule="evenodd"/><path d="M287.1 138.6l.3 6.5H283l.3-6.5h3.7" fill="none" stroke="#000" stroke-width=".5"/><path d="M287.8 139h1.2v1h1v-1h1.1v1h1v-1h1.1v2c0 .4-.2.6-.5.6h-4.3c-.3 0-.6-.2-.6-.5v-2" fill="#ffe805" fill-rule="evenodd"/><path d="M287.8 139h1.2v1h.9v-1h1.2v1h1v-1h1.1v2c0 .4-.2.6-.5.6h-4.3c-.3 0-.6-.2-.6-.5v-2z" fill="none" stroke="#000" stroke-width=".5"/><path d="M292.5 141.6l.1 3.5h-4.1v-3.5h4" fill="#ffe805" fill-rule="evenodd"/><path d="M292.5 141.6l.1 3.5h-4.1v-3.5h4" fill="none" stroke="#000" stroke-width=".5"/><path d="M277.2 139h1.2v1h.9v-1h1.2v1h1v-1h1.1v2c0 .4-.2.6-.5.6h-4.3c-.3 0-.6-.2-.6-.5v-2" fill="#ffe805" fill-rule="evenodd"/><path d="M277.2 139h1.2v1h.9v-1h1.2v1h1v-1h1.1v2c0 .4-.2.6-.5.6h-4.3c-.3 0-.6-.2-.6-.5v-2z" fill="none" stroke="#000" stroke-width=".5"/><path d="M281.9 141.6v3.5h-4v-3.5h4" fill="#ffe805" fill-rule="evenodd"/><path d="M281.9 141.6v3.5h-4v-3.5h4" fill="none" stroke="#000" stroke-width=".5"/><path d="M281.1 154.5c.1-5.5 4-6.9 4-6.9.1 0 4.3 1.4 4.3 7l-8.3-.1" fill="#ffe805" fill-rule="evenodd"/><path d="M277.7 147.7l-.7 6.4h4.2c0-5.3 4-6.1 4-6.1.1 0 4 1.1 4.1 6h4.2l-.8-6.3h-15" fill="#ffe805" fill-rule="evenodd"/><path d="M277.7 147.7l-.7 6.4h4.2c0-5.3 4-6.1 4-6.1.1 0 4 1.1 4.1 6h4.2l-.8-6.3h-15" fill="none" stroke="#000" stroke-width=".5"/><path d="M276.8 154.1h17c.3 0 .6.4.6.8s-.3.8-.7.8h-17c-.3 0-.6-.4-.6-.8s.3-.8.7-.8" fill="#ffe805" fill-rule="evenodd"/><path d="M276.8 154.1h17c.3 0 .6.4.6.8s-.3.8-.7.8h-17c-.3 0-.6-.4-.6-.8s.3-.8.7-.8z" fill="none" stroke="#000" stroke-width=".5"/><path d="M283 154c0-3.2 2.2-4.2 2.2-4.2s2.3 1 2.4 4.3h-4.7" fill="#ffe805" fill-rule="evenodd"/><path d="M283 154c0-3.2 2.2-4.2 2.2-4.2s2.3 1 2.4 4.3h-4.7" fill="none" stroke="#000" stroke-width=".5"/><path d="M277.1 145h16.3c.3 0 .6.4.6.8s-.3.7-.6.7H277c-.3 0-.6-.3-.6-.7 0-.4.3-.7.6-.7" fill="#ffe805" fill-rule="evenodd"/><path d="M277.1 145h16.3c.3 0 .6.4.6.8s-.3.7-.6.7H277c-.3 0-.6-.3-.6-.7 0-.4.3-.7.6-.7z" fill="none" stroke="#000" stroke-width=".5"/><path d="M277.5 146.5H293c.3 0 .6.3.6.7 0 .4-.3.7-.6.7h-15.5c-.4 0-.6-.3-.6-.7 0-.4.2-.7.6-.7" fill="#ffe805" fill-rule="evenodd"/><path d="M277.5 146.5H293c.3 0 .6.3.6.7 0 .4-.3.7-.6.7h-15.5c-.4 0-.6-.3-.6-.7 0-.4.2-.7.6-.7z" fill="none" stroke="#000" stroke-width=".5"/><path d="M284.8 140.6c0-.6.9-.6.9 0v1.6h-.9v-1.6M290.1 142.9c0-.6.9-.6.9 0v1.2h-.9v-1.2M279.5 142.9c0-.6.8-.6.8 0v1.2h-.8v-1.2" fill-rule="evenodd"/><path d="M191.6 182.2h1.2v.9h1v-1h1.2v1h.9v-1h1.2v2c0 .4-.2.6-.5.6h-4.4c-.3 0-.6-.2-.6-.5v-2" fill="#ffe805" fill-rule="evenodd"/><path d="M191.6 182.2h1.2v.9h1v-1h1.2v1h.9v-1h1.2v2c0 .4-.2.6-.5.6h-4.4c-.3 0-.6-.2-.6-.5v-2z" fill="none" stroke="#000" stroke-width=".5"/><path d="M196.2 184.9l.3 6.4h-4.3l.3-6.4h3.7" fill="#ffe805" fill-rule="evenodd"/><path d="M196.2 184.9l.3 6.4h-4.3l.3-6.4h3.7" fill="none" stroke="#000" stroke-width=".5"/><path d="M197 185.3h1.1v1h1v-1h1.1v1h1v-1h1.1v2c0 .4-.2.6-.5.6h-4.3c-.3 0-.6-.3-.6-.6v-2" fill="#ffe805" fill-rule="evenodd"/><path d="M197 185.3h1.1v1h1v-1h1.1v1h1v-1h1.2v2c0 .4-.3.6-.6.6h-4.3c-.3 0-.6-.3-.6-.6v-2z" fill="none" stroke="#000" stroke-width=".5"/><path d="M201.6 187.9l.1 3.4h-4.1V188h4" fill="#ffe805" fill-rule="evenodd"/><path d="M201.6 187.9l.1 3.4h-4.1V188h4" fill="none" stroke="#000" stroke-width=".5"/><path d="M186.3 185.4h1.2v.8h.9v-.9h1.2v1h1v-1h1.1v2c0 .4-.2.6-.5.6h-4.3c-.3 0-.6-.3-.6-.6v-2" fill="#ffe805" fill-rule="evenodd"/><path d="M186.3 185.4h1.2v.8h.9v-.9h1.2v1h1v-1h1.1v2c0 .4-.2.6-.5.6h-4.3c-.3 0-.6-.3-.6-.6v-2z" fill="none" stroke="#000" stroke-width=".5"/><path d="M191 187.9v3.4h-4V188h4" fill="#ffe805" fill-rule="evenodd"/><path d="M191 187.9v3.4h-4V188h4z" fill="none" stroke="#000" stroke-width=".5"/><path d="M190.2 200.7c.1-5.5 4-6.8 4-6.8.1 0 4.3 1.4 4.3 6.9h-8.3" fill="#ffe805" fill-rule="evenodd"/><path d="M186.8 194l-.6 6.3h4c.1-5.2 4-6 4.2-6 0 0 4 1.1 4 6h4.2l-.7-6.3h-15" fill="#ffe805" fill-rule="evenodd"/><path d="M186.8 194l-.6 6.3h4c.1-5.2 4-6 4.2-6 0 0 4 1.1 4 6h4.2l-.7-6.3h-15z" fill="none" stroke="#000" stroke-width=".5"/><path d="M185.9 200.4h17c.3 0 .6.3.6.8 0 .4-.3.7-.7.7h-17c-.3 0-.6-.3-.6-.7 0-.5.3-.8.7-.8" fill="#ffe805" fill-rule="evenodd"/><path d="M185.9 200.4h17c.3 0 .6.3.6.8 0 .4-.3.7-.7.7h-17c-.3 0-.6-.3-.6-.7 0-.5.3-.8.7-.8z" fill="none" stroke="#000" stroke-width=".5"/><path d="M192 200.3c0-3.3 2.3-4.2 2.3-4.2s2.4 1 2.4 4.2H192" fill="#ffe805" fill-rule="evenodd"/><path d="M192 200.3c0-3.3 2.3-4.2 2.3-4.2s2.4 1 2.4 4.2H192" fill="none" stroke="#000" stroke-width=".5"/><path d="M186.2 191.4h16.3c.3 0 .6.3.6.7 0 .4-.3.7-.6.7h-16.3c-.3 0-.6-.3-.6-.7 0-.4.3-.7.6-.7" fill="#ffe805" fill-rule="evenodd"/><path d="M186.2 191.4h16.3c.3 0 .6.3.6.7 0 .4-.3.7-.6.7h-16.3c-.3 0-.6-.3-.6-.7 0-.4.3-.7.6-.7z" fill="none" stroke="#000" stroke-width=".5"/><path d="M186.6 192.8H202c.3 0 .6.3.6.7 0 .4-.3.7-.6.7h-15.5c-.4 0-.6-.3-.6-.7 0-.4.2-.7.6-.7" fill="#ffe805" fill-rule="evenodd"/><path d="M186.6 192.8H202c.3 0 .6.3.6.7 0 .4-.3.7-.6.7h-15.5c-.4 0-.6-.3-.6-.7 0-.4.2-.7.6-.7z" fill="none" stroke="#000" stroke-width=".5"/><path d="M194 187c-.1-.7.8-.7.8 0v1.5h-.9v-1.6M199.2 189.1c0-.6.9-.6.9 0v1.2h-.9v-1.2M188.6 189.2c0-.7.8-.7.8 0v1.1h-.8v-1.1" fill-rule="evenodd"/><path d="M279.8 231l.9 1-.6.5.6.7.6-.7 1 1-.7.6.6.6.7-.6.8.8-1.4 1.5c-.2.2-.5.2-.7 0l-3.2-3.2c-.2-.2-.2-.5 0-.7l1.4-1.5" fill="#ffe805" fill-rule="evenodd"/><path d="M279.8 231l.9 1-.6.5.6.7.6-.7 1 1-.7.6.6.6.7-.6.9.8-1.5 1.5c-.2.2-.5.2-.7 0l-3.1-3.2c-.3-.2-.3-.5 0-.7l1.3-1.5z" fill="none" stroke="#000" stroke-width=".5"/><path d="M281.2 236.2l-4.4 4.8-3-3 4.8-4.4 2.6 2.6" fill="#ffe805" fill-rule="evenodd"/><path d="M281.2 236.2l-4.4 4.8-3-3 4.8-4.4 2.6 2.6" fill="none" stroke="#000" stroke-width=".5"/><path d="M281.4 237l.8.9-.6.6.6.6.7-.6.8.9-.6.6.6.6.6-.6 1 .9-1.5 1.4c-.2.2-.6.2-.8 0l-3-3c-.2-.3-.2-.6 0-.8l1.4-1.4" fill="#ffe805" fill-rule="evenodd"/><path d="M281.4 237l.8.9-.6.6.6.6.6-.6 1 .9-.7.6.6.6.6-.6 1 .9-1.5 1.4c-.2.2-.6.2-.8 0l-3-3c-.2-.3-.2-.6 0-.8l1.4-1.4z" fill="none" stroke="#000" stroke-width=".5"/><path d="M282.9 242.1l-2.4 2.6-3-3 2.6-2.3 2.8 2.7" fill="#ffe805" fill-rule="evenodd"/><path d="M282.9 242.1l-2.4 2.6-3-3 2.6-2.3 2.8 2.7" fill="none" stroke="#000" stroke-width=".5"/><path d="M273.9 229.6l.8.8-.6.6.6.6.6-.6 1 .9-.7.6.6.6.6-.6.9.9-1.4 1.4c-.2.2-.6.2-.8 0l-3-3c-.2-.3-.2-.6 0-.8l1.4-1.4" fill="#ffe805" fill-rule="evenodd"/><path d="M273.9 229.6l.8.8-.6.6.6.6.6-.6 1 .9-.7.6.6.6.6-.6.9.9-1.4 1.4c-.2.2-.6.2-.8 0l-3-3c-.2-.3-.2-.6 0-.8l1.4-1.4z" fill="none" stroke="#000" stroke-width=".5"/><path d="M275.4 234.6l-2.4 2.6-3-3 2.6-2.3 2.8 2.7" fill="#ffe805" fill-rule="evenodd"/><path d="M275.4 234.6l-2.4 2.6-3-3 2.6-2.3 2.8 2.7z" fill="none" stroke="#000" stroke-width=".5"/><path d="M265.7 243.2c4-3.8 7.7-2 7.8-2 0 0 2 4-2 7.9l-5.8-6" fill="#ffe805" fill-rule="evenodd"/><path d="M268.1 236l-5 4 3 3c3.7-3.7 7.1-1.6 7.2-1.5 0 0 2 3.7-1.5 7.2l3 3 4-5L268 236" fill="#ffe805" fill-rule="evenodd"/><path d="M268.1 236l-5 4 3 3c3.7-3.7 7.1-1.6 7.2-1.5 0 0 2 3.7-1.5 7.2l3 3 4-5L268 236" fill="none" stroke="#000" stroke-width=".5"/><path d="M263 239.9l12 12c.2.2.1.6-.2 1-.3.3-.7.3-1 0l-12-12c-.2-.2-.2-.6.1-1 .3-.3.8-.3 1 0" fill="#ffe805" fill-rule="evenodd"/><path d="M263 239.9l12 12c.2.2.1.6-.2 1-.3.3-.7.3-1 0l-12-12c-.2-.2-.2-.6.1-1 .3-.3.8-.3 1 0z" fill="none" stroke="#000" stroke-width=".5"/><path d="M267.3 244.2c2.4-2.3 4.6-1.4 4.6-1.4s1 2.3-1.3 4.7l-3.3-3.3" fill="#ffe805" fill-rule="evenodd"/><path d="M267.3 244.2c2.4-2.3 4.6-1.4 4.6-1.4s1 2.3-1.3 4.7l-3.3-3.3z" fill="none" stroke="#000" stroke-width=".5"/><path d="M269.5 233.7l11.5 11.5c.3.3.2.7 0 1-.3.2-.7.3-1 0l-11.5-11.5c-.2-.2-.2-.6.1-.9.3-.3.7-.3 1 0" fill="#ffe805" fill-rule="evenodd"/><path d="M269.5 233.7l11.5 11.5c.3.3.2.7 0 1-.3.2-.7.3-1 0l-11.5-11.5c-.2-.2-.2-.6.1-.9.3-.3.7-.3 1 0z" fill="none" stroke="#000" stroke-width=".5"/><path d="M268.8 235l11 11c.2.2.2.6-.1.9-.3.3-.7.3-1 0l-11-11c-.1-.2-.1-.6.2-.8.2-.3.7-.3.9-.1" fill="#ffe805" fill-rule="evenodd"/><path d="M268.8 235l11 11c.2.2.2.6-.1.9-.3.3-.7.3-1 0l-11-11c-.1-.2-.1-.6.2-.8.2-.3.7-.4.9-.1z" fill="none" stroke="#000" stroke-width=".5"/><path d="M278.1 235.9c.4-.5 1 .2.6.6l-1 1.1-.7-.6 1.1-1.1M280.3 241.2c.4-.4 1 .2.6.6l-.8.9-.6-.6.8-.9M272.8 233.7c.4-.4 1 .2.6.6l-.9.8-.6-.5.9-.9" fill-rule="evenodd"/><path d="M282.4 182.2h1.2v.9h1v-1h1.2v1h.9v-1h1.3v2.1c0 .3-.3.5-.6.5H283c-.3 0-.6-.2-.6-.5v-2" fill="#ffe805" fill-rule="evenodd"/><path d="M282.4 182.2h1.2v.9h1v-1h1.2v1h.9v-1h1.3v2.1c0 .3-.3.5-.6.5H283c-.3 0-.6-.2-.6-.5v-2z" fill="none" stroke="#000" stroke-width=".5"/><path d="M287 184.9l.3 6.4H283l.3-6.4h3.7" fill="#ffe805" fill-rule="evenodd"/><path d="M287 184.9l.3 6.4H283l.3-6.4h3.7" fill="none" stroke="#000" stroke-width=".5"/><path d="M287.8 185.4h1.2v.8h.8v-.9h1.3v1h.8v-1h1.3v2c0 .4-.3.6-.6.6h-4.3c-.3 0-.5-.3-.5-.6v-2" fill="#ffe805" fill-rule="evenodd"/><path d="M287.8 185.4h1.2v.8h.8v-.9h1.3v1h.8v-1h1.3v2c0 .4-.3.6-.6.6h-4.3c-.3 0-.5-.3-.5-.6v-2z" fill="none" stroke="#000" stroke-width=".5"/><path d="M292.4 187.9l.1 3.4h-4.1l.1-3.4h3.9" fill="#ffe805" fill-rule="evenodd"/><path d="M292.4 187.9l.1 3.4h-4.1l.1-3.4h3.9z" fill="none" stroke="#000" stroke-width=".5"/><path d="M277.2 185.4h1.2v.8h.8v-.9h1.3v1h.8v-1h1.3v2c0 .4-.3.6-.6.6h-4.3c-.3 0-.5-.3-.5-.5v-2" fill="#ffe805" fill-rule="evenodd"/><path d="M277.2 185.4h1.2v.8h.8v-.9h1.3v1h.8v-1h1.3v2c0 .4-.3.6-.6.6h-4.3c-.3 0-.5-.3-.5-.5v-2" fill="none" stroke="#000" stroke-width=".5"/><path d="M281.8 187.9l.1 3.5h-4.1l.1-3.5h3.9" fill="#ffe805" fill-rule="evenodd"/><path d="M281.8 187.9l.1 3.5h-4.1l.1-3.5h3.9" fill="none" stroke="#000" stroke-width=".5"/><path d="M281 200.8c.2-5.6 4-6.9 4.1-6.9 0 0 4.3 1.4 4.2 6.9H281" fill="#ffe805" fill-rule="evenodd"/><path d="M277.7 194l-.7 6.3h4.1c0-5.2 4-6 4-6 .2 0 4 1.1 4.2 6h4.1l-.7-6.3h-15" fill="#ffe805" fill-rule="evenodd"/><path d="M277.7 194l-.7 6.3h4.1c0-5.2 4-6 4-6 .2 0 4 1.1 4.2 6h4.1l-.7-6.3h-15z" fill="none" stroke="#000" stroke-width=".5"/><path d="M276.7 200.4h17c.3 0 .6.3.6.8 0 .4-.3.7-.7.7h-16.9c-.4 0-.6-.3-.6-.7 0-.5.2-.8.6-.8" fill="#ffe805" fill-rule="evenodd"/><path d="M276.7 200.4h17c.3 0 .6.3.6.8 0 .4-.3.7-.7.7h-16.9c-.4 0-.6-.3-.6-.7 0-.5.2-.8.6-.8z" fill="none" stroke="#000" stroke-width=".5"/><path d="M282.9 200.3c0-3.3 2.2-4.2 2.2-4.2s2.4 1 2.4 4.2h-4.6" fill="#ffe805" fill-rule="evenodd"/><path d="M282.9 200.3c0-3.3 2.2-4.2 2.2-4.2s2.4 1 2.4 4.2h-4.6" fill="none" stroke="#000" stroke-width=".5"/><path d="M277 191.4h16.3c.3 0 .6.3.6.7 0 .4-.3.7-.6.7h-16.2c-.4 0-.7-.3-.7-.7 0-.4.3-.7.7-.7" fill="#ffe805" fill-rule="evenodd"/><path d="M277 191.4h16.3c.3 0 .6.3.6.7 0 .4-.3.7-.6.7h-16.2c-.4 0-.7-.3-.7-.7 0-.4.3-.7.7-.7z" fill="none" stroke="#000" stroke-width=".5"/><path d="M277.4 192.8h15.5c.4 0 .6.3.6.7 0 .4-.2.7-.6.7h-15.5c-.3 0-.6-.3-.6-.7 0-.4.3-.7.6-.7" fill="#ffe805" fill-rule="evenodd"/><path d="M277.4 192.8h15.5c.4 0 .6.3.6.7 0 .4-.2.7-.6.7h-15.5c-.3 0-.6-.3-.6-.7 0-.4.3-.7.6-.7z" fill="none" stroke="#000" stroke-width=".5"/><path d="M284.7 187c0-.7 1-.7 1 0v1.5h-1v-1.6M290 189.2c0-.7.9-.7.9 0v1.1h-.8v-1.1M279.4 189.2c0-.6.9-.7.8 0v1.2h-.8v-1.2" fill-rule="evenodd"/><path d="M196 234.9l1-.9.6.6.6-.6-.6-.6.9-1 .6.7.6-.6-.6-.7.9-.8 1.4 1.4c.2.2.2.5 0 .7l-3.1 3.2c-.2.2-.6.2-.8 0l-1.4-1.4" fill="#ffe805" fill-rule="evenodd"/><path d="M196 234.9l1-.9.6.6.6-.6-.6-.6.9-1 .6.7.6-.6-.6-.7.9-.8 1.4 1.4c.2.2.2.5 0 .7l-3.1 3.2c-.2.2-.6.2-.8 0l-1.4-1.4z" fill="none" stroke="#000" stroke-width=".5"/><path d="M201.2 233.5l4.8 4.4-3 3-4.4-4.7 2.6-2.7" fill="#ffe805" fill-rule="evenodd"/><path d="M201.2 233.5l4.8 4.4-3 3-4.4-4.8 2.6-2.6" fill="none" stroke="#000" stroke-width=".5"/><path d="M202 233.3l1-.8.5.6.7-.6-.7-.6 1-1 .5.7.7-.6-.7-.6.9-1 1.4 1.5c.2.2.2.6 0 .8l-3 3c-.2.2-.6.2-.8 0l-1.4-1.4" fill="#ffe805" fill-rule="evenodd"/><path d="M202 233.3l1-.8.5.6.7-.6-.7-.6 1-1 .5.7.7-.6-.7-.6.9-1 1.4 1.5c.2.2.2.6 0 .8l-3 3c-.2.2-.6.2-.8 0l-1.4-1.4z" fill="none" stroke="#000" stroke-width=".5"/><path d="M207.1 231.8l2.6 2.4-3 3-2.3-2.6 2.7-2.8" fill="#ffe805" fill-rule="evenodd"/><path d="M207.1 231.8l2.6 2.4-3 3-2.3-2.6 2.7-2.8" fill="none" stroke="#000" stroke-width=".5"/><path d="M194.6 240.8l.8-.8.7.6.6-.6-.7-.6 1-.9.5.6.7-.6-.7-.6 1-.9 1.3 1.4c.2.2.2.6 0 .8l-3 3c-.2.2-.6.3-.8 0l-1.4-1.4" fill="#ffe805" fill-rule="evenodd"/><path d="M194.6 240.8l.8-.8.7.6.6-.6-.7-.6 1-.9.5.6.7-.6-.7-.6 1-.9 1.3 1.4c.3.2.2.6 0 .8l-3 3c-.2.2-.6.3-.8 0l-1.4-1.4" fill="none" stroke="#000" stroke-width=".5"/><path d="M199.6 239.3l2.6 2.4-3 3-2.3-2.6 2.7-2.8" fill="#ffe805" fill-rule="evenodd"/><path d="M199.6 239.3l2.6 2.4-3 3-2.3-2.6 2.7-2.8" fill="none" stroke="#000" stroke-width=".5"/><path d="M208.2 249c-3.8-4-2-7.7-2-7.8 0 0 4-2 8 2l-6 5.8" fill="#ffe805" fill-rule="evenodd"/><path d="M201 246.6l4 5 3-3c-3.7-3.7-1.5-7.1-1.4-7.1 0-.1 3.6-2 7.2 1.4l2.9-3-5-4-10.6 10.7" fill="#ffe805" fill-rule="evenodd"/><path d="M201 246.6l4 5 3-3c-3.7-3.7-1.5-7.1-1.4-7.1 0-.1 3.6-2 7.2 1.4l2.9-3-5-4-10.6 10.7z" fill="none" stroke="#000" stroke-width=".5"/><path d="M204.9 251.8l12-12c.2-.3.7-.2 1 0 .3.4.3.9 0 1.1L206 253c-.3.2-.7.2-1-.1-.3-.3-.4-.8-.1-1" fill="#ffe805" fill-rule="evenodd"/><path d="M204.9 251.8l12-12c.2-.3.7-.2 1 0 .3.4.3.9 0 1.1l-12 12c-.2.2-.6.2-1-.1-.2-.3-.3-.8 0-1z" fill="none" stroke="#000" stroke-width=".5"/><path d="M209.2 247.4c-2.3-2.4-1.4-4.6-1.4-4.6s2.4-1 4.7 1.3l-3.3 3.3" fill="#ffe805" fill-rule="evenodd"/><path d="M209.2 247.4c-2.3-2.4-1.4-4.6-1.4-4.6s2.4-1 4.7 1.3l-3.3 3.3" fill="none" stroke="#000" stroke-width=".5"/><path d="M198.8 245.2l11.5-11.5c.2-.3.6-.2.9 0 .3.3.3.7 0 1l-11.4 11.5c-.3.2-.7.2-1-.1-.2-.3-.3-.7 0-1" fill="#ffe805" fill-rule="evenodd"/><path d="M198.8 245.2l11.5-11.5c.2-.3.6-.2.9 0 .3.3.3.7 0 1l-11.4 11.5c-.3.2-.7.2-1-.1-.2-.3-.3-.7 0-1z" fill="none" stroke="#000" stroke-width=".5"/><path d="M200 246l11-11c.2-.3.6-.3 1 0 .2.3.2.7 0 1l-11 11c-.2.1-.6.1-1-.2-.2-.2-.2-.7 0-.9" fill="#ffe805" fill-rule="evenodd"/><path d="M200 246l11-11c.2-.3.6-.3 1 0 .2.3.2.7 0 1l-11 11c-.2.1-.6.1-1-.2-.2-.2-.2-.7 0-.9z" fill="none" stroke="#000" stroke-width=".5"/><path d="M201 236.4c-.4-.4.2-1 .7-.6l1 1.1-.5.6-1.1-1M206.4 234.3c-.4-.5.1-1 .6-.6l.8.8-.6.6-.8-.8M198.9 241.8c-.5-.4.1-1 .6-.6l.8.9-.6.5-.8-.8" fill-rule="evenodd"/></g></svg>