<svg xmlns="http://www.w3.org/2000/svg" height="480" width="640" viewBox="0 0 640 480">
  <path fill="#0038a8" d="M0 319.7h640V480H0z"/>
  <path fill="#fff" d="M0 160h640v160H0z"/>
  <path fill="#d52b1e" d="M0 0h640v160H0z"/>
  <g fill="none" stroke="#000" transform="translate(-116.4) scale(1.5)">
    <circle cx="300" cy="165" r="42.2" stroke-width="1.08"/>
    <circle cx="300" cy="165" r="34.67" stroke-width=".48"/>
    <circle cx="300" cy="165" r="26.56" stroke-width=".44"/>
  </g>
  <path d="M287.32 263.68l-7.12 4.23-2.17-3.6c-.4-.7-.66-1.2-.75-1.6a1.93 1.93 0 0 1 .13-1.2c.2-.4.5-.7 1-1 .4-.2.8-.3 1.2-.3a2.3 2.3 0 0 1 1.1.3c.3.2.5.4.8.6 0-.3-.1-.5 0-.7 0-.1.1-.3.2-.5s.2-.4.3-.5l1.5-2.3 1.5 2.5-1.4 2.5c-.2.3-.3.6-.3.8 0 .2 0 .4.2.6l.2.2 2.9-1.7zm-5.55.3l-.55-.92c-.06-.1-.2-.28-.44-.53a.68.68 0 0 0-.44-.22.77.77 0 0 0-.5.1c-.22.2-.36.4-.4.6-.03.2.07.5.3 1l.58 1zm-6.7-5.5l-2.16-6.5 1.7-.55 1.4 4.07 1.3-.42-1.2-3.77 1.6-.5 1.3 3.8 1.6-.5-1.4-4.2 1.8-.6 2.2 6.7zm-2.84-9.67l-.48-4.2c-.1-.9.04-1.6.42-2.1.4-.5.98-.8 1.8-.9.82-.1 1.5.1 2.02.5.5.5.8 1.2.9 2.2l.1 1.4 3-.3.3 2.6zm3.22-2.9l-.07-.6c-.06-.5-.18-.8-.38-1a.83.83 0 0 0-.68-.2.92.92 0 0 0-.63.4c-.2.2-.3.5-.2 1l.1.7zm-3.48-12.6l.28-2.5 4.9.6a4.16 4.16 0 0 1 1.36.4c.5.2.8.5 1.1.9.3.4.5.7.6 1.1.2.5.2 1.1.1 1.8 0 .4-.1.9-.2 1.3-.1.5-.2.9-.4 1.2-.2.3-.4.6-.8.8-.3.2-.6.4-1 .5-.5.1-1 .2-1.4.1l-4.9-.5.3-2.5 5.1.5c.5.1.8 0 1.1-.3.3-.2.5-.5.5-1 .1-.4 0-.8-.2-1s-.5-.4-1-.4zm1.1-6l1.6-4.5c.25-.7.64-1.2 1.15-1.5a1.92 1.92 0 0 1 1.6-.1c.46.2.8.5 1.04.9.15.3.23.6.23 1.1.3-.5.7-.8 1.1-1 .4-.1.9-.1 1.4.1.4.2.7.4 1 .7.2.3.4.7.4 1.1 0 .3 0 .6-.1 1-.1.6-.2 1-.3 1.1l-1.4 4.1zM277 226l.3-1.05c.1-.4.1-.66.1-.85-.1-.2-.3-.35-.5-.44-.3-.1-.5-.07-.6.03-.2.1-.4.3-.5.7l-.4 1zm3 1.08l.4-1.22c.1-.4.13-.73.1-.95a.8.8 0 0 0-.5-.4.73.73 0 0 0-.7.1c-.2.1-.37.4-.5.8l-.44 1.3zm-3.1-9.65l1.3-2.2 5.3 3.2 2.08-3.4 1.73 1.07-3.3 5.6zm5-7.6l1.6-1.96 6.35 5.3-1.65 1.97zm11.1-4.3l2.1-.9c.3.56.47 1.1.5 1.64.03.53-.07 1.04-.3 1.5-.22.5-.6.97-1.17 1.45-.7.6-1.34.96-1.94 1.13-.6.2-1.3.17-2.1-.06-.8-.3-1.5-.8-2.1-1.5-.9-1.1-1.3-2.1-1.3-3.1.1-1.1.6-2 1.6-2.9.8-.7 1.5-1.1 2.3-1.1.7-.1 1.5.1 2.2.6l-1.4 1.8c-.2-.2-.4-.3-.5-.3a1.47 1.47 0 0 0-.7 0 1.5 1.5 0 0 0-.6.3c-.5.3-.7.8-.6 1.4 0 .4.3.9.8 1.4.6.7 1.1 1 1.5 1.1.4 0 .8-.1 1.2-.4.3-.3.5-.7.5-1.1 0-.4-.1-.8-.4-1.3zm8.8-3.14l-2.58 1.3.3 1.4-2.3 1.2-1.17-8.8 2.46-1.3 6.7 5.8-2.3 1.3zm-1.3-1.4l-2.2-2.2.6 3zm7.8-8.5l3.73-.7c.74-.2 1.35-.2 1.84 0 .5.1.9.3 1.27.6s.65.7.87 1.2c.2.5.4 1 .5 1.6.2.9.2 1.6.1 2.1a3.4 3.4 0 0 1-.6 1.3 2.73 2.73 0 0 1-1 .8 5.93 5.93 0 0 1-1.5.5l-3.7.6zm2.83 1.4l.77 4.4.6-.1c.54-.1.9-.2 1.1-.4.2-.2.35-.4.43-.7.06-.4.04-.8-.07-1.5-.17-.9-.4-1.5-.75-1.7s-.8-.4-1.5-.3zm7.8-2.9l6.84.3-.1 1.8-4.27-.2-.06 1.3 4 .1-.07 1.7-3.97-.2-.06 1.6 4.4.2-.07 1.9-6.95-.3zm9.95.8l2.5.6-1.5 6.1 3.9.9-.48 1.9-6.37-1.6zm13.3 4.4l3.66 2.2c.8.4 1.3 1 1.46 1.6.16.6.04 1.2-.37 1.9-.4.7-.97 1.1-1.64 1.3-.7.1-1.5-.1-2.4-.6l-1.2-.7-1.6 2.6-2.2-1.3zm.42 4.3l.53.3c.44.2.8.3 1.04.3a.83.83 0 0 0 .6-.4.92.92 0 0 0 .1-.7c-.06-.3-.3-.5-.7-.8l-.63-.4zm7.17 9.6l-2.13-2-1.2.7-1.94-1.8 7.93-4 2.05 1.9-3.4 8.1-1.94-1.8zm.83-1.7l1.37-2.8-2.7 1.6zm1 5.5l6.83-4.7 2.4 3.5c.48.7.76 1.2.9 1.6.1.4.1.8-.06 1.3-.13.4-.43.7-.9 1-.34.2-.72.4-1.1.4a2.3 2.3 0 0 1-1.1-.2c-.2-.1-.48-.3-.77-.6.1.3.14.6.14.7 0 .1-.05.3-.13.6a3.25 3.25 0 0 1-.2.6l-1.2 2.4-1.6-2.4 1.2-2.5c.2-.37.3-.6.3-.78a1.08 1.08 0 0 0-.2-.6l-.2-.2-2.7 1.9zm5.5-.7l.63.9c.08.1.24.2.5.5.12.1.27.2.44.2a.76.76 0 0 0 .5-.2c.2-.2.36-.3.38-.6 0-.2-.1-.5-.38-.9l-.65-.9zm2.58 12.4l-1.07-2.7-1.4.1-.9-2.4 8.9-.2 1 2.6-6.5 5.9-1-2.5zm1.47-1.2l2.43-2-3.1.2zm2.16 9l1.7-.3.6 3.9-3.5.5c-.6-.7-1-1.3-1.3-1.8s-.5-1.2-.6-2c-.1-1-.1-1.8.2-2.5.3-.7.7-1.2 1.3-1.7.6-.4 1.4-.7 2.2-.8.9-.1 1.7-.1 2.5.2a3.62 3.62 0 0 1 1.8 1.4c.4.5.6 1.2.7 2.2.1.9.2 1.6.1 2.1a2.67 2.67 0 0 1-.6 1.2c-.3.3-.7.6-1.2.8l-.8-2.4c.3-.2.5-.4.6-.7s.2-.6.1-1c0-.6-.3-1-.7-1.27s-1.1-.3-1.9-.2c-.9.13-1.5.4-1.8.8-.3.4-.4.9-.3 1.5.1.3.2.53.3.8s.3.5.6.8l.7-.1zm5.4 12l-.2 2.5-4.9-.5a4.16 4.16 0 0 1-1.3-.4 3 3 0 0 1-1-.8c-.3-.4-.5-.7-.6-1.1-.1-.5-.1-1.1-.1-1.8.1-.4.1-.9.2-1.3.1-.5.3-.9.5-1.2a3 3 0 0 1 .8-.8c.4-.3.7-.4 1-.5.6-.1 1-.2 1.4-.1l5 .4-.2 2.5-5-.4c-.4-.1-.8 0-1.1.3-.2.2-.4.5-.4 1 0 .4.1.8.3 1s.6.4 1.1.5zm-9.1 8.7l.9-2.8-1.1-.8.9-2.5 6.9 5.5-.9 2.6-8.8.3.9-2.57zm1.9.1l3.1.1-2.5-1.8zm3 6.7l-1.4 2.4h-3.3l1.6 2.9-1.5 2.4-2.5-5.2-2.9-1.8 1.3-2.2 3 1.8z"/>
  <g fill="#009b3a" stroke="#000" stroke-width=".14">
    <path d="M328.12 211.35s23.35 10.06 19.27 30.84c-4.1 20.7-17.1 20.6-22.2 22.9-5.1 2.3-8.6 5.6-10.7 5.1-2-.5-4.7-2-4.7-2s-.2 3.4 3.8 4c4.1.6 9.5-5.4 12-6.1 2.6-.7 18.4-2.4 22.3-23.6 4.5-22.6-20-30.7-20.1-31.4z"/>
    <path d="M339.9 215.77a3.2.76 75.1 0 1-1.54.12 3.2.76 75.1 1 1 1.54-.2zm-.8.23a3.3.74 63.34 1 1-1.4.5 3.3.74 63.34 0 1 1.4-.5zm-2.34 1.53a3.13.78 17.05 0 1-.15 1.58 3.13.78 17.05 0 1 .2-1.5z"/>
    <path d="M337.1 216.67a3.3.74 34.23 1 1-.66 1.33 3.3.74 34.23 1 1 .67-1.33z"/>
    <path d="M338.1 216.26a3.34.73 46.2 1 1-1.02 1.04 3.34.73 46.2 0 1 1.02-1.04z"/>
    <path d="M339.73 219.2s-.9.5-1.1.58c-.22.08-.5-.27-1.1.03-.6.4-1 .9-1.13 1.2-.13.4.17.5.9.2.7-.3.9-.9 1.24-1.1.35-.2.93-.5 1.26-.6.15-.3.6-1 .85-1.3.24-.3 1.2-1 1.53-1.7.3-.6.2-1.1-.2-.9-.4.2-.93.9-1.18 1.3-.24.5-.03 1-.3 1.4-.2.3-.72 1.2-.78 1.2zm7.22 2.4a1.08 4.8-1.58 1 1-2.17-.53 1.08 4.8-1.58 1 1 2.17.52z"/>
    <path d="M345.75 221.54a5 1.04 77.5 1 1-2.1.1 5 1.04 77.5 1 1 2.1-.1z"/>
    <path d="M342 222.7a4.67 1.1 34.9 1 1-.72 2.2 4.67 1.1 34.9 1 1 .73-2.2z"/>
    <path d="M342.76 221.64a5 1.04 50.9 0 1-1.37 1.6 5 1.04 50.9 1 1 1.3-1.6z"/>
    <path d="M344.28 221.5a5.1 1.02 61.84 1 1-1.75 1.04 5.1 1.02 61.84 1 1 1.75-1.04z"/>
    <path d="M345.56 226.43c0 .03-1.42.32-1.73.34-.3 0-.58-.62-1.5-.45-.93.17-1.68.8-1.97 1.2-.3.4.08.74 1.2.56 1.1-.18 1.55-.9 2.1-1.04.55-.16 1.46-.35 1.96-.37.3-.4 1.17-1.14 1.63-1.58.46-.5 1.98-1 2.7-1.9.62-.8.64-1.6 0-1.4-.62.1-1.54.7-2.02 1.3-.5.5-.38 1.4-.9 1.9-.4.3-1.4 1.4-1.47 1.4zm5.2 4.84a1.07 4.83 8.74 1 1-2.04-.93 1.07 4.83 8.74 1 1 2.03.93z"/>
    <path d="M349.6 230.98a1.03 5.04-2.05 1 1-2.07-.3 1.03 5.04-2.05 1 1 2.07.3z"/>
    <path d="M345.73 231.42a4.7 1.1 46.03 1 1-1.1 2.03 4.7 1.1 46.03 1 1 1.1-2.03z"/>
    <path d="M346.66 230.52a5.03 1.03 61.8 1 1-1.63 1.32 5.03 1.03 61.8 1 1 1.63-1.32z"/>
    <path d="M348.15 230.66a5.14 1 72.54 1 1-1.9.7 5.14 1 72.54 1 1 1.9-.7z"/>
    <path d="M348.52 235.77c0 .03-1.44.05-1.75 0-.3-.05-.46-.72-1.4-.73-.92 0-1.77.46-2.12.8-.36.36-.06.75 1.06.8 1.2.03 1.7-.6 2.3-.63h2c.4-.3 1.4-.9 1.9-1.2.6-.3 2.1-.5 3-1.3.8-.6.9-1.4.3-1.4s-1.6.5-2.2.9c-.5.4-.6 1.4-1.2 1.7-.4.3-1.6 1.2-1.7 1.1m2.5 6.3a1.07 4.83 31.3 0 1-1.4-1.7 1.07 4.83 31.3 0 1 1.5 1.7"/>
    <path d="M350.1 241.32a1.02 5.07 20.62 0 1-1.76-1.13 1.02 5.07 20.62 0 1 1.76 1.1m-3.67-1.2a4.76 1.1 69.93 0 1-1.8 1.4 4.76 1.1 69.93 0 1 1.8-1.5"/>
    <path d="M347.62 239.68a1 5.1-4.86 0 1-2 .55 1 5.1-4.86 1 1 2-.55"/>
    <path d="M348.92 240.44a1 5.2 5.55 1 1-2-.15 1 5.2 5.55 1 1 2 .1"/>
    <path d="M347.27 245.32c0 .03-1.32-.55-1.58-.72-.3-.17-.2-.85-1-1.25-.9-.4-1.8-.3-2.3-.13-.5.17-.4.67.6 1.16 1 .5 1.7.16 2.3.35.5.2 1.3.56 1.8.83.4-.15 1.5-.27 2.1-.38.6-.1 2.1.37 3.2.03.9-.2 1.3-.9.7-1.1-.6-.2-1.7-.2-2.4-.1-.7.2-1.1 1-1.8 1.1-.5.1-1.9.4-2 .3m.8 7.7a1.26 5.5 48.46 1 1-1.1-2.4 1.26 5.5 48.46 1 1 1 2.4"/>
    <path d="M347.33 251.87a1.2 5.8 37.47 1 1-1.56-1.9 1.2 5.8 37.47 1 1 1.56 1.9"/>
    <path d="M343.7 249.22a1.25 5.54-3.48 1 1-2.44.93 1.25 5.54-3.48 1 1 2.44-.93"/>
    <path d="M345.15 249.15a1.17 5.9 11.63 0 1-2.37-.1 1.17 5.9 11.63 1 1 2.37.1"/>
    <path d="M346.33 250.44a1.16 5.98 22.12 1 1-2.14-.88 1.16 5.98 22.12 1 1 2.1.88"/>
    <path d="M342.9 255.26c0 .03-1.27-1.1-1.5-1.37-.23-.3.13-1-.67-1.8s-1.86-1-2.42-1c-.5 0-.6.6.4 1.5s1.9.8 2.4 1.2c.5.4 1.4 1.1 1.7 1.5.6 0 1.8.2 2.6.3.7.1 2.2 1.1 3.5 1.2 1.1 0 1.8-.6 1.3-1.1s-1.7-.9-2.5-1c-.8-.1-1.5.7-2.3.6-.5-.1-2.2-.3-2.2-.4m-2.3 7.3a1.4 6.07 79.75 1 1 .3-2.9 1.4 6.07 79.75 1 1-.3 2.9"/>
    <path d="M340.5 261.05a1.34 6.36 68.5 0 1-.48-2.7 1.34 6.36 68.5 0 1 .48 2.7"/>
    <path d="M338.42 256.42a1.4 6.1 26.24 0 1-2.86-.53 1.4 6.1 26.24 1 1 2.86.5"/>
    <path d="M339.87 257.2a1.32 6.45 41.82 0 1-2.23-1.47 1.32 6.45 41.82 0 1 2.23 1.48"/>
    <path d="M340.3 259.13a1.3 6.54 52.67 1 1-1.6-2.08 1.3 6.54 52.67 0 1 1.6 2.08"/>
    <path d="M334.36 261.72c-.03.02-.64-1.78-.7-2.18-.07-.4.66-.87.3-2.03-.37-1.1-1.26-2-1.82-2.3-.56-.3-.9.3-.5 1.7s1.36 1.9 1.65 2.6c.2.7.6 1.9.7 2.5.5.3 1.6 1.3 2.2 1.8.6.5 1.5 2.4 2.7 3.2 1 .7 2 .6 1.7-.2-.3-.8-1.2-1.9-2-2.4s-1.9-.2-2.5-.8c-.5-.4-2-1.5-2-1.6"/>
    <path d="M330.76 268a1.76 6.14 89.07 0 1 0-3.54 1.76 6.14 89.07 0 1 0 3.53"/>
    <path d="M329.95 262.47a1.7 6.35 37.6 0 1-2.62-2.18 1.7 6.35 37.6 1 1 2.62 2.1"/>
    <path d="M330.8 265.28a1.74 6.2 66.47 0 1-1.24-3.25 1.74 6.2 66.47 0 1 1.25 3.25m1.7-53.4a3.8.78 41.13 0 1-1.4.78 3.8.78 41.13 1 1 1.5-.8m-1.9 1.6a3.86.77 8.16 0 1 .3 1.58 3.86.77 8.16 1 1-.3-1.6"/>
    <path d="M331.36 212.45a4.04.73 26.82 1 1-.77 1.25 4.04.73 26.82 0 1 .7-1.25M303.7 262s5.14 1.1 9.6 2.74c4.48 1.62 11.27 7.2 13.1 7.52 2.05.1 4.9-.6 5.97-3.57-3.16.8-5.05 2.1-8.06.4-1-.4-4.5-3.6-8.3-5.3-3.8-1.7-11.5-3.7-11.5-3.7l-.7 1.7m5.5-46.5c0-.1 5.9-3.2 5.9-3.2l-6.5 1.6-.7 1.1 1.4.3"/>
    <path d="M314.8 216.95c-2.3-.42-5.82-1.2-8.07-1.37 1.55-1.72 3.7-4.63 5-6.4-.86 1.7-2.23 3.94-2.77 5.56 1.58.86 4.07 1.52 5.83 2.2"/>
    <path d="M308.12 215.87c-.03-.04 5.26-4.07 5.26-4.07l-6.1 2.73-.56 1.26h1.4"/>
    <path d="M313.73 216.9c-2.3-.45-5.86-1.26-8.1-1.45 1.5-1.77 3.6-4.77 4.9-6.6-.85 1.75-2.18 4.06-2.7 5.74 1.6.8 4.12 1.5 5.9 2.3"/>
    <path d="M307.25 216.2c-.02-.04 6.2-2.6 6.2-2.6l-6.68 1.1-.86 1.08 1.4.42"/>
    <path d="M313.03 216.95c-2.33-.2-5.94-.63-8.2-.58 1.3-1.97 3.02-5.24 4.08-7.25-.6 1.87-1.6 4.37-1.9 6.13 1.7.73 4.3 1.17 6.1 1.7"/>
    <path d="M306.6 216.23c-.03-.03 4.2-5.1 4.2-5.1l-5.32 3.97-.24 1.35 1.37-.22"/>
    <path d="M313 217.28c-2.5-.05-6.38-.27-8.77-.06 1.2-2.23 2.68-5.93 3.6-8.2-.47 2.1-1.33 4.9-1.48 6.84 1.87.68 4.64.97 6.65 1.42"/>
    <path d="M305.76 217.44c-.03-.04 5.1-4.9 5.1-4.9l-6.17 3.42-.5 1.46 1.5.02"/>
    <path d="M311.9 217.44c-2.7 0-6.84-.14-9.46.16 1.74-2.5 4.1-6.6 5.58-9.12-.95 2.3-2.45 5.42-3.02 7.57 1.88.7 4.8.95 6.88 1.4"/>
    <path d="M304.05 217.8c-.03-.04 6.5-5.5 6.5-5.5l-7.36 3.9-.8 1.62 1.6-.02"/>
    <path d="M310.9 217.6c-2.65.4-6.77.82-9.33 1.47 1.37-2.67 3.13-7 4.22-9.67-.6 2.4-1.7 5.63-1.9 7.8 1.9.42 4.8.26 7 .4"/>
    <path d="M303.17 218.9c-.04-.04 5.02-6.95 5.02-6.95l-6.3 5.66-.4 1.8 1.5-.4"/>
    <path d="M309.44 218.43c-2.68.25-6.82.47-9.4 1 1.5-2.6 3.5-6.84 4.75-9.44-.8 2.3-2 5.5-2.4 7.6 1.9.5 4.8.5 7 .7"/>
    <path d="M302.27 219.62c-.03-.05 6.4-5.52 6.4-5.52l-7.26 3.9-.7 1.63h1.6"/>
    <path d="M308.66 218.7c-2.68.57-6.82 1.28-9.37 2.1 1.2-2.73 2.8-7.12 3.7-9.82-.5 2.4-1.4 5.66-1.6 7.82 2 .27 4.9-.08 7.1-.1"/>
    <path d="M301.2 219.9c-.03-.02 4.1-7.56 4.1-7.56l-5.53 6.55-.1 1.7 1.54-.7"/>
    <path d="M308.66 219.14c-2.87.75-7.34 1.73-10.04 2.75 1.04-3.1 2.22-8.1 2.96-11.2-.25 2.7-.84 6.4-.73 8.8 2.23.2 5.43-.3 7.8-.4"/>
    <path d="M300.4 221.66c-.03-.04 5.15-7.6 5.15-7.6l-6.57 6.14-.28 1.92 1.7-.46"/>
    <path d="M307.52 220c-2.82.9-7.22 2.1-9.86 3.26.9-3.12 1.84-8.1 2.43-11.16-.2 2.68-.6 6.35-.4 8.73 2.2.1 5.4-.6 7.7-.83"/>
    <path d="M299.38 222.78c-.05-.04 3.9-8.38 3.9-8.38l-5.55 7.22.02 1.92 1.62-.76"/>
    <path d="M306.44 221.15c-2.88.66-7.37 1.5-10.1 2.44 1.16-3.1 2.56-8 3.42-11-.36 2.6-1.1 6.3-1.1 8.7 2.2.3 5.42-.2 7.78-.2"/>
    <path d="M298.44 223.58c-.03-.05 6.4-6.56 6.4-6.56l-7.54 4.86-.6 1.84 1.75-.14"/>
    <path d="M305.17 222.28c-2.86.4-7.3.8-10.03 1.5 1.32-3 3-7.82 4.02-10.8-.52 2.68-1.47 6.3-1.62 8.73 2.15.5 5.3.4 7.62.6"/>
    <path d="M297.18 222.92c-.05-.04 4.34-8.2 4.34-8.2l-5.9 6.9-.08 1.96 1.64-.66"/>
    <path d="M305.5 221.3c-3.1 1.28-7.95 3.06-10.87 4.63.96-3.7 1.97-9.54 2.6-13.14-.12 3.1-.54 7.4-.28 10.1 2.47-.1 5.96-1.2 8.56-1.6"/>
    <path d="M296.58 225.4c-.05-.03 5.2-9.4 5.2-9.4l-6.86 7.96-.2 2.23 1.86-.8"/>
    <path d="M304.32 222.47c-3.05 1.44-7.82 3.46-10.65 5.18.8-3.7 1.53-9.52 2-13.1.02 3.08-.2 7.33.17 10 2.46-.2 5.9-1.46 8.48-2.08"/>
    <path d="M295.52 226.84c-.06-.04 3.8-10.14 3.8-10.14l-5.68 9.05.14 2.2 1.74-1.1"/>
    <path d="M302.98 223.32c-3.04 1.45-7.8 3.52-10.63 5.25.77-3.7 1.48-9.5 1.92-13.1.04 3.08-.16 7.32.24 10 2.5-.23 5.9-1.52 8.5-2.15"/>
    <path d="M294.66 228.04c-.04-.05 5.87-8.93 5.87-8.93l-7.4 7.4-.36 2.2 1.9-.6"/>
    <path d="M302.7 222.85c-2.7 2.17-7 5.35-9.44 7.72 0-3.73-.5-9.48-.8-13 .68 2.92 1.35 7.03 2.3 9.5 2.4-.86 5.53-2.96 7.95-4.22"/>
    <path d="M294.95 228.47c-.06 0 .68-10.7.68-10.7l-2.82 10.4.8 1.96 1.4-1.66"/>
    <path d="M301.94 223.84c-2.72 2.15-7.02 5.3-9.47 7.67 0-3.7-.47-9.4-.76-13 .7 3 1.4 7.1 2.3 9.5 2.4-.8 5.6-2.9 8-4.1"/>
    <path d="M294.27 230.28c-.06-.02 2.73-10.46 2.73-10.46l-4.73 9.62.38 2.15 1.62-1.4"/>
    <path d="M301.63 224.1c-2.57 2.52-6.66 6.27-8.93 9-.4-3.83-1.53-9.68-2.22-13.27 1 2.92 2.15 7.07 3.4 9.5 2.37-1.16 5.38-3.67 7.75-5.24"/>
    <path d="M294.3 231.62c-.08 0 .5-11.12.5-11.12l-2.74 10.8.85 2.05 1.4-1.73"/>
    <path d="M300.8 225.94c-2.74 2.27-7.1 5.6-9.56 8.1-.08-3.87-.73-9.84-1.12-13.5.77 3.02 1.56 7.3 2.6 9.84 2.44-.9 5.63-3.1 8.1-4.44"/>
    <path d="M293.47 232.9c-.06-.05 3.87-10.48 3.87-10.48l-5.8 9.28.15 2.3 1.7-1.1"/>
    <path d="M300.77 225.98c-2.43 2.57-6.3 6.4-8.46 9.16-.3-3.88-1.4-9.8-2.1-13.45 1 2.9 2.1 7.1 3.3 9.6 2.3-1.2 5.1-3.8 7.4-5.4"/>
    <path d="M293.6 233.43c-.05 0-.44-11.07-.44-11.07l-1.8 11.02 1.03 1.92 1.2-1.87"/>
    <path d="M299.58 226.8c-2.35 2.6-6.1 6.46-8.18 9.25-.5-3.9-1.75-9.8-2.5-13.44 1.04 3 2.25 7.2 3.5 9.6 2.2-1.2 5-3.7 7.18-5.4"/>
    <path d="M293 234.53c-.07-.02 1.23-11.24 1.23-11.24l-3.3 10.6.66 2.2 1.4-1.6"/>
    <path d="M299.07 227.24c-2.15 2.82-5.6 7.02-7.46 10-.7-3.82-2.4-9.6-3.5-13.13 1.3 2.9 2.8 6.9 4.2 9.2 2.2-1.4 4.7-4.2 6.8-6"/>
    <path d="M292.95 235.58c-.07 0-.72-11.26-.72-11.26l-1.4 11.17 1 1.9 1.12-1.9"/>
    <path d="M298.85 227.88c-2.02 2.95-5.28 7.36-7 10.45-.98-3.8-2.97-9.5-4.2-13.03 1.43 2.8 3.16 6.8 4.72 9.04 2.06-1.52 4.5-4.5 6.48-6.46"/>
    <path d="M293.64 236.63c-.06-.02 1.15-11.3 1.15-11.3l-3.3 10.62.7 2.22 1.4-1.54"/>
    <path d="M298.44 228.93c-1.74 3.2-4.58 8.05-6 11.36-1.32-3.7-3.82-9.1-5.35-12.4 1.6 2.6 3.7 6.3 5.5 8.3 1.9-1.8 4-5.1 5.8-7.3"/>
    <path d="M293.25 237.56c-.06 0-3.16-10.72-3.16-10.72l1 11.3 1.4 1.6.6-2.18"/>
    <path d="M298.37 230.18c-1.8 3.2-4.77 8.03-6.25 11.33-1.33-3.6-3.86-9-5.4-12.3 1.7 2.6 3.8 6.3 5.58 8.3 1.97-1.8 4.2-5.1 6.07-7.3"/>
    <path d="M293.4 239.58c-.07 0-1.16-11.27-1.16-11.27l-1.05 11.3 1.1 2 1.1-1.9"/>
    <path d="M298.56 231.17c-1.86 3.16-4.9 7.9-6.44 11.18-1.27-3.66-3.7-9.1-5.2-12.46 1.65 2.6 3.7 6.3 5.45 8.4 2-1.8 4.3-5 6.2-7.2"/>
    <path d="M293.3 240.48c-.07 0-2.1-11.07-2.1-11.07l-.1 11.4 1.3 1.8.9-2"/>
    <path d="M297.76 232.77c-2 3.02-5.27 7.56-6.96 10.72-1.1-3.8-3.26-9.4-4.6-12.9 1.53 2.7 3.4 6.6 5.04 8.8 2.08-1.6 4.53-4.7 6.52-6.7"/>
    <path d="M292.32 241.72c-.06-.02.94-11.32.94-11.32l-3.1 10.73.76 2.2 1.4-1.6"/>
    <path d="M297.88 233.05c-1.72 3.27-4.54 8.22-5.93 11.58-1.43-3.57-4.1-8.85-5.75-12.1 1.76 2.5 3.98 6.14 5.82 8.07 1.92-1.87 4.06-5.27 5.86-7.55"/>
    <path d="M291.94 242.66c-.06.02-3.47-10.54-3.47-10.54l1.34 11.2 1.5 1.54.7-2.2"/>
    <path d="M297.4 233.9c-1.2 3.58-3.22 9.06-4.08 12.66-1.95-3.2-5.38-7.8-7.48-10.62 2.1 2.07 4.84 5.15 6.94 6.65 1.6-2.3 3.2-6.1 4.63-8.7"/>
    <path d="M295.03 243.52c-.07.02-3.76-10.4-3.76-10.4l1.64 11.15 1.6 1.47.6-2.22"/>
    <path d="M297.38 235c-1.17 3.6-3.16 9.1-4 12.7-1.97-3.16-5.43-7.72-7.56-10.53 2.13 2.04 4.88 5.1 7 6.58 1.58-2.28 3.16-6.1 4.56-8.75"/>
    <path d="M295.06 245.3c-.06.03-4.84-9.73-4.84-9.73l2.8 10.8 1.7 1.2.34-2.28"/>
    <path d="M297.02 235.9c-.75 3.74-2.1 9.47-2.5 13.18-2.33-2.86-6.3-6.9-8.72-9.37 2.35 1.8 5.42 4.4 7.7 5.6 1.3-2.5 2.43-6.5 3.52-9.3"/>
    <path d="M295.38 246.82c-.07.02-2.6-10.9-2.6-10.9l.42 11.32 1.36 1.7.8-2.12"/>
    <path d="M297.03 237.06c-.4 3.83-1.2 9.72-1.26 13.46-2.57-2.54-6.87-6-9.5-8.16 2.48 1.4 5.78 3.6 8.13 4.46 1.08-2.65 1.82-6.8 2.64-9.76"/>
    <path d="M295.5 247.62c-.04.05-6.9-7.87-6.9-7.87l5.2 9.53 1.9.65-.2-2.3"/>
    <path d="M297.18 238.4c-.4 3.82-1.23 9.7-1.3 13.45-2.57-2.55-6.86-6.05-9.5-8.2 2.5 1.4 5.78 3.63 8.13 4.5 1.1-2.65 1.9-6.8 2.7-9.75"/>
    <path d="M296.28 249.44c-.06.04-5.3-9.5-5.3-9.5l3.33 10.66 1.8 1.14.3-2.3"/>
    <path d="M297.5 239.97c-.27 3.85-.84 9.78-.76 13.52-2.66-2.4-7.1-5.7-9.8-7.7 2.52 1.2 5.9 3.3 8.3 4 .96-2.7 1.54-6.9 2.24-9.9"/>
    <path d="M296.95 251.2c-.06.03-6.55-8.3-6.55-8.3l4.78 9.84 1.86.77-.1-2.3"/>
    <path d="M297.56 241.75c-.23 3.85-.77 9.78-.67 13.52-2.7-2.37-7.2-5.57-9.9-7.54 2.5 1.24 5.9 3.24 8.3 3.94.9-2.72 1.5-6.9 2.2-9.92"/>
    <path d="M297.54 252.6c-.06.03-4.6-10-4.6-10l2.55 10.94 1.6 1.32.4-2.26"/>
    <path d="M297.73 242.9c.13 3.86.15 9.84.6 13.55-2.87-2-7.58-4.6-10.48-6.18 2.64.9 6.2 2.42 8.63 2.8.7-2.84.85-7.1 1.25-10.18"/>
    <path d="M298.34 252.2c-.04.07-8.38-5.73-8.38-5.73l7.1 7.83 1.98.1-.7-2.2"/>
    <path d="M298 243.3c.33 3.85.66 9.8 1.3 13.5-2.98-1.9-7.83-4.3-10.8-5.78 2.68.8 6.3 2.2 8.77 2.47.55-2.9.48-7.1.72-10.2"/>
    <path d="M299.25 254.34c-.06.05-7-8.02-7-8.02l5.3 9.63 1.9.7-.2-2.3"/>
    <path d="M298.6 244.77c.5 3.83 1.08 9.77 1.88 13.42-3.05-1.7-8-3.9-11.02-5.2 2.7.6 6.4 1.8 8.85 1.9.5-2.9.2-7.2.3-10.3"/>
    <path d="M300.64 255.7c-.04.06-8.3-5.88-8.3-5.88l7 7.94 1.97.14-.6-2.2"/>
    <path d="M298.87 246.4c.74 3.78 1.72 9.68 2.75 13.25-3.15-1.42-8.2-3.06-11.3-4.08 2.75.37 6.48 1.2 8.94 1.1.23-2.92-.3-7.15-.4-10.27"/>
    <path d="M301.56 256.86c-.05.05-6.88-8.15-6.88-8.15l5.16 9.8 1.9.8-.18-2.3"/>
    <path d="M299.32 247.45c1.1 3.68 2.6 9.43 3.96 12.86-3.24-.9-8.38-1.9-11.54-2.5 2.74 0 6.5.4 8.93-.1-.05-2.9-.96-7.1-1.35-10.2"/>
    <path d="M301.92 256.87c0 .08-9.6-2.06-9.6-2.06l9.13 4.6 1.85-.7-1.38-1.8"/>
    <path d="M299.94 248.6c1.08 3.68 2.57 9.44 3.9 12.88-3.22-1-8.36-2-11.52-2.63 2.74.02 6.5.37 8.93-.04-.03-2.9-.93-7.1-1.3-10.2"/>
    <path d="M303.5 257.9c-.04.06-9.2-4.45-9.2-4.45l8.24 6.7 1.98-.2-1.03-2.06"/>
    <path d="M299.46 249.24c1.83 3.35 4.5 8.65 6.53 11.7-3.4-.25-8.6-.06-11.8.05 2.6-.6 6.4-1.2 8.7-2.1-.7-2.9-2.4-6.8-3.5-9.7"/>
    <path d="M304.95 258.9c-.02.07-9.56-2.64-9.56-2.64l8.9 5.07 1.9-.57-1.3-1.87"/>
    <path d="M300.45 250.66c1.85 3.35 4.55 8.62 6.6 11.67-3.37-.23-8.58 0-11.78.14 2.67-.63 6.4-1.17 8.67-2.14-.68-2.88-2.45-6.72-3.5-9.67"/>
    <path d="M306.15 259.68c-.03.07-8.9-5.33-8.9-5.33l7.78 7.45 2 .02-.88-2.14"/>
    <path d="M301.2 251.5c2.13 3.13 5.3 8.08 7.6 10.87-3.33.2-8.42 1.12-11.55 1.68 2.56-.98 6.18-2 8.3-3.28-.94-2.8-3.05-6.44-4.36-9.26"/>
    <path d="M306.8 260.47c0 .08-9.6-.23-9.6-.23l9.5 2.8 1.7-1.04-1.6-1.53m5.58-46.56l6.9-1.1-6.87.2-1.2.7 1.2.4"/>
    <path d="M316.18 215.38c-2-.6-5.04-1.62-7.1-2.07 2.2-.8 5.43-2.4 7.42-3.3-1.54 1-3.76 2.2-4.95 3.2 1.15.8 3.23 1.6 4.63 2.3"/>
    <path d="M312.07 214.14c0-.03 6.7-1.84 6.7-1.84l-6.94.88-1.04.72 1.2.24"/>
    <path d="M316.5 215.87c-2.35-.22-5.94-.67-8.26-.7 1.75-1.54 4.2-4.12 5.7-5.7-1.04 1.5-2.63 3.46-3.32 4.87 1.57.63 4.1 1.06 5.88 1.53"/>
    <path d="M309.6 214.62c0-.03 6.94-.8 6.94-.8l-6.78-.2-1.26.55 1.1.45"/>
    <path d="M314.74 216.13c-2.14-.4-5.37-1.12-7.53-1.37 2.1-1 5.1-2.73 6.9-3.8-1.3 1.04-3.4 2.4-4.4 3.4 1.3.65 3.6 1.23 5.1 1.77"/>
    <path d="M309 214.55c-.03-.03 6.1-2.64 6.1-2.64l-6.7 1.8-.8.8 1.4.1"/>
    <path d="M314.53 216.9c-1.77-.73-4.5-1.97-6.24-2.5 1.3-1.25 3.2-3.47 4.4-4.83-.8 1.36-2.1 3.12-2.7 4.46 1.2 1 3.1 2 4.4 2.87"/>
    <path d="M309.34 215c0-.04 4.76-2.07 4.76-2.07l-5.2.7-.62.94 1.06.43m-4 44.58c.02.08-9.85.07-9.85.07l9.9 2.45 1.6-1.08-1.8-1.44"/>
    <path d="M307.13 260.22c0 .07-10.02-2.33-10.02-2.33l9.7 4.7 1.9-.6-1.5-1.8"/>
    <path d="M308.77 260.9c0 .06-9.95-.5-9.95-.5l9.95 2.98 1.7-.96-1.7-1.53"/>
    <path d="M302.46 253.86c2.6 2.85 6.46 7.4 9.18 9.92-3.34.5-8.37 1.85-11.47 2.68 2.46-1.2 5.98-2.52 7.96-3.95-1.33-2.6-3.96-6-5.67-8.6"/>
    <path d="M310.14 261.4c-.02.07-9.95-3.26-9.95-3.26l9.3 5.56 1.9-.42-1.4-1.9"/>
    <path d="M303.38 254.52c2.82 2.57 7.07 6.7 9.98 8.9-3.2.94-7.96 2.92-10.9 4.14 2.28-1.5 5.57-3.3 7.35-4.98-1.5-2.52-4.4-5.6-6.4-8.06"/>
    <path d="M310.95 262c.02.08-9.43 1.86-9.43 1.86l9.94.68 1.4-1.38-1.9-1.15"/>
    <path d="M309 261.4c0 .1-9.85.77-9.85.77l10.15 1.74 1.56-1.1-1.87-1.3"/>
    <path d="M310.8 261.94c0 .07-10.17-1.63-10.17-1.63l9.96 4.1 1.8-.7-1.6-1.6z"/>
    <path d="M312.5 262.5c0 .06-9.97.17-9.97.17l10.15 2.3 1.63-1.07-1.8-1.4z"/>
    <path d="M305.66 255.9c2.8 2.68 7 6.94 9.9 9.26-3.3.73-8.2 2.43-11.24 3.46 2.37-1.34 5.78-2.92 7.65-4.48-1.53-2.56-4.4-5.72-6.3-8.23z"/>
    <path d="M313.9 262.9c0 .07-10.16-2.56-10.16-2.56l9.74 4.9 1.92-.55-1.5-1.8z"/>
    <path d="M306.63 256.5c3 2.37 7.57 6.2 10.64 8.2-3.13 1.14-7.73 3.45-10.56 4.86 2.2-1.65 5.3-3.66 7-5.47-1.7-2.5-4.9-5.3-7-7.6z"/>
    <path d="M314.76 263.45c.02.07-9.28 2.5-9.28 2.5h9.98l1.3-1.5-2-1z"/>
  </g>
  <path d="M327.58 249.48l-7.58-5.23-7.58 5.23 2.84-8.38-6.63-5.24h8.53l2.84-8.38 2.84 8.38h8.53l-6.64 5.24 2.85 8.38z" fill="#fedf00" stroke="#000" stroke-width=".43"/>
</svg>
