<svg xmlns="http://www.w3.org/2000/svg" xmlns:xlink="http://www.w3.org/1999/xlink" height="480" width="640" viewBox="0 0 640 480">
  <defs>
    <clipPath id="a">
      <path fill-rule="evenodd" d="M60 0h1200v900H60z"/>
    </clipPath>
  </defs>
  <g transform="matrix(.5 0 0 .5 -32 0)" clip-path="url(#a)">
    <path fill="#fff" d="M0 0h1350v900H0z"/>
    <path fill="#0c4076" d="M0 0h1350v600H0z"/>
    <path fill="#c6363c" d="M0 0h1350v300H0z"/>
    <g transform="translate(0 -.3)">
      <path d="M473.4 259.4v-.2h1v.2l-.5.5-1-1zm1 0v.5h-.5v-1zm-93 5.2l-1 .2.3-.6 4.2-.2 4-.3 4-.2 3-.3 4-.2 3-.3 3-.2 3-.2 3-.2h58v1h-5l-2 1h-12l-3 1-3 1h-7l-3 1h-6l-3 1h-6l-4 1h-21l-4 1-4 1h-8zm-1 .2l-.3-.5h1v.5zm6.4 31l-6.5-31 1-.2 6.5 31-.5.7-.5-.4zm.5.5h-.4l-1-.4zm95-4l-.2 1h1-6l-3 .2h-3l-3 .2h-3l-3 .2h-74v-1h14l3-1h15l3-1h9l3-1h27l3-1h18zm-.2 0h1zm95 3.4l1 .2h-15l-3-1h-27l-3-1h-27l-3-1h-18l1-1h96zm1 .2l1-1zm7-32l-6 31h-1l7-31 1-1h1zm0-1h1v-1zm-94-5h1v-1h98v1h-16l-4-1h-4l-3-1h-4l-3-1h-4l-3-1h-12l-3-1h-6l-2-1h-16l-2-1h-11v-1zm1 0v-1h1zm1-1h-1l1-1h1zm-1 0v-1h1zm-8 0v-1h10v1h-1v-1 1h1-8zm0 0zm-8 0v-1 1-2h10v1h-9v-1h1v1zm0-1v1-1l1-1zm0 0v-1h1z" fill="#21231e"/>
      <path d="M583.5 264.2c3.2-6.6 6.7-13 11.2-18.7-11.7 8.8-18 7.5-18.7-4-.7-.2-1.7-.2-2.6-.2-9 14-17.7 12-26.2-5.8-11.5 18.4-21.4 18-29.2-1-13.3 16.6-24.5 16.7-33.6.2v-2c.5.2 0 .3-1 0l-.3-.3a69.3 69.3 0 0 1-1 .2v-.2.4c-1 .2-1 0-1 0v2c-9 16.4-20 16.3-33-.4-8 19-17 19.5-29 1-8 18-17 20-26 6-1 0-2 0-2 .2-1 11.4-7 12.7-19 4 5 5.5 8 12 12 18.6 34-1.4 68-3.2 102-5 34 1.8 68 3.6 102 5z" fill="#edb92e"/>
      <path d="M595 246l-.6-1 .7 1v3h-2v10.4l-1-.4v-2h1l1-1 1-.3v-1l1-.6 1-1h1v-1h1v-2l1-1 1-1h1l1-1v-3h3v-1h1l1 1zm-19.2-4l.3-1 1 .5v3l1 .7 1 .8 1 .7 1 .7v.6l1 .5v1l1 .2 1 .3 1 .3 1 .2 1 .2h2l1-.2 1-.2 1-.3 1-.3 1-.3 1-.5 1-1 1-1 1-1 1-1 1-1 1-1 1 1h-1l-1 1-1 1h-14v-3l-1-1v-1l-1-1v-7zm.3-1l1 .2v.3-.4zm-2 .6l-1-.6 1-.2h2v.2h1v1h-1v-.2h-2l1-.2zm-1-.6v-.2h1v.2zm-25-5.2l-1-.6h1l1 1.7 1 1 1 1 1 1 1 1 1 1 1 1 1 1 1 1 1 1h11l1-1 1-1 1-1 1-1 1-1 1-1 1-1 1-1 1-1 1-2h1l-1 2-1 1-1 1-1 1v1h-1l-1 1-1 1h-9l-1-1h-1l-1-1v-1l-1-1-1-1-1-1-1-1-1-2-1-1-1-1v-3l-1-2h1zm-1-.6l1-.7 1 .8h-1zm-28-.5l-1-.6 1 1 1 2 1 2 1 2 1 2 1 1 1 2 1 1 1 1 1 1 1 1 1 1 1 1h8l1-1 1-1h1l1-1 1-1 1-1 1-1 1-1 1-2 1-1 1-1h1l-1 2-1 2-1 2-1 1-1 1-1 1-1 1-1 1-1 1-1 1-1 1-1 1h-1l-1 1h-5l-1-1h-1l-1-1-1-1v-1l-1-1-1-1-1-1-1-1-1-2v-2l-1-2-1-1h1zm-1-.6h1l1 1h-1zm-34 1h1l1 2 1 2 1 1 1 1 1 1 1 1 1 1 1 1 1 1 1 1 1 1 1 1h1l1 1h11l2-1 1-1 2-1 1-1 1-1 1-1 1-1 1-1 1 1-1 1-1 1-1 1-1 2-1 1-1 1-1 1-1 1-1 1-1 1-1 1-1 1h-1l-1 1h-9l-1-1h-1l-1-1-1-1-1-1-1-1-1-2-1-1-1-1-1-2zm0 1v1zm1-2v2h-1v-2h1l1 1zm-1 0h1l-1 1zm-1 1h2v1l1-1v1h-2zm1 1l1 1zm1-1v1l-1 1v-1h1zm0 0h1v1zm-1 1l1-1h1v1h-1zm1 0zm0 0h-1 2v1h-1 1zm-1 0h1v1zm0 1h1v1zm1 0v1h1zm-1 0h-1l1 1v1-1h1v1h-2v-1h1zm0 0h1v1zm0 3v-2h1v2h-1zm1 0zm-33 0l-1-1h1l1 2 2 2 2 2 1 1 1 1 1 1 1 1 1 1 1 1 2 1 1 1h1l1 1h9l1-1 1-1 1-1 1-1 1-1 1-1 1-1 1-1 1-1 1-1 1 1-1 2-1 2-1 1-1 1-1 1-1 1-1 1-1 1-1 1-1 1h-1l-1 1-1 1h-10l-1-1-1-1-1-1h-1l-1-1-1-1-1-1-1-1-1-1-1-1-1-2h1zm-1-1l1-1 1 1-1 1zm-29 2h-1 1l1 2 1 1 1 2 1 1 1 2 1 1 1 1 1 1 1 1 1 1 1 1h9l1-1h1l1-1 1-1 1-1 1-1 1-1 1-1 1-1 1-2 1-2 1-2 1 1-1 2-1 2-1 1-1 2-1 1-1 1v1l-1 1v1l-1 1v1l-1 1h-1l-1 1h-4l-1-1h-2l-1-1h-1l-1-1-1-1-1-1-1-1-1-1-1-1-1-1-1-1-1-2h1zm-1 0l1-1 1 1h-1zm-26 7v-1l1 1 1 2 1 1 1 1 1 1 1 1 1 1 1 1 1 1 1 1 1 1 1 1h1l1 1h6l1-1h1l1-1h1l1-1 1-1 1-1 1-1 1-1 1-1 1-1 1-2 1 1-1 2v2l-1 1v1l-1 2-1 1v1l-1 1-1 1-1 1-1 1h-2l-1 1h-1l-1 1h-8l-1-1-1-1v-1l-1-1-1-1-1-1-1-1-1-1-1-1zm0-1h1v1zm-2 1h-1 3v1h-3zm-1 0h1v1zm-18 4v1l1-1 1 1 1 1 1 1 1 1 1 1 1 1h2l1 1h9v-1l1-1v-4l1-1v-2h1v11l-1 1v1h-7l-1-1h-3l-1-1h-2l-1-1-2-1h1zm11 19v1-5h-1v-5l-1-1v-2l-1-1v-2l1-1v2l1 1 1 1v1l1 1 1 1v1h1v1l1 1 1 1v1l1 1h1v1l1 1v1l1 1v6zm0 1l1 1zm102-6v1l-3 1h-9l-3 1-3 1h-38l-3 1h-3l-3 1h-24l-3 1h-12v-1h79l3-1h16l3-1zm0 0zm101 5v1H484l1-1h19l3 1h3l3 1h19l3 1h52zm0 1zm0 0v-1l1 1-1 1zm1 0v1h-1 1z" fill="#21231e"/>
      <path fill="#edb92e" d="M459.4 276.2l22.7-11.5 23 11.5-23 11.4z"/>
      <path d="M474 259.2v.2c-17.6.7-48.6 2.5-93.2 5.3l6.5 31c29.6-.8 64.3-2 94.8-3 31 1 66 2.2 95 3l7-31c-44-2.8-75-4.6-93-5.3v-.2c2-.4-1-.4-8-.2-7-.2-10-.2-8 .2z" fill="#edb92e"/>
      <path d="M597.3 236.7l-3.7-.6c-7 18-13.4 18-14.6 2 1.6 0 1-3 2.8-2 1 1 2-1 1.3-2-2-1-3-1-5 1-1-2-3-4-5-3-1 1 0 3 1 3 2 0 1 2 2 3-12 17-19 15-17-7-3 0-6-1-9-2-11 23-20 24-26 3 1-1 1-4 3-3 1 1 2-1 1-2-2-2-5-1-7 2-1-3-4-4-6-2-1 1 0 3 1 3 3 0 2 3 3 4-5 20-31 21-26-8h-14c4 29-21 28-26 8 2-1 1-4 3-3 1 1 2-2 1-2-3-1-5 0-7 3-1-3-4-4-6-2-1 1 0 3 1 3 2-1 2 2 3 3-7 21-15 20-26-4-3 1-6 2-9 2 1 22-5 24-18 7 1-1 0-3 2-3 1 0 2-2 0-2-2-1-4 0-5 3-2-1-3-2-5 0-1 1 1 3 2 2 2-1 1 2 3 2-1 17-7 16-14-1l-3 1c0 4 1 9 4 12 11 14 19 11 19-4 14 17 25 14 27-3 12 22 31 12 31-2 5 20 34 19 36-3 2 22 30 23 35 3 1 14 19 24 31 2 2 17 13 20 26 3 1 15 9 18 19 5 3-3 4-8 4-12z" fill="#edb92e"/>
      <path d="M593.7 235.6l3.7.6-.2 1-3.6-.6-.4-.7.5-1zm-.5.3v-1h.5-.5zm-14.3 1v1-1 9h2v-1h1v-3l1-1v-1l1-1v-2l1-1v-4h1l-1 1v1l-1 1-1 1-1 1-1 1v1l-1 1-1 1-1 1-1 1h-3l-1-1v-1l-1-1v-1l-1-1-1-1-1-1v-4l-1-2v-2zm-1 0v-1h-1zm3-3l-1 1h-2l-1-1v-3h1zm-1 1zm1-2v-1 2h-1v-2zm0-1zm-7 1l1-1h-1v-2h5l-1 1h-1l-1-1h-2v1h-1l-1-1zm1 0h-1v-1h1zm-6-3l-1-1v-1h3v2h-1v-2h-2zm0 1v1h-1v-2h1v1h-1v1zm2 3l-1-1v-2h-1v-1h1v3zm0-1v-1zm-18-7v-1 3l-1 2v10h1v2h3v-2l1-1v-1l1-1 1-1 1-1 1-1 1-1 1-2 1-2v1l-1 2-1 1-2 1-1 1-1 1-1 1h-1l-1 1-1 1h-1l-1 1-1 1h-5l-1-1-1-1v-1l-1-1v-2l-1-1v-10l1 1zm0-1v1l-1-1zm-10-1h-1l1-1h10v1h-2l-1-1h-2l-1-1h-1l-1-1h-1 1zm-1 0v-1h-1zm-26 3l1 1v-1l1 2v1l1 1v3l1 1v2l1 1h5l1-1v-1l1-1 1-1 1-1 1-1v-1l1-1 1-1 1-2 1-2 1-1 1-2 1-2 1-2h1l-2 2-1 2-1 2-1 1-1 2-1 1-1 1-1 1-1 1-1 1-1 1h-8l-1-1-1-1-1-1-1-1v-1l-1-1-1-1-1-2-1-2-1-2-1-2v-1l-1-2v-1zm0 1v-1zm4-4l-1 1h-1v1h-1v-1h1v-2h1zm0-2v-1 1h-2v-2zm-7 1l1-1h-1v-1h1v-3h1v-1h3l-1 1v-1h-3v1h-1zm1 0h-1v-1h1zm-7-2l-1-1v-1h1v-1h2v2-1h-2v1h-1zm0 1l1 1h-1v-3 1h-1v1zm4 4h-1v1l-1-1v-1h-1v-1h1v3zm0-1l-1-1zm-27-7v-1l-1 3v10l1 1 1 1v1l1 1 1 1h1l1 1h7l1-1 1-1 1-1 1-1 1-1 1-1 1-1 1-2 1-1 1-1 1-2v-3h1l-1 2-1 2-1 2-1 1-1 2-1 1-1 1-1 1-1 1h-11l-1-1-1-1-1-1-1-1-1-1-1-1-1-2v-14l1 1zm0-1h-1zm-6 1v-1h6v1h-6zm0 0zm-6-1h-1 7v1h-4l-1-1h-2v-1zm-1 0v-1zm-27 8v1-1l1 2v3l1 1 1 1 1 1 1 1 1 1 1 1 1 1h1l1 1h6l1-1 1-1 1-1 1-1 1-1 1-1v-3l1-2v-9l-1-3h1v11l-1 1-1 2-1 2-1 2-1 1-1 1-1 1-1 1-1 1h-5l-1-1-1-1-2-1-2-1-1-1-1-1-1-1-1-1-1-2-1-2v-2l-1-2v-2zm-1 0v1zm4-4v1h-1v3h-1v1h-1l-1-1v-3h2zm0-2l1-1h1v1h-2v-1h1v-1h-1zm-7 2v-1h-1v-5h3v1h2v1h-1l-1-1h-3v1h-1zm1 0h-1 1zm-7-2l-1-1h7-2l-1-1v-1h-4zm0 1l1 1h-2v-3h1v-1l1 1v1h1zm4 3l-1-1h1-1v-2h-1l-1-1h1v2h1v1zm0-1zm-27-3v-1h1l1 2 1 2 1 2 1 1 1 2 1 1 1 1 1 1 1 1 1 1h7v-1h1v-3l1-2 1-2 1-1v-2l1-2 1-2h1l-1 2-1 1-1 1-1 1-1 1v1l-1 1v1l-1 1-1 1-1 1v1h-7l-1-1-1-1-1-1-1-1-1-1-1-1-1-1-1-1-1-1-1-2-1-2-1-2-1-2zm0-1h1zm-9 3h-1l1-1h3v-1h1v-1h4v1h-2v1h-4v1h-1v-1zm-1 0v-1h1-1zm-17 7h1v-1l1 1 1 1 1 1 1 1 1 1 1 1 1 1h7l1-1 1-1v-12l-1-2h1v9l-1 1v3l-1 1v1h-1v1l-1 1h-2l-1-1-1-1-1-1-1-1-1-1-1-1-1-1-1-1-1-1-1-1-2-2-1-1v-1zm0 0v1zm2-4v1h-1v1h-1v1l-1-1v-2h2zm0-1v-1 1h-1v-2zm-6 4v-1h-1v-3h3v1h-2v1h-1zm1-1h-2 1zm-6-1l-1-1v-1h1v-1h3v1l-1 1h-2v-1h-2v1h-1zm-1-1v-1zm1 1v1h-1v-2h1v1h1zm3 2h-1l1 1v-1h-1v-1h-1v-1l-1-1h1v3zm0 0h1-1zm-14-1v-1l1 1v1l1 1 1 1v4h2v2h1v-1l1-1v-4l1-1v-6h1v8l-1 1h-1v2l-1 1h-4l-.8-1h-1l-1-1v-1l-.5-1-1-1-1-1v-2l-1-1-1-1-1-2-.3-2-1-2zm0-1l-1-1zm-4 0l3-1v1h-5l1-1zm-1 0h-1zm5 12l-1 1v-1l-1-1v-1l-1-1v-1h-1v-1h-1v-3l-1-1v-2h1v4l1 1v3h1v2zm18-4l-1 1h1v5l-1 1v1l-1 1v2l-1 1-1 1v1h-6l-1-1v-1l-1-1-1-1-1-1-1-1-1-1-1-1-1-1-1-2h1l1 1 1 1 1 1 1 1h1v1h1l1 1h1l1 1h3v-5l1-1 1-1v-4l1-1zm-1 1v-1l1 1h-1zm28-3h-1 1v4l-1 2-1 1-1 1v1l-1 1h-1l-1 1h-1l-1 1h-1l-1 1h-3l-1-1h-1l-1-1-1-1-1-1-2-1-1-1-2-1-1-1-2-1-2-2-1-2-2-1 1 1 1 1 1 1 1 2 1 1 2 1h1l1 1 1 1 1 1 1 1h3l1 1h4v-1h1l1-1h1v-2l1-1 1-1v-3l1-1v-2h1zm-1 0v-1l1 1h-1zm32-2h-1 1v2l-1 1-1 1-1 1-1 1-1 1-1 1v1l-1 1h-1l-1 1-1 1h-2l-1 1h-9l-2-1-2-1-2-1-2-1-1-1-1-2-1-2-1-2-1-2 1-1 1 2 2 2 1 2 1 1 1 1 1 1 2 1 1 1 1 1h8l1-1h1l1-1h1l1-1 1-1 1-1 1-1 1-1 1-1v-7h1zm36-3h-1 1v4l-1 1-1 2-1 2-1 1-1 1-1 1-2 1-2 1-1 1h-4l-1 1h-6l-2-1-1-1-1-1-1-1h-1l-2-1-2-1-1-1-1-1-1-1-1-1-1-2-1-1-1-2 1-1v2l1 1 1 1 1 1 1 2 1 1 1 1h1l1 1 2 1h1l2 1h8l1-1 1-1 1-1 1-1 1-1 1-1 1-1 1-1 1-2 1-2v-3l1-2h1zm36 3h-1 1v2l-1 1-1 1-1 1-1 1-1 1-1 1-1 1-1 1-2 1h-1l-2 1h-11l-2-1-1-1-1-1-2-1-1-1-1-1-1-1-1-1-1-2-1-2v-5l-1-2h1l1 2v2l1 2v1l1 2 1 2 1 1 1 1 1 1 1 1h2l1 1h7l1-1h2l1-1 2-1 1-1 1-1 1-1 1-1 1-2 1-1v-2l1-1 1-2h1zm31 2h-1 1l-1 2-1 2-1 1-1 1-1 2-2 1-1 1-1 1-1 1-1 1h-8l-2-1-1-1-1-1-1-1-1-1-1-1-1-1v-1l-1-1v-1l-1-1-1-1v-4h1v6l1 1 1 1 1 1 1 1 1 1 1 1 1 1 1 1h1l1 1h1l1 1h4l1-1 1-1 1-1 1-1 1-1 1-2 1-1 1-2 1-2 1-2h1zm-1 0l1-2v1h-1zm27 3h-1 1l-1 1-1 2-1 1-2 1-2 1-1 1h-1l-1 1h-4l-1 1h-6l-1-1-1-1-1-1-1-1h-1l-1-1v-2l-1-1v-3l-1-2v-3h1v5l1 1v2l1 1 1 1v1l1 1 1 1 1 1h2l1 1h7l1-1 1-1 1-1 1-1 1-1 1-1 1-1 1-2 1 1zm-1-1l1-1v2l-1-1zm19 5l1 1-1 1-1 1-1 1-1 1-1 1-1 1h-3l-1 1h-4v-1h-1l-1-1-1-1v-1l-1-1-1-1v-1l-1-1v-2l-1-1v-6h1v4l1 1v2l1 1v1h1v2l1 1v1l1 .6h3l1-1 1-.6 1-1 1-1 1-1v-1l1-1 1-1 1-1 1-1 1-1zm4-10v-1h1v6h-1v2h-1v2l-1 1-1-1h1v-9l1 1zm0-1h1v-1zm0 0v1-1zm0 1z" fill="#21231e"/>
      <path d="M482 263h-22.5l-1.3.2H451l-1.3.2h-4.4l-1.2.2h-2l-6 .4c-3 0-6 .3-9 .4h-1l-18 1.3a965 965 0 0 0-27 2.3c-5 1-6-5 0-6a960.5 960.5 0 0 1 27-2 983.7 983.7 0 0 1 37-2h3l16-.6h17a1082.3 1082.3 0 0 1 7 0h16l15 .5h4a984 984 0 0 1 37 2 960.5 960.5 0 0 1 26 2c6 1 5 6 0 6a965.6 965.6 0 0 0-26-2 978.4 978.4 0 0 0-18-2l-9-1h-15l-1-1h-32z" fill="#edb92e"/>
      <path d="M482 105c9.6 0 17.3 7.8 17.3 17.4 0 9.5-7.7 17.3-17.2 17.3-9 0-17-7.8-17-17.3 0-9.6 8-17.3 17-17.3z" fill="#0c4076"/>
      <path d="M485.3 85c1.6-.2 3-1.5 3-3.2 0-1.7-1.4-3-3-3.2 0-1.7-1.4-3-3.2-3-1 0-3 1.3-3 3-1 0-3 1.5-3 3.2a3 3 0 0 0 3 3v6.5h-5c0-1.7-1-3-3-3s-3 1.3-3 3c-1 0-3 1.4-3 3 0 1.8 2 3.2 3 3.2 0 1.7 2 3 3 3s3-1.2 3-3h6V119h7V97.6h6c0 1.7 2 3 3 3s3-1.4 3-3c2 0 3-1.5 3-3.2 0-1.7-1-3-3-3 0-1.8-1-3.2-3-3.2s-3 1.4-3 3h-6V85z" fill="#edb92e"/>
      <path d="M487.8 81.8h1v1h-.2v.5h-.2v.3l-.2.3h-3v-1h1l.3-1h.4v-1zm-3-3.2h1l-.5-.5h.2l.3 1h1.7l.3 1 .2 1h.4v1h.2v1h.2v1h-1v-1h-.2v-1h-.2v-1h-.6v-1h-.7v-1zm.4.5h-.4l.4 1zm-3-3v-1h.7v5h-1v-1h-1v-1h-1v-1h-1zm-3.2 3v-1l-.5 1v-1h.2v-1h.2v-1h1v1h-1v1h-1v1h-1v1l-1 1zm.5 0v1h-.5.5zm-3 3h-1v-1h.4v-2h1v1h-1v1l-1 1-1 1v1zm3 3h-1l.5 1h-1v-1h-1.6v-1h-.6v-1h-.2v-1h1v1h.2v1h2.4l1 1zm-.5 0h.5v1h-.5zm-.5 7v-7h1v7l-.5 1h-.5zm1 0v1h-.5.5zm-6 0h5.5v1h-6 .5zm0 1h-.5v-1l.5 1zm-3-3v-1h1.5l.3 1h.6v2h-1v-1h-1v-1h-1v-1h-2zm-3.2 3v-1l-.5 1v-1h.4v-1h1.4v-1h.7v-1h1v1h-2v1h-.3v1h-.2l-.5 1zm.5 0v1h-.5.5zm-3 3h-1v-2h.4v-1h.5v-1h1.2v-1h1v1h-2v2zm3 3h-1l.5 1h-3v-1h-.2v-2h1v1l1 1h2l1 1zm-.5 0h.5v1h-.5zm3 3v1h-2.5v-1h-.2v-1h-.2v-1h1v1h.3v1h.2v1zm3.2-3v1h.5v1h-.2v1h-.2v1l-.2 1-.2 1h-.7l-.2 1H471v-1h2.4v-1h.5v-2zm-.5 1v-1h.5l-.5 1zm6 1h-5.5v-1h5.5l.5 1-.5 1zm0-1h.5v1h-.5zm-.5 22V98h1v21l-.5.5-.5-.5zm.5 1h-.5.5zm6.3 0H479v-1h6.3l.5 1h-.5zm.5 0h-.5.5zm0-21v21h-1V98l.5-.4.5 1zm-1 0v-1h.5l-.5 1zm6 1h-5.5v-1h5.5l.5 1-.5 1zm0-1h.4v1h-.4zm3 3v1h-2.3v-1h-.7v-1h-.2v-1h-.2v-1h-.2 1.2v1l.2 1h2.3zm3.2-3v1l.5-1v1h-.2v1h-.2v2h-1v-1h2v-1h2v-1h1zm-.5 0v-1h.5l-.5 1zm3-3h1v1h-.2v1h-.2v2h-1v-1h1v-2h1v-1h1v-1zm-3-3h1-.5.7l.2 1v2h-1v-1h-1v-1h-1v-1h-1v-1h-1v-1h-2zm.5 1h-.5v-1l.5 1zm-3-3v-1h1l.3 1h1l.2 1h.4v1h-1v-3h-1v-1h-1v-1h-1zm-3.2 3v-1l-.6 1v-1h.2v-1h1.2v-1h2.4v1h-1.5v1h-.4v1zm.5 0v1h-.6.6zm-6 0h5.5v1h-6l.5-1zm0 1h-.5v-1h.5zm.5-7v6h-1v-7l.4-1 .6 1zm-1 0v-1h.4-.4zm.5 0v-1zm-.5 0v-1h.4-.4z" fill="#21231e"/>
      <path d="M499.8 122.4h-1v-1.7l-.2-1v-.7l-.3-.8-.2-.8V113h-1v-2.3l-1-.3-1-.4v-.4l-1-.4-1-.3h-2l-1-1h-3v-1h5l1 1h5l1 1 1 1 1 1h3l1 1 1 1 1 1h1v3h1v5zM482 140.2v-1h1.8l1-.2.7-.2.8-.2.8-.2 1-.3h9l1-1 1-1h1l1-1h1v-1l1-1h1v-1h1l1-1v-4h1v12l-1 1v1l-1 1-1 1v2h-1v1l-1 1h-1l-1 1-1 1h-7zm-17.5-17.8h1v1.8l.2.7.3 1 .2 1h.3l.3 1h.3l1 1 1 1 1 1h2l1 1h16v1h-5l-1-1-1-1h-1v-1h-1v-1l-1-1v-5l-1-1v-7zm17.6-17.8v1h-1v.2h-1l-1 .3v1l-1 1v1l-1 1-1 1-1 1v1l-1 1-1 1v7l-1 1v7h-1v-6l1-1 1-1v-3l1-1 1-1 1-1h1l1-1h7l1-1h6z" fill="#21231e"/>
      <path d="M499 118.8a17.6 17.6 0 0 1 0 6c-5.5-.2-11.2-.3-17-.3-5.5 0-11.2 0-17 .3a17.5 17.5 0 0 1 .3-6l16.8-.3c6 0 12 .2 17 .3z" fill="#edb92e"/>
      <path d="M499.8 122.4h-1V120h-.2v-1l1-.2v1.7l.2.2v1.6zm-.7 3l1-1v.3-2.3h1v2.6zm1-.5l1-1zm-17 0v-1h17v1h-18zm-17 0l1-1v-1h16v1h-17v-1zm1 0v-1h1zm0-3h1v2h-1v-2zm1-4v1l1-1v3h-1v-3l1-1zm0 0v-1h1zm18-1v1h-18v-1h16zm18 0h-1 1-4v-1h-13v-1h16zm0-1v-1z" fill="#21231e"/>
      <path d="M468.8 133.2c-3.6-2.3-4.3 1.2-4.2 4.7.4 13 3 25-.6 42-1.4 6-3.7 10-1.5 11 5.7 3 8.3 6 7.4 7 1 3 5 2 12 1 6 1 10 1 12-2-1-2 1-5 7-8 2-2 0-5-2-12-4-17-1-29-1-42 0-4-1-7-4-5-8 4-20 4-27 0z" fill="#edb92e"/>
      <path d="M465 138h-1v-1.5l.2-.3v-1.6l.2-.3v-.3h.2v-.4l.2-.2v-.3h4v1l-.7 1h-1v5zm-.5 42l-1-.2.3-1.5.3-1.4 1-2v-7l1-2v-28h1v9l1 1v5l1 1v23zm-1.8 11l-.4.8-.3-.2-.2-.2-.2-.2-.2-.2v-.2l-.2-.3V188l.2-.3v-.4l.2-.3v-.4l.2-.4v-.5l.3-.4 1-.4v-1l1-1v-1l1-1v-1l1-1v-1l1-1h1v7zm7.6 7.8l-1 .4v-.4h.2v-1l-.2-.2v-.2l-.2-.2v-3h-3l1-1 1 1 1 1 1 1 1 1 1 .5 1 .4h1v1l1 1v1l1 1v1h1v1l1 1v1h1v2l-1 1zm-1 .4v-.4.4zm13 1l-.2 1h1-1v.2h-2v.2h-1v.2h-5V200h1v1h1v1h1v1h9zm-.2 0h1zm12-1l1-.4v3.3h-2v1h-10v-1h2l1 1h1l1 1h1l1 1h6l1-1h1v-2 1zm1-.4v.4-.4zm7-8l1 1v7.3h-1v4l-1 1v-3h2v-1h8zm-2-10.8h1v.5l1 .6v3l1 1v2l1 1v7-13zm0-42h1v33l1 1v3l1 1.6v1.4l1 1.2 1 1.6h-1V152l1-1v-8l1-1v-4zm-3-4.3l-1-1h1l1-.2v-.2h1l1-.2h1l1 1h1v2h1v1h1v3h-1v-5h-2v2zm-27 0v-1l1 .5 1 .5 1 .4 1 1 1 1h1l1 1 1 1h20v1h-2l-1 1h-1l-1 1-1 1v1h-1l-1 1h-15l-1-1h-5z" fill="#21231e"/>
      <g id="b">
        <path d="M363 212c-2-4-.3-9.8.3-11 .3-.8-.6-2.2-1-2.8-13-18.3-13.2-20-4.3-26.8 8-6 26.2-12 39.2-16.2 2.7-2 4.4-5 6.8-7.2-25 1.8-52 12-65.5 23.8-7.2 6.2 1.5 19 12.2 38 6.7 5 9.8 7 12.3 2.3z" fill="#edb92e"/>
        <path d="M362.8 200.7l1 .4v1h-.2v1l-.2 1v1h-.2v1l-.2 1v1l-.2 1v2l-.2 1v3l.2 1v1l.2 1v1h.2l.3 1-1 1-.3-1v-1h-.4v-1h-.2v-3h.2v-1l.2-1h.4v-1h.4zm-1-2.2l1-.6h1v1l-1-1v-1l-.2-1h-.2l-.2-1h-.2zm-4-27.5l.5 1-.8.5-.7.6-.7 1v10l1 1v1l1 1v1l1 1 1 1v1l1 1 1 1 1 2 1 1 1 2 1 2 1 2 1 2 2 2-1 1-1-1-1-2-1-1-1-1-1-1-1-1-1-1v-4l-1-1v-7l1-1 1-1h4l1-1 1-1zm39-16.2l.7.8h-.2l-1.2.5-1 1-1 1-1 1-1 1-1 1h-1l-1 1-1 1-1 1-1 1-1 1-1 1-1 1-1 1-1 1-1 1h-1l-1 1-1 1-1 1-1 1h-1l-1 1-1 1h-1l-1 1h-1l-1 1-1 1-1 1v1-1l1-1h1l1-1h3l1-1h9l2-1h6l2-1h8l2-1 1-1h5zm.7.8h-.2.2zm6.6-7v-1l1 .8v5.8h-1v2.2-1h1l1-.5v-1h1v-1h1v-1l1-1v-1l1-1v-1h1l1-1 1-1h1v1zm0-1l2-.2-1 1v-1zM339 172l-.7-.8 1.6-1 1-1.2 1-1 1-1.2 1-1 1-1 2-1 1-1 2-1 2-1 2-1 2-1 2-.8 2-1 2-.7 2-.8 2-.8 2-1 2-.6h30v1h-6l-3 1-2 1-2 1-2 1-2 1-2 1h-3l-3 1-2 1-2 1-3 1-3 1-2 1-2 1-2 1-2 1-2 1-2 1-2 1-2 1-2 1-2 1-2 1-2 1-2 1-2 1-2 2-2 1-1 1zm12.2 37.3l-.5.8h-.2l-1-1-1-2-1-1-1-1-.8-1-1-1-.8-1-1-1-1-2-1-1-1-1-1-1-1-1-1-1-1-1-1-1-1-1-1-1-1-1v-1l-1-1v-10 1l-1 1-1 1v2l-1 1v10l1 2v1l1 1 1 1v3l1 1v2l1 2 1 2 1 1 1 2 1 2 1 2 1 2 1 2h-1zm-.5.8h-.2l.2 1zm12.5 2v1h.5l-.3 1-.2 1-.3 1-1 1-1 1h-1l-1 1h-11v-1h1v2h2v1h4v-3zm-.4 1h.4l-.4 1zm.4 1v-1l.5 1-.5 1zm.5 0l.3 1h-.8.5z" fill="#21231e"/>
        <path d="M359 213.6a34 34 0 0 1-1-4.7c-.7-3-.4-6 .5-9-3-4-6.4-9-8.8-14-1.7-4-3-7-2-11s4.5-7 7.6-9c3.7-3 8.6-6 13.6-8 11-5 20-7 26-7l-4 4c-12 4-27 9-34 14-9 6-9 8 4 26 0 1 1 2 1 3-1 1-2 7 0 11-1 2-3 1-5 1z" fill="#edb92e"/>
        <path d="M357.4 209l1-.2v.7l.2.2v.7h.2v.8l.2.3v.3l.2.3v1h.2v1h.2l-1 1h-1v-1h-.2zm1-.2zm-.4-7.8l1-.6v.5h-.4v1h-.4v4h.2-1v-1h-.2v-5h.2v-1l.2-1v-1h.2l.2-1zm1-.6v.5-1zm-9.7-12.8l1-.5v1l.3 1 .3 1v8h1v7l-1 1h-1v-2h-2v-1h-1v-2h-2v-1l-1-1-1-1h-1v-2l-1-1v-1h-1v-1h-1zm-2-11l1 .4-.2.3v4l1 .5v2l1 .4v1.4l1 .4v.4l1 .5h1-1v-13zm7.7-9.2l.6.8-.3.2-.3.3-.3.2h-1v1H352v1h-1l-1-1v-3h.2v-1h.5v-1l.2-1v-1h1v-3zm13.7-7.5h.4-8v1-2h1v-1l1-1h1l1-1 1-1h1v-1h1v-1h3l1-1h3l1-1v-1l1-1h1zm0 0zm27-7l-.6-1h1-27v-1h3l1-1 1-1 1-1h2l1-1h2l1-1h3l1-1h4l1-1h9zm-.3-1h1.4l-1 1-.4-1zm-4.4 4l4-4h.8l-4 4h-.3l-.5-1zm.7 1h-.2.2zm-33.4 15l-.6-1 .7-1 .7-1 1-1 1-1 1-1 1-1 1-1h2l1-1 1-1 1-1 1-1 1-1 1-1h1l2-1h1l1-1 1-1 2-1 1-1 2-1h2l1-1 1-1h1l1-1 2-1h3v1h-1l-1 1h-5l-1 1h-1l-1 1-1 1h-1l-1 1-1 1h-2l-1 1h-2l-1 1h-2l-1 1h-1l-1 1-1 1-1 1v1h-3v1zm4.4 26h-.8l-2-2-1-2-1-2-1-2-1-2-1-1-1-1-1-1-1-1-1-1-1-1-1-1-1-1v-2l-1-1v-10l1-1v-2 1h-1l-1 1h-2l-1 1h-1v6l1 1v2l1 1 1 1v2l1 1 1 1 1 1 1 1 1 2 1 2zm1 3l-1-1v-1h-.7l1-1h1v2zm.2 11l-1-1v1l-1-1v-11h1v11zm0-1v-1zm-5 1v1-1h3v-1l1 1h-6v-1zm0 1v-1h-1zm0-1h-1v-1z" fill="#21231e"/>
        <path d="M468 132.2c.3-2.3 0-2-.3 1.6-.3-.7-.8-1-1.4-1-1 0-1.7 1.6-1.8 5.2l.2 2.8c-33-.7-52.7 4.3-57.7 14-4.2 7.8 3 21 13.6 36 1.3 1.8 1.2 1.6 0 3-1.8 2.3-3.8 6-2.3 9.2-6.5 3.5-14.2 4.4-21 1.5-1-3-3.4-4.4-5.4-5.8-1-.2-2-1-2-1.4l-11-31.6c-9-30.7 76-33.5 89-33.5z" fill="#edb92e"/>
        <path d="M467.3 134l1-.4-1 .2V132h.2v-1.2l.2-.2.6-.3.3.3v1.6h-1V131l.4.2h.6v-.2 1l-.2.2v1.8h-1zm1 0l-.2 1.6V134h1zm-2-.7v-1h.7v.2h.4v.2h.2v.2h.6-1v-1h-.8zm0 0zM465 138h-1v-1.8l.2-.3v-1l.2-1v-1h.2v-1l.2-1 .2-1h.4v-1h.7v5zm-1 0zm.7 3.3v-1l-.5.5v-2.3h-.2v-.4h1v2h.2v1l-.5 1zm.5-.5v.5h-.5l.5-.5zM407.4 155l-1-.5.7-1 1-.8 1-1 1-.7 1-.8 1-.8 1-.8 1-.7 2-1 1-1 2-1 2-1 2-1 2-1 2-1 2-1 2-1 2-1h2l2-1 3-1h2l3-1 2-1h22v1h-41l-2 1h-2l-1 1h-3l-1 1h-1l-1 1-1 1h-1l-1 1-1 1v3zm13.6 35.5l-.8.6-1-1-1-1-1-1-1-1-.8-1-.8-1-1-1-.7-1-1-1-1-1-1-1-1-1-1-1-1-1-1-1-1-1-1-1-1-1v-2l-1-1-1-1v-10l1 1-1 1-1 1v10l1 1v6l1 1 1 2v1l1 1 1 1 1 1 1 2 1 1 1 1 1 2 1 1v2l1 2 1 2zm0 3.8l-.8-.7.2-.3.2-.2h.4-.8 1l.2 1h.2v1h.2l.2 1v1h-.4v1h-.2l-.2 1-.2 1zm-2.5 9l-.4-.8v.7-7l1-.2v-.3l1-.3v-.3h2l1 1v10h1v2zm.3-.5v.4l-.3.2.3-.6zm-22 1.8l1-.3-.2-.3.6.2.7.3v.4h10v-2h2v-2h1l1-1v1h-16l-1-1h-2l-1-1h-2zm.4.3l-.2-1h.2zm-5.6-6l.6-1h1.7v1h-1l-1-1v-1l-1-1h-1v-1h-1l-1-1v-1l-1-1h-1l-1-1h-1zm-2-2l.8-1h1.8l-.6 1h-.4v-1h-.6l-.2-1h-.6v-1h-.2zm-10.2-32l1-1 .2 1 .3 1v22l1 1v6h-1l-1-1-1-1v-1l-1-1v-2l-1-1-1-1v-4l-1-1v-1l-1-1-1-1v-1l-1-1v-3l-1-1v-2l-1-1-1-1v-3l-1-1v-1zm88.2-34h1-47l-4 1-4 1-4 1-3.6 1-3.8 1-3.4 1-3.5 1-3 1-2.6 2-2.4 2-2 2-1.8 2-1 2-1 2v4l.6 2h-1v-7l1-3 1-3 2-2 2-2 3-2 3-2 3-2 4-2 4-1 4-1 4-1 4-1 4-1 4-1 4-1h4l4-1 4-1h8l4-1h21zm1 0h-.5l1-1zm-.5 0h1zm1 0l1-1z" fill="#21231e"/>
        <path d="M405 190.2c3.5 0 6.4 2.8 6.4 6.4 0 3.5-3 6.4-6.4 6.4s-6.4-3-6.4-6.4c0-3.6 3-6.4 6.4-6.4z" fill="#fff"/>
        <path d="M412 196.6h-1c0-2.2-1.4-4.4-3.4-5.3a5.8 5.8 0 0 0-2.6-.6v-1c2.3 0 4.6 1.2 5.8 3.2a7 7 0 0 1 1 3zm-7 7v-1c2.2 0 4.3-1.4 5.2-3.4.4-.8.7-1.7.7-2.6h1c0 2.3-2 4.6-4 6a7 7 0 0 1-4 1zm-7-7h1c0 2.2 1.4 4.3 3.4 5.3a5.8 5.8 0 0 0 2.6 0v1c-2.3 0-4.6-2-5.8-4a7 7 0 0 1-1-4zm7-7v1c-2.2 0-4.3 1.4-5.2 3.3a6 6 0 0 0-.7 2h-1c0-3 2-5 4-6a6.8 6.8 0 0 1 4-1z" fill="#21231e"/>
        <path d="M350.8 203.6c3.2 0 6 2.7 6 6s-2.8 6-6 6c-3.3 0-6-2.7-6-6s2.7-6 6-6z" fill="#fff"/>
        <path d="M357.2 209.6h-1c0-2-1-4-2.8-4.8a5.4 5.4 0 0 0-2.6-.7v-1c2 0 4.3 2 5.4 3a6.5 6.5 0 0 1 1 4zm-6.4 6.4v-1c2 0 4-1.2 4.8-3a5.5 5.5 0 0 0 .6-2.4h1c0 2-1.2 4.3-3 5.4a6.4 6.4 0 0 1-3.4 1zm-6.5-6.4h1c0 2 1.2 4 3 4.8.8.4 1.6.6 2.5.6v1c-2.2 0-4.4-1.2-5.5-3a6.5 6.5 0 0 1-1-3.4zm6.5-6.5v1c-2 0-4 2-5 3a5.5 5.5 0 0 0-.5 3h-1c0-2 1.2-4 3-5a6.4 6.4 0 0 1 3.5-1z" fill="#21231e"/>
        <path d="M345 192.7c3.4 0 6 2.7 6 6s-2.6 6-6 6c-3.2 0-5.8-2.7-5.8-6s2.6-6 6-6z" fill="#fff"/>
        <path d="M351.5 198.7h-1c0-2-1.2-4-3-5a5.3 5.3 0 0 0-2.4-.5v-1c3 0 5 1.2 6 3a6.5 6.5 0 0 1 1 3.5zM345 205v-1c2 0 4-1 4.8-2.7a5.5 5.5 0 0 0 .7-2.6h1c0 2.2-1.2 4.3-3 5.5a6.4 6.4 0 0 1-3.4 1zm-6.3-6.3h1c0 2 1.2 4 3 4.8.7.4 1.6.6 2.4.6v1c-2 1-4-1-5-3a6.5 6.5 0 0 1-1-3zm6.4-6.5v1c-1 0-3 1-4 2.8a5.5 5.5 0 0 0 0 2.7h-1c0-2.2 1-4.4 3-5.5a6.4 6.4 0 0 1 4-1z" fill="#21231e"/>
        <path d="M339.8 181.7c3.3 0 6 2.7 6 6s-2.7 6-6 6-6-2.7-6-6 2.7-6 6-6z" fill="#fff"/>
        <path d="M346.2 187.7h-1c0-2-1.2-4-3-5a5.4 5.4 0 0 0-2.4-.5v-1c2.2 0 4.3 1.2 5.4 3a6.5 6.5 0 0 1 1 3.5zm-6.4 6.4v-1c2 0 3.8-1 4.7-2 .5-1 .7-1 .7-2h1c0 2-1 5-3 6a6.4 6.4 0 0 1-3.4 1zm-6.4-6h1c0 2 1 4 3 5 .7 1 1.5 1 2.4 1v1c-2.2 0-4.3-1-5.4-3a6.5 6.5 0 0 1-1-3zm6.4-6v1c-2 0-4 1-4.8 3a5.5 5.5 0 0 0-.6 3h-1c0-2 1-4 3-5a6.4 6.4 0 0 1 3.4-1z" fill="#21231e"/>
        <path d="M444.3 202.2c3.4-.3 2.5 5.8 2 7.2-1 1.8-1.8 1.8-3 .2-.8-1.3-2.4-7.2 1-7.5z" fill="#edb92e"/>
        <path d="M446.6 209.6l-1-.4h.2v-.7l.2-.3v-.5l.2-.3V204h-.2v-.3l-.2-.2v-.2l-.2-.2h-1v-1h1.7v1l.3 1h.2l.2 1v6l-.2 1v1h-.2zm-3.7.3v-1h1v-2h1-3v-1h-1zm1-9v1h-2v1h-1v4l-1 1v-3l-1-1v-4h1v-1h1z" fill="#21231e"/>
        <path d="M444.5 205.5c8-.6 6 13.8 4.4 17-2 4.2-4 4.3-7 .5-2-3-6-17 2-17.5z" fill="#fff"/>
        <path d="M449.4 222.7l-1-.4.2-.3.2-.4v-.4l.3-.5 1-.5V204h-2v-1h3l1 .4 1 .5 1 1v1h1v10zm-7.5.5v-.5 1.2h2v-5h1-2v1h-1v1h-2l-1-1v-1l-1-1-1-1zm2-17.2v-1 1h-1l-1 .2-1 .2-1 .3v.3l-1 .4-1 .4-1 .4-1 .6-1 .5v6.8l1 1v10l-1 1v-2h-1v-4l-1-1v-2l-1-1v-12h2v1zm0-1v1-1z" fill="#21231e"/>
        <path d="M379.7 210.8c3.3-1 4 5 3.6 6.6-.4 2-1.2 2.2-2.7 1-1-1.2-4-6.5-1-7.6z" fill="#edb92e"/>
        <path d="M383.8 217.5l-1-.2v-2.8l-.2-.3v-.7l-.2-.3v-.3l-.2-1v-1h-1l-.2-1-.2-1h-1.2l-.6-1h2v7zm-3.5 1l.7-.6h1.6v-1h.2v-1h1-3v-1h-.4zm-.7-8.2l.3 1h-1v.7h-1v6.4l-1 .5v-1h-1v-1h-1l-1-1v-1h-1v-1l-1-1v-2h1v-1z" fill="#21231e"/>
        <path d="M380.7 214c7.7-2.5 9.2 12 8.4 15.5-1 4.5-2 5-6 2-2-2.4-9-15-2-17.5z" fill="#fff"/>
        <path d="M389.6 229.6l-1-.2v-.8l.2-.4v-3l-.2-.6V223l-.3-.7v-.7l-.3-.8-.2-.7h-.7v-3h-4v1-1h5l1 1 1 1 1 1v1l1 1 1 1v1l1 1 1 1 1 1v3l1 1v7zm-7 2.3l.5-1h6l1-1v-1l1-1v-1l1-1h1v2h-5v-3zm-2-19l.3 1h-6v1h-1v8h1v1h1l-1 1v-2l-1-1v-1l-1-1v-1l-1-1-1-1-1-1v-5h1v-1h1v-1zm0 0v-1z" fill="#21231e"/>
        <path d="M464.2 137.8c-17.2-1.6-35 .2-52.3 7-15 6-14 23.2 4 47-2 3-3 6.8-3 11h5c-2-2.8 0-6.4 2-9 1-1.5 1-1.2 0-3-11-15-18-28.2-14-36 5-9.7 24-14.7 57-14V138h-1z" fill="#edb92e"/>
        <path d="M412 145.4l-.3-1 1.7-.6 1.6-.6 1.7-.6 1.6-.5H459l1.3 1v1h-20l-1.6 1h-1l-1.7 1h-3l-2 1h-1l-2 1-2 1h-1l-1.7 1h-1l-1 1-1.8 1H418l-1.6 1-1.4 1-1.7 1-1.5 1zm5 46.7h-1l.2 1-1.7-2-1.5-2-1.5-2-1.3-2-1.3-2-2-2-1-2-1-2-1-2-1-1-1-1-1-2-1-1-1-1-1-1v-14l1-1 1-1 1-1 1-1h3v1l-1 1-1 1-1 1-1 1-1 1-1 1v1l-1 1v1l-1 1-1 1v11l1 1v2l1 2 1 2 1 2 1 2 1 2 1 2 1 2 1 2 2 2 1 2 2 2v1zm0 0l.2 1-.2 1zm-3 11v1h-.6v-3h.2v-1h2v-1h.4l1 1h-.3v1l-.2 1h-.2v1h-.2v9-1zm0 1h-.6l.5 1zm4.3 0h1l-.5 1h-4.6v-1h4.6l-.5 1zm1 0l.3 1h-.8.4zm1-9l.7 1h-.2v1h-.2l-.2 1-.3 1v7h1l-1 1v-6h1v-2h2l1-1v-1h1l1-1zm0-2h1v1h.3v1h.2v1h.2l-.2 1h-.2v1h-.4v1h-1 .8-.8zm-13.8-37l1 1-.4 1v9l1 1v1l1 1 1 1 1 1 1 2 1 1v1l1 1 1 2 1 1 1 1 1 2v1l1 1 1 2 1 2 1 2 1 2 1 2 1 2 1 2-1 1-1-1-1-2-1-1-1-2v-1l-1-1-1-1v-1l-1-1v-1l-1-1-1-1-1-1v-2l-1-1v-1l-1-1v-13l1-1 1-1v-1zm57.7-13h1l-.5 1H445l-2.5 1-2.4 1-2 1h-4l-2 1-2 1h-2l-2 1-1 1-2 1-1 1-1 1-1 1-1 1-1 1-1 1h-1l-1 1-1 1v1l-1 1v2h-1l1-1 1-1 1-1h2l1-1 1-1h1l2-1 1-1h2l2-1h1l2-1 2-1h6l2-1 2-1h31v1zm1 0v1h-.5.5zm-1-2h.7v3h-1v-4 1zm.7 0v1zm-2 0l1 1v1l-1 1h-1v-1zm0 1h-1v1zm1 0h-1v1zm-1 0h1l-1 1-1-1z" fill="#21231e"/>
        <path d="M380.6 142.7c3.4 0 6 2.7 6 6s-2.6 6.3-6 6.3-6.2-2.7-6.2-6.2c0-3.4 2.8-6 6.2-6z" fill="#fff"/>
        <path d="M387.2 148.8h-1c0-2-1.2-4-3-5a5.6 5.6 0 0 0-2.6-.6v-1c2.2 0 4.5 1.2 5.6 3a6.7 6.7 0 0 1 1 3.6zm-6.6 6.7v-1c2 0 4-1.2 5-3 .4-1 .6-1.8.6-2.7h1c0 2.3-1.2 4.5-3 5.7a6.6 6.6 0 0 1-3.6 1zm-6.7-6.7h1c0 2 1 4.2 3 5a5.6 5.6 0 0 0 2 .7v1c-3 0-5-1.2-6-3a6.7 6.7 0 0 1-1-3.7zm6-6.7v2c-2 0-4 1-5 3a5.7 5.7 0 0 0-1 3h-1c0-2 1-4 3-5a6.6 6.6 0 0 1 3-1z" fill="#21231e"/>
        <path d="M392.6 138.7c3.4 0 6.2 2.8 6.2 6.2 0 3-2.8 6-6.2 6-3.4 0-6-3-6-6 0-4 2.6-7 6-7z" fill="#fff"/>
        <path d="M399.3 145h-1c0-2.2-1.3-4.3-3.2-5.2a5.6 5.6 0 0 0-2-.6v-1c3 0 5 1.2 6 3a6.7 6.7 0 0 1 1 3.7zm-6.7 6.6v-1c2 0 4-1.3 5-3a5.7 5.7 0 0 0 .7-2.7h1c0 2-1.2 4-3.2 5a6.6 6.6 0 0 1-3 1zM386 145h1c0 2 1.2 4 3 5a5.6 5.6 0 0 0 2.6.6v1c-2.2 0-4.5-1.3-5.6-3.2a6.7 6.7 0 0 1-1-3.5zm6.6-6.8v1c-2 0-4 1.2-5 3a5.7 5.7 0 0 0-.6 2.7h-1c0-3 1.2-5 3.2-6a6.6 6.6 0 0 1 3.4-1z" fill="#21231e"/>
        <path d="M394.2 144a261.2 261.2 0 0 0 2 2.4c-9.8 5.4-14 11-13 16.7.2 1 3.2 12 9.8 32 4.5 3 7.8 6 10 9-.2 1 .8 1 .5 2 .7 3-2.8 3-5 2-1.2-3-4.6-6-6.6-7-1 0-2-1-2-1l-11-32c-3-10 3-17 14-21z" fill="#edb92e"/>
        <path d="M396.3 147l-.5-1v.7h-.2v-.2h-.2v-.2l-.2-.2h-1.4.8l.2 1h.2v1h.2v1h.6v1h.6v1zm.2-1l.3.6-.5.3.2-1zm-12.7 17l-1 .2v-4l.2-.5.2-.5.2-.6.2-.5h.3v-1h1l1-1h1l1-1h1v1l-1 1h-1l-1 1h-1l-1 1-1 1h-1v1l-1 1-1 1-1 1v1l-1 1-1 1-1 1v6l-1 1v3zm0 0zm9.5 31.3l-.6.8h-.2l-.6-2-1-1-1-2-1-1-1-1-1-1-1-1-1-1-1-1-1-1-1-1-1-1-1-1-1-1-1-1-1-1-1-1v-1h-1v-7h-1 1v7l1 1v3l1 1v4l1 2v3l1 2v2l1 2v4l1 2v2zm-.6.8h-.2l.2 1zm10.7 9h-.7v1H401v-3h-1v-2h-5 1l.4 1h1l.7 1h1l1 1 1 1h3v1h1l1 1 1 1v2h1l1 1v1zm0 0l.3 1-.3 1zm.6 2h-1 .2-.6v-1l.8 1h.2v1h.4v1h-.2l.2-1zm-1 0h.2l-.2 1zm-5 2h1-.4 1.3v1h2v-2h1v3h-7zm.2 1h-.2.2zm-6.6-7l.6-1 .2 1h.2l.2 1h.5l.2 1h.4v6h-1l-1-1h-1v-1h-4zm.6-1l.3 1h-.3zm-2.7 0h1l.2 1h.2v1l-1 1h-2zm-10-31h.8l.3 1 .3 1v22l1 1v7h-1l-1-1-1-1v-1l-1-1v-2l-1-1-1-1v-4l-1-1v-1l-1-1-1-1v-1l-1-1v-3l-1-1v-2l-1-1-1-1v-4l-1-1v-1zm15-22l-.7 1h.6l-1 1h-1l-1 1-.8 1-1 1h-.7l-1 1h-1l-1 1-1 1-1 1h-1l-1 1-1 1-1 1h-2l-1 1-1 1v5l-1 1v6h-1v-13h1v-2l1-1 1-1v-1l1-1 1-1 1-1v-1h1l1-1h1l1-1h2zm-.5 0h.6-.6z" fill="#21231e"/>
        <path d="M356 217l-.4 2c-2.8.5-5.3.7-7.3.3 3.4-3.3 6-4 7.6-2.4z" fill="#edb92e"/>
        <path d="M355 218.8l.4-2 1 .2-.3 2v.4-.6zm1 0v.5h-.3l.4-.4zm-8 .2l.7.7-.3-1 .2.2h4l.4-1h2v1h-7l-.3-1zm.2 1l-1-.3.8-.7.2 1zm8.2-3l-1-.2.2.5v-.2h-3.2l-.2 1H351l-.3 1h-2.3l-.2 1-.4 1h-.7 11v1zm0-.5v.5-.5zm-.5.4h-1zm0-1v-1z" fill="#21231e"/>
        <path d="M355.6 212.3c1.8.4 2 .7 2.7 1 1 0 2.4 0 3.3-1 4-2.2 4 2 2.5 5-1 2.4 0 5 1 7 1 2.2 1 3.2 0 4l-1 1c-1 1.2-1 1-2-.6-3-1.6-5-5.3-6-8.6-2-4-8-5 1-7z" fill="#edb92e"/>
        <path d="M358.4 212.7v1h-.7v-.2h-.4l-.2-.2v-.2h-1v-1h1l1 1h2zm3-.7l.5 1v-.2l-1 .2h-1v.4h-1v.2h-2v-1h2v-.6zm0 0zm3 5.6l-.8-.4v-.3l.3-1v-4h-3l-1-1v-1h3v5h-1zm.6 6.3h-1v-1l-.2-1v-1h-.2l-.2-1v-1h-.2v-1h-.2v-2h.2v-1l.2-1v-1l.2-1h1-.4v1h-.2v2h.2l.2 1v1h.6zm0 4l-.6-1h.4v-2l-.2-1v-1h-.2v-1l-.2-1 .8-1h.8v2h-.8zm0 0zm-1.6 1l-.8-1h1.2v-1h.6l.6 1h-1.6zm-.8-1zm-1.8 0l.4-1h1.3v-1h1-2.5v-1h-.3v-1h.2zm.4-1h.3l-.3-1zm-7-8l1-1h1.8v1h2l1 1h3.3l-1 1h-.3v-1h-.8l-.4-1-.3-1v-1l-.3-1h-.2v-1l-.2-1v-1h-.4v-1l-.5-1v-1h-1v-1zm1.4-9v1H352v1h1v1h3v1h1v1h-1v-2h-1v-1l-.5-1-.5-1v-1h2l.7-1h2.6l.3-1zm0 0zm0 1v-1 1zm0-1z" fill="#21231e"/>
        <path d="M357 212.5c3.5 1.2 4-.7 6-.6-.8 5-1.7 7-7 5-3-2-6.7 0-7.4 2-.3 0-2-1-2.6-2-2.6-6 6.7-7 11-5z" fill="#edb92e"/>
        <path d="M363.6 212l-1-.2.5.6h-1v1h-2V212h1l1 .2 1 .2h2v-.4h1l1-.2 1-.2h1v-.2h1l1 .6zm-.5-.6h1v.6-.6zm-7 6l1-1 1 .4 1 .2h1l1 .3h1l1 .2h2v-.5l1-.3v-2l1-.3v-1.6h1v9.3h-5zm-7 2l-1-.3h10v1h-3v1h-2v1zm-3-2l1-.3v2l1 1v1h1l1 1h-1v-1h-1v-1zm12-5.4v1-.6h-5v1.7h-1v5l-1 1v-3h1v-2h12zm0 .5v-.5.5z" fill="#21231e"/>
        <path d="M458.8 124.5c3.4 0 6.2 2.7 6.2 6 0 3.5-2.8 6.3-6.2 6.3s-6-2.8-6-6.2c0-3.4 2.7-6 6-6z" fill="#fff"/>
        <path d="M465.5 130.6h-1c0-2-1.3-4.2-3.3-5a5.5 5.5 0 0 0-2.4-.6v-1c2.3 0 4.5 1.2 5.7 3a6.7 6.7 0 0 1 1 3.6zm-6.7 6.7v-1c2 0 4-1.2 5-3a5.6 5.6 0 0 0 .6-2.7h1c0 2.3-1 4.5-3 5.7a6.6 6.6 0 0 1-3.6 1zm-6.6-6.7h1c0 2 1.3 4.2 3.2 5a5.5 5.5 0 0 0 2.4.7v1c-2.2 0-4.4-1.2-5.6-3.2a6.7 6.7 0 0 1-1-3zm6.6-6.6v1c-2 0-4 1.2-5 3a5.6 5.6 0 0 0-.6 2.6h-1c0-2.2 1.2-4.4 3.2-5.6a6.6 6.6 0 0 1 3.4-1z" fill="#21231e"/>
        <path d="M446.3 124.5c3.4 0 6 2.7 6 6 0 3.5-2.6 6.3-6 6.3s-6-2.8-6-6.2c0-3.4 2.6-6 6-6z" fill="#fff"/>
        <path d="M453 130.6h-1c0-2-1.3-4-3.2-5a5.5 5.5 0 0 0-2.5-.6v-1c2.3 0 4.5 1.2 5.6 3a6.7 6.7 0 0 1 1 3.6zm-6.7 6.7v-1c2 0 4-1.3 5-3 .4-1 .6-1.8.6-2.7h1c0 2.3-2 4.5-4 5.7a6.6 6.6 0 0 1-4 1zm-6.6-6.7h1c0 2 1.2 4.2 3 5a5.5 5.5 0 0 0 2.6.7v1c-2.2 0-4.5-1.2-5.6-3.2a6.7 6.7 0 0 1-1-3zm6.6-6.6v1c-2 0-4 1.2-5 3a5.6 5.6 0 0 0-.6 2.6h-1c0-2.2 1.2-4.4 3-5.6a6.6 6.6 0 0 1 3.6-1z" fill="#21231e"/>
        <path d="M433.8 125.5c3.4 0 6 2.7 6 6 0 3.5-2.6 6.3-6 6.3s-6-2.8-6-6.2 2.6-6 6-6z" fill="#fff"/>
        <path d="M440.4 131.6h-1c0-2-1.2-4-3-5a5.5 5.5 0 0 0-2.6-.6v-1c2.2 0 4.4 1.2 5.6 3a6.7 6.7 0 0 1 1 3.6zm-6.6 6.7v-1c2 0 4-1.3 5-3a5.7 5.7 0 0 0 .6-2.7h1c0 2.3-1.2 4.5-3 5.7a6.6 6.6 0 0 1-3.6 1zm-6.6-6.7h1c0 2.2 1.3 4.3 3.2 5.2a5.5 5.5 0 0 0 2.4.5v1c-2.3 0-4.5-1.2-5.6-3.2a6.7 6.7 0 0 1-1-3zm6.6-6.6v1c-2 0-4 1.2-5 3a5.7 5.7 0 0 0-.6 2.6h-1c0-2.3 1.3-4.6 3.3-5.7a6.6 6.6 0 0 1 3.3-1z" fill="#21231e"/>
        <path d="M422.3 127.7c3.3 0 6 2.8 6 6.2 0 3-2.7 6-6 6s-6.2-3-6.2-6 3-7 7-7z" fill="#fff"/>
        <path d="M429 134h-1c0-2.2-1.4-4.3-3.3-5.2a5.5 5.5 0 0 0-2.4-.6v-1c2.2 0 4.4 1.2 5.6 3.2a6.7 6.7 0 0 1 1 3.5zm-6.7 6.5v-1c2 0 4-1.2 5-3 .4-1 .6-1.8.6-2.6h1c0 2-2 4-4 5a6.6 6.6 0 0 1-4 1zm-6.7-6.6h1c0 2 1.2 3 3 4h2.7v1c-2.3 0-4.5-1-5.7-3a6.7 6.7 0 0 1-1-4zm6.7-7v1c-2 0-4.2 1-5 3a5.7 5.7 0 0 0-.7 2h-1c0-3 1.3-5 3.3-6a6.6 6.6 0 0 1 3-1z" fill="#21231e"/>
        <path d="M346.3 159.4c3.4 0 6 2.8 6 6.2 0 3.4-2.6 6.2-6 6.2s-6-2.8-6-6.2c0-3.4 2.6-6.2 6-6.2z" fill="#fff"/>
        <path d="M353 165.6h-1c0-2-1.3-4-3.2-5a5.6 5.6 0 0 0-2.5-.7v-1c2.2 0 4.5 1 5.6 3a6.7 6.7 0 0 1 1 3zm-6.7 6.7v-1c2 0 4-1.2 5-3 .4-1 .6-1.8.6-2.7h1c0 2.3-2 4.5-4 5.7a6.6 6.6 0 0 1-4 1zm-6.7-6.7h1c0 2 1.3 4.2 3.2 5a5.6 5.6 0 0 0 2.5.7v1c-2.2 0-4.4-1.2-5.6-3a6.7 6.7 0 0 1-1-3.7zm6.7-6.7v1c-2 0-4 1-5 3a5.7 5.7 0 0 0-.6 2h-1c0-3 1.2-5 3-6a6.6 6.6 0 0 1 3.6-1z" fill="#21231e"/>
        <path d="M356.8 152.8c3.4 0 6.2 2.7 6.2 6 0 3.6-2.8 6.3-6.2 6.3-3.4 0-6-2-6-6 0-3 2.6-6 6-6z" fill="#fff"/>
        <path d="M363.5 159h-1c0-2.2-1.3-4.2-3-5a5.6 5.6 0 0 0-2.7-.7v-1c2.3 0 4.5 1.2 5.7 3a6.7 6.7 0 0 1 1 3.6zm-6.7 6.6v-1c2 0 4-1.2 5-3 .5-1 .7-1.8.7-2.7h1c0 2-1.2 4-3 5a6.6 6.6 0 0 1-3.7 1zm-6.6-6.7h1c0 2 1.2 4 3 5a5.6 5.6 0 0 0 2.6 0v1c-2.2 0-4.4-1-5.6-3a6.7 6.7 0 0 1-1-4zm6.6-7v1c-2 0-4 1-5 3a5.7 5.7 0 0 0-.6 2h-1c0-3 1.2-5 3-6a6.6 6.6 0 0 1 3.6-1z" fill="#21231e"/>
        <path d="M368.8 147c3.4 0 6 3 6 6.3 0 3.4-2.6 6.2-6 6.2s-6-2.8-6-6.2c0-3.4 2.6-6.2 6-6.2z" fill="#fff"/>
        <path d="M375.4 153.3h-1c0-2-1.2-4.2-3-5a5.6 5.6 0 0 0-2.6-.7v-1c2.2 0 4.4 1.2 5.6 3a6.7 6.7 0 0 1 1 3.7zm-6.6 6.7v-1c2 0 4-1.3 5-3a5.7 5.7 0 0 0 .6-2.7h1c0 2.3-1.2 4.5-3 5.7a6.6 6.6 0 0 1-3.6 1zm-6.7-6.7h1c0 2 2 4 4 5a5.6 5.6 0 0 0 3 .7v1c-2 0-4-1.3-5-3.2a6.7 6.7 0 0 1-1-3.5zm7-6.7v1c-2 0-4 1.2-5 3a5.7 5.7 0 0 0 0 2.7h-1c0-2.3 1-4.5 3-5.7a6.6 6.6 0 0 1 4-1z" fill="#21231e"/>
        <path d="M338.2 169.5c3.4 0 6 2.8 6 6.2 0 3.4-2.6 6.2-6 6.2s-6.2-3-6.2-7 2.8-6 6.2-6z" fill="#fff"/>
        <path d="M344.8 175.7h-1c0-2-1.3-4.2-3.2-5a5.6 5.6 0 0 0-2.4-.7v-1c2.2 0 4.4 1.2 5.6 3a6.7 6.7 0 0 1 1 3.7zm-6.6 6.7v-1c2 0 4-1.3 5-3a5.7 5.7 0 0 0 .6-2.7h1c0 2.3-1.2 4.5-3.2 5.7a6.6 6.6 0 0 1-3.4 1zm-6.7-6.7h1c0 2 1.2 4 3 5a5.6 5.6 0 0 0 2.7.7v1c-2.3 0-4.5-1.3-5.7-3.2a6.7 6.7 0 0 1-1-3.5zm6.7-6.7v1c-2 0-4 1.2-5 3a5.7 5.7 0 0 0-.7 2.7h-1c0-2.3 1.2-4.5 3.2-5.7a6.6 6.6 0 0 1 3.5-1z" fill="#21231e"/>
        <path fill="#edb92e" d="M454.2 276.3l-22 12.8-23.4-10 22-12z"/>
        <path d="M431 266.7l-22 12.8-.4-1 22-12.7h.5v1zm-.4-1h.5zm23.5 11l-23-10 1-1 24 10v1zm1-1l1 .5-1 .5v-1zm-22 13l22-13 1 1-22 12.8v-.8zm1 .8v.2l1-.2zm-23-11l24 10v1l-23-10v-1h1zm0 1l-1-.4h1v1z" fill="#21231e"/>
        <path d="M431 270.6c5.8-.3 10.5 2.5 10.8 6.3.2 3-4.2 7-9.8 7-5.7 0-10.4-3-10.7-7-.2-4 4.2-7 9.8-8z" fill="#c6363c"/>
        <path d="M442.3 277h-1v-.7l-.2-.3v-3h-8v-1h4l1 1h3l1 1h3l1 .7v.5h1v1h1v2.8zm-10.3 8v-1l.4-.2h1l.4-.2h.4l.4-.2h.5l1-.3h7v-2h1v-2h1v7h-1v4h-1l-1 1h-4zm-11.2-6.8h1v.5l.2.3v.3l.2.3.2.3h6.4v1h-3.6l-.5-1h-1l-1-1h-.6v-5zm10.3-8l1 1h-2v.2l-1 .2v1.5h-1v7h-1v-3h1v-1h2l1-1h3l1-1h6z" fill="#21231e"/>
        <path d="M382.4 270l23.8 9-19.7 13c-5-1.6-9-19-4-22z" fill="#edb92e"/>
        <path d="M406 279.4l-23.8-9 .4-1 23.7 9v1h-.3zm.3-1l1 .4-1 .5v-1zm-20 13.3l19.6-13.2v.8l-20 13.3h-1v-1zm.5 1h-.4.4zm-4.2-23.3l-.4 1h.5l-.4.2-.4.3h-1v1h-1v15l-1 1-1-1-1-1-1-1-1-1v-1l-1-1-1-1v-1l-1-1v-3l-1-1v-12h3zm-.5 0h1zm1 .4v-.4.5zm0-.4h1z" fill="#21231e"/>
        <path d="M382.8 274.3c5.7-.6 10.5 2 11 5.8.3 4-4 8-9.6 8-3.6 1-6-3-6.3-6-1-3 1-7 4-7z" fill="#0c4076"/>
        <path d="M394.2 280h-1v-.5l-.2-.3v-.3l-.2-1-.2-1h-.2l-.2-1-.2-1h-.2l-.3-1-.2-1-.3-1h-1l-.4-1-.3-1H387l-.5-1h-5v-1H393l1 1h1v1h2v1zm-10 8.4v-1h1l.5-.2h.4l1-.2 1-.2h1l1-.3 1-.2h1l1-.3 1-.3 1-.2v-1l1-.2v-.3l1-.3v-.5l1-.3v-1l1-1v-2h1v2h-13zm-6.8-6.7h1v.7l.2.3v.3l.2.4v.3l.2.2h1v1h2.6v1h-3v-1h-.7l-1-1h-1l-1-1h-1v-1l-1-1-1-1v-1l-1-1h-1v-2l-1-1v-1zm5.4-8v1h-.2l-.4.2h-3v1h-.4v2h-1v-2l.2-1 .2-1v-1l.3-1 .3-1 .2-1h.2v-1h4.8z" fill="#21231e"/>
        <path d="M457.5 280.4c1.7 0 3.2 1.5 3.2 3.2 0 1.8-1.5 3.3-3.2 3.3-1.8 0-3.2-2-3.2-4s1.4-3 3.2-3z" fill="#fff"/>
        <path d="M461.2 283.6h-1v-.6l-.2-.2v-.2l-.2-.3v-.2h-2.2v-1h1l.3 1v3zm-3.7 3.8v-1h.4v-2.8h1v.8l-1 .2v.3h-2zm-3.7-3.8h1v1h.2v.2l.2.2v.2l.2.2h.2v.2h.2v.2h.2l.2.2h.2v.2h1v1.2h-.7l-.2-.2h-.5v-.2h-.3l-.2-.2-.3-.2-.2-.2h-.2v-.3h-1zm3.7-3.7v1H454v-1h.2v-1h.2v-1l.2-1h.6l.2-1h.7v-1h2z" fill="#21231e"/>
        <path d="M408.7 283c1.8 0 3.2 1.6 3.2 3.4 0 1.7-2 3.2-4 3.2s-3-1.5-3-3.2c0-1.8 1-3.3 3-3.3z" fill="#fff"/>
        <path d="M412.4 286.4h-1v-1h-.2v-.3h-2.4v-2h.7v1h1.3v1h1.3v2h1v2zm-3.7 3.7v-1h1.2v-1h1v2h-1v1h-1v1h-1v1h-1zm-3.7-3h1v1h.2v1h.4v1h.8v1h1v1H406v-3zm3.7-3v1h-1.4l-.2 1v2h-1v-1h1v-2h3z" fill="#21231e"/>
        <path d="M407 268.3c1.8 0 3.2 1.4 3.2 3.2 0 1.8-1.4 3.2-3.2 3.2-1.8 0-3.2-1.4-3.2-3.2 0-1.8 1.4-3.2 3.2-3.2z" fill="#fff"/>
        <path d="M410.7 271.5h-1v-.7l-.2-.2v-.3l-.2-.2H408v-1h1l.4 1h1l.6 1v1h.4v2zm-3.7 3.7v-1h1v-.2h.2l.2-.2h.2v-.2h.2v-.2h.2v-.2l.2-.2.2-.2v-.4h.2v-1h1v1.2l-.2.2-.2.3v1h-.2l-.2 1h-.2v1h-.3v1h-.2v1h-1zm-3.7-3.7h1v.8l.2.2v.4h1.4v1h-1l-1-1h-1v-1h-1v-2zm3.7-3.7v1h-.8v.2h-.5l-.2.2h-.2v.2h-.2v2h-1V269h1v-.4h1v-.2l1-.2h1v-.2h1l1-.2h1z" fill="#21231e"/>
        <path d="M457.3 266.2c1.8 0 3.2 1.4 3.2 3.2 0 1.8-1.4 3.2-3.2 3.2-1.7 0-3.2-1.4-3.2-3.2 0-1.8 2-3.2 4-3.2z" fill="#fff"/>
        <path d="M461 269.4h-1v-.8h-.2v-.3l-.2-.2h-2v-1h1.5l1 1h1v1h1v3zm-3.7 3.7v-1h2.4v-1h1v1l-.3 1h-.2l-.2 1v1h-.8v1h-.3v1h-2zm-3.7-3h1v1l.2 1v1h.2v1h.4v1h2.4v1H455v-3h-1zm3.7-3v1h-1l-.3 1h-.4l-.2 1h-.2v1h-.2v1h-1.2 5.3z" fill="#21231e"/>
        <path d="M371 237.4c2.3-.8 6 4.6 7 4.5 1.2-3-1.2-11-5.5-17-3-1-3.2-3-3.8-8-.2-2-2.7-1-2.7 2 0 2-.3 3 .3 5 .2 0 0 1-.8 2 4.5 1 5.6 4 5.4 9z" fill="#edb92e"/>
        <path d="M377.6 241.8l1 .3-.5 1h-3v-1h2v1h1l1 1v1h1v1h1v1zm1 .3l-.2 1h-.3 1zm-6.3-15l.4-1h.2v22h-1v-8l-1-1h-1v-4h-2v-1h-1l-1-1-1-1v-1zm.4-1h.2-1zm-4.5-6h1v1l.2 1v1h.2v1l.2 1v1l.2 1v1h.2l.2 1h.6v1h.6l.2 1h1l-.5 1h-.2v-10zm-1.7 2h-1v-1h.4v-2h1v1h-2v1h-1v1h-1v1zm.3 6l-1 1h-.2v-2h-.2v-4h1v4l.2 1v1h.2zm-1 2l-.5 1v-1h.7-1 1v3h-1zm-.5 1h-.8l.7-1v1zm5 9h1-1l.2-1v-2h-.4v-3h-1v-1l1-1h1l1 1h2v1h1l1 1 1 1 1 1v2l1 1v5h-1zm1 0h-1 1zm-1 0h.5l-.4 1z" fill="#21231e"/>
        <path d="M368.8 218.5c-.4 1-.6 1.8-.7 3.4 0 1 1 2 2 3s2 2 3 2 2 1 3 3c1 1 1 3 1 4 0 3 1 6 3 7h3v-3s-1-3-1-4-1-2 0-4c1-1 1-2 1-3 0-2-2-6-4-6s-3-1-4-4c0-1-1-2-1-2z" fill="#edb92e"/>
        <path d="M368.6 222l-1-.2v-1.2l.2-.2v-1h.2v-.7h.2v-.4l1 .3v.4h-.2v1l-.2.2v1.5l-.2.3zm1 2.8l-.8.6v-.2h-.2v-.2l-.2-.2v-.2h-.2v-.4h-.2v-.5l-.2-.2v-.7l-.2-.2v-.7h1v1h1zm3 2.4l-.6 1v-.2h-.4v-.2h-.2v-.2h-.2l-.2-.2h-.2v-.2h-.3v-.2h-.2l-.2-.2v-1.4l1-.6v.6h1v.8h1v.4h1v.2l1 .2v.2zm2.4 3.2l-1 .4v-.2l-.2-.2v-.2l-.2-.2v-.2h-.2v-.2l-.2-.2v-.2h-.2v-.2l-.2-.2-.2-.2v-.2h-.2l-.2-.2h-.2l.5-1h.2v.2h.2v2.5zm1.2 4.2h-1v-.8l-.2-.2v-.8h-.2v-.5h-.2v-.4h-.2v-1h-.4l1-1h1v1h.2v1zm-1 0zm3 6.8l-.3 1h-1v-.2l-1-.3v-1h-1v-2h-1v-5h1v5zm1.7.8l1-.3h-4v-1h1v1zm1-.3h-1v-1zm-2-2l1-1v2h-1v-2zm-2-4h1v1h-1v-1l-1-1v-1h-1v-1h-1v-1zm1 0zm-1-4h1v3h-1v-3zm1-3h1v2h-1v1l-1-1v-2zm-4-6v-1h2v3h-1v-2l-1-1h-1v-1l-1-1v-1h-1zm-5-4l1-1v2h2v1h-3v-1h-1v-1l-1-1v-1zm-1-2l-1-1h1v1h-1v-1h-1v-1h1zm-1-1v-1 1h-1zm0 0v-1zm-1 0v-1 1h-1z" fill="#21231e"/>
        <path d="M360 227l2-1c1.3-.5 2.6-.6 4-.2 5.5 1.7 8 11.6 1.8 14-1.2.2-2.3-1-3.4-3.3-1.3-3.2-2.6-5.4-4-6.8-1-1-1-2-.4-2.6z" fill="#edb92e"/>
        <path d="M362 225.5l.3 1h-.4v.2h-1v.2h-1l-1-1h2v-1zm4-.2l-.2 1h-.5v-.2h-2v1h-1l-.5-1h3v1zm2 15l-.2-1h-.2l.5-.2h5v-2h1v-4h-2l1-1h1l1 1h1l1 1v1h1v1h1v13h-1zm0 0zm-4-3.6l1-.4v.4l.2.2h2.6v1h-1.5l-.2-1v-2zm0 0zm-4-6.6h1v1l.3 1 .2 1v1h.4v4l-1 1v-4h-5zm0 0zm0-3v1h.3-.2v1h1v3-3h1zm-.4 0h.4-.4zm.4 1v-1l.3 1h-.3zm.3 0h-.2 1z" fill="#21231e"/>
        <path d="M362.8 227.7c5.4-2 9.4 8.3 4.3 10.2-2 1-2-3-3-5 0-3-6-4-1-6z" fill="#edb92e"/>
        <path d="M367.3 238.4l-.4-1v-4l-1-.5v-1l-1-1-1-1-1-1v-1h-1v-1h-1l-1-1h-2l-1-1h6v6h-1v1h-1zM363 234l1-.4.2.2v.6l.2.2v.8l.2.2v.4l.2.2v.2l.2.3.2.3v.2h.2v.2h.2l.2.2h1.2l.3.8h-.3l-.3.2h-1.2l-.2-.2h-.2v-4zm-.4-6.7l.4 1h-.5l-.3.3h-.4l-.2.3h-.6 3v1h-1v-1l-1-1v-1h-1v-1l-1-1h-2v-2h.4v-1h2z" fill="#21231e"/>
        <path d="M363.4 229.3c2.6-1 6.2 5 3 6.5-2.3 1-4-.3-4.8-2-.7-2 0-3.8 1.7-4.5z" fill="#0c4076"/>
        <path d="M366.5 236.3l-.4-1h1V231h-1v-1h2l1 .2 1 .3v.3l1 .2v.4l1 .4 1 .4v4.6zm-5.4-2.5l1-.3 1 .3v1.3h1v1h3l1 1h-4v-1zm3-5l1 1v3.6l-1 .3V231l1-.2v-.8l1-.2v-.2h1v-.4h1v-.2zm0 .5v-.5.5z" fill="#21231e"/>
        <path d="M400 179.7c3.6 0 6.4 2.8 6.4 6.4 0 4-2.8 7-6.3 7s-6-3-6-6 3-6 7-6z" fill="#fff"/>
        <path d="M407 186h-1c0-2-1.4-4.3-3.3-5.2a5.8 5.8 0 0 0-2.6-.6v-1c3 0 5 1.2 6 3.2a7 7 0 0 1 1 3.7zm-7 7v-1c2.2 0 4.3-1.3 5.3-3.3a6 6 0 0 0 .6-2.6h1c0 3-2 5-4 6a6.8 6.8 0 0 1-4 1zm-6.8-7h1c0 2.3 1.3 4.4 3.3 5.4a5.8 5.8 0 0 0 2.6.6v1c-2 0-4-1.3-5-3.3a7 7 0 0 1-1-3.6zm7-7v1.2c-2.3 0-4.4 1.3-5.3 3.2a6 6 0 0 0-1 2.7h-1c0-2 1-4 3-5a6.8 6.8 0 0 1 3-1z" fill="#21231e"/>
        <path d="M395.4 169c3.5 0 6.4 3 6.4 6.4 0 3.6-3 6.4-6.4 6.4s-6.3-2.8-6.3-6.4c0-3.5 3-6.4 7-6.4z" fill="#fff"/>
        <path d="M402.3 175.4h-1c0-2.2-1.3-4.3-3.2-5.3a5.8 5.8 0 0 0-2 0v-1c3 0 5 2 6 3a7 7 0 0 1 1 4zm-7 7v-1c2.3 0 4.4-1.4 5.4-3.3a6 6 0 0 0 .6-2h1c0 3-1.2 5-3.2 6a6.8 6.8 0 0 1-3 1zm-6.7-7h1c0 2.2 1.3 4.4 3.2 5.3.8.4 1.7.6 2.6.6v1c-2.3 0-4.6-1.2-5.8-3.2a7 7 0 0 1-1-3zm6.8-7v1c-2 0-4.2 1.4-5.2 3.3a6 6 0 0 0-.6 2.7h-1c0-2.3 1.2-4.6 3.2-6a7 7 0 0 1 3.6-1z" fill="#21231e"/>
        <path d="M410.7 131.5c3.4 0 6 2.7 6 6s-2.6 6.3-6 6.3-6.2-2.7-6.2-6.2c0-3.4 2.8-6 6.2-6z" fill="#fff"/>
        <path d="M417.3 137.7h-1c0-2.2-1.2-4.2-3-5a5.6 5.6 0 0 0-2.6-.7v-1c2.2 0 4.4 1.2 5.6 3a6.7 6.7 0 0 1 1 3.7zm-6.6 6.6v-1c2 0 4-1.2 5-3 .4-1 .6-1.8.6-2.6h1c0 2.2-1.2 4.5-3 5.6a6.6 6.6 0 0 1-3.6 1zm-6.7-6.7h1c0 2.2 1.3 4.2 3.2 5a5.6 5.6 0 0 0 2.5.7v1c-2.3 0-4.5-1.2-5.6-3a6.7 6.7 0 0 1-1-3.6zm6.7-6.6v1c-2 0-4 1.2-5 3a5.7 5.7 0 0 0-.7 2.6h-1c0-2.2 1.2-4.4 3-5.6a6.6 6.6 0 0 1 3.7-1z" fill="#21231e"/>
        <path d="M400.4 136.2c3.5 0 6.3 3 6.3 6.4 0 3.5-2.8 6.4-6.3 6.4s-6.4-3-6.4-6.4c0-3.5 2.8-6.4 6.4-6.4z" fill="#fff"/>
        <path d="M407.2 142.6h-1c0-2.2-1.3-4.3-3.3-5.3a5.8 5.8 0 0 0-3-.6v-1c2 0 4 1.2 6 3.2a7 7 0 0 1 1 3zm-6.8 7v-1c2 0 4.2-1.4 5.2-3.3a6 6 0 0 0 .6-2.7h1c0 2.3-1.2 4.7-3.2 6a6.8 6.8 0 0 1-3.6 1zm-7-7h1c0 2.2 1.4 4.3 3.3 5.3a5.8 5.8 0 0 0 2.7 0v1c-2.4 0-4.7-1-6-3a7 7 0 0 1-1-4zm7-7v1c-2.2 0-4.3 1.4-5.3 3.3a6 6 0 0 0 0 2h-1c0-3 1-5 3-6a6.8 6.8 0 0 1 4-1z" fill="#21231e"/>
        <path d="M392.8 145.3c3.5 0 6.3 2.8 6.3 6.4 0 3.5-2 6.4-6 6.4s-6-2-6-6c0-3 3-6 7-6z" fill="#fff"/>
        <path d="M399.6 151.7h-1c0-2.2-1.3-4.4-3.2-5.3a5.8 5.8 0 0 0-2.6-.6v-1c2.3 0 4.6 1.2 5.8 3.2a7 7 0 0 1 1 3.7zm-6.8 7v-1c2 0 4.2-1.4 5.2-3.4a6 6 0 0 0 .6-2.6h1c0 2.3-1.2 4.6-3.2 6a6.8 6.8 0 0 1-3.6 1zm-7-7h1c0 2 1.4 4.3 3.3 5.2a5.8 5.8 0 0 0 3 0v1c-2 0-4-2-6-4a7 7 0 0 1-1-4zm7-7v1c-2.2 0-4.3 1.3-5.3 3.3a6 6 0 0 0-.6 2.7h-1c0-2.4 1-4.7 3-6a7 7 0 0 1 3-1z" fill="#21231e"/>
        <path d="M391.5 156.7c3.6 0 6.4 2.8 6.4 6.4s-3 7-7 7-7-3-7-6 3-6 6-6z" fill="#fff"/>
        <path d="M398.4 163h-1c0-2-1.3-4.2-3.2-5.2a5.8 5.8 0 0 0-2.7-.6v-1c2.4 0 4.7 1.2 6 3.2a7 7 0 0 1 1 3.7zm-7 7v-1c2.3 0 4.4-1.3 5.4-3.3a6 6 0 0 0 .6-2.6h1c0 3-1.3 5-3.4 6a6.8 6.8 0 0 1-3.5 1zm-6.7-7h1c0 2.3 1.3 4.4 3.2 5.4 0 .4 1 .6 2 .6v1c-3 0-5-1.3-6-3.2a7 7 0 0 1-1-3.7zm6.8-6.8v1c-2 0-4.2 1.3-5.2 3.2a6 6 0 0 0-.6 2.7h-1c0-2 1.2-4 3.2-5a7 7 0 0 1 3-1z" fill="#21231e"/>
        <path d="M474.4 198c-2.7-5-5.6-8.2-8.6-9.6 4.2-13.2 5.2-30.2 2.7-51-.2-3.3-1-4.6-2.2-4.6-1 0-1.7 1.6-1.8 5.2.8 11.6 1.7 21.6 1.2 30.2-.5 7.6-2.3 14-4.2 21.2-.3 1 .4 1.7 3.8 3.7 2.6 2 4.2 4 4.7 5h1.5c2.5 1 3.6 1 3 0z" fill="#edb92e"/>
        <path d="M465.3 188.2l1 .3-.3-.6h7.8l.4 1v1h.3-1l-.3-1-.3-1-1-1v-1l-1-1v-1h-2l-1-1v-1h-1l-1-1-1-1h-1v-1h-1v-1l-1-1v-1l-1-1h-1v-1h-1zm.3.6h-.4v-.6l.4.6zm2.4-51.5h1l.2 2 .2 1.8.2 2 .2 2v2l.2 2v2l.2 2v15l-.3 2-1 2v2l-1 2v3l-1 2v2l-1 1v2l-1 2v2l-1 2-1 1-1 2h-1v-46l-1-2v-6zm0 0zm-1.7-4v-1h.6v3.6h-1v-2l-1-1v-1h-1zM465 138h-1v-1.7l.2-.3v-1l.2-.3v-.7h.2v-.3l.2-.3v-.3h1.4v1h-.6v1l-.2 1v1h-.2v2l-.2 1v1zm-1 0zm2.2 30.2h-1V154l-.2-1v-2.8l-.2-1v-2l-.2-1v-1l-.2-1v-2l-.2-1V139l-.2-1 1-.2v1l.2 1.2v2l.2 1v2.2l.2 1v2l.2 1v2l.2 1v2.8l.2 1v12zm-4.3 21.3l-1-.3v-20.5h1v1.5l-1 .6v1.5l-1 .5v8l-1 .8v2.2l-1 .6v1l-1 .6v1l-1 .5-1 .6v6zm3 3l-1 1-1-.2h-1l-1-.3-1-.2h-1l-1-.3-1-.3v-.2l-1-.2-1-.2-1-.3v-.2h-1v-1h1v2h1v2l1 1zm0 0zm4 5.2v1l-1-.4v-.8l-1-.2-1-.2h-2v-1 3l1 1v1h1v2h-1zm0 1h-1v-.4.3zm1-1.2l-1 1h-1l-1-.8v-.2h1zm3 .5h-1v-.4 1.4h-2v-.2h-1l-1-.2h-1v-1 .2h1v.6l1-.4zm-1 0v-1 .6l-1 .4zm0 0h1l-1 .3v-.3z" fill="#21231e"/>
        <path d="M458.4 214.6c1.6-1 2-.8 2.4-1.4.6-.8.6-2.2.4-3.5-.8-5.3 2.4-4.6 6-2.2 1.7 1 3.5 4 5 5.3s2.8 1.5 3.2 2v9.2c-.4.6-1.7.7-3.2 2-1.5 1.5-3.3 4.2-5 5.4-3.6 2.3-6.8 3-6-2.2.2-1.3.2-2.7-.4-3.5-.5-.7-.8-.4-2.4-1.4-1-.6-1.8-1.4-2.3-2.2v-4c1-1 2-1 3-2z" fill="#edb92e"/>
        <path d="M460.4 213l.8.5-.2.2-.2.2h-2l-.8-1h.6v-1h1.8zm.3-3.2l1-.2v3l-.2.2v.2h-.2v.2l-1-.5v-.2h.2v-.4h.2v-2zm6.7-2.8l-.6 1-.3-.3-.3-.2-.3-.2-1-.2h-3v1h-1v2h-1v-3h2v1h1v3zm5 5.4l-.6.7H468v-2l1-1v1h1v1l1 1h1v1l.4 1v1h.4v1zm3.5 2.4h-2v.3h-4v2h1v1zm-1-.2v.2-.2zm0 4.8h-1V215l1-.3v4.5zm-1 0zm0 0h1-1zm0 0zm1 5l-1-.7v.3-4.4h1v4.7zm0-.4v.2-.2zm-4 2.5l-1-.8v-.7h2l1 1v1h-1v.6h-1v.7h-1zm-5 5.3l-1-.8v-4h1v-2h1v1.2h-1v1.8l-1 .5h-1zm-6-2.8l1 1v3h2v-2 1h-4l-1-1v-.7l-1-.3v-3zm-1-3h1v3.7l-1-.2v-3h-1v-.2zm-2-1v-.4.4h1v.8l-1 .6-1-.2h-1v-.2h-1v-.6zm0-.4v.2-.3zm-3-1.7l1-1h2l-1 1v-1h-1v-1h-1v-1zm-1-3h1v2h-1v-1h-1v-2zm0-3h1-1v2h-1v-4zm2-3l1 1h-1l-1-1v-1h1v-1zm1 1h-1z" fill="#21231e"/>
        <path d="M475.5 220.2v1c-4 .4-7 2-9.7 4.3 1.8-2.7 5.7-4.7 9.7-5.3zm0-1.6v-.8c-4-.5-7-2-9.7-4.4 1.8 2.7 5.7 4.6 9.7 5.2z" fill="#21231e"/>
        <path d="M461.2 207.3c1 .4 2.3 1 3.4 2 1.6 1.5.6 4-1.5 6.6 0 0-1 2-1 3s1 2 1 3c3 2 4 5 2 6-1 1-2 1-3 2v-6c0-1-1-1-2-2l-2-2v-6l3-3 3-2c1-1 1-2 1-4v-2z" fill="#edb92e"/>
        <path d="M465 209l-.8.6-.2-.2-.2-.2h-.2v-.2h-.2l-.2-.2h-.2v-.2h-.4v-.2h-.5v-.6l1-1v.2l1 .2h1v.4h1l1 .2v.2h1v.6l1 .2zm-1.5 7.2l-.8-.6.2-.3V211l-1-.3v-1 4.2h-1v1h-1zm-1 3.3h-1v-.7l.2-.2v-1.2h.2v-2l1 .6v1.8h-1v2.3zm1 3.2l-.8.6v-.2h-.7v-3h1v3h.6v1h.2zm1.5 7.3l-.8-.8h.2v-.2h.2v-.3l.2-.2v-2h-.2v-.3l-.2-.2v-.2l-.2-.3v-.2l-.2-.2h-2 1v1h.2v1l.3 1v1l.3 1v1h.3v3zm-4.3 1.7l1-.2-.7-.4h3l1 1v1h-1v1h-1v1h-.6v1H460zm.7.4l-.6 1 .6 1zm-.7-3l1 1v2l-1 1v-3zm-.3-3h1v1h.2v1h.2v3h-1v-3h-.4zm-2.4-1h2.6l.2 1h.4l-.8 1H458zm0 0h-.2.4zm-2.2-2h1v1h.2v1h.2v1h.4v1h1l-.5 1v-2zm0 0l.3 1zm-.3-3h1v3l-.7 1h-.4v-3zm.3-3l.8 1v1h-.2v2h-1v-3h.4zm2.4-2l.7 1h-1v1h-1v1h-1v-2zm2.4-1l.8 1h-.8v1H459l-1-1h2zm.3-3h1v3h-1v1h-1v-4zm0-2v-1 3h-1v-3 1zm0-1v1h-1zm0 0v1-1zm-101 19c-2-2-2-4-2-6-2 2-1 4 0 7z" fill="#21231e"/>
        <path d="M410.7 200c1.4 1.6 1.2 2 2 2.5 1 .6 2 .4 3.3 0 5-2 5 2 3.5 6.4-.7 2-2.8 4-3.7 6-1 1-.7 3-1 3a95.4 95.4 0 0 1-4 0h-4c-.6-1-1-2-2.6-3s-4.4-3-6-5c-3-4-4.6-7 .2-7 1.2 0 2.4-1 3-1 .4-1 0-1 .4-3 .3-2 .8-3 1.4-3 .6-1 1.5-1 2.3-1 1-1 1.6-1 2.5-1 1 0 2 1 2.7 2z" fill="#edb92e"/>
        <path d="M413 202l-.6 1-.2-.2-.2-.2-.2-.2v-.2h-.2v-.2l-.2-.2v-.2l-.2-.2v-.2h-.2v-.2l-.2-.2-.2-.3-.3-.3.8-.6 1 .2v2h1v.2h1zm-.6 1zm3.5-1v1h-1v.2h-1v.2h-1l-1-.2-1-.2v-1 .4h1v-.4zm4 7l-1-.3v-6.2h-2l-1 .2h-1l-1-.8v-1h3v5h-1zm-4 6.4l-1-.5v-8h1-1v1h-3v1h-1v1h-1zm-2 3.8v-1l-1 .2V216l1 1-1 .7v1h-1v2h-1zm0 0h-1zm-5 .6v-1h1v-.2h1v-.2h1v-.2 1h-1v.2h-1v.2h-1v.2h-1zm0 0zm0 0v-1 .5-.5 1-.5.5zm0-1zm-4 1.5v-1h1v-.2h2v1h-2v1h-2zm0 0h-1zm-3-3v-1 .6h1v1-1h-1v-1h-1v-1h-1v-1h-1zm-6-4.8v-.6h3l-1 1v-1h-1v-1h-1v-1h-1v-1h-1v-1h-2zm0-7.5v1h-1l-1 .2h-1v5.8l-1 .5-1-.3-1-.3v-1l-1-1v-1l-1-1-1-1v-1h-1v-4h3zm2-.8l1 .5v.2h-2v-1h1v-1zm0 0zm0-2.8l1 .2v3l-1-.4v-2.7zm1-3.2v1h-1v.4h-1v2l-1-.2v-3zm0 .6v-.7l-1 1zm2-1.5v1h-1v.2h-1v.2l-1-.5v-.8h1zm0 1h-1zm3-1.2l-1 1h-1l-1 1h-1v-1h3zm3 3h-1v1h-2v-1 3zm0 0v1zm-1 1h1l-1 1zm0 1z" fill="#21231e"/>
        <path d="M410 219.4h-.7c-1.4-3.8-3.5-7-6.3-9.5 2.8 1 5.5 5 7 9zm1.4-.2c.3 0 .5 0 .8-.2-.5-4 0-7.5 1.5-11-2 2.5-2.8 7-2.3 11.2z" fill="#21231e"/>
        <path d="M418.3 202c-.2 1.4-.4 3-1 4.3-1 2-3.8 1.3-6.6-.7-.8-.6-2.2-.8-3.4-.6-1.3.3-2.4.8-3 1.7-1.5 2.6-3.4 4-5.2 2.6-1-1-2-2.3-2-3.5 1-.2 1-.3 2-.3 2 0 3-.2 3-1 1-.7 0-1 1-3 0-1.2 1-2.3 2-3 1-.8 2-.6 3-.7 1-.2 2-.7 3-.2 1 .4 2 1.2 3 2.3 2 1 1 2 2 2h4c1-1 2-1 3-1z" fill="#edb92e"/>
        <path d="M417.7 206.5l-1-.4h.2v-3h1v4l-1 1v1zm-7.2-.5l.5-.8.3.2h.2l.3.3h.2l.3.3h.2l.3.2.2.2h.2l.3.2h.4v.4h1v-1l1 1h-1v1.8h-1v.5h-2l-1-.2h-3zm-3-.4l-.3-1h1v-.2h1.4v.2h.6v.2h.4v.2h.2l.2.2-.5.8h-.2v-.2h-.4v-.2h-3zm-2.7 1.3l-.8-1h.4v-1h1.4v-1h1v1H404zm-6 2l.6-1h2v-1h.4v-1h.2v-1h.3v-1l.3-1h.3v-1 1h-3v1h-3v-1h-1zm-2.8-4l.7 1 .3-1h1v1l-1 1h-1v-1h-.6v-1h-1v-2zm0 1l-.2-1 .5-1v1zm2.6-1v1h-2l-.5-1h3zm2.5-1h1v1h-2v-1h2l1-1h1v-1zm0 0zm1-3h1v2l-1-1v-1h1v-1zm2-3l1 1v1l-1-1v-1l1-1v-1h1v-1zm0 0h1zm3-1v1h-2v-2h2zm0 0h1zm3 0v1h-3v-1h3zm0 1zm3 2h-1v-5h2v1zm2 2v1-2h-1v-2l1-1h1v1h1zm0 1zm4-1l1 1h-4v-1l1-1h2v-1zm3 0h-1 1-2v-1h3zm0-1h1v-1z" fill="#21231e"/>
        <path d="M391.8 221.2c.7-1 1-.8 1.2-1.3.2-1-.3-2-1-4-2.2-5 .3-4 3.6-3 1 0 2 1 3 2s1.8 2 2.7 2c1.6 1 2.7 1 3 1l1.8 4c1 0 1 2 2 4 0 0-1 0-2 2 0 1-1 3-2 4s-2 2-3 2-1-2-2-5c0-1 0-3-1-3 0-1 0-1-2-1a9.3 9.3 0 0 1-2-2c0-1 0-2-1-2 0-1-1-2 0-3a3.8 3.8 0 0 1 1-2z" fill="#edb92e"/>
        <path d="M392.5 219.7l1 .3v.2l-.2.2v.2h-.2v.8l-1-.5v-1h1v-1zm1 .3zm-1.8-3l1-.5v.4h.2v3l-1-1v-2h-1v-1zm4.2-3l-1 .8h-1l-1-.3h-1l-1-.3h-1l-1-.2v-.2h-1v-.2h-1v5.5l-1 1h-1v-5h3zm2 2l-1 1v-.4h-1v-.8h-1v-.6l-1-.2-1-.2v-1 .4l1 .2v1.6zm3 2.4l-1 .8h-1v-.8h-1v-.8l-1-.2v-.4l1-1v2.4zm3 2l-1 .3v.2-1h-2v-1h-1v-1h2zm0-.3v1zm1 5l-1 1v-2h-1v-1h-1v-1h1v6zm0 0zm0 0l-1 1v1h-1v1h-1v1h-1v1-1h1v1h-1v1-1l1 1h-1v1zm0 0zm1 5h-1v-3h-2 1v6zm0 0v1zm-2 3h-1v-1h2v1h-1v1h-1v1zm-3 5h-1v-4l1 1v3h-1v2zm-3 2v-1h1v-3l1 1v1h-1v1h-1v1h-1v1h-1v1h-1zm-2-5h1v5h-2v-3zm-1-2v4h-1v-1h-1v-1h-1zm-2-1v-1h1v1h1l-1 1h-2zm-3-2h1v2h1l-1 1h-1v-1h-1zm-1-2h1v3l-1 1v-1h-1v-1zm-1-2h1v2l-1 1v-2h-1v-2zm1 0v1zm0-1v-1 3h-1v1h-1v-2 1zm0-1h1l-1 1v-1zm0 0v1h-1zm0 1h-1v1z" fill="#21231e"/>
        <path d="M406.5 226l.2 1c-1.4.4-2.6 1-3.6 1.8s-1 2-2 3.2c0-1.4 1-2.7 2-3.7s3-1.8 4-2.2zm-.6-1.6l-1-1c-2 0-3-.4-5-1-2-.7-3-1.6-5-2.8 1 1.3 2 2.4 4 3.3 1 0 3 1 5 1z" fill="#21231e"/>
        <path d="M391.4 213.8c1 .4 1.6.8 2.8 1.8.8.7 1.3 1.7 1.5 3 0 1 0 2.5-.3 3.8-.2.8 0 2.2.5 3.6 0 1.4 1 2.8 2 3.5 2 2.5 4 5 3 6.7-1 1-1 1.3-2 1.8-1-.6-1-1.2-2-2.2-1-1.3-1-2.6-2-3.5-1-.6-1-1.3-2-2.2-1 0-2 0-3-1s-3-5-2-7c1-1 2-2 1-5-1-1-1-2-1-2z" fill="#edb92e"/>
        <path d="M394.5 215.2l-.7.8-.2-.2-.2-.2-.2-.2h-.2v-.2h-.2v-.2h-.4v-.2h-.2l-.2-.2h-.2l-.2-.2h-.4l.3-1h.4v1.8zm1.7 3.2l-1 .2v-.6h-.2v-.7h-.2v-.4l-.2-1h-.8l.7-1h.4v2zm-.3 4h-1v-3.8l1-.2v4zm-1 0v-.3 1zm1 3.5h-1v-3h-1v-1h1v3zm2 3h-1v-1h-1v-2h-1v-1l1-1v2zm3 7l-1-1v-2h-1v-1h-1v-1h-1l-1-1v-1h-1l-1-1v-1l-1-1 1-1h1v4h-1zm-3 2l1-1h-1v-1h1-1l-1-1zm1 0h-1l-1-1zm-2-3l1-1h-1v-1h-1v-1h-1zm-2-3l1-1v2h-1v-1h-1v-1h-1v-1h-1zm0 0zm-2-2v-1h1v1h-1v-1h-1v-1h-1zm-3-1v-1h2v1-1h-1v-1h-1v-1zm-2-8h1-1v3h2l-1 1v-1h-1v-5zm1-5l1-1v2h-2l-1-1v-5zm0-3v1-1 2h-1v-2l-1-1v-2zm-1 0l-1-1h1-1zm0 0v-1 1zm0-1z" fill="#21231e"/>
        <path d="M434 226.2c-1.2 1-1.5 1-2 1.6-.3.8 0 2 .3 3.3 1.5 5-1.4 5-5 3-1.6-1-3.6-3-5.2-4-1-1-2-1-3-1a118.7 118.7 0 0 1-1-4s0-2-1-4c1 0 2-1 3-2s2-4 4-6c3-3 6-4 6 2 0 2 1 3 1 4 1 1 1 1 3 1l3 2c1 1 1 2 1 3s1 2 1 3-1 2-2 3z" fill="#edb92e"/>
        <path d="M432.6 228l-1-.5h.2v-.4h1.8l.8 1h-.6l-.2 1h-1zm-1-.5zm1 3.4h-.8l-.2-1v-1h-.2v-2h.2v-1h1-.2v2h.2zm-5.4 3l.5-1h3.2v-2l-1-1v-1l1-1v3h-6zm-5.4-5l.6-1h.5v1h1l-1 1h-1v-1l-1-1v-1h-1v-1h-1v-1h-1v-1l-1-1v-1zm.6-1zm-4-1h3.5l-1 1h-1v-1h-1l-1-1v-1h-1v-1zm.2 0v-1zm-.6-5v-1h.7v1h.2v3h-1v-2h-1v-1zm0-1h.5l-.5-1zm-.5 0h1l-.5-1v1h-.3l-.2-1zm1 0zm-1.8-5h1v1h.2v3h-1v-3h-1v-1zm0 0v-1zm2.4-3h1v2h-1 1v-1h1v-1zm4-6h1v5l-1-1v-1l1-1h1v-1h1v-1h1l1-1v-1zm7 1h-1v-3h-1v2l-1-1v-1h1v-1h2l1-1h1l1-1h3v1h1v2zm1 3l-1 1v-3h1v2h1zm0 0zm2 1v1h-2v-1l1-1h5zm3 2h-1v-1h-1v-1h3v1h2zm-1 0l1 1zm2 2h-1v-2l1-1h1v2h1zm0 3l-1-1v-3h1v3zm-2 2v-1h1v-1h1v-1h1v-1h1v1h-1zm0-1z" fill="#21231e"/>
        <path d="M418 222.6l-.2-1c3.2-.8 5.7-2.6 7.8-5.3-1.2 3-4.3 5.3-7.7 6.3zm.2 1.5c0 1 .2 1 .3 1 3.4 0 6.4 1 9.2 3-2-2-5.8-3-9.5-4z" fill="#21231e"/>
        <path d="M432.7 233.3c-1-.3-2.3-.7-3.4-1.5-1.6-1.3-1.2-3.8.3-6.4.4-.8.5-2.2.2-3.5-.2-2-.7-3-1.4-4-2.4-3-3.8-5-2.6-7 .8-2 2-2 2.8-3 .3 0 .4 1 .4 2s.3 3 1 3c.6 0 1 0 2.5 1 1 0 2 1 2.6 2 1 1 1 2 1 3s1 1 0 2c0 1-1 2-2 2l-2 1c0 1 0 2 1 3l1 2z" fill="#edb92e"/>
        <path d="M429 232.2l.6-.8h.2v.2h.2l.2.2h.2l.2.2h.2l.2.2h.4v.2h.4l.2.2h.4l.2.2h.2l-.3 1h-.4v-1.6zm0-7l1 .5v.2h-1.2v1h.8l-.6 1-.2-1-.3-1h-.2l-.2-1v-3l1-1v-1l1-1v-1zm.3-3.3l1-1v1h.2v2h-.2v1h-.2l-1-1h1v-2zm-1.3-4l.7-1h.2v4h-1v-1h-1v-2zm0 0zm-2.7-8h1-.2v2h6l-1 1v-5h1zm3.8-3h1-1v1l-1-1v-1h2v-1h2zm0 0l1-1zm1 2h-1v-2l1-1v3zm1 3v1-3h1v2h2zm3 1v1h-3l1-1h2zm3 2v-1h-1v-1h-1v-1 1h3zm0 0v-1zm2 2h-1v-2l1-1h1v2zm0 3l-1-1v-2h1v3zm-2 3v-1h2v-1h1v-1h1v1h-1v1zm0-1zm-1 2l-1-1h1v-1h1l1-1v-1h1l1 1h-1zm-1-1zm1 3h-1v-4h2v3zm-1 0zm1 2l1-1v-2l1-1v2h1v1zm1-1v1l1-1zm0 0v-1zm0 0v1l1-1z" fill="#21231e"/>
        <path d="M410.6 216.4c4 0 8 3.4 8.4 7.7.6 5-2.2 8-6 8-4 0-7.5-3-8.3-7-.7-4 1.8-8 6-8z" fill="#edb92e"/>
        <path d="M419.5 224l-1 .2v-.8l-.2-.4v-.3l-.2-.4V218h-5v-1h2l1 1h1l1 1 1 .6h1v.4h2v1l1 .3v1.6h1v2zm-6.6 8.3V231h2v-7.2h1v5.2l-1 .2-1 .2v.4l-1 .5-1 .4v.2h-3zm-9-7.7l1-.2v8.7h3v1h-9v-1l-1-1v-1zm6-8.7v1h-7v3h-1v-7h3z" fill="#21231e"/>
        <path d="M411 218.6c2.8-.2 5.7 2.4 6 5.5.5 4-1.5 6-4.4 6-2.8 0-5.5-2-6-5s1.3-6 4.3-6z" fill="#edb92e"/>
        <path d="M417.6 224l-1 .2v-.6l-.2-.3v-.2H415v-2h-2.4v-1h1.7v1h.8l1 1h1v1h1v1h1v1h1v2zm-5 6.3v-1h1l.3-.2v-3h1v3l-1 1h-1v1h-1v1h-2zm0-1zm-6.5-4.8h1l1 .4v1h5v1h-1v-7zm1 0zm4-6.4v2h-1v3h-1v3h-1v-4h6l1-1h1z" fill="#21231e"/>
        <path d="M411.2 220.7c2 0 3.6 1.5 4 3.5.2 2-1 3.6-3 3.6-1.7 0-3.4-1.4-3.7-3.4-.3-2 1-3.6 2.7-3.7z" fill="#0c4076"/>
        <path d="M415.6 224l-1 .3v-.4l-.2-1v-1h-.2v-1l-.2-1-.2-1h-.2l-.2-1h-2.2v-1h1.7v3zm-3.3 4.3v-1h.7l.2-.2h1.4v-1h1v2h-.2v1h-.8v1H412zm-4.3-3.8l1-.2v.5l.2.3v1h.6l.2 1h1l1 1h.7v1H408zm2.7-3.8h1l-.5.5h-.7l-.2.2h-.2v2.7l-1 1v-3h4v1zm1 0v.5h-.5l.5-.5zm0 0h-1l.5-.5.5.5zm-1 0v-.5h.5l-.5.5z" fill="#21231e"/>
      </g>
      <path d="M482 183c4 0 7 3 7 7s-3 6.7-7 6.7c-3.6 0-6.7-3-6.7-6.8 0-4 3-7 6.8-7z" fill="#fff"/>
      <path d="M489.5 189.8h-1c0-2.3-1.4-4.6-3.5-5.6a6.3 6.3 0 0 0-3-.7v-1c2.6 0 5 1.3 6.4 3.5a7.4 7.4 0 0 1 1 3.8zm-7.4 7.4v-1c3 0 5-1.4 6-3.4a6.4 6.4 0 0 0 1-3h1c0 2.6-1 5.2-3 6.5a7.3 7.3 0 0 1-3 1zm-7-7.2h1c0 2.2 2 4.5 4 5.5 1 .5 2 .7 3 .7v1c-2 0-5-1.3-6-3.4a7.4 7.4 0 0 1-1-4zm8-7.5v1c-2 0-4 1.4-5 3.5a6.4 6.4 0 0 0 0 3h-1c0-2.7 2-5 4-6.4a7.3 7.3 0 0 1 4-1z" fill="#21231e"/>
      <path d="M482 171c4 0 7 3 7 7 0 3.7-3 6.8-7 6.8-3.6 0-6.7-3-6.7-7 0-3.7 3-6.7 6.8-6.7z" fill="#fff"/>
      <path d="M489.5 178h-1c0-2.4-1.4-4.7-3.6-5.8a6.3 6.3 0 0 0-3-.6v-1c2 0 5 1.3 6 3.4a7.4 7.4 0 0 1 1 4zm-7.4 7.3v-1c3 0 5-1.4 6-3.4a6.4 6.4 0 0 0 1-3h1c0 2-1 5-3 6a7.3 7.3 0 0 1-3 1zm-7-7.3h1c0 2.3 2 4.6 4 5.6 1 .5 2 .7 3 .7v1c-2 0-5-1.3-6-3.4a7.4 7.4 0 0 1-1-4zm8-7.4v1c-2 0-4 1.4-5 3.5a6.4 6.4 0 0 0 0 3h-1c0-2 2-5 4-6a7.3 7.3 0 0 1 4-1z" fill="#21231e"/>
      <path d="M482 159.6c4 0 7 3 7 7 0 3.7-3 6.8-7 6.8-3.6 0-6.7-3-6.7-7 0-3.7 3-6.8 6.8-6.8z" fill="#fff"/>
      <path d="M489.5 166.5h-1c0-2.4-1.4-4.7-3.6-5.7a6.3 6.3 0 0 0-3-.7v-1c2 0 5 2 6 4a7.4 7.4 0 0 1 1 4zM482 174v-1c2.5 0 4.7-1.5 5.8-3.6.4-1 .7-2 .7-3h1c0 2.6-1.4 5-3.5 6.4a7.3 7.3 0 0 1-4 1zm-7.2-7.5h1c0 2.4 1.4 4.7 3.6 5.7a6.3 6.3 0 0 0 2.7.7v1c-2 0-4-2-6-4a7.4 7.4 0 0 1-1-4zm7.3-7.4v1c-2 0-4 2-5 4a6.4 6.4 0 0 0 0 3h-1c0-2 2-5 4-6a7.3 7.3 0 0 1 4-1z" fill="#21231e"/>
      <path d="M482 127c4 0 7 3.2 7 7s-3 6.8-7 6.8c-3.6 0-6.7-3-6.7-6.8s3-7 6.8-7z" fill="#fff"/>
      <path d="M489.5 134h-1c0-2.4-1.4-4.7-3.6-5.8a6.3 6.3 0 0 0-3-.6v-1c2 0 5 1.3 6 3.4a7.4 7.4 0 0 1 1 4zm-7.4 7.3v-1c3 0 5-1.4 6-3.4a6.4 6.4 0 0 0 1-3h1c0 2-1 5-3 6a7.3 7.3 0 0 1-3 1zm-7-7.3h1c0 2.3 2 4.6 4 5.6a6.3 6.3 0 0 0 3 .7v1c-2 0-4-1.3-6-3.4a7.4 7.4 0 0 1-1-4zm8-7.4v1c-2 0-4 1.4-5 3.5a6.4 6.4 0 0 0 0 3h-1c0-2 2-5 4-6a7.3 7.3 0 0 1 4-1z" fill="#21231e"/>
      <path d="M482 137.2c4 0 7 3 7 6.8s-3 7-7 7c-3.6 0-6.7-3.2-6.7-7s3-6.8 6.8-6.8z" fill="#fff"/>
      <path d="M489.5 144h-1c0-2.3-1.4-4.6-3.5-5.7a6.3 6.3 0 0 0-3-.6v-1c2.7 0 5.2 1.4 6.5 3.6a7.4 7.4 0 0 1 1 3.7zm-7.4 7.4v-1c3 0 5-1.4 6-3.4a6.4 6.4 0 0 0 1-3h1c0 2.6-1 5-3 6.4a7.3 7.3 0 0 1-3 1zm-7-7.4h1c0 2.4 2 4.7 4 5.7a6.3 6.3 0 0 0 3 .7v1c-2 0-5-1.3-6-3.5a7.4 7.4 0 0 1-1-4zm8-7.4v1c-2 0-4 1.5-5 3.6v2.8h-1c0-2.5 2-5 4-6.2a7.3 7.3 0 0 1 4-1.2z" fill="#21231e"/>
      <path d="M482 148.2c4 0 7 3 7 6.8s-3 7-7 7c-3.6 0-6.7-3.2-6.7-7s3-6.8 6.8-6.8z" fill="#fff"/>
      <path d="M489.5 155h-1c0-2.3-1.4-4.6-3.6-5.7a6.3 6.3 0 0 0-3-.6v-1c2 0 5 1.3 6 3.4a7.4 7.4 0 0 1 1 4zm-7.4 7.4v-1c3 0 5-1.4 6-3.4a6.4 6.4 0 0 0 1-3h1c0 2.6-1 5-3 6.4a7.3 7.3 0 0 1-3 1zm-7-7.4h1c0 2.4 2 4.7 4 5.7a6.3 6.3 0 0 0 3 .7v1c-2 0-4-1.3-6-3.4a7.4 7.4 0 0 1-1-4zm8-7.4v1c-2 0-4 1.5-5 3.5a6.4 6.4 0 0 0 0 3h-1c0-2 2-5 4-6a7.3 7.3 0 0 1 4-1z" fill="#21231e"/>
      <path d="M487 195.5c1 1.6.7 2 1.4 2.4h3.4c5.3-1 4.5 2 2.2 6-1 1-3.8 3-5.2 5-1.4 1-1.6 3-2 3h-9.2c-.5-1-.7-2-2-3-1.5-2-4.2-4-5.3-5-2.4-4-3-7 2.2-6 1.3 0 2.6 0 3.4-1 0-1 0-1 1-3 0-1 1-2 2-2 1-1 2-1 2-1 1 0 2-1 2 0 1 0 1 1 2 2z" fill="#edb92e"/>
      <path d="M488.7 197.5l-.7.8-.2-.2h-1.2 1l.2 1h.2v1h.4v1h.2zm-.7.8l-.3-.3.3.3zm3.8-.4v1h-2.4l-.2-1h-1l.8-1h3.2zm2.6 6l-.8-1 .2-1 .2-1 .2-1 .2-1v-1l.3-1v-1h.2v-2h-3l-1-1h3v3h-1l-1 1h-2v1zm-5.4 5v-1l.3-1v-1h.6v-1h1v-3l1 1h-8zm-2 3v-2l.7-1h.2v-1h1v1h-1v1h-2zm.7 0zm-5 0v-1h4.8v1H483zm0-1h.3zm0 0v1-1zm0 0zm-4.6 1l1-1h4l1 1h-5zm1 0zm-2-3l1-1v2h1v2-4zm-5-5l1-1h1v1h1v1h1v1h1v1-4h-1v-1h-1v-2zm3-7v1-1h-3v1h1v1h1v1h-1v-3h-1v-2h1v-1h4zm3-1l1 1h-5v-1h4zm2-3h1v3l-1-1v-1h1v-1zm0 0l1-1zm3-3l1 1h-1l-1-1h1v-1h1l1-1v-1h1zm3-1v1h-3v-1h3zm3 0v1h-3v-1h3v1zm0 0l1 1v-1zm2 4v-2h-2v-1l1-1h4v1zm1-1l1 1h-1v-1zm0 0v1-1l1-1zm0 0v-1h1z" fill="#21231e"/>
      <path d="M481.4 212.8l-1-.2c-.4-3.7-2-7-4.3-9.6 3 1.8 5 5.7 6 9.8z" fill="#21231e"/>
      <path d="M494.2 198.3c-.5 1-1 2.4-2 3.5-1.5 1.6-4 .5-6.5-1.6-.8-.6-2.2-1-3.6-1-1 0-2 .4-3 1-2 2-5 3.2-6 1.6-1-1-1-2.4-2-3.5h3c2 .3 3 .3 4-.4 1-1 1-1 2-3l2-3c1-1 2 0 3 0s2-1 3 0l2 2c1 1 1 2 1 2h6z" fill="#edb92e"/>
      <path d="M492.6 202l-.7-.6V198l1 1v1l-1 .6v1h-1v.4h-1v1zm-7.3-1.4l.7-.7h4.7l.4-1h1l1 1h-4v-1h-2v-1zm.7-.7h.5l-.5-1zm-4-1v-1h4l-.6 1h-.2v-1H483v-1h-1zm-3 1l-.7-1h1v-1h2.3v1H479zm-7.3 1l.7-1h1.5v-2h1-5l-1-1h-1zm-1.7-4l.2 1 .3-1h.4v2l-1 1h-1v-2h-1v-2zm-.4 0l-.2-1h.6-.4zm3-1l-.2 1H470l-.2-1h2.4zm3-1l.7 1H473v-1h4v-1zm.7 1h-.5l.5-1zm.6-3v2h-1l-1-1v-1zm2-3h-3l-1-1v-1h1v-1zm3-1v1h-4v-1h2zm3 1h-4v-1h3zm0 0h-1zm2 2h-1v-1h-1v-1h-1v-1h1v1zm1 2l-1 1h-1v-2h-1l1-1v1zm-1 1h-1zm3-1v1h-3v-1h3zm3 0l-1-1v1h-2v-1h2zm-1-1l-1-1zm0 0h-1zm0-1l-1-1z" fill="#21231e"/>
      <path d="M482 211.7c4.4 0 8 3.4 8 7.7s-3.6 7.8-8 7.8-7.6-3.5-7.6-7.8 3.5-7.8 7.7-7.8z" fill="#edb92e"/>
      <path d="M483 212.8l.8-.2c.5-3.7 2-7 4.3-9.6-2 1.8-4 5.7-5 9.8z" fill="#21231e"/>
      <use width="1350" height="900" transform="matrix(-1 0 0 1 964.3 0)" xlink:href="#b"/>
      <path d="M577 293.6c2 .3 3 1.5 3 2.8 0 1.3-1 2.6-3 3a8.7 8.7 0 0 1-1.6.2c-60.8 5.2-125.7 5.2-186.5 0a8.7 8.7 0 0 1-2-.3c-2-.3-3-1.6-3-3 0-1.2 1-2.4 3-2.7a8.6 8.6 0 0 1 1-.3c60-5.2 125-5.2 186 0l1 .3z" fill="#edb92e" stroke="#21231e"/>
      <path d="M412 298.4h-.2v-.2h-.2v-1h.4v-.2.2-.2h2.3l.7-.2h3l.7-.2h3l.7-.2h3l.8-.2h3.3l.7-.2h3.8l.7-.2h.8v1.2h-3l-.6.2h-4l-1 .2h-3l-1 .2h-2v.2h3v.2h3l1 .2h4v.2h1v1.2h-4l-1-.2h-4l-1-.2h-3v-.2h-3l-1-.2h-3l-1-.2h-3l-1-.2v-.2.2zm.2-.7zm46.6-2.6v2h-23.3v-1H459zm23.3 0v1h-13v1h-9v-1h23zm24 0v2h-24v-1h24zm24 1v1h-24v-2h1l1 1h22zm24 1v1h1v1h-15v1h-10v-1h13-14v-2h17l1 1h5zm0 1zm-117 1v1-1zm93 2v-1h1v1zm-51-37v-1h4v1h-4zm0-1zm-1 0h1v1h-1v-1zm0 1zm0-1h1v1-1zm-1 0h1v1h-1v-1zm0 0zm-1 0v1h-1v-1zm0 1zm-1-1v1-1zm0 0zm-1 0h1v1h-1v-1zm0 0zm-1 0h1v1h-1v-1zm-1 0h1v1h-1v-1zm0 0zm0 0v1-1zm-1 0h1v1h-1v-1zm-2 1v-1h3v1h-2zm0-1zm0 0v1-1zm0 1zm0-1v1-1zm0 0zm-1 0h1v1h-1v-1zm0 1zm-1-1h1v1-1zm0 0zm0 0h1v1-1zm0 1zm-1-1h2v1h-1v-1zm0 0zm0 0v1-1zm0 1zm-1-1h1v1h-1v-1zm0 0h1v1-1zm-1 0h1v1-1zm0 0zm0 0v1-1zm0 1h1zm-1-1h1v1h-1v-1zm-1 0h1v1h-1v-1zm0 0zm0 0v1-1zm0 1zm-1-1h1v1h-1v-1zm-1 0h1v1-1zm0 0zm0 0v1-1zm0 1zm-4 0v-1h4v1h-4zm0-1zm-1 0h1v1-1zm0 0zm-2 0h2v1h-1v-1zm0 1zm0-1v1-1zm0 0zm-1 0h1v1h-1v-1zm-1 0h1v1h-1v-1zm-1 0h1v1h-1v-1zm0 0zm0 0v1-1zm0 1zm-1-1h2v1h-1v-1zm0 1zm0-1v1-1zm0 0zm-1 0h2v1h-1v-1zm0 0zm0 0v1-1zm0 1zm-1-1h1l1 1h-1v-1zm0 0h1v1-1zm0 0zm-1 1h2v1h-1v-1zm0 1zm0-1v1-1zm0 0zm-6 2v-1h6v1h-6v1zm0 0zm0-1v1-1zm0 0zm-9 2v-1h9v1h-9zm0 0zm0-1v1-1zm0 0zm-1 0h1v1h-1v-1zm-18 3v-1h18v1h-2l-1 1h-3v1h-12v1h-1zm0 0zm0-1h1v1-1zm0 0zm0 0v1-1zm0 1zm-26 2v-1h26v1h-5v1h-10l-1 1h-3l-1 1h-3l-1 1h-4zm0 0zm0-7v1h-2v4h3v1h-3v-4h5zm0 1zm27-4v1h-12v1h-5l-1 1h-8l-1 1v-1h8l1-1h2l1-1h18zm0 1zm0 0v-1 1zm0-1zm37-2v2h-13l-1 1h-25v-1h35zm1 1l-1 1v-1h1v1zm0 0zm1 0h-1v-1 1zm-1-1zm1 1v-1 1zm2 0h-1v-1h1v1zm0 0zm0 0v-1 1zm0-1zm16 0v1h-17v-1h15zm1 1h-1v-1h1v1zm0 0zm0 0v-1 1zm0-1zm1 1h-2v-1h2v1zm0 0zm0 0v-1 1zm0 0zm0 0v-1 1zm0-1zm2 1h-2v-1h1v1zm1 0h-1v-1h1v1zm0-1zm0 1v-1h1v1zm1 0h-1v-1h1v1zm0 0zm0 0v-1 1zm0-1zm1 1h-1v-1h1v1zm3-1v1h-4v-1h3zm1 1h-1v-1h1v1zm0 0v-1 1zm0-1zm1 1h-1v-1h1v1zm3-1v1h-4v-1h4zm0 0zm0 1v-1 1zm0 0zm2 0h-1v-1h1v1zm3-1v1h-4v-1h3zm3 0v1h-4v-1h4zm1 1h-1v-1h2v1zm1 0zm0 0v-1 1zm0-1zm4 0v1h-4v-1h4zm1 1h-1v-1h1v1zm0-1zm0 1v-1 1zm1 0h-1v-1h1v1zm4-1v1h-3v-1h3zm1 1v-1h1v1zm0-1zm0 1v-1 1zm0 0zm1 0h-1v-1h1v1zm1 0h-1v-1h1v1zm0-1zm1 1v-1h1v1zm1 0h-1v-1h1v1zm0-1zm0 1v-1 1zm0 0h1zm1 0v-1h1v1zm0 0zm2 0h-1v-1h2v1zm0-1zm0 1v-1 1zm0 0zm1 0h-1v-1h1v1zm15 0v1h-16v-1h15zm0 0zm0 1v-1 1zm0 0zm2 0h-1v-1h1v1zm1 0v-1 1zm0-1zm0 1v-1 1zm0 0zm1 1h-1v-1h1v1zm37 1v1h-38v-1h13l1 1h12l1 1h10zm0 0zm0 1v-1 1zm0 0zm26 2v1h-26v-1h6l1 1h4l1 1h1l1 1h11zm0 1zm0 6v-1h4v-3h-3v-1h1l1 1 1 1h1v2h1v4h-3zm0 0zm-27-2v-1h11l1 1h10l1 1h1v1h2v1h-27zm0 0zm0-1v1-1zm0 0zm0 0v1-1zm0 1zm-19-1v-1h3l1 1h14l1 1v1h-19zm0-1h1v1-1zm0 0zm0 0v1-1zm0 1zm-9 0v-1h8l1 1h1v1h-11zm0-1zm0 0v1-1zm0 1zm-7 0v-1h7v1h-6zm0-1zm0 0v1-1zm0 1zm-1-1h2v1h-2v-1zm0 0zm-1 0h1v1-1zm-1 0h1v1h-1v-1zm0 1zm0-1h1v1-1zm0 0zm-1 0h1v1h-1v-1zm0 0zm0 0v1-1zm0 1zm-1-1h2v1h-2v-1zm0 1zm0-1v1-1zm0 0zm0 0h1v1-1zm-1 0h1v1h-1v-1zm-1 0h2v1h-2v-1zm0 0zm0 0v1-1zm0 1zm-1-1h2v1h-1v-1zm0 0zm0 0v1-1zm-5 1v-2h5v1h-4zm0 0zm0-1v1-1zm0 0zm0 0h1v1-1zm-1 0h1v1h-1v-1zm0 1zm0-1v1-1zm0 0zm-1 0h1v1h-1v-1zm-1 0h1v1h-1v-1zm0 1h1-1zm0-1h.6v1-1zm0 0h.6zm-1 0h1v1-1zm0 0h1v1-1zm-1 0h2v1h-2v-1zm0 1h1zm0-1v1-1zm0 0zm-1 0h1v1h-1v-1zm0 1zm0-1h1v1h-1v-1zm0 0zm0 0h1v1h-.2v-1zm0 1zm-1-1h1v1h-1v-1zm0 0zm0 0v1-1zm0 1zm0-1v1-1zm0 0zm-3 1v-1h2v1h-3zm-1-1h1v1h-1v-1zm0 0v1-1zm0 0zm-1 0h1v1h-1v-1zm-1 0h1v1h-1v-1zm0 0zm-1 0h1v1h-1v-1zm0 0zm-.2 0v1h-1v-1zm0 1zm-1-1h.5v1h-1v-1zm0 0zm-1 0h1v1h-1v-1zm-1 0h.6v1h-1v-1zm0 1zm-1-1h1v1h-2v-1zm0 0zm-4 1v-1h4v1h-5zm0 2l-23 11v-1l23-12v1zm-.4-1h-.4zm22 12l-25-13 .6-1 22.4 11v1h-1zm0-1l1 1-1 1v-1zm-24 11l23-12 .4 1-22.4 11zm1 1zm-23-13l23 12-.3 1-22-12v-1zm0 1h-1 1v1z" fill="#21231e"/>
      <path d="M482 269c5.8 0 10.4 3.2 10.4 7s-4.6 7-10.3 7-10-3.2-10-7 5-7 10-7z" fill="#0c4076"/>
      <path d="M493 276h-1v-.3l-.2-.3v-.5l-.2-1v-1l-.3-1-.2-1v-2h-6v-1h9l1 1h1v1h2v1h1v1zm-11 7.4v-1h1.6l.5-.2h2l1-.2h1l1-.3h1l1-.3h1v-.3h3v-1h2v4h-2v1h-3v1h-1v1h-6zm-10.6-7.4h1v1l.2.3v.3l.2.2.2.3v1l.3 1 .2 1 .3 1 .2 1 .3 1h.3l.3 1v1h1v1h4v1h-11v-2h-1v-3zm10.7-7.4v1h-1v1.2l-1 .2v4l-1 1v1h-1v-2h1v-1h10z" fill="#21231e"/>
      <path d="M482 211.7c4.4 0 8 3.4 8 7.7s-3.6 7.8-8 7.8-7.6-3.5-7.6-7.8 3.5-7.8 7.7-7.8z" fill="#edb92e"/>
      <path d="M490.4 219.4h-1v-1l-.2-.3H488v-2h-4.5v-2h3l.4 1v1l1 1v1h1v1h1v5zm-8.3 8.3v-1h2l1-.2h1l1-.2 1-.2h3v-1h1v-4h1v9h-1v3h-2v1h-3zm-8-8.3h1v1.8l1 .3v1.7l1 .4v.7l1 .2 1 .3v.2l1 .2h1v.3h1l1 .3h1l1 .4h1v1h-2v-.4h-1v-.7h-5v-6zm8-8.3v2h-2v8h-1v-3h1v-1h10z" fill="#21231e"/>
      <path d="M482 213.7c3.3 0 5.8 2.6 5.8 5.7 0 3.2-2.5 5.8-5.7 5.8-3 0-5-2.6-5-5.8 0-3 3-5.7 6-5.7z" fill="#edb92e"/>
      <path d="M488.3 219.4h-1V218h-.2v-3h-4v-1h4l1 1h1v.7l1 .3h1v.7h1v1.4l1 1v2zm-6.2 6.3v-1h2v-.2h1v-.2l1-.2h3v-3h1v6h-1v1h-5zm-6-6.3h1v1.3l1 .3v1.2h1v.5l1 .4h1v1h1v1h2v1h-3v-5zm6-6.2v1h-1v.7h-2v2h-1v-1h1v-1l1-1h1v-1h1v-1h1l1-1h1v-1h1z" fill="#21231e"/>
      <path d="M482 215.8c2 0 3.7 1.6 3.7 3.6S484 223 482 223c-1.8 0-3.4-1.6-3.4-3.6s1.6-3.6 3.5-3.6z" fill="#0c4076"/>
      <path d="M486.2 219.4h-1v-.8h-.2v-.3l-.2-.2H482v-1h2.2v1h.3v1h.3v1h.4l.2 1v1h.4v1l.2 1v1zm-4 4.2v-1h.6v-.2h.5l.3-.2h.2l.2-.2v-.2h.2v-.2h.2v-.2h.2v-.2l.2-.2v-.2l.2-.2v-.4h.2v-1h1v1l-.2.2v.2l-.2.2v.2l-.2.2-.2.3-.2.2-.2.2h-2.5zm-4-4.2h1v1.3l.2.2h2.6v1h-1v-1h-1v-1l-.4-1v-1zm4-4v1h-1l-.2.2h-.2l-.2.2h-.2v.2h-.2l-.2.3-.2.2-.2.2-.2.3v.4h-.2v1h-1V218l.2-.2.2-.3v-.2l.2-.2h2.6z" fill="#21231e"/>
    </g>
    <path d="M314.6 301.2v271.3c0 48.5 18.8 92.6 49.2 124.6C394 729 436 749 482 749c46.3 0 88.2-19.8 118.5-51.7 30.4-32 49.2-76 49.2-124.5V301.2h-335z" fill="#c6363c"/>
    <path d="M313.4 300v277l.2 4.6.3 4.5v25l1 5 1 4 1 5 1 4 1 4 1 5 1 4 2 4 1 4 1 4 2 4 2 4 2 4 2 4 2 4 2 4 2 4 2 4 2 3 3 4 2 3 3 3 3 3 3 3 2-1-3-3-3-3-3-3-3-3-2-3-3-3-2-3-2-4-2-3-2-4-2-3-2-4-2-4-2-4-2-3-2-4-2-4-2-4-1-4-1-4-1-4-1-4-1-4-1-4-1-4v-4l-1-4-1-5v-4l-1-4V303h334v274l-1 4.5-1 4.4v4l-1 4-1 4v4l-1 4-1 4-1 4-1 4-1 4-1 4-1 4-2 4-2 4-2 4-2 4-1 4-2 4-2 3-2 3-2 4-3 3-2 3-3 3-3 3-2 4-3 3-3 3-3 3-3 3-3 3-3 3-3 2-3 2-3 2-3 2-3 2-3 2-3 2-4 2-4 2-3 2-4 2-4 2-4 1-4 2-3 2-4 1-4 1-4 1-4 1-4 1-4 1-4 1-4 1-5 1h-4l-4 1h-18v2h13l5-1 4-1 4-1 4-1h4l5-1 4-1 4-1 4-1 4-2 4-2 4-2 4-2 4-2 3-2 3-2 4-2 3-2 4-2 3.2-2 4-3 3-2 4-3 3-2 3-3 3-2 3-3 3-3 3-3 3-3 2.7-3 3-3 3-3 3-4 3-3 2-3 2-4 2-4 2-3 2-4 2-4 2-4 1-4 1-4 1-4 2-4 2-4 1-4 1-5 1-4 1-5 1-5 1-5 1-4 1-4v-4l1-5v-12l1-4V300z" fill="#fff"/>
    <g fill="#fff" stroke="#21231e">
      <path d="M483.7 734.8c1.4-.2 4 0 5.7-1.4 2.5-2 1.5-9.8 1.3-14.8-1-25.3-2.2-68-3.5-128-2-.2-3.6 0-5 .2-1.5-.3-3-.4-5 0-1.4 59.8-2.5 102.5-3.6 127.8-.2 5-1.2 13 1.3 14.8 1 1.5 4 1 5 1.4h3z"/>
      <path d="M499.6 734c-1.5 0-4 .5-6-.8-2.6-1.7-2.8-9.7-3-14.7-1.2-25.4-3.5-67.8-7.6-127.6 2-1 3.6-1 5-1h.7c9.6 59 13.3 101 19.7 126 1 3 2.8 12-.2 15-1.7 1-4.2 1-5.6 2h-3z"/>
      <path d="M518.2 731.4c-1.5 0-3.8.8-6-.3-2.7-1-2.6-9-3.8-14-6.6-25-10.2-67-19.7-126 2 0 3.6-1 5-1h.2c15 58 19 98 31 123 1 4 4 13 1 16-2 2-4 2-6 3l-3 1z"/>
      <path d="M537 726c-1.5.3-4 1.6-6 .7-3-1.2-3.5-9.7-5.6-14.2-11.8-25-16.3-66-31.7-124 2-.8 3.5-1 5-1.3 1.3-.6 1-1 3-1.2 18 57.3 23.7 97 40.5 121.8 2.7 4 4.7 12 3 14.5-1.5 2-4 2.3-5.3 3l-3 .8zm-72.2 8c1.4 0 3.8.5 5.8-.8 2.7-1.7 3-9.7 3-14.7 1.3-25.4 3.6-67.8 7.7-127.6-2-1-3.6-1-5-1a25.4 25.4 0 0 0-.7 0c-9.6 59-13.2 101-19.6 126-1 3-3 12 0 15 1.4 1 4 1 5.3 2h3z"/>
      <path d="M446 731.4c1.6 0 4 .8 6-.3 2.8-1 2.7-9 4-14 6.4-25 10-67 19.6-126-2 0-3.6-1-5-1h-.3c-15 58-19.6 98-31.4 123-2 4-5 13-2 16 1 2 4 2 5 3l3 1z"/>
      <path d="M427.3 726c1.5.3 4 1.6 6 .7 3-1.2 3.5-9.7 5.6-14.2 11-25 16-66 31-124-2-.8-4-1-5-1.3-2-.6-1-1-3-1.2-18 57.3-24 97-41 121.8-3 4-5 12-3 14.5 1 2 4 2.3 5 3l3 .8zm99.7-43c-1.3 0-3.3 1-5.4 0-2.8-1.4-4.6-9-6-14-12-23.5-23-65.3-40.8-123.4 1.8-.7 3-1 4.5-1 1-.5 2.4-1 4.3-1.2 19.3 57.5 28 99 46.7 122 3 3.8 5.4 12 4 14.4-1.2 1.8-3.4 2-4.6 2.6l-2.7.6z"/>
      <path d="M512 685.8c-1.5 0-3.6.6-5.6-.5-2.6-1.6-3.5-9.4-4.5-14.3-5-25-14-67-27-126 2-.7 3-.8 4-.8 1-.4 2-.8 4-.8 15 58.7 18 102.6 32 125 2 4.2 4 12.5 2 14.8-2 1.7-4 1.7-5 2.2l-3 .4z"/>
      <path d="M496.4 687.6c-1.4-.2-3.5.3-5.4-1-2.4-1.7-2.4-9.6-2.8-14.6-2-25.3-6-68-11.6-127.6 2-.5 3.3-.4 4.6-.3h4.5c8 60 12.8 103 18 127 1 5 2.4 13 .4 15-1 2-3 2-5 2h-2z"/>
      <path d="M437.2 682.8c1.4 0 3.4 1 5.5 0 2.8-1.4 4.6-9 6-14 12-23.5 23-65.3 40.8-123.4-1.8-.7-3-1-4.5-1-1-.5-2.4-1-4.3-1.2-19.3 57.5-28 99-46.7 122-3 3.8-5.4 12-4 14.4 1.2 1.8 3.4 2 4.6 2.6l2.6.6z"/>
      <path d="M452.4 685.8c1.4 0 3.5.6 5.5-.5 2-1.6 3-9.4 4-14.3 5-25 13-67 26-126-2-.7-3-.8-5-.8-1-.4-3-.8-5-.8-15 58.7-19 102.6-33 125-3 4.2-4 12.5-2 14.8 1 1.7 3 1.7 4 2.2l2 .4z"/>
      <path d="M468 687.6c1.3-.2 3.4.3 5.3-1 2.4-1.7 2.4-9.6 2.8-14.6 2-25.3 6-68 12-127.6-2-.5-3-.4-4-.3h-5c-8 60-13 103-18 127-1 5-2 13 0 15s4 2 5 2h3z"/>
      <path d="M483.5 688c1.3 0 3.5.2 5.2-1.3 2.3-2 1.4-9.8 1.2-14.8-2-26-2-68-4-128-2-1-3-1-5 0-2-1-3-1-5 0-1 60-2 102-3 128 0 5-1 12 1 14 1 1 4 1 5 1h2z"/>
      <path d="M516.5 648c-1 0-2.5 1-4 0-2.3-1.5-3.7-9.2-4.8-14-9.2-23.5-17.5-65.4-31.2-123.5 1.4-.7 2.4-1 3.4-1 0-.5 1-1 3-1 14 57.4 21 99 35 121.8 2 3.8 4 12 3 14.5-1 1.8-3 2-4 2.5l-2 .7z"/>
      <path d="M505 651c-1 0-2.7.6-4.3-.6-2-1.5-2.7-9.4-3.4-14.3-3.7-25-10.5-67-20-126h3.4l3.4-1c12 59 14 103 25 125 2 4 3 13 2 15s-2 2-3 2l-2 1z"/>
      <path d="M493 652.7c-1 0-2.6.4-4-1-2-1.7-2-9.6-2.2-14.5-1.5-25.4-4.5-68-9-127.7 1.5-.4 2.6-.4 3.6-.3 1-.3 2-.6 3.5-.4 6 59.6 9 102.7 13 127 0 5 2 12.8 0 15-2 1.5-3 1.4-4 1.7l-2 .2z"/>
      <path d="M447.8 648c1 0 2.5 1 4 0 2.3-1.5 3.7-9.2 4.8-14 9.2-23.5 17.5-65.4 31-123.5-1.2-.7-2.2-1-3.2-1-1-.5-2-1-3.4-1-14.7 57.4-21.3 99-35.7 121.8-2.4 3.8-4.2 12-3 14.5.8 1.8 2.5 2 3.4 2.5l2 .7z"/>
      <path d="M459.4 651c1 0 2.6.6 4-.6 2.2-1.5 3-9.4 3.6-14.3 3.7-25 10.5-67 20-126h-3.4l-3.4-1c-11.4 59-14 103-24.8 125-2 4-3 13-1.7 15 1 2 2.7 2 3.6 2l2 1z"/>
      <path d="M471.3 652.7c1 0 2.6.4 4-1 2-1.7 2-9.6 2.2-14.5 1.5-25.4 4.5-68 9-127.7-1.5-.4-2.6-.4-3.6-.3-1-.3-2-.6-4-.4-6 59.6-10 102.7-14 127-1 5-2 12.8-1 15 1 1.5 3 1.4 4 1.7l2 .2z"/>
      <path d="M483.2 653.2c1-.2 2.7 0 4-1.4 1.7-2 1-9.7 1-14.7-1-25-1.6-68-2.5-128-1.5 0-2.6 0-3.6 1h-3c-1 60-1 103-2 128 0 5-1 13 1 15 1 2 3 1 4 2h2z"/>
      <path d="M475 559c-.2 4.4-.3 9-.3 14l-10.6 2.3c0 4.8 12 55.4 18 55.4 7 0 19-50.6 19-55.5l-10-2V559c-2 2-4 5.2-7 8-2-2.8-5-6-7-8z"/>
    </g>
    <g id="d">
      <path d="M412 584.5c-3 .2-7 2-18.5 12-5 10.2-10 20.5-17 29.4-2.4 1-4.2 2-6 3-2 0-16.6 0-17-1-4.4-4-11.3-1-9 3-1.8 1 2.2 8 5.3 5 3-3 13-1 16.4-2-1.3 3-10.4 5-16.8 5-5.8 0-5.4 6-3 10 2.7 2 .5-1 1.4 1 2.6 4 8.2 3 8.4-1 .2-4 13.8-9 15.8-12-2.5 6-8.2 11-11 17-3 3-5 3-1 10 4.4-1 4.6-2 7.3 1 6-1 7-3 6-7-1-5 3.2-14 4.6-17 1-3 1-5 2-6 2-3 12-8 15-7 5 3 8 1 9-4-2-1-1-8-4-8s-5 1-7 3c-4 3-6 5-8 5-3-1 6-5 14-15 11-15 12-22 11-27z" fill="#edb92e" stroke="#21231e"/>
      <use width="1350" height="900" transform="matrix(-1 0 0 1 801.6 0)" xlink:href="#c"/>
      <path d="M345.2 634.5c-4-2.3-6.3-2.2-8-.5-.7 1-1.8.5-1.2-1 2.7-6.3 7-7 10.7-4.2l2.8 2.7c-.6 1-3.8 2.3-4.3 3zm57.4-5.6c4.3-3 8.3-4 10.5-2 2 1 3 0 2-2-4-6-9-7-13-3l-2 3 5 3zM369 664c.2-.2-1-5.4-2.6-7-1.4 1-3 2-4.3 3.5-4 4.4-4 11 3 16.6 2 2 3 0 2-1-1-3 1-6 3-11zm-16.4-13c-4 1.6-5.4 3.7-5.2 6.4 0 1.5-1 2-1.5.3-5-11.2 0-13.3 7-13 0 2-1 6.2-1 6.2z" fill="#edb92e" stroke="#21231e"/>
      <path d="M384 621.3l1 .6h-.2v1h1l-1 1-.7-1v-4l1-1zm6.5.8l-.8 1H386v1l-1-1h4v2zm-3.2-4l1 1v1h-.2v1l1 1v1h2v1-5zm6.5 1l-.7 1h-1v1h-1 1v-1h3v1h1v1l1 1h1zm-2.8-6l1 1h-.2v1h-.2v1l.2 1v1h.2v1h.2l.2 1h1.6l-.6 1h-.3v-7zm7 1l-.8 1H390l-1 1v1l-1-1v-1l.6-1v-1h2v1h1v1l.5 1h1v1h1l1 1zm-3.2-6l1 1v1l-.2 1v2l.2 1h2l-1 1-1-1h-1l-1-1h-.5v-1h-.6v-3zm7.6 2l-1 1H392l-.8 1v1l-1.4-1v-1l1-1h3v1h.4v1h.7v1h1v2zm-3.4-7l1.2 1h-.4v2h2.7l-.8 1-.3-1h-.2l-.3-1h-3v-1l-1-1v-2zm7.7 2l-1 1h-.2l-.3-1h-.2l-.3-1-.3-1h-.2l-.2-1-.3-1h-.4l-.2-1h-1v2l-1-1h1v-1h3l1 1h1v1h1l1 1v1h1z" fill="#21231e"/>
      <path d="M462.6 580.6l-9.5-5.4c-4 3-6 13.5 0 22.2 9 11 12 18.7 14 27.5 7-8 9-17 5-25-5-11-8-17-9-20z" fill="#fff" stroke="#21231e"/>
      <path d="M470.4 573l-9.5-5.4c-4 3-13 13.2-6 22 8 10.8 17 19 19 27.7 6-8 9-16.2 5-24.4-6-11-10-18-10-20z" fill="#fff" stroke="#21231e"/>
      <path d="M449.4 569.2l-9.5-5.4c-4 3-7 13.5-1 22.2 8 10.8 12 18.7 14 27.5 6-8 8-16.3 4-24.4-6-11-9-17-9-19z" fill="#fff" stroke="#21231e"/>
      <path d="M405.5 469c.2 8.7-1.4 66.5-1.8 74.7-.5 8.2-4 13.7-8 17-3.5-5-5.6-11.5-6-19.3-.4-4 .4-58.7.7-70 6.4-17 11.2-17.8 15-2.4z" fill="#fff"/>
      <path d="M404 543.8h-1l.2-1v-2.6l.2-1.7v-4l.2-2.3v-5l.2-2.7v-2.8l.2-3v-3l.2-3v-6.2l.2-3v-6.2l.2-3v-5.8l.2-2.7v-7.4l.2-2V469h1v11.7l-.2 2.5v8.3l-.2 2.8v6l-.2 3.2v3l-.2 3.2v6l-.2 3v3l-.2 2.8v5.3l-.2 2.5v2.3l-.2 2v3.6l-.2 1.5v2zm-8.7 17l.8-.5 1-.4 1-1 1-1 1-1 1-1v-1l1-1 1-1 1-1 1-1h1v-1h1l1-1v-1l1-1v-1h1v-1l1-1v-3l1-1v-1h1v4l-1 1v5h-2v3l-1 1-1 1h-2v1h-1zm.7.2l-.4.3-.3-.4h.7zm-7-19.5h1v.6l.2 1v2l.2 1v1l.2 1v1l.3 1v13l-1 1-1-1h-2v-2l-1-1h-3v-1h-1v-1h-1v-10zm1-70.2l.8.3v8l-.2 2.3v10l-.2 2v12l-.2 3v19l-.2 2v11h-1v-21l.2-3v-14l.2-3v-11l.2-3v-9l.2-2v-4zm0 0zm16-2.3h-1l-.4-1.3-.3-1.3-.4-1-1-1.2-1-1-1-1-1-.7-1-.8-1-.6h-2l-1 1-1 1-1 1-1 1-1 1v1l-1 1-1 1v1l-1 1-1 1-1 1v2l-1 2h-1v-1l1-1v-2l1-1 1-1 1-1v-1h1v-1l1-1h4v3l1 1 1 1v4l1 1v3zm0 0z" fill="#21231e"/>
      <path d="M368 454.8l-2.6 79.6c-.8 7 8.4 49 13.5 57.4 12-5.3 15-33.8 12-61.6-3-27.8 0-51.8 2-56.8 0-6.3-1-12.8-1-19.3-8 1-17 1-25 1z" fill="#fff"/>
      <path d="M365 534.4l2.4-79.6h1l-2.5 79.6h-1zm1 0zm12.7 57l.3.8-.6-.2-.5-1-1-1-1-1.2-1-1.4-1-1.6-1-1.6-1-1.8-1-2-1-2-1-2-1-2.2-1-2.2-1-2.3-1-2.3-1-2.3-1-2-1-2-1-2-1-2-1-2v-4l-1-2v-2l-1-1v-2l-1-1v-6h1v18l1 2v6l1 3 1 2v3l1 2v2l1 3v2l1 2 1 2 1 2v2l1 2 1 1 1 1v3l1 1zm.3.8l-.4.2-.2-.4.6.2zm12-62h1l.3 2.5v2.7l.3 2.6v2.6l.2 2.6v12.5l-.3 2.4-.2 3-.2 3v17l-1 2v2l-1 2-1 2v2l-1 1-1 1-1 1-1 1-1 1-1 1v-1h2l1-1 1-1 1-1 1-1 1-1 1-1 1-1 1-1 1-1 1-2 1-2 1-2v-2l1-2 1-2v-6l1-3v-30zm2.4-56.8h1v.2l-.2.5-.2 1-.2 1-.2 1-.2 1-.2 1-.2 1v1l-.3 2-.2 2-.2 2v2l-.3 2v2l-.3 2v2l-.2 2v2l-.2 2v21l.2 3 .2 2 .2 3v3h-1v-3l-1-3v-53zm1 0v.2-.2zm-1.5-18.8v-1 19.8h-1v-11l-1-.4v-8 1zm0-1v.4l-1-.4zm-25 1.2h-1v-.5h4v-.2h21v1h-20l-1 1h-3zm-1 0v-.4l-1 .4zm0 0h-1zm-1 0v-.4l-1 .4z" fill="#21231e"/>
      <path d="M353 468l1.8 79.5c-.4 7 11 48.5 16.4 56.5 12.6-9.8 10-49.8 8.2-62-4-24-3.2-52-2-56.5 0-6.3-.2-13.8-.6-20.4l-23.7 3z" fill="#fff"/>
      <path d="M354.3 547.5l-1.7-79.6 1-1 1.7 79h-1zm1 0zm15.6 56v1l-1-.2-1-1-1-1-1-1.2-1-1-1-1-1-1-1-2-1-2-1-2-1-2-1-2-1-2-1-2-1-2-1-2-1-2-1-2-1-2-1-2-1-2-1-2-1-2-1-2v-4l-1-1v-2l-1-1v-5h1v22l1 2 1 2v3l1 2v5l1 3 1 2 1 2 1 3 1 2v6l1 2v4h-1zm0 1l-1 .2-1-.4zm8-62.5l1-.2V571l-1 2.5v5l-1 2.3-1 2.4-1 2.2-1 2.2-1 2v2l-1 2-1 2-1 1.7-1 1.7-1 1.5-1 1.2-1 1-1 1-1-.7 1-1 1-1 1-1.6V598l1-2 1-2v-2l1-2v-2l1-2 1-3 1-2v-34l-1-2v-5zm-2-56.7h1v.6h-1v53h-1l-1-3v-4l-1-3v-47zm1 0zm-2-20v-1 19.2h-1v-5l-1-.8v-13 .3zm0-1v.6l-1-1zm-24 4v-1l1-.2h23v1h-2l-1 1h-6l-1 1h-4l-1 1h-8zm0 0zm0-1v1l-1-.6v-.6zm-1 .4v-.6l-1 1z" fill="#21231e"/>
      <path d="M342.2 486.7l21-.5c-2 8.6-.5 35.6 3.2 56.2 3.3 19.3 8 69.3-12 81.3-12.5-26.4-3-52-9.2-75-5-24.3-6-44.6-3-62z" fill="#fff"/>
      <path d="M363 486.7l-20.8.5v-1l21-.5.4.6-.5.4zm0-1h.7v.6l-.6-.6zm3.8 56.6l-1 .2-.3-2-.3-2-.3-2-1-2-1-2v-2l-1-2.2V524l-1-2v-8l-1-2v-26l1 .5V543zM354 624l.8-.6-.7-.2 2-1.2 2-1.4 2-1.6 2-1.8 2-2 1-2 1-2.3 1-3 1-3 1-3 1-3 1-3 1-3 1-3 1-3v-46h1v6l1 2v2l1 3v2l1 3v41l-1 2v4l-1 2-1 2-1 2-1 2-1 2-2 1-1 1-1 1h-1zm.7 0l-.5.4-.3-.5zm-10-75.2l1-.2.5 2.2.4 2.2.4 2.2.3 2.2.3 2.2.2 2.3v2l.2 2v25l.2 2v2l.3 2 .3 2 .3 2 1 2 1 2 1 3 1 2 1 2 1 2 1 2 1 3h-1l-1-3-1-3v-2l-1-3-1-3v-61zm0 0zm-2.5-62.6v1l.5-.4-.3 1.6-.2 1.7-.2 2-.2 2-.2 2v2l-.3 2v4l-.2 2v8l1 2v11l1 2 1 2v5l1 2 1 3v2l1 3 1 2v2l1 2h-1v-11l-1-2v-49l1-1 1-1zm-.5.4v-.4h.5l-.5.4zm.5 0v-.4.5zm-.5 0v-.4h.5l-.5.4z" fill="#21231e"/>
      <path d="M422 454.4c0 8.7-3.2 66.5-4 74.6-.7 8-4.5 13.6-8.4 16.6-3.4-5-5.3-11.5-5.5-19.3 0-4 3-58.7 3-70 7-17 12-17.4 15-2z" fill="#fff"/>
      <path d="M418.5 529h-1v-1l.2-1v-1.5l.2-1.7V455h1v10l-1 3v5.8l-1 2.6v2.7l-1 3v15l-1 3v9l-1 3v6l-1 3v11zm-9.3 17l.8-.6-.7-.2.4-.2.3-.3.4-.4.3-.3.4-.3 1-.4 1-.3 1-.4 1-.4 1-.4 1-.5 1-.4 1-1 1-1v-1l1-1v-1l1-1v-1l1-1v-1l1-1v-1l1-1v-4h1v8l-1 1v4h-1v1h-6zm.7 0l-1 .4-1-.5zm-7-19.7h1V546l-1 .5-1-.5v-4l-1-1v-1l-1-1v-1l-1-1v-1l-1-1v-2l-1-.4v-.7l-1-1v-4l-1-1v-1l-1-1v-1zm3-70l1 .3v-.2 10.2l-1 2.4v8l-1 3v9l-1 3v9l-1 2.8v2.8l-1 2.8V527h-1v-70.7zm0 0zm16-2h-1v.2l-1-1.4-1-1-1-1-1-1-1-1-1-1v-1h-4l-1 1-1 1-1 1-1 1-1 1-1 1-1 1-1 1-1 1v2l-1 1-1 1-1 2-1 2-1-1 1-1 1-1 1-1 1-1v-4l1-1v-1h4l1 1 1 1 1 1 1 1 1 1 1 1v2l1 1v2l1 2v2zm0 0zm-1 0h-1zm0 0z" fill="#21231e"/>
      <path d="M385 407.2c-.6 18.7-1 59-.8 62.6.3 7.8 3.4 17.6 6.7 22.6 4-3 7-8.5 8-16.6 0-6.7 1-39.5 1-56-5-2.6-9-6-12-9.7l-3-2z" fill="#fff"/>
      <path d="M384.7 469.8h-1v-23.4l.2-2.4v-36.8h1v34.6l-1 2.4v25.4zm6 22.2l.5.8h-.7l-.3-.6-.3-.5-1-.6h-4v-1h-1v-1l-1-1-1-1-1-1-1-1-1-1h-1v-7l-1-1v-3h1v11l1 1v14zm.5.8l-.4.3h-.3.7zm7.7-17h1l-1 .8v2.5l-1 1v2l-1 1v1l-1 1v1l-1 1v2l-1 1-1 1v1l-1 1h-1v1h-1l-1 1v1l-1 1v1l-1 1-1 1h-1l-1-1h4v-11h1zm1-55.5v-.8V475h-1v-55.7.3zm0-.8v.4-1zm-13-9.8v1-1V420h2v1h2v2h1v1h-1l-1-.6h-1l-1-.5v-1l-1-1v-1l-1-1-1-1h-1l-1-1-1-1h-1v-1l-1-1-1-1h-1l-1-1v-1zm-1 .8l-1-.8h1l-1 .8zm-3-3.3h-1l1-.3h2v1-1l-1 1v-1h-1v-1h-1v-1h-1v-1h-1l1-1zm-1 0v-1.4l1 1-1 .4z" fill="#21231e"/>
      <path d="M400 419.3c-.4 20-.2 51.7 0 54.3 0 7.7 2 14.3 5.4 19.3 4-4 8-9 8.8-17 .5-5 2-27 2-43-5.3-2-12-11-16.3-14z" fill="#fff"/>
      <path d="M400.4 473.5h-1v-13l-.2-1.6v-34l.2-2v-4h1v14l-.2 2v37h.2zm4.7 19l1 .8V487h-1v-12.4h1v2.6l1 .7v4l1 1v2l1 1 1 1v3h1zm1 .8v.3-.4h1zm8-17.3h1v12h-2v.8l-1 .4v.8-1h2l1-.4v-1h1v-1l1-.5h1v-1h1l1-1h1l1-1v-2l1-1v-5zm3-42.3l1-1 1 .5V478h-1v-2l1-1v-16l1-1.5v-7l1-1.4v-15l1 1zm1-1h1v.5-.5zm-16-13.4h-1l1-.4h12l1 1h4v1l1 1h2v1-1h-1v-2h-1v-1h-2v-2h-1l-1-1v-1l-1-1v-1h-1v-6h-1l-1-1h1zm-1 0v-1l1 .6z" fill="#21231e"/>
      <path d="M387 405.6L373 385c-2.8 10.2-6.3 82.8-2.2 88.8.2 7.7 3 14.3 6.4 19.3 4-3 9.8-8 8-16-1.6-8 .4-62 2-70z" fill="#fff"/>
      <path d="M373.3 384.7l14.2 20.6-.8.5-14.3-20.5v-.4l1-1zm-1 .2l.4-1h.5-.8zm-1.3 88h-1 .7l-.5-1-.3-1-1-2v-1l-1-2v-83h1v4l-1 2v4l-1 2-1 3v11l-1 4v7l-1 4v12l-1 3v20l1 2v10zm0-1zm6 19l.8 1h-.7v-21h1v4l1 1v1l1 1h2v1h1l1 1v3l1 1v1h1v1h1v1zm.8 1h-.4l-.3-1h1zm7.4-17h1v5h-.7l-.3 1H384v4h-1v1h-.3l-1-1 .6-1h.8l1-1v-1l1-1 1-1 1-1v-1l1-1v-1h1v-5zm2-70v-1h.7l-1 1v2l-1 2-1 2v15l-1 2v6l-1 3v37h-1v-1l-1-1v-67 1zm0-1h.8l-.6-1zm0 0v1l-.2-1 .4-1zm0 1v-1h.2z" fill="#21231e"/>
      <path d="M358 451.2c-.8 11.3-1.2 19-1 23 .2 7.6 2 14.2 5.5 19.2 4-3 9-8.5 8.4-16.6-2-31.5 1-61 5-89.6-4-2.5-9-5-13-7.6-7 38.3-9 62-6 71.6z" fill="#fff"/>
      <path d="M357.4 474h-1v-7.4l.2-.7v-3l.2-1v-3l.2-1v-2l.2-1v-3l.2-1h1v2l-.2 1v2l-.2 1v3h-.2v3h-.2v4h-.2v4zm4.8 19l.6.8h-.7V474h1v3l1 1v2l1 .6v2.2l1 .3v3l1 1 1 1v2l1 1v1l1 1v1l1 1h-1zm.6.8l-.4.3h-.3 1zm7.6-17h1v3.7l-.3.7v12l-1 1v3h-1l-1-1h2l1-1h3l1-.4v-4.2l1-1 1-.2v-4l1-1v-3zm5.7-89.2l1-.8V478h-1v-44l1-2v-9l1-3v-3l1-2 1-2 1-3v-10.6l1-3v-3l1-3v-3 .3zm1-.8v.5-.5zm-12-7l-1-.3 1-.3 1 .2 1 .2 1 .3h16v1-1h-2v-2h-2v-2l-1-1h-3v-1h-2l1-1zm-1-.3v-.8l1 .5-1 .3zm-6 71.4h1-1v-15l1-2v-4l1-2v-4l1-3v-4l1-2 1-3 1-3 1-3 1-3 1-3 1-3 1-3 1-3 1-4v-4l1-4h1v7l-1 3-1 3v3l-1 3v32l-1 2v16l1 1-1-1zm1 0v-1h1zm0 0v-1h1zm0-1l1-1v1l-1-1z" fill="#21231e"/>
      <path d="M343.6 471.8l4 14.7c.2 7.7 5 14 8.3 19 4-3 7-8 6-16-6-46.5-4-77.3 6-115-22 15-33 46.6-25 97.3z" fill="#fff"/>
      <path d="M347 486.6l-3.8-14.7 1-1 3.8 15h-1zm1-.3zm7.6 19l.6.7h-.7l-.3-.6-.3-.5-1-1-1-1-1-1-1-1-1-1-1-1-1-1-1-1-1-1v-1l-1-1-1-1-1-1v-1l-1-1v-1l-1-1h-1v-1l-1-1-1-1v-4h1v6l1 1h1v2h1v3h2v1h-1zm.6.7l-.4.3-.3-.4h.8zm5.8-16.5h1v5.5l-.2.6v.7l-.3.6H360v3-1l1-1h1l1-1v-1h1v-1l.7-1h.3l.3-1v-1h.6v-9zm6.8-114.7l-.6-1 .8.7-1 3.5-.8 3.5-.8 3.4-.7 3-.7 3-.7 3-.6 3-.6 3v62l1 4 1 4 1 4 1 4 1 4 1 4h-1v-25l-1-4v-25l1-4v-13l1-4v-4l1-3v-3l1-3 1-4 1-4 1-4 1-3 1-4 1-4 1-4 1-4h1zm-.6-1l1-.6-.2 1.3-.8-.6zm-24 98h-1l-.7-4.6-.5-4.6-.5-4.5-.3-4-.3-4-1-4v-34l1-3 1-3 1-3 1-2 1-2 1-2 1-2 2-2 1-2 1-2 2-2 2-2 2-1 1-2 2-1 2-1v1l-2 2-2 2-2 2-2 2-2 2-2 2-2 2-2 2-1 3-1 2-2 3-1 2-1 3-1 3-1 3-1 3-1 3-1 3-1 4-1 3-1 4v4l-1 3v32l1 5zm-1 0zm.4 0h.5zm-.4 0z" fill="#21231e"/>
      <path d="M344.8 486.2l-20.3-6.7c-2.5 20.2 1.4 45.6 7 79 4.6 29 2 51.6-1.5 66.2 21.6-3 30.7-30.7 20-83-3-13.7-5.8-31.3-5.2-55.5z" fill="#fff"/>
      <path d="M324.7 479l20.2 6.7-1 1-20-6.7-1-.6v-.4zm-.6.4v-.6l1 .2v.4zm8 79l-1 .3V487l1-2v-4l1-2h1v23l1 2v6l1 2v2l1 2v2l1 3v12l1 3 1 3 1 3 1 3 1 3 1 3 1 3 1 3zm-2 65.8v1-.6l1-1.4 1-1.4 1-1.5 1-1.5 1-1.6 1-1.6 1-1.7v-2l1-2v-8l1-2v-37l-1-3v-3l1-1 1 2 1 2v5l1 2v2l1 2v43l-1 1v4-1zm0 1v-.6l1 .6zm20-83.5l1-.2 1 5 1 4.6 1 5 1 5 1 5 1 4v4l1 4v30l-1 2-1 2-1 2-1 2-1 2-1 2-1 2-1 2-1 1-1 1-1 1-2 1-2 1h-4v-1h2l2-1 2-1 2-1 2-1 2-1 2-1 1-2 1-1 2-2 1-2 1-2 1-2 1-2 1-2v-2l1-2 1-3 1-3v-32l-1-5-1-4-1-4-1-5zm-5-55l1-1 1 .5v22.6l1 1.8v3.6l1 1.7 1 1v6l1 1v5l1 1 1 1 1 1 1 1 1 1v2h-1l-1-1v-1l-1-1v-1l-1-2v-28l-1-2v-19l1 1zm1-1l1 .2v-1z" fill="#21231e"/>
      <path d="M343.6 584h1v.7h-.8v-.2h-.2v-.4zm-4.3-40l1-.4.4 1.2.2 1.2v41h-1v-17l-1-1.5v-1l-1-1.3v-6l-1-1.3v-2l-1-2v-2l-1-1v-3l-1-1v-2zm-5.5-50.4h1.2v6.4l.2 1.5v3.3l.2 1.5v1.6l.2 1v1l.3 1v27h-1l-1-2-1-2-1-2v-1l-1-1v-1l-1-2-1-2-1-2v-8l-1-2-1-2v-1l-1-2v-2l-1-2v-7l-1-2v-8zm1.2 0h-1.2v-.2h.2v-.2h.2v-.2h.8v.2h.2v.4z" fill="#21231e"/>
      <path d="M344 367.3l13.2 2.2-4.6 23.3c-5 24.3-8.2 53-4.5 84.2 2 11.7 4 21.2 8 28.5-14-1.6-24-15.8-22-40.6-2-29-1-52 4-70 2-5 6-24 8-29z" fill="#fff"/>
      <path d="M357 370l-13-2.3v-1l13.3 2.3.4.6-.6.4zm.3-1h.5v.6l-.5-.6zm-4.2 24l-1-.3 1-.3V389l1-.7v-1l1-.7v-1l1-.7v-1l1-1v-2l1-1v-1l1-1v-8l1-1v-1l1-1v-1h1v21zm-4 84h-1v-34l1-2.7V432l1-2.8V427l1-2.7v-2.6l1-2.6 1-2 1-2v-5l1-2 1-2 1-2v-2l1-2 1-2v-3h1v2l-1 3v11l-1 3v57l1 3v3l1 3v3zm7 29v-1 .8V483l-1-1v-4h1v1l1 1v1l1 1v5l1 1v13l1 1v2l1 1 1 1v1.8l1 1v1l-1 .7zm1-.7l1 .8h-1 1zM333 465l1-.2v8.8l.2 2v4l.7 1.8v7.7l1 2v2l1 2 1 2v2l1 1 1 1v2l1 1 1 1 1 1 1 1 1 1 1 1 1 1 1 1 1 1h1l1 1h1v1h-2l-1-1-2-1h-1l-1-1h-3l-1-1-1-1-1-1-1-1-1-1-1-1-1-1-1-1-1-1-1-1-1-1-1-2-1-2-1-2-1-2-1-1v-17zm1-.2zm2.3-69.4l1 .3-.5 1.6-.4 1.7-.6 1.7-.3 1.7v1.8l-.3 1.8-.2 1.8-.2 2v3.8l-.3 2v2l-.4 2V441l1 2.4v10l1 2.3 1 2.6v2.6l1 2h-1v-38l1-2v-2l1-2v-8l1-2 1-2 1-2 1-2v-4l1-2v-2l1-2zm8.3-28.6v1l.7-.3-.4.4h-2v2l-1 1v3l-1 1-1 1v1l-1 1-1 1-1 1v2l-1 1-1 1v1l-1 1-1 1v6h-1v-1l1-1v-2l1-1v-8l1-1v-14zm-.2.2l.3-.3h.2l-1 .3zm.6.3v-.5.5zm-.5-.3v-.3h.6v.3z" fill="#21231e"/>
      <path d="M336 370.4l6.4 7.4c-1.8 1.4 1.3 7-.4 18-1 6.4-4.8 13.8-5.6 22-2.5 26.5-2.5 59.8 5.4 81-14.5-1.6-19.5-14.8-20-39.6-.4-20.6-.4-44.7 4.7-72.7 1-6.5 4.2-11.7 9.4-16z" fill="#fff"/>
      <path d="M342 378.2l-6.5-7.5.8-.6 6.5 8v1h-.7zm.8-.7l.4.4h-.5v-1zm-.3 18.5h-1l.2-1.2v-1l.2-1V385l-1-.6V378v16l-1 1v2zm0 0zm-5.6 21.7h-1v-25h1v1.3l-1 .5v2l-1 .4v1h-1v1h-1v2h-1l-1 1h-1v1h-1v7zm4 81.6v-1l-1 .7-1-2-1-2-1-2.3-1-2.2-1-2.3-1-2.4-1-2.4V481l-1-2.5V476l-1-2.5V471l-1-3v-52h1v5l-1 2.4V484l1 2.4 1 2.3v2.3l1 2v4l1 2-1 .8zm0-.6v.7h-1v-.7zm-21-39.5h1v28l1 1 1 1v1l1 1 1 1 1 .5 1 .6 1 .5 1 .7 1 .6 1 1 1 1 1 1h2v1h-10l-1-1-1-1-1-1-1-1-1-1-1-1-1-1-1-1-1-1-1-2v-1l-1-1v-1l-1-1-1-2v-2l-1-2v-13zm4-72.8l1 .2-1 2.6-1 2.6v2.5l-1 2.6v2l-1 2v5l-1 2v2l-1 2v9l-1 2v9l-1 2v23h-1v-55l1-2v-16zm1 .2zm10-16.6l-1 .8h1l-1 .5-1 .4-1 .4-1 1-1 1-1 1-1 1-1 1h-1v1l-1 1-1 1-1 1-1 1-1 1v1h-1v2l-1 1v3h-1v-7h1v-4l1-1v-2h3v-2h1zm-1 0v-.2.4h-1z" fill="#21231e"/>
      <path d="M372.3 390l-13.4-1.6c-3 12.7-5 21.7-5 26.2-1 9 1 17 5 23 5-3 7-9.4 9-18.6 2-9.2 2-19.2 4-29z" fill="#fff"/>
      <path d="M359 388l13.3 1.5v1l-13.5-1.6-.4-1 .5-1zm-.6.3v-.4h.5-1zm-4 26.4h-1l.2-.6h.2v-1h.5l.2-1 .3-1v-1h.2l.2-1 .2-1v-1l.3-1 .2-1v-13h1l-1 2v1l-1 1-1 1v4l-1 1v3l-1 1v1l-1 1v3l-1 1v6l-1 1v1h-1v1zm4.3 22.6l.5.8h-4l-.5-1h-.4l-.4-1-1-1-1-1v-4l-1-1v-3l-1-1v-6h1v22h-1zm.5.8l-.5 1h-.2.7zm8.6-19h1l-.3 1-.2 1-.2 1v24h1v-1h5v-1l1-1h1v-3h1v-5l1-1v-5zm4.5-28v-1l.5 1v1l-.3 1v1l-.2 1v1l-.2 1v25h-1v-2l1-1h1v-3l1-1 1-1v-8l1-1v-3h1v-4l1-1v-2l1-1v-1l1 1zm0-1h.6l-1 1h-1zm0 0v1-1zm0 1z" fill="#21231e"/>
      <path d="M407 418.6h-11.8c-.4 11-.7 18.5-.5 22.3.4 7 2.3 14 5.5 18 3.6-3 7-9 7.6-16 .6-8-.6-17-.7-25z" fill="#fff"/>
      <path d="M395.2 418.2h12v1h-12l-.5-.5.5-.5zm-.5.5v-.5h.5l-.5.5zm.5 22.2h-1v-12l.2-1v-4l.2-1v-5h1v8l-.2 1v5h-.2v8zm4.8 18h.4-.8l-.3-1-.3-1-.2-1-.4-1-.2-1-.3-1v-1l-1-1-1-1v-1l-1-1v-1l-1-1v-1l-1-1-1-1v-5l-1-1v-2h1v22h-1zm.4 0h-.5l-1-1h1zm6.6-16h1v3l-.3 1-.3 1-.2 1H406l-1 1-1 1h-3l-.3 1H398l-1 1-1-1 1-1h.4l.5-1h1v-14zm0-25v-1h.6v5l.2 1v4h.2v14h-1v-14l-.3-1v-3l-.2-1v-5h.4zm0-1h.6l-.5-1z" fill="#21231e"/>
      <path d="M420 424.2l-12 .6c0 11 0 18.4.3 22.2.7 7.6 2.8 14 6.2 18.6 3.5-3 6.8-8.6 7-16.5.3-8-1-16-1.5-24z" fill="#fff"/>
      <path d="M408 424.3l12-.6v1l-12 .6-.4-.5.5-.5zm-.4.5v-.5h.5v.5zm1.2 22.2h-1v-4l-.2-.6v-17.8h1V445l.2.4v1.6zm5.4 18.2l.6.8h-.7v-20h1v.5l1 .6v5l1 1v3l1 1v4l1 1v2l1 1v1l1 1h1l1 1zm.6.8l-.4.4-.3-.5h1zm6.2-17h1v2.3l-.2.7v.7l-.2.7-.2.6v.7l-.3.6v8.6-1l1-1v-1l1-1v-1h1l1-1v-1h1l1-1h1v-1h1v-5l1-1v-1l1-1v-2zm-1-25.3v1l.5-.5v2.4l.2.8v1.5h.2v19h-1v-7l-1-1v-12l-1-1v-5zm-.5.6v-.6h.5l-.5.6zm.5.4v-1 1z" fill="#21231e"/>
      <path d="M395 412.4l-12-.8c-1.2 11-2 18.2-2.2 22-.2 7.7 1 14.2 4 19.3 3.8-3 7.7-8 8.8-16 1.2-8 .8-17 1.4-25z" fill="#fff"/>
      <path d="M383 411l12 1v1l-12-1-.4-.5.5-.4zm-.4.5v-.5h.5v.5zm-1.3 22.2h-1V431l.2-.4V429l.2-.6v-1.2l.2-.6V411h1v6l-1 1v2.4l-1 .8V434zm3.2 18.8l.5.8-.7-.2h-.2v-18h1v8h1v5l1 1v1l1 1v3l1 1 1 1v1h-1zm.5.8l-.4.3-.3-.5.8 1zm8.2-16h1l-.2.8v1l-.3 1v1l-.3 1-.2 1-.2 1-.2 1-.3 1-.2 1-.3 1-.2 1-.3 1-.3 1-.3 1-1 1-1 1-1 1h-1l-1 1v1h-1l-1 1h-1l-1 1v1l-1 1-1 1h-1l-1 1h-1l-1-1h1v-2l1-1 1-1v-4l1-1v-4h1v-4zM395 413v-1l.5.4v1.5h-.2v5h-.2v17h-1v-16l1-1v-8h1zm0-1h.5v.4l-.5-.6z" fill="#21231e"/>
      <path d="M384 399.6l-13.2-5.4c-2.2 8.8-5.2 37.8 0 50 4.5-3 9-8.4 10.3-17 2-9 2-18.2 3-27.6z" fill="#fff"/>
      <path d="M371 393.7l13 5.4-.3 1-13-5h-.4.7zm-.7.3l.2-.5.5.2-.7.3zm.3 50l.6.7-.7-.2-.5-1.2-.5-1.3-.3-1.4-.4-1.5-.3-1-.3-1-.2-1-.2-1v-2l-.2-2v-4l-.2-2v-6l.2-2v-2l.2-2 .2-2v-2l.3-1 .2-1v-2l.3-1 .2-1 .3-2 .2-2 .2-1 .2-1v-2h1v2l-1 1-1 1v3l-1 1v4l-1 2v5l-1 2v28h-1zm.6.7l-.5.3-.2-.5.7.2zm9.4-17.7h1v1l-.3.8-.2.8V447h-1v2-1h2v-1h2v-2h1l1-.3v-1l1-.5 1-.7 1-.3h1l1-1v-2h1l1-.7V436l1-1v-1l1-1v-1zm3-27l.4-1 .4.6v1l-.2.8v1.7l-.2 1v1l-.2 1v2l-.2 1v2l-.2 1v2l-.2 1v2l-.2 1v1l-.2 1v1l-.2 1v1l-.2 1v1l-.2 1v1l-.2 1v1l-.3 1v1h-1v-1l.2-1v-28 1zm.4-1l.4.3v.3l-.4-.5zm0 .6l-.3.4.2-.4zm0-.5l.4 1v1h-.4z" fill="#21231e"/>
      <path d="M387.8 701.2c8 6.3 15.2-8.3 8-27.6-5-14.2-30.6-8.7-16.4 10.5.7 1 1.6 1 1.5 0-1-4 1-6 5-5 10 2 11 22-1 18-2 0-1 4 1 6z" id="c" fill="#edb92e" stroke="#21231e"/>
      <path d="M400 639.2c-1 3.4-5 7.6-8 10.8-4.5 4.8-3.4 12.2-.2 16 3.5 4.4 5 9.2 5.8 13 .5 2.3 1.5 7.4.8 15.5-.4 4-2.7 6-5 7.7-1 1 .5 3 4.3 6 .4.2 1.5 1 2 3 .2.4 2 .4 2.2 0 0-2 1-2.8 2-3 3-3 5-5 4-6-2-1.7-5-3.8-5-7.7-1-8 0-13.2 1-15.5 0-3.8 2-8.6 6-13 3-3.8 4-11.2-1-16-3-3.2-7-7.4-8-10.7 0-.8-1-1-1-1-1 0-1 .2-1 1z" fill="#edb92e" stroke="#21231e"/>
      <path d="M395 685.5h11.6c2 0 3.6 1.6 3.6 3.5 0 2-1.6 3.5-3.6 3.5H395c-2 0-3.5-1.5-3.5-3.5s1.6-3.5 3.6-3.5z" fill="#edb92e"/>
      <path d="M406.6 686H395v-1h11.6v1zm4 3h-1v-1l-.2-.2v-.2l-.2-.2v-.2h-.2v-.2h-.2v-.2h-.3v-.2h-.2v-.2h-.3l-.2-.2h-.5v-.2h-.6v-1h1l.2.2v3.8zm-1 0h1-1zm-3 4v-1h.8l.3-.2h.2V689h1v2l-1 .6v.3h-3zm-11.5-1h12v1h-12v-1zm-4-3h1v1l1 .2v.7h3v1h-2v-1h-1v-4zm1 0h-1 1zm3-4v1h-1v3h-1v-2l1-1v-1h1v-.3h1v-.3h2z" fill="#21231e"/>
      <path d="M417 579.2l.5-11c-4.4-2.2-15.2 0-19.7 10.2-5.7 12.6-11 19.3-18 25.2 10 1.8 18.4-.2 23.7-7.4 7.3-9.8 11.2-15.7 13.6-17z" fill="#fff"/>
      <path d="M418 568.3l-.4 11h-1l.4-11 .7-.5.3.5zm-.3-.5l.3.2v.3l-.3-.5zm-19.5 10.8l-1-.4.6-1 .5-.8.5-1 .6-.7.5-.8v-5l1-1v-2h1v-2h1v-1l1-1h1l1-1h1l1-1h4l-1 1-1-1h-8l-1 1h-1l-1 1h-2l-1 1h-1l-1 1h-2l-1 1-1 1h-1l-1 1zM380 603l-.2 1-.2-.8.6-.6.6-.5h5.2l.7-1h1.2v-6l1-1 1-1v-2l1-1v-5l1-1v-2l1-1h1l-1 2-1 1-1 1-1 1-1 1-1 1v2l-1 1v1l-1 1-1 1-1 1v1l-1 1v1l-1 1-1 1-1 1-1 1-1 1-1 1-1 1-1 1-1 1v1l-1 1-1 1v1l-1 1-1 1v-1zm-.2 1h-1l.8-.8.2.8zm23.4-8l.8.5-.6.7-.5.6-1 .6-1 .6-1 .6-1 .5-1 1-1 1-1 1-1 1-1 1-1 1-1 1h-1l-1 1h-1l-1 1h-11l-1-1v-1h13v-1h2v-1h2v-1h2v-1zm13.4-16.8h1l-.2.4-.2.2h-.2l-.3.3-.2 1h-.3l-.2 1-.3 1-.3 1h-.3v10l-1 1-1 1v4l-1 1v1-1l1-1 1-1 1-1 1-1h1l1-1 1-1 1-1h1l1-1v-1l1-1h1l1-1h1l1-1h3zm1 0v.3h-.2l.2-.3z" fill="#21231e"/>
      <path d="M425.2 580.6l-11.8-5c-5 10-8.2 16.6-9.5 20.2-3 7-4 13.8-3 19.5 5-1.2 10-4.6 14-11.6s6-15.3 9-23z" fill="#fff"/>
      <path d="M413.6 575.2l11.7 5-.3 1-11.8-5-.3-.8v-.2zm-.7.2v-.4.2l-1 .2zm-9 20.6l-1-.4V576l1-1 1-1v-1h1-1l-1 1-1 1-1 .4v2.6l-1 1v2l-1 .6-1 .6v2.6h-1v.8l-1 .3-1 1v2h-1zm-3 18.8v1l-1-.4v-2l-1-.4v-19h1v1l-1 .5v.6l-1 1v1l-1 1v1l-1 1v14h-1zm0 1h-1v-.4.4zm13-12.4l1 .5h-6l-1 1h-7l-1 1h-6v-1h2v-1h5v-3h2v-3l1-1v-1l1-1v-2zm10-22.4v-.8.6l-1 .7-1 .8-1 .7-1 .7-1 .8v.7l-1 .7-1 1h-1l-1 1-1 1v1l-1 1h-1v1l-1 1v1h-1v2l-1 1h-1v1h-2v1l-1-1v-3l1-1v-9l1-1v-14zm0-.8v.6l-1-.6z" fill="#21231e"/>
      <path d="M428.6 580.6l-12.7-2c-3 10.8-4 18-5 22-1 7.5 0 14 2 19.4 4-2.3 9-7 10-14.7 2-7.8 2-16.3 3-24.7z" fill="#fff"/>
      <path d="M416 578.2l12.6 2v1l-12.8-2-.4-.6.6-.4zm-.6.4v-.5l.6 1-.6 1zm-3.3 22h-1l1-.5v-5h1v-4h1v-1l1-1v-3h1v-4l1-1v-1h1v24zm2 19l1 .8v-17.6l1-.7v-1h1v16l1 1v2l1 1v1l1 1v2zm1 .8v.3-.5l1 .2zm10-15.2l1 .2v10.4h-1v1h-2v1.8l-1 .3h-2v-1h1v-1h1l1-1v-1h1l1-1h1v-1h1l1-1v-1h2v-2l1-1 1-1v-2zm4-25v1l1-.5V607h-1l1-1v-10h1v-6l1-.6v-8h1l1-.3zm0 .3v-.4h1v1zm1 .6v-1 1z" fill="#21231e"/>
      <path d="M430.4 563.4h7.6c4.4 2 9 12.2 3.7 22-6.7 12-8.8 20.2-9.5 29.2-7.4-6.8-10.8-14.7-8.2-23.3 3.4-11.7 6.8-25.2 6.4-28z" fill="#fff"/>
      <path d="M438 564h-7.6v-1h7.8l-.2 1zm0-1h.2-.2zm4 22.5l-.8-.5.5-1 .4-.8 1-.8 1-1 1-.8 1-1v-.7l1-1v-18h-1v-1l1-1h2l1 1v1h3v1h1v16zM432 615l.5-.7-.8.3v-.8l.2-1v-24.4l1-1.2 1-1V585l1 .5-1 1-1 1.2-1 1v1l-1 1.2-1 1-1 1-1 1-1 1-1 1v1l-1 1-1 1-1 1v1l-1 1v1l-1 1v2l-1 1v3l-1 1v1h-1zm.7-.3v1l-.8-.7v-.3zm-9.2-23.6l1 1-.3 1-.2 1v1l-.2 1v1l-.2 1v3l.2 1 .2 1v1l.3 1 .3 1 .2 1 .3 1 1 1 1 1 1 1 1 1 1 1 1 1 1 1 1 1 1 1 1 1 1 1 1 1v1l1 1 1 1v1h-1l-1-1h-1l-1-1v-1l-1-1v-4h-1v-16h1l1-1 1-1zm7-28v1h.4v2l-1 1v4l-1 1v1l-1 1v4l-1 1v1l-1 1v2l-1 1v2l-1 1-1 1-1 2-1 1v2l-1 2h-1v-5l1-1v-23zm-.6 1l-1 1zm0 0v1zm-1 0l-1 1z" fill="#21231e"/>
      <path d="M433.8 558.2l-12-4.3c-4.3 10-7.2 16-8.4 20-2.3 7-2.6 14-1 19 4.7-2 10.6-5 14-12 3.3-8 4.5-17 7.4-24z" fill="#fff"/>
      <path d="M422 553.4l12 4.3-.4 1-12-4.4-.3-.6.6-.3zm-.7.3l.2-.4h.4l-1 .4zm-7.4 21l-1-.3V564h1v-9.6l1 .4-1 1-1 1-1 1-1 1-1 1-1 .7v1l-1 .7v1.7l-1 1h-1v2l-1 1v1l-1 1v3h-1v1zm-2 19v1l-1-.4-1-.6v-18.3l1 .3v1l-1 1v16l-1-1zm0 1h-1v-.4.3zm14-12.7v.6l-1 .6-1 .7h-3l-1 1h-3l-1 1h-1l-1 1h-2l-1 1h-3l-1-1h2l1-1h2v-2l1-1h1l1-1h1v-1l1-1v-1l1-1v-2h1l1-1v-1zm7-23.4v-1 .7l-1 .8-1 1-1 1v2l-1 1-1 1v4l-1 1v6l-1 1v1l-1 1-1 1v4l-1 1v2h-1 1v-12l1-1v-12 1zm0-1v.3l-1-1zm-1 .6v.4-.4zm0-.5v.2l-1-1z" fill="#21231e"/>
      <path d="M425.6 549.7l-2.6-16.4c-2.8-.7-6.5 5.8-10 9.5-1 1-2 1.7-2.6 2.8a23.3 23.3 0 0 0-3.4 8c-3 13.4-7.4 20.4-13 27.6 10.2-.2 18-3.8 21.8-12 5-11 7.7-17.7 9.8-19.5z" fill="#fff"/>
      <path d="M423.4 533.3l2.7 16.4h-1l-2-16.3 1-.6 1 .5zm-.3-.4h1v-1zm-9 10l-1-1 1-1 1-1 1-1 1-1v-1h1v-1h1v-1l1-1v-1l1-1 1-1v-1h1v-1h1l1-1h4v1h-3v2h-2v1h-2v1h-1l-1 1zm-2 3l-1-1h1v-1h1v-1h1v-1h1v-1h1v-1h1-2zm-3 7h-1v-3l1-1v-2h1v-1l1-1h1v-1h1v5zm-14 27v1-1l1-1v-1l1-1 1-1 1-1 1-1v-1h1l1-1 1-1 1-1v-1l1-1v-2l1-1 1-1 1-1 1-1 1-1v-1l1-1v-1l1-1v-1l1-1v-1l1-2 1-1v-2l1-2h1l-1 1v3l-1 1v5l-1 1v3l-1 1v1l-1 1-1 1v3l-1 1h-4v1h-1l-1 1v1-1zm0 1h-1l1-1zm22-13h1v5h-3l-1 1h-4v1h-13v-1h8l1-1h3l1-1 1-1h2l1-1h1l1-1 1-1v-1l1-1 1-1 1-1 1-1v-1l1-1 1-1 1-1v-1zm10-19h1-1v6l-1 1v1l-1 1v3l-1 1v4l-1-1v-2l1-1 1-1 1-1v-3l1-1v-5l1-1v-2h1v-1h1l1-1v-1h1v1zm1 0v-1z" fill="#21231e"/>
    </g>
    <use width="1350" height="900" transform="matrix(-1 0 0 1 964.3 0)" xlink:href="#d"/>
    <path d="M536.4 415a38 38 0 0 0 4.8-1.5c-7.6-4.8-14-10.6-21.4-22-7.8-12 3.3-33 8-44.3 9.4-7 18.3-17.3 21.2-31 1-7.3-19-4.7-33 2-17 8-19.3 5.7-25.4 7-2.2 10.5 2.4 11.4 6.7 11-9.4 15-13.3 29.8-15 51.4-2-21.6-6-36.5-15.3-51.5 4.3 1 9 0 6.7-10-6-1-8.4 1-25.4-7-14-6-34-9-33-2 3 14 11.8 24 21.3 31 4.6 11 15.7 33 8 44-7.6 12-14 18-21.5 22l5 2c-1 2-11 5-12 4-7-5-15-18-21-25-18-21-27-37-24-49 5-14 21-29-1-27-21 3-39 33-45 69-2 13-3 25-4 34 12-4 17-8 20-13l-3 15c10-1 17-6 19-15 1-3 2-6 4-9 3 1 7 1 12 0 2 4 15 19 22 30 8 13 20 22 24 22 2 1 3-4 3-10 21 1 43 1 63 0 21 1 42 1 63 1 0 6 0 11 2 11 4 0 16-10 25-22 7-11 21-26 22-30 5 1 9 1 12 0l3 9c3 9 10 13 20 15 0-4-1-9-3-14 4 5 9 9 21 14-1-9-2-20-5-33-6-36-24-66-45-68-21-3-5 13 0 27 3 13-6 29-24 49-7 8-14 20-21 25-1 1-11-2-12-4z" fill="#fff" stroke="#21231e"/>
    <g id="e">
      <path d="M440.6 356.8c-2 1.8-8.8 1.8-18 2.4-14.8.5-23.4-4-25.3-13.5 5.6 6.6 12.2 10 19.7 8 10.2-2.5 16-4.3 18.3-3.8 1.6 0 4 3 5.3 6z" fill="#edb92e"/>
      <path d="M422.6 359.7v-1h1.8l.7-.2h3l1-.2h3l1-.2h8l1 1v3h-3l-1 1h-5v1h-6l-1 1h-2zm0 0zm-25-14.3l-.7.6v-.4V358l1 1 1 .6 1 .6v.7h16v1h-6l-1-1h-3l-1-1h-1l-1-1h-3l-1-1h-1l-1-1h-1l-1-1-1-1-1-1h-1l-1-1v-1l-1-1-1-1-1-1-1-1v-1l-1-1v-1l1-1zm19.3 8v1h-1l-1 .2h-1l-1 .2h-3l-1-.2-1-.2h-1l-1-.3h-13l-1-1v4l1 1v2h1l1 1 1 1v2h4l1 1h8zm18-4l-1 1h-2l-1 .2h-1l-1 .2-1 .2-1 .2h-1l-1 .3-1 .3-1 .2-1 .3v.2l-1 .2-1 .2h-5l-1-1 1-1h4l1-1h3v-1h1l1-1h1v-2h4zm0 0zm5 7.8l-1-.8v.6-.7l-1-.3v-.3l-1-.3v-.3h-1v-1h-3v-1 1h1v1h1v5l1 1v2zm0-.6v.3h-1v-1zm-21-35.4v1.5h-1v-.4h-1v-1zm15 4l-1 1.3-1-.2-1-.2h-12v-2h3l1 1h4v1h1v1h2v1h2v1h1zm9 2.5v1.5h-1l-1-.2h-1l-1-.2h-1l-1-.2h-1l-1-.2h-1v-.2h-1l-1-.2-1-.2h-1l-1-.2v-.5h-1v-1h2v1h2v1h4zm0 1.5v-1.5 1.2zm23 7.5v-1.2 1h-1zm-10-2v-1.2h1v.4h8l-1 1h-3v-1h-5l-1-1h-1zm0-1.2v1-.8h1z" fill="#21231e"/>
      <path d="M431.5 332l-.7 1.3-.4-.3-.4-.2-.4-.3-.3-.2-.4-.3-1-.3-1-.3-1-.3h-6v-3h-2l1-1v7h1v3h1v1zm7.6-5.3l2 .8v3.3h-1v.3h-4l1-2h1l1 1h6v-1h1v-2zm-9 4.3l-2-2.3c-1-1.3 0-3 2-5.4 2 .7 3 1.3 4 2-1 3-2 4.8-4 5.6zm-6 82v1h-1v-1h1zm24-3.6l1 1v.5h-14l-1-1-1-1h-1l-1-1h-1l-1-1-1-1v-1h13l1-1h1l1-1h2l1-1h1l1-1h1l1-1h4l1-1 1-1zm3-2.8l1 .8v2.8l-1-.8v-.2h1v-.6l1-.2v-.8l1-.2v-.8zm1 .8l-1-.8 1-.2h1v.2h1v.8z" fill="#21231e"/>
      <path d="M452.2 401.3l-1.2-.2h1v1h.2v1zm-5.5 16l.3 1-.7-.8.2-.4h.4v-13h1v2l-1 1v2l-1 1v2l-1 1v2l-1 1-1 1v2l-1 1v1l-1 1v3l-1 1h-1zm-.4.2l1 .5v.2h-.2v.2-.8zm15.2-9.5l1 .7-.3.4-.4 1-.3 1-.4 1v9h-4v1h-4v1-2h11v-1h6l1-1v-1l1-1 1-1h1zm1 .7l-1-.7h.2v-.2h.7v.2h.2v.7z" fill="#21231e"/>
      <path d="M461.3 400.2H460v-.2h.2v-.2h1v.4zm4.4 15.7l.7 1-.8-1-.3-1-.3-1-.2-1-.3-1h-.2l-.3-1-.2-1-.3-1-.2-1h-.2v-10h1v2h1v3l1 1v1l1 1 1 1v1h2v1h2v1h1v2h1-1zm0 0l1-1h-1.2zm7.6-13h1-.2v6h-1l-1-1 1-1v-1h1l1-1v-1l1-1v-1h1l1-1h1l1-1v-2l1-1v-1zm1 0l-1-1h1z" fill="#21231e"/>
      <path d="M406 317.8c-16.7 1.8-16 12.6-.4 28 3 3 4 3 4.6-.2 1.2-5.3 7-8.5 10.2-4.4 2 2.7 1.6 4.3 8.6 3.3 9 7.5 16.2 12.8 4.5 12.3-5-.2-9 2.8-15.7 2.5 2 4 2.3 4.3 3.4 4.6 6.5 1 13.3-3 19.8-2 14.3 2-23-39-22.4-41 1-4-9-12-12.7-5z" fill="#edb92e"/>
      <path d="M406 345.5l-.7.7-1.4-1.5-2-1.4-1-1.4-1-2-1-2-1-2-1-2-1-1-1-1-1-2-1-1-1-1-1-1-1-1v-9l1-1v-1l1-1 1-1 1-1h2l1-1h3v1h-9l-1 1h-1l-1 1h-1v1l-1 1v7l1 1v2l1 1 1 1 1 2 1 1 1 2 1 1 1 2zm3.8 0l1 .2v.3l-.2.3v.5l-.2.2v.2l-.2.2v.2l-.2.2-.3.3v1H406v-1h1l1 1 .3 1h1l.2 1v1h1.6v-1zm11-4.6h-.8l-.3-1h-.3l-.3-1h-1v-1h-2v3h-1v-1l1-1 1-1v-1l1-1v-1h1v-1l1-1v-1h1l1-1 1-1h4l1 1 1 1h1zm8.6 3h-.7.4-5v-1h-1v-3l1-1h11zm-.4 0h.4-.4zm4.5 13v-1h5l.4-1v-1l-1-1-1-1h-1l-1-1-1-1-1-1-1-1v-1l-1-1-1-1-1-1-1-1-1-1-1-1h-1l-1-1-1-1 1-1v1l1 1 1 1h2v1h3v5h-5zm-15.2 2h-1l.5-1h7.4l.5-1h4.4v-1h6v1h-15v-1zm-1 0l-.3-1h.8l-.4 1zm4 4l-.2 1h-1v-7l1-1v1h3v1h2zm-.2 1zm20-3v1h-18l1-1h6l1-1h4l1-1 1-1h3l1-1h5zm-23-40h3l1 1 1 1 1 1 1 1 1 1 2 1 2 2 1 2 2 2 2 2 2 2 2 2 2 2 2 2 1 2 2 2 1 2 1 1 1 2 1 1 1 1 1 1 1 1v2h-5v-1h2l1-1v-5l-1-2-1-1-1-2-1-2-1-1-1-2-2-2-1-2-1-2-1-2-2-2-1-2-1-2-1-2-1-2-1-1-1-1-1-1v-1l-1-1v-1zm-12-4v-1l1-1 1-1 1-1 1-1 1-1 1-1h12v3h-1v-6h-1v-1h-2l-1-1h-4v1l-1 1v1zm1-1l1-1zm0 0v-1zm1 0l1-1z" fill="#21231e"/>
      <path d="M407 317.2l-1.3.4v-.6h.2v-.2.4zm7.6 10.6l-.8 1-.4-.4-.3-.4v-11.6l1-.3v1h1v2h1v1l1 1v2l1 1v1h1v1l1 1 1 1v1h1v2l1 1zm-.8 1l.8-1v.2h.2v.7h-.4v.2h-.7zm-9.5-4.6c.8 0 1.3.7 1.2 1.5s-.8 1.3-1.5 1.2c-.8-1-1.3-1-1.2-2s.8-2 1.5-1zm-46 38.4h.3v-.2h.4v.2h.2v.2l.2.2v.4h-.2l-.8-.8zm-22.6 56l.2-1v-10l1-2V397l1-2 1-2 1-2 1-2v-2l1-2 1-2 1-2 1-2 1-2 1-2 1-1v-1l1-1v-1l1-1v-1l1-1 1-1h1v1l-1 .8-1 1-1 1-1 1-1 1.3-1 2-1 1-1 2-1 2-1 2-1 2-1 2-1 2-1 3-1 2-1 3-1 2-1 3-1 3-1 2v2l-1 2-1 2-1 3v2l-1 2-1 2v2l-1 1v4h-1zm5.6 80.5l-.7-2-.7-2-1-2-1-2-1-2-1-2-1-2-1-2-1-2-1-2-1-2v-6l-1-2v-3l-1-2v-42h1v8l-1 3v3l-1 3v44l1 3v10l1 2v5l1 2h-1zm1 0v1h-.8 1z" fill="#21231e"/>
    </g>
    <use width="1350" height="900" transform="matrix(-1 0 0 1 964.3 0)" xlink:href="#e"/>
    <path d="M473 398.4h-.2v.5h-.2.2v1h.2l.2 1h.3v1h.3l.2 1 .3 1 .2 1h.2l.3 1 .3 1h.3l.3 1v9h1v-2l1-1v-2h1v-5l1-1v-8l1-1v-7h-1v2l-1 1v3h-1v1h-1l-1 1v3h-1v2h-1v1l-1 1-1 1v3h-1l-1-1v-2h-1v-1l-1-1v-1l-1-1v-1l-1-1-1-1v-1l-1-1v-2l-1-1v-6h-1z" fill="#21231e"/>
    <path d="M549.2 422v108.6c0 19.4-7.5 37-19.7 49.8-12 12.8-29 20.7-47.3 20.7-18.5 0-35.3-7-47.4-20-12-13-19.7-30-19.7-50V422h135z" fill="#c6363c"/>
    <use width="1350" height="900" transform="matrix(-1 0 0 1 964.3 -90.1)" xlink:href="#f"/>
    <path d="M549.2 488.6v28h-53v83a63.8 63.8 0 0 1-14 1.5c-4.8 0-9.5 0-14-1v-83h-53v-28h53v-67h28v67h53z" fill="#fff" stroke="#21231e"/>
    <use width="1350" height="900" transform="translate(0 -90.1)" xlink:href="#f"/>
    <path d="M459 567.3V528c-8.4-2.3-29.3-10.6-30.3 7.6-.5 8.4 10.4 14 13.3 6.5 1.4-3 0-6-2-6-2.4-1-4.6 1-4 4-8.8-4 8-14 15.5-1 2.2 4-3.7 8-3.7 11s5.8 7 3.7 11c-7.7 13-24.3 3-15.5-1-.6 3 1.6 5 4 4 2-1 3.4-3 2-7-3-7-13.8-2-13.3 7 1 18 22 10 30.4 8z" id="f" fill="#fff" stroke="#21231e"/>
    <use width="1350" height="900" transform="matrix(-1 0 0 1 964.3 0)" xlink:href="#f"/>
    <path d="M414 421v113.3l.2 1.7v2l.4 1.7.2 1.8.3 1.7 1 1.8 1 1.8 1 1.7 1 1.7 1 1.7 1 1 1 1v1l1 1 1 1 1 1 1 1 1 1 1 1 1 1 1 1 1 1 1 1 1 1 1 1 1 1 1 1 1 1 1 1 1 1 2 1 1 1 1 1 2 1 1 1 2 1 2 1 1 1 2 1 2 1h4l2 1 1 1 2 1 2 1h8l2 1h1l2 1h6l2 1h15l1-1h3l2-1 2-1 1-1 2-1 1-1 2-1h2l1-1 1-1h2l1-1 2-1 1-1 2-1 2-1 2-1 1-1 1-1 1-1 2-1 2-1 1-1 1-1 1-1 2-1 1-2 1-1 1-1 1-2 1-1 1-1 1-2 1-1 1-1 1-2v-2l1-1 1-2v-1l1-1 1-2 1-1 1-2 1-2v-2l1-2 1-2 1-2v-2l1-1V421H414zm2.3 2.2H548V536l-.3 1.6-.2 1.8-.2 1.7-.3 2-.3 2-.4 2-.3 2-.5 2-.4 2v11l-1 2v2l-1 2-1 2-1 1-1 2-1 2-1 2-1 2-1 1-1 2-1 1-1 1-1 2-1 1-1 1-1 1-1 1-1 1-1 1-1 1-1 1-1 1-1 1-1 1h-2l-1 1-1 1-2 1-1 1h-2l-1 1-1 1-1 1-2 1h-2l-2 1-1 1h-35l-2-1h-2l-1-1h-2l-1-1h-1l-1-1-2-1-2-1h-1l-2-1-1-1-1-1-1-1-1-1-1-1-1-1-1-1-1-1-1-1-1-1-1-1-1-2-1-1-1-2-1-1-1-1v-2l-1-1-1-1-1-1-1-1-1-1v-10l-1-1v-3l-1-2v-9l-1-1v-6z" fill="#21231e"/>
  </g>
</svg>
