<svg xmlns="http://www.w3.org/2000/svg" height="480" width="640" viewBox="0 0 640 480">
  <defs>
    <clipPath id="a">
      <path fill-opacity=".67" d="M-85.33 0h682.67v512H-85.33z"/>
    </clipPath>
  </defs>
  <g clip-path="url(#a)" fill-rule="evenodd" transform="matrix(.9 0 0 .9 80 0)">
    <path fill="#199d00" d="M-128 0h768v512h-768z"/>
    <path d="M65.54 145.13c-.9 11.96-1.95 33 8.2 35.17 12.3 1.18 5.53-20.8 9.98-24.8.84-1.96 2.4-1.97 2.52.5v18.66c-.12 6.07 3.87 7.85 6.97 9.1 3.3-.24 5.4-.13 6.7 3l1.5 32.26s7.5 2.14 7.9-18.14c.4-11.9-2.4-21.88-.7-24.2.1-2.28 3-2.4 5-1.3 3.2 2.26 4.7 5.06 9.7 3.94 7.6-2.1 12.2-5.8 12.3-11.62-.4-5.55-1-11.1-3.4-16.64.4-1-1.4-3.62-1.1-4.63 1.4 2.14 3.5 1.96 3.9 0-1.3-4.26-3.3-8.34-6.5-10.1-2.7-2.38-6.6-1.9-8 3.05-.7 5.7 2.1 12.45 6.2 17.97.9 2.15 2.1 5.73 1.6 8.95-2.2 1.26-4.4.74-6.2-1.22 0 0-6-4.53-6-5.54 1.6-10.28.3-11.44-.53-14.3-.6-3.93-2.5-5.2-4-7.88-1.5-1.6-3.54-1.6-4.52 0-2.7 4.63-1.45 14.58.5 19.04 1.4 4.1 3.5 6.67 2.5 6.67-.8 2.3-2.54 1.78-3.8-.9-1.8-5.52-2.13-13.76-2.13-17.47-.55-4.6-1.14-14.42-4.17-16.92-1.87-2.5-4.6-1.3-5.56 1-.2 4.58-.2 9.15.3 13.36 2.1 7.38 2.7 13.87 3.76 21.43.2 10.13-5.9 4.4-5.6-.62 1.4-6.53 1-16.8-.2-19.4-1-2.6-2.2-3.24-4.6-2.8-2-.13-6.9 5.28-8.3 14.25 0 0-1.2 4.62-1.7 8.72-.7 4.63-3.7 7.9-5.9-.65-1.9-6.22-3-21.53-6.1-17.94z" fill="#fff"/>
    <path d="M98.94 194.2c-10.84 5.3-21.33 10.26-32 15.4.38-7.27 15.2-20.37 25.32-20.55 6.6.18 4.93 2.55 6.68 5.16z" fill="#fff"/>
    <path d="M93.35 204.24c-16.87 43.5 39.5 49.55 45.8 1.78.6-1.96 2.98-3.92 3.4-.7-1.3 43.24-43.6 46.2-50.8 32.6-1.78-3.2-2.32-10.33-2.5-14.6-1.07-8.5-5.52-5.24-6.23 3.2-.72 4.7-.54 6-.54 10.5 2.26 34.17 56.74 19.5 65.6-8.72 4.68-15.63-.78-27.15 1.77-27.1 5.4 5.83 12.95.78 14.6-1.24.73-1 2.5-1.66 3.76-.35 4.3 3.1 11.7 1.6 13.2-3.7.9-5.2 1.6-10.6 1.8-16.2-3.4 1.1-6 1.8-6.2 3.2l-.7 4.7c-.3 1.5-3.3 1.6-3.4-.3-1.3-5.9-6.7-6.7-10 2.5-2.2 1.8-6.2 2.2-6.6-.5.6-6.2-1.9-7-6.9-4.1-1.6-12.2-3.2-23.9-4.8-36.2 2.1 0 4 1.5 5.9-.9-2.1-6.4-6.5-19.7-8.9-20.6-1.1-1.4-2.2-.5-3.7-.2-2.6.8-5 3.1-4.2 7.5 3.1 18.8 5.1 33.1 8.2 51.9.5 2.2-1.3 5.1-3.7 4.8-4-2.7-5-8.2-11.9-8-5 .1-10.7 5.5-11.4 10.7-.8 4.2-1.1 8.7 0 12.3 3.5 4.2 7.7 3.8 11.4 2.9 3.1-1.3 5.5-4.3 6.6-3.6.7.9.2 10.9-14.2 18.5-8.7 4-15.6 4.8-19.4-2.3-2.3-4.4.2-21.4-5.5-17.4z" fill="#fff"/>
    <path d="M164.9 160.03c3.4-1.25 19.44-19.6 19.44-19.6-.83-.72-1.58-1.25-2.4-1.97-.9-.77-.8-1.54 0-2.3 3.97-2.33 2.7-7.4.62-9.72-3.45-1.55-6.45-1.04-8.65.08-2.7 2.68-3.4 6.95-1.2 9.63 2.2 1 4.3 3.18 2.9 4.36-6.5 7.1-24.5 19.1-22.4 19.6.5.6 11.5.6 11.9 0zM68.05 225c-6.02 9.58-6.54 23.9-3.22 28.17 1.76 2.02 4.66 2.9 6.8 2.27 3.78-1.64 5.44-9.3 4.54-12.1-1.26-1.97-2.26-2.3-3.52-.6-2.66 5.4-3.76 1.7-4-1.33-.4-5.7.14-10.9.76-15.1.7-4.3 0-2.9-1.3-1.2zm257.08-15.35c-5.82-12.52-13.87-24.9-16.43-29.65-2.57-4.75-21.92-32.82-24.76-35.98-6.3-7.47 10.2 3.1-2.1-11.72-4.68-4.02-4.95-4.26-8.84-7.54-1.96-1.4-6.75-3.94-7.6.28-.42 3.7-.2 5.73.43 8.82.48 2.07 3.48 5.52 4.96 7.52 19.6 26.4 37 53.03 53.8 86.52 2.6-1.26 2-16.15.5-18.25z" fill="#fff"/>
    <path d="M299.6 251.54c-1.15 1.28 2.8 6.78 7.97 6.77 8.62-1 16.2-5.8 23.24-18.6 1.9-2.9 5.2-9.3 5.3-14.2.7-28.9-1.4-51.4-5.8-72.3-.2-2-.1-4.4.3-5 .6-.6 2.5 0 3.5-1.6 1.5-1.5-3.9-13.9-7-18.7-1.1-2.1-1.4-3.5-3.3.3-1.9 3.1-3.1 8.5-3 13.6 4.1 28.5 5.4 53.4 8.1 81.9.3 2.8-.1 6.8-2 8.4-6.7 7.1-16.5 15.8-27.2 19.8zm116.48-.15c-6.2 3.5-6.2 7.6-1.2 7.8 8.63-1 18.82-1.7 25.85-12.4 1.88-3 4.1-11 4.2-16 .67-28.9-.37-50.5-4.7-71.4-.28-2.1-1.18-6.8-.84-7.4.5-1.5 3.3.1 4.3-1.5 1.4-1.5-7.3-12.8-10.4-17.6-1.1-2.1-1.5-3.6-3.3.2-1.9 3.1-2.6 8.7-1.8 13.6 4.5 30.9 7.9 54.1 8.6 81.5-.4 2.6-.5 4-1.7 7.3-2.7 3.4-5.7 7.7-8.5 9.8-2.8 2.1-8.8 4.1-10.7 5.6z" fill="#fff"/>
    <path d="M420.72 223.66c-.07-7.23.1-13.48-.14-18.87-.23-5.4-1.2-9.8-3.05-13.7-1.77-4.1-.67-7.4-1.5-11.8s-.63-11-1.88-16.1c-.34-2-1.4-8.5-1.07-9.2.5-1.5 2.45 0 3.4-1.7 1.43-1.6-4.93-18-8.16-22.7-1.16-2.1-3.27-1.4-5.86 2-2.4 2.2-1.52 7.4-.6 12.3 6.2 32.3 10.8 61.5 9.8 92.2-.3 2.6 9.12-7.8 9.06-12.7zM375 183.6c-3.9-.06-12.04-7.56-14.42-11.96-.9-2.52-.32-4.98.47-6.42 1.44-.94 3.66-2 5.3-.98 0 0 1.73 2.4 1.4 2.7 2.12 1.03 3.03.44 3.24-.42.1-1.52-.7-2.42-.7-4.1.9-4.5 6-5.2 8-2.33 1.4 1.7 1.9 5.5 2.1 8 0 1.3-2.1-.3-3.3.1-1.2.3-1.5 1.6-1.6 2.9-.2 3.3-.6 8.5-.7 12.5zm-71.83 48.08c1.07-9.83-.4-27.33-.5-33.13-.4-13.7-2.63-40.16-3.7-44.58-1.2-8.34 3.44.9 2.8-3.93-1.5-8.32-6.12-13.96-11.55-21.6-1.75-2.47-1.7-2.97-4.4.62-2.98 6.78-.4 11.45.38 16.73 3.9 17.2 6.2 33 7.25 48.6 1.07 15.6 1.4 32.6.42 49 2.94.1 7.65-4.8 9.3-11.9z" fill="#fff"/>
    <path d="M433.97 215.94c-6.86-11.52-17.22-24-20-28.62-2.75-4.64-26.15-34.83-29.13-37.86-8.56-9 3.92-1.47-1.64-8.4-4.7-5.18-6.08-6.8-10.1-9.9-2.03-1.32-3.26-3.8-3.92.44-.26 3.73-.54 8.05-.3 11.2 0 1.74 1.82 5.03 3.38 6.96 20.76 25.5 43.4 51.54 61.62 84.27 2.6-1.37 1.73-16.06.1-18.1z" fill="#fff"/>
    <path d="M122.6 194.7c-.5.86-1.6 1.98-1.23 3.14.77 1.04 1.38 1.25 2.67 1.3 1.1 0 2.67.28 3-.38.6-.66 1.05-2 .56-3.28-1.16-2.9-4.4-1.82-5-.8z" fill="#1ba400"/>
    <path d="M354.17 362.54c9.18.34 15.2.42 23.35 1.4 0 0 7.04-.7 9.55-1.08 10.63-1.02 11.1 15.17 11.1 15.17-.12 9.5-3.78 10-8.46 11-2.6.34-4-1.6-5.4-3.67-1.7.74-4.1.84-7 .44-3.8-.24-7.6-.23-11.4-.46-4-.36-6.2.42-10.3.06-.8 1.32-1.9 3.14-4.4 2.55-2-.23-4.5-6.03-3.8-10.45 1.5-3.16 1.1-2.14 1-3.53-37.5-.96-75.4-2.63-112.2-2.15-28.8.12-57.2 1.3-85.7 2.5-15.1-.23-26.7-2.62-34.7-14.33.7 0 38.7 2.1 49.9 1.4 20.6-.3 39.3-1.9 60.3-2.5 41.3.7 82.1.7 123.4 3.6-3.9-2.7-4.1-9.1 2-10.7.5-.4.8 3.1 1.7 3.1 4.9-.4 2.8 6.2 1.7 7.5zM188.64 135.28c-6.25 17.86 3.58 37.4 10.4 35.5 4.9 2.03 8.04-7.33 10.05-17.57 1.3-2.8 2.4-3.1 3.1-1.7-.2 13.7 1 16.7 4.5 20.8 7.8 6.1 14.2.8 14.7.3l6.1-6.1c1.3-1.4 3.1-1.5 5-.2 1.8 1.7 1.6 4.6 5.5 6.7 3.3 1.4 10.5.3 12.1-2.5 2.2-3.8 2.7-5.1 3.8-6.6 1.6-2.1 4.3-1.1 4.3-.5-.3 1.2-1.9 2.4-.8 4.5 1.9 1.4 2.3.5 3.4.2 3.9-1.9 6.9-10.5 6.9-10.5.1-3.2-1.7-2.9-2.8-2.3-1.5 1-1.6 1.3-3.2 2.2-2 .3-5.7 1.6-7.6-1.3-1.9-3.4-2-8.2-3.4-11.7 0-.3-2.6-5.5-.2-5.8 1.2.2 3.7.9 4.1-1.2 1.2-2.1-2.7-8-5.3-10.9-2.4-2.6-5.6-2.9-8.7-.3-2.2 2-1.8 4.3-2.3 6.4-.57 2.4-.4 5.4 2.02 8.6 2.2 4.3 6.1 9.8 4.8 17.5 0 0-2.3 3.7-6.3 3.2-1.7-.4-4.4-1.1-5.8-11.8-1.1-8.1.22-19.4-3.2-24.8-1.26-3.2-2.17-6.3-5.2-.8-.85 2.2-4.3 5.4-1.8 12.2 2.1 4.27 2.9 11.2 2 18.95-1.47 2.2-1.8 2.97-3.67 5.17-2.67 2.8-5.54 2.1-7.74 1-2.02-1.4-3.63-2.1-4.6-6.5.2-7 .6-18.5-.7-20.92-1.9-3.8-5-2.4-6.32-1.3-6.4 5.88-9.54 15.7-11.5 23.6-1.74 5.7-3.63 4.1-4.96 1.76-3.25-3.02-3.5-26.7-7.4-22.8z" fill="#fff"/>
    <path d="M207.45 174.1c2.84-2 1.5-3.4 5.75.83 5.32 9.08 8.73 20.84 9.24 31.26-.22 2.5 1.6 4.2 2.42 3.6.5-6.1 15.15-14.5 28.6-15.7 2.05-.5 1.05-4.4 1.38-6.4-.8-7.5 4.2-14.3 11.2-14.8 9.54 1.4 12.72 6.5 12.88 14.3-1.03 14.9-16.57 17.4-25.3 18.6-1.35.5-1.9 1.1 0 1.8l36.6.1 1.85 1.1c.23.8-.53.1-1.97 2.5-1.45 2.4-3.58 7.8-3.7 11.5-10.9 3.5-22.17 5-33.63 6.4-3.98 2-5.96 4.7-5.14 7.7 1.34 3.3 10.16 6.7 10.16 6.8 1.6 1 3.6 3.5-.5 8.5-17.9-.8-31.7-8.4-36.5-19.1-1.5-1.1-3 0-4 1.4-7 9-13.8 17.1-25.7 21.4-7.1 1.7-14.4-1.1-17.8-5.8-2.3-2.6-2.2-5.5-3.1-6.2-3.9 1.7-36.8 15.7-32.6 9.2 8-8.6 21.9-14.9 34.1-23.3.9-2.9 2.5-12.5 7.3-15.6.3 0-.8 5.6-.7 8 0 1.9-.2 2.7.3 2.2.8-.6 15.7-12.2 16.8-15.8 1.4-2.1.4-7.3.4-7.5-2.8-7.2-6.7-7.8-8.2-11.4-1.3-4.8-.7-10.2 2-11.7 2.4-2.2 5.2-2 7.9.4 3 2.7 5.6 7.92 6.4 11.83-.5 1.6-4-1-5.1-.23 2 2.2 3 4.7 3.8 7.76 1.9 8.2 1.3 11.4-.6 16.7-6.6 13.9-15.1 18.04-22.5 23.2-.2.1-.3 3.5 2.4 5.4.9 1 4.8 1.52 9.3.1 8.8-4.75 17.9-13.55 22.4-23.35 1.3-7.4-.5-15.26-2.5-22.1-2.9-6.7-6.3-16.3-6.3-16.43-.1-4.2.2-5.64 2.03-7.7zm-95.8-38.63c4.2 2 12.12 1.15 11.8-5.64 0-.6-.17-2.63-.23-3.18-.86-2-3.2-1.5-3.73.56-.2.7.2 1.8-.4 2.2-.4.4-1.7.2-1.7-1.7 0-.6-.5-1.2-.7-1.6-.3-.2-.5-.2-.9-.2-.6 0-.6.2-.9.7-.2.5-.4 1-.4 1.6-.1.7-.3.9-.8 1-.6 0-.4.1-.9-.2-.3-.3-.6-.4-.6-.9s-.2-1.3-.3-1.7c-.3-.3-.6-.4-1.1-.5-2.3 0-2.5 2.7-2.3 3.7-.2.2-.3 4.9 2.8 6.2z" fill="#fff"/>
    <path d="M235.1 187.73c4.22 2 14.25.85 11.8-5.64 0-.6-.15-2.7-.2-3.2-.87-2-3.2-1.5-3.74.5-.17.7.3 1.8-.32 2.1-.35.3-1.7.1-1.64-1.8 0-.6-.44-1.3-.7-1.6-.27-.2-.44-.2-.92-.2-.6 0-.58.1-.9.6-.14.5-.33 1-.33 1.5-.07.7-.32.9-.82 1-.54 0-.42 0-.87-.2-.26-.3-.6-.4-.6-.9s-.1-1.4-.26-1.7c-.23-.3-.6-.5-1.03-.6-2.3 0-2.46 2.6-2.33 3.6-.17.2-.27 4.9 2.87 6.2zm72-21.63c4.22 2 12.14 1.15 11.8-5.64 0-.6-.15-2.63-.2-3.18-.87-2-3.2-1.5-3.74.56-.17.68.3 1.78-.32 2.12-.35.35-1.7.14-1.64-1.73 0-.6-.44-1.24-.7-1.62-.27-.1-.44-.2-.92-.2-.6 0-.58.2-.9.7-.14.5-.33 1-.33 1.6-.07.7-.33.9-.82 1-.54 0-.42.1-.87-.2-.26-.3-.6-.4-.6-.9s-.1-1.3-.26-1.6c-.23-.3-.6-.4-1.03-.5-2.3 0-2.46 2.7-2.33 3.7-.17.2-.27 4.9 2.87 6.2zm37.3 54.33c-7.34 8.27-4.1 21.95-2.45 24.9 2.42 4.84 4.37 7.95 9.08 10.34 4.3 3.16 7.63 1.2 9.48-1.02 4.4-4.47 4.4-15.9 6.4-18.16 1.5-4.2 5-3.5 6.8-1.6 1.7 2.4 3.7 3.9 6.2 5.2 4 3.5 8.9 4.2 13.6.9 3.3-1.8 5.4-4.2 7.3-8.8 2.1-5.7.9-31.7.5-47.1-.1-1.2-4.2-21.2-4.2-21.5 0-.2-.5-10.2-.9-12.6 0-1-.3-1.3.7-1.2 1.1.9 1.2 1 1.9 1.3 1.1.2 2.1-1.7 1.4-3.4L390 129.4c-.8-.8-1.84-1.64-3.12.25-1.22 1.06-2.52 3-2.5 5.5.3 4.4 1.1 8.85 1.38 13.24l4.03 22.5c1.2 16.1 1.6 29.2 2.8 45.3-.1 6.8-2.3 12.7-4.3 13.6 0 0-3 1.7-5-.2-1.5-.6-7.4-9.8-7.4-9.8-3-2.8-5-2-7.2 0-5.9 5.7-8.6 16.4-12.6 23.7-1 1.6-4 3-7.2-.1-8.2-11.3-3.4-27.3-4.4-23.2zM309 126.67c3.77 1.58 6.43 9.22 5.57 12.96-.75 4.6-2.75 9.6-4.2 8.95-1.56-.58 1.07-4.6-.43-8.8-.84-2.73-5.98-7.74-5.44-9.2-1.07-3.1 2.2-4.46 4.5-3.9z" fill="#fff"/>
    <path d="M356.55 224.96c.8-9.18-.55-14.78-.78-20.17s-6.1-46.6-7.3-50.7c-1.43-7.7 5.7-1.1 4.92-5.6-2.5-5.7-8.7-13.9-10.6-18.8-1.2-2.1-.7-4-3.3-.6-2.4 7.9-3.3 14.3-2.3 19.2 6.2 32.3 12.5 59.1 11.5 89.9 2.9 0 6.3-6.8 7.7-13.4zm64.47-85.28c3.44 1.7 5.46 11.3 5.08 14.03-.7 5-2.52 10.4-3.83 9.7-1.42-.6.3-7.4-.4-9.5-.76-2.9-5.45-8.4-4.96-10-.9-3.3 2-4.8 4.2-4.2zM165.35 207.6c3.3 1.26 5.22 8.3 4.86 10.3-.6 3.68-2.4 7.65-3.6 7.13-1.3-.46.3-5.45-.4-7-.3-3.76-4.8-5.7-4.7-7.33-.8-2.98 1.9-3.53 4-3.1z" fill="#fff"/>
    <path d="M244.86 218.17c4.25.27 6.37 3.6 2.4 5-3.93 1.34-7.7 2.4-7.72 8.06 1.45 7.9-2 5.2-4.05 4.12-2.5-1.74-9.2-5.92-10.2-14.95-.2-2.15 1.5-3.97 4.2-3.96 4 1.1 10.1 1.2 15.3 1.73z" fill="#1b9d00"/>
    <path d="M77.4 124.4c4.85 1.45 5.14 8.6 4.78 10.68-.64 3.8-2.36 7.92-3.6 7.38-1.34-.48-.05-5.65-.7-7.26-.72-2.25-4.82-6.38-4.35-7.6-.92-2.54 1.88-3.66 3.87-3.2zm95.88 33.63c-3.73 2.02-5.17 8.02-2.85 11.52 2.17 3.08 5.6 1.94 6.04 1.94 3.65.4 5.82-6.9 5.82-6.9s.1-2.1-4.3 1.8c-1.8.3-2.1-.4-2.5-1.4-.4-1.9-.3-3.8.5-5.7.6-1.9-.8-2.7-2.9-1.4zm27.94-36.4c-1.87 1.25-5.6 5.12-5.7 9.56-.13 2.5-.6 2.5 1.05 4.1 1.2 1.7 2.38 1.5 4.78.3 1.38-1.1 1.84-1.7 2.3-3.4.58-2.9-3 1.3-3.46-1.8-.8-3 1.5-4.2 3.6-7.1 0-2 0-3.4-2.7-1.8zm22.5 4c-.8 1.78-1.76 11.1-1.6 11.1-.65 2.77 2.9 3.95 4.5.4 2.43-6.55 2.43-9.32 2.6-12.1-.76-4.22-3.6-4.1-5.5.6zm141.93 72.22c.48-.48 20-14.35 20-14.35 2-.7 1.56 7.15.64 7.1.3 1.55-19.3 14.88-20.7 14.35-1 .7-2-5.38 0-7.1zm17.8-.12c3.43 1.7 4.8 11.77 4.42 14.5.12 5.33-3.3 9.6-4.63 8.9-1.42-.63.13-6.6-.56-8.72-.76-2.9-3.68-8.5-3.2-10.1-.95-3.3 1.85-5.1 3.96-4.5zm-116.08 43.34c1.36-1.98 5.55-4.84 5.64-4.84 2-.97 3.9.76 3.8.65.4 1.93-1.2 3.73-.7 6.3.5 1.05.8 2.2 2.7 1.77 3.1-2.44 6-2.6 9.1-2.75 2.4.14 2.5 4.16 1 4.2-5.7 1.24-8.3 2.77-12.3 4.33-1.9 1.13-3.6-.3-3.6-.47s-1.1-1.1-.3-3.66c.2-2.06-.7-3.18-2.4-2.95-1.3.7-2.4 1.16-3-.32-.2-1.1-.3-1.63.5-2.26zm136.6 5.42c.84 1 1.38 2-.07 3.8-1.37 1.2-2.33 1.9-3.7 3.2-.64 1.1-1.06 2.7.92 3.3 3.65 1 12.1-4.5 12.1-4.6 1.36-1 .9-3 .78-3-.8-.9-2.6-.4-3.8-.5-.58 0-2.46-.3-1.57-2 .75-1.1 1.02-1.7 1.53-3 .57-1.3.08-2.1-1.97-2.8-2.1-.4-3-.2-5.3 0-1.3.2-1.7.8-1.9 2.3.1 2.3 1.5 2.2 2.9 3.1z" fill="#fff"/>
    <path d="M268.12 189.74c-.54.93-2.35.88-4.04-.1s-2.64-2.52-2.1-3.45 2.34-.9 4.03.1 2.7 2.5 2.2 3.4zm-89.08-53.6c-1 .26-2.33-.65-2.96-2s-.3-2.68.72-2.93 2.34.7 2.96 2.1.3 2.7-.72 2.9z" fill="#259f00"/>
    <path d="M355.24 374.97c9.35.46 18.14.1 27.5.56 1.68 1.44.47 4.98-.66 4.73-3.04-.08-4.8-.16-7.83-.23-.1-2.98-7.7-2.5-7.5.1-4.1.5-7.8-.15-11.9-.3-1.2-1.5-1.06-4.24.4-4.86z" fill="#209000"/>
  </g>
</svg>
