<svg xmlns="http://www.w3.org/2000/svg" height="480" width="640" viewBox="0 0 640 480">
  <path d="M640 480.02V.02H0v480h640z" fill="#006"/>
  <path d="M0 73.34h76.03L0 26.77V.03h43.5l106.36 64.72V.03h59.9v64.72L316.1.03H360v26.74l-76.42 46.57h76.4v73.37h-76.4l76.4 46.6v26.8H316.1l-106.33-64.8v64.8h-59.9v-64.8L43.5 220.1H0v-26.8l76.03-46.58H0V73.4z" fill="#fff"/>
  <path fill="#ce1126" d="M331.7.03L211.5 73.4h28.76L359.96.02h-28.3zm28.3 220L240.18 146.7h28.9L360 202.56v17.48zM120.38 73.37L-.02 0v17.53l91.38 55.84h29.02zm-.25 73.32L0 220h28.73l120.16-73.3h-28.8z"/>
  <path fill="#ce1126" d="M0 88.56h162.6V.03h35.2v88.53h162.17v42.96H197.8v88.5h-35.2v-88.5H.02V88.56z"/>
  <path d="M607.6 274.47c-.2 73.48-11.78 152.68-106.9 190.35-95.13-37.67-106.65-116.87-106.92-190.35h213.88z" stroke-width="5" fill="#8fc5ff" stroke="#fff"/>
  <path d="M500.65 464.86c43.1-17.1 69.07-42.75 84.6-72.45-2.34.1-7.2 0-9.27-.2-2.34-.1-91.26-9-101.7-12.9-9.23-3.3-44.1 2.9-60.48 8.7 15.2 31.6 41.58 59 86.85 76.9z" fill="#366cc9" stroke-width="4.95" stroke="#000"/>
  <path d="M434.18 419.28c1.44-.45 4.23-.36 5.3-.18 1.36.3 1.6.45 2.04-1s1.53-1.03 2.34-.35 2.92.36 3.78-.8c.9-1.18 1.08-1.05 1.9-.24s1.16.6 1.97.4c.9-.2 2.3-1.1 3-2.4s1.8-1.8 2.4-1 1.2 1.1 2 .9 1.1.7.9 1.8c0 1.1.5 1.3 2.4-.3 1.8 1.7 2.4 1 2.4-.9 0-1.8-.4-8.7-1.1-9.6s-1.3-3.6-1.5-5.7c-.2-3.9-.2-4.2-4.9-6.6 0-1.4-.4-2-3.8-1.8.1-.4-.4-1.8-1.2-2.4s-.9-.9-.4-2.4c1.4.2 2.9 0 3.7-1.2.8-1.1 3.5-.9 5.2-.2s3.7.9 6.9.4c1.2-.9 3.2-1.9 5.3-3.1 2.1-1.2 2.7-1.6 2.7-3.3.4-4.2-1.1-9-2.2-11.2-1.2-2.2-1.6-4.9-3.2-8.5-1.8-3.8-1.8-4.8-3.8-7.1-.5-.6-1.2-1.2-1.4-2.4 0-1.3-.5-3-1.9-4.3-3.5-3.2-4.9-13.7-6.3-21.4-.8-4.4-.2-14.8-2.1-16.4-3.1-2.6-4.7-2.1-6.7-2.9-1.5-2.1-2.2-6.3-3.6-10-2.2.3-3.7 2.7-5.3 3.5s-1.8.9-1.8 2.9c0 2.1-1.1 5-3.2 8.3-2.1 3.3-5.6 2.4-8.6 7.3-6.3-7.8-6.5-10.1-6.9-12.3-.4-2.2-1.5-2.7-5.1-5.8 0-1-.5-4.7-.1-6.8-2.7-2.2-4.7-1.8-6-.2-1.2 1.7-2.2 4.1-4.2 5-1.2 1.6-4.8 5.4-7.7 9.9 2.7 40.7 11.9 81.1 39.5 113.4z" fill="#5d3100" stroke-width=".63" stroke="#000"/>
  <path d="M607.6 274.47c.1-27.68-1.43-54.6-.75-78.12-35.55-15.84-82.35-19.13-106.2-19.13-23.85 0-70.65 3.3-106.2 19.17.77 23.5-.8 50.4-.72 78.1H607.6z" stroke-width="4.86" stroke="#fff" fill="#ff0"/>
  <path d="M394.6 297.9c1.18 1.85 3.28 5.06 3.5 6.8.83-1.68 1.47-2.44 1.65-3.5s1.4-3.08.93-4.2-.82-1.97.46-1.15c1.28.8 1.04 2.23.76 4.3-.76 5.72-3.15 6.9-3.5 10.74 3.44 8.1.88 11 4.6 18.9.6.3 2.15-.3 2.6-.2 2-1.4 3.47-.9 6.27-.3 2.8.5 4.3 2.5 4.3 4.3s0 2.2.6 3.2 1.75 2.7 1.5 3.8c-.22 1.1.25 1.8.6 2.4s-.12 1.8-.47 2.7-.23 1.8 1.17 3.6 4.66 9.1 4.66 13.4c0 4.3.23 6.3 1.98 7.1 1.8.8 2.4 1.5 2.1 3.4s.9 11.5 1.1 13 .8 1.2 1.5 2 1.2 1.7 3.5 1.7 4.6-.3 6.1-.1c2.1 2.9 3.4 6.9 3.9 9.3s.5 5.8 1.3 5.8 1.7.1 1.4-2.9-.4-3.5-1.5-5-1.6-2.2-1-3.2.7-2.5.5-3.7-.5-2.9 1.4-.6c2 2.3 2.6 2.9 3.2 3.7s.8 2.3.7 3.7c-.1 1.4.1 2 1 1.3s1.9.4 1.4 2 .1 2.4 1.5 2.9 2 .8 2.4 1.8 1.5 1.5 1.5-.6-.8-6.5-1.4-7.9c-.5-1.4-1-4.4-1.1-6.2s-.5-2.2-1.3-2.6-1.5-.9-1.6-1.8-.8-1.1-1.3-1.1-1-.4-1.3-1-.5-.7-1.1-.7-1.5.3-1.8-.7-.7-2.3-1.3-3.1-1.1-1-1.2-3.6c0-2.6-.1-3-.9-3.9s-2.2-3.4-2.8-4.4c-.6-1.1-1.1-2.1-1.1.1s0 3.4 1.4 4.2c1.4.8 1.8.8 1.2 2s0 2 .2 2.8.7 1.6 0 2.4c-.7.8-1.4.6-1.3-.7.1-1.3-.3-2.8-.9-3.8-.6-1.1-1.1-1.8-1.8-1.2s-1.3-.1-.8-.6.4-.8 0-1.2-.4-.7.2-1.4.6-1.1.3-2.7c-.3-1.7-2.9-9.8-4.1-11.7s-1-3.3.5-1.4 2.8 3.5 2.9 5c.1 1.5.5 2.4.9 3s.8.36 1-.93 1.2-.8-.5-3.3-4.7-6.5-5.8-13.9-1.6-12.2-2.8-14.2-1.5-2.4-1.6-4.3 0-3.7-.8-5.1c-.8-1.4-1.4-1.7-1.5.4-.2 2.1.1 6.76.7 7.6s.2 2.9.1 4.1-2 2.35 1.8 4.7c1.6.95 1.3 2.2 1.1 3.05-.2.8-.4.7-1.2-.6-.8-1.3-1.6-2.4-2.4-3.1s-.9-1.13-.8-2.8.5-2.8 0-3.35c-.4-.6-.7-.1-.9.8-.2.9-.4 3.5-.9 4.2s-.7.2-1.1-1.3.1-3.85 1-6.54 1.3-5.5.6-8.96c-.7-3.5-.3-4.56-3-7.5-2.7-2.9-5.7-5.7-7-9.3-1.3-3.6-1.5-6.75-2.9-8.4-1.4-1.6-3.4-3.7-4.7-4.3V284c0-1.26-.6-2.1-2.1-1.84s-2.4 1.5-3.4 3.25c-.9 1.8-1.6.9-2.9 4s-3.1 4.6-3.1 7.8z" fill="#cf6200"/>
  <path d="M403.05 332.08c.93.58 1.82.97 3.22.27s3.08-2.72 4.94-.73c1.9 1.97 3 5.24 3 7.8 0 2.57 0 7.35 2.9 10.03 2.9 2.68 4.5 5.48 4.6 8.98.1 3.5 1.4 8.86 1.8 10.26.4 1.4 1.2 3 2.1 3.9s1.7 3.6 1.8 6.4c.1 2.8-.3 4.8 0 6.2s0 2.5-1 1.8-1.2-1.1-1.8-2.2-1.3-1-.7.8 2.4 3.4 3.9 3.4 2 .2 2.9 1.1c1 .9 1.1 1.4 2.7 1.4s1.9 0 3.4.4 1.5.2 2.3 0 1.7.4 2.2 1.9 2 5.7 2 6.9 0 2.3.8 3.5.6 2.3-.3 1.6-.9-.5-1.6-.4-1.1-.3-2.1-.8c-.9-.6-.3-.5-1.2-1.9s-1.5-1.9-1.5-.8-.1 2.3-.8 1.7-1-.6-1.6 0-.8 1-1.5-.2-1.5-1.2-2.2-1.4-.7-.2-1-1.3c-.4-1.1-1.4-1.3-2.3-1.3s-1.4-.5-1.6-1.2c-.1-.7-.7-1.2-1.1-1.5s-.2-1.2-.3-2-.8-.5-1.3-.7-.8-.1-.8-1.3-.4-1.6-.8-2.4c-.3-.8 0-1.6.3-2.6.2-.9.1-1.5-.6-2.3-.7-.8-.1-1.6-2-3.3s-2.8-.2-3.4-4.1c-.6-3.8-1.7-11.8-2.8-13.1s-1.7-2.2-2.8-2.6-1.7-.1-1.8-2.3c-.1-2.2-.8-5-2.2-6.4s-2-1.9-2.7-2.5-.9-1.6 0-3.6c1-2 .6-4.7.5-6-.1-1.3-.5-2.9-.2-4.3s.1-3.2-.3-4.1-.8-1.2-.2-1.9zm28.08-33.16c-1.58 2.03-3.26 3.73-5.44 5.3-2.2 1.54-5 2.8-3.5 5.43 1.5 2.64 2.8 2.95 3.1 4.97.3 2.02.8 3.74 2.3 4.2 1.5.47 2.2.16 2.2 3.42s0 4.5 1.4 5.75 1.2 2.4 1.8 5.4c.6 2.9.6 9.3 2.5 13.7s6 12.6 5.6 14.3-1.1 2.9.7 4.9c1.9 2 3.1 4.9 3.3 6.7.1 1.7.4 2.3 2.3 1.7 1.8-.6 2.8-1.3 3.4-2 .6-.8 1.8-.7 3.6.3 1.7.9 4.3 1.8 5.9.9 1.5-1 2.3-2.4 3.7-2.4 2.1-1.6 2.9-4.8 3.4-5.8.4-1 .1-1-.8-1.9s-.5-2.5-.6-4.1c-.2-1.6-.8-3.9-2.7-7.3-1.9-3.5-3-7.7-4.2-8.7-1.2-1.1-1.9-3.8-2-5-.2-1.3-1.6-2.3-2.5-3.3-.9-1-1.9-2.4-3-7.8-1.1-5.5-1.9-9.4-1.9-10.3s-.2-1.1-1.1-1.4-1.4-1.9-1.1-2.7c.3-.8-.3-1.6-.6-2.5s0-2.6.6-3.6c.6-.9.4-3.6-.2-5.8s-1.3-4.1-3.8-4.4c-2.5-.3-3-1-3.9-3-.9-2-1.9-5.6-2.2-6.4-.3-.8-.8-.9-2.6.6s-2.5 2-2.5 4.9c0 1.8.3 2.5.9 3.6.6 1.1.7 1.4 1.2 4.4s3.1 7.6-.3 10.2c-3.5 2.6-3 3.2-2.8 5.1.1 1.8-1 3.1-1.6.4-.6-2.6 0-4.2 1.9-5.4 1.8-1.3 3.6-2.8 2.3-4.5-1.3-1.7-1.7-5.8-1.9-7.6s-.5-2.5-1.6-1.1z" fill="#cf6200"/>
  <path d="M403.4 338.54c-.08 1.26.2 2.65.3 3.77.12 1.3.47 4-.46 6-.94 2-.7 3.1 0 3.6l.1.1c1.9-.6 2.16-2.7 1.65-3.8-.6-1.1-.4-2.4.2-3.5s.6-1.7.1-2.5c-.6-.7-.6-.7 0-2.9.5-1.9-.9-1.9-2-.7zm19.92 30.15c-.35-1.4-1.63-6.8-1.75-10.3-.1-3.5-1.62-6.3-4.54-9-2.27-2.1-2.77-5.5-2.88-8.1-1.7-1.1-2.43-.6-2.3 1.3.17 2.1 2.26 3.1 1.96 6.1-.3 3-.3 2.2 1.2 3.7s2 2.8 1.3 3.5c-.7.6-.8 1.7.3 2.1 1.1.4 1.2 1.5 1 2.6-.1 1.1.9 1.3 1.5 2.1.7.7.7 2.6.1 3.7s-.7 2.8.4 1.9c1.1-1 1.6-.1 2.4 1.4.8 1.2 1.4.8 2.2.5a9.84 9.84 0 0 1-.6-1.8zm15.17 27.1c-.7 1.4-1.6.9-2.3.2s-1.5-.7-1.2-2 .2-1.5-.7-2.2c-.1-.1-.2-.2-.4-.3h-1c-1.7 0-1.8-.5-2.7-1.4a7.84 7.84 0 0 0-.6-.6v.8c0 1.3 0 1-1.3 1.4s-1.1-1.3-1.3-2.4a3.85 3.85 0 0 0-.2-.7c-1.4-.3-2.9-1.8-3.4-3.4-.6-1.8.1-2 .7-.8s.8 1.5 1.8 2.2 1.4-.5 1-1.9c-.1-.4-.2-1-.2-1.5-.3-.5-.6-.8-1.1-1-1.8-.9-1.2-1.1-1.1-2.6.1-1.6-.2-1.6-1.4-.7-1.2.8-1.3-.2-1.3-2.5s-1.5-2.3-1.8-.7c-.4 1.6-1 .6-1.7-1.8s-1.6-2.9-1.7-.7c-.1 1.8-.7 2.3-1.9 1.3l.5 3.6c.6 3.8 1.5 2.4 3.4 4.1s1.3 2.4 2 3.2c.7.8.8 1.4.6 2.3-.2.9-.6 1.7-.2 2.5.3.8.8 1.2.8 2.3s.4 1 .8 1.3c.3.1.7 0 .9.2.3-.4.6-.9.9-1.3 1.4-1.4 3.5.1 4.2 1.9s1.5 2.2 2.5.8.7-1.2 1.9.1 1.6 1 1.6 1 1.1-.4 2 .3 1.2.6 2.8-1.6c1.5-2.2-.7-1.5-1.4-.1zm4.1-64c.4-3.4.1-6.9 1.5-8.1 1.4-1.3 3.1-3.8 2.9 1.5-.2 5.3-.3 5-1.4 6.2-1.1 1.2-2 1.5-1 3.5 1.1 2 1.2 2.2 1.1 5.3-.2 3.1-.2 4.3 1.1 5.9 1.2 1.5 1.5 1.7 1.8 3.4.3 1.7 1.4 4 2.8 5.3s2.9 4.8 3.1 7.3c.2 2.5 2.3 3.1 4.4 4.8 2 1.7-.5 2.9-2.1 2.1-1.6-.8-.9 0-1.9 1.1-1 1.1-1.3 1.2-2-.6s-3.5-3.1-4.7-3.6-2.4-2.5-3.5-4.5c-1-1.7-2.8-3-4.5-3.1.4 1.3.7 2.3.6 2.8-.5 1.7-1.1 2.9.7 4.9 1.8 2 3.1 5 3.2 6.7.1 1.7.4 2.3 2.3 1.7 1.8-.6 2.8-1.3 3.4-2 .6-.8 1.8-.6 3.6.3 1.7.9 4.3 1.9 5.9.9 1.5-1 2.3-2.4 3.7-2.4 2.1-1.5 2.9-4.8 3.4-5.7.4-1 .1-1-.8-1.9s-.5-2.5-.6-4c-.2-1.6-.8-3.9-2.7-7.3-1.9-3.4-3-7.6-4.2-8.7-1.3-1.1-1.9-3.8-2-5-.2-1.2-1.6-2.3-2.5-3.2-.9-1-1.9-2.4-3-7.8-.9-4.3-1.5-7.6-1.8-9.2-1.1 1.7-1.9 2.2-2.3 1-.5-1.4-1.1-2.2-1.7-1.3-.6.9-.8-.8-.8-1.6s-.2-1-.9-1-.2-1.2-.5-3.6c-.3-2.3-.7-2.7-1 .1-.3 2.8-1.9 4.5-1.3 5.1.6.6.3 1.9-.3 3.7s-.3 3 .2 4.2-.3 3.6-.7 5.6c-.3 2 1.3 4.1 1.7.6zm-28.4-27.9c-1.2.1-2 1.1-1.3 4.6.4 2.2-1.3 1.7-1.9.6-.6-1.1-1.1-3.5-2.4-5.5-1.3-2-.6 1.4-.8 3.2-.2 1.8 1.1 1.8 2.1 3.4 1.1 1.5.1 2.1-1.1 2.1s-.6 2.5-.3 4.2-.3 2-1.3.6-.3-3.6-.2-6.2c.1-2.7.3-2-1.4-2.7-1.7-.6-1.4-1-.8-2.5.6-1.6 1.2-2.3.4-3.1-.8-.8-.6-1.3.6-1.4 1.2-.2.8-1.1 1.9-1.4 1.1-.3 1.5.1 1.7-1.9.1-1.7.7-2.7 2-2.2.7 2.6 1.7 6.6 2.4 7.8zm15.6 18.3c0 3.2 0 4.5 1.4 5.7s1.2 2.5 1.8 5.4c.6 2.9.6 9.3 2.5 13.7.5 1.3 1.3 2.9 2.1 4.6 1-.8 1.9-2.2 2.2-3 .4-1.1-1-3.3-2-5.2-1.1-1.9.1-2.5 1.2-4.9 1.1-2.4-.2-2.5-1.9-3.1-1.7-.7-1.7-2.2-2.7-4.7s-.8-3.6-.2-5 .1-2.5-1.1-2.8c-1.3-.3-.9-1.3-.5-2.8.4-1.6.7-1.9-1.1-1.4-1.4.3-1.8.6-2.2 1.1.1.4.2 1 .2 2z" fill="#00b800"/>
  <path d="M447.77 328.76c-.17 1.86-.15 2.8-.62 3.42-.46.62-.15 1.55.32 2.5s.77 2.16.3 3.87.3 3.1 1.25 3.58 1.4 0 1.1 2.17c-.33 2.18.92 4.5 2 5.45 1.1.93 1.87 2.48 1.72 3.42-.16.93.78 1.86 1.86 2.33 1.1.46.94.62.94 1.24s.46.62 1.7.93 2.18 1.1 3.58 2.8 3.42 2.65 3.1.78 0-3.1-1.86-4.04c-1.86-.9-3.26-5.4-4.04-8.5-.78-3.1-3.26-7.3-4.66-8.1-.16-2.2.16-3.2-1.24-4.3-1.4-1.1-1.87-2.5-1.87-3.6s-.78-2.5-1.4-2.8c-.62-.3-.93-1.1-.93-2s-1.1-.7-1.25 1z" fill="#5d3100"/>
  <path d="M439.52 412.16c2.8-.23 10.38-2.45 11.2-3.15 1.85 1.3 5.12 3.1 6.52 3.1-2.68.6-4.43.3-5.13-.2.4.9 1.3 2.1 1.9 2.3-2.5-.1-5.4-.7-6.4-1.6-2.2 1-5.9 1.2-8-.2zm5.02 3.5c1 .3 5.95 1.1 6.6 1.1-1.64 1.4-.24 2.75 2.5 2.52-1.34.17-2.8.68-1.8.87 2.38.47 8.85-1.28 10.13-1.98-2.2 2.86-13 5.48-17.43-2.5zm4.45 7.1c1.3-.7 4.6-.47 6.2.28-1.8.65-5.2.65-6.3-.3z" fill="#00d860"/>
  <path d="M453.96 422.66c2.4-.4 9.16 1.23 11.55-.23-.8 2.16-5 2.45-6.5 1.98-1.4-.4-2.8-1-3.8-.9.6-.3-.3-.3-1.1-.7z"/>
  <path d="M456.43 425.98c1.8.3 8.28-.52 10.26-1.28 2.1.7 6.2 1.8 7.1 1.7-2 1.2-5.8.5-7 0-3.5 1.15-6.4 1.5-10.5-.42z" fill="#00d860"/>
  <path d="M459.53 427.06c2.6.58 4.8.17 7.34-.7.8.35 2.67.77 4.43.7 1.17.66 2.74 1.6 4.26 1.7-1.58.65-7.35 0-8.5-.64-2.93.06-7.94.7-9.16 1.7-.06-.82.47-1.96 1.63-2.76z" fill="#00d860"/>
  <path d="M456.43 413.9c2.02.7 9.33.36 13.06-1.4 1.4-.68 2.3.48.7 1.06-6.1 2.1-10.9 2.92-14.4 1.05-1.4-.7-1.5-1.4.6-.7z"/>
  <path d="M492.23 404c-8.97 4.2-14.92 5.48-27.4 1.63-1.16-.36-1.98 0-.7.82 1.3.8 8.16 2.68 9.8 2.8s1.05.87.06 1.16-1.3 1 0 .5 8.8-.7 11.9.9c1.3.7 1.7.6 1.5.1s.6-.8 1.5-1 1.6-.4.8-.7-.9-.4-.3-.7.6-.6-.3-.7-1.5-.4-.7-.8 2-.7 3-.8c.2-.6-.2-2.3.5-2.9z" fill="#00d860"/>
  <path d="M477.3 405.07c5.13.37 14.57-1.98 19.58-6.87 1.75 1.04 4.2 2.2 5.48 2.44s2.45 1.4.47 1.4-4.78-.8-6.06-1.4c-6.65 4.1-14.43 5.43-19.36 5.02-1.4-.12-1.7-.7-.1-.6z"/>
  <path d="M462.13 377.08c1.75 1.22 4.84 3.26 8.86 2.97 1.9 1.57 5 2.9 6.4 3.2-2.7 1.12-5.6 2.05-6.4 2.92-1.3-1.16-2.8-1-3.2-1.57-1.2.93-1 1.5-.3 1.98s6.6 1.46 8.1 1.05 1.8.8.6 1.22c-3.2 1.1-9.3.06-11.4-3.32-2.1-3.38-3.9-4.66-9.6-1.57-.7-1.64-.7-2.04-1.8-2.04s-3.2-1.46-1.6-1.4 6.2-.65 10-3.44z" fill="#00d860"/>
  <path d="M463.52 384.57c-.97.24-3.73 1.75-4.72 1.87-1 .1-2.74 1.5-.93 1.57 1.8.1 4.13-1.9 5.42-2.1s1.4-1.6.2-1.3zm5.65 5.92c-.7.1-3.67.8-4.48.7s-1.7.2-1.6.7.3.9-1 .8-2.3.3-2.6.7-.5.7.7.8 1.8.2 3.2-.4 2.7-1.7 4.2-1.7c1.5-.1 3-2.1 1.3-1.8z" fill="#00d860"/>
  <path d="M465 394.08c1.27.83 7.58 2.98 9.85 2.8s1.85.9.12 1.3c-3.56.74-7.9-.8-10.84-3.16-1.46-1.17-.12-1.58.87-.94z"/>
  <path d="M494.83 397.18c-4.82 1.54-9.73 1-11.7.46s-3.8-.64-2.46.65c1.34 1.2 5.65 2.1 8.1 1.5-8.7 1.9-10.96 1.8-13.1 1.4-2.17-.4-6.22-.3-7.94-.1-1.28.1-3.03-.1-3.8-.5s-.98-1.4 1.3-1.1c2.26.2 2.56-.3.57-.6s-4.72.5-2.04 2.2 8.57-.2 12.3.9c3.73 1 11.66 1.8 19.18-4.3.4-.3 1.05-1.2-.4-.7zm-23.68-7.1c.17.6.17 1.23 0 1.64s-.18.94.58.35 1.22-1.28 1.98-.87 2.7.35 3.6.23c.9-.12 1.2-.3-.1-.82-1.3-.5-2.5-.7-3.2-.6s-1.6-.1-2.1-.3-.7-.1-.6.5z" fill="#00d860"/>
  <path d="M483.57 392.33c-1 .06-2.74-.58-3.67-1s-2.27-.45-1.28.9c1 1.33 5.3 2.1 6.82 1.45s.88-1.35 2.4-.4c1.5.92 3.08 1.56 4.2 1.56s1.5 0 .28-.7-1.8-.87-1.93-1.46-.3-.93.8-.58 2.4 1 3.2.53 2.5-1.52 3.9-1.52l.3-.8c-2.1-.1-3.5.5-4.1.7s-1.7.4-2.8.2-2.6-.3-2.9-.6-.4-.5.6-.7 1.2-.8-.1-.6-4.7.1-6.6-.4c-1.8-.5-2.6-.6-3.3-.3s-.7 1.1.4 1.2 3.6.3 4.5 1.1.7.9-.3.5-2.8-.2-.9 1.2zm15.2-2.1l-.34.87c2.16-.06 7.4.47 9.1 1.52 1.63-1.3 1.34-1.7 2.5-1.46s2.63.64 3.27.3 1.1-.3 1.8-.2c.7.13 2.22-.16 3.1-.7s2.68-1.2 3.73-1.2 2.32-.24.4-.54c-1.92-.3-4.84.3-5.83.65-.98.35-3.96.58-5.7.58s-4.14.87-6.13.35-4.72-.18-5.9-.18z" fill="#00d860"/>
  <path d="M525.8 389.2c-3.5 2.56-7.7 3.14-12.72 3.5-1.45.1-1 .5.24.63 5.24.53 11.3-1.4 13.3-3.5.56-.6.5-1.6-.83-.64z"/>
  <path d="M501.97 395.16c1.5.06 6.76 1.4 8.45 1.98 1.28-.1 1.63-.4 1.4-.87s-.4-1 1.92-.88c2.33.1 7.7 0 8.7 0 .8-.4 2.6-1.8 3.43-1.8-2.1.1-10.84.6-11.95.4s-1.7 0-2.4.4-1.1.6-1.98.2-2.45-.8-3.32-.3c-.87.5-2.68 0-4.25.7z" fill="#00d860"/>
  <path d="M522.42 395.43c.82-.35 2.62-1.75 3.44-1.8 1.52-.13 3.27.52 4.08.63s1.7-.06 1.1-.7-.05-1.75 2.34-1.46c2.4.3 3.62.7 5.95.47s3.38 1.52 7.8-.23c-.34 1.75.48 1.86 1.3 1.5s1.74-.22 3.14.83 9.9 1.17 11.9.82c1.97-.4 3.02.7 1.5 1.1-1.5.4-1.86 1.1-1.5 1.6.34.4.7 1-1.17.8-1.87-.3-2.22.3-3.15 1s-1.17.9-3.73.4c-2.57-.5-3.03-.2-4.43.1s-1.8.2-3.2-.3-4.5-1-6.3-.4-3.3 1.1-4.9.7-1.8-.3-.7-1.3 1.3-1 3.2-1.2c2-.3 3.5-.8 2.1-1.7s-1.9-.7-3.8.2-2.8 1.5-4.9.3c-2.1-1.2-3.2-1-4.6-.6s-3.8-.5-5.7-1.3zm7 3.5c-2.67.38-3.38-1.34-6.17-1-.94.13-2.5 1.3-.35 1.1 2.15-.16 4.48 1 6.58.83s1.17-1.1-.06-.93zm-3.1 2.02c1.4-.5 4.32.46 5.55.23s2.4.53 1.1.93-4.37-.7-5.77-.3-2.8-.1-.87-.8zm-27.85 7.54c1.92 0 8.86-.3 11.6-6.1.2-.5.4-.7 1.28-.1s4.08 2.5 10.1 3c1.67.1 3.5 1 .1.7s-8.75-1.1-10.55-2.2c-3.03 4.7-8.48 5.3-12.53 5.2-2.45-.1-1.86-.7 0-.7z" fill="#00d860"/>
  <path d="M513.45 400.54c-.93 1.3-4.14 3.5-5.6 3.62-1.45.12-5.82-.3-6.93-.7s-2.45-.3-.88.82 5.48 1.86 7.05 1.5c1.5-.34 3.3-.86 4.6-.1s3.5 2.2 4.8 1.92c1.3-.3 4.1-.3 4.9.1.8.42 2.4 1.65.1.95s-4.2-.12-5.2-.6c1.2 1.65 3.8 4.27 6.1 4.27.5 0 .8.94-.3 1.46 1.1.52 3.6.93 5-.3-.4.48-.2.77.4 1.06s1.3.7.2.8-3.5.42-4.2.13c2.2 1.46 8.1 3.8 14.1 2.62 1.1-.3 1.7-.7-.1-.7-3.9.1-4.1 0-4.8-.4-.7-.4-.6-.8.5-1.1 1.1-.4 3.9-.8 5-.8s2.3-.5-.1-.5-5.3 0-6.5-.4-2.1-1-.8-1.8 2.5-.6 3.1-1.4c-3.9-.1-8.6-2.1-6-4 .6-.5.4-.5-.6-.6s-3.9-1-5.1-1.7-.4-1.3.5-1.5c-2.3.4-6.8-.8-9.8-3.1zm34.2-.1c-2.1 1.6-6.07 2.23-7.77 2.23s-1.92.58-.58.76 2.8.35 3.38.17.94-.23 1.8.18c.88.4 2.75.64 4.38.12s4.3-.76 5.42-.7 2.33.1.12-.53c-2.2-.64-5.83-.17-6.7.06s-3.27.06-2-.35 2.4-1.05 3.04-1.58c-.46-.1-.75-.23-1.1-.35zm-1.1 4.55c-1.8 1.3-4.42 2.6-7.1 2.7 2.45.9 4.5 3.4 6.06 3.2-.7.4-1.6 1.1-2.6 1.2 1.5.4 4.1-.1 6.2-1.2 3.5 1 8.1.3 9.6-1-2.3 0-5-.8-6.2-1.9 1.1 0 2.2-.7 2.7-1.4-2.6.4-7.1-.8-8.4-1.9z" fill="#00d860"/>
  <path d="M542.84 412.3c1-.12 1.92-.82 2.67-1.28-1.9.64-10.3-.7-12.8-2.92-2.5-2.2-2.5-.53-.7 1.05s4.9 3.97 10.9 3.15zm6.14 5.34c-1.05.58-6.06.93-7.7.58s-2.32-.17-1.9.47.57 1.2-.77 1-3.7.1-4.7.4c-1 .3-2.2 1.2-.1.8s4-.8 5.6-.4 7.2.5 8.3 0 .4-.5-.1-.5-.7-.4 0-.7 1.4-1.4 1.5-2zm-48.5-6.78c-2.1.94-9.1 2.8-10.95 2.92-2.33 1.05-4.2 1.63-5.36 1.63.8.7 3.96 1.4 5.24 1.1-.7.7-2.3 1.5-2.9 1.9 1.9-.2 4.1.3 5 .4-2.4 1.4-5.8 1.9-7.5 1.7.6.8 1.4 1.7 2.5 1.7-2.2.6-4.9.6-6.3.2.6 1.2 1.2 1.9 2 2-1.9.3-4.2.6-6.2-.6 1.5 2 4.9 2.7 9.9 2.1 5-.6 9.2-2.8 10.4-3.7-2.1.2-4.9.4-6.3.1 2.8-.7 8.9-3.3 9.9-4.3-1.1 0-2.3-.4-3.1-.9 1.7.2 7.4-.4 9.1-1.1-2.1-.5-3.4-1.7-3.9-2.6 7.4 2.4 15.5 1.6 19.5.6.9-.2 1.1-1.4-.8-1.3-3.2.3-9.5-.7-11.2-1.5 1.6 1.2 3.4 1.9 4.7 2.1-3 .8-7.2 1.4-13.4-2z" fill="#00d860"/>
  <path d="M486.5 418.36c.57-.35 2.2-1.17 2.9-1.87-1.28.3-4.43-.4-5.24-1.1 1.16 0 3.03-.6 5.36-1.7-4.2-.1-7.1-.1-8.63-1s-4.4-.6-5.4-.4-.7 1.9 3.7 1.5c-1.9 1.3-6.9 1.7-8.8 1.3.4 1.5.8 3 .3 3.8 2.4 1.4 8.8 3.1 12 2.9-2.8-1.1-4.3-2.3-2-2.5s3.6-.7 5.6-1.3z" fill="#00d860"/>
  <path d="M479.27 425.94c5.58-.47 13.05-.57 19-5.6 1.52-1.28 2.54-.85 1.05.47-3.14 2.8-10.96 6.7-18.42 6.8-3.04.1-4.43-1.4-1.63-1.6z"/>
  <path d="M521.08 416.7c-1.4.52-5.3 1.16-6.47 1-1.1-.2-2.8-.25-3.7.34s-1 .93.3 1.05 2.9.2 3.7.1c-1 .6-1.7 1.4-2 1.7 1.9-.5 5.3.3 6.3.9-.7.2-1.6-.1-2.3-.4 3.2 3.3 12.5 3.3 14 2.7-.7.5-1.3 1-2 1.2 2.6.4 5.7.4 8.7-1.4-1 .2-3.9-.1-4.7-.2a5.6 5.6 0 0 1 2.3-1.4c-1.1-.3-4.8-.2-5.7.3.4-.7 1-1.6 1.7-1.9-4.6 0-10.2-.1-12.2-1.2 3.3.3 6.9-1.6 8.4-1.6-2.6-.1-5.4-.7-6.1-1.7zm-11.7 2.55c-2.28.47-5.72 1.4-6.65 1.93s-1.93.8.1.8 7.6.25 8.8.42c-3.08-.46-7.27-.58-8.1-.58s-1.74-.06-.22-.53 3.5-1.6 6.1-2.1zm-4.63 5.43c.8 0 4.37 0 5.77-1.22 1.46 1.1 4.26 2.68 6.06 2.68 1.8 0 1.63.46.06.64-1.57.17-4.66-.76-6.24-1.92-2.1.75-3.84.1-5.65-.18zm-27 15.7c3.6 1.4 8.4 2.46 11.88 1.3 1.98 1.74 6.07 1.86 8.28 1.4 2.3-.48 4.2-.7 6.7.1 2.5.82 7.5.88 8.9 2.04-1.3.06-4 0-4.6.18-.6.17-.3.58.9 1.22-3.9-.23-10.8 1.46-12.8 3.27.8-1.9 3.1-4.3 6.8-4.3-2.1-.8-8.8-.8-10.9.5-.6-.7-1.4-1.9-1.5-2.4-3.5 2-10.5-.9-13.3-3.5zm-9.25-6.55c4.3-.6 7.23-1.98 8.52-3.26.75.7 3.9 1.4 7.34.35-.7.52-.76 1.5-.47 2.04-2.3.06-6.6 1.17-8.1 1.93-1.5.7-5.7 1.2-7.1.5-1.4-.8-1.5-1.4-.3-1.6z" fill="#00d860"/>
  <path d="M483.9 432.98c-2.3.06-6.6 1.17-8.06 1.93.3.6.47 1.6.53 2.2 4.2-1.5 13.8-2.4 17.5-1.8-1.76.2-5.1 2-6.95 2.2 4.54-.3 8.98.6 10.14.9 1.17.3 1.4 1.2.53 2s-1.3 1 .5 1c1.8.1 5.7-.2 7.4-1.8-.7-.8-2.5-.5-3.1-1 1.2-.4 2.6-1.3 3.1-1.9-3.2 0-4.3-.1-5.4-.3-1.1-.2-1.8-.5-.5-1.2s1.8-1.3 2.2-1.7c-2.3.6-5.9 1.2-8.8-1.2 1.1.3 3.7.2 4.6-.3-1-.5-1.8-.9-2.7-.9 2.4-1.1 7.1-2.2 12.9.1 2.9-.2 6-.1 8.3.5.9-.9 2.9-3.2 3.9-3.7-6.9.6-19.2-.7-19-4.3-2.2 2.9-7.3 4.6-9.6 4.1-.3 1.1.7 2.4 1.5 3.1-2.4.5-6.3.8-8.2.5 1.1 1.1 3 2 4.2 1.9-2.4 0-3.7.5-5.6.3z" fill="#00d860"/>
  <path d="M498.15 441.2c1.87.05 5.72-.18 7.47-1.87-.7-.76-2.5-.47-3.03-1 1.2-.4 2.6-1.28 3.1-1.92 4.9-.4 9.2-.1 11.3-.8 2.1-.6 7.4-.3 8.5-.6-4.7.8-5.6 1.2-5.9 2s1.5 1.4 2.6 1.4c-2.1-.1-4.7 2.1-5 3-2.8-1.6-4.2.3-4.5 1-1.2-.4-5-.3-7 1.4-2.6-.7-4.3-1.1-6.9-.7 1.6-.3 1.3-1.4-1.1-1.6zm22.4-13.65c1.57-.06 5 .12 6.23-.06-.82.4-1.87 1.1-2.1 1.5 3.96-.5 9.38-.8 10.96-.5-1.92-.3-3.9.9-4.9 1.5s-.4 1 .93 1.2 3.15 1.2.7.8-7.28-.4-8.45-.2-1.8-.4-.1-.7 2.84-.8 3.66-1.3c-1.4.3-4.08.3-4.9.1s-1.34-.7-.4-1 .3-.6-.7-.5-3.5 1.1-4.9 2.5c1.5-1.6 2.85-3 3.96-3.8z" fill="#00d860"/>
  <path d="M502.77 430.2c1.93 2.16 4.2 3.38 7.8 3.5.77.02 2.2 1.04.36 1.1-4.9.18-7.34-.98-9.5-4.13-.44-.65.38-1.55 1.35-.47zm29.2-40.78c2.58 1.2 7.76 2.27 11.8 2.1.7-.03 2.1.7.33.87-4.54.4-8.62-.3-12.4-2.4-1.06-.6-.7-1.1.28-.7z"/>
  <path d="M534.58 389.37c3.96-.1 6.94-.06 8.16 1.1 2.27-.7 6.35-1.1 7.3-.92s1.97-.24-.2-.76c-2.15-.6-7.16-.7-8.73-.4-1.5.2-6.4.4-8.1.2.7.1 1.2.2 1.6.7zm15.4 1.57c1.86-1 7.22-.06 8.85-.76-1.17 1.4 3.73 1.52 8 .4-1.65 1.06-5.14 1.24-6.66 1.88s-2.33.17-3.5-.35-4.13-1.5-6.7-1.1z" fill="#00d860"/>
  <path d="M566.84 390.58c-4.26 1.1-9.15 1-8-.4-1.62.7-6.98-.24-8.85.75 1.9-1.16 3.3-.23 4.7-2.62.9.2 2.9.3 3.6-.6 1.2.3 3.3.8 4 1.5.6.7 1.6-.1.8-1.1 1.9-.7.7.9 5.2-.3.9-.2 3.2-.6 3.9-.7-1.5 1.3-3.4 2.6-5.6 3.6z" fill="#00d860"/>
  <path d="M489.22 379.9c-.1-8.9-.9-82.93-.9-100.08 0-4.05-2.16-3.24-2.16 0v99.6c1 .08 2.25.26 3.06.44zm32.54-105.43l3.6 105.57-.63.9h-2.12l-2.3-106.47h1.4zm30.73 89.1c-.4-10.7-1.7-60.48-2.2-85.05-.1-3.24-2-2.7-2 .18.2 19.8 1.4 75.06 1.6 85.05l2.5-.1z" stroke-width=".63" stroke="#000" fill="#ff0"/>
  <path d="M503.8 292l-31.05-.44c-1.8 6.3 6.03 6.17 9 4.5 3.33 2.6 5.85 2.4 7.78.27 2.7 2.25 6.08 1.62 7.47.23 3.7 2.83 7.56 0 6.75-4.5zm2.34 15.67l-31.82-.13c-5.5 5.26 1.62 7.87 7.74 4.23.8 1.8 4.5 2.8 7.47 1.35 2.7 2.16 6.08.63 7.83-1.13 3.3 1.5 7.2 2 8.78-4.3zm-.9 19.9l-30.6-.23c-.63 5.5 5.58 4.77 8 3.37 2.35 3.6 7.52 2.9 9.46.8 2.97 2 5.67 1.6 7.2-.3 3.37 3 6.16-.8 5.94-3.5zm1.53 19.88l-34.2-.63c-1.94 5.85 3.33 6.9 5.76 5.5.9 3.37 5.4 2.24 6.57-.23 1.8 1.8 3.96.8 5.04-.4.45 3.1 4.4 3.3 7.47.6 6.3 4.3 12.1-.7 9.4-5zm30.37-8.23l-28.48-.23c1.26 5.8 4.05 7.3 8.64 3.9 3.38 3.5 9 2.2 10.35.4 6.2 5 9.63-.8 9.45-4.2zm-2.88-19.53l-27.58-.9c.45 7 7.1 6.7 10.53 3.7 2.6 3.3 7.2 2.3 8.8 0 3.5 3.5 9.3 1.3 8.3-2.9zm3.6-22.1h-29.7c.45 4.9 6.93 7.8 11.97 3.1 1.35 5.5 6.75 3.7 9.14 1.5 3.38 4.3 11.25-.6 8.64-4.7zm-1.7-14.9l-26.55.3c-.4 4.3 5.9 6.1 8.2 2.7 1.4 2.2 5.7 2 7.1-.2 2.1 3.3 4.7 1 5.5 0 3.1 2.2 6.3 1.1 5.9-3zm31.05 9.6l-32.5-.4c0 3.3 3.5 4.7 5.6 3.3 0 3.2 4.5 4.3 7.4 1.8 2 2.8 7.9 3.6 10.2-.3 4.9 4 10 1.1 9.5-4.5zm-.4 26.6l-31.8-.2c.3 4.5 5.4 6 8.4 3.6.7 3.8 4.7 4 7 2.1 2.9 3.1 7.6 3.4 10.1-.2 3.9 1.3 6.8-1.8 6.5-5.5zm-1.6 24l-25.2-.4c0 4.5 5.3 5 7.7 2.7 2.5 2.9 6.2 2.9 8.4.6 3.4 2.9 8.6 2.1 9.3-2.9z" fill="#fff" stroke-width=".63" stroke="#000"/>
  <path d="M524.77 380.9c-13.5.2-27.36.2-36.72-1.18s-12.3-2.7-18.72-6.57l-25.47-15.08c-2.12-1.2-4.37.32-1.44 2.25 13.68 9 18.9 12.33 25.38 16.65 6.75 4.37 11.16 8.33 15.3 13.05 5.4 6.08 9.45 6.17 11.83 5.27s6.3-2.3 10.17-1.4c3.83 1 9 1.1 11.7.6 2.43 2.2 8.1 1.8 11.25 1 3.15-.8 5.4-1.1 7.65-.6s5.63.1 7.83-.3 8.1-.9 12.15-.3c4.14.6 8.33.2 11.03-.6 2.7-.8 7.6-.6 9.2-.1 2.4-1.8 3.5-4 4.1-6.3 2.8-.4 3.8-.8 4.3-2.3 1.1-3 2.2-5.9 2.5-7.1h1.1l.4-2.7-2.2-2.6.8-5.1 2.5-.6c.2-1.6-.6-3.9-1-4.8-14.7.6-29.1 1.1-39.5 1.3-1.2.9-2.5 3.4-2.7 4.9-6.3 1-10.1 1.5-11.7 1.8s-2.6.4-3.9 2.2c-2 2.8-4 6-5.7 8.2z" stroke-width=".63" stroke="#000"/>
  <path d="M572.1 363.03c.73-2.48 2.62-9.18 6.08-21.78.6-2.07-1.44-2.88-2.25-.18-4.05 14.7-5.62 20.25-6.16 22.05h2.34z" stroke-width=".63" stroke="#000"/>
  <path d="M594.92 338.32c-4.95 2.57-7.38 3.6-9.63 2.7-2.1-.8-5.2-1.26-7-.45a2.34 2.34 0 0 1-.1.68 2219.85 2219.85 0 0 1-4.7 17c3.7 1.36 10 1.5 11.5-.13 1.5-1.62 5.6-1.26 7.8-1.17 1.3-1.8 1.8-3.96 1.5-4.95s-.2-2.97.3-4.5 1.2-6.12.3-9.18z" stroke-width=".63" stroke="#000" fill="#fff"/>
  <path d="M481.75 296.1c-5.54 15.9-24.62 51.58-36.1 63m8.83 5.28c13.05-10.08 46.08-42.9 51.66-56.7m-31.5 19.66c-1.58 12.06-5.04 33.53-6.93 44.87m12-18c-4.5 4.3-10.8 11.9-15.4 16m57.4-40c-3.7 3.6-8 7.9-11.7 9m13.9-8.3c3.3 3.5 8 7.5 11.9 8.6m-14.4-27.9c-3.4 2.9-8.4 6.3-13 7.7m14.9-7c3 2.5 6.1 6.1 9.8 7.8m-24-22c3.6-1 9-3.8 11.9-6.7m1.7-.6c3.2 3.6 9.3 6.6 12.3 7.4m-25-14.6c3.8-.8 8.4-2.8 10.8-6.3m1.5-1c3.1 2.7 8.7 6.6 12.3 6.9m14.4 3.6c-2.1 2.1-7.1 5.9-10.2 5.9m12.3-6.1c1.5 2.4 5.1 6 7.2 6.3m-21.7 26.5c4.1-1.3 9.8-4.7 12.7-8.2m2.3.3c1.2 2.3 5.7 7.1 8.3 8.1M541.2 343c1.9-.43 7-2.9 8.4-5.83m2.3-1.7c1.92 2.4 6.64 6.76 9.6 7.84m-84.7 3.9c5.7-1.8 17.3-8.9 23.02-15.5m-11 8.4c4.75 3.3 10.33 6.7 14.6 7.5m-27.74-20c3.16-1.4 7.3-3.6 10.54-7m2.5-.4c1.36 1.8 10.8 7.7 14.77 7.7m-17.2-26.3c-2.5 2-8.4 5.6-11.2 6.3m13.5-6.1c3.3 2.3 9.7 6.3 14.1 6.3m-16.4-24.8c-2.6 3.1-7.1 7.7-10.8 8.7m12.9-7.9c2.1 3.3 7.5 7.7 11.1 8.3m36.2 11.4c8.2 15.1 23.4 33.5 38.8 43.2M511 287c12.4 17.9 36.9 57.14 60.1 71.54m4.23-15.3a82.94 82.94 0 0 1-21.6 20.8m20.2-15.73c-7.9-12.6-12-28.3-17.8-49.2m-63.6 55.7l9.6 26.6m-11.3-27.3l8.5 27M489 352.6l7.85 28.14m-8.74-27.72l6.1 27.54m-.2-1h7.7m-1-2.87h-7.2m6.4-2.3H493m6.16-2.3h-6.75m5.9-2.4h-6.2m-.4-2.1h6m-6.4-2h5.6m-6.1-2.1h5.4m-5.8-1.9h5.1m-5.5-2.1h4.8m-5.2-1.8h4.6m-5-1.8h4.5m-4.7-1.4h4.1m-11.7 0l-5.4 22.2m7-22.6l-4.7 23.4m6-24.3l-3.8 25m5.4-25.5l-2.7 26.1m3.3-1.5h-8.6m8.7-2.4H476m10.03-2.5h-9.44m9.4-2.4h-8.9m8.9-2.4h-8.3m8.3-2.7h-7.7m7.7-2.2h-7m7.1-2.4h-6.5m6.4-2.3h-5.9m6-2h-5.4m5.4-1.5h-5m5.1 24.8V353m29.1-8.7l-18.1 36.36m19.2-36.9L501 380.84m16.55-37.53L505.33 381m13.05-37l-9.57 37.1m.5-1.7h-11.4m12.3-3.35h-10.6m11.1-2.7H501m10.7-2.93h-9.24m9.66-2.34h-8.56m9.35-2.7h-8.1m8.9-3.15h-7.3m8-2.4h-6.8m7.5-2.7H509m6.56-1.87h-5.65m6.1-1.8h-5.1m5.6-1.8h-4.7m5.2-1.54h-4.3m4.8-1.58h-4m4.5-1.6h-4m4-1.5h-3.2m15.1-.54l7.9 25.1m-6.4-24.56l9.7 24.1m-8.3-24.05L544 369m2.7-2l-12.37-22.1m12.4 22.1h-9.8m8.1-3.1h-9m7.38-3H535m6.66-3.07H534m5.98-2.97h-6.84m5.17-2.97h-6.1m4.5-3h-5.4m3.6-3h-4.6m14.9.7l-8.1 23.3m10.1-24.3l-7.2 23.9m3.4-.6l5.3-22.5m1.4.9l-4.4 21.4m-7.6-1.3h7.8m-6.7-2.9h7.4m-6.5-2.8h7m-6.1-2.9h6.8M542 356h6.3m-5.3-2.84h6m-5.1-3h5.63m-4.7-2.92h4.65m4.14.47l3.84 16.1m-2.4-16.9l5.24 16.7m-3.44-16.6l5.7 16.7m-3.4-15.7l5.74 15.7m-.55-1.3h-7.4m6.5-2.3h-7m6.2-2.3h-6.8m5.8-2.3h-6.4m5.5-2.3h-6.15m5.27-2.3h-5.73m4.96-2.3h-5.5" stroke-width=".63" stroke="#000" fill="none"/>
  <path d="M479.63 380.3c3.6-2.32 9.8-1.85 12.94.48 3.73-2.1 10.5-1.52 13.64 1.28 4.8-3.26 8.9-3.73 13.6-.58 3.6-2.57 9.2-2.8 13.6.23 4.2-1.9 8.9-3.6 13 .7-2.4-1.7-7.7-3.2-12.9.9-4.1-4.1-11.2-2.5-13.5.3-3-3.6-9.4-4.2-13.3.3-4.1-3.5-10.4-3.6-13.8-.9-2.6-2.1-6.6-3.8-12.9-2.4z" fill="#00b800"/>
  <path d="M543.33 375.33c-18.54 3.2-58.94.93-67.8-1.28-3.04-.77-2.2-1.87.36-1.3 10.2 2.33 32 2.35 44 1.76 2.3-3 6-8.3 7.1-9.7s1.6-1.6 3.9-2c4.1-.7 6.5-1 10.1-1.7v1.4c-.3.3-.6.7-.8.8 0 2.4.4 8.3.9 10.4.4 0 1-.2 1.3-.3.8-.2 1.6 1.9.8 2.1z" fill="#cf6200"/>
  <path d="M573.7 376.23l2.45-.06c.76-.02 1.82-.54 2.3-1.7s1.9-5.5 2.43-7.3l-1.87-2.8c.5-2.33 1-5.47 1-6.1 1-.36 2-.7 2.4-.9.1-.5-.1-1.94-.6-2.4-7.9.3-31.8 1.13-36.2 1.2-1 0-1.5-.06-1.9 1.45-2.2 8.27.9 19.9 9.2 26.58.6.47 1.4.08.4-.82-1.4-1.28-3.5-3.9-5-6.5 1.6-.03 5-.08 6-.12.5 1.96 2 6.1 2.3 6.8s1 .8.7-.25c-.8-2.4-1.2-5.2-1.5-6.5 1.5 0 4.4 0 6.1-.1.1 2.2.3 5.2.4 6s.8.9.8 0 .1-4.9 0-6c2 0 4.5-.1 5.5-.1-.1 1.3-.3 5.4-.4 6-.1 1 .4 1.4.6.1s.7-4.5.8-6l3.8-.1c-.1 1.3-1.2 5.1-1.6 6s.2 1.1.6.1c.4-.9 1.7-4.7 1.8-6.1z" fill="#cf6200"/>
  <path d="M547.23 375.28c-.64-1.28-2.62-5.84-2.8-9.16 1.7-.03 5.93-.1 7.97-.16.3 2.5 1.07 7.9 1.48 9.18-2.4.05-5.3.13-6.65.14zm6.55-9.37c.22 2 1.22 8.5 1.4 9.3 1.72-.1 5.73-.1 6.42-.1l-.38-9.2c-1.82.1-6.53.2-7.44.2zm-9-8.1c-.34 1.7-.4 5.3-.3 6.8 2.04.1 7.06-.1 7.75-.1-.17-1.7-.44-4.9-.6-6.8-1.68.1-5.76.2-6.86.2zm8.33-.2c.1 1.7.5 5.7.6 6.9 1.8 0 6.1-.1 7.6-.2-.1-1.5-.3-6.3-.3-6.9l-7.7.3zm9.3-.2c.1 1.5.3 5.8.2 6.9 1.9 0 5.5-.1 6.6-.1.1-1.5.4-5.8.3-7-2.1.1-5.4.2-7 .3zm8.3-.3c0 1.3-.1 5.8-.2 7l7.2-.2c.3-1.5.9-5.4 1.1-7l-8 .3zm7.3 8.3l-7.5.2c-.2 3-.5 8.1-.7 9.3l7.3-.2c.7-1.4 2.2-5.8 2.6-7.1-.5-.8-.9-1.2-1.5-2.1zm-15.2.4c0 1.1.2 8.6.2 9.2 1.4 0 4.9-.1 5.5-.1.3-2.9.7-8.5.8-9.2l-6.4.2zm-31-1.8l-3 .6c-1.4 2.3-6.6 9.3-7.2 10.1 3.6-.1 9.3-.2 10.6-.3-.1-1.8-.3-9.3-.3-10.2zm1.4-.2c.1 2.4.3 8.8.4 10.5 1.8-.1 5.1-.3 6.5-.4-.3-3-.9-10.2-1-11l-5.8 1.1z"/>
  <path d="M506.95 347.18c.36 0 .45.36 0 .36l-34.65-.45c-.45 0-.36-.4 0-.4l34.65.4zm27.14-27.67c.4 0 .4.4 0 .4l-27.5-.7c-.5 0-.3-.4.1-.4l27.3.8zm-28.9 8c.4 0 .4.4 0 .4l-30.6-.2c-.5 0-.5-.3 0-.3l30.6.2zm.9-19.9c.4 0 .4.4 0 .4l-32-.1c-.5 0-.5-.3 0-.3l31.9.2zm-2.2-15.7c.4 0 .4.5 0 .5l-31.2-.5c-.5 0-.5-.3 0-.3l31.1.5z" stroke-width=".63" stroke="#000"/>
  <path d="M536.1 282.7c.46 0 .46.32 0 .32l-26.72.27c-.45 0-.45-.4 0-.4l26.73-.3z" fill="#fff" stroke-width=".63" stroke="#000"/>
  <path d="M537.77 297.55c.45 0 .45.45 0 .45h-29.52c-.54 0-.45-.45 0-.45h29.48zm28.98 21.33c.36 0 .45.36 0 .36H534.9c-.46 0-.46-.36 0-.36h31.8zm.45-26.55c.36 0 .45.3 0 .3l-32.58-.26c-.45 0-.45-.36 0-.36l32.54.4zm-30.1 46.62c.45 0 .45.36 0 .36l-28.58-.1c-.45 0-.45-.3 0-.3l28.62.2zm28 3.87c.44 0 .44.36 0 .36l-25.2-.36c-.46 0-.37-.32 0-.32l25.2.36z" stroke-width=".63" stroke="#000"/>
  <path d="M587.77 347.72c.72-1.57.8-5.17.45-6.57a4.95 4.95 0 0 1-2.97-.22 13.37 13.37 0 0 0-1.53-.45c-.1 1.8-.77 6.4-1.57 8.2-1.35.44-4.2 0-5.85-.6l-1.17 4.23a15.53 15.53 0 0 0 6.57 0c-.18 2.7-.54 5.2-1.98 6.9 2.38 0 4.5-.2 5.3-1.1a1.8 1.8 0 0 1 .23-.2c1.04-1.8 1.08-4.2 1.35-5.8.8 0 1.9-.2 2.34-.6s1.22-.7 1.98-.6c.72.1 1.8 0 3.15-.6 0-.9.18-1.8.45-2.5.18-.4.36-1.1.45-1.9-1.7.8-5.58 2.3-7.2 2.2z" stroke-width=".63" stroke="#000" fill="#ef072d"/>
  <path d="M476.17 195.4c-3.6.1-11.25.18-12.96 1.08-1.6.9-2.3 1.35.6 1.8s7.7 1.9 10.4 3.6c2.6 1.58 4.8 4.5 4.1 8.55-2.1 12.33 4.3 24.2 13.7 28.7.9.46 1.2.73.9 2.44s-.7 4.5-1.3 5.18c-.4.76-.7 1.93.9 1.35-1 2.1-3.6 6.3-4.3 7.33-7.5-.9-13.5.14-14.1 7.97 0 .76.2 1.98 1.4 0 1.2-1.9 2.5-3.74 5.7-4.23-1.9 2.88-2.5 5.5-2.2 7.2.3 1.62.8 2.7 1.6.45.8-2.07 2.3-4.05 3.9-5.27.6-.45 1-.63.6.72s.2 4.2 1.1 5.13c.9.9 1.4.54 1.2-1.03-.3-1.58.1-4.86 2-5.85 2.9-1.5 5.3-.77 6.3 1.17 1.2 1.9 2.2.1.9-2.1s-2.4-3.7-4.5-3.9l4.4-7.7c.5-.8 1.2-1.2 1.8-.7.6.4 1 .4 1.6-.9.6-1.3 1.7-5 3.2-6.5.8-.3 2-.6 2.5-.9 2 2.8 3.8 6 4.3 6.7.5.7 1 1 .6 2.5s-2 6.1-2.2 7.2c-5.5.1-8.1.2-9.9 3.3-.7 1.3.5 1.9 1.8 1.2s3.2-1.4 4.2-1.2c1 .2 1.4.7.5 1.1-3.3 1.7-5.5 3.8-5.4 6.8.1 1.1.6 1.6 1.4.2 1.2-2.1 3.4-4.1 5.9-4.7-.1 2.5.5 6.2 2 7 1.5.8 1.6 0 1.1-1.5-.9-2.4 0-4.7 1.2-6 2.4-2.7 7.8 1 8.8 1.9 1 .9 2 1.2 1.3-1.2-.7-3.2-5.2-5-9-5.5 1.1-5.2 4-15.5 5.4-19.1 2.3 1.2 4.1-2.1 7.8-.7 6.3 2.3 15.8 8.2 17.4 9.6 1.6 1.3 2.3 1 3 .3.8-.8 2.3 0 3.4.1s2.1.5.7-2.4c-1.3-2.8-4.9-7.8-10.6-11.7 3.4.4 8.1.4 8.1-.5s-5.4-2.7-7.7-2.9c2.2-.5 5.4-1.7 6.9-3.5.9-1-.2-1.3-3.3-1.4-9.8-.2-14.6-.1-19.7-3-8.1-4.7-12.8-9.6-16.8-11.7-2.1-1.2-3.4-3.7-4.3-6-2.6-7.1-2.5-10.4-8.7-12.6s-13.3.4-16.6 3.4z" stroke-width=".63" stroke="#000"/>
  <path d="M476.58 197.02c-1.58 0-4.68-.45-7.2-.18-.63 0-1.35.36.1.54s5.16 1.08 6.5 1.57.77 1.13-.44.8-1.57.15-.58.9c4.95 3.48 5.4 4.78 4.14 16.84.9.6 1.7 1.1 2.52 1.5s.58 1-.27.7-1.7.2-.32.5 2.07.9.72.9c-1.35-.1-2.88 1.1-.27.7 2.7-.3 3.7.9.6 1-3.16 0-1.95 1-.28 1 2.97 0 2.07.7 1.35.7-.8 0-1.13 1 .8.8 1.9-.2 2.7-.2 3.38-.1s1 .6 0 .7c-1.12 0-1.08.8.54.8s2.25.5.8.8c-.57.1-1.34.4.28.6 2.88.4 3.02 1.1 2.07 1.2s-1.03.7.32.7c1.35.1 2.47.5 1.35.8-1.1.4-1.7 1-.3 1.1 1.3.1 2.5.6 1.5 1s-1.3 1 .1.9 1.9.7.9 1.3c-.9.5-1.6.9-2.2 0-.6-1-.9-1.4-1.1-.6-.2.6-.6.2-1.1-.8s-1.4-1.4-1.1-.6-.9.9-1.8.5c3.6 3.7 9.1 7.1 17.7 3.6.7-.3.9 0 1.5 1.3s2.2 3.9 2.8 4.9 1 0 1.3-.9l2.4-7.8c.4-1.1 2-2.1 1.5 1.5 1.2-.9 6.9-1.7 11.3 0 4.8 1.8 9.7 4.6 12.2 6.4a2.8 2.8 0 0 0 2.2.7c1.1-.1 1.4-.3-.8-2.3-2.3-2.1-1.3-3.2.1-2.1 1.3.9 2.1.4 1-.9s-3.6-3.6-4.4-4.2-.9-.9-2.8-.9l-7-.2s-1.5.2 1 1.1c2.6.9 7.8 4.3 9 5.1s2 2.7-.6 1.1-10.6-6.7-16-8.5c-12.3.8-22 2.4-29.3-5.6-3.5-3.8-3.6-12.5 2.2-16.1-1.2-1.1-1-1.7-.6-1.9s.6-.5.2-1.1-.5-1.1 0-1.3c-1.3-.7-1.8-1.6-1.8-2.4-1.6-.4-2.3-2.3-4.4-1.7s-3.2.1-3.8-.5c-.6-.4-1.2-.7-2.3-.6s-2.2-.3-2.2-.9 1-.9 2.6-.2c3.3 1.5 6 2.3 8-.6 2.1-2.7-.6-5.3-4.5-6-3.9-.8-6.7 2-8.2 3.4z" stroke-width=".63" stroke="#000" fill="#fff"/>
  <path d="M496.24 196c-1.17-1.27-3.3-2.5-4.32-2.8-1.04-.32-1.17.72-.58 1.26-.45.72-.63 2.38.18 2.88s.8 1.12 0 1.48c-1.13.6-.72 3.7 1.03 2.84.6-.32 1.04-.18.9.27s.18 1.08.68 1.17.45.9.36 1.17 0 .45.6.45.6 1.48-.5 1.98c1.3 0 1.7-.27 2 .8.3 1.04 1.8 1.27 1.8 2.57s-.3 1.53-1.8 1.26-2.1.27-2.6.9-.6 1.13.6 1.17 1.3.54.2 1.08-3.1.14-3.4 1.26c-.3 1.13 0 1.62.9 1.22.9-.45 2.7-1.17 3.4-1.62s1.3-.45 1.9.45.1 2-.9 1.2-1.5 0-2.1.4-1.5.7-2.4.7c-.9 0-1.6.1-1.4 2.2.4 6.3 5.3 10.9 14.3 10.8s13.5-.2 14.8 0c-3-1.7-5-2.5-6-2.5s-2 .3-1.5-.5 0-.9-.6-1.3-1.1-.9-2 .1-3.2 2.1-4.3 2.2-2.4.2-1.4-.8 3.3-1.4 4-1.9.7-.8.7-1.1-.2-1.3 1.1-.6c2.7 1.5 6.9 3.8 8 3.8s1.8-.6.9-1.2-1.3-1.6-1-1.9.5-.7 2.3.3 4.6 2.2 5.6 2.7 2.3.3.2-1.3c-2.2-1.6-8.9-6-10.8-7.4s-1 .3-.9.9-1.2 1.1-2 .4-1.3-1.4-.2-1.9 1.2-.7-.3-2.1c-1.7-1.4-2.1-1.3-1.7-.1.3 1.2.4 2.4-1.2 1.8s-2.5-1.3-1.4-2c1-.7 2.3-1 .6-2.5s-1.3 0-1.7.8-1.8.9-2.5.2-1.2-1.3-.6-1.8.4-.8 1.2-.5 2 .2.6-1.1-2-.7-1.7 0-.8 1.9-2.6.3c-.9-.8-.9-1.8 0-2 .9-.2 1-.7.4-1.6-3.6-5.2-2.1-9.4-5.7-13.3z" stroke-width=".63" stroke="#000" fill="#fff"/>
  <path d="M491.65 188.4c-.3.47-.42.45-.98.83-.7.46-.86 1.8.3 1.63.82-.1 1.3-.6 1.6-.98-.25-.5-.55-.98-.92-1.47zm-3.63-2.9c-.9.87-1.06 1.26-.6 1.26.54 0 .3.07-.08.7-.4.62.78.93 1.25.46s.5-.62.7 0c.2.5.9.03 1.4-.46-.8-.77-1.9-1.47-2.8-1.96zm-1.62 5.02c-1.17.58-.77 3.68 1 2.8.57-.3 1.04-.17.92.3-.06.24-.02.52.1.75a5.4 5.4 0 0 0 1.94-1.4c1.1-1.24.08-1.17-1.55-1.17-1.6 0-2.1-.3-.5-1.24 1.4-.83.5-1.4-1.4-1.14.3.4.2.82-.4 1.1zm6.7 6.87c-.87-1-.33-1.4.6-1.9a1.2 1.2 0 0 0 .5-.5c-.26-1.1-.47-2-.75-3-.5.1-1.06 1.2-1.22 1.7-.24.7-.47 1.2-1.25 1-.7-.2-1.38.5-1.52 1.4l.5.1c.32 0 .48.4.38.9 2.1-.1 2.46 1.4 2.82 2.3.4 1.1.86.9 1.17.3.3-.7-.4-1.7-1.25-2.7z" fill="#cf6200"/>
  <path d="M493.67 209.6c-.38.85-.4.77-1.64.84-1.24.08-2.8.3-3.5 1.02-.36.38-2.5.5-2.5 1.43-.02.9 0 1.7.92 1.8.93 0 1.04.1.7.8-.36.7-.6 1.8 1.04 2 1.6.1 2.8-.4 3.2.5.4.9-.1 2.4.3 2.9s1.4.9 3.1 1.4c1.1.3 5.4.5 6.7.4 1.3-.2.8-1-.5-1.1-1.3-.1-2.3-.3-2.6-1.3-.3-1-.6-1.5.1-2.3.7-.8 1.5-1.5 1-2.8-.5-1.4-1.2-3-2.7-3.4-1.6-.5-1.1-2.6-2.6-2.8-.6-.1-1.1-.1-1.3.3z" fill="#ff0"/>
  <path d="M486.13 222.24c1.34.12 2.5.53 1.4.82-1.1.3-1.7.93-.3 1.05 1.4.2 2.57.7 1.52 1s-1.28 1 .06 1 1.9.7 1 1.2c-.9.6-1.5.9-2.1 0-.5-.9-.9-1.2-1.1-.5-.1.7-.6.2-1-.8s-1.3-1.3-1-.5-.8 1-1.8.6c1 1 2.1 2 3.3 2.8 1.5-.5 3-.1 3.6 0 .6.1 2.4.5 3.4 1s1.7-.4 1.3-1.4c-.4-1-.5-.7-1-.1s-.6-.2-.6-1.4c.1-1-.6-.7-.9-.1s-.7-.4-.4-1 0-.9-.6-.7-.6 0-.6-1.1-.6-1-.7-.5-.7-.1-1.4-1.1c-.6-.8-1.3-.3-2.5.2.2.1.4.2.9.2z" fill="#cf6200"/>
  <path d="M500.3 229.47c-6.36 2.58-10.96 1.43-14.42-.86 1.43-.4 3.05 0 3.58 0 .6.1 2.4.5 3.4 1s1.62-.4 1.2-1.4c.9 1.1 1.53 1.9 2.57 1.8 1.05 0 2.8-.2 3.68-.4zm-13.6-29.35c-.38-1.32-.76-1.63-1.46-1.55-.7.08-1-.08-1.8-.4-.77-.3-1.78.1-1.93 1.5s-1 2.1-2.1 2.94c-1.1.9-1.8 1.6-1.8 3s-.3 1.8-1.1 2.8c-.3.5-.8 1-1.3 1.5.5.3 1 .6 1.5.8.9.4.6 1-.3.8s-1.6.3-.2.6 2 .9.7.9-2.9 1.2-.3.9c2.6-.3 3.7 1 .6 1-3.1.1-1.9 1.1-.3 1.1 2.9 0 2 .9 1.3.9s-1.1 1 .8.8h.1c.3-.3.5-.6.7-1.1.3-.9.6-3.6 1.7-4.4 1.1-.8 1.7-1.8 1.7-2.6s1.7-4.2 2.7-5 1.6-2.7 1.2-4z" fill="#ff0"/>
  <path d="M484.43 200.17c-1.1-.74-2.18-.3-2.18 1.1s-.7 1.77-1.63 2.24c-.93.5-1.8 1.7-1.94 2.8-.16 1.1.15 1.8-.62 2.7-.78.9-.86 1.6-.3 2 .53.5.53.6.76 1.3.24.7 1.56-.1 1.56-.8s.3-.8 1.16-1.2c.86-.5 2.26-2.7 1.94-3.3-.3-.6-1.08-1.1-.07-2 1.1-.8 2.1-.9 2.1-1.8 0-.8.4-1.1.7-1.4.3-.3-.7-.8-1.4-1.2z" fill="#cf6200"/>
  <path d="M484.43 199.05c-.73-.3-1.16 1.24-.16 1.47s1.17-1.1.16-1.47zm-.18 1.97c-.77.1-1.64 1.1-.35.93s1.8-1.1.35-.93zm-1.53 1.88c-.8.4-.64 1.46.53.7s1.45-1.7-.53-.7zm-1.25 1.62c-.8.4-.65 1.45.52.7 1.1-.76 1.4-1.7-.6-.7z"/>
  <path d="M479.85 205.28c-.8.4-.3 1.46.88.7s1.1-1.7-.88-.7zm1 1c-.8.4-.3 1.45.86.7s1.2-1.7-.8-.7z"/>
  <path d="M479.45 206.67c-.8.4-.3 1.46.87.7s1.1-1.7-.87-.7zm.9 1.13c-.8.4-.3 1.45.86.7 1.2-.76 1.2-1.7-.8-.7z"/>
  <path d="M479 208.47c-.8.4-.3 1.45.87.7s1.1-1.7-.87-.7z"/>
  <path d="M479.1 209.5c-.8.4-.3 1.46.86.7s1.1-1.7-.87-.7z"/>
  <path d="M478.46 219.33c-.8.1-1.32 1.24-.3 1.48s1.23.4 1.23 1.1.3 1.9 1.4 2c1 .1 2-1.1 1-1.5-1-.4-1.8-.7-1.9-1.5-.1-.8-1-1.5-1.6-1.4z" fill="#cf6200"/>
  <path d="M507.08 212.64c.15.18.33.38.53.55.8.6 2.3 0 2.1-.6s-1-2.2.9-.8 8.6 5.8 10.7 7.4c2.2 1.6.8 1.7-.3 1.3s-3.9-1.8-5.6-2.8c-1.7-1-1.9-.7-2.2-.3-.2.3 0 1 .6 1.6-1 .1-2.7-.1-3.2-1.2-.6-1.4-2-3-3-4.3-.3-.5-.4-.8-.4-1z" fill="#ff0"/>
  <path d="M564.9 403.64c-1.44 1-3.37 2.74-2.1 5.2.16-.1.3-.2.45-.27 5.7-6.9 10.6-14.16 14.77-21.7.05-.26.1-.5.12-.72-1.63 1.4-4.2 2.8-5.25 3.15.7 1.86-2.6 4.3-4.4 5 .7 1.18.4 2.93-1.1 3.28.3 1.04-.8 1.04-2.2 1.63s-2.1 1.1-2.6 1.8c.7-.4 1.8-.7 2.4-.6s.7 1.1-.4 1.3-1.8.8-2.1 1.3c1.5-.6 3.6-.3 2.2.7z" fill="#00d860"/>
  <path d="M500.97 218.8c-1.7-1.5-2.16-.54-1.5.45s.2 1.35-1.34 1.57-3.78.54-4.72.54-2 1.26.2 1.17c2.3-.13 6-.9 7-1.35s1.8-1.12.5-2.34zm3.37 2.7c-1.44-1.26-1.93-.9-1.57 0s-.32 1.12-1.22 1.35c-.9.36-4.63 1.57-6.2 1.8s-1.94 1.2.44 1.17 6.7-1.94 7.3-2.25.6-1.08 1.2-.72 1.1-.32 0-1.35zm1.08 3.73c-1.03.63-3.6 1.8-4.68 2.03s-1.93 1.48.32 1.35c2.16-.2 4.77-2.2 5.5-2.7.7-.4 1.02-.6 1.6-.6s1.67-.7-.26-1.8-3.15-.5-2.16.3.22 1.1-.36 1.5z" stroke-width=".63" stroke="#000"/>
  <path d="M482.05 187.5c-2.85-1.86-6.1 2.06-2.95 4.2 2.76 1.9 5.67-2.4 2.95-4.2z"/>
  <path d="M478.5 189.22l.85.06c-.18.87.7 2.18 2.04 1.86-1.1.82-3.2-.12-2.9-1.92zm11.04 42.5c.86.24 3.85.55 4.87.6-.5 1.06-.9 1.77-1.2 2.54-.3.75-.4.8-.5-.36 0-1.17-.7-1.93-1.3-.7-.6 1.2-.9 1.66-1.2 2.17-.3.5-.7.7-.6-.56s.1-2.5.1-3.7z" fill="#fff"/>
  <path d="M607.6 274.47c-.2 73.48-11.78 152.68-106.9 190.35-95.13-37.67-106.65-116.87-106.92-190.35h213.88zm0 0c.1-27.68-1.43-54.6-.75-78.12-35.55-15.84-82.35-19.13-106.2-19.13-23.85 0-70.65 3.3-106.2 19.17.77 23.5-.8 50.4-.72 78.1H607.6z" stroke="#000" stroke-width="1.26" fill="none"/>
</svg>
