<svg xmlns="http://www.w3.org/2000/svg" height="480" width="640" viewBox="0 0 640 480">
  <g fill-rule="evenodd" stroke-width="1pt">
    <path fill="#19b6ef" d="M0 240h640v240H0z"/>
    <path fill="#fff" d="M0 0h640v240H0z"/>
  </g>
  <path d="M317 339.2C369.6 300 426 220 360 177.8c-12.3-2.4-26-1.7-32.7 3.6-3.4-2-6.2-1.8-9.7 2-2.5-3-5-4.5-10-3-10.2-5-19.4-6.3-31.5-3C218 212 254 294 317 339z" fill-rule="evenodd" stroke="#7d6c00" stroke-width="2.4" fill="#fd0"/>
  <g stroke="#3a9d4f">
    <path stroke-linejoin="round" d="M414 250s6-7.8 6.2-7.8c6-3.5 6.5-8 6.5-8 6-1.8 4-6.7 4.5-7.3 2.8-4 1.8-7 1.4-8 0-1 2-9-.8-10 0-8-4.8-7-8.8-2-4.2 1-5 4-3.6 8-5.5 0-5.7 8-4 12-7.4 0-3.4 8-3.6 8-2.4 1 2 13 2.3 12zm-46 68.3l3.5 2.2c.8 2.8 3.3 4.6 5.3 4 1 4.4 5.6 3.8 9 1.3 2.7 4 6 4 10.6 2.7 4 3 9.3 1.7 12.8-1.4 3.7 3 6.2 1 8-2 3 1 5.3 1 6.4-2 5.7 0 3-6-1.8-8 3.7-3 8-10 2-11-1.8-1-5.3-1-8 0-.6-3-4.7-3-9.3 0-1.5-3-7-1-9.5 1-3.3-3-7.2-3-13 1l-16 14zm0-8.7c.5-3.8-2-10.6 2-11.2-1-6.3.2-13.3 7.4-12.7 1.2-6 1-11.4 7.8-12.2 0 0 5.5-19 11.2-6 2.2 4 1.8 10.3-2.7 9 1 4.8-.7 9-6 8.8 2.4 3.4 1.7 8-1 10L368 309.6zm33-24l6-1c6-4.2 8.5-5.8 11.5-1.3 5-1 10-.6 9.8 3.5 6 .4 6 4.2 5.3 7.3 1 6-1.3 13-5 4-12-7-18.6-6-37.3-2l9.7-10zm3-5.8c.3-.2 17.6-4.7 15.8-10 5-.8 6-5.7 6-5.7 10.3-3 9.7-9 9.7-9 3-3 8-6 7-11 .2-6 .8-10-7.7-6-6.3 0-8.5 3-10.3 9-3-3-7.8 2-8.4 7l-7 8-6 12 2 7z" fill-rule="evenodd" stroke-width="2.4" fill="#4fd46b"/>
    <path stroke-linejoin="round" d="M404.5 266.4c-4-3-6.4-7-5.7-10.6-2.7-3.7-4.6-6-2-9l-2-7.7c-5.4-2-3-6-1.7-8-2-3-2-7 0-10 0-6 5-4 9 0 0 0 7 5 2 9 5 2 6 6 4 8 4 2 5 6 3 8 4 3 3 8 4 11l-8 11z" fill-rule="evenodd" stroke-width="2.4" fill="#4fd46b"/>
    <path stroke-linejoin="round" d="M411.8 236c-.2 0-7-8.7-5-9.3-.5-2.6-2.5-5.5-1.3-8-3.3-3.5-3.4-7.4-.8-10.5-2.2-3-1.2-7 1.8-9.8-1-5 2.6-6.2 5.7-7 2.3-8.2 6-6 8.2 0 3.2 3 2.7 7 1.6 10.3 3.8 2.5 1.5 5.7-.2 7l-10 27.4z" fill-rule="evenodd" stroke-width="2.4" fill="#4fd46b"/>
    <path stroke-linejoin="round" d="M410.8 193l-5.7-5.6c2-3 3-8.3-1-10.8-2-5.7-14-13-16 .8-2-4-5-8.2-8-3.4-6-5.3-9-3.7-6 3 0 0-3 4.5 5 8 1 .6-2 8 7 8.3-1 2.6 1 6.2 5 6-2 3 2 6.5 5 5.2-1 3.5-1 5.2 4 5.7l6 6.3 5 6 4-29.4z" fill-rule="evenodd" stroke-width="2.4" fill="#4fd46b"/>
    <path d="M414.3 246.5c.3-.3 11-24.7 12.4-32.2M415.4 203s1.8 20-3 34.6m-30-54.6s22 21 24 29.5m-8.6-32s1.3 17.4 7.4 34.4m31 28s-21.6 19-32.2 35m11.7 29s-28.8 4-41.4 4m32 8s-35.8-1-38.4-4m20-43s-18 30-19 40" stroke-linecap="round" stroke-width="2.2" fill="none"/>
  </g>
  <path d="M317 333.4c-38-35.6-76.6-102.4-38-136.2 6.7 4 14.8.4 26-4 3.3 3.7 7.6 4.6 12 1.8 4.7 2 8.2.4 10.6-2 11 6.2 25 9.5 28.2 3.3 37.8 36-.6 103-39 137z" fill-rule="evenodd" stroke="#7d6c00" stroke-width="2.4" fill="#65c7ff"/>
  <path d="M317 332.4c-16-16.3-31-34.4-42.3-57.7 2-1.6 3-2 4-5 5.7 1 8.8 1 16.4-.3 2 5.8 2 10.6 6 15.4l8-15c5 1.2 12 1.5 17 0 3 4.2 2 10.7 8 15.6 4-10 7-10.6 10-16 5 1.8 9 1 13-.3 2 3 1 3 5 6-10 21-24 41-43 58z" fill-rule="evenodd" fill="#8fc753"/>
  <path d="M272.6 164.3a3.3 3.3 0 1 1-6.6 0 3.3 3.3 0 0 1 6.6 0zm-3.4-7.7a3.3 3.3 0 1 1-6.7 0 3.3 3.3 0 0 1 6.7 0zm-4-7a3.3 3.3 0 1 1-6.8 0 3.3 3.3 0 0 1 6.7 0zm-3-7a3.3 3.3 0 1 1-6.6 0 3.3 3.3 0 0 1 6.7 0zm.6-7.7a3.3 3.3 0 1 1-6.7 0 3.3 3.3 0 0 1 7 0zm17.6-13a3.3 3.3 0 1 1-6.7 0 3.3 3.3 0 0 1 6.7 0z" fill-rule="evenodd" stroke="#000" stroke-width="1.1" fill="#fff"/>
  <path d="M273.8 123.6a3.3 3.3 0 1 1-6.7 0 3.3 3.3 0 0 1 7 0zm-7.3 4.3a3.3 3.3 0 1 1-6.7 0 3.3 3.3 0 0 1 6.7 0zm22.5-6a3.3 3.3 0 1 1-7 0 3.3 3.3 0 0 1 6.5 0zm9 0a3.3 3.3 0 1 1-6.8 0 3.3 3.3 0 0 1 6.7 0zm8-1a3.3 3.3 0 1 1-6.5 0 3.3 3.3 0 0 1 6.5 0z" fill-rule="evenodd" stroke="#000" stroke-width="1.1" fill="#fff"/>
  <path d="M326 117.5a8.6 8.6 0 1 1-17.3 0 8.6 8.6 0 0 1 17.2 0z" fill-rule="evenodd" stroke="#7d6c00" stroke-width="1.1" fill="#fd0"/>
  <path d="M335 122.7a3.3 3.3 0 1 1-6.8 0 3.3 3.3 0 0 1 6.7 0zm8.6.7a3.3 3.3 0 1 1-6.6 0 3.3 3.3 0 0 1 6.6 0zm8.5-.4a3.3 3.3 0 1 1-6 0 3.3 3.3 0 0 1 7 0zm8-.3a3.3 3.3 0 1 1-6 0 3.3 3.3 0 0 1 7 0zm9 1a3.3 3.3 0 1 1-7 0 3.3 3.3 0 0 1 7 0zm7 4.4a3.3 3.3 0 1 1-7 0 3.3 3.3 0 0 1 7 0z" fill-rule="evenodd" stroke="#000" stroke-width="1.1" fill="#fff"/>
  <path d="M269.4 151.7c3 5.4 5.7 11 8.6 16.5h79.2l9.2-16c-5.4-3.6-9-6.4-16.7-4.7-4.3-6.2-9-7.3-16-6.6-2.2-3-4-4-7.6-4h-16c-4 0-7 4-8 4-7-1-13-1-15 6-6-2-11 0-17 4z" fill-rule="evenodd" stroke="#ac0000" stroke-width="2.4" fill="#e40000"/>
  <path d="M378 135.4a3.3 3.3 0 1 1-6.7 0 3.3 3.3 0 0 1 6.7 0zm.6 7.8a3.3 3.3 0 1 1-6.7 0 3.3 3.3 0 0 1 6 0zm-2.5 7.3a3.3 3.3 0 1 1-6 0 3.3 3.3 0 0 1 7 0zm-3 6a3.3 3.3 0 1 1-6 0 3.3 3.3 0 0 1 7 0zm-3 7.5a3.3 3.3 0 1 1-6 0 3.3 3.3 0 0 1 7 0zm-47-9.6a5 5 0 1 1-10 0 5 5 0 0 1 10 0z" fill-rule="evenodd" stroke="#000" stroke-width="1.1" fill="#fff"/>
  <path d="M323.5 143a6 6 0 1 1-12 0 6 6 0 0 1 12 0z" fill-rule="evenodd" stroke="#000" stroke-width="1.1" fill="#fff"/>
  <path d="M322.7 132a5.4 5.4 0 1 1-10.8 0 5.4 5.4 0 0 1 10 0z" fill-rule="evenodd" stroke="#000" stroke-width="1.1" fill="#fff"/>
  <path d="M315.5 109v-4H312v-3.3h3.2V99h4.4v2.5h3.5v3.3h-3v4.5h-4z" fill-rule="evenodd" stroke="#7d6c00" stroke-width="1.1" fill="#fd0"/>
  <path d="M277.6 168.2c-7-12-17.6-28.4-11-35.5 9-10 30-1 43.3-7 0 11.6-3 30.6 2 34.5l-5 4.2c-3-3.7-9-8.8-16 .2-4-3.4-9-2.8-11 1.7-2 .3-2 1-5 2zm80-.4c7.2-12 17.6-28.4 11-35.5-8.8-10-29.8-1-43.2-7-1 11.6 2.2 30.6-3 34.5l4.8 4.2c4.7-6.5 10.4-6.7 15.3.2 4-3.4 8-3 10.4 1.7 1 0 1 1 4 1z" stroke="#fd0" stroke-width="3.3" fill="none"/>
  <path d="M277.3 177c28.5-2.8 55-1.7 79.3 0l3-8.8c-27.6-5-46.7-5.7-83-.7l.7 9.6z" fill-rule="evenodd" stroke="#7d6c00" stroke-width="2.4" fill="#fd0"/>
  <path d="M314 329.4l.7-4.2c3 .7 5 .5 7.4-.4l3-3.7-2-2c-1 1-3 2-4 3s-3 0-4-1l-1-6c-1-2-5-1-4 2v3c1 2 1 4 2 5v3l4 4zm1.3-18.3c-2 1-4.6 0-7.3-1-2.5 0-4.4 2-7.4 2 .6-1 2-2 2.8-3-.7-4 1.5-5 2-5 .8 0 3.2 1 3.2 1l2.5 1c2 3 4 5 5 8z" fill-rule="evenodd" fill="#c76e2e"/>
  <path d="M300.8 366c7-11.4 56.2-34.4 102.4-84.2-47 45.3-76.4 56.4-114.8 84l12.4.3z" fill-rule="evenodd" stroke="#e9bf00" stroke-width="2.4" fill="#ffe100"/>
  <path d="M368.4 313.2a3.6 3.6 0 1 1-7.2 0 3.6 3.6 0 0 1 7.2 0zm34.4-35a4 4 0 1 1-8 0 4 4 0 0 1 8 0zm11.5-29.5a3.6 3.6 0 1 1-7.2 0 3.6 3.6 0 0 1 8 0zM403 210.3a3.6 3.6 0 1 1-7 0 3.6 3.6 0 0 1 7 0z" fill-rule="evenodd" stroke="#68300e" stroke-width="1.1" fill="#9d4916"/>
  <path d="M279 269.6v-15.2l-1.4-1.2v-3.6l2.8-.3.5-17-2-1v-2.8s2 .8 2 .3v-3.4s-1-.2-1-.7 1-1.8 1-1.8l-1-2-1-3v-3l-1-2-2-3 1-2-1-3 1-3 2-3 4-1 5 1 3 1v5l-1 3-2 1h-3l1 3v3l-1 4s0 1-1 2l-1 1v4l4 1v2h-2v16l4 1v4l-1.5 1-.5 15h-14zm62.5.3v-16l-1.5-1v-4l2.8-1 .5-17-1.8-1-.2-3s2 1 2 0l.5-4s-1.3 0-1.3-1 1.6-2 1.6-2l-1-1v-3l1-3v-1l-1-2 2-2v-3l2-3 3-3 4-1 5 1 3 2 1 4v2l-2 1h-3l1 3v9l-1 1v4l4 1v2h-3v16h4.8v4l-2 1-.6 15h-14zm-31.6 0v-15l-2-2v-3l3-1v-17l-2-1-1-3s2 1 2 0v-3s-1 0-1-1 1-2 1-2l-1-2-1-3v-3l-1-2-2-2 2-2-1-3 1.2-3 2-3 4-1h5l3 2 .4 4s-.4 3-.6 3l-2.5 1h-3l1 3v3l-1 4s0 1-.7 2l-1 1-1 4 4 1-.5 2H314l.3 15 4 1v4l-1.4 1-1 16h-14z" fill-rule="evenodd" stroke="#a9a9a9" stroke-width="1.1" fill="#fff"/>
  <path fill-rule="evenodd" d="M283 269.5v-12h6.6V270l-6.7-.5zm31.4 1l.3-12.2h6v12h-6.3zm31-.3l-.4-11.4 6.5-.3v12l-6-.3zm-60.8-36h3.8v6.2h-3.8zm30.3.2h5v6h-5zm31 .5h4v5h-4z"/>
  <path d="M286.6 207c4 4.6 4.3 4.6 4.3 4.6m26-4.6c1 1.5 2 4.8 3 5m29-4.3s1 3.6 3 4" stroke="#a8a8a8" stroke-width="1.1" fill="none"/>
  <path d="M282.2 194c12-4-2.8-11.6-5.3 0-4 .6-5 3.5-13 2.3-21 33-6 86.5 54 141.8-107-90-63-157-34-155 16 1 8 21-3 11z" fill-rule="evenodd" fill="#b97700"/>
  <path d="M285.6 177s9.7 2.7 9.7 6.8m0-7.5s6.8 3 8.3 5.6m45.2-5s-8.7 1-10.6 4m-2.6-3s-5 4-4.5 5m4 13s-4-5-3-11m-30 7s3-3 3-8m14-2l1 11m10-2c0-1 3-8 0-11m-20-2s-2 7 0 13m20-7s-4 1-6 3m-12-2c0-1 5-2 6 1" stroke="#7d6c00" stroke-width="2.4" fill="none"/>
  <path d="M300.6 302c.2 0 3.8-.8 3.8-2.5 1.8-1.2.5-4.5.5-4.5l-4-.6-5-5.2c-1-1.6 0-3-1-4.8-4 .8-5 3.5-6 6.5 0 1 0 2 2 2 1 0 2-1 4-1v3c2 1 2 3 3 5zm-4-22.3v-6.2l-4.5-.2c0 1-1 1.4-2 2.2l-3 1.6 4 4c3 1 4 1 6 0zm-14 9l-2.3-4c1.4-.4 3.3-.2 4.7.4 0 0 1 3 .3 4-.4 1-2.7 1-2.6 1zm36.6 4.2c1.2-1 2.4-2 2.7-4l-5-5h-4c-1-1-3-1-4-1 0 0 1 2 3 2 1 2 6 7 6 7zm4.3 0s4-2 6-2c0-2 3-6 3-6l5.6 7h-4l-3 2s-5 1-7 0c-1-2 1-5 0-4zm3.2-13c.6-3 .8-5 0-8h-6.4l-4.2 2s2 4 3 4c1 2 3 1 4 2l4-1zm25-7c-1 2-1.5 5-.2 8 1 0 2.5 1 3.5 1l5-9c-3.4-2-6.3-1-8.4 0z" fill-rule="evenodd" fill="#c76e2e"/>
  <path d="M353 193.2c-12-4 3-11.7 5.4 0 4 .6 4.4 3.5 12.8 2.2 20.3 33 5.2 86.6-54.2 142 106.5-90.7 63.2-157.7 33.7-155.2-16 1-8 21 2.4 11z" fill-rule="evenodd" fill="#b97700"/>
  <path d="M354.3 284.7c-.2 0-3 2-3 2l-4.2 1.7h-4l-1-3 4-3c-2-.4-5 .8-8 2.8 0 0 0 3.4 2 5 1 1.5 5 4 5 4 2 .5 4 0 6-1l6-8.5zm-23.2 30c2 .5 12-12.6 12-12.6-1-2-3-4-5-5 0 0-4 6-5 8s-3 9-2 9c0 0 0 3 1 2z" fill-rule="evenodd" fill="#c76e2e"/>
  <path stroke-linejoin="round" d="M266.4 317.4c-15-13-34.8-20-62.7-10.3 7.5 4 15.6 5 22.5 8l40.2 3z" fill-rule="evenodd" stroke="#004100" stroke-width="2.4" fill="#006800"/>
  <path d="M223.4 308.3c29.3.6 37.8 8 36.3 6.7" stroke="#00a400" stroke-linecap="round" stroke-width="2.2" fill="none"/>
  <path stroke-linejoin="round" d="M267 319c-8.8 1.6-20.8 10-24.4 9.7-9.5-1.2-18.4-5-27.7-8-4-1.2-8 0-12 0 33-15.5 44-13.4 63-1.8z" fill-rule="evenodd" stroke="#004100" stroke-width="2.2" fill="#006800"/>
  <path stroke-linejoin="round" d="M245.4 296s-11 1.6-16 2c-4.7-.4-11.8-5-19.7-13.2-4-4.5-13.4-4-13.4-4 20.6-4.3 36.7 0 49 15.3zm-15-21.2c-15-1-33.5-14.3-37.7-30.2 0 .2 5.5 3.5 4.6 4.3 24.4 6 26 11 33 25zm25 25.5c2-13.5 2.7-22.4-3.6-30.4-5.3-7-6.6-10-10.4-19-1 18-5 32 14 48zM232 263c11-16.2 13-28.4 11.2-47.6-.3 1.5-4 11-4.2 11-16.5 10.3-9.2 26.5-7 36.5z" fill-rule="evenodd" stroke="#004100" stroke-width="2.4" fill="#006800"/>
  <path stroke-linejoin="round" d="M222.2 185c11 16 9.4 31.3 7.6 50.5-.3-1.5-4-11-4.2-11-16.5-10.3-5.5-29.5-3.4-39.5z" fill-rule="evenodd" stroke="#004100" stroke-width="2.4" fill="#006800"/>
  <path stroke-linejoin="round" d="M231.4 210c26.7-13.6 16.4-30.7 21.3-44-18.6 14-21 28.6-21.3 44z" fill-rule="evenodd" stroke="#004100" stroke-width="2.4" fill="#006800"/>
  <path d="M235 206.6c3.4-9.5 10-25.6 10.7-25.6M227 226.4c-.5-6.7-4-24.7-4.2-26.5" stroke="#00a400" stroke-linecap="round" stroke-width="2.2" fill="none"/>
  <path stroke-linejoin="round" d="M228.3 256.5c-15-1-31-21.3-35.3-37 0 0 5.5 3.3 4.6 4 21.4 9.7 23.6 18.3 30.7 33zm-4.4-14c-12-16-13-28.3-12-47.5 0 1.5 4 11 4 11 16 10.3 9 26.4 7 36.5zm9-28.3c28-12.2 19-25.2 27-38.7-19 13.8-27 23.4-28 38.7z" fill-rule="evenodd" stroke="#004100" stroke-width="2.4" fill="#006800"/>
  <path d="M235 211.4c11.3-11.2 15.2-20.7 15.2-20.7" stroke="#00a400" stroke-linecap="round" stroke-width="2.2" fill="none"/>
  <g fill-rule="evenodd">
    <path d="M333.6 366.4l13.4.2c-44.7-42-130.5-60.2-118.6-137.4-12.3 83.7 70 91.5 105.2 137.2z" stroke="#e9bf00" stroke-width="2.4" fill="#ffe100"/>
    <path d="M235.4 212.7a4.3 4.3 0 1 1-8.6 0 4.3 4.3 0 0 1 8.6 0zm-2.6 23.6a4 4 0 1 1-8 0 4 4 0 0 1 8 0zm3.8 33.7a3.6 3.6 0 1 1-7.2 0 3.6 3.6 0 0 1 7.2 0zm31.3 37.2a3.6 3.6 0 1 1-8 0 3.6 3.6 0 0 1 7 0zm4 10.8a3.6 3.6 0 1 1-8 0 3.6 3.6 0 0 1 7 0z" stroke="#68300e" stroke-width="1.1" fill="#9d4916"/>
  </g>
  <g fill-rule="evenodd" fill="#fff">
    <g stroke="#000" stroke-width="1.1">
      <path d="M288.2 349c-2.4-2-4-3.5-4.8-5.8l-14-1.5c0 2.7 0 5.3-.2 8l19-.7z"/>
      <path stroke-linejoin="round" d="M185.3 339.6c8.2 1.5 20.5-.8 24.5 4.5 4.8 6-15 14-12.3 19 6.2 7 12.5 4 19.4 0 1-3 2-10 3-11-3-5-9-8-8-17 11-4 33-4 35-2 2 4 0 5 0 8-2 4-7 10-7 13 12 4 15 0 26 0 12 0 20 4 23-1-2-4-14-1-18-3-2 0-4-2-6-4s-7-2-8-7c2-10 17-8 19-10l38 2c7 0 11 13 1 16-10 4-37-5-50 1 0-2-9-6-10-7-4 1-11 1-11 1l-5.7 9c-8-3-15 3-24 1l-14 2-8.3-1-13 4 9.6-8-9-6z"/>
      <path d="M184.7 338a3.6 3.6 0 1 1-7.2 0 3.6 3.6 0 0 1 7.2 0zm-1 18a3.6 3.6 0 1 1-7.2 0 3.6 3.6 0 0 1 7.3 0z"/>
    </g>
    <g stroke="#000" stroke-width="1.1">
      <path d="M346.3 349c2.3-2 3.8-3.4 4.7-5.7l14-1.6.3 8-19-.6z"/>
      <path stroke-linejoin="round" d="M449 339.6c-8 1.5-20.3-.7-24.3 4.6-5 5.4 15 13.8 12.2 18.6-7 6.5-13 3.8-20 .2-2-3.5-3-9.8-4-11.7 2-5.8 9-8.6 7-17.3-12-4.3-33-4-36-2.3-2 3.7 0 5.3-1 8.2 2 3 7 9 7 13-12 4-16-1-26-1-13 0-21 3-23-2 2-5 13-1 18-4 2-1 3-3 5-5s7-2 8-7c-3-10-17-9-20-10l-39 3c-7-1-11 12-2 16s37-6 49 1c0-3 9-7 10-7 3 1 10 0 10 0l6 9c8-4 15 3 24 1l14 1 8-1 14 4-10-9 8-6z"/>
      <path d="M449.7 338a3.6 3.6 0 1 0 7.3 0 3.6 3.6 0 0 0-7.3 0zm1 18a3.6 3.6 0 1 0 7.2 0 3.6 3.6 0 0 0-8 0z"/>
    </g>
    <path d="M317 329.3c-3.2-.6-4.4-.4-6.6-.6l-5 15.8c7.8.7 15.2.7 15.2.7-5-1-3.7-15.8-3.6-16z"/>
  </g>
  <g font-size="9" font-family="Trebuchet MS" font-weight="bold">
    <text y="344.3" x="448.6" transform="matrix(1.7 0 0 1.7 -464.9 -233.3)">
      <tspan y="344.3" x="448.6">L</tspan>
    </text>
    <text y="344.6" x="453.6" transform="matrix(1.7 0 0 1.7 -464.9 -233.3)">
      <tspan y="344.6" x="453.6">I</tspan>
    </text>
    <text y="345.1" x="456.7" transform="matrix(1.7 0 0 1.7 -464.9 -233.3)">
      <tspan y="345.1" x="456.7">B</tspan>
    </text>
    <text y="345.5" x="462.6" transform="matrix(1.7 0 0 1.7 -464.9 -233.3)">
      <tspan y="345.5" x="462.6">E</tspan>
    </text>
    <text y="345.6" x="468.3" transform="matrix(1.7 0 0 1.7 -464.9 -233.3)">
      <tspan y="345.6" x="468.3">R</tspan>
    </text>
    <text y="345.4" x="474" transform="matrix(1.7 0 0 1.7 -464.9 -233.3)">
      <tspan y="345.4" x="474">T</tspan>
    </text>
    <text y="344.5" x="479.2" transform="matrix(1.7 0 0 1.7 -464.9 -233.3)">
      <tspan y="344.5" x="479.2">A</tspan>
    </text>
    <text y="344.3" x="485.5" transform="matrix(1.7 0 0 1.7 -464.9 -233.3)">
      <tspan y="344.3" x="485.5">S</tspan>
    </text>
  </g>
  <path d="M231.4 318.6c10 1.2 24 .3 30 0M216 284.2c8.8 6.7 27.3 10.7 27 10.7m10.7 1c-2.8-14-5.8-18-8.2-26M202 254c14.2 6.4 16.4 10.6 25.5 17m5.2-14c1.2-17.3 3.6-22 8-26m-38.8-2c5 5.8 22 23.8 22 23.8m-7-39.5c6 4.2 6 21 6 21" stroke="#00a400" stroke-linecap="round" stroke-width="2.2" fill="none"/>
</svg>
