<svg xmlns="http://www.w3.org/2000/svg" height="480" width="640" viewBox="0 0 640 480">
  <defs>
    <clipPath id="a">
      <path fill-opacity=".67" d="M42.67 0h682.67v512H42.67z"/>
    </clipPath>
  </defs>
  <g fill-rule="evenodd" clip-path="url(#a)" transform="matrix(.9 0 0 .9 -40 0)">
    <path fill="#28ae66" d="M0 0h768v512H0z"/>
    <g stroke-width="1pt" fill="#fff">
      <path d="M263.3 137.5c27.9 13.45 61.13-.07 73.14-18.64 12.33-17.34 13.84-46.44-7.46-73.14 33.07 27.42 40.38 58.5 23.92 84.1-21.94 29.26-70.62 28.42-89.6 7.67z"/>
      <path d="M312.83 69.43l5.62.07-4.44 3.53 1.7 5.52-4.6-3.26-4.6 3.3 1.6-5.6-4.5-3.5 5.6-.2 1.8-5.5zm-27.7 34.74l5.6.07-4.44 3.53 1.6 5.52-4.7-3.3-4.6 3.3 1.6-5.6-4.5-3.5 5.6-.2 1.8-5.5zm1.82-27.42l5.6.07-4.43 3.53 1.67 5.52-4.7-3.26-4.6 3.4 1.6-5.5-4.5-3.4 5.6-.1 1.8-5.5zm0-27.43l5.6.07-4.43 3.5 1.67 5.5-4.7-3.3-4.6 3.3 1.6-5.6-4.5-3.5 5.6-.2 1.8-5.5zm-30.8 34.75l5.62.07-4.45 3.53L259 93.2l-4.64-3.28-4.6 3.34 1.6-5.54-4.5-3.45 5.6-.17 1.8-5.47z"/>
    </g>
    <path fill="#ca3745" d="M47.54 0H212.1v511.98H47.55z"/>
    <g stroke-width="1pt" fill="#faae29">
      <path d="M47.54 133.48v-3.66l6.8-9.14-1.37-1.83 4.12-5.48-1.4-1.83-2.8 3.66-1.4-1.83 9.6-12.8 1.3 1.83-1.4 1.82 2.8 3.7 6.7-9.18-6.9-8.9-2.7 3.4 1.3 1.84L61 96.9l-9.6-12.8 1.36-1.8 2.8 3.7 1.4-1.8-4.12-5.5 1.38-1.83-6.8-9.15V64L57 76.8l-1.37 1.82 4.1 5.5L57 87.77l2.74 3.65 4.1-5.48 9.66 13.02-9.66 12.58-4.1-5.5L57 109.7l2.72 3.7-4.1 5.47 1.36 1.83-9.56 12.8z"/>
      <path d="M47.54 87.77l1.37 3.66v5.48h4.2l2.8 1.9-2.7 1.9H49v5.5l-1.36 3.7v-22z"/>
    </g>
    <g stroke-width="1pt" fill="#faae29">
      <path d="M47.54 221.25v-3.66l6.8-9.2-1.37-1.9 4.13-5.5-1.4-1.9-2.8 3.6-1.4-1.8 9.6-12.8 1.34 1.8-1.3 1.9 2.82 3.7 6.76-9.2-6.9-8.9-2.7 3.4 1.36 1.8-1.38 1.8-9.6-12.8 1.4-1.8 2.76 3.7 1.38-1.8-4.2-5.5 1.38-1.8-6.8-9.2v-3.7l9.58 13-1.37 1.8 4.1 5.5-2.73 3.7 2.7 3.6 4.1-5.5 9.6 13.1-9.7 12.6-4.1-5.4-2.7 3.7 2.7 3.7-4.1 5.4 1.4 1.8-9.6 12.8z"/>
      <path d="M47.54 175.54l1.37 3.66v5.48h4.2l2.8 1.83-2.7 1.9H49v5.5l-1.36 3.7v-22z"/>
    </g>
    <g stroke-width="1pt" fill="#faae29">
      <path d="M47.54 309.02v-3.66l6.8-9.14-1.37-1.83 4.12-5.5-1.4-1.9-2.8 3.6-1.4-1.8 9.6-12.8 1.3 1.8-1.4 1.8 2.8 3.7 6.7-9.2-6.9-8.9-2.7 3.4 1.3 1.8-1.3 1.9-9.6-12.8 1.3-1.9 2.7 3.6 1.4-1.9-4.1-5.5L54 252l-6.8-9.15v-3.7l9.5 12.8-1.3 1.9 4.1 5.5-2.75 3.7 2.75 3.7 4.1-5.5 9.7 13-9.7 12.6-4.1-5.5-2.76 3.64 2.7 3.6-4.1 5.5 1.36 1.8-9.54 12.8z"/>
      <path d="M47.54 263.3l1.37 3.66v5.5h4.2l2.8 1.82-2.7 1.83H49v5.5l-1.36 3.7v-22z"/>
    </g>
    <g stroke-width="1pt" fill="#faae29">
      <path d="M47.54 391.3v-3.66l6.8-9.14-1.37-1.83 4.12-5.48-1.4-1.9-2.8 3.6-1.4-1.8 9.6-12.8 1.3 1.8-1.4 1.8 2.8 3.7 6.7-9.2-6.9-8.9-2.7 3.4 1.3 1.8-1.4 1.8-9.6-12.8 1.3-1.9 2.7 3.6 1.4-1.8-4.1-5.5 1.4-1.8-6.8-9.2v-3.7l9.6 12.8-1.4 1.8 4.1 5.5-2.8 3.7 2.7 3.6 4.1-5.5 9.6 13-9.5 12.7-4.1-5.5-2.8 3.7 2.8 3.6-4.1 5.4 1.4 1.8-9.6 12.8z"/>
      <path d="M47.54 345.6l1.37 3.64v5.5h4.2l2.8 1.82-2.7 1.83H49v5.4l-1.36 3.6v-21.9z"/>
    </g>
    <g stroke-width="1pt" fill="#faae29">
      <path d="M212.1 133.48v-3.66l-6.8-9.14 1.37-1.83-4.1-5.48 1.36-1.83 2.75 3.66 1.37-1.83-9.6-12.8-1.37 1.83 1.37 1.82-2.83 3.7-6.77-9.18 6.88-8.9 2.72 3.4-1.37 1.84 1.37 1.83 9.6-12.8-1.37-1.8-2.75 3.7-1.37-1.8 4.12-5.5-1.38-1.8 6.8-9.1V64l-9.54 12.8 1.37 1.82-4.1 5.5 2.73 3.65-2.74 3.65-4.12-5.48-9.65 13.02 9.65 12.58 4.12-5.5 2.74 3.67-2.74 3.7 4.1 5.5-1.36 1.9 9.55 12.8z"/>
      <path d="M212.1 87.77l-1.36 3.66v5.48h-4.12l-2.74 1.9 2.74 1.9h4.12v5.5l1.37 3.7v-22z"/>
    </g>
    <g stroke-width="1pt" fill="#faae29">
      <path d="M212.56 221.25v-3.66l-6.8-9.2 1.37-1.9-4.1-5.5 1.36-1.9 2.7 3.6 1.3-1.9-9.6-12.8-1.4 1.8 1.3 1.8-2.9 3.7-6.8-9.2 6.9-8.9 2.7 3.4-1.4 1.8 1.3 1.8 9.6-12.8-1.4-1.9-2.8 3.6-1.4-1.8 4.1-5.5-1.4-1.8 6.8-9.2v-3.7l-9.6 12.8 1.4 1.8-4.1 5.5 2.7 3.6-2.8 3.6-4.1-5.5-9.7 13 9.6 12.6 4.1-5.5 2.7 3.7-2.7 3.62 4.1 5.4-1.4 1.84 9.54 12.8z"/>
      <path d="M212.56 175.54l-1.37 3.66v5.48H207l-2.75 1.83 2.75 1.9h4.1v5.5l1.38 3.7v-22z"/>
    </g>
    <g stroke-width="1pt" fill="#faae29">
      <path d="M212.1 309.02v-3.66l-6.8-9.14 1.37-1.83-4.1-5.5 1.36-1.9 2.75 3.6 1.37-1.8-9.6-12.8-1.37 1.8 1.37 1.8-2.83 3.7-6.77-9.2 6.88-8.9 2.72 3.4-1.37 1.8 1.37 1.8 9.6-12.8-1.37-1.9-2.75 3.6-1.37-1.9 4.12-5.5-1.38-1.8 6.8-9.2V239l-9.54 12.8 1.37 1.84-4.1 5.5 2.73 3.66-2.74 3.7-4.12-5.43-9.65 13 9.65 12.6 4.12-5.5 2.74 3.6-2.74 3.62 4.1 5.5-1.36 1.8 9.55 12.8z"/>
      <path d="M212.1 263.3l-1.36 3.66v5.5h-4.12l-2.74 1.82 2.74 1.83h4.12v5.5l1.37 3.7v-22z"/>
    </g>
    <g stroke-width="1pt" fill="#faae29">
      <path d="M212.1 391.3v-3.66l-6.8-9.14 1.37-1.83-4.1-5.48 1.36-1.9 2.75 3.6 1.37-1.8-9.6-12.8-1.37 1.8 1.37 1.8-2.83 3.7-6.77-9.2 6.88-8.9 2.72 3.4-1.37 1.8 1.37 1.8 9.6-12.8-1.37-1.9-2.75 3.6-1.37-1.8 4.12-5.5-1.38-1.8 6.8-9.2v-3.7l-9.54 12.8 1.37 1.8-4.1 5.5 2.73 3.6-2.74 3.6-4.12-5.5-9.65 13 9.65 12.6 4.12-5.5 2.74 3.7-2.74 3.6 4.1 5.4-1.36 1.9 9.55 12.8z"/>
      <path d="M212.1 345.6l-1.36 3.64v5.5h-4.12l-2.74 1.82 2.74 1.83h4.12v5.4l1.37 3.6v-21.9z"/>
    </g>
    <path d="M47.55 34.74v-3.66l6.8-9.14-1.37-1.83 4.1-5.4-1.36-1.8-2.74 3.7-1.37-1.8L61.2 2l1.4 1.82-1.4 1.8 2.9 3.7L70.8 0h2.8l-9.65 12.8-4.12-5.5-2.74 3.67 2.7 3.66-4.1 5.48L57 22l-9.55 12.8zm0-34.74h8.22l-2.74 1.83h-4.1v5.5l-1.4 3.64V0zM212.1 34.74v-3.66l-6.8-9.14 1.37-1.83-4.1-5.4 1.36-1.8 2.74 3.7 1.37-1.8-9.6-12.8-1.37 1.9 1.37 1.8-2.82 3.7-6.78-9.2h-2.8L195.7 13l4.12-5.5 2.74 3.65-2.75 3.66 4.2 5.5-1.3 1.9 9.6 12.8zm0-34.74h-8.22l2.74 1.83h4.1V7.3l1.38 3.67V0zm-95.98 504.7s5.9-10.37 20.78-13.5c14.88-3.16 17.48 6.9 25.98 6.9s21.97-6.9 21.97-6.9-13.47 13.18-23.86 12.86c-10.4-.3-14-6.9-24.6-5.96-10.7.94-20.3 6.9-20.3 6.6z" fill="#faae29"/>
    <path d="M144.84 504.7s-5.9-10.37-20.78-13.5c-14.88-3.16-17.47 6.9-25.98 6.9-8.5 0-21.96-6.9-21.96-6.9s13.46 13.18 23.85 12.86c10.4-.3 13.94-6.9 24.56-5.96 10.63.94 20.3 6.9 20.3 6.6z" fill="#faae29"/>
    <g stroke-width="1pt" fill="#faae29">
      <path d="M96.2 487.54c-1.32-2.74-4.6-14.7-2.85-16.2 2.62-1 9.6 11.22 8.96 22.2-4.5 2.48-20-1-19.8-4.25 1.1-4.5 9.8-3 13.8-1.8z"/>
      <path d="M86.82 477.08c-.85-3.04-2.2-15.65-.26-16.63 2.7-.26 7.66 13.62 5.32 24.17-4.87 1.18-19.5-6.5-18.78-9.6 1.76-4.1 10.07-.24 13.72 2.07z"/>
      <path d="M79.2 465.38c-.57-3.16-.8-15.9 1.23-16.56 2.72.18 6.4 14.74 3.13 24.85-4.94.4-18.78-9.55-17.8-12.52 2.12-3.8 10.03 1.37 13.45 4.23z"/>
      <path d="M73.2 452.92c-.2-3.24 1.07-15.86 3.13-16.1 2.67.73 4.6 15.87.2 25.2-4.92-.64-17.43-13.32-16.1-16.06 2.52-3.3 9.73 3.43 12.78 6.96z"/>
      <path d="M69.04 439.87c.14-3.25 2.75-15.5 4.82-15.35 2.56 1.24 2.85 16.6-2.5 24.98-4.8-1.57-15.84-16.52-14.23-18.97 2.85-2.78 9.27 5.26 11.9 9.34z"/>
      <path d="M70.2 425c-.35 13-2.72 13.16-7.03 3.56-1.9-3.63-2.14-18.7-.42-19.27 2.48-.1 7.38 10.7 7.45 15.7z"/>
    </g>
    <g stroke-width="1pt" fill="#faae29">
      <path d="M164.03 488.9c1.3-2.73 4.6-14.7 2.84-16.2-2.62-1-9.6 11.23-8.95 22.2 4.6 2.5 20.1-1 19.87-4.24-1.1-4.5-9.9-3-13.8-1.75z"/>
      <path d="M173.4 478.45c.86-3.04 2.2-15.65.27-16.63-2.72-.26-7.66 13.62-5.32 24.17 4.87 1.1 19.5-6.5 18.78-9.7-1.76-4.1-10.08-.2-13.73 2.1z"/>
      <path d="M181 466.75c.6-3.16.8-15.9-1.2-16.56-2.72.1-6.4 14.7-3.13 24.8 4.94.4 18.78-9.6 17.8-12.5-2.12-3.8-10.03 1.3-13.46 4.2z"/>
      <path d="M187.02 454.3c.2-3.25-1.06-15.88-3.13-16.12-2.7.74-4.6 15.88-.3 25.2 4.9-.63 17.4-13.32 16.1-16.05-2.6-3.3-9.8 3.43-12.8 6.96z"/>
      <path d="M191.2 441.24c-.15-3.25-2.76-15.5-4.84-15.35-2.56 1.2-2.84 16.6 2.5 24.9 4.82-1.6 15.84-16.5 14.24-19-2.86-2.8-9.27 5.2-11.9 9.3z"/>
      <path d="M190.03 426.38c.35 13 2.7 13.15 7.03 3.54 1.9-3.63 2.14-18.7.42-19.26-2.5-.05-7.4 10.7-7.45 15.72z"/>
    </g>
    <g transform="matrix(1 0 0 1.3 188.3 -77)">
      <path d="M-3.54 290.55h-5.32v3.54h-5.3v3.5h-21.27l-3.55 3.5 1.77 1.7h8.8l1.7-1.8h-8.9l1.7-1.8h12.4l-5.3 5.3H-39l-3.54-1.8-3.54 1.8h-12.4l-5.32-5.3h12.4l1.77 1.7h-8.86l1.8 1.7h8.9l1.8-1.7-3.5-3.6H-69V294h-5.3v-3.56h-5.33v-15.9h5.3V271H-69v-3.55h19.5L-46 264l-1.78-1.8h-8.86l-1.76 1.77h8.85l-1.8 1.77h-12.4l5.33-5.32h12.4l3.54 1.77 3.54-1.8h12.4l5.33 5.3h-12.4l-1.8-1.8h8.8l-1.8-1.8h-8.9l-1.8 1.7 3.5 3.5h21.2v3.6H-9v3.5h5.33v15.9z" transform="matrix(1.5 0 0 1.2 3.5 -39.5)" stroke="#000" stroke-width=".13" fill="#ca3745"/>
      <path d="M375.6 499.67v24.8h10.62v7.02h10.63v7h35.43l14.18 10.6 14.17-10.7h38.97v-7l10.63-.1v-7.1h10.63v-24.8h-10.63v-7.1H499.6v-7.2h-38.97l-14.17-10.7-14.18 10.6h-35.43v7.1h-10.63v7.1H375.6z" transform="matrix(.7 0 0 .6 -392 -6.5)" stroke="#faae29" stroke-width="1.42" fill="#28ae66"/>
      <path d="M-75.6 296.64l-15.82 11v-11h15.82zm31.63 0l15.82 11v-11h-15.82zM-75.6 325.2l-15.82-10.98v11h15.82zm31.63 0l15.82-10.98v11h-15.82zm5.28-21.97l-5.2 4.4h10.6l-5.2-4.4zm-42.1 0l-5.2 4.4h10.6l-5.2-4.4zm0 15.4l-5.2-4.4h10.6l-5.2 4.4zm42.2 0l-5.3-4.4h10.6l-5.3 4.4z" fill="#ca3745"/>
      <path d="M-59.8 329.6l-5.26-4.4h10.55l-5.3 4.4zm0-21.97l-5.26-4.4h10.55l-5.3 4.4zm0-15.38l-5.26 4.4h10.55l-5.3-4.4zm0 21.97l-5.26 4.4h10.55l-5.3-4.4z" fill="#faae29"/>
      <path transform="matrix(.7 0 0 .6 -392 -6.5)" stroke="#000" stroke-width=".13" fill="#faae29" d="M467.72 506.7h14.17v3.53h-14.2z"/>
      <path transform="matrix(.7 0 0 .6 -392 -6.5)" stroke="#000" stroke-width=".13" fill="#c00" d="M414.57 510.24h7.1v3.54h-7.1zm56.7 0h7.08v3.54h-7.1z"/>
      <path transform="matrix(.7 0 0 .6 -392 -6.5)" stroke="#000" stroke-width=".13" fill="#900" d="M439.37 488.98h14.17v3.54h-14.17zm0 7.08h14.17v3.54h-14.17z"/>
      <path transform="matrix(.7 0 0 .6 -392 -6.5)" stroke="#000" stroke-width=".13" fill="#900" d="M435.83 492.52h21.26v3.54h-21.3zm3.54 31.9h14.17v3.53h-14.17zm0 7.08h14.17v3.54h-14.17zm-3.54-3.55h21.26v3.54h-21.3z"/>
      <path transform="matrix(.7 0 0 .6 -392 -6.5)" stroke="#000" stroke-width=".13" fill="#faae29" d="M467.72 513.78h14.17v3.54h-14.2zm-56.7-7.1h14.17v3.55H411zm0 7.1h14.17v3.54H411zm-3.54-3.54h7.1v3.54h-7.1zm14.17 0h7.1v3.54h-7.1zm42.52 0h7.1v3.54h-7.1zm14.18 0h7.1v3.54h-7.1z"/>
      <ellipse fill="#fff" transform="matrix(.7 0 0 .6 -374.1 -38.9)" cx="413.68" rx=".89" cy="581.99" ry=".89"/>
      <ellipse fill="#fff" transform="matrix(.7 0 0 .6 -367.6 -38.9)" cx="413.68" rx=".89" cy="581.99" ry=".89"/>
      <ellipse fill="#fff" transform="matrix(.7 0 0 .6 -361 -39)" cx="413.68" rx=".89" cy="581.99" ry=".89"/>
      <ellipse fill="#fff" transform="matrix(.7 0 0 .6 -371.5 -41.1)" cx="413.68" rx=".89" cy="581.99" ry=".89"/>
      <ellipse fill="#fff" transform="matrix(.7 0 0 .6 -363.7 -41.1)" cx="413.68" rx=".89" cy="581.99" ry=".89"/>
      <ellipse fill="#fff" transform="matrix(.7 0 0 .6 -371.6 -36.8)" cx="413.68" rx=".89" cy="581.99" ry=".89"/>
      <ellipse fill="#fff" transform="matrix(.7 0 0 .6 -363.7 -36.7)" cx="413.68" rx=".89" cy="581.99" ry=".89"/>
      <ellipse fill="#fff" transform="matrix(.7 0 0 .6 -353.2 -50)" cx="413.68" rx=".89" cy="581.99" ry=".89"/>
      <ellipse fill="#fff" transform="matrix(.7 0 0 .6 -346.6 -50)" cx="413.68" rx=".89" cy="581.99" ry=".89"/>
      <ellipse fill="#fff" transform="matrix(.7 0 0 .6 -340 -50)" cx="413.68" rx=".89" cy="581.99" ry=".89"/>
      <ellipse fill="#fff" transform="matrix(.7 0 0 .6 -350.5 -52.2)" cx="413.68" rx=".89" cy="581.99" ry=".89"/>
      <ellipse fill="#fff" transform="matrix(.7 0 0 .6 -342.7 -52.2)" cx="413.68" rx=".89" cy="581.99" ry=".89"/>
      <ellipse fill="#fff" transform="matrix(.7 0 0 .6 -350.6 -47.9)" cx="413.68" rx=".89" cy="581.99" ry=".89"/>
      <ellipse fill="#fff" transform="matrix(.7 0 0 .6 -342.7 -47.8)" cx="413.68" rx=".89" cy="581.99" ry=".89"/>
      <ellipse fill="#fff" transform="matrix(.7 0 0 .6 -374.2 -60.9)" cx="413.68" rx=".89" cy="581.99" ry=".89"/>
      <ellipse fill="#fff" transform="matrix(.7 0 0 .6 -367.6 -60.9)" cx="413.68" rx=".89" cy="581.99" ry=".89"/>
      <ellipse fill="#fff" transform="matrix(.7 0 0 .6 -361.1 -61)" cx="413.68" rx=".89" cy="581.99" ry=".89"/>
      <ellipse fill="#fff" transform="matrix(.7 0 0 .6 -371.6 -63.1)" cx="413.68" rx=".89" cy="581.99" ry=".89"/>
      <ellipse fill="#fff" transform="matrix(.7 0 0 .6 -363.7 -63.1)" cx="413.68" rx=".89" cy="581.99" ry=".89"/>
      <ellipse fill="#fff" transform="matrix(.7 0 0 .6 -371.6 -58.8)" cx="413.68" rx=".89" cy="581.99" ry=".89"/>
      <ellipse fill="#fff" transform="matrix(.7 0 0 .6 -363.7 -58.7)" cx="413.68" rx=".89" cy="581.99" ry=".89"/>
      <ellipse fill="#fff" transform="matrix(.7 0 0 .6 -395.3 -49.8)" cx="413.68" rx=".89" cy="581.99" ry=".89"/>
      <ellipse fill="#fff" transform="matrix(.7 0 0 .6 -388.7 -49.8)" cx="413.68" rx=".89" cy="581.99" ry=".89"/>
      <ellipse fill="#fff" transform="matrix(.7 0 0 .6 -382.1 -49.9)" cx="413.68" rx=".89" cy="581.99" ry=".89"/>
      <ellipse fill="#fff" transform="matrix(.7 0 0 .6 -392.6 -52)" cx="413.68" rx=".89" cy="581.99" ry=".89"/>
      <ellipse fill="#fff" transform="matrix(.7 0 0 .6 -384.8 -52.1)" cx="413.68" rx=".89" cy="581.99" ry=".89"/>
      <ellipse fill="#fff" transform="matrix(.7 0 0 .6 -392.7 -47.7)" cx="413.68" rx=".89" cy="581.99" ry=".89"/>
      <ellipse fill="#fff" transform="matrix(.7 0 0 .6 -384.8 -47.6)" cx="413.68" rx=".89" cy="581.99" ry=".89"/>
    </g>
    <path d="M138.9 255.75l4.53-2.12 4.54 2.13h-9.07zm-13.6 0l4.53-2.12 4.53 2.13h-9.07zm-13.6 0l4.52-2.12 4.54 2.13h-9.07zm27.2-48.87l4.53 2.13 4.54-2.1h-9.07zm-13.6 0l4.53 2.13 4.53-2.1h-9.07zm-13.6 0l4.52 2.13 4.54-2.1h-9.07z" fill="#fff"/>
    <path d="M135.12 262.13l-5.3 4.25-5.3-4.25-5.28 4.25-5.3-4.25v2.13l3.54 2.12-1.76 2.13v2.2h1.76l1.76-2.1 1.77 2.2h1.8v-2.1l-1.8-2.1 3.6-2.1 3.6 2.1-1.7 2.2v2.2h1.8l1.8-2.1 1.8 2.2h1.7V269l-1.7-2.16 3.5-2.1 3.5 2.16-1.8 2.1v2.1h1.8l1.8-2.1 1.8 2.13h1.7v-2.15l-1.7-2.1 3.6-2.12v-2.1l-5.3 4.26-5.3-4.27zm0-61.63l-5.3-4.25-5.3 4.25-5.28-4.25-5.3 4.25v-2.13l3.54-2.12-1.76-2.13V192h1.76l1.76 2.12L121 192h1.77v2.12l-1.76 2.13 3.6 2.12 3.6-2.12-1.7-2.13V192h1.8l1.8 2.12 1.8-2.12h1.8v2.12l-1.7 2.13 3.5 2.12 3.6-2.12-1.7-2.13V192h1.7l1.8 2.12 1.8-2.12h1.7v2.12l-1.7 2.13 3.5 2.12v2.13l-5.3-4.25-5.2 4.25zm40.07 35.42l5.6-4.6-5.7-4.6 5.6-4.6-5.7-4.62h2.9l2.8 3.07 2.8-1.53h2.8v1.53l-2.9 1.54 2.8 1.6v1.6h-2.9l-2.8-1.5-2.9 3.1 2.8 3.1 2.8-1.5h2.8v1.5l-2.9 1.6 2.8 1.6v1.6H183l-2.8-1.5-2.8 3 2.87 3.1 2.8-1.5h2.9v1.5l-2.8 1.6 2.9 1.6v1.5h-2.84l-2.9-1.6-2.84 3.1H175l5.64-4.6-5.66-4.6zm-90.8 0l-5.7-4.6 5.6-4.6-5.7-4.6 5.6-4.62h-2.8l-2.9 3.07-2.9-1.53H73v1.53l2.85 1.54-2.85 1.6v1.6h2.84l2.83-1.5 2.8 3.1-2.82 3.1-2.85-1.5H73v1.5l2.83 1.6-2.85 1.6v1.6h2.85l2.85-1.5 2.8 3.1-2.74 3-2.84-1.5h-2.84v1.5l2.84 1.6-2.84 1.6v1.5h2.84l2.83-1.6 2.83 3.1h2.83l-5.7-4.6 5.6-4.6z" fill="#28ae66"/>
    <path transform="matrix(1.3 0 0 1.2 211.4 -5.6)" stroke="#000" stroke-width=".27" fill="#28ae66" d="M-26.57 214.37h1.77v1.77h-1.78z"/>
    <path transform="matrix(1.3 0 0 1.2 211.4 -5.6)" stroke="#000" stroke-width=".27" fill="#28ae66" d="M-28.35 216.14h1.78v1.77h-1.78zM-37.2 225h1.77v1.77h-1.78zm1.77-1.77h1.77V225h-1.77zm-58.47 0h1.77V225h-1.77zm-8.86-8.86h1.77v1.77h-1.7zm1.78 1.77h1.77v1.77h-1.8zm0-38.97h1.77v1.77h-1.8zm-1.78 1.77h1.77v1.77h-1.7zm10.63-10.63h1.78v1.8h-1.78zm-1.77 1.8h1.77v1.8h-1.77zm56.7-1.7h1.77v1.8h-1.78zm1.77 1.8h1.77v1.8h-1.77zm7.08 7.1h1.78v1.7h-1.78z"/>
    <path transform="matrix(1.3 0 0 1.2 211.4 -5.6)" stroke="#000" stroke-width=".27" fill="#28ae66" d="M-26.57 178.94h1.77v1.77h-1.78zM-92.14 225h1.78v1.77h-1.78z"/>
    <path d="M122.9 231.3h-6.68v-4.16h4.46v-3.92h4.46v-3.6h4.45v4.5c-3.7 0-6.7 3.05-6.7 7.2z" fill="#fff"/>
    <path d="M136.27 231.3h6.7v-4.16h-4.47v-3.92h-4.45v-3.6h-4.46v4.5c3.6 0 6.6 3.05 6.6 7.2z" fill="#faae29"/>
    <path d="M136.27 231.3h6.7v4.2h-4.47v3.9h-4.45v3.6h-4.46v-4.5c3.6 0 6.6-3.04 6.6-7.2z" fill="#fff"/>
    <path d="M122.9 231.3h-6.68v4.2h4.46v3.9h4.46v3.6h4.45v-4.5c-3.7 0-6.7-3.04-6.7-7.2z" fill="#faae29"/>
    <path d="M136.27 231.32h-6.68v-7.2c3.6 0 6.6 3.23 6.6 7.2z" fill="#28ae66"/>
    <path d="M136.27 231.3h-6.68v7.2c3.6 0 6.6-3.22 6.6-7.2z" fill="#ca3745"/>
    <path d="M122.9 231.3h6.7v7.2c-3.7 0-6.7-3.22-6.7-7.2z" fill="#28ae66"/>
    <path d="M122.9 231.32h6.7v-7.2c-3.7 0-6.7 3.23-6.7 7.2z" fill="#ca3745"/>
    <path d="M136.63 257.88l-6.8-4.26-6.8 4.25-6.8-4.25-6.8 4.25v-2.12l4.52-2.12-2.26-2.13v-2.13h2.2l2.2 2.13 2.2-2.13h2.2v2.13l-2.3 2.13 4.5 2.12 4.5-2.13-2.3-2.12v-2.13h2.3l2.2 2.13 2.2-2.13h2.3v2.13l-2.3 2.13 4.5 2.12 4.5-2.12-2.3-2.13v-2.13h2.3l2.2 2.13 2.2-2.13h2.3v2.13l-2.3 2.13 4.5 2.12v2.13l-6.8-4.25-6.8 4.25zm0-53.12l-6.8 4.25-6.8-4.2-6.8 4.3-6.8-4.2v2.1l4.52 2.2-2.26 2.2v2.2h2.2l2.2-2.1 2.2 2.2h2.2v-2.1l-2.2-2.1 4.5-2.1 4.5 2.2-2.3 2.2v2.2h2.2l2.3-2.1 2.2 2.1h2.3v-2.2l-2.2-2.1 4.5-2.1 4.5 2.15-2.3 2.16v2.2h2.3l2.3-2.16 2.3 2.13h2.2v-2.13l-2.2-2.2 4.5-2.1V205l-6.8 4.25-6.8-4.2zm24.93 31.87l-3.4-5.32 3.4-5.3-3.4-5.3 3.4-5.3h-1.7l-1.7 3.6-1.7-1.7h-1.7v1.7l1.7 1.8-1.7 1.8v1.8h1.7l1.7-1.7 1.7 3.5-1.7 3.6-1.7-1.8h-1.7v1.7l1.7 1.8-1.7 1.8v1.7h1.7l1.7-1.7 1.7 3.6-1.7 3.5-1.7-1.7h-1.7v1.8l1.7 1.8-1.7 1.8v1.7h1.7l1.7-1.8 1.7 3.6h1.7l-3.4-5.3 3.4-5.3z" fill="#28ae66"/>
    <path d="M-100.98 177.17l-7.1 7.1v26.56l7.1 7.1h31.9l7.08-7.1v-26.57l-7.1-7.1h-31.88zm-1.77-5.32l-17.72 17.72v15.95l17.72 17.7h35.43l17.72-17.7v-15.95l-17.72-17.72h-35.43z" transform="matrix(1.3 0 0 1.2 238.7 -5.6)" stroke="#000" stroke-width=".43" fill="#28ae66"/>
    <path d="M-93.9 147.05l3.55 5.32 3.54-5.32h-7.1z" transform="matrix(1 0 0 .8 215.1 140.3)" stroke="#000" stroke-width=".27" fill="#faae29"/>
    <path d="M-93.9 147.05l3.55 5.32 3.54-5.32h-7.1z" transform="matrix(1 0 0 -.8 215.1 322.3)" stroke="#000" stroke-width=".27" fill="#faae29"/>
    <path d="M-93.9 147.05l3.55 5.32 3.54-5.32h-7.1z" transform="matrix(1 0 0 -.8 229.6 322.3)" stroke="#000" stroke-width=".27" fill="#faae29"/>
    <path d="M-93.9 147.05l3.55 5.32 3.54-5.32h-7.1z" transform="matrix(1 0 0 .8 229.6 140.3)" stroke="#000" stroke-width=".27" fill="#faae29"/>
    <path d="M-93.9 147.05l3.55 5.32 3.54-5.32h-7.1z" transform="matrix(1 0 0 -.8 207.8 322.3)" stroke="#000" stroke-width=".27" fill="#ca3745"/>
    <path d="M-93.9 147.05l3.55 5.32 3.54-5.32h-7.1z" transform="matrix(1 0 0 -.8 222.3 322.3)" stroke="#000" stroke-width=".27" fill="#ca3745"/>
    <path d="M-93.9 147.05l3.55 5.32 3.54-5.32h-7.1z" transform="matrix(1 0 0 -.8 236.8 322.3)" stroke="#000" stroke-width=".27" fill="#ca3745"/>
    <path d="M-104.53 180.7l3.54-3.53h-3.5v3.54z" transform="matrix(1.9 0 0 -1.8 303.3 576.6)" stroke="#000" stroke-width=".27" fill="#ca3745"/>
    <path d="M98.08 236.63l3.4-5.32-3.4-5.3 3.4-5.3-3.4-5.3h1.7l1.7 3.6 1.7-1.7h1.7v1.7l-1.7 1.8 1.7 1.8v1.8h-1.7l-1.7-1.7-1.7 3.5 1.7 3.6 1.7-1.8h1.7v1.7l-1.7 1.8 1.7 1.8v1.7h-1.7l-1.7-1.7-1.7 3.6 1.7 3.5 1.7-1.7h1.7v1.8l-1.7 1.8 1.7 1.8v1.7h-1.7l-1.7-1.8-1.7 3.6h-1.7l3.4-5.3-3.4-5.3z" fill="#28ae66"/>
    <path d="M-76.18 154.13h7.1l1.76 1.77-1.77 1.77h-7v-3.54z" transform="matrix(1.3 0 0 1.1 261.3 59.2)" stroke="#000" stroke-width=".27" fill="#ca3745"/>
    <path d="M-99.2 180.7l-3.56 3.55v26.58l3.55 3.54h-5.4V180.7h5.3z" transform="matrix(1.3 0 0 1.2 229.6 -5.6)" stroke="#000" stroke-width=".4" fill="#ca3745"/>
    <path d="M-93.9 147.05l3.55 5.32 3.54-5.32h-7.1z" transform="matrix(1 0 0 .8 207.8 140.3)" stroke="#000" stroke-width=".27" fill="#ca3745"/>
    <path d="M-93.9 147.05l3.55 5.32 3.54-5.32h-7.1z" transform="matrix(1 0 0 .8 222.3 140.3)" stroke="#000" stroke-width=".27" fill="#ca3745"/>
    <path d="M-93.9 147.05l3.55 5.32 3.54-5.32h-7.1z" transform="matrix(1 0 0 .8 236.8 140.3)" stroke="#000" stroke-width=".27" fill="#ca3745"/>
    <path d="M-99.2 180.7l-3.56 3.55v26.58l3.55 3.54h-5.4V180.7h5.3z" transform="matrix(-1.3 0 0 1.2 30.1 -5.6)" stroke="#000" stroke-width=".4" fill="#ca3745"/>
    <path d="M-104.53 180.7l3.54-3.53h-3.5v3.54z" transform="matrix(-1.9 0 0 -1.8 -43.6 576.6)" stroke="#000" stroke-width=".27" fill="#ca3745"/>
    <path d="M-104.53 180.7l3.54-3.53h-3.5v3.54z" transform="matrix(-1.9 0 0 1.8 -43.6 -114)" stroke="#000" stroke-width=".27" fill="#ca3745"/>
    <path d="M-104.53 180.7l3.54-3.53h-3.5v3.54z" transform="matrix(1.9 0 0 1.8 303.3 -114)" stroke="#000" stroke-width=".27" fill="#ca3745"/>
    <path d="M-100.98 177.17l-7.1 7.1v26.56l7.1 7.1h31.9l7.08-7.1v-26.57l-7.1-7.1h-31.88zm0-1.77l-8.86 8.85v26.58l8.86 8.86h31.9l8.85-8.9v-26.6l-8.86-8.9h-31.8z" transform="matrix(1.3 0 0 1.2 238.7 -5.6)" stroke="#000" stroke-width=".43" fill="#28ae66"/>
    <path d="M-76.18 154.13h7.1l1.76 1.77-1.77 1.77h-7v-3.54z" transform="matrix(1.3 0 0 1.1 261.3 63)" stroke="#000" stroke-width=".27" fill="#faae29"/>
    <path d="M-76.18 154.13h7.1l1.76 1.77-1.77 1.77h-7v-3.54z" transform="matrix(1.3 0 0 1.1 261.3 66.8)" stroke="#000" stroke-width=".27" fill="#ca3745"/>
    <path d="M-76.18 154.13h7.1l1.76 1.77-1.77 1.77h-7v-3.54z" transform="matrix(1.3 0 0 1.1 261.3 70.6)" stroke="#000" stroke-width=".27" fill="#faae29"/>
    <path d="M-76.18 154.13h7.1l1.76 1.77-1.77 1.77h-7v-3.54z" transform="matrix(1.3 0 0 1.1 261.3 55.3)" stroke="#000" stroke-width=".27" fill="#faae29"/>
    <path d="M-76.18 154.13h7.1l1.76 1.77-1.77 1.77h-7v-3.54z" transform="matrix(-1.3 0 0 1.1 -1.7 59.2)" stroke="#000" stroke-width=".27" fill="#ca3745"/>
    <path d="M-76.18 154.13h7.1l1.76 1.77-1.77 1.77h-7v-3.54z" transform="matrix(-1.3 0 0 1.1 -1.7 63)" stroke="#000" stroke-width=".27" fill="#faae29"/>
    <path d="M-76.18 154.13h7.1l1.76 1.77-1.77 1.77h-7v-3.54z" transform="matrix(-1.3 0 0 1.1 -1.7 66.8)" stroke="#000" stroke-width=".27" fill="#ca3745"/>
    <path d="M-76.18 154.13h7.1l1.76 1.77-1.77 1.77h-7v-3.54z" transform="matrix(-1.3 0 0 1.1 -1.7 70.6)" stroke="#000" stroke-width=".27" fill="#faae29"/>
    <path d="M-76.18 154.13h7.1l1.76 1.77-1.77 1.77h-7v-3.54z" transform="matrix(-1.3 0 0 1.1 -1.7 55.3)" stroke="#000" stroke-width=".27" fill="#faae29"/>
    <path d="M-100.98 178.94v37.2h8.86V225h56.7v-8.86h8.85v-37.2h-8.86v-8.86h-56.7v8.86h-8.85zm1.77 1.77v33.7h8.8v8.9h53.1v-8.8h8.8v-33.7h-8.9V172h-53.1v8.86h-8.9z" transform="matrix(1.3 0 0 1.2 211.4 -5.6)" stroke="#000" stroke-width=".27" fill="#970000"/>
    <path d="M-28.35 69.1l-5.3-7.1v-5.3L-39 51.37h-10.6l-8.86-5.32H-86.8l-8.88 5.32h-10.63l-5.4 5.3V62l-5.3 7.1v14.17l5.3 7.08v5.32l5.3 5.3h10.6l8.8 5.33h28.3l8.8-5.32H-39l5.32-5.3v-5.33l5.3-7.08V69.1z" transform="matrix(1.3 0 0 1.2 222.8 -36.7)" stroke="#000" stroke-width=".27" fill="#ca3745"/>
    <path d="M75.43 51.2v6.13l6.8 8.17v6.13l6.8 6.13h13.6l11.34 6.13h15.87V51.2h-54.4z" fill="#faae29"/>
    <path d="M110.7 65.5l-8.3 5.25h-4.94l1.65 1.75-3.3 3.5 1.7 1.76 4.9-1.76 1.7 1.76.8-4.68 9.2-5.54-3.2-2.04z" fill="#ca3745"/>
    <path d="M101.63 61.4l-8.3 5.27H88.4l1.65 1.75-3.3 3.5 1.65 1.75 4.94-1.75L95 73.67l.75-4.68 9.14-5.6-3.3-2.1zm-4.54-8.16l-8.3 5.26h-5l1.6 1.75-3.3 3.5 1.6 1.75 4.9-1.75 1.6 1.75.7-4.68 9.1-5.54-3.2-2.04z" fill="#ca3745"/>
    <path d="M184.22 51.2v-6.13l-6.8-8.18v-6.2l-6.8-6.2h-13.6l-11.34-6.2H129.8V51h54.42z" fill="#faae29"/>
    <path d="M129.83 83.9h-4.2l-4.87-4.1h-7.72l-4.2-2.04 2.1-2.04 4.2 2.04h4.2l4.2-6.13 6.3 2.05v4.08h-6.3l6.3 6.13z" fill="#ca3745"/>
    <path d="M75.43 51.2v-6.13l6.8-8.18v-6.2l6.8-6.2h13.6l11.34-6.2h15.87V51h-54.4z" fill="#fff"/>
    <path d="M129.83 18.5h-4.2l-4.87 4.1h-7.72l-4.2 2.03 2.1 2.04 4.2-2.04h4.2l4.2 6.13 6.3-2.04v-4.1h-6.3l6.3-6.12z" fill="#ca3745"/>
    <path d="M129.83 18.5h4.2l4.87 4.1h7.72l4.2 2.03-2.1 2.04-4.2-2.04h-4.2l-4.2 6.13-6.3-2.04v-4.1h6.3l-6.3-6.12z" fill="#ca3745"/>
    <path d="M184.22 51.2v6.13l-6.8 8.17v6.13l-6.8 6.13h-13.6l-11.34 6.13H129.8V51.2h54.42z" fill="#fff"/>
    <path d="M129.83 83.9h4.2l4.87-4.1h7.72l4.2-2.04-2.1-2.04-4.2 2.04h-4.2l-4.2-6.13-6.3 2.05v4.08h6.3l-6.3 6.13zm-28.2-42.92l-8.3-5.26H88.4l1.65-1.75-3.3-3.5 1.65-1.75 4.94 1.75L95 28.72l.75 4.68 9.14 5.54-3.3 2.04zm47.33-4.08l8.28-5.26h4.95l-1.7-1.75 3.3-3.5-1.7-1.8-5 1.7-1.7-1.8-.8 4.7-9.2 5.5 3.2 2z" fill="#ca3745"/>
    <path d="M110.7 36.9l-8.3-5.26h-4.94l1.65-1.75-3.3-3.5 1.7-1.8 5 1.7 1.7-1.8.8 4.7 9.1 5.5-3.2 2zM97.1 49.16l-8.3-5.26h-4.94l1.65-1.75-3.3-3.5 1.7-1.76 5 1.7 1.7-1.8.8 4.6 9.2 5.5-3.3 2z" fill="#ca3745"/>
    <path d="M79.45 51.2h2.1l2.1 2.05 2.1-2.04h44.1v28.7h-2.1l2.1 2.1v2l-6.3-6.1v-2.1h2.1v2.1h2.1v-2.1l-17.05-9H96.3v-8.9l-6.38-4.6h-4.2l-2.1 2.1 2.1 2.1h-2.1l-4.2-6.1z" fill="#fff"/>
    <path d="M79.45 51.2h2.1l2.1-2.06 2.1 2.05h44.1V22.5h-2.1l2.1-2.05v-2l-6.3 6.1v2.05h2.1v-2h2.1v2.05L110.7 35.7H96.3v8.84l-6.38 4.6h-4.2l-2.1-2.05 2.1-2.1h-2.1l-4.2 6.1z" fill="#faae29"/>
    <path d="M89.03 51.2h40.8v24.5L111.7 65.5H98.1v-8.2l-9.07-6.13z" fill="#28ae66"/>
    <path d="M158.03 40.98l8.28-5.26h5l-1.6-1.75 3.3-3.5-1.6-1.75-4.9 1.75-1.6-1.75-.7 4.68-9.1 5.54 3.3 2.04zm4.53 8.18l8.3-5.26h4.93l-1.7-1.75 3.3-3.5-1.7-1.76-5 1.7-1.7-1.8-.8 4.6-9.1 5.5 3.2 2z" fill="#ca3745"/>
    <path d="M180.2 51.2h-2.1l-2.1-2.06-2.1 2.05h-44.1V22.5h2.1l-2.1-2.05v-2l6.3 6.1v2.05H134v-2h-2.1v2.05l17.06 9.03h14.36v8.82l6.38 4.6h4.2l2.1-2.05-2.1-2.05h2.1l4.2 6.13z" fill="#fff"/>
    <path d="M170.63 51.2h-40.8V26.7l18.12 10.2h13.6v8.18l9.08 6.13z" fill="#28ae66"/>
    <path d="M148.96 65.5l8.28 5.25h4.95l-1.7 1.75 3.3 3.5-1.7 1.76-4.9-1.76-1.7 1.78-.8-4.68-9.2-5.55 3.2-2.04z" fill="#ca3745"/>
    <path d="M158.03 61.4l8.28 5.27h5l-1.6 1.75 3.3 3.5-1.6 1.75-4.9-1.75-1.6 1.75L164 69l-9.14-5.6 3.28-2.05zm4.53-8.16l8.3 5.26h4.93l-1.7 1.75 3.3 3.5-1.7 1.75-5-1.75-1.7 1.75-.8-4.68-9.2-5.54 3.2-2.04z" fill="#ca3745"/>
    <path d="M180.2 51.2h-2.1l-2.1 2.05-2.1-2.04h-44.1v28.7h2.1l-2.1 2.1v2l6.3-6.1v-2.1H134v2.1h-2.1v-2.1l17.06-9h14.36v-8.9l6.38-4.6h4.2l2.1 2.1-2.1 2.1h2.1l4.2-6.1z" fill="#faae29"/>
    <path d="M170.63 51.2h-40.8v24.5l18.12-10.2h13.6v-8.2l9.08-6.13zm-81.6 0h40.8V26.7L111.7 36.9H98.1v8.18l-9.07 6.13z" fill="#ca3745"/>
    <path d="M134.3 51.2l11.4-6.13h6.8l-2.27-2.05 4.53-4.08-2.26-2.05-6.8 2-2.27-2.1-1.05 5.4-12.56 6.4 4.5 2.3zm-8.95 0l-11.4 6.12h-6.8l2.27 2.04-4.53 4.1 2.2 2.03 6.8-2.1 2.2 2 1-5.5 12.5-6.5-4.5-2.4z" fill="#ca3745"/>
    <path d="M125.35 51.2l-11.4-6.13h-6.8l2.27-2.05-4.53-4.08 2.2-2.05 6.8 2 2.2-2.1 1 5.4 12.5 6.4-4.5 2.4zm8.96 0l11.4 6.12h6.8l-2.2 2.04 4.6 4.1-2.2 2.03-6.8-2.1-2.2 2-1.1-5.5-12.6-6.5 4.5-2.4z" fill="#28ae66"/>
    <path d="M116.22 51.2l13.6-10.22 13.6 10.22-13.6 10.22-13.6-10.22z" fill="#fff"/>
    <path d="M85.74 55.28l2.1 2.04-2.1 2.05h-2.1l-6.3-8.18h2.1l4.2 6.1h2.1l-2.1-2.1 2.1-2.1h4.2v2h-4.2z" fill="#ca3745"/>
    <path d="M85.74 47.1l2.1-2.03-2.1-2.05h-2.1l-6.3 8.18h2.1l4.2-6.13h2.1l-2.1 2.04 2.1 2.1h4.2v-2.1h-4.2zm88.17 8.18l-2.1 2.04 2.1 2.05h2.1l6.3-8.18h-2.1l-4.2 6.1h-2.1l2.1-2.1-2.1-2.1h-4.2v2h4.2z" fill="#ca3745"/>
    <path d="M173.9 47.1l-2.1-2.03 2.1-2.05h2.1l6.3 8.18h-2.1l-4.2-6.13h-2.1l2.1 2.04-2.1 2.1h-4.2v-2.1h4.2zm-46.17-4.08h4.2v16.35h-4.2z" fill="#ca3745"/>
    <path fill="#ca3745" d="M121.43 47.1h16.8v8.18h-16.8z"/>
    <path d="M333.07 170.08l-10.63 5.32v8.85l10.63 5.32h10.63l10.63-5.32v-8.85l-10.63-5.32h-10.63z" transform="matrix(3.6 0 0 3.8 -1073.2 -292.2)" stroke="#000" stroke-width=".07" fill="#28ae66"/>
    <path d="M87.17 396.27h2.28v-4.2h4.58v4.2h2.28v-9.78h-2.2v4.1h-4.6v-4.2h-2.3v9.8zm57.9 32.6h2.3v-4.2h4.56v4.2h2.28v-9.78H152v4.1h-4.58V419h-2.3v9.8zm-36.57-48.9h2.3v-4.2h4.56v4.2h2.28v-9.77h-2.28v4.2h-4.57v-4.2h-2.3v9.77zm33.53 0h2.28v-4.2h4.6v4.2h2.3v-9.77h-2.3v4.2h-4.5v-4.2h-2.3v9.77zm21.32 16.3h2.28v-4.2h4.58v4.2h2.3v-9.78h-2.3v4.1h-4.5v-4.2h-2.3v9.8zm0 16.3h2.28v-4.2h4.58v4.2h2.3v-9.78h-2.3v4.1h-4.5v-4.2h-2.3v9.8z" fill="#c00"/>
    <path d="M129.83 435.4v-35.87h54.85v16.3L148.1 435.4h-18.27zm0-71.73v35.86H74.97v-16.3l36.57-19.56h18.3z" fill="#faae29"/>
    <path d="M129.83 363.67v35.86h54.85v-16.3l-36.57-19.56h-18.2zm0 71.72v-35.9H74.97v16.3l36.57 19.5h18.3z" fill="#fff"/>
    <path d="M-177.16 368.5h21.26l-21.26-10.63v10.63zm24.8-1.77v17.7h-33.66v-14.16h-7.08l-8.86-5.3v-12.42l5.3-5.3h-7.08v17.7h-1.77v-19.48h17.7l35.4 21.26z" transform="matrix(1 0 0 .9 341.9 45.9)" stroke="#000" stroke-width=".13" fill="#faae29"/>
    <path d="M111.5 388.12v22.8h5.5l12.8 6.53 12.8-6.52h5.48v-22.8h-5.48l-12.8-6.53-12.8 6.52h-5.5z" fill="#ca3745"/>
    <path d="M-177.16 368.5h21.26l-21.26-10.63v10.63zm24.8-1.77v17.7h-33.66v-14.16h-7.08l-8.86-5.3v-12.42l5.3-5.3h-7.08v17.7h-1.77v-19.48h17.7l35.4 21.26z" transform="matrix(-1 0 0 -.9 -82.3 753.2)" stroke="#000" stroke-width=".13" fill="#faae29"/>
    <path d="M-177.16 368.5h21.26l-21.26-10.63v10.63zm24.8-1.77v17.7h-33.66v-14.16h-7.08l-8.86-5.3v-12.42l5.3-5.3h-7.08v17.7h-1.77v-19.48h17.7l35.4 21.26z" transform="matrix(-1 0 0 .9 -82.3 45.9)" stroke="#000" stroke-width=".13" fill="#fff"/>
    <path d="M-177.16 368.5h21.26l-21.26-10.63v10.63zm24.8-1.77v17.7h-33.66v-14.16h-7.08l-8.86-5.3v-12.42l5.3-5.3h-7.08v17.7h-1.77v-19.48h17.7l35.4 21.26z" transform="matrix(1 0 0 -.9 341.9 753.2)" stroke="#000" stroke-width=".13" fill="#fff"/>
    <path d="M85.95 412.58h2.3v-4.9h4.56v4.9h2.3v-11.4h-2.3v4.88h-4.5v-4.9H86v11.42zm21.93 16.3h2.3v-4.9h4.56v4.9h2.3v-11.4h-2.3v4.88h-4.57v-4.9h-2.3v11.42zM85.95 386.5h2.3v4.9h4.56v-4.9h2.3v11.4h-2.3v-4.88h-4.5v4.9H86V386.5zm21.93-16.3h2.3v4.9h4.56v-4.9h2.3v11.4h-2.3v-4.88h-4.57v4.9h-2.3V370.2zm34.75 58.68h2.3v-4.9h4.56v4.9h2.2v-11.4h-2.3v4.88h-4.6v-4.9h-2.3v11.42zm21.95-30.98h2.28V393h4.57v4.9h2.3v-11.4h-2.3v4.88h-4.57v-4.9h-2.28v11.42z" fill="#ca3745"/>
    <path d="M142.63 428.88h2.3v-4.9h4.56v4.9h2.2v-11.4h-2.3v4.88h-4.6v-4.9h-2.3v11.42z" fill="#ca3745"/>
    <path d="M142.63 428.88h2.3v-4.9h4.56v4.9h2.2v-11.4h-2.3v4.88h-4.6v-4.9h-2.3v11.42zm21.95-16.3h2.28v-4.9h4.57v4.9h2.3v-11.42h-2.3v4.9h-4.57v-4.9h-2.28v11.4zm-21.95-30.97h2.3v-4.9h4.56v4.9h2.2v-11.4h-2.3v4.9h-4.6v-4.9h-2.3v11.4z" fill="#ca3745"/>
    <path d="M131.66 399.53l7.3-5.94h3.67v2.9h-3.66v1.5h5.5v-6h-5.5v-4.5h-7.3v4.5h1.82v-3h3.6v3l-7.3 5.9-7.3-6v-3h3.6v3h1.9v-4.5h-7.3v4.5h-5.5v5.9h5.5v-1.5H117v-3h3.66l7.3 5.9-7.3 5.9H117v-3h3.66V401h-5.5v5.94h5.5v4.45h7.3v-4.5h-1.83v2.9h-3.66v-3l7.32-6 7.3 5.9v3h-3.7v-3h-1.9v4.4h7.3v-4.5h5.5V401h-5.5v1.5h3.6v2.96h-3.7l-7.3-5.94z" fill="#fff"/>
    <g transform="translate(204.8 18.2)">
      <path d="M-122.35 134.28l3.43-3.73h20.57l15.43-16.78h20.58l15.43 16.8h20.5l3.4 3.7-3.5 3.74H-47l-15.44 16.8H-83L-98.4 138h-20.57l-3.43-3.7z" fill="#ca3745"/>
      <path d="M-132.05 131.1l1.7-1.77h20.56l15.4-17.55h17.2l15.4 17.55h20.6l1.7 1.75-1.7 1.75h-20.6l-13.7 15.78h-20.6l-13.6-15.7h-20.5l-1.7-1.7z" stroke="#000" stroke-width=".26" fill="#ca3745"/>
      <path d="M-64.07 136.15l6.86 7.46-3.5 3.8-1.7-1.8h-1.7v1.9l1.7 1.9h3.4l3.4-3.7V142l-6.9-7.46 6.8-7.43v-3.7l-3.5-3.7h-3.5l-1.7 1.9v1.9h1.7l1.7-1.9 3.4 3.7-6.9 7.5-6.9-7.4 6.9-7.4v-2H-66l-6.87 7.5-6.88-7.4h-1.75v1.9l6.88 7.5-6.85 7.5-6.85-7.4 3.4-3.7 1.73 1.9h1.7v-1.9l-1.7-1.8h-3.4l-3.4 3.7v3.7l6.9 7.5-6.9 7.3v3.7l3.5 3.8h3.5l1.7-1.9V146H-83l-1.7 1.82-3.4-3.78 6.83-7.5 6.85 7.47-6.87 7.5v1.9h1.7l6.9-7.4 6.9 7.4h1.7v-1.8l-6.8-7.4 6.9-7.4zm-8.57-9.33l-6.86 7.46 6.86 7.46 6.85-7.46-6.8-7.46zm-10.28 27.97v14.9l1.72-1.9 1.7 1.8 1.73-1.9 1.7 1.8 1.73-1.9 1.7 1.8 1.73-1.9 1.7 1.8 1.7-1.9 1.7 1.8 1.7-1.9 1.7 1.8v-14.9H-83zm20.57-41v-15l-1.72 1.8-1.7-1.9-1.73 1.8-1.7-1.9-1.73 1.8-1.7-1.9-1.73 1.8-1.7-1.9-1.72 1.8-1.72-1.8-1.7 1.8-1.73-1.9v14.9h20.58zm29.15 16.7v-14.9l-1.72 1.8-1.7-1.9-1.73 1.9-1.7-1.9-1.73 1.8-1.7-1.9-1.73 1.8-1.8-1.9v14.9h13.7zm-65.16 0v-14.9l-1.7 1.8-1.72-1.9-1.72 1.9-1.7-1.9-1.73 1.8-1.7-1.9-1.73 1.8-1.7-1.9v14.9h13.7zm65.16 7.5v14.9l-1.72-1.9-1.7 1.8-1.73-1.9-1.7 1.8-1.73-1.9-1.7 1.8-1.73-1.9-1.8 1.8V138h13.7zm-65.16 0v14.9l-1.7-1.9-1.72 1.8-1.72-1.9-1.7 1.8-1.73-1.9-1.7 1.8-1.73-1.9-1.7 1.8V138h13.7z" fill="#faae29"/>
      <path d="M-62.35 154.8v9.3l1.72-1.85 1.7 1.86 1.73-1.8 1.7 1.9 1.72-1.8 1.72 1.9 1.7-1.8 1.73 1.9 1.7-1.8V138l-15.42 16.8zm-20.58 0v9.3l-1.72-1.85-1.7 1.86-1.73-1.8-1.7 1.9-1.73-1.8-1.8 1.9-1.7-1.8-1.7 1.9-1.7-1.8V138l15.4 16.8zm0-41v-9.33l-1.72 1.86-1.7-1.86-1.73 1.86-1.7-1.86-1.73 1.86-1.8-1.86-1.7 1.86-1.8-1.86-1.7 1.86v24.24L-83 113.8zm20.58 0v-9.33l1.72 1.86 1.7-1.86 1.73 1.86 1.7-1.86 1.72 1.86 1.72-1.86 1.7 1.86 1.73-1.86 1.7 1.86v24.24l-15.42-16.78zm-49.73 35.4l-1.7-1.86-1.73 1.87-1.8-1.8-1.7 1.9-1.7-1.8-1.8 1.9-1.7-1.8-1.7 1.9v-29.9l1.7 1.9 1.7-1.8 1.7 1.9 1.7-1.8 1.7 1.9 1.7-1.8 1.7 1.9 1.7-1.8v11h-6.8l-3.5 3.8 3.4 3.7h6.8v11.2zm78.88 0l1.7-1.86 1.73 1.87 1.7-1.8 1.73 1.9 1.7-1.8 1.73 1.9 1.7-1.8 1.7 1.9v-29.9l-1.7 1.9-1.7-1.8-1.8 1.9-1.7-1.8-1.8 1.9-1.7-1.8-1.8 1.9-1.7-1.8v11h6.8l3.4 3.8-3.5 3.7h-6.9v11.2z" fill="#28ae66"/>
      <path d="M-91.36 155.98s-1.43 1.47-1.43 2.2c0 .7 1.6 2.24 2.2 2.22.8.02 2.2-1.47 2.2-2.2 0-.75-1.4-2.22-1.4-2.22v-2.95s3.1 5.07 3.1 2.86c0-1.6-3.1-4.4-3.1-4.4h-1.4s-3.1 3.2-3.1 4.3c0 2.2 3.1-2.9 3.1-2.9v2.9z" fill="#fff"/>
      <path d="M-73.5 161.67s-1.7 2.06-1.7 3.1c-.05.96 1.82 3.1 2.56 3.1.97 0 2.57-2.07 2.57-3.1s-1.7-3.1-1.7-3.1v-4.13s3.02 6.75 3.02 3.66c0-2-3.03-5.72-3.03-5.72h-1.72s-3.5 4.65-3.03 5.72c0 3.1 3.03-3.66 3.03-3.66v4.13z" fill="#ca3745"/>
      <ellipse fill="#28ae66" transform="matrix(1 0 0 1.1 -482.4 -277.9)" cx="403.94" rx="3.54" cy="391.54" ry="1.77"/>
      <ellipse fill="#28ae66" transform="matrix(1 0 0 1.1 -463.5 -277.9)" cx="403.94" rx="3.54" cy="391.54" ry="1.77"/>
      <ellipse fill="#28ae66" transform="matrix(1 0 0 1.1 -444.7 -277.9)" cx="403.94" rx="3.54" cy="391.54" ry="1.77"/>
      <path d="M-91.72 112.76s-1.43-1.47-1.43-2.2c-.03-.7 1.53-2.24 2.15-2.22.8-.02 2.14 1.47 2.14 2.2 0 .75-1.43 2.22-1.43 2.22v2.95s3.1-5 3.1-2.8c0 1.6-3.1 4.4-3.1 4.4h-1.4s-3.1-3.2-3.1-4.3c0-2.2 3.1 2.9 3.1 2.9V113z" fill="#fff"/>
      <path d="M-73.86 107.06s-1.7-2.06-1.7-3.1c-.05-.95 1.82-3.1 2.56-3.1.97 0 2.57 2.08 2.57 3.1s-1.7 3.1-1.7 3.1v4.13s3.02-6.8 3.02-3.7c0 2-3.1 5.7-3.1 5.7h-1.7s-3.5-4.7-3.1-5.7c0-3.1 3 3.6 3 3.6V107z" fill="#ca3745"/>
      <path d="M-54.86 155.98s-1.43 1.47-1.43 2.2c0 .7 1.6 2.24 2.2 2.22.8.02 2.2-1.47 2.2-2.2 0-.75-1.4-2.22-1.4-2.22v-2.95s3.1 5.07 3.1 2.86c0-1.6-3.1-4.4-3.1-4.4h-1.4s-3.1 3.2-3.1 4.3c0 2.2 3.1-2.9 3.1-2.9v2.9zm-.36-43.22s-1.43-1.47-1.43-2.2c-.03-.7 1.53-2.24 2.15-2.22.8-.02 2.14 1.47 2.14 2.2 0 .75-1.43 2.22-1.43 2.22v2.95s3.1-5 3.1-2.8c0 1.6-3.1 4.4-3.1 4.4h-1.4s-3.1-3.2-3.1-4.3c0-2.2 3.1 2.9 3.1 2.9V113z" fill="#fff"/>
      <path d="M-106.27 145.6s-1.9 1.38-1.9 2.07c-.04.64 2.02 2.1 2.85 2.07 1.07.02 2.85-1.38 2.85-2.07 0-.7-1.9-2.08-1.9-2.08v-2.8s3.36 4.5 3.36 2.4c0-1.4-3.4-3.9-3.4-3.9h-1.9s-3.9 3.1-3.4 3.8c0 2 3.3-2.5 3.3-2.5v2.7zm-.4-21.13s-1.9-1.38-1.9-2.07c-.04-.65 2.02-2.1 2.85-2.08 1.07 0 2.85 1.4 2.85 2.08 0 .7-1.9 2.07-1.9 2.07v2.77s3.36-4.53 3.36-2.45c0 1.3-3.4 3.8-3.4 3.8h-1.9s-3.9-3.1-3.4-3.9c0-2.1 3.3 2.4 3.3 2.4v-2.8zm66.25 20.68s-1.9 1.38-1.9 2.08c-.04.64 2.02 2.08 2.85 2.07 1.07 0 2.85-1.38 2.85-2.08 0-.7-1.9-2.07-1.9-2.07v-2.76s3.36 4.5 3.36 2.4c0-1.4-3.36-3.9-3.36-3.9h-1.9s-3.9 3.1-3.37 3.8c0 2 3.4-2.5 3.4-2.5v2.8zm-.4-21.12s-1.9-1.38-1.9-2.07c-.04-.65 2.02-2.1 2.85-2.08 1.07 0 2.85 1.4 2.85 2.08 0 .7-1.9 2.07-1.9 2.07v2.77s3.36-4.53 3.36-2.45c0 1.34-3.36 3.83-3.36 3.83h-1.9s-3.9-3.12-3.37-3.83c0-2.08 3.4 2.45 3.4 2.45v-2.77z" fill="#ca3745"/>
      <path d="M-120.28 145.36c-.62-1.27-.46-1.86-.46-2.6-.03-.68 1.72-2.02 2.34-2 .8-.02 2.14 1.47 2.14 2.2 0 .74.04 1.38-.3 2.65l-.9-2.1c-1.07 3.1-1.13 3.1-1.78-.1l-1.05 2zm.06-21.43c-.62 1.28-.46 1.86-.46 2.6-.03.7 1.72 2.02 2.34 2 .8.02 2.14-1.47 2.14-2.2 0-.74.04-1.38-.3-2.65l-.9 2.16c-1.07-3.06-1.13-3.13-1.78.07l-1.04-1.9zm92.4 21.16c-.6-1.3-.44-1.9-.44-2.6-.03-.7 1.72-2.1 2.34-2 .8-.1 2.14 1.4 2.14 2.2 0 .7.03 1.3-.3 2.6l-.9-2.2c-1.07 3-1.13 3.1-1.78-.1l-1.05 2zm.07-21.5c-.62 1.2-.46 1.8-.46 2.6-.1.7 1.7 2 2.3 2 .8 0 2.1-1.5 2.1-2.2 0-.8 0-1.4-.3-2.7l-.9 2.1c-1.1-3.1-1.2-3.2-1.8 0l-1.1-2z" fill="#fff"/>
      <path d="M-83.24 170.06v-5.32h-15.94V154.1h-14.18v-3.52h-12.4v-31.9h12.4v-3.53h14.18V104.5h15.94v-5.3h21.26v5.3h15.95v10.64h14.17v3.54h12.4v31.9h-12.4v3.53h-14.17v10.7h-15.95v5.3h-21.26zm-1.77 1.77v-5.3h-16V155.9h-14.2v-3.57h-12.4V116.9h12.4v-3.53h14.2v-10.63h16v-5.32h24.8v5.32h15.9v10.63h14.1v3.53h12.4v35.44h-12.4v3.56h-14.1v10.62h-15.9v5.3H-85z" stroke="#000" stroke-width=".13" fill="#ca3745"/>
    </g>
  </g>
</svg>
