<svg xmlns="http://www.w3.org/2000/svg" height="480" width="640" viewBox="0 0 640 480">
  <defs>
    <clipPath id="a">
      <path fill-opacity=".7" d="M-85.3 0h682.6v512H-85.3z"/>
    </clipPath>
  </defs>
  <g fill-rule="evenodd" clip-path="url(#a)" transform="matrix(.9 0 0 .9 80 0)">
    <path fill="#e70013" d="M-128 0h768v512h-768z"/>
    <path d="M385.8 255.8c0 71.3-57.8 129-129 129-71.4 0-129.3-57.7-129.3-129s58-129.2 129.2-129.2c71.3 0 129 58 129 129.2z" fill="#fff"/>
    <path d="M256.7 341.4c-47.3 0-85.7-38.4-85.7-85.6s38.4-85.7 85.7-85.7c11.8 0 25.3 3 34.4 9.7-62.4 2.3-78.3 55.4-78.3 77s10 69 78.5 76c-7.7 5-22.5 8.8-34.3 8.8z" fill="#e70013"/>
    <path fill="#e70013" d="M332 291.8l-38.8-14.2-25.7 32.4 1.5-41.3-38.8-14.5 39.8-11.4 1.7-41.3 23.2 34.3 39.6-11-25.5 32.5z"/>
  </g>
</svg>
