<svg xmlns="http://www.w3.org/2000/svg" height="480" width="640" viewBox="0 0 640 480">
  <g fill-rule="evenodd">
    <path fill="#fff" d="M320 0h320v480H320z"/>
    <path d="M477.6 187.37c0 .13-11.18 44.57-23.62 60.12-13.88 17.4-22.64 17.4-22.64 17.4l-14.17-3.6s8.3.4 24.76-20.9c16.7-21.6 21.88-57.2 21.63-56.6l14.05 3.3z" stroke="#000" stroke-width=".24" fill="#fff"/>
    <path d="M438.9 190.67c-.3-1.87 6.78 44.2 28.04 65.45 10.63 10.63 17.72 10.63 17.72 10.63l17.72-3.54s-10.35.8-26.8-20.5c-16.7-21.5-21.73-52.6-21.6-52.7l-15.08.8z" stroke="#000" stroke-width=".24" fill="#fff"/>
    <path d="M438.4 189.17c0 .13 11.18 44.57 23.62 60.12 13.88 17.4 22.64 17.4 22.64 17.4l14.17-3.6s-8.3.4-24.76-20.9c-16.7-21.6-21.88-57.2-21.63-56.6L438.4 189z" stroke="#000" stroke-width=".24" fill="#fff"/>
    <path d="M477.1 188.87c.3-1.87-6.78 44.2-28.04 65.45-10.63 10.63-17.72 10.63-17.72 10.63l-17.72-3.54s10.35.8 26.8-20.5c16.7-21.5 21.73-52.6 21.6-52.7l15.08.8z" stroke="#000" stroke-width=".24" fill="#fff"/>
    <path d="M448.9 223.04l1.84 4.43s.3-1.95 1.7-2.3l1.42-.36s5.37 9.9 6.43 11.7c1 1.8-.8 3.4-.4 3.4.3 0 5.3-2.3 5.3-2.3s-2.1.2-3-1.2-7-12-7-12 1.2-.5 2.3-1c1-.5 2.1 1.6 2.1 1.6l-2.7-5.3s0 1.8-.9 2.1l-1.6.7s-.7-1.2-1.6-2.6c-.9-1.4.9-2.8.9-2.8l-4.6 2.3s1.6.9 2.1 1.8l1 1.8s-.7.35-1.7.7c-.7.37-1.55 0-1.9-.35z" stroke="#000" stroke-width=".24" fill="#fff133"/>
    <path d="M411 329.6zm-1.6 1.3zm-2.1 1.7zm22.2-20.2zm-1.2 1.5zm-1.5 1.9zm-1 .6zm8.1-10.5zm-1 1.7zm-1.2 2.1zm-1.2 1.5zM418 324zm-1.6 1.4zm-1.9 1.7zm-1.4.9zm11-9.7zm-1.4 1.5zm-1.3 1zm-1.5 1.4zm23.7-38zm0 .6zm-.9 2.3zm-.8 1.8zm3.8-11.1zm-.7 2.3zm-.6 1.8zm-6.3 16.4zm-1 1.8zm-1.1 2.1zm-.8 1.6zm5.8-12.7zm.3 1.1zm-1.2 2.2zm-.9 1.7zm9.7-29.6zm0 1.6zm-.5 1.8zm1.3-10zm-.3 2.3zm-.2 1.9zm-1.5 8.1zm-.7 1.3zm-.7 2.3zm56.9 48.2zm1.5 1.4zm2 1.7zm-20.6-21.4zm1 1.6zm1.4 2zm1 .7zm-7.3-11zm.8 1.8zm1.1 2.2zm1.1 1.6zm11.5 13.3zm1.4 1.5zm1.8 1.9zm1.3 1zM491 311.9zm1.3 1.6zm1.2 1.1zm1.4 1.5zm-20.7-39.2zm-.1.6zm.8 2.3zm.6 1.8zm-2.9-11.3zm.6 2.4zm.4 1.9zm5 16.6zm.8 1.8zm1 2.3zm.7 1.5zm-4.8-12.9zm-.4 1.1zm1 2.2zm.7 1.8zm-7.2-30.1zm-.2 1.6zm.4 1.8zm-.5-10zm.1 2.3zm0 1.9zm.9 8.2zm.5 1.3zm.6 2.4z" fill="#b00"/>
    <path d="M467.1 221.24l-1.84 4.43s-.3-1.95-1.7-2.3l-1.42-.36s-5.37 9.9-6.43 11.7c-1 1.8.8 3.4.4 3.4-.3 0-5.3-2.3-5.3-2.3s2.1.2 3-1.2 7-12 7-12-1.2-.5-2.3-1c-1-.5-2.1 1.6-2.1 1.6l2.7-5.3s0 1.8.9 2.1l1.6.7s.7-1.2 1.6-2.6c.9-1.4-.9-2.8-.9-2.8l4.6 2.3s-1.6.9-2.1 1.8l-1.1 1.74s.7.37 1.7.7c.7.4 1.6 0 1.9-.33z" stroke="#000" stroke-width=".24" fill="#fff133"/>
    <g transform="matrix(.1 0 0 .1 423.6 295.3)">
      <path fill="silver" d="M324.55-255.37l-50.1 50.1L449.8-29.87l50.1-50.1z"/>
      <ellipse rx="35.43" ry="35.43" stroke="#000" transform="rotate(135 457.5 73.7)" cy="-1428" cx="354.33" stroke-width="1.2" fill="#fff133"/>
      <path d="M-402.05-956.9l37.6 37.57-25.07 25.06-37.58-37.6c-12.53-12.5 12.53-37.57 25.05-25.04z" stroke="#000" stroke-width="1.2" fill="silver"/>
      <path d="M-346.6-926.53l-50.12 50.1c-13.8 0-25.35-11.54-25.05-25.05 10.88-25.87 25.03-38.43 50.1-50.1 12.5.72 24.23 10.9 25.06 25.05z" stroke="#000" stroke-width="1.2" fill="#fff133"/>
      <path d="M-351.93-931.85l37.6 37.58-50.12 50.1-37.6-37.57c5.04-20.03 30.1-45.08 50.12-50.1z" stroke="#000" stroke-width="1.2" fill="silver"/>
      <path d="M-309.03-888.95l-50.1 50.1c-13.8 0-25.36-11.54-25.06-25.05 10.9-25.87 25.1-38.43 50.2-50.1 12.5.72 24.2 10.9 25.1 25.05z" stroke="#000" stroke-width="1.2" fill="#fff133"/>
      <path d="M-314.36-894.28l342.8 342.8-50.1 50.1-342.8-342.8c5.02-20.02 30.08-45.07 50.1-50.1z" stroke="#000" stroke-width="1.2" fill="silver"/>
      <path d="M48.93-530.97l-50.1 50.1c-13.8 0-25.36-11.54-25.06-25.05 10.88-25.87 25.03-38.43 50.1-50.1 12.5.72 24.23 10.9 25.06 25.05z" stroke="#000" stroke-width="1.2" fill="#fff133"/>
      <path d="M48.94-530.98l225.5 225.5-50.1 50.1-225.5-225.5c5.02-20 30.08-45.07 50.1-50.1z" stroke="#000" stroke-width="1.2" fill="silver"/>
      <path d="M186.74-418.23l-75.16 75.17c-13.8 0-25.35-11.56-25.06-25.06 0 0 0-25.05 25.06-50.1s50.1-25.06 50.1-25.06c11.65 1.56 21.42 12.52 25.06 25.05z" stroke="#000" stroke-width="1.2" fill="silver"/>
      <path d="M186.74-418.23l50.1 75.17-50.1 50.1-75.16-50.1c-2.83-2.45 0-25.06 25.05-50.12s48.98-24.45 50.1-25.05z" stroke="#000" stroke-width="1.2" fill="silver"/>
      <path d="M336.6-506.7c0-35.42 0-86.64 17.73-129.97 17.7 43.33 17.7 94.55 17.7 129.98H336.6z" transform="matrix(-.7 -.7 -.6 .6 729 339.3)" stroke="#000" stroke-width="1.2" fill="silver"/>
      <path d="M318.9-506.7h17.72V-550c0-43.32-35.44-65-35.44-65l17.72 108.33z" transform="matrix(.7 -.7 .6 .6 254.3 225.5)" stroke="#000" stroke-width="1.2" fill="silver"/>
      <path d="M318.9-506.7h17.72V-550c0-43.32-35.44-65-35.44-65l17.72 108.33z" transform="matrix(-.7 -.7 -.6 .6 729 339.3)" stroke="#000" stroke-width="1.2" fill="silver"/>
      <path d="M-314.36-894.28l37.6 37.58c25.04 25.06 112.73 137.8 112.73 137.8s117.3 92.25 142.36 117.3L15.9-564c-25.05-25.06-179.93-129.84-179.93-129.84S-71.78-551.48-34.2-513.9l-37.58-37.58c-25.06-25.05-117.3-142.36-117.3-142.36S-289.3-769-314.36-794.06l-50.1-50.12c25.05 25.06 175.37 125.3 175.37 125.3s-100.2-150.35-125.2-175.4z" stroke="#000" stroke-width="1.2" fill="#fff133"/>
      <path d="M299.5-230.32c50.1 75.17 100.2 125.28 112.74 137.8 23.77 23.82 50.1 25.06 50.1 25.06s0-25.06-25.05-50.1c-12.6-12.54-62.7-62.65-137.8-112.76zm-62.65-112.75c87.7 87.7 187.92 137.8 250.56 200.44 50.1 50.1 15.5 88.47 1.5 100.6C475-29.88 437 8.27 387.3-42.4 324.63-105.1 274.5-205.3 186.8-293c0-25.08 25.07-50.1 50.1-50.1z" stroke="#000" stroke-width="1.2" fill="silver"/>
      <path transform="matrix(-1.2 -1.4 -1.4 1.3 1166.1 -102.6)" stroke="#000" stroke-width="1.2" fill="silver" d="M218.28 257.88h22.93v73.04h-22.9z"/>
      <g stroke="#000" fill="silver">
        <path d="M301.18 396.85l17.72 17.72-17.72 17.7 8.86 8.87 17.7-17.7 35.45 35.42-17.8 17.7 8.8 8.87 17.7-17.7 17.7 17.7-53.2 53.15-35.4-35.43 17.7-17.72 8.8 8.86 8.82-8.9L301 450l-8.86 8.8 8.85 8.8-17.7 17.7-17.7-17.7 8.8-8.87-8.9-8.86-35.5 35.4 8.9 8.87 8.84-8.9L265.6 503l-17.72 17.75-8.86-8.86-8.83 8.8 35.4 35.4 8.9-8.9-8.9-8.9 17.7-17.7 35.7 35.6-53.18 53.12-17.7-17.74 17.7-17.7-8.85-8.88-17.8 17.7-35.5-35.43 17.7-17.73-8.9-8.84-17.7 17.7-17.7-17.7 124-124z" transform="matrix(-2.3 0 0 2.2 360.6 -1733.7)" stroke-width=".56"/>
        <path d="M-193.5-423.24v38.98l-97.43 97.46v-77.96l19.47-19.5h39l38.97-38.98zm97.46-96.6l-77.44 77.42-.9 38.72 78.33-78.36v-37.78z" stroke-width="1.23"/>
        <path d="M-174-403.74l-38.97-38.97v-39l38.95 39v38.9zm101.6-99.4l-38.97-38.97v-39l38.95 39v38.9zm-43.13-76v38.98l-19.5-19.47 19.5-19.5zm-101.6 99.4v38.98l-19.5-19.47 19.5-19.5z" stroke-width="1.23"/>
        <path d="M-34.64-580.34l-39.38 38.97v39l39.38-40.18v-37.78zm-240.96-42l-38.97-38.97v-39l38.95 39v38.9zm81.3 79.5l-38.97-38.97v-39l38.95 39v38.9zm19.5-99.8l-58.47-58.47v-39l77.95 77.9-19.5 19.5zm-62.63-95.5v38.98l-19.5-19.47 19.5-19.5z" stroke-width="1.23"/>
        <path d="M-275.6-622.34l38.97-38.97v-39l-38.97 39v38.9zm-97.44-20.3l58.48-58.47v-39l-77.97 77.9 19.5 19.5zm53.4 22.6l-77.97 77.95h-39l-19.5 19.5v78l136.4-136.8V-620zm87.18 235.8L-349.4-501.2h-38.97l116.93 116.94h38.98zm-58.47 19.5L-407.86-481.7l19.5-19.46 116.92 116.93-19.5 19.47z" stroke-width="1.23"/>
        <path d="M-290.93-364.76v77.95l-116.93-117v-78l116.93 116.9zm-104.13-178.5L-512-660.16h-38.97l116.93 116.94h38.98zm-58.47 19.5L-570.46-640.7l19.5-19.46 116.92 116.93-19.5 19.47z" stroke-width="1.23"/>
        <path d="M-453.53-523.76v77.95l-116.93-117v-78l116.93 116.9zm16.13-137.96l-19.48-19.5v-38.96l38.98 38.97-19.5 19.4zm101.6-99.4l-19.48-19.5v-38.96l38.98 38.97-19.5 19.4zm99.17 258.82v-38.98l-19.5 19.47 19.5 19.5zm42.33-40.54l38.97-38.97-19.47-19.5-19.5 19.5v38.9zm-122-159l19.5-19.5-19.5-19.46v38.97z" stroke-width="1.23"/>
      </g>
      <path stroke="#000" stroke-width="2.29" fill="#fff133" d="M554.84-47.3l-32.76-35.28L409.72 21.75l32.76 35.28z"/>
      <path d="M526.56 213.83c0 27.87-67.34 67.3-67.34-33.67h67.34v33.67z" stroke="#000" stroke-width="2.28" fill="silver"/>
      <path d="M706.1-55.48c279.42 0 214.96 312.06 190.7 235.64-17.77-56.05-67.3-134.64-123.37-152.42C697 3.5 722.7 45.52 694.83 45.52c-27.86 0-2.15-42.02-78.57-17.78C560.2 45.52 510.68 124.1 492.9 180.16c-24.3 76.44-101-235.64 213.2-235.64z" stroke="#000" stroke-width="2.28" fill="silver"/>
      <path d="M425.56 213.83c0 148.65 120.65 269.28 269.28 269.28 148.66 0 269.3-120.6 269.3-269.2v-33.7c0-55.3-67.33 235.7-269.3 235.7S425.56 178.8 425.56 180.2v33.66z" stroke="#000" stroke-width="2.28" fill="silver"/>
      <path d="M863.54 215.93c0 27.87 67.34 67.3 67.34-33.67h-67.34v33.67z" stroke="#000" stroke-width="2.28" fill="silver"/>
      <path d="M425.56 180.16c0 148.65 120.65 269.28 269.28 269.28 148.66 0 269.3-120.65 269.3-269.28 0-148.66-120.66-269.27-269.3-269.27-148.65 0-269.28 120.6-269.28 269.2zm100.98 0c0 27.87-43.36 5.77-17.8 81.77 17.78 52.88 51.45 86.53 107.5 104.3 76.44 24.26 50.73-17.77 78.6-17.77 27.88 0 2.17 42.03 78.6 17.78 56.06-17.78 89.72-51.43 107.5-107.5 24.25-76.42-17.76-50.73-17.76-78.58 0-27.88 42-2.17 17.77-78.6-17.75-56.04-51.42-89.7-107.47-107.5-76.43-24.23-50.73 17.8-78.6 17.8-27.87 0-2.17-42.03-78.58-17.8-56.05 17.8-89.68 51.44-107.5 107.5-24.23 76.43 17.8 50.74 17.8 78.6z" stroke="#000" stroke-width="2.28" fill="silver"/>
      <path d="M126.55 157.68c-20.25 0-1.93 67.6-9.1 51.7s-11.15-33.36-11.15-51.7 3.97-35.8 11.15-51.7c7.17-15.9-11.15 51.7 9.1 51.7z" transform="matrix(-1.7 0 0 1.8 1107.2 -99.5)" stroke="#000" stroke-width="1.2" fill="silver"/>
      <path d="M372.05 139.96c0 15.9-2.13 31.63-9.75 44.8-7.97 13.8 9.75-44.8-7.97-44.8 17.72 0 1.7-58.6 7.97-44.8 6.28 13.77 9.75 28.9 9.75 44.8z" transform="matrix(-1.9 0 0 2 1166.1 -106.2)" stroke="#000" stroke-width="1.2" fill="silver"/>
      <path d="M603.13 397.25c28.2 11.93 59.18 18.53 91.7 18.53s63.5-6.6 91.7-18.53c28.18-11.93-91.7 18.53-91.7-15.14 0 33.7-119.88 3.3-91.68 15.2zM694.86-21.8c0-33.68 119.9-3.24 91.7-15.15s-59.2-18.53-91.7-18.53-63.5 6.6-91.7 18.53C575.02-25.02 694.9-55.48 694.9-21.8z" stroke="#000" stroke-width="2.28" fill="silver"/>
      <ellipse rx="18.43" ry="20.11" stroke="#000" transform="matrix(-1.3 -1.4 -1.4 1.3 1257.6 -120)" cy="160.86" cx="82.11" stroke-width="1.2" fill="#fff133"/>
      <path d="M852.08-49.18c14.65 10.44 28.44 22.53 41.15 36.22s23.73 28.37 33.1 43.73l11.6-7.04c-9.8-16.18-21.4-31.55-34.76-45.94s-27.84-27.1-43.2-38.1l-7.9 11zM460.9 316.66c9.33 15.38 20.38 30.02 33.1 43.7s26.52 25.78 41.15 36.25l-7.88 11.1c-15.4-11-29.88-23.6-43.25-38s-24.93-29.7-34.7-45.9l11.58-7z" stroke="#000" stroke-width="2.29" fill="#fff133"/>
      <path d="M443.3 356.17c9.32 15.38 24.93 29.5 37.64 43.18 12.7 13.7 28.7 23.6 43.35 34.05l2.9-25.7c-15.4-11.02-29.9-23.7-43.3-38.08s-25-29.78-34.8-45.9l-6.1 32.45zm390.86 60.93c15.38-9.33 30.02-20.38 43.7-33.1s25.78-26.52 36.25-41.15l11.1 7.88c-11 15.4-23.6 29.88-38 43.25s-29.7 24.93-45.9 34.7l-7-11.58z" stroke="#000" stroke-width="2.29" fill="#fff133"/>
      <ellipse rx="18.43" ry="20.11" stroke="#000" transform="matrix(-1.3 -1.4 -1.4 1.3 789.1 314.4)" cy="160.86" cx="82.11" stroke-width="1.2" fill="#fff133"/>
      <path d="M841.87 426.74c15.4-9.34 27.76-18.12 41.48-30.86s31.43-31 41.87-45.65l3.14 30.53c-10.95 15.4-23.64 29.85-38.03 43.22s-29.77 24.93-45.94 34.76l-2.5-32z" stroke="#000" stroke-width="2.29" fill="#fff133"/>
      <path d="M835.6 413.76l1.6 28.2 6.17 8.55-1.87-28.6-5.9-8.1zm-297.53-11.72l-6.76 7.98-2 25.84 5.6-5.57 3.2-28.3z" stroke="#000" stroke-width="2.28" fill="#fff133"/>
      <ellipse rx="18.43" ry="20.11" stroke="#000" transform="matrix(-1.3 -1.4 -1.4 1.3 1237.6 329.9)" cy="160.86" cx="82.11" stroke-width="1.2" fill="#fff133"/>
    </g>
    <path d="M431.34 176.37l-7.08-3.54-7.1 3.54s14.68 7.08 14.68 31.9c0 17.7-25.05 21.25-25.05 42.5 0 9.14 6.8 17.72 13.9 17.72s17.7-3.6 28.3-14.2c-7.1 3.5-15.2 7.4-21.3 7.2-4-.1-11-3.6-11-10.6 0-14.2 24.5-21.4 24.5-42.7 0-24.8-10-31.9-10-31.9z" stroke="#000" stroke-width=".24" fill="#fff"/>
    <path d="M430.05 176.37l-9.34-3.55-2 3.55s14.2 7.08 14.2 31.9c0 17.7-25.2 21.25-25.2 42.5 0 9.14 5.4 17.48 13.1 17.72 14.7.4 18.1-4.8 28.4-14.2-8.6 6.4-21 9.3-25.8 6.8-5.9-3.1-7-7.2-7-10.8 0-14.2 24.2-20.9 24.2-42.2 0-24.8-10.4-31.9-10.4-31.9z" stroke="#000" stroke-width=".24" fill="#fff"/>
    <path d="M431.43 176.46c-1.4-.5-7.17-3.64-14.26 3.45-3.54 3.6-3.54 10.7-3.54 14.2L403 183.5s5.8-17.37 21.52-10.72c2.22.98 5.63 2.9 6.9 3.73z" stroke="#000" stroke-width=".24" fill="#fff"/>
    <path d="M429.34 175.2c-1.77-.56-7.34-1.25-12.92 3.7-3.54 3.56-3.8 8.6-3.8 12.14l-8.12-7.58c-.7-.64 4.96-16.25 19.85-10.8.9.35 2.95 1.25 5 2.56z" stroke="#000" stroke-width=".24" fill="#fff"/>
    <path d="M344.54-596.3l9.15 22.15s1.4-9.77 8.5-11.53l7-1.77s26.8 49.33 32.1 58.17c5.3 8.83-3.6 16.8-1.8 16.8s26.5-11.5 26.5-11.5-10.6.88-15-6.2-34.8-59.92-34.8-59.92 6.2-2.65 11.5-5.3c5.3-2.66 10.6 7.95 10.6 7.95L385-613.97s0 8.84-4.43 10.6c-4.4 1.78-7.94 3.54-7.94 3.54s-3.54-6.18-7.96-13.25c-4.4-7.08 4.46-14.15 4.46-14.15l-23 11.5s7.95 4.4 10.6 8.83l5.3 8.84s-3.2 1.77-8.2 3.48c-3.58 1.88-7.7.06-9.46-1.7z" transform="matrix(-.2 0 -.1 .2 439.5 337.1)" stroke="#000" stroke-width="1.2" fill="#fff133"/>
    <path d="M344.54-596.3l9.15 22.15s1.4-9.77 8.5-11.53l7-1.77s26.8 49.33 32.1 58.17c5.3 8.83-3.6 16.8-1.8 16.8s26.5-11.5 26.5-11.5-10.6.88-15-6.2-34.8-59.92-34.8-59.92 6.2-2.65 11.5-5.3c5.3-2.66 10.6 7.95 10.6 7.95L385-613.97s0 8.84-4.43 10.6c-4.4 1.78-7.94 3.54-7.94 3.54s-3.54-6.18-7.96-13.25c-4.4-7.08 4.46-14.15 4.46-14.15l-23 11.5s7.95 4.4 10.6 8.83l5.3 8.84s-3.2 1.77-8.2 3.48c-3.58 1.88-7.7.06-9.46-1.7z" transform="matrix(.2 0 0 -.1 320.6 95.2)" stroke="#000" stroke-width="1.2" fill="#fff133"/>
    <g transform="matrix(.1 0 0 .1 423.6 295.3)">
      <g transform="rotate(45 478.1 -504.6)">
        <ellipse rx="35.43" ry="35.43" stroke="#000" transform="translate(124 283.5)" cy="-1428" cx="354.33" stroke-width="1.2" fill="silver"/>
        <path d="M460.63-1126.77v53.15h35.43v-53.15c0-17.72-35.43-17.72-35.43 0z" stroke="#000" stroke-width="1.2" fill="#fff133"/>
        <path d="M442.9-1066.1h70.88c9.75-9.75 9.75-26.1 0-35.42-26-10.6-44.88-9.48-70.87 0-8.3 9.34-9.4 24.82 0 35.43z" stroke="#000" stroke-width="1.2" fill="silver"/>
        <path d="M442.9-1073.62v53.15h70.88v-53.15c-17.72-10.6-53.15-10.6-70.87 0z" stroke="#000" stroke-width="1.2" fill="#fff133"/>
        <path d="M442.9-1012.94h70.88c9.75-9.76 9.75-26.1 0-35.43-26-10.6-44.88-9.48-70.87 0-8.3 9.33-9.4 24.82 0 35.43z" stroke="#000" stroke-width="1.2" fill="silver"/>
        <path fill="#fff133" d="M442.9-116.93h70.88V131.1H442.9z"/>
        <path d="M442.9-1020.48l.02 484.8h70.86v-484.8c-17.72-10.6-53.15-10.6-70.87 0z" stroke="#000" stroke-width="1.2" fill="#fff133"/>
        <path d="M442.92-506.7h70.87c9.7-9.75 9.7-26.1 0-35.43-26-10.6-44.9-9.48-70.9 0-8.3 9.34-9.4 24.83 0 35.43z" stroke="#000" stroke-width="1.2" fill="silver"/>
        <path d="M442.92-506.7v318.9h70.87v-318.9c-17.8-10.6-53.2-10.6-70.9 0z" stroke="#000" stroke-width="1.2" fill="#fff133"/>
        <path d="M425.2-329.53h106.3c9.75-9.76 9.75-26.1 0-35.43 0 0-17.73-17.72-53.16-17.72s-53.15 17.72-53.15 17.72c-7.2 9.34-6.3 24 0 35.43z" stroke="#000" stroke-width="1.2" fill="#fff133"/>
        <path d="M425.2-329.53l17.7 88.58h70.87l17.72-88.58c.2-3.73-17.8-17.72-53.2-17.72s-52 17.35-53.2 17.72z" stroke="#000" stroke-width="1.2" fill="#fff133"/>
        <path d="M336.6-506.7c0-35.42 0-86.64 17.73-129.97 17.7 43.33 17.7 94.55 17.7 129.98H336.6z" transform="matrix(1 0 0 .8 124 173.4)" stroke="#000" stroke-width="1.2" fill="#fff133"/>
        <path d="M318.9-506.7h17.72V-550c0-43.32-35.44-65-35.44-65l17.72 108.33z" transform="matrix(-1 0 0 .8 832.7 173.4)" stroke="#000" stroke-width="1.2" fill="#fff133"/>
        <path d="M318.9-506.7h17.72V-550c0-43.32-35.44-65-35.44-65l17.72 108.33z" transform="matrix(1 0 0 .8 124 173.4)" stroke="#000" stroke-width="1.2" fill="#fff133"/>
        <path d="M478.34-116.93c17.72 88.58 17.72 159.45 17.72 177.16.03 33.65-17.72 53.15-17.72 53.15s-17.72-17.72-17.72-53.15c0-17.72 0-88.58 17.72-177.16zM442.9-240.95c0 124.02-35.43 230.32-35.43 318.9 0 70.87 51.66 73.45 70.12 72.16 18.4-1.2 72.3-1.1 71.6-72.1 0-88.6-35.5-194.9-35.5-318.9-17.7-17.7-53.2-17.7-70.9 0z" stroke="#000" stroke-width="1.2" fill="#fff133"/>
        <path d="M442.9-1020.48v53.15c0 35.44 17.73 177.16 17.73 177.16s-17.7 148.17-17.7 183.6v53.16c0-35.5 35.4-219.1 35.4-219.1s35.45 165.9 35.45 219v-53.2c0-35.5-17.7-183.6-17.72-183.6 0 0 17.72-124.1 17.72-159.5v-70.9c0 35.4-35.43 212.6-35.43 212.6s-35.45-177.2-35.45-212.6z" stroke="#000" stroke-width="1.2" fill="silver"/>
      </g>
      <path transform="matrix(1.2 -1.4 1.4 1.3 -662.5 -102.6)" stroke="#000" stroke-width="1.2" fill="#fff133" d="M218.28 257.88h22.93v73.04h-22.9z"/>
      <path d="M-22.96 213.83c0 27.87 67.34 67.3 67.34-33.67h-67.34v33.67z" stroke="#000" stroke-width="2.28" fill="#fff133"/>
      <path d="M-202.5-55.48c-279.42 0-214.96 312.06-190.7 235.64 17.77-56.05 67.3-134.64 123.37-152.42 76.42-24.24 50.73 17.78 78.6 17.78 27.86 0 2.15-42.02 78.57-17.78C-56.6 45.52-7.08 124.1 10.7 180.16 35 256.6 111.7-55.48-202.5-55.48z" stroke="#000" stroke-width="2.28" fill="#fff133"/>
      <path d="M78.04 213.83c0 148.65-120.65 269.28-269.28 269.28-148.66 0-269.3-120.6-269.3-269.2v-33.7c0-55.3 67.33 235.7 269.3 235.7S78.04 178.8 78.04 180.2v33.67z" stroke="#000" stroke-width="2.28" fill="#fff133"/>
      <ellipse rx="18.43" ry="20.11" stroke="#000" transform="matrix(1.3 -1.4 1.4 1.3 -753.9 -120)" cy="160.86" cx="82.11" stroke-width="1.2" fill="silver"/>
      <path stroke="#000" stroke-width="2.29" fill="silver" d="M-51.24-47.3l32.76-35.28L93.88 21.75 61.12 57.03z"/>
      <path d="M-359.84 215.93c0 27.87-67.34 67.3-67.34-33.67h67.34v33.67z" stroke="#000" stroke-width="2.28" fill="#fff133"/>
      <path d="M78.04 180.16c0 148.65-120.65 269.28-269.28 269.28-148.66 0-269.3-120.65-269.3-269.28 0-148.66 120.66-269.27 269.3-269.27C-42.6-89.1 78.04 31.5 78.04 180.1zm-100.98 0c0 27.87 43.36 5.77 17.8 81.77-17.78 52.88-51.45 86.53-107.5 104.3-76.44 24.26-50.73-17.77-78.6-17.77-27.88 0-2.17 42.03-78.6 17.78-56.06-17.78-89.72-51.43-107.5-107.5-24.25-76.42 17.76-50.73 17.76-78.58 0-27.88-42-2.17-17.77-78.6 17.75-56.04 51.42-89.7 107.47-107.5 76.43-24.23 50.73 17.8 78.6 17.8 27.87 0 2.16-42.03 78.58-17.8 56.05 17.8 89.68 51.44 107.5 107.5C19.02 178-23 152.3-23 180.16z" stroke="#000" stroke-width="2.28" fill="#fff133"/>
      <path d="M126.55 157.68c-20.25 0-1.93 67.6-9.1 51.7s-11.15-33.36-11.15-51.7 3.97-35.8 11.15-51.7c7.17-15.9-11.15 51.7 9.1 51.7z" transform="matrix(1.7 0 0 1.8 -603.6 -99.5)" stroke="#000" stroke-width="1.2" fill="#fff133"/>
      <path d="M372.05 139.96c0 15.9-2.13 31.63-9.75 44.8-7.97 13.8 9.75-44.8-7.97-44.8 17.72 0 1.7-58.6 7.97-44.8 6.28 13.77 9.75 28.9 9.75 44.8z" transform="matrix(1.9 0 0 2 -662.5 -106.2)" stroke="#000" stroke-width="1.2" fill="#fff133"/>
      <path d="M-99.53 397.25c-28.2 11.93-59.18 18.53-91.7 18.53s-63.5-6.6-91.7-18.53c-28.18-11.93 91.7 18.53 91.7-15.14 0 33.7 119.88 3.3 91.68 15.2zM-191.26-21.8c0-33.68-119.9-3.24-91.7-15.15s59.2-18.53 91.7-18.53 63.5 6.6 91.7 18.53c28.15 11.93-91.72-18.53-91.72 15.14z" stroke="#000" stroke-width="2.28" fill="#fff133"/>
      <path d="M-348.38-49.18c-14.65 10.44-28.44 22.53-41.15 36.22s-23.73 28.37-33.1 43.73l-11.6-7.04c9.8-16.18 21.4-31.55 34.76-45.94s27.84-27.1 43.2-38.1l7.9 11zM42.7 316.66c-9.33 15.38-20.38 30.02-33.1 43.7s-26.52 25.78-41.15 36.25l7.88 11.1c15.4-11 29.87-23.6 43.25-38s24.92-29.7 34.7-45.9l-11.58-7.1z" stroke="#000" stroke-width="2.29" fill="silver"/>
      <path d="M60.3 356.17c-9.32 15.38-24.93 29.5-37.64 43.18-12.7 13.7-28.7 23.6-43.35 34.05l-2.9-25.7c15.4-11.03 29.9-23.7 43.2-38.1s25-29.78 34.8-45.9l6.1 32.45zm-390.86 60.93c-15.38-9.33-30.02-20.38-43.7-33.1s-25.78-26.52-36.25-41.15l-11.1 7.88c11 15.4 23.6 29.88 38 43.25s29.7 24.93 45.9 34.7l7-11.58z" stroke="#000" stroke-width="2.29" fill="silver"/>
      <ellipse rx="18.43" ry="20.11" stroke="#000" transform="matrix(1.3 -1.4 1.4 1.3 -285.5 314.4)" cy="160.86" cx="82.11" stroke-width="1.2" fill="silver"/>
      <path d="M-338.27 426.74c-15.4-9.34-27.76-18.12-41.48-30.86s-31.43-31-41.87-45.65l-3.14 30.53c10.95 15.4 23.64 29.85 38.03 43.22s29.77 24.93 45.94 34.76l2.5-32z" stroke="#000" stroke-width="2.29" fill="silver"/>
      <path d="M-332 413.76l-1.6 28.2-6.17 8.55 1.87-28.6 5.9-8.1zm297.53-11.72l6.76 7.98 1.9 25.84-5.6-5.57-3.2-28.3z" stroke="#000" stroke-width="2.28" fill="silver"/>
      <ellipse rx="18.43" ry="20.11" stroke="#000" transform="matrix(1.3 -1.4 1.4 1.3 -733.9 329.9)" cy="160.86" cx="82.11" stroke-width="1.2" fill="silver"/>
      <g stroke="#000" fill="#fff133">
        <path d="M301.18 396.85l17.72 17.72-17.72 17.7 8.86 8.87 17.7-17.7 35.45 35.42-17.8 17.7 8.8 8.87 17.7-17.7 17.7 17.7-53.2 53.15-35.4-35.43 17.7-17.72 8.8 8.86 8.82-8.9L301 450l-8.86 8.8 8.85 8.8-17.7 17.7-17.7-17.7 8.8-8.87-8.9-8.86-35.5 35.4 8.9 8.87 8.84-8.9L265.6 503l-17.72 17.75-8.86-8.86-8.83 8.8 35.4 35.4 8.9-8.9-8.9-8.9 17.7-17.7 35.7 35.6-53.18 53.12-17.7-17.74 17.7-17.7-8.85-8.88-17.8 17.7-35.5-35.43 17.7-17.73-8.9-8.84-17.7 17.7-17.7-17.7 124-124z" transform="matrix(2.3 0 0 2.2 143.1 -1733.7)" stroke-width=".56"/>
        <path d="M697.2-423.24v38.98l97.43 97.46v-77.96l-19.47-19.5h-39l-38.97-38.98zm-97.56-96.6l77.44 77.42.9 38.72-78.33-78.36v-37.78z" stroke-width="1.23"/>
        <path d="M677.7-403.74l38.97-38.97v-39l-38.95 39v38.9zM576-503.14l38.97-38.97v-39l-38.95 39v38.9zm43.23-76v38.98l19.5-19.47-19.5-19.5zm101.6 99.4v38.98l19.5-19.47-19.5-19.5z" stroke-width="1.23"/>
        <path d="M538.34-580.34l39.38 38.97v39l-39.38-40.18v-37.78zm240.96-42l38.97-38.97v-39l-38.95 39v38.9zm-81.3 79.5l38.97-38.97v-39l-38.95 39v38.9zm-19.5-99.8l58.47-58.47v-39l-77.95 77.9 19.5 19.5zm62.63-95.5v38.98l19.5-19.47-19.5-19.5z" stroke-width="1.23"/>
        <path d="M779.3-622.34l-38.97-38.97v-39l38.97 39v38.9zm97.44-20.3l-58.48-58.47v-39l77.97 77.9-19.5 19.5zm-53.5 22.6l77.97 77.95h39l19.5 19.5v78L823.3-581.4V-620zm-87.08 235.8L853.1-501.2h38.97L775.14-384.24h-38.98zm58.47 19.5L911.56-481.7l-19.5-19.46-116.92 116.93 19.5 19.47z" stroke-width="1.23"/>
        <path d="M794.63-364.76v77.95l116.93-117v-78l-116.93 117zm104.13-178.5l116.93-116.92h38.9L937.7-543.23h-39zm58.47 19.5l116.93-116.93-19.5-19.4-116.92 116.9 19.5 19.5z" stroke-width="1.23"/>
        <path d="M957.23-523.76v77.95l116.93-117v-78l-116.93 117zM941.1-661.72l19.48-19.5v-38.96L921.6-681.2l19.5 19.48zm-101.7-99.4l19.48-19.5v-38.96L819.9-780.6l19.5 19.48zM740.33-502.3v-38.98l19.5 19.47-19.5 19.5zM698-542.84l-38.97-38.97 19.47-19.5 19.5 19.5v38.9zm121.9-159l-19.5-19.5 19.5-19.46v38.97z" stroke-width="1.23"/>
      </g>
    </g>
    <path d="M452.1 279.3zm0-1.9zm0-2.4zm0-1.9zm-.1 14.7zm0-1.9zm0-2.3zm.1-1.9zm.1-19.6zm.1-1.9zm0-2.3zm0-1.9zm-.1 14.7zm0-1.9zm0-2.4zm0-1.9zm-.5 49zm.1-1.9zm0-2.3zm0-2zm-.2 14.8zm.1-1.9zm0-2.4zm0-1.9zm.2-19.5zm0-1.9zm0-2.4zm.1-1.9zm-.2 14.8zm0-1.9zm0-2.4zm.1-1.9zm-.5 49zm0-1.9zm0-2.4zm0-1.9zm-.1 12.8zm0-2.3zm.1-1.9zm.1-19.5zm.1-1.9zm0-2.4zm0-1.9zm-.2 14.7zm.1-1.9zm0-2.4zm0-1.9zm-.4 36.3zm.1-1.9zm0-2.4zm0-1.9zm-.1 12.9zm0-2.4zm0-1.9zm.1-11zm.1-1.9zm0-2.3zm3.7-76.9zm0-1.9zm0-2.4zm0-1.9zm0 14.7zm0-1.9zm0-2.4zm0-1.9zm0-19.5zm0-1.9zm-.1-2.4zm0-1.9zm.1 14.8zm0-1.9zm0-2.4zm0-1.9zm.1 49zm0-1.9zm0-2.4zm0-1.9zm0 14.8zm.1-1.9zm-.1-2.4zm0-1.9zm0-19.5zm0-1.9zm-.1-2.4zm.1-1.9zm0 14.8zm0-2zm0-2.3zm0-1.9zm.1 49zm0-1.9zm0-2.4zm0-1.9zm.1 12.8zm-.1-2.3zm0-2zm0-19.5zm0-1.9zm0-2.3zm0-1.9zm0 14.7zm0-1.9zm0-2.4zm0-1.9zm.1 36.3zm0-1.9zm0-2.4zm0-1.9zm0 12.9zm0-2.4zm0-1.9zm0-11zm0-1.9zm0-2.4zm11.4-90.3zm-3.6-3.7zm1.3 2.3zm-1.7-5.9zm2.4 0zm-12.9 0zm2.4 0zm3 .1zm2.1 0zm-11-1.1zm1.7.4zm-.9-1.5zm51.4 99.2zm2.2-.6zm2.7-.7zm2.1-.6zm16.1-7zm2-6zm-.9 3.9zm-34.3 13.1zm2.2-.5zm3.5-.6zm.8-.7zm13.3-2.9zm2.2-.6zm-54.1 7.1zm2.3-.1zm2.8 0zm2.3-.1zm-17.6.4zm2.3-.1zm2.8 0zm2.3-.1zm24-.5zm2.6-.3zm2.8-.3zm2.7-.2zm-19 1.1zm2.6 0zm3.2-.1zm1.8-.4zm-59.9-1.2zm2.2.3zm3.5.7zm2.2.1zm-15.8-2.2zm2.8.4zm2.3.3zm23.8 2.1zm2.3.1zm3.4.4zm2.3-.1zm-18.2-.9zm2.3.1zm2.8.2zm2.3.1zm-35-21.2zm-2.8 4zm-.1 4.1zm.7 3.5zm7.7-17.3zm-1.7 1.9zm-2.5 1.7zm-1.5 17zm3 1.9zm3.8 1.4zm110.2-5.1zm.2.4zm4.8-2.7zm-3.1 1.5zm-7.1-9.9zm-2-.9zm-3.1-1.2zm12.1 5.4zm-2.5-1.2zm-2-.9z" fill="#b00"/>
    <g transform="matrix(.1 0 0 .1 438.4 288.1)">
      <path d="M212.6-1994.9v53.14h-53.15v35.44h53.15v106.3h35.44v-106.3h53.15v-35.44H248v-53.15h-35.4z" stroke="#000" stroke-width="1.2" fill="#fff133"/>
      <ellipse rx="62.01" ry="57.32" stroke="#000" transform="matrix(.6 0 0 .6 93.6 -678.9)" cy="-1813.5" cx="239.17" stroke-width="1.2" fill="#fff133"/>
      <path d="M602.36-1119.4c0 68.45-10.42 145.68-29.25 205.02-120-26.46-268-39.68-339-39.68-87.6 0-246.1 13.22-345.2 26.45-18.9-59.4-30.6-123.4-30.6-191.8 0-273.8 105.3-390.2 367.5-496.1 233.3 105.8 376.6 222.2 376.6 496z" transform="matrix(1.1 0 0 1.3 -5.8 363.7)" stroke="#000" stroke-width="1.2" fill="#fff"/>
      <path d="M566.93-657.28c0-44-150.8-79.72-336.6-79.72s-336.62 35.7-336.62 79.72v26.57c0-44 150.8-70.9 336.7-70.9S567-657 567-613v-44.3z" transform="matrix(1.2 0 0 .7 -32.8 -634.9)" stroke="#000" stroke-width="1.2" fill="#fff133"/>
      <g stroke="#000" stroke-width="1.2" fill="#fff133">
        <path d="M230.32-825.6l-53.15 53.16L212.6-737l-17.7 17.7-35.45-35.42-53.15 53.15 53.15 53.15 35.44-35.44 17.7 17.72V-613H248v-53.14l17.7-17.72 35.45 35.44 53.14-53.15-53.2-53.15-35.5 35.43L248-737l35.43-35.42-53.15-53.15z" transform="matrix(1.2 0 0 .7 -33.1 -766.8)"/>
        <path d="M220.98-825.6l-8.38 53.16V-737l-17.7 17.7v-35.42l-17.73 53.15 17.72 53.14v-35.43l17.7 17.72V-613h17.7v-53.14l17.7-17.72v35.43l17.7-53.15-17.7-53.15v35.44L230.3-737v-35.42l-9.34-53.15z" transform="matrix(1.1 -.2 .3 .7 -190 -703.6)"/>
        <path d="M220.98-825.6l-8.38 53.16V-737l-17.7 17.7v-35.42l-17.73 53.15 17.72 53.14v-35.43l17.7 17.72V-613h17.7v-53.14l17.7-17.72v35.43l17.7-53.15-17.7-53.15v35.44L230.3-737v-35.42l-9.34-53.15z" transform="matrix(1.1 .2 -.3 .7 182.2 -778.4)"/>
        <path d="M141.73-1020.5c0-17.72 17.72-35.44 35.43-35.44 17.72 0 35.44 17.72 35.44 35.44s-17.72 35.43-17.72 35.43l70.87 70.87H230.3l-53.14-53.15L124-914.2H88.6l70.87-70.87s-17.72-17.7-17.72-35.43z" transform="matrix(.9 -.1 .2 .7 28.8 -521.9)"/>
        <path d="M141.73-1020.5c0-17.72 17.72-35.44 35.43-35.44 17.72 0 35.44 17.72 35.44 35.44s-17.72 35.43-17.72 35.43l70.87 70.87H230.3l-53.14-53.15L124-914.2H88.6l70.87-70.87s-17.72-17.7-17.72-35.43z" transform="matrix(.9 .1 -.2 .7 124.8 -554.1)"/>
        <path d="M566.93-657.28c0-44-150.8-79.72-336.6-79.72s-336.62 35.7-336.62 79.72v26.57c0-44 150.8-70.9 336.7-70.9S567-657 567-613v-44.3z" transform="matrix(1.2 0 0 .7 -33.1 -674.5)"/>
      </g>
      <path d="M566.93-657.28c0-44-150.8-79.72-336.6-79.72s-336.62 35.7-336.62 79.72v26.57c0-44 150.8-70.9 336.7-70.9S567-657 567-613v-44.3z" transform="matrix(1.1 0 0 .7 -9.3 -386.9)" stroke="#000" stroke-width="1.2" fill="#fff133"/>
      <g stroke="#000" stroke-width="1.2" fill="#fff133">
        <path d="M230.32-825.6l-53.15 53.16L212.6-737l-17.7 17.7-35.45-35.42-53.15 53.15 53.15 53.15 35.44-35.44 17.7 17.72V-613H248v-53.14l17.7-17.72 35.45 35.44 53.14-53.15-53.2-53.15-35.5 35.43L248-737l35.43-35.42-53.15-53.15z" transform="matrix(1.1 0 0 .7 -12.9 -518.8)"/>
        <path d="M220.98-825.6l-8.38 53.16V-737l-17.7 17.7v-35.42l-17.73 53.15 17.72 53.14v-35.43l17.7 17.72V-613h17.7v-53.14l17.7-17.72v35.43l17.7-53.15-17.7-53.15v35.44L230.3-737v-35.42l-9.34-53.15z" transform="matrix(1.1 -.2 .3 .7 -160.7 -455.6)"/>
        <path d="M220.98-825.6l-8.38 53.16V-737l-17.7 17.7v-35.42l-17.73 53.15 17.72 53.14v-35.43l17.7 17.72V-613h17.7v-53.14l17.7-17.72v35.43l17.7-53.15-17.7-53.15v35.44L230.3-737v-35.42l-9.34-53.15z" transform="matrix(1.1 .2 -.3 .7 189.8 -530.4)"/>
        <path d="M141.73-1020.5c0-17.72 17.72-35.44 35.43-35.44 17.72 0 35.44 17.72 35.44 35.44s-17.72 35.43-17.72 35.43l70.87 70.87H230.3l-53.14-53.15L124-914.2H88.6l70.87-70.87s-17.72-17.7-17.72-35.43z" transform="matrix(.9 -.1 .2 .7 45.4 -273.9)"/>
        <path d="M141.73-1020.5c0-17.72 17.72-35.44 35.43-35.44 17.72 0 35.44 17.72 35.44 35.44s-17.72 35.43-17.72 35.43l70.87 70.87H230.3l-53.14-53.15L124-914.2H88.6l70.87-70.87s-17.72-17.7-17.72-35.43z" transform="matrix(.9 .1 -.2 .7 135.8 -306)"/>
        <path d="M566.93-657.28c0-44-150.8-79.72-336.6-79.72s-336.62 35.7-336.62 79.72v26.57c0-44 150.8-70.9 336.7-70.9S567-657 567-613v-44.3z" transform="matrix(1.1 0 0 .7 -12.9 -426.4)"/>
      </g>
      <path d="M566.93-657.28c0-44-150.8-79.72-336.6-79.72s-336.62 35.7-336.62 79.72v26.57c0-44 150.8-70.9 336.7-70.9S567-657 567-613v-44.3z" transform="matrix(1.1 0 0 .7 -16.1 -865.2)" stroke="#000" stroke-width="1.2" fill="#fff133"/>
      <g stroke="#000" stroke-width="1.2" fill="#fff133">
        <path d="M230.32-825.6l-53.15 53.16L212.6-737l-17.7 17.7-35.45-35.42-53.15 53.15 53.15 53.15 35.44-35.44 17.7 17.72V-613H248v-53.14l17.7-17.72 35.45 35.44 53.14-53.15-53.2-53.15-35.5 35.43L248-737l35.43-35.42-53.15-53.15z" transform="matrix(1.1 0 0 .7 -6.2 -1031.3)"/>
        <path d="M220.98-825.6l-8.38 53.16V-737l-17.7 17.7v-35.42l-17.73 53.15 17.72 53.14v-35.43l17.7 17.72V-613h17.7v-53.14l17.7-17.72v35.43l17.7-53.15-17.7-53.15v35.44L230.3-737v-35.42l-9.34-53.15z" transform="matrix(1 -.2 .3 .7 -150.7 -971.8)"/>
        <path d="M220.98-825.6l-8.38 53.16V-737l-17.7 17.7v-35.42l-17.73 53.15 17.72 53.14v-35.43l17.7 17.72V-613h17.7v-53.14l17.7-17.72v35.43l17.7-53.15-17.7-53.15v35.44L230.3-737v-35.42l-9.34-53.15z" transform="matrix(1.1 .2 -.2 .7 192.1 -1042.3)"/>
        <path d="M141.73-1020.5c0-17.72 17.72-35.44 35.43-35.44 17.72 0 35.44 17.72 35.44 35.44s-17.72 35.43-17.72 35.43l70.87 70.87H230.3l-53.14-53.15L124-914.2H88.6l70.87-70.87s-17.72-17.7-17.72-35.43z" transform="matrix(.9 -.1 .2 .7 50.8 -800.3)"/>
        <path d="M141.73-1020.5c0-17.72 17.72-35.44 35.43-35.44 17.72 0 35.44 17.72 35.44 35.44s-17.72 35.43-17.72 35.43l70.87 70.87H230.3l-53.14-53.15L124-914.2H88.6l70.87-70.87s-17.72-17.7-17.72-35.43z" transform="matrix(.9 .1 -.2 .7 139.3 -830.7)"/>
        <path d="M566.93-657.28c0-44-150.8-79.72-336.6-79.72s-336.62 35.7-336.62 79.72v26.57c0-44 150.8-70.9 336.7-70.9S567-657 567-613v-44.3z" transform="matrix(1.1 0 0 .7 -6.2 -944.2)"/>
      </g>
      <ellipse rx="375.87" ry="120.53" transform="matrix(1 0 0 .4 12.9 -517.5)" cy="-822.11" cx="234.13" fill="#b90000"/>
    </g>
    <path d="M484.66 178.17l7.08-3.54 7.1 3.54s-14.68 7.08-14.68 31.9c0 17.7 25.05 21.25 25.05 42.5 0 9.14-6.8 17.72-13.9 17.72s-17.7-3.6-28.3-14.2c7.1 3.5 15.2 7.4 21.3 7.2 4-.1 11-3.6 11-10.6 0-14.2-24.5-21.4-24.5-42.7 0-24.8 10-31.9 10-31.9z" stroke="#000" stroke-width=".24" fill="#fff"/>
    <path d="M485.95 178.17l9.34-3.55 2 3.55s-14.2 7.08-14.2 31.9c0 17.7 25.2 21.25 25.2 42.5 0 9.14-5.4 17.48-13.1 17.72-14.7.4-18.1-4.8-28.4-14.2 8.6 6.4 21 9.3 25.8 6.8 5.9-3.1 7-7.2 7-10.8 0-14.2-24.2-20.9-24.2-42.2 0-24.8 10.4-31.9 10.4-31.9z" stroke="#000" stroke-width=".24" fill="#fff"/>
    <path d="M484.57 178.26c1.4-.5 7.17-3.64 14.26 3.45 3.54 3.6 3.54 10.7 3.54 14.2L513 185.3s-5.8-17.37-21.52-10.72c-2.22.98-5.63 2.9-6.9 3.73z" stroke="#000" stroke-width=".24" fill="#fff"/>
    <path d="M486.66 177c1.77-.56 7.34-1.25 12.92 3.7 3.54 3.56 3.8 8.6 3.8 12.14l8.12-7.58c.7-.64-4.96-16.25-19.85-10.8-.9.35-2.95 1.25-5 2.56z" stroke="#000" stroke-width=".24" fill="#fff"/>
    <path d="M344.54-596.3l9.15 22.15s1.4-9.77 8.5-11.53l7-1.77s26.8 49.33 32.1 58.17c5.3 8.83-3.6 16.8-1.8 16.8s26.5-11.5 26.5-11.5-10.6.88-15-6.2-34.8-59.92-34.8-59.92 6.2-2.65 11.5-5.3c5.3-2.66 10.6 7.95 10.6 7.95L385-613.97s0 8.84-4.43 10.6c-4.4 1.78-7.94 3.54-7.94 3.54s-3.54-6.18-7.96-13.25c-4.4-7.08 4.46-14.15 4.46-14.15l-23 11.5s7.95 4.4 10.6 8.83l5.3 8.84s-3.2 1.77-8.2 3.48c-3.58 1.88-7.7.06-9.46-1.7z" transform="matrix(.2 0 .1 .2 476.4 338.9)" stroke="#000" stroke-width="1.2" fill="#fff133"/>
    <path d="M344.54-596.3l9.15 22.15s1.4-9.77 8.5-11.53l7-1.77s26.8 49.33 32.1 58.17c5.3 8.83-3.6 16.8-1.8 16.8s26.5-11.5 26.5-11.5-10.6.88-15-6.2-34.8-59.92-34.8-59.92 6.2-2.65 11.5-5.3c5.3-2.66 10.6 7.95 10.6 7.95L385-613.97s0 8.84-4.43 10.6c-4.4 1.78-7.94 3.54-7.94 3.54s-3.54-6.18-7.96-13.25c-4.4-7.08 4.46-14.15 4.46-14.15l-23 11.5s7.95 4.4 10.6 8.83l5.3 8.84s-3.2 1.77-8.2 3.48c-3.58 1.88-7.7.06-9.46-1.7z" transform="matrix(-.2 0 0 -.1 595.4 97)" stroke="#000" stroke-width="1.2" fill="#fff133"/>
    <path d="M457.9 383.8zm-5.2 2.9zm3.3-.2zm-4.6 3.4zm4-.2z" fill="#b00"/>
    <path fill="#ffe000" d="M0 0h320v480H0z"/>
  </g>
</svg>
