<svg xmlns="http://www.w3.org/2000/svg" xmlns:xlink="http://www.w3.org/1999/xlink" height="480" width="640" viewBox="0 0 640 480">
  <defs>
    <linearGradient id="a">
      <stop stop-color="red" offset="0"/>
      <stop stop-color="#ff0" offset="1"/>
    </linearGradient>
    <linearGradient id="c" y2="107.76" xlink:href="#a" gradientUnits="userSpaceOnUse" y1="111.28" gradientTransform="matrix(.6 0 0 1.5 -94.7 29.2)" x2="92.55" x1="103.08"/>
    <linearGradient id="d" y2="107.76" xlink:href="#a" gradientUnits="userSpaceOnUse" y1="111.28" gradientTransform="matrix(.6 0 0 1.5 -94.7 30.2)" x2="92.55" x1="103.08"/>
    <linearGradient id="e" y2="107.76" xlink:href="#a" gradientUnits="userSpaceOnUse" y1="111.28" gradientTransform="matrix(.6 0 0 1.5 -98 31)" x2="92.55" x1="103.08"/>
    <linearGradient id="f" y2="107.76" xlink:href="#a" gradientUnits="userSpaceOnUse" y1="111.28" gradientTransform="matrix(.6 0 0 1.5 -94.7 31.9)" x2="92.55" x1="103.08"/>
    <linearGradient id="g" y2="107.76" xlink:href="#a" gradientUnits="userSpaceOnUse" y1="111.28" gradientTransform="matrix(.6 0 0 1.5 -94.8 32.8)" x2="92.55" x1="103.08"/>
    <linearGradient id="h" y2="107.76" xlink:href="#a" gradientUnits="userSpaceOnUse" y1="111.28" gradientTransform="matrix(.6 0 0 1.5 -94.8 33.8)" x2="92.55" x1="103.08"/>
    <linearGradient id="i" y2="107.76" xlink:href="#a" gradientUnits="userSpaceOnUse" y1="111.28" gradientTransform="matrix(.6 0 0 1.5 -98 33.7)" x2="92.55" x1="103.08"/>
    <linearGradient id="j" y2="107.76" xlink:href="#a" gradientUnits="userSpaceOnUse" y1="111.28" gradientTransform="matrix(.6 0 0 1.5 -98 32.8)" x2="92.55" x1="103.08"/>
    <linearGradient id="k" y2="107.76" xlink:href="#a" gradientUnits="userSpaceOnUse" y1="111.28" gradientTransform="matrix(.6 0 0 1.5 -97.9 31.9)" x2="92.55" x1="103.08"/>
    <linearGradient id="l" y2="107.76" xlink:href="#a" gradientUnits="userSpaceOnUse" y1="111.28" gradientTransform="matrix(.8 0 0 1.9 602.8 148.2)" x2="92.55" x1="103.08"/>
    <linearGradient id="m" y2="107.76" xlink:href="#a" gradientUnits="userSpaceOnUse" y1="111.28" gradientTransform="matrix(.6 0 0 1.5 -98 30.1)" x2="92.55" x1="103.08"/>
    <linearGradient id="n" y2="107.76" xlink:href="#a" gradientUnits="userSpaceOnUse" y1="111.28" gradientTransform="matrix(.6 0 0 1.5 -95.3 31)" x2="92.55" x1="103.08"/>
    <clipPath id="b">
      <path fill-opacity=".67" d="M0 0h640v480H0z"/>
    </clipPath>
  </defs>
  <g clip-path="url(#b)">
    <path fill="#006" d="M0 0h960v480H0z"/>
    <path fill-rule="evenodd" fill="#006" d="M0 0h350v175H0z"/>
    <g stroke-width="1pt">
      <path d="M0 0v19.57L310.87 175H350v-19.57L39.13 0H0zm350 0v19.57L39.13 175H0v-19.56L310.87 0H350z" fill="#fff"/>
      <path d="M145.83 0v175h58.34V0h-58.34zM0 58.33v58.34h350V58.33H0z" fill="#fff"/>
      <path d="M0 70v35h350V70H0zM157.5 0v175h35V0h-35zM0 175l116.67-58.33h26.08L26.1 175H0zM0 0l116.67 58.33h-26.1L0 13.03V0zm207.25 58.33L323.92 0H350L233.33 58.33h-26.08zM350 175l-116.67-58.33h26.1l90.57 45.3V175z" fill="#c00"/>
    </g>
    <path d="M378.47 154.46l219.35-.82-.4 195.34s7.72 29.7-91.98 74.87c35.8-3.66 74.88-41.9 74.88-41.9s15.87-20.36 23.6-8.96c7.73 11.3 15.06 17 20.75 21.5 5.7 4.5 10.18 16.7 1.63 25.6-8.54 8.9-21.97 10.1-25.63-.8-5.7 2.8-40.7 45.1-112.3 47.2-72.86-1.2-112.74-47.6-112.74-47.6s-9.76 15.4-23.6 3.2c-13.42-15.9-3.25-26.1-3.25-26.1s11.4-6.5 14.65-11c5.3-6.1 6.9-14.3 15.87-14.3 10.58.8 14.65 9.3 14.65 9.3s36.62 38.6 76.1 43.5c-89.13-42.8-92.38-69.2-91.97-75.7l.4-193.7z" fill-rule="evenodd" fill="#fff"/>
    <path d="M383.76 159.74l209.16-1.22v188c.4 24.42-40.7 49.25-105 81-66.3-34.2-104.56-54.95-104.97-81.4l.8-186.37z" fill-rule="evenodd" stroke="#000" stroke-width="1.72" fill="#006129"/>
    <path d="M408.9 366.9l12.36-18.13 12.4 18.17" stroke="#f7c600" stroke-width="1.72" fill="none"/>
    <path d="M423.74 360.1a2.45 2.45 0 1 1-4.9.02 2.45 2.45 0 0 1 4.9 0z" fill-rule="evenodd" stroke="#000" stroke-width=".81" fill="#f7c600"/>
    <path d="M411.23 380.3l19.14.05s.3-2.48-2-4c10.03-1.37 7.43-10.2 15.82-10.7 1.6.24-4.4 3.75-4.4 3.75s-5.1 3.57-2.8 5.38c1.8 1.45 2.6-.87 2.9-2.63.2-1.75 8.1-2.88 7-7.9-1.9-4.13-12.9 2.77-12.9 2.77l-7.9-.05c-.5-.88-2.7-4.42-4.9-4.44-2.7.1-4.5 4.5-4.5 4.5h-17.8s-.6 4.55 8.4 5.43c2 2.65 3.6 3.4 5.4 4.08-1.2.98-1.5 2.17-1.5 3.76z" fill-rule="evenodd" stroke="#000" stroke-width=".81" fill="#f7c600"/>
    <path d="M412.6 376.4l15.95-.04M405.3 367s1.28 7.46 7.17 9.23" stroke="#000" stroke-width=".81" fill="none"/>
    <path d="M66.32 170.54c.45-2.15 1.26-2.52 2.15-5.27.15-2.67-2.15-2.37-1.48-4.08 1.1-1.9.5-3.7-1.7-5.1.4 2.4-2.9 4.7-2.9 6.7s1.7 1.5 1.5 4.6c.1 1.7-.5 1.3-.6 3h2.9z" fill-rule="evenodd" stroke="#000" stroke-width=".61" fill="url(#c)" transform="matrix(1.3 0 0 1.3 316.6 141.4)"/>
    <path d="M423.54 349.23a2.26 2.26 0 1 1-4.5 0 2.26 2.26 0 0 1 4.5 0z" fill-rule="evenodd" stroke="#000" stroke-width=".81" fill="#f7c600"/>
    <path d="M408.2 329.58l12.36-18.13 12.4 18.17" stroke="#f7c600" stroke-width="1.72" fill="none"/>
    <path d="M423.04 322.8a2.45 2.45 0 1 1-4.9 0 2.45 2.45 0 0 1 4.9 0zm-12.5 20.18l19.14.05s.3-2.48-2-4c10.02-1.37 7.42-10.2 15.8-10.72 1.64.3-4.37 3.8-4.37 3.8s-5 3.6-2.7 5.4c1.9 1.5 2.7-.9 2.9-2.6s8.2-2.9 7-7.9c-1.9-4.1-12.9 2.8-12.9 2.8h-7.8c-.5-.9-2.6-4.4-4.9-4.4-2.6.1-4.5 4.5-4.5 4.5h-17.8s-.6 4.6 8.4 5.5c2.1 2.7 3.6 3.4 5.4 4.1-1.2 1-1.5 2.2-1.5 3.8z" fill-rule="evenodd" stroke="#000" stroke-width=".81" fill="#f7c600"/>
    <path d="M411.9 339.1l15.96-.07m-23.25-9.34s1.3 7.4 7.2 9.2" stroke="#000" stroke-width=".81" fill="none"/>
    <path d="M66.32 170.54c.45-2.15 1.26-2.52 2.15-5.27.15-2.67-2.15-2.37-1.48-4.08 1.1-1.9.5-3.7-1.7-5.1.4 2.4-2.9 4.7-2.9 6.7s1.7 1.5 1.5 4.6c.1 1.7-.5 1.3-.6 3h2.9z" fill-rule="evenodd" stroke="#000" stroke-width=".61" fill="url(#d)" transform="matrix(1.3 0 0 1.3 315.9 104)"/>
    <path d="M422.84 311.9a2.26 2.26 0 1 1-4.5 0 2.26 2.26 0 0 1 4.5 0z" fill-rule="evenodd" stroke="#000" stroke-width=".81" fill="#f7c600"/>
    <path d="M539.38 295.65l12.35-18.13 12.4 18.17" stroke="#f7c600" stroke-width="1.72" fill="none"/>
    <path d="M554.2 288.87a2.45 2.45 0 1 1-4.9 0 2.45 2.45 0 0 1 4.9 0z" fill-rule="evenodd" stroke="#000" stroke-width=".81" fill="#f7c600"/>
    <path d="M541.7 309.05l19.14.05s.3-2.48-2-4c10.03-1.37 7.42-10.2 15.82-10.7 1.63.24-4.4 3.75-4.4 3.75s-5.05 3.57-2.74 5.38c1.83 1.45 2.63-.87 2.88-2.63.25-1.75 8.15-2.88 7.02-7.9-1.88-4.13-12.9 2.76-12.9 2.76l-7.88-.04c-.5-.88-2.66-4.42-4.9-4.44-2.65.1-4.52 4.48-4.52 4.48h-17.8s-.6 4.57 8.4 5.45c2.04 2.7 3.62 3.4 5.4 4.1-1.2 1-1.52 2.2-1.52 3.8z" fill-rule="evenodd" stroke="#000" stroke-width=".81" fill="#f7c600"/>
    <path d="M543.08 305.16l15.94-.05m-23.24-9.3s1.27 7.5 7.16 9.2" stroke="#000" stroke-width=".81" fill="none"/>
    <path d="M66.32 170.54c.45-2.15 1.26-2.52 2.15-5.27.15-2.67-2.15-2.37-1.48-4.08 1.1-1.9.5-3.7-1.7-5.1.4 2.4-2.9 4.7-2.9 6.7s1.7 1.5 1.5 4.6c.1 1.7-.5 1.3-.6 3h2.9z" fill-rule="evenodd" stroke="#000" stroke-width=".61" fill="url(#e)" transform="matrix(1.3 0 0 1.3 447.1 70.1)"/>
    <path d="M554 277.98a2.26 2.26 0 1 1-4.5 0 2.26 2.26 0 0 1 4.5 0z" fill-rule="evenodd" stroke="#000" stroke-width=".81" fill="#f7c600"/>
    <path d="M411.27 259.37l12.35-18.13 12.4 18.17" stroke="#f7c600" stroke-width="1.72" fill="none"/>
    <path d="M426.1 252.6a2.45 2.45 0 1 1-4.9 0 2.45 2.45 0 0 1 4.9 0z" fill-rule="evenodd" stroke="#000" stroke-width=".81" fill="#f7c600"/>
    <path d="M413.6 272.77l19.13.05s.3-2.48-2-4c10.03-1.37 7.43-10.2 15.82-10.7 1.63.24-4.38 3.75-4.38 3.75s-5.07 3.57-2.76 5.38c1.9 1.45 2.7-.87 2.9-2.63.3-1.75 8.2-2.88 7-7.9-1.8-4.13-12.9 2.76-12.9 2.76l-7.8-.04c-.5-.88-2.6-4.42-4.9-4.44-2.6.1-4.5 4.48-4.5 4.48h-17.8s-.6 4.57 8.5 5.45c2.1 2.65 3.6 3.4 5.4 4.08-1.2 1-1.5 2.2-1.5 3.8z" fill-rule="evenodd" stroke="#000" stroke-width=".81" fill="#f7c600"/>
    <path d="M414.97 268.88l15.94-.05m-23.2-9.35s1.3 7.45 7.2 9.22" stroke="#000" stroke-width=".81" fill="none"/>
    <path d="M66.32 170.54c.45-2.15 1.26-2.52 2.15-5.27.15-2.67-2.15-2.37-1.48-4.08 1.1-1.9.5-3.7-1.7-5.1.4 2.4-2.9 4.7-2.9 6.7s1.7 1.5 1.5 4.6c.1 1.7-.5 1.3-.6 3h2.9z" fill-rule="evenodd" stroke="#000" stroke-width=".61" fill="url(#f)" transform="matrix(1.3 0 0 1.3 319 33.8)"/>
    <path d="M425.9 241.7a2.26 2.26 0 1 1-4.5 0 2.26 2.26 0 0 1 4.5 0z" fill-rule="evenodd" stroke="#000" stroke-width=".81" fill="#f7c600"/>
    <path d="M411.55 223.7l12.35-18.12 12.4 18.17" stroke="#f7c600" stroke-width="1.72" fill="none"/>
    <path d="M426.38 216.93a2.45 2.45 0 1 1-4.9 0 2.45 2.45 0 0 1 4.9 0zm-12.5 20.17l19.13.07s.3-2.5-2-4c10.1-1.38 7.5-10.22 15.9-10.72 1.7.25-4.4 3.76-4.4 3.76s-5 3.6-2.7 5.4c1.9 1.5 2.7-.8 2.9-2.6.3-1.7 8.2-2.9 7.1-7.9-1.9-4.1-12.9 2.8-12.9 2.8H429c-.5-.9-2.65-4.4-4.9-4.4-2.64.1-4.5 4.5-4.5 4.5h-17.8s-.6 4.6 8.4 5.5c2.03 2.7 3.6 3.4 5.4 4.1-1.2 1-1.5 2.2-1.5 3.8z" fill-rule="evenodd" stroke="#000" stroke-width=".81" fill="#f7c600"/>
    <path d="M415.25 233.22l15.94-.05m-23.3-9.35s1.2 7.46 7.1 9.22" stroke="#000" stroke-width=".81" fill="none"/>
    <path d="M66.32 170.54c.45-2.15 1.26-2.52 2.15-5.27.15-2.67-2.15-2.37-1.48-4.08 1.1-1.9.5-3.7-1.7-5.1.4 2.4-2.9 4.7-2.9 6.7s1.7 1.5 1.5 4.6c.1 1.7-.5 1.3-.6 3h2.9z" fill-rule="evenodd" stroke="#000" stroke-width=".61" fill="url(#g)" transform="matrix(1.3 0 0 1.3 319.3 -1.8)"/>
    <path d="M426.18 206.04a2.26 2.26 0 1 1-4.5 0 2.26 2.26 0 0 1 4.5 0z" fill-rule="evenodd" stroke="#000" stroke-width=".81" fill="#f7c600"/>
    <path d="M412.23 187.53l12.34-18.13 12.4 18.17" stroke="#f7c600" stroke-width="1.72" fill="none"/>
    <path d="M427.05 180.75a2.45 2.45 0 1 1-4.9 0 2.45 2.45 0 0 1 4.9 0z" fill-rule="evenodd" stroke="#000" stroke-width=".81" fill="#f7c600"/>
    <path d="M414.55 200.93l19.14.05s.3-2.48-2-4c10-1.37 7.4-10.2 15.8-10.7 1.6.24-4.4 3.75-4.4 3.75s-5.1 3.57-2.8 5.4c1.8 1.43 2.6-.9 2.9-2.65s8.1-2.88 7-7.9c-1.9-4.13-12.9 2.77-12.9 2.77l-7.9-.05c-.5-.88-2.7-4.42-4.9-4.44-2.7.1-4.6 4.5-4.6 4.5h-17.8s-.6 4.55 8.4 5.43c2 2.6 3.6 3.3 5.3 4-1.2 1-1.5 2.1-1.5 3.7z" fill-rule="evenodd" stroke="#000" stroke-width=".81" fill="#f7c600"/>
    <path d="M415.93 197.04l15.94-.05m-23.25-9.4s1.28 7.4 7.17 9.2" stroke="#000" stroke-width=".81" fill="none"/>
    <path d="M66.32 170.54c.45-2.15 1.26-2.52 2.15-5.27.15-2.67-2.15-2.37-1.48-4.08 1.1-1.9.5-3.7-1.7-5.1.4 2.4-2.9 4.7-2.9 6.7s1.7 1.5 1.5 4.6c.1 1.7-.5 1.3-.6 3h2.9z" fill-rule="evenodd" stroke="#000" stroke-width=".61" fill="url(#h)" transform="matrix(1.3 0 0 1.3 319.9 -38)"/>
    <path d="M426.86 169.86a2.26 2.26 0 1 1-4.5 0 2.26 2.26 0 0 1 4.5 0z" fill-rule="evenodd" stroke="#000" stroke-width=".81" fill="#f7c600"/>
    <path d="M540.36 188.12L552.7 170l12.4 18.16" stroke="#f7c600" stroke-width="1.72" fill="none"/>
    <path d="M555.18 181.34a2.45 2.45 0 1 1-4.9 0 2.45 2.45 0 0 1 4.9 0z" fill-rule="evenodd" stroke="#000" stroke-width=".81" fill="#f7c600"/>
    <path d="M542.68 201.52l19.14.05s.3-2.48-2-4c10.02-1.37 7.42-10.2 15.82-10.7 1.62.24-4.4 3.75-4.4 3.75s-5.05 3.57-2.75 5.38c1.8 1.45 2.6-.87 2.8-2.63.2-1.75 8.1-2.88 7-7.9-1.9-4.13-12.9 2.76-12.9 2.76l-7.9-.04c-.5-.9-2.7-4.5-4.9-4.5-2.7.1-4.6 4.5-4.6 4.5h-17.8s-.6 4.5 8.4 5.4c2 2.6 3.6 3.4 5.4 4.1-1.2 1-1.5 2.1-1.5 3.7z" fill-rule="evenodd" stroke="#000" stroke-width=".81" fill="#f7c600"/>
    <path d="M544.05 197.63l15.95-.05m-23.25-9.35s1.28 7.45 7.17 9.22" stroke="#000" stroke-width=".81" fill="none"/>
    <path d="M66.32 170.54c.45-2.15 1.26-2.52 2.15-5.27.15-2.67-2.15-2.37-1.48-4.08 1.1-1.9.5-3.7-1.7-5.1.4 2.4-2.9 4.7-2.9 6.7s1.7 1.5 1.5 4.6c.1 1.7-.5 1.3-.6 3h2.9z" fill-rule="evenodd" stroke="#000" stroke-width=".61" fill="url(#i)" transform="matrix(1.3 0 0 1.3 448.1 -37.4)"/>
    <path d="M555 170.45a2.26 2.26 0 1 1-4.53 0 2.26 2.26 0 0 1 4.52 0z" fill-rule="evenodd" stroke="#000" stroke-width=".81" fill="#f7c600"/>
    <path d="M539.18 223.64l12.35-18.14 12.4 18.18" stroke="#f7c600" stroke-width="1.72" fill="none"/>
    <path d="M554 216.85a2.45 2.45 0 1 1-4.9 0 2.45 2.45 0 0 1 4.9 0z" fill-rule="evenodd" stroke="#000" stroke-width=".81" fill="#f7c600"/>
    <path d="M541.5 237.03l19.15.06s.3-2.5-2-4c10.02-1.4 7.42-10.3 15.82-10.8 1.62.2-4.4 3.7-4.4 3.7s-5.05 3.5-2.75 5.4c1.83 1.4 2.63-.9 2.88-2.7s8.15-2.9 7.02-7.9c-1.88-4.2-12.9 2.7-12.9 2.7l-7.87-.1c-.5-.9-2.66-4.5-4.9-4.5-2.66.1-4.53 4.4-4.53 4.4h-17.8s-.6 4.6 8.42 5.4c2.03 2.6 3.6 3.4 5.37 4.1-1.1 1-1.5 2.1-1.5 3.7z" fill-rule="evenodd" stroke="#000" stroke-width=".81" fill="#f7c600"/>
    <path d="M542.88 233.15l15.95-.06m-23.25-9.4s1.28 7.4 7.16 9.2" stroke="#000" stroke-width=".81" fill="none"/>
    <path d="M66.32 170.54c.45-2.15 1.26-2.52 2.15-5.27.15-2.67-2.15-2.37-1.48-4.08 1.1-1.9.5-3.7-1.7-5.1.4 2.4-2.9 4.7-2.9 6.7s1.7 1.5 1.5 4.6c.1 1.7-.5 1.3-.6 3h2.9z" fill-rule="evenodd" stroke="#000" stroke-width=".61" fill="url(#j)" transform="matrix(1.3 0 0 1.3 446.9 -1.9)"/>
    <path d="M553.82 205.96a2.26 2.26 0 1 1-4.52 0 2.26 2.26 0 0 1 4.52 0z" fill-rule="evenodd" stroke="#000" stroke-width=".81" fill="#f7c600"/>
    <path d="M537.6 259.94l12.36-18.13 12.4 18.2" stroke="#f7c600" stroke-width="1.72" fill="none"/>
    <path d="M552.44 253.15a2.45 2.45 0 1 1-4.9 0 2.45 2.45 0 0 1 4.9 0z" fill-rule="evenodd" stroke="#000" stroke-width=".81" fill="#f7c600"/>
    <path d="M539.94 273.34l19.14.05s.3-2.5-2-4c10.02-1.4 7.42-10.3 15.8-10.8 1.64.2-4.37 3.7-4.37 3.7s-5 3.6-2.7 5.4c1.9 1.4 2.7-.9 2.9-2.7.3-1.8 8.2-2.9 7-7.9-1.9-4.2-12.9 2.7-12.9 2.7l-7.8-.1c-.5-.9-2.6-4.5-4.9-4.5-2.6.1-4.5 4.4-4.5 4.4h-17.8s-.6 4.6 8.4 5.4c2.1 2.6 3.6 3.4 5.4 4.1-1.2 1-1.5 2.1-1.5 3.7z" fill-rule="evenodd" stroke="#000" stroke-width=".81" fill="#f7c600"/>
    <path d="M541.3 269.45l15.96-.06M534 260s1.3 7.45 7.17 9.22" stroke="#000" stroke-width=".81" fill="none"/>
    <path d="M66.32 170.54c.45-2.15 1.26-2.52 2.15-5.27.15-2.67-2.15-2.37-1.48-4.08 1.1-1.9.5-3.7-1.7-5.1.4 2.4-2.9 4.7-2.9 6.7s1.7 1.5 1.5 4.6c.1 1.7-.5 1.3-.6 3h2.9z" fill-rule="evenodd" stroke="#000" stroke-width=".61" fill="url(#k)" transform="matrix(1.3 0 0 1.3 445.3 34.4)"/>
    <path d="M552.24 242.26a2.26 2.26 0 1 1-4.5 0 2.26 2.26 0 0 1 4.5 0z" fill-rule="evenodd" stroke="#000" stroke-width=".81" fill="#f7c600"/>
    <path d="M539.18 367.27l12.35-18.13 12.4 18.17" stroke="#f7c600" stroke-width="1.29" fill="none"/>
    <path d="M554 360.5a2.45 2.45 0 1 1-4.9 0 2.45 2.45 0 0 1 4.9 0z" fill-rule="evenodd" stroke="#000" stroke-width=".8" fill="#f7c600"/>
    <path d="M541.5 380.67l19.14.05s.3-2.48-2-4c10.03-1.37 7.43-10.22 15.82-10.72 1.63.25-4.38 3.76-4.38 3.76s-5.07 3.58-2.76 5.4c1.83 1.43 2.63-.88 2.88-2.64.25-1.75 8.15-2.88 7.02-7.9-1.88-4.13-12.9 2.76-12.9 2.76l-7.88-.04c-.5-.88-2.66-4.43-4.9-4.44-2.65.1-4.52 4.48-4.52 4.48h-17.8s-.6 4.57 8.4 5.45c2.04 2.65 3.62 3.4 5.4 4.08-1.2 1-1.52 2.2-1.52 3.8z" fill-rule="evenodd" stroke="#000" stroke-width=".8" fill="#f7c600"/>
    <path d="M542.88 376.78l15.94-.06m-23.24-9.34s1.27 7.46 7.16 9.23" stroke="#000" stroke-width=".8" fill="none"/>
    <path d="M814.5 330.27c.57-2.77 1.63-3.25 2.77-6.8.2-3.43-2.77-3.05-1.9-5.24 1.52-2.4.76-4.7-2.1-6.5.56 3.15-3.74 6.1-3.74 8.7 0 2.58 2.2 2 1.9 5.92.2 2.3-.56 1.72-.75 3.92h3.82z" fill-rule="evenodd" stroke="#000" stroke-width=".78" fill="url(#l)" transform="translate(-301.5 28.3)"/>
    <path d="M553.8 349.6a2.26 2.26 0 1 1-4.5 0 2.26 2.26 0 0 1 4.5 0z" fill-rule="evenodd" stroke="#000" stroke-width=".8" fill="#f7c600"/>
    <path d="M539 331.36l12.34-18.13 12.4 18.17" stroke="#f7c600" stroke-width="1.72" fill="none"/>
    <path d="M553.82 324.58a2.45 2.45 0 1 1-4.9 0 2.45 2.45 0 0 1 4.9 0zm-12.52 20.18l19.15.06s.3-2.5-2-4c10.03-1.38 7.42-10.22 15.82-10.72 1.63.25-4.4 3.76-4.4 3.76s-5.05 3.57-2.74 5.4c1.83 1.43 2.63-.9 2.88-2.65.3-1.7 8.2-2.8 7.1-7.8-1.9-4.1-12.9 2.8-12.9 2.8h-7.9c-.5-.9-2.6-4.4-4.9-4.4-2.6.1-4.5 4.5-4.5 4.5h-17.8s-.6 4.6 8.4 5.5c2.1 2.7 3.6 3.4 5.4 4.1-1.2 1-1.5 2.2-1.5 3.8z" fill-rule="evenodd" stroke="#000" stroke-width=".81" fill="#f7c600"/>
    <path d="M542.7 340.87l15.93-.05m-23.24-9.35s1.2 7.46 7.1 9.22" stroke="#000" stroke-width=".81" fill="none"/>
    <path d="M66.32 170.54c.45-2.15 1.26-2.52 2.15-5.27.15-2.67-2.15-2.37-1.48-4.08 1.1-1.9.5-3.7-1.7-5.1.4 2.4-2.9 4.7-2.9 6.7s1.7 1.5 1.5 4.6c.1 1.7-.5 1.3-.6 3h2.9z" fill-rule="evenodd" stroke="#000" stroke-width=".61" fill="url(#m)" transform="matrix(1.3 0 0 1.3 446.7 105.8)"/>
    <path d="M553.62 313.7a2.26 2.26 0 1 1-4.5 0 2.26 2.26 0 0 1 4.5 0z" fill-rule="evenodd" stroke="#000" stroke-width=".81" fill="#f7c600"/>
    <path d="M434.68 298l12.34-18.14 12.4 18.17" stroke="#f7c600" stroke-width="1.72" fill="none"/>
    <path d="M449.5 291.2a2.45 2.45 0 1 1-4.9 0 2.45 2.45 0 0 1 4.9 0z" fill-rule="evenodd" stroke="#000" stroke-width=".81" fill="#f7c600"/>
    <path d="M437 311.4l19.14.04s.3-2.48-2-4c10.03-1.37 7.42-10.22 15.82-10.72 1.63.25-4.4 3.76-4.4 3.76s-5.05 3.58-2.75 5.4c1.9 1.43 2.7-.9 2.9-2.64.3-1.75 8.2-2.88 7-7.9-1.8-4.13-12.9 2.76-12.9 2.76l-7.8-.04c-.5-.88-2.6-4.43-4.9-4.44-2.6.1-4.5 4.48-4.5 4.48h-17.8s-.6 4.57 8.4 5.45c2.1 2.65 3.6 3.4 5.4 4.08-1.2.98-1.5 2.17-1.5 3.76z" fill-rule="evenodd" stroke="#000" stroke-width=".81" fill="#f7c600"/>
    <path d="M438.38 307.5l15.94-.06m-23.25-9.34s1.28 7.45 7.17 9.22" stroke="#000" stroke-width=".81" fill="none"/>
    <path d="M66.32 170.54c.45-2.15 1.26-2.52 2.15-5.27.15-2.67-2.15-2.37-1.48-4.08 1.1-1.9.5-3.7-1.7-5.1.4 2.4-2.9 4.7-2.9 6.7s1.7 1.5 1.5 4.6c.1 1.7-.5 1.3-.6 3h2.9z" fill-rule="evenodd" stroke="#000" stroke-width=".61" fill="url(#n)" transform="matrix(1.3 0 0 1.3 342.4 72.5)"/>
    <path d="M449.3 280.3a2.26 2.26 0 1 1-4.5 0 2.26 2.26 0 0 1 4.5 0z" fill-rule="evenodd" stroke="#000" stroke-width=".81" fill="#f7c600"/>
    <g stroke="#000">
      <path d="M500.74 384.17s5 11.52 10.68 4.44 3.6-10.1 3.6-10.1l-12.75-6.9-3.75 7.9 2.22 4.7z" fill-rule="evenodd" stroke-width=".81" fill="#f7c600"/>
      <path d="M511.7 382.65s.84.14 1.53-1.1-1.53-1.8-2.5-3.2l-1.1 2.22 2.07 2.08zm-28.87-3.05l-11.23 6.1s-5.55 1.1-5.97 0c-.42-1.1.14-2.08 3.05-2.22 2.92-.14 10.82-7.35 10.82-7.35l3.33 3.47zm.15-199.67l.42 4.03s-2.22 4.3-2.36 4.16-1.25.14-1.1.97 1.8 1.1 1.8 1.1-.7 2.9 0 3c.68.1-1.8 3.7 0 4.7 1.8.9 4.85 2.2 6.23 1.9 1.4-.3 0 5.4 0 5.4l-3.88 8.3 21.3-2.2-4.5-7.1s-2.1-1.4-1.6-5.4-.3-22.2-.3-22.2l-15.3-2.1-1 5.3zm-3.9 31.64s-6.93 3.2-6.65 11.8c-1.8 8.32-2.77 16.64-2.77 16.64s-8.2 9.3-10.7 12.7c-2.48 3.4-6.23 10.2-7.62 12s-6.8 7.8-6.66 10c.14 2.2-1.25 12.1 4.16 13.2 1.4.6 5.83-11.3 5.83-11.3s.28-5.1-1.25-6.1 3.33-4.3 3.33-4.3 9.3-6.8 11.38-8.5 7.77-8 7.77-8l3.2-37.8z" fill-rule="evenodd" stroke-width=".81" fill="#ffc6b5"/>
      <path d="M487 205.05s1.8 4.85 5.83 4.02c4.02-.83 8.74-4.58 8.74-4.58s3.74-.2 4.3.4c.55.5 10.13 9.8 9.85 12.7-.28 2.9-4.44 2.1-5.97 4s-4.02 6.8-3.33 10.4 2.78 8.3 2.5 10.1-1.8 2.3-1.8 3.3c0 .9 1.25 2.6 1.25 4.4s-1.67 4.4-1.4 6.2c.3 1.8.43 7.1.43 7.1l-.42 24.4s1.4.8 1.53 2.2c.2 1.4 9.5 41.7 9.5 41.7s-.4 1.3-1.4 1.1 3.8 6.3 3.9 8.1 4.9 15.9 4.7 17.9c-.1 1.9-.8 6.2-1.2 6.4-.4.1 3.1 8.8 2.5 10.2-.5 1.4-6.2 1.2-6.2 1.2l-1.5-.3s.2 1.8-.9 1.9-9.3-.4-9.3-.4-2.4 3.6-3.7 3.4c-1.4-.2-3.2-2.7-3.6-2.3-.4.4 1.3 2.8.9 3.5-.4.7-7.5 2.2-8.9-1.1-1.4-3.4.8-2.5.4-3.2-.4-.7-3.6-2.5-4.6-2s2.5 1.4 2.4 2.7c-.1 1.4-3 3.5-4.1 3.5s-3.7-5.2-7.6-4.6c-3.9.5-6.4 1.5-6.4 1.5s-4.6 1.9-6.5 1.5c-1.9-.4-2.7-1.9-2.7-2.8 0-.9 1.4-4.5 1.2-5.6s-1.3-2.3-1.3-3.9c0-1.7 3.2-7.4 3.2-7.4l-.1-25.5s-2.9 0-3-1.8 4.5-40.4 5.2-42.9c.7-2.5 2.5-11.4 2.5-11.4s-2.1.9-2.2 0S476 256 476 256s1.1-11 1.1-13.9c0-3-.5-7-.5-7s-5.7-2.4-5.8-6.1c-.5-5.86 5.4-9.14 6.1-11.1l2.8-7.76s3-5.3 8-6.1z" fill-rule="evenodd" stroke-width=".81" fill="#fff"/>
      <path d="M484.92 381.26s-13.45 7.08-15.4 7.64c-1.94.55-3.2-2.36-1.25-2.92 1.95-.55 5-.83 5-.83s-4.58-3.6-4.44-3.75c.14-.14 6.24-2.35 6.38-2.35s2 3.6 3.2 3.33 4.9-3.06 4.9-3.06 2 2.22 1.7 1.94z" fill-rule="evenodd" stroke-width=".81" fill="#f7c600"/>
      <path d="M503.9 385.14c1.26 1.64 1.76 4.5 4.67 2.82s-1.5-4.75-1.5-4.75l-3.18 2zm5.3-.28s1.4 1.1 2.64-.14-2.5-3.88-2.5-3.88l-1.8 2.08 1.67 1.94z" fill-rule="evenodd" stroke-width=".81" fill="#ffc6b5"/>
      <path d="M505.04 210.46s-12.35 7.9-12.07 10.68m14.85-9.3s-2.78 3.06-2.92 3.06m6.66.28s-6.1 5-5.13 8.18m-23.73-13.6s-1.8 3.75-1.4 5c.43 1.25 3.48 5.97 3.9 8.88.42 2.9 0 5 0 5m-5.7-11.94s.57 4.44 1.4 5.27c.84.84 3.06 4.58 3.33 6.1m-5.83 7.1s3.6 1.8 6.94-5.15m5.4-4.85c-.14 0-2.63 6.8 1.8 9.3s7.78 2.2 9.72 1.52c1.94-.7 4.02-2 4.02-2m-17.47-.6s.3 9.1 13.8 18.1m-13.2-9.5s-.1 8 5.2 11.6m-7.9-21.1s-4 11.9-7.2 13.2m6-4.5s-.1 8.6-1.2 11.6m-1.1 2.1s2.8 3.4 5.9 3.2c3.1-.3 4.3-3.9 6.4-3.4 2.1.5 4 2.2 8.9 1.8m-6.9 3.6s0 7.1 1.3 7.8.7 7.2.7 7.2m-19-18.3s-.1 6.6-.9 9c-.8 2.3-2.5 6.4-2.2 9.8m-5.2 3.9c.7-.3 3.1-2.4 3.1-2.4m1.3 1.5s-6 25.5-4.3 40.8m5.7-39.6s-3.1 19.1-1.7 22.7m.2-23.3l11.7.8m1.7-1.5s3.2 1.6 7.6 1.4m-9 7.9s-.5 32.7-1.4 39.9m18.5-32.5s3.6 28.7 5.7 31.3m-12.6-27.7s2.2 25.4 3.5 27.6m-35 8.9s4.3-1.4 8.2-5.5c4.4 5.9 11.2.3 11.2.3s10.6 7.2 15.3-.9c7.2 4.7 10.8-.7 10.8-.7s2.6 4 4.6 3.6m-11.5 2.8s5.4 25.4 13.5 32.6m-41.4-35.3s.7 21.3 2 36.3m-2.9-12.2s-.7 13.8-1.5 14.8m-6.6 1.4s1.5 6 9.2.4c7.6-5.5 7.7 2.1 8 2.9.3.8 1.5 6.8 4.4 1.8m6.1-8.2s-1.24 12.4 9.7 3.4c11-9.1 12.8-.2 13.08 2.6" stroke-width=".81" fill="none"/>
      <path d="M482.56 179.1s3.05.42 4.7-.55c1.68-.98 3.62-1.4 5 .55s2.37 1.8 2.37 1.8-2.08 5.14 0 5.7c2.08.55 3.05.55 3.2 1.24.13.7-1.82 2.22-1.26 2.9.55.7 1.53 1.54 1.66 2.1.14.55-1.24 2.9-.83 3.47.42.6 1.67 2.8 2.5 2.8.83 0 .28 3.5 2.77 2.7s2.36-3 2.36-3 2.64-.4 3.33-2.7c.7-2.3 2.36-2.9 2.36-2.9s3.33-1.8-1.1-4.6c0-19.4-12.77-17.3-12.77-17.3s-1.53-3.4-4.03-3c-2.5.5-2.63 3.4-4.44 3.1-1.8-.3-2.22-1.5-2.36-1.4-.13.2-1.66 2.9-1.66 3.6 0 .7-4.86-.9-4.44 2.7s2.77 3.5 2.64 3.2z" fill-rule="evenodd" stroke-width=".81" fill="#9c5100"/>
      <path d="M495.9 174.38s-.98 6.1 5.54 5.55c-.84 3.33 1.66 4.44 1.66 4.44m4.85 3.75c.14 0 2.9 1.8-.14 4.02m-9.2.84s1.4 1.66 2.9 1.25c1.6-.42 4.1 1.52 4.1 1.52s2.1.7 2.4.28m-17.7 2.22s4.7 1.8 7.8-5.7m-16.5-2.2l2.8.13" stroke-width=".81" fill="none"/>
      <path stroke-linejoin="round" d="M481.74 193.1h2.5l-2.23 1" stroke-width=".81" fill="none"/>
      <path stroke-linejoin="round" d="M485.2 185.34c.42 0 1.94-.55 2.22-.13.28.5-1.66.7-2.22.2z" stroke-width="1.45" fill="none"/>
      <path d="M515.17 218.3c.14 0 4.58 13.75 5.13 17.2.56 3.48 2.36 17.36 1.67 19.3-.7 1.94-7.77 11.24-8.6 13.6-.84 2.36-5.83 11.38-5.83 11.38s-1.25 8.88-1.8 9.3c-.56.4 1.43 2.6 1.24 3.32-.27.83-4.02 4.72-5.68 4.3-1.67-.4-4.3-2.35-4.44-4.16s.13-7.77 1.38-9.3 7.77-16.92 8.2-17.9c.4-.96 5.95-13.04 6.1-15.12.13-2.08-1.73-6.9-3.7-8.66-4.36-12.85-2.65-20.6 6.33-23.25z" fill-rule="evenodd" stroke-width=".81" fill="#ffc6b5"/>
      <path d="M450.52 277.84l.22 6.08m-5.9-6.53s3.9 6.5 3.56 10" stroke-width=".81" fill="none"/>
      <path stroke-linejoin="round" d="M497.08 291s2.9-.3 2.82 4.57c1.86-6.04 5.65-6.18 5.65-6.18" stroke-width=".81" fill="none"/>
    </g>
    <path d="M487.12 429.95c58.6-1.63 96.44-43.95 96.04-44.36-.4-.4 7.73-11.8 14.24-10.2 6.5 1.6 15.87 20.7 27.26 24.8 5.7 8.9-1.62 17.1-4.07 18.7-2.5 1.6-13.5 6.1-15.1-.4-1.7-6.5-4.9-5.3-4.9-5.3S548.5 464 488.3 462c-62.3.4-113.6-48.86-113.6-48.86l-4.46 4.9s-4.9 5.3-7.33 4.9c-2.4-.4-13-7.35-13.8-14.27-.8-6.93 6.5-11.4 6.5-11.4s17.9-13.84 20-21.16c4.1-4.1 11.8 2.9 11.8 2.9s47.2 54.1 99.7 50.9z" fill-rule="evenodd" stroke="#000" stroke-width="1.72" fill="#f7c600"/>
    <path d="M354.46 398.48s4.85-1.3 6.62.72c1.78 2.02 13.96 13.96 13.96 13.96" stroke="#000" stroke-width="1.72" fill="none"/>
    <path d="M365.52 404.12l-4.84 3.63s12.18 2.42 9.44 10.4m250.18-20.08s-2.42-1.3-6.22 1.53c-3.8 2.82-13.4 13.56-13.4 13.56" stroke="#000" stroke-width="1.72" fill="none"/>
    <path d="M609.4 403.8l5.25 4.04s-10.97.73-8.55 11.14" stroke="#000" stroke-width="1.72" fill="none"/>
    <path d="M416.5 411.4l-.36.5c-.73-.38-1.57-.45-2.52-.22-.7.18-2 .83-3.9 1.95l-16.13 9.4-.5-.3 4-18.86c.5-2.27.7-3.65.6-4.14-.1-.48-.4-1.02-1-1.6l.3-.5 8.7 6.2-.4.5-.3-.2c-.8-.57-1.4-.85-1.8-.86-.3 0-.6.1-.7.37-.1.16-.2.38-.3.65-.1.2-.3 1-.6 2.2l-2.6 11.8 9.3-5.5c1.1-.7 1.8-1.2 2.2-1.4.3-.3.6-.5.7-.8.2-.3.3-.6.3-.9 0-.3-.1-.6-.3-.9-.3-.5-.7-.9-1.4-1.3l.4-.5 5.9 4.2m5.8 28l-.3.5-10.2-5.6.3-.5.6.3c.5.3 1.1.4 1.5.4.3 0 .6-.1.9-.4.2-.2.6-.7 1.1-1.7l7-12.9c.5-1 .8-1.7.8-2 0-.3-.1-.7-.3-1-.2-.4-.6-.7-1.2-1l-.7-.4.3-.5L432 420l-.3.5-.64-.4c-.6-.3-1.1-.5-1.58-.5-.3 0-.6.1-.9.4-.3.2-.67.7-1.2 1.7l-7 12.9c-.58 1-.87 1.6-.9 1.9 0 .3.1.7.3 1 .2.34.6.7 1.15 1l.7.33m37.3-8.7l-2.65 7.4-.5-.2c0-2.3-.48-4.2-1.48-5.7-1-1.6-2.3-2.6-3.94-3.2-1.6-.6-3.1-.6-4.4-.1-1.4.5-2.6 1.5-3.6 2.9a19.4 19.4 0 0 0-2.4 4.6c-.7 2-1.1 3.84-1.2 5.53s.3 3.1 1.1 4.16 2 1.9 3.4 2.4c.5.2 1.1.3 1.6.4.6.06 1.2.1 1.8.1l1.6-4.4c.3-.8.48-1.4.4-1.64 0-.3-.2-.6-.43-.9-.3-.3-.7-.6-1.2-.78l-.6-.2.2-.6 10.2 3.6-.2.53c-.8-.3-1.4-.3-1.73-.3-.4 0-.7.2-1 .5-.16.2-.4.6-.6 1.4l-1.6 4.34c-1.6.1-3.1.04-4.7-.18a22.75 22.75 0 0 1-4.7-1.1c-2-.7-3.54-1.6-4.7-2.6a13.57 13.57 0 0 1-2.7-3.4c-.7-1.3-1.1-2.6-1.3-3.9-.2-1.7 0-3.4.65-5.2 1.1-3.2 3.2-5.5 6.2-6.8 3-1.4 6.2-1.5 9.53-.3 1.02.3 1.92.8 2.7 1.2.4.2 1.1.7 1.9 1.5.9.7 1.43 1.1 1.6 1.2.3.1.6.1.93-.1.3-.1.7-.4 1.1-.9l.6.2m15.7 25.3l-.1.6-11.5-1.8.1-.6.7.1c.6.1 1.1.1 1.6-.1.3-.1.5-.3.7-.7.2-.2.3-.9.5-2l2.2-14.5c.2-1.1.2-1.8.1-2.1-.1-.3-.3-.6-.6-.8-.3-.3-.8-.5-1.4-.6l-.7-.1.1-.6 11.5 1.8v.6l-.7-.1c-.6-.1-1.1-.1-1.6.1-.3.1-.5.3-.7.7-.1.2-.3.9-.5 2l-2.2 14.5c-.2 1.1-.2 1.8-.1 2.1.1.3.3.5.6.8.3.24.8.42 1.4.5l.7.1m29.9-7.2l-.5 7.8-19.7 1-.1-.6h.8c.7-.08 1.2-.2 1.6-.4.3-.2.5-.5.6-.8.1-.3.1-1 0-2.1l-.7-14.6c-.03-1.2-.13-1.9-.3-2.1-.1-.3-.4-.5-.8-.7-.32-.2-.82-.3-1.5-.3h-.7l-.03-.6 11.8-.6v.6l-1 .03c-.65 0-1.2.2-1.54.4-.3.2-.5.5-.7.9-.1.3-.1 1-.06 2.1l.7 14.2c0 1.1.1 1.8.3 2.14.1.3.4.5.8.66.3.1.9.1 2 .08l1.8-.1c1.2-.06 2.1-.3 2.9-.8.7-.43 1.4-1.12 1.9-2.1.5-.9 1-2.3 1.4-4l.7-.05m21.6-3.7l-7.6 2.3-.3 2.3c-.1.8-.1 1.4.1 1.9.1.6.5 1 1.1 1.1.3.1 1 0 2.2-.2l.2.6-7.1 2.1-.2-.6c.7-.36 1.2-.86 1.6-1.5.3-.7.6-1.9.8-3.8l2.5-19.3.3-.1 12.9 15.2c1.2 1.5 2.1 2.3 2.7 2.6.42.2 1 .3 1.7.1l.2.6-10.3 3.1-.2-.6.4-.1c.8-.3 1.4-.6 1.6-.9.2-.3.23-.5.13-.9a2 2 0 0 0-.3-.6c0-.02-.3-.4-.8-1l-1.9-2.3m-.9-1l-5.4-6.4-1.08 8.3 6.4-1.9m28.5-29l2.8 5.3-.5.3c-1-1.02-1.8-1.72-2.5-2.1-.7-.3-1.4-.43-2.3-.4-.45 0-1.14.3-2.05.8l-1.5.8 8.15 15.2c.5 1 .9 1.6 1.2 1.8.23.2.6.3 1 .3s.9-.12 1.5-.42l.6-.4.3.5-9.8 5.5-.3-.5.65-.3c.6-.3 1-.7 1.2-1.1.2-.25.3-.6.2-1 0-.3-.3-.9-.8-1.9l-8.1-15.04-1.4.72c-1.3.7-2.1 1.5-2.4 2.4-.4 1.2-.3 2.6.2 4.1l-.5.3-2.8-5.3 17.6-9.5m13.4-7.9l5.5 7.23.4-.23c1.12-.9 1.7-1.8 1.64-2.9s-.5-2.4-1.4-3.9l.5-.4 7 9.3-.5.4c-.9-.95-1.7-1.6-2.6-2-.8-.4-1.5-.54-2.1-.4-.6.1-1.34.46-2.2 1.1l3.8 5c.7 1 1.2 1.56 1.4 1.7.3.1.6.2.9.17.3 0 .8-.2 1.3-.6l1.1-.8c1.65-1.26 2.7-2.6 3.1-4.17.4-1.5.2-3.2-.5-5.1l.5-.4 3.4 6.3-15.4 11.6-.32-.5.6-.4c.5-.4.84-.8 1.02-1.2.2-.3.2-.6.1-1-.1-.3-.4-.84-1.1-1.73l-8.9-11.6c-.6-.8-1-1.24-1.2-1.4a1.57 1.57 0 0 0-1-.32c-.5 0-1.1.27-1.7.7l-.6.4-.37-.5 14.9-11.3 4 5.2-.5.4c-1.2-1.1-2.2-1.8-3.1-2-.8-.2-1.8-.14-2.8.2-.6.2-1.6.86-2.9 1.87l-1.83 1.4"/>
    <path d="M380.54 413.06c72.78 59.04 144.13 60.12 213.93 0" fill="none"/>
  </g>
</svg>
