<svg xmlns="http://www.w3.org/2000/svg" height="480" width="640" viewBox="0 0 640 480">
  <defs>
    <clipPath id="a">
      <path fill-opacity=".67" d="M0 0h682.67v512H0z"/>
    </clipPath>
  </defs>
  <g clip-path="url(#a)" transform="scale(.9)">
    <g fill-rule="evenodd">
      <path d="M0 0l347.42 219.42h420.56v73.15H347.42L0 511.97V0z"/>
      <path d="M0 493.7l354.73-226.73h413.25v-21.94H354.73L0 18.3v32.9L332.8 256 0 460.8v32.9z" fill="#ff0"/>
      <path d="M0 511.98l354.73-226.73h413.25v226.73H0z" fill="#40aa40"/>
      <path d="M0 0l354.73 226.73h413.25V0H0z" fill="#ce0000"/>
      <path d="M95.8 266.62c1.23.27 1.56.62 2.77-1.16.26-.9 1.03-2.15 1.7-3.26.88-1.46 1.26-2.04 2.1-.94.54.64 2.7-.53 3.58.08 1.38.92.55.8 1.68-.2.87-1.85.1-1.63-1.12-2.47-.8-.6-3 .62-3.9.03.3-1.84.9-2.04 2-2.4.8.55 3.2-.42 3.9-.4 1 .2 2 .32 2.3-1.18.5-1.06.3-.33-.1-1.1-.8-.6-3 .62-3.9.03-1.1-.84-.9-1.15-.3-2.57.9-.48 1.6-.25 2.6.42 1.2.77 2.9-.7 3.9-.77.9-1 1.9-1.32 1.3-2.54-.3-1-.6-1.1-1.8-1.3-1.2-.9-2.8.7-3.3-.6 1-1.4 1.4-1.1 2.6-.3.8.2 3.1-1.1 3.8-1.2 1.1-.3.6.9 1.4-1.8-.3-1.2-2.2.7-3.4.4-1 .1-1.9-.3-2-1.4 0-1.6.8-1.7 1.9-1.5 1 .2 3.2-1.1 4-1 1.2.6 1.5.4 2.5-1.1.7-1.7-.1-1-1.2-1.9-.9-.6-3.1.6-3.9 0 .1-.6.4-1.4 1-1.7.8.2 1.5.1 2.6.8 1.07.4 2.8-1.6 3.7-2.3-.2-1-1.9.4-2.94-.4-.67-.5-1.5-1-1.7-1.5.6-1.7.3-1.6 1.9-1.1.86-.27 2.3-.2 1.34-1.8-.15-.3-1-.2-1.75-.57-.9-.67-1.76-1.3-2.7-1.58-.7-.1-1.7-.37-2.24-.2-.03 1 .2 1.63.1 2.8.5.73 1.3.75 1.5 1-.9.8-1.4.4-2.3.45-1.13-.74-.5-3.15-1.8-2.6.3.7.18 3.4.75 3.95.6.44 1.4.84 1.5 1.4-.95 1.5-1.3 1.4-2.5.7-1-.65-.64-2.8-1.5-2.7-1 .77-1 .73-.8 1.8.06 1.4-.5 3.4.6 4.17 1.4.96 1.57.85.5 2.7-.7.9-1.1.73-2 .32-.9-.68-.7-3-1.4-3.7-1.3-.8-.54-.8-1.7.2-.3 1.2-.1 1.6.5 2.7.5.7.45 3 1.2 3.2 1.3.7 1.3.53-.1 1.9-1.13 0-1.6.3-2.46-.7-1.1-.8-.4-3.2-1.7-3.24-1.3.1-1.5.17-1.4 1.8.2 1.5-.3 3.8.86 4.7 1.1.5 1.7.5 2.1 1.17-.3.3-1 1.25-1.34 1.45-.8.05-1.6-.5-2.5-.7-1.06-.5-.6-1.43-1.4-2-1 .3-1-1.04-1.5.3.2 1.1-.2 2.6.9 3.3.8.6 1.6 1.8 2.44 2.4.96 1.17.6 1.37 0 3.06-.85.06-1.8-.5-2.7-1.13-.87-.6-.7-2.87-1.58-3.46-.8-.7-.5-1.3-1.7.2-.1 1.1.1 1.2.4 2 0 1.1-.3 3.2.74 3.9 1.02.2 2.2.8 3 1.04.8.9.1.73-.8 2.16-.57 1.4-.57 1.7-1.4 2.4-.77 1-1.07 1.47-.38 2.8z" fill="#ff0"/>
      <path d="M120.92 267.85c.73-1.2 1.2-1.4.03-3.4-.72-.64-1.57-1.95-2.32-3.1-1-1.52-1.37-2.17-.02-2.6.8-.33.6-3.08 1.5-3.8 1.4-1.08 1-.25.5-1.85-1.3-1.66-1.4-.76-2.7.2-.9.68-.6 3.5-1.5 4.17-1.5-1.06-1.5-1.76-1.4-3.03.9-.64.9-3.5 1.2-4.27.6-1 1.1-1.93-.2-2.87-.7-.96-.1-.43-1-.3-.9.66-.6 3.48-1.5 4.16-1.2.84-1.4.52-2.4-.74-.1-1.1.4-1.7 1.4-2.6 1.2-.86.5-3.3.8-4.36-.5-1.33-.4-2.56-1.8-2.35-1 .1-1.2.3-1.9 1.5-1.2 1-.5 3.3-1.8 3.3-.9-1.6-.5-1.8.7-2.8.6-.7.2-3.7.5-4.5.2-1.3 1.1-.2-1.1-2.1-1.2-.2-.2 2.7-.9 3.8-.3 1.2-1 2-2.1 1.6-1.4-.6-1.2-1.5-.6-2.6.6-.9.3-3.7.7-4.6 1.1-1 1-1.4 0-3-1.3-1.4-.9-.3-2.2.6-.9.7-.6 3.5-1.5 4.2-.5-.4-1.1-1-1.1-1.7.5-.8.8-1.6 1.8-2.5.87-.9-.3-3.6-.6-4.8-.92-.2-.4 2.2-1.42 3-.7.5-1.42 1.2-2.03 1.2-1.33-1.3-1.36-1-.2-2.5.1-1 .7-2.5-1.14-2.1-.3.1-.52 1-1.2 1.7-.9.7-1.8 1.4-2.43 2.3-.4.7-1 1.7-1.08 2.3.9.5 1.6.5 2.65 1 .85-.2 1.2-1 1.5-1.1.38 1.3-.2 1.6-.5 2.7-1.2.9-3.1-.75-3.13.9.8-.05 3.2 1.1 4 .75.6-.47 1.3-1.13 1.9-1.05 1 1.63.78 2-.34 2.9-1 .8-2.85-.4-3.1.5.3 1.4.3 1.4 1.36 1.6 1.3.5 2.9 1.9 4.08 1 1.4-1.05 1.4-1.3 2.67.6.5 1.15.2 1.5-.5 2.26-1 .7-3-.4-4 0-1.3 1.1-.98.3-.5 1.9 1 .9 1.4.8 2.63.6.8-.2 2.98.8 3.4 0 1.16-1 1-1.1 1.7.9-.4 1.2-.3 1.9-1.6 2.4-1.1.8-3.1-.9-3.6.5-.4 1.35-.5 1.65 1.1 2.15 1.4.4 3.3 1.9 4.6 1 .9-1 1.16-1.7 1.9-1.83.17.5.78 1.54.8 2.03-.25.83-1.1 1.5-1.6 2.33-.84.9-1.5 0-2.4.7-.1 1.1-1.3.6-.25 1.7 1.1.2 2.3 1.2 3.4.4.84-.7 2.24-1 3.13-1.7 1.4-.6 1.5-.1 2.8 1.22-.3.9-1.2 1.7-2.1 2.4-.9.65-2.9-.4-3.8.3-1 .5-1.5 0-.5 1.9 1 .5 1.1.32 2 .32 1 .46 2.8 1.6 3.9.8.6-1.02 1.5-2 2.1-2.8 1.15-.45.7.2 1.7 1.7 1.1 1.2 1.3 1.3 1.6 2.5.6 1.2.9 1.7 2.4 1.5z" fill="#ff0"/>
      <path d="M98 314.5c0-5.32-.82-10.63 0-10.63 46.82 0 58.52-31.92 58.52-53.2s-16.26-42.55-46.8-42.55c-35.12 0-46.82 20.78-46.82 42.55 0 21.28 17.55 37.24 35.1 37.24 23.4 0 29.26-5.3 46.82-26.6-5.85 26.6-35.1 37.3-46.8 37.3-23.42 0-46.82-15.9-46.82-47.9 0-26.6 17.55-53.2 58.5-53.2 35.12 0 58.52 26.6 58.52 53.2 0 37.3-29.25 63.9-70.2 63.9z" fill="#ff0"/>
    </g>
  </g>
</svg>
