<svg xmlns="http://www.w3.org/2000/svg" height="480" width="640" viewBox="0 0 640 480">
  <defs>
    <clipPath id="a">
      <path fill-opacity=".7" d="M-72 0h683v512H-72z"/>
    </clipPath>
  </defs>
  <g clip-path="url(#a)" transform="matrix(.9 0 0 .9 67.4 0)">
    <g fill-rule="evenodd" stroke-width="1pt">
      <path d="M-72 407.8V104.4L154 256-72 408z"/>
      <path d="M82.2 512l253.6-170.5H696V512H82.3z" fill="#00c"/>
      <path d="M66 0h630v170.7H335.8S69.3-1.6 66 0z" fill="red"/>
      <path d="M-72 64v40.4L154 256-72 407.8V448l284.6-192L-72 64z" fill="#fc0"/>
      <path d="M-72 64V0h95l301.3 204H696v104H324.4L23 512.2h-95v-64L212.7 256-72 64z" fill="#093"/>
      <path d="M23 0h59.2l253.5 170.7H696V204H324.4L23 0zm0 512h59.2l253.5-170.5H696v-33.2H324.4L23 512z" fill="#fff"/>
    </g>
  </g>
</svg>
