<svg xmlns="http://www.w3.org/2000/svg" height="480" width="640" viewBox="0 0 640 480">
  <defs>
    <clipPath id="a">
      <path fill-opacity=".67" d="M-170.67 0H512v512h-682.67z"/>
    </clipPath>
  </defs>
  <g fill-rule="evenodd" clip-path="url(#a)" transform="matrix(.9 0 0 .9 160 0)">
    <path fill="#198a00" d="M-256 0h768v512h-768z"/>
    <path fill="#ef7d00" d="M421.87 183.94H512v328.03h-90.13z"/>
    <path d="M331.85 183.78h90.03v328.1h-90.03z"/>
    <path fill="#de2010" d="M239.95 183.98h91.94V512h-92z"/>
    <g stroke="#000" fill="#ef7d00">
      <path stroke-linejoin="round" d="M451.6 65.6s33.93-14.5 37.2-17.5c1.5 1.8-13.58 20.03-42.87 26.75 26.6-6.27 49.3-26 53.94-25.4 1.34.3 1.05 19.28-59.9 35.7C482.1 74.1 506.6 53.8 506.3 56.03c.3.45-4.2 15.98-41.1 28.1 10.3-2.4 38.25-19.44 37.95-16.15.9 1.35-27.05 37.2-77.54 25.55C466 104 492.1 78.73 495.9 79.2c.75.1-7.47 22.1-58.27 23.4 24.35-2.54 17.33-.15 17.33-.15s-14.34 11.2-31.7 3.58c13.6 3.74 15.1 3.9 15.4 5.08-.9 1.5-12.1 3.8-22.85-2.1 8.7 3.6 16.5 4.2 16.6 5.6-.1.5-5.7 3.6-10.6 1.4-4.9-2.2-50.3-30.1-50.3-30.1l77.4-21.2 2.9 1.1zm-90.98 75.57c-6.8 0-7 6.06-7 6.06s-.55.43-.18 3.37c1.13-2 1.7-2.63 1.7-2.63.74.13 3.86 1.07 8.8-2.8-4.5 4.68-1.82 6.43-1.82 6.43s-1.06 3.68 2.37 4.43c-1.1-1.5-.5-2.8-.5-2.8s4.8-.5 4.5-6.38c.2 5.3 3 6.62 3 6.62s0 2.93 3.1 3.18c-1.7-1.5-1.3-3.8-1.3-3.8s4-2.94.6-7.94c2-1.1 3.7-4.4 3.7-4.4s-2.9-1.2-4.2-2.2c-.6-1.3-.1-8.5-.1-8.5l-1.7-9.3L367 135c.2-2.03.3 6.27-6.5 6.27z" stroke-width=".99"/>
      <path stroke-linejoin="round" d="M394.24 120.27c.15.15 5.08 5.68 9.86 5.38 1.8-1.5-3.74-4.78-3.74-5.53 1.95 1.8 10.16 8.82 15.4 6.28 2.08-3-3.74-2.54-10.17-10.6 4.4 2.98 15.6 9.55 20.9 7 2.2-2.38-11.7-9.85-16.3-15.68l-12-6.12-16.2 13.3 12.2 5.97z" stroke-width=".99"/>
      <path stroke-linejoin="round" d="M375.86 74.85s5.53-3.28 27.64-1.64c2.4.3 15.1-4.3 19.12-5.6 6.43-1.2 26.9-5.7 32.43-9.8 3.88-.4-1.05 7.2-5.98 9-5.23 2.4-24.2 9-30.93 8.1 8.07.2 3.6 6.8-9.86 3.6 6.42 3.6 4.03 4.2 4.03 4.2s-11.3.6-14.3-1.9c7.6 2.9 4.5 3.9 4.5 3.9s-7.7.8-11.3-.9c5.6 1.7 2.7 2.7 2.7 2.7s-4.5.8-8.2-.6C382 84.5 376.3 75 376 75z" stroke-linecap="round" stroke-width=".99"/>
      <path stroke-linejoin="round" d="M384.72 123.37l.8 14.6s-.42.76-.8 1.2c-.37.44-10.36-1.56-9 6.06 0 3.12.07 3.93 2.2 5.68-.57-2-.38-3.5-.38-3.5s2.8 1.7 5.56-2.9c-1.87 4.6-.56 6.2-.13 6.3.44.8-.74 4.5 3 4.5-1.43-1.3-.75-3.3-.75-3.3s3.94-.6 2.56-7.7c1.44-1.4 2 0 2 0s.44 4.2 3.87 3.4c1.56.9-.25 3.2-.25 3.2s2.5.1 3.25-2 1.62-5.9-2.5-7.5c-.5-1.5 1.63-1.6 1.63-1.6s2.62.9 3.37 2.2c.75 1.3.5-3.4-2.75-3.9-4-.1-4.25-.9-4.25-1.1 0-.2-.68-10.6-1-13.6l-6.43.4z" stroke-width=".99"/>
      <path stroke-linejoin="round" d="M398.63 135.82c.05-.67-6.82-9.9-5.08-11.1 1.74.35 4.6 4.55 6.9 3.2-.7-1.65-2.76-.73-5.1-4.92-2.35-4.75-2.7-11.87-10.9-19.64 5.3 8.22 17.38 13.04 17.9 10.65s-10.64-11.4-10.07-13.6c2.22 4.5 13.4 14.5 21.64 13.7.57-1.9-6.75-5.8-8.63-9.4-5.3-3.5-19.4-15.6-19.7-18.5-5.2-7.4-8.4-9.7-9.8-10.6-.6-.6-.7-1.3-.9-1.7-3.2-7.5 1-9.9 3.5-10.3 2-.2 2.6.1 4.1-.6-1.8-.6-3.5-1.3-5.2-2 2.2 1.7 8 .2 6.7 5 2.5-.9 7.9-7.3-6.1-8.8-4.6-5.2-23.3-8.2-28 14.6.4.3.5.6 1.7 1.5-5.9-2.8-21.9-5-27.6-6-15.5-4.4-31.7-15.2-33.2-13.9-2.1 1 9.4 11.6 8.8 11.8-9.9-5.7-19-9.8-27.5-13.6-6-2.2-11.9-7.4-12.6-6.4-2.2 4.6 9.5 15.9 11.7 17.3 2.2 1.3 19.3 9.2 19 9.3-25.7-11.8-30-13.9-31.3-15.3-2.3-.5-7.8-8-9.4-7.5-.84.8.85 12.7 13.16 18 2 1.5 26.4 10.2 26.2 10.9 0 .2-27.9-11.5-29-11.9-5.3-2.1-11.9-9.5-13.2-8.7-1.1.8 3.1 8.8 8.5 11.3 2.9 1.3 13.8 6.7 23.6 10.1.7.3-17.6-6.9-26.4-10.6-4-2.2-5.9-4.9-6.5-4.4-.9.6 1.45 12.4 29.7 19.1.75.3 9.96-2.2 9.5-1.8-.1.1-9.14 2.1-10 2-.77-.1-5.7.6-5.8.9-.3.8 1.8 5.1 16.4 4.2 1.86-.1 12-3.7 11.14-2.9-.43.4-13.8 4.8-14.8 4.8-.9.2-5.6.6-5.8 1.1-.2.7 3.5 3.7 11.3 4.2 6.9.4 20.1-4.2 19.9-3.9-.3.3-12.7 4.6-13.06 4.88-.47.28-5 .5-5.2.88-.4.88 6.6 7.38 27.1.4-2 2.8-12 4.7-12 5.2 0 .4 2.2 2.57 5.7 3.3 1.75.4 4.1.3 6.3 0 3.9-.76 8.04-2.3 13.3-7.15.6 1.5-13.1 8.46-12.46 9.1 3 2.77 12.83-.34 13.5-.7.62-.36 19-10.7 18.93-11.9.2 1.5-23.7 14.54-23.5 15.07 1.56 2.46 9.75-.13 10.1-.35.4-.23 10.5-5.66 10.77-5.82.2-.14-11.88 7.1-10.8 8.2-.5 4.7 18.9-3.24 20.4-4.23.8-.5-9.3 4.44-9.3 6.78 3.25 5.5 13.65 3.8 15.25 2.6.8-.6-.92 4.1-.4 3.7.2-.1 2.28-2.5 3.08-4.3-.26 1.57-1.4 4-2.06 6.7-.7 2.8-.9 5.9-1.8 9.3-.2 1.46 6.42-2.85 5.45-13.2.6 5.38-2.1 15.4-1.4 15.9 1.4 1.05 5.3-5 5.66-9.1 1.1 2.08 3.5 6.4 5.6 7.38-.26-3.1 0-2.92-.9-6 .52-4.03.6-9.7.72-16.03 5.6 10.7 7.8 15.24 6.24 23.45 1.64.7 4.3-5.7 4.1-9 2.13 9.2 11.36 10.57 11.5 10.3z" stroke-linecap="round" stroke-width="1.06"/>
      <path stroke-linejoin="round" d="M305.36 67.72s-3.82 2.88-8.56 2.7c1.2 4.75 11 1.1 11 1.1s-4.73 5.26-8.12 6.1c2.03 1.7 10.6 1.1 12.03.26 1.5-.84 4-4.15 4-4.15s-8.8 10.17-10.1 10.08c-.1 1.2 9.3.8 11.2-1 2-1.8 6.9-4.4 6.9-4.4s-12.8 9-13.4 9c4.9 1.3 14.5-1.5 20.7-5.3-9.1 6.1-10 7.2-14.6 9.3 4.2 1 6.3 3.8 20.4-2.3 8-3.8 12.6-10.7 12.6-10.7-5 6.7-12.9 12.4-21.6 18-.5 1 9.3 5.2 21.9-7.9" stroke-linecap="round" stroke-width="1.06"/>
      <path d="M373.45 96s.85 4 4.24 7.04c3.3 3.04 3.6 6 3.6 6m-9.6-38.94s1.2 3.5 4.6 5.8c3.5 2.3 8.9 9.5 9.3 10.75.4 1.53 2.4 12.6 2.3 13.8M350 75.55c.25 1.35-5 8.2 2.2 16.26-6.53 8-6.53 9-6.53 9s3.64 2.1 10.17-3.5c10.75 13.2 7.17 19.3 7.17 19.3" stroke-linecap="round" stroke-width="1.06"/>
      <path stroke-linejoin="round" d="M362.32 107.2s-1-1.4.78-6.7c1.6 1.9 3.36 2.32 4.13 3.1.78.77 8.9 1.94 9.4 7.37" stroke-linecap="round" stroke-width="1.06"/>
      <path d="M371.86 57.46c0-.4-1.63-3.9-7.73.48 3.27.2 6.5 2.07 7.73-.48z" stroke-width="1.06"/>
      <path stroke-linejoin="round" d="M430.1 73.5c.3.16 18.22 4.04 24.2 2.1-7.62 10.16-22.86 3.3-22.86 3.3 7.47 2.23 7.77 2.08 10.16 4.17.75 1.94-13.75 1.05-18.53-1.64 13.3 4.18 13.6 3.88 14.05 5.52.6 2.25-21.82-.6-23.76-3.58 5.98 4.63 9.26 5.53 12.55 7.62-4 1.7-11.5 3.5-25.2-6.2 18.1 16.4 34.4 15.4 36.9 18.4-6.2 9.2-30.6-5.6-41.8-13s24.5 18.1 27.8 17.6c-1.6 2.5-13.4.3-14.2-.9" stroke-width="1.06"/>
      <path d="M434.73 90.7c-2.1.3-8.37.3-9.26.14" stroke-linecap="round" stroke-width="1.06"/>
      <path stroke-linejoin="round" d="M300.1 65s13.64 7.2 19.4 6.7c-1.52 1.44-3.8 2.03-3.8 2.03 1.43.6 5.4 2.7 11.42 1.36-1.44 1.4-3.3 3-3.3 3s5.17 1.9 11-1.1c-1.77 2.2-2.8 3.8-2.8 3.8l4.08.2" stroke-linecap="round" stroke-width="1.06"/>
    </g>
  </g>
</svg>
